<svg width="53" height="53" viewBox="0 0 53 53" fill="none" xmlns="http://www.w3.org/2000/svg">
<path d="M50.8512 15.5165C49.0861 12.3288 46.5306 10.3529 44.2122 9.22002C39.391 6.90163 35.7027 8.19255 33.8849 8.82484C32.7257 9.40443 31.8563 9.87865 31.909 9.93134C32.0407 9.98403 32.1461 10.0367 32.2778 10.0894C32.5676 10.0631 33.0945 9.90499 34.122 9.5625C36.0188 9.0356 39.2857 7.9291 43.7643 10.1421C45.8983 11.2223 48.2694 13.0664 49.9028 16.0434C51.5099 18.9678 52.2212 23.0776 50.8776 27.4246C49.5866 31.7716 46.8731 34.8803 44.3439 37.146C41.7621 39.4117 39.233 40.9397 37.0727 42.1516C32.673 44.4963 29.6169 45.5238 27.7201 46.2351C25.1646 47.1045 24.1108 47.3943 23.6893 47.526C23.136 47.2889 21.8978 46.7884 19.6321 45.313C17.8933 44.1275 15.1007 42.3624 11.2806 38.9638C9.38378 37.2514 7.24982 35.1174 5.22123 32.2194C3.21899 29.3478 1.29579 25.5541 1.26944 20.891C1.21675 16.2279 2.71843 12.2234 5.19489 9.79961C7.61865 7.3495 10.5957 6.37473 13.0194 6.00589C18.1041 5.21554 21.0547 7.03336 22.7935 8.11351C24.8221 9.48347 25.8759 10.3529 26.113 10.4846C26.1921 10.4056 26.2974 10.3529 26.3765 10.2738C26.3238 10.0894 25.4807 9.14098 23.215 7.45488C21.5816 6.29569 18.2621 4.21442 12.8877 5.00477C10.2795 5.34726 7.09175 6.34838 4.40453 9.0356C1.69097 11.6701 0.0839066 16.0434 0.162942 20.891C0.189288 25.8966 2.24422 29.8747 4.29915 32.8517C6.40677 35.8551 8.64612 38.0154 10.5693 39.7278C14.4948 43.1527 17.3664 44.8915 19.1842 45.9717C21.8187 47.4997 23.3204 48.0002 23.5048 48.0266C23.8473 48.0793 25.2173 47.7368 27.9308 46.9728C29.9067 46.3405 33.0155 45.3921 37.5205 43.0473C39.7599 41.8618 42.368 40.3074 45.0553 37.9627C47.6898 35.618 50.5351 32.3775 51.9314 27.7407C53.3804 23.1567 52.59 18.678 50.8512 15.5165Z" fill="#F18D93"/>
<path d="M24.1095 23.2988C24.1358 23.3251 24.1622 23.3515 24.2148 23.4042C24.1885 22.7192 23.7933 22.0342 23.1874 21.7444C22.5024 21.3756 21.5013 21.4019 21.0534 22.1396C20.948 22.2977 20.9744 22.4821 21.0798 22.6138C22.1599 22.9826 22.5551 22.1923 24.1095 23.2988Z" fill="#0B405E"/>
<path d="M14.5741 22.3401C14.5214 22.3665 14.4951 22.3928 14.4688 22.4192C14.6532 21.7606 15.2328 21.2073 15.865 21.0492C16.6291 20.8648 17.5775 21.1283 17.8409 21.945C17.8936 22.1294 17.8146 22.2875 17.7092 22.4192C16.55 22.5246 16.3656 21.6288 14.5741 22.3401Z" fill="#0B405E"/>
<path d="M19.7116 36.077C19.8696 36.077 20.0014 35.9979 20.1068 36.6039C20.4756 38.5007 19.817 40.7664 17.3669 40.6084C15.3383 40.5293 15.0221 38.5798 14.9694 37.8685C14.8641 36.9991 14.9694 36.3668 15.0748 36.0506C15.3383 35.392 15.3119 35.7345 15.47 35.7872C15.6281 35.8399 15.7598 35.4447 15.7071 36.0243C15.7071 36.3141 15.4963 37.1835 15.6281 37.8421C15.7598 38.4744 16.313 39.8444 17.4195 39.8707C20.0277 39.9234 19.5799 37.2625 19.4481 35.9189C19.5535 35.2603 19.5535 36.077 19.7116 36.077Z" fill="#0B405E"/>
<path d="M17.4971 36.8651C17.339 36.8387 17.339 36.2065 17.4707 33.9408C17.7342 30.832 17.9449 31.0428 18.0503 31.0691C18.2347 31.0955 18.2874 30.9374 18.024 33.9935C17.8132 36.4172 17.6288 36.8914 17.4971 36.8651Z" fill="#0B405E"/>
<path d="M35.3594 24.8647C34.8325 24.4168 34.0158 24.6276 33.5152 24.9964C33.1991 25.2335 32.8302 25.655 32.9093 26.1029C33.3571 25.7077 33.9104 25.5233 34.5163 25.5233C34.7798 25.5233 34.9905 25.7077 35.254 25.6287C35.5174 25.5233 35.6228 25.1018 35.3594 24.8647Z" fill="#0B405E"/>
<path d="M41.8942 23.5741C41.2356 23.3897 40.4189 23.5214 40.1554 24.2328C40.1027 24.3908 40.1554 24.5489 40.2608 24.6279C40.577 24.786 40.8141 24.4172 41.1039 24.3645C41.7361 24.2591 42.4211 24.3118 42.9744 24.6279C43.0007 24.6543 43.0534 24.6806 43.0798 24.6806C42.948 24.1274 42.4738 23.7322 41.8942 23.5741Z" fill="#0B405E"/>
<path d="M49.4558 27.0254C49.4558 26.999 49.4558 26.9727 49.4558 26.9463C49.3504 26.314 49.1397 25.7344 48.8499 25.1549C48.5601 24.707 48.2703 24.3382 47.9805 23.9957C47.4536 23.3634 47.0584 22.8365 47.0847 22.2832C47.2165 20.0702 46.5315 18.3578 45.9519 16.9878L45.7675 16.5663L45.504 16.0394C45.2933 15.6179 45.0298 15.4071 44.74 15.4071C44.4502 15.4071 44.1604 15.5915 43.8179 15.8286L43.6599 15.934C43.0539 16.3028 42.6324 16.5926 42.2899 16.8298C40.9463 17.8309 40.6302 18.3051 40.314 18.8583C40.2613 18.9374 40.2086 19.0164 40.1823 19.0954C39.7871 18.9374 39.2075 18.7793 38.3381 18.7793C37.8639 18.7793 37.3633 18.832 36.8101 18.911C35.2557 19.1745 34.7552 19.4906 34.1492 19.9121C33.9912 20.0175 33.8331 20.1229 33.6487 20.2283C33.2798 19.8595 32.4895 19.2008 31.0668 18.6212C30.619 18.4368 30.1184 18.2787 29.5125 18.0943C29.3017 18.0416 29.1963 17.9626 29.17 17.8572C29.1173 17.6728 29.4334 17.3303 29.5388 17.2249C29.934 16.8298 30.5136 16.5926 31.3039 16.54C31.5937 16.4873 31.8835 16.4873 32.2524 16.4873C32.8583 16.4873 33.5433 16.4873 34.4127 16.2502C35.045 16.1448 35.4928 15.6969 35.6509 15.0119C35.8617 14.1689 35.5719 13.1941 34.9923 12.7199C34.7025 12.5091 34.4127 12.3247 34.0965 12.114L33.9912 12.0613C32.147 10.9021 30.3555 10.2698 28.9329 10.2698C28.0371 10.2698 27.2731 10.5069 26.6935 11.0075C25.4816 12.0349 25.0865 13.036 24.823 13.6683C24.7703 13.8264 24.7176 13.9581 24.6386 14.0898C24.5332 14.406 24.4542 14.6431 24.4015 14.8275C23.7165 14.4323 22.4256 13.9581 20.2389 13.7737C19.8701 13.7474 19.5013 13.7474 19.1588 13.7474C17.1565 13.7474 16.2871 14.1162 15.7339 14.4323L15.7075 14.327C15.5495 13.8791 15.207 12.9043 14.0741 11.0075C13.679 10.4279 13.073 9.9273 12.3617 9.6375C11.8875 9.47943 11.3606 9.40039 10.8073 9.40039C10.4121 9.40039 10.017 9.42674 9.62179 9.50577C8.56798 9.71653 7.54051 10.0327 6.56574 10.4805C5.93345 10.7703 5.40655 11.0338 4.93233 11.3236C4.58984 11.4817 4.01025 11.9822 3.82583 12.5882C3.72045 12.9833 3.7468 13.3522 3.95756 13.721C4.72157 14.9065 5.93345 15.091 6.98726 15.249C7.48782 15.3281 7.93569 15.4071 8.33087 15.5652C9.51641 16.0131 10.6493 17.304 10.4648 19.1481C10.3858 20.8342 9.67448 22.6521 8.77874 24.8387C8.62067 25.2602 8.43625 25.7081 8.22549 26.1823C7.51417 27.8421 6.72381 29.7126 6.90823 31.9519C7.09264 34.6655 8.83143 36.0618 11.2552 36.9575C12.4144 37.4054 13.7843 37.4054 14.8908 36.7995C15.8129 36.2989 16.6033 35.5876 17.2883 34.5865C17.4463 34.3494 17.6044 34.0859 17.7361 33.7961C17.8942 34.2703 18.105 34.7445 18.3421 35.1661C19.2115 36.6414 21.24 37.7215 23.3477 37.985C25.4553 38.2484 27.5893 37.6689 28.564 35.8247C29.17 34.6918 29.5388 34.323 30.0921 34.323C30.4345 34.323 30.8561 34.4547 31.4357 34.6391C31.7518 34.7445 32.0943 34.8499 32.5158 34.9553C34.0438 35.3768 35.8353 35.7983 37.7322 35.7983C38.3381 35.7983 38.9441 35.7456 39.5237 35.6666C42.3163 35.2451 47.3219 33.9278 49.166 29.8707C49.5085 29.0276 49.6139 28.0528 49.4558 27.0254ZM27.6683 35.4559C26.0876 38.1694 20.6341 36.8785 19.3695 34.6128C19.027 34.0069 18.7899 33.2955 18.6846 32.5842C20.397 32.0837 23.2686 30.5029 22.0831 29.2911C20.9502 28.1319 15.7339 27.763 14.7591 28.2899C13.2311 29.133 15.4704 31.5304 16.9721 32.3998C16.7614 32.9531 16.4979 33.4536 16.2081 33.9278C15.2597 35.4032 13.4419 36.536 11.7031 35.772C9.77986 35.0607 8.35722 34.0859 8.19914 31.8729C8.01473 30.0287 8.7524 28.3163 9.43737 26.6829C9.62179 26.2614 9.80621 25.8135 9.96428 25.392L10.017 25.2602C10.8337 23.2317 11.624 21.3084 11.7294 19.2799C11.9665 17.1986 10.6493 15.091 8.75239 14.4587C8.1728 14.2743 7.56686 14.1689 7.0663 14.0635C6.09152 13.8791 5.30117 13.7474 4.98502 13.1941C4.93233 13.1414 4.93233 13.0624 4.93233 13.0097C5.03771 12.5882 6.09152 12.0613 6.7765 11.7188L6.98726 11.6134C7.883 11.1919 8.80509 10.8757 9.77986 10.665C10.1487 10.5859 10.5175 10.5332 10.86 10.5332C11.8611 10.5332 12.7042 10.9284 13.2047 11.6397C14.1795 13.4576 14.5484 14.327 14.7328 14.7221C14.8118 14.9065 14.8908 15.3808 15.1806 15.3808C15.286 15.3808 15.4177 15.3544 15.6285 15.2754L15.7339 15.249C16.2344 15.1173 17.1829 14.8275 19.027 14.8275C19.3695 14.8275 19.7384 14.8275 20.1072 14.8539C22.7417 15.0646 23.9009 15.6179 24.4015 15.8813L24.4278 15.9077C24.4542 15.9077 24.4805 15.934 24.5069 15.934C24.6649 15.934 24.8757 15.7233 25.4553 14.6431L25.4816 14.5641C25.5607 14.4323 25.6397 14.2743 25.7451 14.0898C26.0612 13.5103 26.4828 12.6935 27.3521 12.0349C27.6946 11.7451 28.1689 11.587 28.7748 11.587C29.934 11.587 31.541 12.1666 33.2271 13.2205C33.596 13.4576 34.4654 14.1952 34.3863 14.6694C34.36 14.8539 34.2019 14.9856 33.9121 15.0646C33.3852 15.2227 32.7793 15.249 32.1997 15.249C31.7782 15.2754 31.4093 15.2754 31.0405 15.3281C28.9592 15.6706 27.9054 16.9351 27.6683 19.4906L27.6419 19.8595C27.4839 21.3084 27.2731 23.2843 27.9581 25.3129C28.0635 25.7871 27.8264 26.314 27.5366 26.999C27.3258 27.4732 27.0887 28.0265 26.957 28.6324C26.6408 29.8707 27.0623 30.8718 27.4839 31.8466C28.0108 33.0057 28.4586 34.0859 27.6683 35.4559ZM47.9278 29.4755C46.8213 31.9519 43.5281 33.8751 39.2865 34.4811C38.4435 34.5865 37.6005 34.6655 36.7574 34.6655C33.596 34.6655 30.9614 33.8488 29.3544 32.3735C28.9065 31.9519 28.5904 31.425 28.3796 30.8454C29.1173 31.1352 29.8549 31.267 30.619 31.267C31.383 31.267 31.9099 31.1879 32.9373 30.8981C33.2271 30.8191 33.3852 30.6083 33.3589 30.4503C33.3325 30.3449 33.2535 30.2131 33.0427 30.2131C32.99 30.2131 32.911 30.2131 32.8583 30.2395C32.226 30.4239 31.8835 30.4503 31.2776 30.4503C30.2501 30.4503 29.2227 30.2131 28.2479 29.7126C28.2215 29.7126 28.1952 29.6862 28.1689 29.6862C28.1689 29.4228 28.1689 29.1593 28.2215 28.8959C28.2742 28.5797 28.406 28.2372 28.564 27.8948C28.7221 27.9738 28.8802 28.0265 29.0382 28.0792C29.3544 28.2109 29.6178 28.369 29.9867 28.5007C30.4345 28.6324 30.5926 28.6851 31.1986 28.7115C31.462 28.7115 31.7255 28.6851 31.9626 28.6851H32.0153C32.3314 28.6588 32.5158 28.448 32.5158 28.2636C32.5158 28.1055 32.3841 27.9738 32.1206 27.9738C32.0943 27.9738 32.0943 27.9738 32.0679 27.9738C31.9099 27.9738 31.7782 28.0001 31.6464 28.0001C31.0932 28.0001 30.7243 27.8684 30.1974 27.6577C29.7496 27.4996 29.3807 27.2098 28.9592 27.0254C29.17 26.4985 29.328 25.8662 29.2227 25.1022C28.564 23.2317 28.6958 21.6509 28.8011 20.281C28.8275 20.0702 28.8275 19.8858 28.8538 19.7014C28.8802 19.517 28.9329 19.3326 28.9592 19.1481V19.0954L29.1963 19.1481C29.7496 19.3062 30.2765 19.4379 30.7243 19.596C30.8824 19.675 31.0668 19.7277 31.2249 19.7804C31.5147 19.8858 31.8308 19.9912 32.1206 20.1493C32.2524 20.2283 32.4368 20.4127 32.5949 20.5971C32.8056 20.8342 33.0164 21.045 33.2008 21.124C33.2798 21.1504 33.3852 21.1767 33.4906 21.1767C34.0438 21.1767 34.7552 20.8606 35.4401 20.5444C35.9407 20.3073 36.4413 20.0966 36.7838 20.0439C37.5214 19.9385 38.1274 19.8595 38.6806 19.8595C38.9177 19.8595 39.1812 19.8595 39.3919 19.8858C39.4446 19.8858 39.55 19.9121 39.6817 19.9385C39.9188 19.9912 40.2086 20.0702 40.4194 20.0702C40.5511 20.0702 40.6565 20.0439 40.7355 19.9912C40.92 19.8331 40.9463 19.7014 40.9726 19.5697C40.9726 19.4906 40.999 19.4116 41.0253 19.3326C41.078 19.2008 41.1834 19.0164 41.2624 18.9374C41.5786 18.5949 42.0001 18.2787 42.3953 17.9889C42.5534 17.8836 42.7114 17.7782 42.8432 17.6728C43.2383 17.4093 43.7389 17.1196 44.1868 16.8561C44.3185 16.7771 44.4239 16.7244 44.5556 16.6453L44.74 17.0405C44.7927 17.1986 44.8717 17.3567 44.9244 17.5147C45.3986 18.8056 46.0046 20.3864 45.8465 22.3096C45.8465 23.179 46.268 23.8376 46.7159 24.4172C46.1627 25.2339 45.5567 25.7345 44.7927 26.0506C44.5293 26.156 44.4239 26.3667 44.4502 26.4985C44.4766 26.6302 44.6083 26.7356 44.7664 26.7356C44.8454 26.7356 44.9244 26.7092 45.0035 26.6829C46.0046 26.2877 46.7686 25.9452 47.3482 25.1812C47.4799 25.3656 47.638 25.5764 47.7434 25.7608C47.9278 26.1296 48.0595 26.5248 48.1386 26.92C47.0584 27.4996 45.8729 28.0792 44.5819 28.2899C44.2921 28.3426 44.1868 28.5007 44.2131 28.6324C44.2131 28.7642 44.3712 28.9222 44.6346 28.9222C44.6873 28.9222 44.7137 28.9222 44.7927 28.9222C46.0046 28.7115 47.1638 28.527 48.2439 27.9738C48.2439 28.5007 48.1386 29.0013 47.9278 29.4755Z" fill="#0B405E"/>
<path d="M37.6513 31.9414C37.3878 31.9414 37.1244 31.9151 36.8346 31.836C35.4119 31.3355 35.0431 30.5715 34.885 30.308C34.6743 29.8865 35.0958 29.623 35.3856 29.9919C35.4119 30.0182 35.4383 30.0446 35.491 30.0973C35.7017 30.3344 36.0969 30.7822 37.0453 31.1247C37.3088 31.2038 37.5196 31.2564 37.704 31.2564C37.9674 31.2564 38.2045 31.1774 38.4153 30.993C38.8105 30.6768 38.7051 29.9919 38.5997 29.465C38.5207 29.0698 38.4943 28.6746 38.3889 28.2267C38.2836 28.2004 38.2045 28.174 38.0991 28.1214L37.9938 28.095C37.5722 27.9106 37.0453 27.4364 37.0453 26.9885C37.0717 26.3035 37.783 26.4089 38.2572 26.4089C38.4416 26.4089 38.5207 26.4353 38.6787 26.3299C38.7841 26.2508 39.1793 26.0928 39.2847 26.0928C39.4428 26.0928 39.6272 26.1455 39.7326 26.2772C40.0487 26.646 39.6799 27.3837 39.4954 27.6735C39.3901 27.8316 39.2583 27.9106 39.1266 28.016C39.1003 28.0423 39.1003 28.0423 39.0739 28.0687C39.1793 28.8063 39.311 29.4913 39.4164 30.2026C39.4691 30.6505 39.7062 30.8349 40.1277 30.8349C40.1804 30.8349 40.2595 30.8349 40.3122 30.8349C40.7337 30.7822 40.9444 30.6505 41.2869 30.3607C41.9456 29.7548 42.13 29.2279 42.2354 28.9117C42.2617 28.8063 42.288 28.7273 42.3407 28.6483C42.5515 28.2794 42.9203 28.3058 42.9203 28.78C42.9203 28.8327 42.894 28.8854 42.894 28.9381C42.8413 29.3069 42.7623 30.0446 41.7875 30.9403C41.366 31.3355 40.7073 31.5726 40.1277 31.5726C39.996 31.5726 39.8906 31.5726 39.7852 31.5462C39.6799 31.5199 39.5745 31.4672 39.4954 31.3882C39.4164 31.3355 39.3637 31.3091 39.311 31.2828H39.2847C39.153 31.2828 39.0476 31.3882 38.9159 31.5199C38.8105 31.6253 38.7314 31.7043 38.5997 31.7833C38.3363 31.8624 38.0201 31.9414 37.6513 31.9414Z" fill="#0B405E"/>
</svg>
