<svg width="25" height="25" viewBox="0 0 25 25" fill="none" xmlns="http://www.w3.org/2000/svg">
<path d="M15.7219 22.5711C13.575 22.5711 11.4281 22.5607 9.28144 22.5744C7.55551 22.5855 5.83036 22.6354 4.10463 22.6473C3.61911 22.6473 3.13427 22.6109 2.65416 22.5389C1.61998 22.3905 1.20851 21.7794 1.55291 20.7935C1.78842 20.1331 2.09618 19.5006 2.47061 18.9075C4.057 16.3672 6.3652 14.7176 9.13149 13.6549C10.6333 13.066 12.2294 12.7527 13.8429 12.73C16.2553 12.7091 18.4761 13.3199 20.3726 14.9075C21.6673 15.9764 22.7253 17.3019 23.4798 18.7997C23.6898 19.2182 23.9265 19.6271 24.0947 20.0621C24.2563 20.4637 24.3691 20.8832 24.4311 21.3114C24.514 21.953 24.1557 22.3784 23.5136 22.4592C23.0657 22.5198 22.6145 22.5536 22.1622 22.5602C20.0155 22.57 17.8686 22.5649 15.7219 22.5649V22.5711ZM22.7747 21.0051C22.7831 20.9369 22.7824 20.8679 22.7727 20.7998C22.0888 19.0282 21.144 17.4271 19.6842 16.1729C18.5581 15.2053 17.2949 14.5091 15.7942 14.3202C14.0651 14.1027 12.3517 14.1483 10.6616 14.6234C7.46412 15.5221 4.91297 17.2913 3.16595 20.1433C2.96718 20.4678 2.8094 20.8171 2.62661 21.1653C2.68216 21.1957 2.74012 21.2214 2.7999 21.2423C3.39808 21.3734 3.99461 21.2963 4.59789 21.2627C5.85165 21.1925 7.10885 21.1624 8.36475 21.1559C12.4736 21.1349 16.5824 21.1364 20.6913 21.1169C21.3753 21.1132 22.0581 21.0452 22.775 21.0051H22.7747Z" fill="#FF3448"/>
<path d="M13.3803 1.74268C15.0343 1.70248 16.4163 2.49009 17.4654 3.92148C17.7127 4.25896 18.0112 4.57229 18.1918 4.94243C18.5955 5.76975 18.9298 6.61967 18.7153 7.58528C18.5138 8.49201 18.2512 9.36514 17.666 10.1083C16.6251 11.4286 15.2983 12.2448 13.6025 12.4477C12.076 12.6305 10.6246 12.4049 9.26945 11.6883C7.87371 10.9504 7.07958 9.75629 6.79127 8.22202C6.35733 5.91235 7.56853 3.8409 9.47961 2.73956C10.6361 2.07291 11.8849 1.73691 13.3803 1.74268ZM17.0045 6.43516C17.0803 5.85289 16.8467 5.38789 16.4848 4.96415C16.3436 4.79879 16.2159 4.62137 16.0689 4.46149C15.5368 3.88274 14.9301 3.42489 14.123 3.30373C12.9915 3.11693 11.83 3.26883 10.7851 3.74027C9.47911 4.33945 8.50485 5.25292 8.28037 6.77184C8.01855 8.54375 8.93513 10.1295 10.5653 10.6529C11.5421 10.9575 12.5735 11.047 13.5884 10.9152C14.9757 10.7568 16.6087 9.33411 16.8294 7.87387C16.9014 7.39625 16.9469 6.91454 17.0045 6.43467V6.43516Z" fill="#FF3448"/>
</svg>
