<svg width="40" height="41" viewBox="0 0 40 41" fill="none" xmlns="http://www.w3.org/2000/svg">
<path d="M22.5914 30.6976C20.5493 30.6976 18.5071 30.6876 16.4651 30.7007C14.8233 30.7112 13.1823 30.7587 11.5408 30.7701C11.0789 30.7701 10.6177 30.7354 10.161 30.6669C9.1773 30.5258 8.78589 29.9445 9.1135 29.0066C9.33752 28.3784 9.63027 27.7768 9.98643 27.2127C11.4955 24.7962 13.6911 23.2271 16.3225 22.2162C17.751 21.6561 19.2693 21.358 20.8041 21.3364C23.0989 21.3165 25.2113 21.8976 27.0153 23.4077C28.2468 24.4245 29.2533 25.6853 29.971 27.1101C30.1707 27.5082 30.3959 27.8971 30.5559 28.3109C30.7096 28.6929 30.8169 29.0919 30.8759 29.4993C30.9548 30.1096 30.6139 30.5142 30.0031 30.5911C29.5771 30.6488 29.1478 30.6809 28.7176 30.6872C26.6756 30.6965 24.6335 30.6917 22.5914 30.6917V30.6976ZM29.3002 29.2079C29.3083 29.143 29.3076 29.0774 29.2983 29.0127C28.6478 27.3275 27.7491 25.8045 26.3605 24.6114C25.2893 23.691 24.0877 23.0287 22.6602 22.8491C21.0154 22.6422 19.3856 22.6856 17.7779 23.1375C14.7364 23.9923 12.3097 25.6753 10.6479 28.3882C10.4588 28.6968 10.3087 29.0291 10.1348 29.3603C10.1877 29.3892 10.2428 29.4137 10.2997 29.4335C10.8687 29.5583 11.4361 29.4849 12.01 29.4529C13.2026 29.3862 14.3985 29.3576 15.5931 29.3514C19.5016 29.3314 23.41 29.3328 27.3185 29.3142C27.9691 29.3108 28.6186 29.246 29.3005 29.2079H29.3002Z" fill="#FB7987"/>
<path d="M20.3632 10.8842C21.9366 10.846 23.2511 11.5952 24.2491 12.9567C24.4844 13.2778 24.7682 13.5758 24.94 13.9279C25.3241 14.7149 25.6421 15.5233 25.438 16.4419C25.2464 17.3044 24.9966 18.1349 24.4399 18.8419C23.4498 20.0977 22.1877 20.8741 20.5746 21.0671C19.1226 21.241 17.7419 21.0264 16.4529 20.3448C15.1252 19.6429 14.3698 18.507 14.0956 17.0475C13.6828 14.8505 14.8349 12.8801 16.6528 11.8325C17.7528 11.1983 18.9408 10.8787 20.3632 10.8842ZM23.8107 15.3478C23.8828 14.794 23.6606 14.3516 23.3163 13.9486C23.182 13.7913 23.0605 13.6225 22.9207 13.4704C22.4146 12.9199 21.8374 12.4844 21.0697 12.3691C19.9934 12.1914 18.8885 12.3359 17.8946 12.7844C16.6523 13.3543 15.7256 14.2233 15.512 15.6681C15.263 17.3536 16.1349 18.862 17.6855 19.3599C18.6146 19.6496 19.5958 19.7348 20.5612 19.6094C21.8808 19.4587 23.4341 18.1054 23.6441 16.7164C23.7126 16.262 23.7559 15.8038 23.8107 15.3474V15.3478Z" fill="#FB7987"/>
</svg>
