<svg width="17" height="17" viewBox="0 0 17 17" fill="none" xmlns="http://www.w3.org/2000/svg">
<g opacity="0.7">
<circle cx="8.33203" cy="8.72656" r="8" fill="#60D2D7"/>
<path fill-rule="evenodd" clip-rule="evenodd" d="M8.33203 4.22656C8.43149 4.22656 8.52687 4.26607 8.5972 4.3364C8.66752 4.40672 8.70703 4.50211 8.70703 4.60156V8.35156H12.457C12.5565 8.35156 12.6519 8.39107 12.7222 8.4614C12.7925 8.53172 12.832 8.62711 12.832 8.72656C12.832 8.82602 12.7925 8.9214 12.7222 8.99173C12.6519 9.06205 12.5565 9.10156 12.457 9.10156H8.70703V12.8516C8.70703 12.951 8.66752 13.0464 8.5972 13.1167C8.52687 13.1871 8.43149 13.2266 8.33203 13.2266C8.23257 13.2266 8.13719 13.1871 8.06687 13.1167C7.99654 13.0464 7.95703 12.951 7.95703 12.8516V9.10156H4.20703C4.10758 9.10156 4.01219 9.06205 3.94187 8.99173C3.87154 8.9214 3.83203 8.82602 3.83203 8.72656C3.83203 8.62711 3.87154 8.53172 3.94187 8.4614C4.01219 8.39107 4.10758 8.35156 4.20703 8.35156H7.95703V4.60156C7.95703 4.50211 7.99654 4.40672 8.06687 4.3364C8.13719 4.26607 8.23257 4.22656 8.33203 4.22656Z" fill="white"/>
</g>
</svg>
