<svg width="25" height="25" viewBox="0 0 25 25" fill="none" xmlns="http://www.w3.org/2000/svg">
<circle cx="12.9531" cy="12.9844" r="12" fill="#014C76"/>
<path fill-rule="evenodd" clip-rule="evenodd" d="M12.9531 6.23438C13.1023 6.23438 13.2454 6.29364 13.3509 6.39913C13.4564 6.50462 13.5156 6.64769 13.5156 6.79688V12.4219H19.1406C19.2898 12.4219 19.4329 12.4811 19.5384 12.5866C19.6439 12.6921 19.7031 12.8352 19.7031 12.9844C19.7031 13.1336 19.6439 13.2766 19.5384 13.3821C19.4329 13.4876 19.2898 13.5469 19.1406 13.5469H13.5156V19.1719C13.5156 19.3211 13.4564 19.4641 13.3509 19.5696C13.2454 19.6751 13.1023 19.7344 12.9531 19.7344C12.8039 19.7344 12.6609 19.6751 12.5554 19.5696C12.4499 19.4641 12.3906 19.3211 12.3906 19.1719V13.5469H6.76562C6.61644 13.5469 6.47337 13.4876 6.36788 13.3821C6.26239 13.2766 6.20312 13.1336 6.20312 12.9844C6.20312 12.8352 6.26239 12.6921 6.36788 12.5866C6.47337 12.4811 6.61644 12.4219 6.76562 12.4219H12.3906V6.79688C12.3906 6.64769 12.4499 6.50462 12.5554 6.39913C12.6609 6.29364 12.8039 6.23437 12.9531 6.23438Z" fill="white"/>
</svg>
