<svg width="36" height="37" viewBox="0 0 36 37" fill="none" xmlns="http://www.w3.org/2000/svg">
<circle cx="18" cy="18.7266" r="18" fill="#EFFBFB"/>
<g clip-path="url(#clip0_297_73448)">
<path d="M10.7033 24.2802C11.3215 24.6206 12.0294 24.712 12.8675 24.5597C13.3085 24.4794 13.749 24.3661 14.1755 24.2567C14.3647 24.2082 14.5539 24.1598 14.7437 24.1136C14.8062 24.0986 14.8684 24.0827 14.9263 24.0683L14.9458 24.0635L14.9497 24.0685C14.9566 24.0773 14.9621 24.0836 14.9634 24.083C15.037 24.4459 15.1105 24.8091 15.1839 25.1723C15.3236 25.8641 15.468 26.5795 15.6141 27.2823C15.6658 27.5104 15.7322 27.735 15.8128 27.9546C15.8471 28.053 15.9086 28.1398 15.9902 28.2048C16.0718 28.2699 16.1701 28.3105 16.274 28.3223C16.8092 28.4077 17.3567 28.3799 17.8808 28.2405C18.0713 28.1927 18.2593 28.1353 18.444 28.0683C18.7711 27.9509 18.8106 27.7747 18.7706 27.4703C18.6076 26.263 18.3147 25.0769 17.8971 23.9324C17.8426 23.7818 17.7926 23.6297 17.7347 23.454C17.7201 23.4095 17.7049 23.3636 17.6892 23.3161C17.7961 23.3443 17.8996 23.3716 17.9997 23.398C18.2938 23.4754 18.5714 23.5485 18.8428 23.6256C19.531 23.8209 20.2279 24.0312 20.9018 24.2344C22.3341 24.6666 23.8152 25.1129 25.3038 25.4455C25.4006 25.467 25.4971 25.4909 25.5932 25.5147C26.0858 25.6367 26.5948 25.7625 27.1487 25.5807C27.5367 25.4527 27.6943 25.3498 27.5708 24.9022C27.5344 24.7705 27.4939 24.6379 27.4548 24.5097C27.3924 24.3058 27.3282 24.0949 27.28 23.8854C26.9733 22.5502 26.6837 21.2429 26.441 20.1405C26.4 19.9537 26.3702 19.7614 26.3413 19.5752C26.3313 19.5107 26.3214 19.4464 26.311 19.3825C26.7773 19.2026 27.1713 18.8748 27.4324 18.4496C27.6936 18.0243 27.8072 17.5255 27.7558 17.0298C27.6897 16.3923 27.503 15.9273 27.1685 15.5672C26.6161 14.9718 25.8622 14.8532 25.1884 14.7985L25.1726 14.7347C25.1519 14.6513 25.1327 14.571 25.1115 14.4911C24.9928 14.0423 24.8735 13.5937 24.7539 13.145C24.4684 12.0732 24.1734 10.9649 23.8928 9.87265C23.8185 9.58378 23.6664 9.46931 23.5516 9.42393C23.3795 9.35595 23.1624 9.39186 22.956 9.52251C22.8771 9.57615 22.804 9.63784 22.7379 9.70655C22.7147 9.72913 22.6915 9.75172 22.6679 9.77317C22.5999 9.83575 22.5327 9.89929 22.4656 9.96288C22.3469 10.0751 22.2242 10.1912 22.0993 10.299C21.7326 10.6148 21.3643 10.929 20.9946 11.2415C20.2525 11.8718 19.4852 12.5235 18.7495 13.1862C17.8827 13.9671 16.9906 14.829 16.0982 15.7481C16.0618 15.7854 16.0263 15.8233 15.9912 15.8601C15.7099 16.1577 15.467 16.4149 15.0287 16.3711C14.9744 16.3691 14.9203 16.3785 14.8699 16.3988C14.8591 16.4024 14.8484 16.406 14.8376 16.4091C14.6614 16.4616 14.4846 16.5122 14.3074 16.5627C13.8993 16.6793 13.4773 16.7999 13.0697 16.9437C12.1577 17.2659 11.4938 17.5847 10.9168 17.9773C10.0658 18.5564 9.57631 19.1809 9.37654 19.9425C9.13381 20.8174 9.15918 21.7444 9.4494 22.6041C9.64388 23.1698 9.96158 23.8715 10.7033 24.2802ZM16.6809 23.4294L17.6482 27.3268L16.8342 27.5288L15.8016 23.8328L16.6809 23.4294ZM10.3832 19.8986C10.5575 19.3649 10.9517 18.9063 11.5225 18.5725C11.9988 18.2887 12.4958 18.041 13.0094 17.8316C13.5369 17.6215 14.0682 17.441 14.6308 17.25C14.8438 17.1776 15.0589 17.1046 15.2767 17.0288L16.5208 22.3792L16.4518 22.4072C16.3545 22.4495 16.2546 22.4857 16.1529 22.5158C15.7813 22.6169 15.4087 22.7361 15.0484 22.8516C14.2602 23.1036 13.4453 23.3643 12.6028 23.4466L12.5843 23.4485C12.4186 23.465 12.2468 23.4816 12.0804 23.4822C11.3779 23.4854 10.8864 23.1876 10.5774 22.5715C10.3662 22.1623 10.2402 21.7146 10.2069 21.2552C10.1735 20.7959 10.2336 20.3344 10.3835 19.8986L10.3832 19.8986ZM16.3245 16.7509C17.0728 15.8896 22.2194 11.4787 23.2072 10.8437C24.0348 13.9182 24.7698 17.073 25.4814 20.1249C25.812 21.544 26.1537 23.01 26.5025 24.4596C25.3841 24.1882 24.2712 23.8796 23.1936 23.5806C21.3895 23.0802 19.5245 22.5628 17.6463 22.228C17.2148 20.0757 16.7941 18.3324 16.3248 16.7508L16.3245 16.7509ZM26.0573 18.2413L25.4167 15.6603C26.0278 15.687 26.5381 16.16 26.6768 16.8437C26.7963 17.4315 26.5379 18.0029 26.0576 18.2411L26.0573 18.2413Z" fill="#00426A"/>
</g>
<defs>
<clipPath id="clip0_297_73448">
<rect width="19.3737" height="17.044" fill="white" transform="translate(7 13.4326) rotate(-13.9389)"/>
</clipPath>
</defs>
</svg>
