<svg width="27" height="33" viewBox="0 0 27 33" fill="none" xmlns="http://www.w3.org/2000/svg">
<path d="M0.0112305 19.3968C0.0112305 22.0313 0.774283 24.6066 2.2039 26.7971C3.63351 28.9876 5.66547 30.6949 8.04283 31.7031C10.4202 32.7113 13.0362 32.9751 15.56 32.4611C18.0837 31.9471 20.402 30.6785 22.2215 28.8156C24.0411 26.9527 25.2802 24.5793 25.7822 21.9954C26.2843 19.4115 26.0266 16.7333 25.0419 14.2993C24.0571 11.8653 22.3896 9.78501 20.25 8.32135C18.1104 6.8577 15.595 6.07648 13.0217 6.07648H8.6849V0.526367L2.17965 7.18651L8.6849 13.8466V8.29653H13.0217C15.1661 8.29653 17.2623 8.94755 19.0453 10.1673C20.8282 11.387 22.2179 13.1206 23.0385 15.1489C23.8591 17.1772 24.0738 19.4091 23.6555 21.5623C23.2372 23.7155 22.2045 25.6934 20.6882 27.2458C19.172 28.7982 17.2401 29.8554 15.1369 30.2837C13.0338 30.712 10.8538 30.4922 8.87265 29.652C6.89152 28.8119 5.19821 27.3891 4.00687 25.5637C2.81553 23.7383 2.17965 21.5922 2.17965 19.3968H0.0112305Z" fill="#625DF5"/>
<path d="M11.8892 20.0264L10.2407 19.6279L10.8735 13.8857H17.1313V15.5967H12.5845L12.2876 18.2529C12.4491 18.154 12.6834 18.055 12.9907 17.9561C13.3032 17.8519 13.6548 17.7998 14.0454 17.7998C14.5871 17.7998 15.0715 17.8883 15.4985 18.0654C15.9256 18.2373 16.2876 18.4873 16.5845 18.8154C16.8866 19.1436 17.1131 19.5446 17.2642 20.0186C17.4204 20.4873 17.4985 21.0186 17.4985 21.6123C17.4985 22.1331 17.4204 22.6227 17.2642 23.0811C17.1131 23.5342 16.8813 23.9378 16.5688 24.292C16.2563 24.641 15.8631 24.917 15.3892 25.1201C14.9152 25.318 14.3579 25.417 13.7173 25.417C13.2329 25.417 12.7668 25.3467 12.3188 25.2061C11.8761 25.0602 11.4777 24.8493 11.1235 24.5732C10.7694 24.292 10.4855 23.9482 10.272 23.542C10.0636 23.1357 9.94906 22.6696 9.92822 22.1436H11.9673C12.0037 22.4925 12.0975 22.7894 12.2485 23.0342C12.3996 23.279 12.5975 23.4665 12.8423 23.5967C13.0923 23.7269 13.3813 23.792 13.7095 23.792C14.0063 23.792 14.2616 23.7373 14.4751 23.6279C14.6938 23.5133 14.8735 23.3545 15.0142 23.1514C15.1548 22.9482 15.259 22.7087 15.3267 22.4326C15.3944 22.1566 15.4282 21.8545 15.4282 21.5264C15.4282 21.2087 15.3892 20.9196 15.311 20.6592C15.2329 20.3936 15.1131 20.1644 14.9517 19.9717C14.7902 19.779 14.5871 19.6305 14.3423 19.5264C14.1027 19.4222 13.8215 19.3701 13.4985 19.3701C13.0662 19.3701 12.7329 19.4352 12.4985 19.5654C12.2694 19.6956 12.0662 19.8493 11.8892 20.0264Z" fill="#625DF5"/>
</svg>
