<svg width="93" height="92" viewBox="0 0 93 92" fill="none" xmlns="http://www.w3.org/2000/svg">
<path d="M46.372 91.1399C33.8021 91.2088 21.5077 85.802 13.0015 76.5726C-3.49428 59.4569 -3.01218 29.9435 14.1724 13.4477C50.6078 -22.5056 109.635 20.0598 87.0433 65.9657C79.6047 81.1873 63.3155 91.3465 46.372 91.1399Z" fill="black" fill-opacity="0.09"/>
<path d="M86.2153 45.6613C86.2497 53.2377 84.1145 60.2975 80.4296 66.3586C78.57 69.4235 76.297 72.213 73.6797 74.6581C72.9221 75.3813 72.0956 76.0701 71.2691 76.7589C69.3405 78.3086 67.2743 79.6861 65.1047 80.857C64.0371 81.4424 62.9696 81.959 61.8675 82.4067C60.2145 83.0955 58.4927 83.7153 56.7708 84.1975C56.3231 84.3352 55.841 84.4385 55.3933 84.5418C55.2899 84.5763 55.221 84.5763 55.1177 84.6107C55.0832 84.6107 55.0488 84.6107 55.0144 84.6452C52.2249 85.265 49.3321 85.575 46.4049 85.5406C44.1664 85.575 41.9624 85.4028 39.8272 85.024C38.6219 84.8174 37.4165 84.5419 36.2112 84.2319C32.2508 83.1643 28.4971 81.4769 25.0533 79.2728C25.0189 79.2384 24.9843 79.2384 24.9499 79.204C24.9499 79.204 24.95 79.204 24.9156 79.204C24.7779 79.1351 24.64 79.0318 24.5023 78.9284C24.1923 78.7218 23.9168 78.5152 23.6069 78.343C22.7459 77.7231 21.9195 77.1032 21.1274 76.4489C14.9286 71.3865 10.2449 64.4989 8.07528 56.6126C-6.18207 -1.48436 83.9424 -14.1231 86.2153 45.6613Z" fill="black" fill-opacity="0.09"/>
<g clip-path="url(#clip0_1647_65699)">
<path d="M27.5249 61.6615C27.4661 63.8291 27.9718 66.2983 29.9201 67.6521C34.606 70.9132 39.8878 67.1778 45.0747 67.3135C49.5122 67.4248 55.2755 71.5141 59.4112 69.186C61.8523 67.7977 62.8345 65.0873 62.896 62.5918C62.9856 59.1764 60.6494 56.2252 57.1715 53.8675C55.7687 52.9088 54.2544 49.5787 52.3396 47.0497C50.4248 44.5207 47.9599 42.8108 45.7072 42.7502C42.59 42.6669 40.3211 44.174 38.6656 46.2863C36.7337 48.772 35.5785 52.007 33.9619 53.089C30.5386 55.3854 27.6262 57.6926 27.5249 61.6615Z" fill="#F0F0F0"/>
<path d="M59.4264 40.9083C61.4994 36.696 65.5826 34.4638 68.5465 35.9224C71.5104 37.3811 72.2327 41.9782 70.1597 46.1904C68.0867 50.4027 64.0035 52.6349 61.0396 51.1763C58.0757 49.7177 57.3534 45.1205 59.4264 40.9083Z" fill="#F0F0F0"/>
<path d="M54.8621 22.1782C58.2128 22.6047 60.4014 27.0967 59.7503 32.2113C59.0993 37.326 55.8552 41.1265 52.5045 40.7C49.1538 40.2735 46.9653 35.7815 47.6163 30.6668C48.2673 25.5522 51.5114 21.7517 54.8621 22.1782Z" fill="#F0F0F0"/>
<path d="M23.355 34.7808C26.3906 33.4783 30.352 35.9195 32.2032 40.2335C34.0544 44.5475 33.0943 49.1006 30.0588 50.4032C27.0233 51.7058 23.0618 49.2645 21.2106 44.9505C19.3594 40.6365 20.3195 36.0834 23.355 34.7808Z" fill="#F0F0F0"/>
<path d="M37.7253 21.7647C41.0934 21.5127 44.1356 25.4762 44.5202 30.6174C44.9048 35.7587 42.4862 40.1307 39.1181 40.3827C35.7499 40.6346 32.7078 36.6711 32.3231 31.5299C31.9385 26.3887 34.3572 22.0166 37.7253 21.7647Z" fill="#F0F0F0"/>
</g>
<defs>
<clipPath id="clip0_1647_65699">
<rect width="55.2637" height="55.2637" fill="white" transform="translate(18.5 18)"/>
</clipPath>
</defs>
</svg>
