<svg width="36" height="37" viewBox="0 0 36 37" fill="none" xmlns="http://www.w3.org/2000/svg">
<circle cx="18" cy="18.7266" r="18" fill="#EFFBFB"/>
<g clip-path="url(#clip0_702_9767)">
<path d="M17.3909 11.5606C19.1351 11.5862 20.8794 11.6064 22.6235 11.6397C23.4154 11.6548 24.1812 11.7927 24.9115 12.1295C25.5256 12.4127 25.9398 12.847 26.0684 13.5097C26.1644 13.9656 26.2207 14.4289 26.2368 14.8945C26.2496 15.6101 26.1787 16.3271 26.1846 17.0431C26.1946 18.2383 26.2348 19.4335 26.2673 20.6285C26.2822 21.1749 26.3179 21.7207 26.3281 22.2671C26.3416 22.9351 26.1025 23.5836 25.6584 24.0827C25.4543 24.3265 25.229 24.5516 24.9853 24.7557C24.2413 25.3652 23.3889 25.6333 22.4177 25.5888C20.9148 25.5203 19.4102 25.4793 17.9058 25.4506C16.652 25.4265 15.3973 25.4505 14.1435 25.4252C13.4724 25.4116 12.8012 25.3546 12.1332 25.289C11.8069 25.2568 11.4856 25.1656 11.1642 25.0912C10.6386 24.9663 10.1657 24.6787 9.81272 24.2695C9.428 23.8389 9.37486 23.2903 9.26488 22.7403C8.92433 21.0397 9.13613 19.3344 9.22666 17.6318C9.28775 16.4836 9.39253 15.3377 9.47881 14.1908C9.51655 13.6892 9.52675 13.1972 9.73904 12.7337C10.1242 11.8926 10.8027 11.4707 11.7145 11.4883C13.6066 11.5249 15.4988 11.5525 17.3909 11.5837C17.3907 11.576 17.3908 11.5683 17.3909 11.5606ZM10.2397 18.9508C10.0785 20.2467 10.0583 21.5166 10.2876 22.7822C10.4086 23.4503 10.756 23.9499 11.4391 24.1216C11.9561 24.2518 12.4853 24.3747 13.0146 24.4051C14.0607 24.4653 15.1105 24.4584 16.1588 24.4809C16.797 24.4945 17.4352 24.5064 18.0732 24.5272C19.6114 24.5772 21.1497 24.6267 22.6875 24.6869C23.0243 24.7034 23.3608 24.6532 23.6781 24.5393C23.9954 24.4255 24.2871 24.25 24.5365 24.0232C25.1354 23.4988 25.5144 22.8718 25.4852 22.0341C25.4527 21.1014 25.4597 20.1672 25.4475 19.2338C25.4463 19.1466 25.4299 19.0597 25.4207 18.9721C25.3051 18.9773 25.2144 18.9858 25.1239 18.9848C23.1295 18.9563 21.1352 18.9226 19.1408 18.8984C17.1006 18.8736 15.0604 18.8469 13.0203 18.8437C12.1324 18.8421 11.2445 18.8959 10.3564 18.9258C10.3169 18.931 10.2779 18.9394 10.2397 18.9508ZM25.4186 16.9116C25.4398 16.6499 25.4702 16.4254 25.4733 16.2003C25.4811 15.6878 25.487 15.1747 25.4713 14.6625C25.4564 14.3559 25.4248 14.0502 25.3766 13.7471C25.3142 13.3043 25.0562 13.0221 24.655 12.8233C23.9198 12.4588 23.134 12.3508 22.3337 12.3278C21.0341 12.2908 19.734 12.2741 18.434 12.2602C17.2594 12.2477 16.0846 12.2482 14.9099 12.2474C13.9978 12.2468 13.0815 12.201 12.1747 12.27C11.1095 12.351 10.8696 12.6304 10.5945 13.4512C10.5695 13.527 10.5544 13.6056 10.5494 13.6852C10.4805 14.7303 10.4136 15.7755 10.3488 16.8209C10.353 16.8629 10.3635 16.904 10.3801 16.9429C12.8923 16.9038 15.387 16.8387 17.882 16.8333C20.3769 16.8279 22.873 16.8827 25.4183 16.9116H25.4186Z" fill="#00426A"/>
<path d="M20.474 20.4699C20.543 20.4513 20.6134 20.4386 20.6847 20.4321C21.4694 20.4341 22.2543 20.4359 23.0391 20.4458C23.3105 20.4493 23.5816 20.4774 23.853 20.492C24.0306 20.5016 24.1207 20.5963 24.1368 20.7696C24.1674 21.0976 24.2117 21.4249 24.2259 21.7535C24.2373 22.0167 24.1094 22.1542 23.8375 22.1733C23.4522 22.2002 23.065 22.2139 22.6788 22.2123C22.0872 22.2099 21.4957 22.1901 20.9043 22.176C20.8021 22.1774 20.6999 22.1699 20.5989 22.154C20.4512 22.1248 20.3444 22.0308 20.343 21.8757C20.339 21.4152 20.2684 20.947 20.474 20.4699ZM23.6104 20.9309L20.6806 20.8402C20.7184 21.1159 20.7529 21.3684 20.7932 21.6624C21.7433 21.5965 22.6658 21.7545 23.6104 21.6837V20.9309Z" fill="#00426A"/>
</g>
<defs>
<clipPath id="clip0_702_9767">
<rect width="17.4242" height="14.2941" fill="white" transform="translate(9 11.4326)"/>
</clipPath>
</defs>
</svg>
