<svg width="33" height="32" viewBox="0 0 33 32" fill="none" xmlns="http://www.w3.org/2000/svg">
<g clip-path="url(#clip0_297_75173)">
<path d="M10.0662 11.9318C10.2468 11.7021 10.4282 11.473 10.6104 11.2446C11.0754 10.6595 11.556 10.0544 12.0088 9.44386C12.5938 8.65455 12.5539 8.29023 11.806 7.58963C11.7438 7.5315 11.6781 7.47687 11.6124 7.42249C11.5619 7.38027 11.5104 7.33801 11.4609 7.29379L10.8757 6.76765C10.3132 6.262 9.73148 5.7391 9.16418 5.22027C8.73312 4.82613 8.30371 4.43047 7.87595 4.03322C7.30459 3.50475 6.7138 2.9581 6.12682 2.42662C5.47052 1.8315 5.0948 1.83253 4.4539 2.43091C3.8433 3.00084 3.22676 3.58466 2.63054 4.14908C2.09743 4.65383 1.56339 5.15755 1.02843 5.66038C0.793707 5.87732 0.606825 6.1403 0.479574 6.43255C0.352324 6.72477 0.287465 7.04002 0.289092 7.35839C0.293633 7.85821 0.357469 8.35578 0.479289 8.84079C0.788882 10.1642 1.45313 11.3508 2.09567 12.4991L2.2547 12.784C3.92166 15.776 5.72547 18.1631 7.7707 20.0817C8.14931 20.4366 8.50775 20.8294 8.85482 21.2093C9.31755 21.7396 9.81632 22.2376 10.3476 22.7001C11.904 23.9924 13.6124 25.3049 15.5697 26.7131C17.1811 27.8723 18.5988 28.7111 20.0298 29.3532C21.0761 29.8375 22.215 30.0933 23.3695 30.1032C23.864 30.1032 24.3573 30.0532 24.8415 29.9543L24.918 29.9387C25.6535 29.7896 26.414 29.6352 27.054 29.1263C27.3717 28.8736 27.7184 28.6415 28.0536 28.4169C28.2295 28.2992 28.4053 28.1813 28.5781 28.06C28.7331 27.9516 28.8915 27.8471 29.0501 27.7424C29.4414 27.4988 29.8123 27.2246 30.1592 26.9216C31.1192 26.0367 30.918 25.424 30.246 24.6644C29.5116 23.8339 28.7947 22.9616 28.1005 22.1183C27.8244 21.7824 27.5475 21.4471 27.2702 21.1123C27.0521 20.85 26.8353 20.5866 26.6197 20.322C26.2033 19.8132 25.7729 19.2871 25.3336 18.7819C24.4987 17.8218 24.1452 17.791 23.1089 18.588C22.3926 19.1393 21.67 19.7054 20.9703 20.2535C20.5297 20.5986 20.0888 20.9433 19.6472 21.2875C19.5144 21.3909 19.3752 21.4871 19.2406 21.5799L19.1562 21.6381C18.8864 21.3583 18.6171 21.0785 18.3485 20.7987C15.6097 17.9533 12.7802 15.0124 9.68668 12.3895C9.71835 12.3519 9.74888 12.3158 9.77806 12.2811C9.88559 12.1529 9.97784 12.0437 10.0662 11.9318ZM8.27616 12.7687C10.1945 14.8141 12.1118 16.8608 14.0281 18.9086L16.7347 21.7993C16.8482 21.9209 16.964 22.0407 17.0796 22.1604C17.2736 22.3609 17.4741 22.5696 17.661 22.7812C18.2633 23.4633 18.9575 23.549 19.9826 23.0675C20.3059 22.8989 20.608 22.6928 20.8823 22.4535C20.975 22.3788 21.0675 22.3045 21.1612 22.2329C21.8759 21.6884 22.5873 21.1401 23.3132 20.5815L24.1083 19.969L28.9682 25.8586C28.719 26.0311 28.4695 26.2101 28.2269 26.384C27.5551 26.8865 26.8533 27.3479 26.1253 27.766C25.5483 28.0814 24.8199 28.182 24.1233 28.2584C22.6466 28.4204 21.3036 28.1708 20.1292 27.5184L19.902 27.3917C18.7384 26.7453 17.5351 26.077 16.4312 25.3121C14.9074 24.2718 13.4415 23.1503 12.0399 21.9525C11.3579 21.341 10.7074 20.696 10.0908 20.0195C9.65146 19.5536 9.19749 19.0719 8.72773 18.6208C7.5179 17.46 6.37669 16.0567 5.13655 14.204C4.03587 12.5603 3.19292 10.8374 2.51327 9.36898C2.25493 8.81057 2.00264 8.14662 2.0891 7.45515C2.10635 7.18668 2.19952 6.92857 2.35794 6.71029C3.10925 5.86359 3.89653 5.0217 4.65784 4.20769C4.87466 3.97599 5.09132 3.74408 5.30781 3.51188C7.02264 5.43719 8.89435 7.24674 10.6692 8.9191C10.1025 9.6911 9.44166 10.3904 8.70174 11.001C8.65542 11.0386 8.60769 11.0743 8.55999 11.1103C8.46641 11.1783 8.37663 11.2514 8.29105 11.3292C7.78988 11.8006 7.78533 12.245 8.27616 12.7682V12.7687Z" fill="#006FB3"/>
<path d="M25.2201 4.54251C22.6738 2.8872 19.6389 2.05486 15.6694 1.92394C14.1628 1.86442 11.7696 2.34743 10.4157 2.82604C10.1815 2.90852 9.96073 3.0246 9.76043 3.17058C9.4738 3.38182 9.39089 3.67414 9.5388 3.95241C9.70477 4.26449 9.98406 4.18259 10.1509 4.13386C10.1833 4.12433 10.2158 4.11483 10.2477 4.10731C12.1169 3.67394 13.5621 3.48087 14.9308 3.48087H14.9501C16.4525 3.48973 17.9492 3.66567 19.4121 4.00551C22.8873 4.78757 25.6012 6.44515 27.7091 9.07307C29.6086 11.441 30.3099 14.1273 29.8531 17.2854C29.7437 18.0579 29.5325 18.8127 29.2246 19.5306C29.0153 20.0193 28.9897 20.4281 29.1442 20.8156C29.1774 20.9233 29.2342 21.0227 29.3103 21.1064C29.3862 21.1901 29.48 21.2561 29.5846 21.3C29.6465 21.3214 29.7119 21.3324 29.7774 21.3322C29.9259 21.3274 30.0705 21.2841 30.1969 21.207C30.5536 21.005 30.8086 20.6863 30.9995 20.2036C32.1522 17.2891 32.2125 14.4104 31.1786 11.6474C30.1183 8.81359 28.1136 6.42347 25.2201 4.54251Z" fill="#006FB3"/>
<path d="M24.6807 16.3691C24.8107 16.5445 25.0107 16.7617 25.3102 16.7617C25.3621 16.7615 25.4138 16.7554 25.4641 16.7435C25.8456 16.6545 25.9149 16.2826 25.9482 16.1038C26.1043 15.2513 25.9953 14.3719 25.6355 13.5826C25.3475 12.9285 25.0686 12.3586 24.7826 11.8404C23.9545 10.3397 23.0796 9.30124 22.0298 8.57232C19.8743 7.07549 18.0416 6.35736 16.0876 6.24347C15.1536 6.18921 14.4104 6.30709 13.7493 6.61479C13.3225 6.81364 13.3337 7.11147 13.3784 7.27135C13.4735 7.61187 13.7949 7.5987 13.9868 7.59032C14.1286 7.58443 14.2794 7.57192 14.4479 7.55276C14.7024 7.52318 14.9568 7.49145 15.2112 7.45965L15.5276 7.42049C16.5335 7.43151 17.5678 7.68351 18.7815 8.21248C20.9426 9.15452 22.4362 10.4784 23.3476 12.2594C23.4977 12.5521 23.637 12.8576 23.772 13.1532C23.8659 13.3586 23.9597 13.5643 24.0577 13.7677C24.3096 14.2425 24.4243 14.777 24.3892 15.3124C24.35 15.6884 24.454 16.0654 24.6807 16.3691Z" fill="#006FB3"/>
</g>
<defs>
<clipPath id="clip0_297_75173">
<rect width="32" height="32" fill="white" transform="translate(0.0996094)"/>
</clipPath>
</defs>
</svg>
