<svg width="247" height="248" viewBox="0 0 247 248" fill="none" xmlns="http://www.w3.org/2000/svg">
<path fill-rule="evenodd" clip-rule="evenodd" d="M22.8762 5.34145C31.1383 1.13168 41.8031 0.88287 62.185 0.868164V4.97328C52.6197 4.9805 45.3725 5.03936 39.5153 5.51791C32.9239 6.05645 28.4552 7.10596 24.7398 8.99906C17.7881 12.5411 12.1362 18.193 8.59415 25.1447C6.70105 28.8601 5.65154 33.3289 5.113 39.9202C4.66025 45.4616 4.58316 52.2471 4.57004 61.0626H0.464878C0.493071 41.6703 0.8332 31.3343 4.93654 23.2811C8.87217 15.557 15.1521 9.27708 22.8762 5.34145ZM0.464844 186.95C0.492797 206.357 0.831543 216.699 4.93654 224.755C8.87217 232.479 15.1521 238.759 22.8762 242.695C31.1383 246.904 41.8031 247.153 62.185 247.168V243.063C52.6197 243.056 45.3725 242.997 39.5153 242.518C32.9239 241.98 28.4552 240.93 24.7398 239.037C17.7881 235.495 12.1362 229.843 8.59415 222.891C6.70105 219.176 5.65154 214.707 5.113 208.116C4.65985 202.57 4.58302 195.777 4.57001 186.95H0.464844ZM242.656 186.95C242.643 195.777 242.566 202.57 242.113 208.116C241.575 214.707 240.525 219.176 238.632 222.891C235.09 229.843 229.438 235.495 222.486 239.037C218.771 240.93 214.302 241.98 207.711 242.518C202.489 242.945 196.162 243.038 188.072 243.058V247.163C206.5 247.118 216.508 246.691 224.35 242.695C232.074 238.759 238.354 232.479 242.29 224.755C246.395 216.699 246.733 206.357 246.761 186.95H242.656ZM246.761 61.0626C246.733 41.6703 246.393 31.3343 242.29 23.2811C238.354 15.557 232.074 9.27708 224.35 5.34145C216.508 1.34548 206.5 0.918359 188.072 0.872704V4.97792C196.162 4.9982 202.489 5.09125 207.711 5.51791C214.302 6.05645 218.771 7.10596 222.486 8.99906C229.438 12.5411 235.09 18.193 238.632 25.1447C240.525 28.8601 241.575 33.3289 242.113 39.9202C242.566 45.4616 242.643 52.2471 242.656 61.0626H246.761Z" fill="#00426A" fill-opacity="0.4"/>
</svg>
