<svg width="76" height="97" viewBox="0 0 76 97" fill="none" xmlns="http://www.w3.org/2000/svg">
<path d="M9.93564 39.3456C8.56558 38.2039 8.83959 33.8197 7.56087 29.0701C6.23648 24.3663 5.68845 22.2655 2.81133 20.4388C-0.0657962 18.612 -0.61382 16.9223 1.89796 15.2325C4.40973 13.5428 10.3923 15.6892 12.6758 20.6671C14.9592 25.645 16.6033 29.4811 20.4851 30.6229C24.3669 31.7646 28.6598 33.2716 28.5684 37.5645C28.4314 41.8574 25.9197 44.3235 23.6362 44.6431C21.3985 44.9628 12.2647 41.3093 9.93564 39.3456Z" fill="#AFAFAF"/>
<path d="M2.62988 17.7904C2.62988 17.7904 1.35116 17.0597 0.300781 17.5164" stroke="black" stroke-width="0.456686" stroke-miterlimit="10" stroke-linecap="round" stroke-linejoin="round"/>
<path d="M4.04452 15.9129C4.04452 15.9129 3.03981 15.1822 1.44141 15.5932" stroke="black" stroke-width="0.456686" stroke-miterlimit="10" stroke-linecap="round" stroke-linejoin="round"/>
<path d="M29.1617 7.74301C29.1617 7.74301 28.9334 5.64225 27.198 3.0848C25.4625 0.527359 24.0011 -0.20334 23.4075 0.116341C22.8138 0.436022 21.9004 8.01702 21.9004 8.01702L29.1617 7.74301Z" fill="#AFAFAF"/>
<path d="M22.5859 7.97288C22.5859 7.97288 23.3623 1.44227 23.682 1.57927C24.0017 1.71628 25.7371 4.5934 25.5544 7.97288H22.5859Z" fill="#FFE1E5"/>
<path d="M31.2627 7.51162C31.2627 7.51162 24.9604 4.81717 20.5762 7.05493C16.1464 9.2927 15.5984 13.1289 13.4519 13.6769C11.3055 14.2249 11.2142 14.7729 10.9858 16.0517C10.7118 17.3304 11.0315 25.5964 19.5715 27.1948C19.5715 27.1948 16.6031 42.9962 24.5951 51.1252C24.5951 51.1252 25.6911 70.169 25.3715 71.4477C25.0518 72.7264 22.7227 73.5941 23.0424 75.1012C23.362 76.6083 24.8691 76.6996 26.6958 76.6996C28.5226 76.6996 30.0297 76.3799 31.1714 74.1422C32.2674 71.9044 37.4736 60.3046 37.4736 60.3046C37.4736 60.3046 42.0405 63.0904 43.6846 67.2919C43.6846 67.2919 43.6846 69.5753 43.6846 72.3154C43.6846 72.3154 41.4468 72.7721 41.3555 73.9138C41.2641 75.0099 41.9035 76.6996 45.831 76.6996C49.7585 76.6996 58.9379 76.6996 62.5457 76.6996C66.1535 76.6996 68.6197 73.0461 69.67 68.4793C70.7204 63.9124 71.4968 49.1614 64.1441 42.1285C56.8828 35.0955 50.7632 36.6026 44.5066 34.9128C38.2957 33.2231 37.565 27.5602 38.661 21.0752C39.8027 14.6359 39.8027 9.61238 39.072 6.50691C38.3413 3.40144 36.6973 1.07234 35.3272 2.25973C33.9572 3.44711 31.2627 7.51162 31.2627 7.51162Z" fill="#AFAFAF"/>
<path d="M32.1758 8.56698C32.1758 8.56698 35.0072 3.95445 35.5096 4.13712C36.0576 4.3198 37.0623 9.61736 35.9663 11.3528C35.9663 11.3528 34.7332 9.8457 32.1758 8.56698Z" fill="#FFE1E5"/>
<path d="M19.5706 27.194C19.5706 27.194 31.5815 31.6239 38.2491 25.0019C38.2491 25.0019 38.9342 24.3626 39.0712 25.0019C39.2082 25.6413 39.3908 27.9247 39.0712 28.7011C38.7515 29.4318 35.7373 32.3089 29.1611 32.4916C22.6304 32.6743 18.8399 30.9389 18.7486 30.2538C18.6116 29.5688 18.8399 26.92 19.5706 27.194Z" fill="#141414"/>
<path d="M18.8654 14.9451C18.8654 14.9451 19.242 13.2709 20.4797 13.5393C21.7533 13.8358 21.6491 15.6062 21.6491 15.6062" stroke="black" stroke-width="0.456686" stroke-miterlimit="10" stroke-linecap="round" stroke-linejoin="round"/>
<path d="M20.4375 18.5674C20.4375 18.5674 20.6202 18.4761 20.8942 18.3848C21.2139 18.2478 21.6706 18.1564 22.1729 18.0194C22.4469 17.9737 22.7666 17.9281 23.0406 17.8367C23.1776 17.7911 23.3603 17.7911 23.543 17.7454C23.7256 17.7454 23.8626 17.6997 24.0453 17.6997C24.4107 17.6541 24.776 17.6541 25.1414 17.6084C25.5067 17.6084 25.8721 17.6084 26.2374 17.6084C26.6028 17.6084 26.9681 17.6084 27.3335 17.6541C27.6988 17.6997 28.0642 17.7454 28.4295 17.7911C28.7949 17.8367 29.1145 17.8824 29.4342 17.9281C29.7539 17.9737 30.0279 18.0651 30.3019 18.1108C30.85 18.2478 31.3066 18.3848 31.6263 18.4304C31.946 18.5218 32.1287 18.5674 32.1287 18.5674C32.1287 18.5674 31.946 18.5674 31.6263 18.5218C31.3066 18.4761 30.85 18.4304 30.3019 18.3391C30.0279 18.2934 29.7539 18.2478 29.4342 18.2021C29.1145 18.2021 28.7949 18.1564 28.4295 18.1564C28.0642 18.1108 27.7445 18.1108 27.3791 18.0651C27.0138 18.0194 26.6484 18.0651 26.2831 18.0651C25.9177 18.0651 25.5524 18.0194 25.187 18.0651C24.8217 18.0651 24.4563 18.1108 24.1367 18.1108C23.954 18.1108 23.817 18.1108 23.6343 18.1108C23.4516 18.1108 23.3146 18.1564 23.132 18.1564C22.8123 18.2021 22.5383 18.2021 22.2642 18.2478C21.9902 18.2934 21.7619 18.3391 21.5335 18.3848C21.3052 18.4304 21.1225 18.4761 20.9399 18.4761C20.6202 18.5218 20.4375 18.5674 20.4375 18.5674Z" fill="black"/>
<path d="M19.7539 20.4509C19.7539 20.4509 19.9366 20.4053 20.3019 20.4053C20.6673 20.4053 21.124 20.4509 21.7177 20.5423C22.3114 20.6336 22.9964 20.8163 23.6814 21.0446C24.0468 21.1816 24.3664 21.3186 24.7318 21.4557C25.0971 21.6383 25.4625 21.7753 25.7822 21.958C26.1475 22.1407 26.4672 22.3234 26.7869 22.5517C27.1066 22.78 27.4262 22.9627 27.7459 23.1911C28.0656 23.4194 28.3396 23.6021 28.6136 23.8304C28.8876 24.0588 29.116 24.2414 29.3443 24.4698C29.5727 24.6525 29.7553 24.8351 29.938 25.0178C30.1207 25.2005 30.2577 25.3375 30.3947 25.4745C30.623 25.7028 30.76 25.8398 30.76 25.8398C30.76 25.8398 30.623 25.7028 30.349 25.5202C30.075 25.3375 29.7097 25.0178 29.2073 24.6525C28.979 24.4698 28.705 24.2871 28.4309 24.1044C28.1569 23.9218 27.8373 23.7391 27.5632 23.5107C27.2892 23.2824 26.9239 23.1454 26.6042 22.917C26.2845 22.6887 25.9192 22.5517 25.5995 22.369C25.2798 22.1864 24.9145 22.0037 24.5491 21.8667C24.1838 21.7297 23.8641 21.547 23.5444 21.41C23.2247 21.273 22.8594 21.136 22.5854 21.0446C22.2657 20.9533 21.946 20.862 21.672 20.7706C21.398 20.725 21.124 20.6336 20.8956 20.5879C20.6673 20.5423 20.4389 20.4966 20.3019 20.4966C19.9822 20.4509 19.7539 20.4509 19.7539 20.4509Z" fill="black"/>
<path d="M11.6698 21.0303C11.6698 21.0303 10.1627 24.5468 11.6698 25.1405C13.1769 25.7341 13.7249 22.1263 13.7249 22.1263C13.7249 22.1263 12.4462 22.5373 11.6698 21.0303Z" fill="#FFE1E5"/>
<path d="M43.7754 67.2898C43.7297 64.4583 44.7801 61.2615 46.4242 58.6584C46.4242 58.6584 45.7848 56.9687 43.7754 55.69C41.8116 54.4112 39.8479 54.0459 39.8479 54.0459C39.2999 55.827 38.5235 58.1104 37.5645 60.3025C37.5645 60.3482 42.1313 63.0883 43.7754 67.2898Z" fill="#FEFEFE"/>
<path d="M40.6686 51.1396C40.6686 51.1396 36.3507 64.2241 32.6641 71.0147" stroke="black" stroke-width="0.456686" stroke-miterlimit="10" stroke-linecap="round" stroke-linejoin="round"/>
<path d="M43.1176 66.0259C43.1176 66.0259 42.5818 64.3043 38.293 60.7412" stroke="black" stroke-width="0.456686" stroke-miterlimit="10" stroke-linecap="round" stroke-linejoin="round"/>
<path d="M24.0312 84.2725C24.0312 84.2725 21.2591 88.677 22.5311 92.2535C23.1016 93.8575 23.6042 95.1419 25.5145 96.2448" fill="#AFAFAF"/>
<path d="M24.0312 84.2725C24.0312 84.2725 21.2591 88.677 22.5311 92.2535C23.1016 93.8575 23.6042 95.1419 25.5145 96.2448" stroke="#2F2F2F" stroke-width="0.456686" stroke-miterlimit="10" stroke-linecap="round" stroke-linejoin="round"/>
<path d="M24.7302 73.9678C24.7302 73.9678 23.8168 74.8812 24.7302 76.5709" stroke="black" stroke-width="0.456686" stroke-miterlimit="10" stroke-linecap="round" stroke-linejoin="round"/>
<path d="M26.6039 73.9678C26.6039 73.9678 25.7818 74.9725 26.3755 76.7079" stroke="black" stroke-width="0.456686" stroke-miterlimit="10" stroke-linecap="round" stroke-linejoin="round"/>
<path d="M43.6953 70.5319C43.4759 61.4078 47.93 54.5617 52.6339 53.5114C57.3378 52.4153 62.1786 59.0829 62.1786 59.0829" stroke="black" stroke-width="0.456686" stroke-miterlimit="10" stroke-linecap="round" stroke-linejoin="round"/>
<path d="M43.228 73.5146C43.228 73.5146 42.269 73.9713 42.5887 76.0264" stroke="black" stroke-width="0.456686" stroke-miterlimit="10" stroke-linecap="round" stroke-linejoin="round"/>
<path d="M45.0543 73.5146C45.0543 73.5146 43.9126 74.1997 44.2323 76.5745" stroke="black" stroke-width="0.456686" stroke-miterlimit="10" stroke-linecap="round" stroke-linejoin="round"/>
<path d="M25.2777 62.5247L24.0469 45.71" stroke="black" stroke-width="0.456686" stroke-miterlimit="10" stroke-linecap="round" stroke-linejoin="round"/>
<path d="M20.4882 44.0084C20.4882 44.0084 19.4486 40.0632 19.2087 37.4241C18.8267 33.2211 18.9422 30.7334 18.9422 30.7334" stroke="black" stroke-width="0.456686" stroke-miterlimit="10" stroke-linecap="round" stroke-linejoin="round"/>
<path d="M47.3085 75.4844C47.3085 75.4844 57.1373 76.1029 62.4984 73.9035C65.1729 72.8062 67.1393 70.9725 68.6843 67.4426C70.6008 63.0639 69.9902 56.8584 69.9902 56.8584" stroke="black" stroke-width="0.456686" stroke-miterlimit="10" stroke-linecap="round" stroke-linejoin="round"/>
<path d="M15.232 20.7572C15.232 20.7572 14.3643 22.5383 12.7659 22.0816C11.1218 21.6249 11.0762 18.1084 11.0762 18.1084" stroke="black" stroke-width="0.456686" stroke-miterlimit="10" stroke-linecap="round" stroke-linejoin="round"/>
<path d="M11.1684 13.8643C11.3967 13.5446 14.1825 15.3713 13.9541 16.239C13.7715 17.0611 10.9857 18.4768 10.6203 18.1114C10.2093 17.7461 9.93531 15.5083 11.1684 13.8643Z" fill="#FFBE9E"/>
<path d="M70.1418 56.6943C70.1418 56.6943 73.4152 67.0748 70.4468 73.0574C67.4783 79.04 61.45 81.5061 53.0013 81.3691C44.5526 81.2321 37.2 81.1864 33.8662 84.7943C30.5324 88.4021 34.9622 95.024 31.1717 96.5311C27.3812 98.0381 21.5813 95.5264 22.7687 88.6761C23.9561 81.8258 29.1166 76.8022 40.0771 75.9802C51.0376 75.1582 60.1256 77.0762 65.9256 72.007C71.6798 66.9835 70.1418 56.6943 70.1418 56.6943Z" fill="#AFAFAF"/>
<path d="M27.8379 83.698C26.3308 83.4696 25.1891 83.698 24.3214 84.1547C23.5451 85.5704 23.0427 87.0775 22.7687 88.7215C21.5813 95.5718 27.3812 98.0836 31.1717 96.5765C34.3229 95.2978 31.7197 90.4113 32.7701 86.7578C31.4914 85.342 29.8017 84.0177 27.8379 83.698Z" fill="#FEFEFE"/>
<path d="M21.2784 26.7409C21.2784 26.2551 20.9161 25.8187 20.4221 25.7775C19.854 25.7199 19.3764 26.1645 19.3764 26.7161V26.7491C19.3764 26.8561 19.3106 26.9467 19.2035 26.9796C17.7214 27.4572 16.6593 28.8569 16.7087 30.4872C16.7663 32.3975 18.3801 33.9372 20.3151 33.9454C22.3159 33.9536 23.9462 32.3481 23.9462 30.3719C23.9462 28.7828 22.9005 27.4407 21.4513 26.9796C21.3443 26.9385 21.2784 26.8479 21.2784 26.7409Z" fill="white" stroke="black" stroke-width="0.0823378" stroke-miterlimit="10"/>
<path d="M19.2188 30.1084V30.199V30.2895V30.3801V30.4707V30.553H19.3093V30.6436H19.3999V30.7342H19.4905V30.6436V30.553H19.3999V30.4707H19.3093V30.3801V30.2895V30.199H19.3999V30.1084H19.3093H19.2188Z" fill="black"/>
<path d="M19.4885 30.2881H19.3984V30.3781H19.4885V30.2881Z" fill="black"/>
<path d="M19.6785 30.5496V30.4678H19.5884H19.4902V30.5496H19.5884H19.6785Z" fill="black"/>
<path d="M19.7697 30.0266H19.8597V29.9365H19.7697H19.6797V30.0266V30.1084H19.7697V30.0266Z" fill="black"/>
<path d="M19.7681 30.1994H19.6777V30.109H19.5874V30.0269V29.9365H19.4888H19.3984V30.0269V30.109H19.4888V30.1994V30.2898H19.5874V30.3801H19.6777H19.7681V30.2898V30.1994Z" fill="black"/>
<path d="M19.7697 30.6396H19.6797V30.7297H19.7697V30.6396Z" fill="black"/>
<path d="M19.8596 30.1084H19.7695V30.1984H19.8596V30.1084Z" fill="black"/>
<path d="M19.9494 30.0225H19.8594V30.1125H19.9494V30.0225Z" fill="black"/>
<path d="M19.9496 30.4641H19.8596V30.374H19.7695V30.4641V30.5459V30.6359H19.8596H19.9496V30.5459V30.4641Z" fill="black"/>
<path d="M20.0494 29.9328V29.8428H19.9512V29.9328V30.0228H20.0494V29.9328Z" fill="black"/>
<path d="M20.0412 30.9053H19.9512V30.9953H20.0412V30.9053Z" fill="black"/>
<path d="M20.1408 29.749H20.0508V29.8391H20.1408V29.749Z" fill="black"/>
<path d="M20.2311 29.6702V29.5796H20.1405V29.4891V29.3985H20.2311H20.3217V29.4891H20.4205V29.3985V29.3162H20.5111V29.2256H20.4205H20.3217V29.3162H20.2311V29.2256H20.1405V29.3162H20.05V29.2256H19.9512V29.3162V29.3985H20.05V29.4891H19.9512V29.5796H20.05V29.6702H20.1405V29.7525H20.2311V29.6702Z" fill="black"/>
<path d="M20.2307 30.1943H20.1406V30.2844H20.2307V30.1943Z" fill="black"/>
<path d="M20.2307 30.9053H20.1406V30.9953H20.2307V30.9053Z" fill="black"/>
<path d="M20.3205 30.2859H20.2299V30.3765H20.1393V30.2859H20.0488V30.1954H20.1393V30.1048V30.0225H20.0488V30.1048H19.9499V30.1954V30.2859H19.8594V30.3765H19.9499H20.0488V30.4671V30.5494V30.64H19.9499V30.7306H20.0488H20.1393H20.2299V30.8211V30.9035H20.3205V30.994H20.4193H20.5098V30.9035H20.4193V30.8211H20.3205V30.7306V30.64V30.5494H20.4193V30.4671V30.3765H20.3205V30.2859Z" fill="black"/>
<path d="M20.3208 31.2657V31.1753H20.4194V31.085H20.3208H20.2305V31.1753H20.1401V31.085H20.0497H19.9512V31.1753V31.2657V31.3478V31.4382H20.0497V31.3478H20.1401V31.2657H20.2305V31.3478V31.4382H20.3208H20.4194V31.3478H20.3208V31.2657Z" fill="black"/>
<path d="M20.4219 31.2725V31.3543H20.5119V31.4443H20.6019V31.3543V31.2725H20.5119H20.4219Z" fill="black"/>
<path d="M20.6006 30.1092H20.6911V30.0186V29.928V29.8457V29.7551H20.6006H20.51V29.6645H20.6006H20.6911V29.574H20.6006V29.4834H20.51V29.574H20.4194V29.6645V29.7551H20.3289H20.2383V29.8457V29.9363V30.0268V30.1174H20.3289H20.4194H20.51V30.208H20.4194V30.2985V30.3891H20.51V30.2985H20.6006H20.6911V30.208H20.6006V30.1092ZM20.6006 29.8457V29.9363H20.51V29.8457H20.6006ZM20.3206 30.0268V29.9363H20.4112V30.0268H20.3206Z" fill="black"/>
<path d="M20.5117 30.5459H20.6017V30.4641V30.374H20.5117V30.4641V30.5459Z" fill="black"/>
<path d="M20.6019 30.8234V30.7334H20.5119H20.4219V30.8234H20.5119H20.6019Z" fill="black"/>
<path d="M20.6916 29.2256H20.6016V29.3156H20.6916V29.2256Z" fill="black"/>
<path d="M20.7814 30.7334H20.6914V30.8234H20.7814V30.7334Z" fill="black"/>
<path d="M20.8732 30.2881H20.7832V30.3781H20.8732V30.2881Z" fill="black"/>
<path d="M20.8814 31.1764H20.7828V31.086H20.8814V30.9956V30.9053H20.7828V30.9956H20.6924H20.6021V31.086H20.5117V31.1764H20.6021H20.6924V31.2667H20.7828H20.8814V31.1764Z" fill="black"/>
<path d="M20.9728 30.7334H20.8828V30.8234H20.9728V30.7334Z" fill="black"/>
<path d="M21.0619 30.4646H20.9714H20.8808H20.782H20.6914V30.5552V30.6457H20.782H20.8725V30.5552H20.9631V30.6457V30.7363H21.0537V30.8269H21.1443V30.7363H21.2348V30.6457H21.3254V30.7363H21.416V30.6457V30.5552V30.4646H21.3254H21.2348H21.1443V30.374H21.0537V30.4646H21.0619ZM21.1525 30.6375H21.0619V30.5469H21.1525V30.6375Z" fill="black"/>
<path d="M21.063 30.9093V30.8271H20.9727V30.9093V30.9997V31.09V31.1804V31.2707H21.063V31.1804V31.09V30.9997H21.1534H21.252V30.9093H21.1534H21.063Z" fill="black"/>
<path d="M21.2424 30.2881H21.1523V30.3781H21.2424V30.2881Z" fill="black"/>
<path d="M21.2424 31.085H21.1523V31.175H21.2424V31.085Z" fill="black"/>
<path d="M21.2525 31.2725H21.1539V31.3546H21.0635H20.9732H20.8828V31.445H20.9732H21.0635H21.1539H21.2525H21.3428V31.3546H21.2525V31.2725Z" fill="black"/>
<path d="M21.3419 30.1094V30.0271H21.2513V30.1094H21.1525H21.0619H20.9714V30.0271V29.9365H20.8808V30.0271V30.1094H20.782H20.6914V30.2H20.782H20.8808V30.2906H20.9714H21.0619V30.2H21.1525H21.2513V30.2906H21.3419V30.3811H21.4324V30.2906V30.2H21.3419V30.1094Z" fill="black"/>
<path d="M21.2539 30.8234V30.9053H21.3439H21.434V30.8234H21.3439V30.7334H21.2539V30.8234Z" fill="black"/>
<path d="M21.3439 30.9912H21.2539V31.0812H21.3439V30.9912Z" fill="black"/>
<path d="M21.3439 31.1787H21.2539V31.2687H21.3439V31.1787Z" fill="black"/>
<path d="M21.4338 31.085H21.3438V31.175H21.4338V31.085Z" fill="black"/>
<path d="M21.4338 31.2725H21.3438V31.3625H21.4338V31.2725Z" fill="black"/>
<path d="M19.861 29.2256H19.2188V29.8431H19.8692V29.2256H19.861ZM19.7786 29.7608H19.3011V29.3079H19.7786V29.7608Z" fill="black"/>
<path d="M19.6777 29.3975H19.3984V29.6603H19.6777V29.3975Z" fill="black"/>
<path d="M19.2188 31.4447H19.8692V30.8271H19.2188V31.4447ZM19.3011 30.9095H19.7786V31.3623H19.3011V30.9095Z" fill="black"/>
<path d="M19.6777 30.9912H19.3984V31.2541H19.6777V30.9912Z" fill="black"/>
<path d="M20.7832 29.2256V29.8431H21.4337V29.2256H20.7832ZM21.3513 29.7608H20.8738V29.3079H21.3513V29.7608Z" fill="black"/>
<path d="M21.252 29.3975H20.9727V29.6603H21.252V29.3975Z" fill="black"/>
<path d="M18.9014 28.1952C18.8629 28.1952 18.8254 28.191 18.7887 28.1826C18.7525 28.1738 18.7226 28.162 18.6992 28.1475L18.7496 28.0334C18.7717 28.0463 18.7964 28.0566 18.8238 28.0646C18.8512 28.0721 18.8775 28.0759 18.9027 28.0759C18.9244 28.0759 18.9398 28.0739 18.9491 28.0699C18.9584 28.0655 18.963 28.0591 18.963 28.0507C18.963 28.041 18.9569 28.0337 18.9445 28.0288C18.9325 28.0239 18.9127 28.0186 18.8848 28.0129C18.849 28.0054 18.8192 27.9974 18.7953 27.989C18.7715 27.9802 18.7507 27.9661 18.733 27.9466C18.7153 27.9267 18.7065 27.9 18.7065 27.8664C18.7065 27.8372 18.7147 27.8107 18.731 27.7869C18.7474 27.763 18.7717 27.7442 18.804 27.7305C18.8367 27.7168 18.8762 27.71 18.9226 27.71C18.9544 27.71 18.9856 27.7135 19.0161 27.7206C19.047 27.7272 19.0742 27.7371 19.0976 27.7504L19.0505 27.8637C19.005 27.8408 18.9619 27.8293 18.9213 27.8293C18.8811 27.8293 18.861 27.839 18.861 27.8584C18.861 27.8677 18.8669 27.8748 18.8789 27.8797C18.8908 27.8841 18.9105 27.8889 18.9379 27.8942C18.9732 27.9009 19.003 27.9086 19.0273 27.9174C19.0516 27.9258 19.0726 27.9398 19.0903 27.9592C19.1084 27.9786 19.1175 28.0052 19.1175 28.0387C19.1175 28.0679 19.1093 28.0944 19.093 28.1183C19.0766 28.1417 19.0521 28.1605 19.0194 28.1746C18.9871 28.1883 18.9478 28.1952 18.9014 28.1952Z" fill="#E1251B"/>
<path d="M19.404 28.1952C19.3549 28.1952 19.3108 28.185 19.2714 28.1647C19.2321 28.1439 19.2012 28.1152 19.1786 28.0785C19.1565 28.0414 19.1455 27.9994 19.1455 27.9526C19.1455 27.9057 19.1565 27.864 19.1786 27.8273C19.2012 27.7902 19.2321 27.7614 19.2714 27.7411C19.3108 27.7203 19.3549 27.71 19.404 27.71C19.4491 27.71 19.4893 27.7179 19.5246 27.7338C19.56 27.7497 19.5892 27.7727 19.6121 27.8028L19.5134 27.8909C19.4847 27.8547 19.4508 27.8366 19.412 27.8366C19.3793 27.8366 19.353 27.8472 19.3331 27.8684C19.3132 27.8892 19.3032 27.9172 19.3032 27.9526C19.3032 27.9879 19.3132 28.0162 19.3331 28.0374C19.353 28.0582 19.3793 28.0686 19.412 28.0686C19.4508 28.0686 19.4847 28.0505 19.5134 28.0142L19.6121 28.1024C19.5892 28.1324 19.56 28.1554 19.5246 28.1713C19.4893 28.1872 19.4491 28.1952 19.404 28.1952Z" fill="#E1251B"/>
<path d="M19.967 28.1037H19.7907L19.7595 28.1846H19.6005L19.8033 27.7206H19.9571L20.1599 28.1846H19.9982L19.967 28.1037ZM19.9239 27.991L19.8789 27.8744L19.8338 27.991H19.9239Z" fill="#E1251B"/>
<path d="M20.6423 27.7206V28.1846H20.5137L20.3374 27.9738V28.1846H20.1849V27.7206H20.3135L20.4898 27.9314V27.7206H20.6423Z" fill="#E1251B"/>
<path d="M21.3307 28.1846L21.3293 27.9731L21.2286 28.1428H21.1597L21.0589 27.9804V28.1846H20.9164V27.7206H21.045L21.1961 27.9678L21.3433 27.7206H21.4719L21.4732 28.1846H21.3307Z" fill="#E1251B"/>
<path d="M21.9346 28.0666V28.1846H21.5488V27.7206H21.926V27.8386H21.7026V27.8929H21.8988V28.0056H21.7026V28.0666H21.9346Z" fill="#E1251B"/>
<path d="M19.0683 28.4881H19.1346V28.9521H19.0683V28.4881Z" fill="#E1251B"/>
<path d="M19.2802 28.4563C19.2925 28.4563 19.3027 28.4607 19.3107 28.4696C19.3191 28.478 19.3233 28.4886 19.3233 28.5014C19.3233 28.508 19.3226 28.5146 19.3213 28.5213C19.3199 28.5275 19.3171 28.5365 19.3126 28.5485L19.2808 28.6413H19.2391L19.2636 28.5425C19.2552 28.5394 19.2484 28.5343 19.243 28.5272C19.2382 28.5197 19.2358 28.5111 19.2358 28.5014C19.2358 28.4881 19.24 28.4773 19.2484 28.4689C19.2567 28.4605 19.2674 28.4563 19.2802 28.4563Z" fill="#E1251B"/>
<path d="M19.8539 28.5975C19.8981 28.5975 19.933 28.6103 19.9587 28.636C19.9847 28.6616 19.9978 28.6996 19.9978 28.75V28.9521H19.9341V28.7573C19.9341 28.7232 19.9262 28.6976 19.9103 28.6804C19.8948 28.6631 19.8725 28.6545 19.8433 28.6545C19.8111 28.6545 19.7854 28.6647 19.7664 28.685C19.7474 28.7049 19.7379 28.7336 19.7379 28.7712V28.9521H19.6743V28.7573C19.6743 28.7232 19.6663 28.6976 19.6504 28.6804C19.635 28.6631 19.6126 28.6545 19.5835 28.6545C19.5512 28.6545 19.5256 28.6647 19.5066 28.685C19.4876 28.7049 19.4781 28.7336 19.4781 28.7712V28.9521H19.4144V28.6008H19.4754V28.6532C19.4882 28.6351 19.505 28.6214 19.5258 28.6121C19.5466 28.6024 19.5702 28.5975 19.5967 28.5975C19.6241 28.5975 19.6484 28.603 19.6696 28.6141C19.6909 28.6251 19.7072 28.6413 19.7187 28.6625C19.732 28.6421 19.7503 28.6262 19.7737 28.6147C19.7976 28.6033 19.8243 28.5975 19.8539 28.5975Z" fill="#E1251B"/>
<path d="M20.3022 28.4881H20.3684V28.8945H20.6197V28.9521H20.3022V28.4881Z" fill="#E1251B"/>
<path d="M20.8324 28.9561C20.7975 28.9561 20.7661 28.9484 20.7383 28.9329C20.7104 28.9175 20.6886 28.8962 20.6726 28.8693C20.6572 28.8419 20.6494 28.811 20.6494 28.7765C20.6494 28.742 20.6572 28.7113 20.6726 28.6843C20.6886 28.6569 20.7104 28.6357 20.7383 28.6207C20.7661 28.6052 20.7975 28.5975 20.8324 28.5975C20.8673 28.5975 20.8985 28.6052 20.9259 28.6207C20.9537 28.6357 20.9754 28.6569 20.9908 28.6843C21.0067 28.7113 21.0147 28.742 21.0147 28.7765C21.0147 28.811 21.0067 28.8419 20.9908 28.8693C20.9754 28.8962 20.9537 28.9175 20.9259 28.9329C20.8985 28.9484 20.8673 28.9561 20.8324 28.9561ZM20.8324 28.9004C20.8549 28.9004 20.875 28.8954 20.8927 28.8852C20.9108 28.8746 20.925 28.86 20.9351 28.8414C20.9453 28.8224 20.9504 28.8008 20.9504 28.7765C20.9504 28.7522 20.9453 28.7307 20.9351 28.7122C20.925 28.6932 20.9108 28.6786 20.8927 28.6684C20.875 28.6583 20.8549 28.6532 20.8324 28.6532C20.8099 28.6532 20.7895 28.6583 20.7714 28.6684C20.7537 28.6786 20.7396 28.6932 20.729 28.7122C20.7188 28.7307 20.7137 28.7522 20.7137 28.7765C20.7137 28.8008 20.7188 28.8224 20.729 28.8414C20.7396 28.86 20.7537 28.8746 20.7714 28.8852C20.7895 28.8954 20.8099 28.9004 20.8324 28.9004Z" fill="#E1251B"/>
<path d="M21.2034 28.9561C21.1747 28.9561 21.1471 28.9524 21.1206 28.9449C21.0941 28.9369 21.0733 28.927 21.0583 28.915L21.0848 28.8646C21.1003 28.8757 21.119 28.8845 21.1411 28.8912C21.1632 28.8978 21.1856 28.9011 21.2081 28.9011C21.2638 28.9011 21.2916 28.8852 21.2916 28.8534C21.2916 28.8428 21.2879 28.8344 21.2803 28.8282C21.2728 28.822 21.2633 28.8176 21.2518 28.8149C21.2408 28.8118 21.2249 28.8085 21.2041 28.805C21.1758 28.8006 21.1526 28.7955 21.1345 28.7897C21.1168 28.784 21.1016 28.7743 21.0888 28.7606C21.076 28.7469 21.0695 28.7277 21.0695 28.7029C21.0695 28.6711 21.0828 28.6457 21.1093 28.6267C21.1358 28.6072 21.1714 28.5975 21.216 28.5975C21.2395 28.5975 21.2629 28.6004 21.2863 28.6061C21.3097 28.6119 21.329 28.6196 21.344 28.6293L21.3168 28.6797C21.2881 28.6611 21.2543 28.6519 21.2154 28.6519C21.1884 28.6519 21.1679 28.6563 21.1537 28.6651C21.1396 28.674 21.1325 28.6857 21.1325 28.7003C21.1325 28.7117 21.1365 28.7208 21.1445 28.7274C21.1524 28.7341 21.1621 28.7389 21.1736 28.742C21.1856 28.7451 21.2021 28.7486 21.2233 28.7526C21.2516 28.7575 21.2744 28.7628 21.2916 28.7685C21.3093 28.7738 21.3243 28.7831 21.3367 28.7964C21.3491 28.8096 21.3552 28.8282 21.3552 28.852C21.3552 28.8839 21.3415 28.9093 21.3141 28.9283C21.2872 28.9468 21.2503 28.9561 21.2034 28.9561Z" fill="#E1251B"/>
<path d="M21.6323 28.9316C21.623 28.9395 21.6115 28.9457 21.5978 28.9502C21.5841 28.9541 21.57 28.9561 21.5554 28.9561C21.5201 28.9561 21.4927 28.9466 21.4732 28.9276C21.4538 28.9086 21.4441 28.8814 21.4441 28.8461V28.6532H21.3844V28.6008H21.4441V28.5239H21.5077V28.6008H21.6084V28.6532H21.5077V28.8434C21.5077 28.8624 21.5123 28.877 21.5216 28.8872C21.5313 28.8973 21.545 28.9024 21.5627 28.9024C21.5822 28.9024 21.5987 28.8969 21.6124 28.8859L21.6323 28.9316Z" fill="#E1251B"/>
<path d="M18.5046 32.2207C18.4843 32.2207 18.4644 32.2183 18.4449 32.2134C18.4255 32.2082 18.41 32.2019 18.3984 32.1943L18.4221 32.1432C18.4331 32.1502 18.4463 32.156 18.4618 32.1605C18.4773 32.1648 18.4925 32.1669 18.5074 32.1669C18.5374 32.1669 18.5525 32.1595 18.5525 32.1446C18.5525 32.1376 18.5484 32.1326 18.5402 32.1296C18.532 32.1265 18.5194 32.1239 18.5023 32.1218C18.4823 32.1188 18.4657 32.1153 18.4527 32.1113C18.4396 32.1074 18.4282 32.1004 18.4185 32.0904C18.4091 32.0803 18.4044 32.0661 18.4044 32.0475C18.4044 32.032 18.4088 32.0184 18.4176 32.0065C18.4267 31.9944 18.4398 31.9849 18.4568 31.9783C18.4741 31.9716 18.4944 31.9682 18.5178 31.9682C18.5352 31.9682 18.5523 31.9702 18.5693 31.9742C18.5867 31.9778 18.6009 31.983 18.6122 31.9896L18.5885 32.0402C18.5669 32.0281 18.5434 32.022 18.5178 32.022C18.5026 32.022 18.4913 32.0241 18.4837 32.0284C18.4761 32.0326 18.4723 32.0381 18.4723 32.0448C18.4723 32.0524 18.4764 32.0577 18.4846 32.0607C18.4928 32.0638 18.5058 32.0667 18.5238 32.0694C18.5438 32.0727 18.5602 32.0764 18.573 32.0803C18.5857 32.084 18.5968 32.0908 18.6062 32.1008C18.6157 32.1109 18.6204 32.1248 18.6204 32.1428C18.6204 32.158 18.6158 32.1715 18.6067 32.1833C18.5976 32.1952 18.5842 32.2044 18.5666 32.2111C18.5493 32.2175 18.5286 32.2207 18.5046 32.2207Z" fill="black"/>
<path d="M18.8092 31.9682C18.8319 31.9682 18.8526 31.9735 18.8711 31.9842C18.89 31.9945 18.9047 32.0092 18.9153 32.0284C18.926 32.0472 18.9313 32.0692 18.9313 32.0945C18.9313 32.1197 18.926 32.1419 18.9153 32.161C18.9047 32.1798 18.89 32.1946 18.8711 32.2052C18.8526 32.2155 18.8319 32.2207 18.8092 32.2207C18.7779 32.2207 18.7533 32.2108 18.7353 32.1911V32.3055H18.6642V31.9719H18.7321V32.0001C18.7498 31.9789 18.7754 31.9682 18.8092 31.9682ZM18.7969 32.1624C18.8151 32.1624 18.83 32.1563 18.8415 32.1441C18.8534 32.1317 18.8593 32.1151 18.8593 32.0945C18.8593 32.0738 18.8534 32.0574 18.8415 32.0452C18.83 32.0328 18.8151 32.0266 18.7969 32.0266C18.7786 32.0266 18.7636 32.0328 18.7517 32.0452C18.7402 32.0574 18.7344 32.0738 18.7344 32.0945C18.7344 32.1151 18.7402 32.1317 18.7517 32.1441C18.7636 32.1563 18.7786 32.1624 18.7969 32.1624Z" fill="black"/>
<path d="M19.0027 32.2207C18.9902 32.2207 18.9797 32.2164 18.9712 32.2079C18.9627 32.1994 18.9585 32.1888 18.9585 32.176C18.9585 32.163 18.9627 32.1525 18.9712 32.1446C18.9797 32.1364 18.9902 32.1323 19.0027 32.1323C19.0151 32.1323 19.0256 32.1364 19.0341 32.1446C19.0426 32.1525 19.0469 32.163 19.0469 32.176C19.0469 32.1888 19.0426 32.1994 19.0341 32.2079C19.0256 32.2164 19.0151 32.2207 19.0027 32.2207Z" fill="black"/>
<path d="M19.3449 31.9719V32.176C19.3449 32.221 19.3332 32.2544 19.3098 32.2763C19.2864 32.2982 19.2522 32.3091 19.2072 32.3091C19.1835 32.3091 19.161 32.3062 19.1398 32.3005C19.1185 32.2947 19.1009 32.2863 19.0869 32.2754L19.1152 32.2243C19.1255 32.2329 19.1386 32.2395 19.1544 32.2444C19.1702 32.2496 19.186 32.2521 19.2018 32.2521C19.2264 32.2521 19.2444 32.2465 19.256 32.2353C19.2678 32.2243 19.2738 32.2076 19.2738 32.1852V32.1747C19.2552 32.195 19.2294 32.2052 19.1963 32.2052C19.1738 32.2052 19.1531 32.2003 19.1343 32.1906C19.1158 32.1806 19.101 32.1666 19.0901 32.1487C19.0792 32.1308 19.0737 32.1101 19.0737 32.0867C19.0737 32.0633 19.0792 32.0427 19.0901 32.0247C19.101 32.0068 19.1158 31.993 19.1343 31.9833C19.1531 31.9732 19.1738 31.9682 19.1963 31.9682C19.2318 31.9682 19.2589 31.9799 19.2774 32.0033V31.9719H19.3449ZM19.2104 32.1469C19.2293 32.1469 19.2446 32.1414 19.2564 32.1305C19.2686 32.1192 19.2747 32.1046 19.2747 32.0867C19.2747 32.0688 19.2686 32.0544 19.2564 32.0434C19.2446 32.0322 19.2293 32.0266 19.2104 32.0266C19.1916 32.0266 19.1761 32.0322 19.1639 32.0434C19.1518 32.0544 19.1457 32.0688 19.1457 32.0867C19.1457 32.1046 19.1518 32.1192 19.1639 32.1305C19.1761 32.1414 19.1916 32.1469 19.2104 32.1469Z" fill="black"/>
<path d="M19.6512 32.0954C19.6512 32.0963 19.6507 32.1027 19.6498 32.1145H19.4643C19.4677 32.1297 19.4756 32.1417 19.488 32.1505C19.5005 32.1593 19.516 32.1637 19.5345 32.1637C19.5473 32.1637 19.5585 32.1619 19.5682 32.1583C19.5783 32.1543 19.5875 32.1482 19.596 32.14L19.6339 32.1811C19.6108 32.2075 19.5771 32.2207 19.5327 32.2207C19.5051 32.2207 19.4806 32.2154 19.4593 32.2047C19.4381 32.1938 19.4217 32.1788 19.4101 32.1596C19.3986 32.1405 19.3928 32.1188 19.3928 32.0945C19.3928 32.0705 19.3984 32.0489 19.4097 32.0298C19.4212 32.0103 19.4368 31.9953 19.4566 31.9846C19.4766 31.9737 19.499 31.9682 19.5236 31.9682C19.5476 31.9682 19.5693 31.9734 19.5888 31.9837C19.6082 31.9941 19.6234 32.0089 19.6343 32.0284C19.6456 32.0475 19.6512 32.0699 19.6512 32.0954ZM19.524 32.022C19.5079 32.022 19.4944 32.0266 19.4835 32.0357C19.4725 32.0448 19.4659 32.0572 19.4634 32.073H19.5842C19.5818 32.0575 19.5751 32.0452 19.5641 32.0361C19.5532 32.0267 19.5398 32.022 19.524 32.022Z" fill="black"/>
<path d="M19.8475 31.9682C19.8779 31.9682 19.9024 31.9773 19.9209 31.9956C19.9397 32.0138 19.9492 32.0408 19.9492 32.0767V32.2171H19.8781V32.0876C19.8781 32.0682 19.8738 32.0538 19.8653 32.0443C19.8568 32.0346 19.8445 32.0298 19.8284 32.0298C19.8105 32.0298 19.7962 32.0354 19.7856 32.0466C19.7749 32.0575 19.7696 32.074 19.7696 32.0958V32.2171H19.6985V31.9719H19.7664V32.0006C19.7758 31.9903 19.7875 31.9824 19.8015 31.9769C19.8155 31.9711 19.8308 31.9682 19.8475 31.9682Z" fill="black"/>
<path d="M20.0136 31.9719H20.0847V32.2171H20.0136V31.9719ZM20.0492 31.9377C20.0361 31.9377 20.0255 31.9339 20.0173 31.9263C20.0091 31.9187 20.005 31.9093 20.005 31.898C20.005 31.8868 20.0091 31.8774 20.0173 31.8698C20.0255 31.8622 20.0361 31.8584 20.0492 31.8584C20.0622 31.8584 20.0729 31.862 20.0811 31.8693C20.0893 31.8766 20.0934 31.8857 20.0934 31.8967C20.0934 31.9085 20.0893 31.9184 20.0811 31.9263C20.0729 31.9339 20.0622 31.9377 20.0492 31.9377Z" fill="black"/>
<path d="M20.3977 31.9719V32.2171H20.3302V32.1879C20.3208 32.1985 20.3096 32.2067 20.2965 32.2125C20.2835 32.218 20.2693 32.2207 20.2541 32.2207C20.2219 32.2207 20.1964 32.2114 20.1776 32.1929C20.1587 32.1744 20.1493 32.1469 20.1493 32.1104V31.9719H20.2204V32.0999C20.2204 32.1394 20.237 32.1592 20.2701 32.1592C20.2871 32.1592 20.3008 32.1537 20.3111 32.1428C20.3214 32.1315 20.3266 32.115 20.3266 32.0931V31.9719H20.3977Z" fill="black"/>
<path d="M20.546 32.2207C20.5257 32.2207 20.5058 32.2183 20.4863 32.2134C20.4669 32.2082 20.4514 32.2019 20.4399 32.1943L20.4635 32.1432C20.4745 32.1502 20.4877 32.156 20.5032 32.1605C20.5187 32.1648 20.5339 32.1669 20.5488 32.1669C20.5788 32.1669 20.5939 32.1595 20.5939 32.1446C20.5939 32.1376 20.5898 32.1326 20.5816 32.1296C20.5734 32.1265 20.5608 32.1239 20.5438 32.1218C20.5237 32.1188 20.5071 32.1153 20.4941 32.1113C20.481 32.1074 20.4696 32.1004 20.4599 32.0904C20.4505 32.0803 20.4458 32.0661 20.4458 32.0475C20.4458 32.032 20.4502 32.0184 20.459 32.0065C20.4681 31.9944 20.4812 31.9849 20.4982 31.9783C20.5155 31.9716 20.5359 31.9682 20.5593 31.9682C20.5766 31.9682 20.5937 31.9702 20.6107 31.9742C20.6281 31.9778 20.6423 31.983 20.6536 31.9896L20.6299 32.0402C20.6083 32.0281 20.5848 32.022 20.5593 32.022C20.5441 32.022 20.5327 32.0241 20.5251 32.0284C20.5175 32.0326 20.5137 32.0381 20.5137 32.0448C20.5137 32.0524 20.5178 32.0577 20.526 32.0607C20.5342 32.0638 20.5472 32.0667 20.5652 32.0694C20.5852 32.0727 20.6016 32.0764 20.6144 32.0803C20.6272 32.084 20.6382 32.0908 20.6477 32.1008C20.6571 32.1109 20.6618 32.1248 20.6618 32.1428C20.6618 32.158 20.6572 32.1715 20.6481 32.1833C20.639 32.1952 20.6256 32.2044 20.608 32.2111C20.5907 32.2175 20.57 32.2207 20.546 32.2207Z" fill="black"/>
<path d="M20.8638 32.2052C20.8568 32.2104 20.8481 32.2143 20.8378 32.2171C20.8278 32.2195 20.8172 32.2207 20.8059 32.2207C20.7767 32.2207 20.7541 32.2133 20.738 32.1984C20.7222 32.1835 20.7143 32.1616 20.7143 32.1327V32.032H20.6765V31.9773H20.7143V31.9176H20.7854V31.9773H20.8465V32.032H20.7854V32.1318C20.7854 32.1422 20.788 32.1502 20.7932 32.156C20.7986 32.1615 20.8062 32.1642 20.8159 32.1642C20.8272 32.1642 20.8367 32.1612 20.8446 32.1551L20.8638 32.2052Z" fill="black"/>
<path d="M21.0026 31.9682C21.0406 31.9682 21.0697 31.9773 21.0901 31.9956C21.1104 32.0135 21.1206 32.0407 21.1206 32.0771V32.2171H21.0541V32.1865C21.0407 32.2093 21.0158 32.2207 20.9793 32.2207C20.9605 32.2207 20.9441 32.2175 20.9301 32.2111C20.9165 32.2047 20.906 32.1959 20.8987 32.1847C20.8914 32.1735 20.8877 32.1607 20.8877 32.1464C20.8877 32.1236 20.8963 32.1057 20.9133 32.0926C20.9306 32.0796 20.9572 32.073 20.993 32.073H21.0495C21.0495 32.0575 21.0448 32.0457 21.0354 32.0375C21.026 32.029 21.0119 32.0247 20.993 32.0247C20.98 32.0247 20.967 32.0269 20.9543 32.0311C20.9418 32.0351 20.9312 32.0405 20.9224 32.0475L20.8969 31.9979C20.9102 31.9884 20.9262 31.9811 20.9447 31.976C20.9635 31.9708 20.9828 31.9682 21.0026 31.9682ZM20.9971 32.1728C21.0093 32.1728 21.0201 32.1701 21.0295 32.1646C21.0389 32.1589 21.0456 32.1505 21.0495 32.1396V32.1145H21.0008C20.9716 32.1145 20.957 32.1241 20.957 32.1432C20.957 32.1523 20.9605 32.1596 20.9675 32.1651C20.9748 32.1703 20.9847 32.1728 20.9971 32.1728Z" fill="black"/>
<path d="M21.4406 31.9719V32.176C21.4406 32.221 21.4289 32.2544 21.4055 32.2763C21.3821 32.2982 21.3479 32.3091 21.3029 32.3091C21.2792 32.3091 21.2568 32.3062 21.2355 32.3005C21.2142 32.2947 21.1966 32.2863 21.1826 32.2754L21.2109 32.2243C21.2212 32.2329 21.2343 32.2395 21.2501 32.2444C21.2659 32.2496 21.2817 32.2521 21.2975 32.2521C21.3221 32.2521 21.3401 32.2465 21.3517 32.2353C21.3635 32.2243 21.3695 32.2076 21.3695 32.1852V32.1747C21.3509 32.195 21.3251 32.2052 21.292 32.2052C21.2695 32.2052 21.2489 32.2003 21.23 32.1906C21.2115 32.1806 21.1967 32.1666 21.1858 32.1487C21.1749 32.1308 21.1694 32.1101 21.1694 32.0867C21.1694 32.0633 21.1749 32.0427 21.1858 32.0247C21.1967 32.0068 21.2115 31.993 21.23 31.9833C21.2489 31.9732 21.2695 31.9682 21.292 31.9682C21.3275 31.9682 21.3546 31.9799 21.3731 32.0033V31.9719H21.4406ZM21.3061 32.1469C21.325 32.1469 21.3403 32.1414 21.3521 32.1305C21.3643 32.1192 21.3704 32.1046 21.3704 32.0867C21.3704 32.0688 21.3643 32.0544 21.3521 32.0434C21.3403 32.0322 21.325 32.0266 21.3061 32.0266C21.2873 32.0266 21.2718 32.0322 21.2596 32.0434C21.2475 32.0544 21.2414 32.0688 21.2414 32.0867C21.2414 32.1046 21.2475 32.1192 21.2596 32.1305C21.2718 32.1414 21.2873 32.1469 21.3061 32.1469Z" fill="black"/>
<path d="M21.5336 32.2207C21.5212 32.2207 21.5107 32.2164 21.5022 32.2079C21.4937 32.1994 21.4894 32.1888 21.4894 32.176C21.4894 32.163 21.4937 32.1525 21.5022 32.1446C21.5107 32.1364 21.5212 32.1323 21.5336 32.1323C21.5461 32.1323 21.5566 32.1364 21.5651 32.1446C21.5736 32.1525 21.5778 32.163 21.5778 32.176C21.5778 32.1888 21.5736 32.1994 21.5651 32.2079C21.5566 32.2164 21.5461 32.2207 21.5336 32.2207Z" fill="black"/>
<path d="M21.7414 32.2207C21.7152 32.2207 21.6917 32.2154 21.6707 32.2047C21.6501 32.1938 21.6338 32.1788 21.622 32.1596C21.6104 32.1405 21.6047 32.1188 21.6047 32.0945C21.6047 32.0702 21.6104 32.0484 21.622 32.0293C21.6338 32.0102 21.6501 31.9953 21.6707 31.9846C21.6917 31.9737 21.7152 31.9682 21.7414 31.9682C21.7672 31.9682 21.7897 31.9737 21.8088 31.9846C21.8283 31.9953 21.8424 32.0106 21.8512 32.0307L21.7961 32.0603C21.7833 32.0378 21.7649 32.0266 21.7409 32.0266C21.7224 32.0266 21.707 32.0326 21.6949 32.0448C21.6827 32.0569 21.6767 32.0735 21.6767 32.0945C21.6767 32.1154 21.6827 32.132 21.6949 32.1441C21.707 32.1563 21.7224 32.1624 21.7409 32.1624C21.7652 32.1624 21.7836 32.1511 21.7961 32.1286L21.8512 32.1587C21.8424 32.1782 21.8283 32.1934 21.8088 32.2043C21.7897 32.2152 21.7672 32.2207 21.7414 32.2207Z" fill="black"/>
<path d="M22.0057 32.2207C21.9799 32.2207 21.9566 32.2154 21.936 32.2047C21.9156 32.1938 21.8997 32.1788 21.8881 32.1596C21.8766 32.1405 21.8708 32.1188 21.8708 32.0945C21.8708 32.0702 21.8766 32.0484 21.8881 32.0293C21.8997 32.0102 21.9156 31.9953 21.936 31.9846C21.9566 31.9737 21.9799 31.9682 22.0057 31.9682C22.0315 31.9682 22.0546 31.9737 22.075 31.9846C22.0953 31.9953 22.1113 32.0102 22.1228 32.0293C22.1344 32.0484 22.1401 32.0702 22.1401 32.0945C22.1401 32.1188 22.1344 32.1405 22.1228 32.1596C22.1113 32.1788 22.0953 32.1938 22.075 32.2047C22.0546 32.2154 22.0315 32.2207 22.0057 32.2207ZM22.0057 32.1624C22.0239 32.1624 22.0388 32.1563 22.0503 32.1441C22.0622 32.1317 22.0681 32.1151 22.0681 32.0945C22.0681 32.0738 22.0622 32.0574 22.0503 32.0452C22.0388 32.0328 22.0239 32.0266 22.0057 32.0266C21.9875 32.0266 21.9724 32.0328 21.9606 32.0452C21.9487 32.0574 21.9428 32.0738 21.9428 32.0945C21.9428 32.1151 21.9487 32.1317 21.9606 32.1441C21.9724 32.1563 21.9875 32.1624 22.0057 32.1624Z" fill="black"/>
<path d="M22.5016 31.9682C22.5323 31.9682 22.5566 31.9773 22.5746 31.9956C22.5928 32.0135 22.6019 32.0405 22.6019 32.0767V32.2171H22.5308V32.0876C22.5308 32.0682 22.5267 32.0538 22.5185 32.0443C22.5106 32.0346 22.4992 32.0298 22.4843 32.0298C22.4676 32.0298 22.4544 32.0352 22.4447 32.0462C22.435 32.0568 22.4301 32.0727 22.4301 32.094V32.2171H22.359V32.0876C22.359 32.049 22.3435 32.0298 22.3125 32.0298C22.2961 32.0298 22.283 32.0352 22.2733 32.0462C22.2636 32.0568 22.2587 32.0727 22.2587 32.094V32.2171H22.1876V31.9719H22.2555V32.0001C22.2647 31.9898 22.2758 31.9819 22.2888 31.9764C22.3022 31.971 22.3168 31.9682 22.3326 31.9682C22.3499 31.9682 22.3655 31.9717 22.3795 31.9787C22.3935 31.9854 22.4047 31.9953 22.4132 32.0083C22.4233 31.9956 22.4359 31.9857 22.4511 31.9787C22.4665 31.9717 22.4834 31.9682 22.5016 31.9682Z" fill="black"/>
<path d="M18.6617 32.5606C18.662 32.5719 18.6652 32.5822 18.6714 32.5914C18.6779 32.6003 18.6863 32.6088 18.6965 32.6169C18.707 32.6249 18.7189 32.6329 18.7321 32.6407C18.7453 32.6483 18.7588 32.6564 18.7726 32.665C18.7866 32.6734 18.8002 32.6825 18.8134 32.6925C18.8266 32.7025 18.8385 32.7138 18.849 32.7265C18.8596 32.7392 18.868 32.7535 18.8745 32.7694C18.881 32.7853 18.8845 32.8034 18.885 32.8236V32.8268C18.885 32.8489 18.8823 32.8682 18.8769 32.8847C18.8716 32.9011 18.8644 32.9153 18.8555 32.9272C18.8466 32.939 18.8362 32.9489 18.8244 32.9567C18.8125 32.9643 18.7999 32.9703 18.7867 32.9749C18.7738 32.9795 18.7606 32.9827 18.7471 32.9846C18.7339 32.9865 18.7213 32.9876 18.7095 32.9879H18.7054C18.6825 32.9879 18.6624 32.9856 18.6451 32.981C18.6279 32.9764 18.613 32.9703 18.6006 32.9628C18.5882 32.9549 18.5778 32.946 18.5695 32.9361C18.5614 32.9261 18.5549 32.9158 18.55 32.9053C18.5452 32.8945 18.5417 32.8839 18.5395 32.8734C18.5374 32.8628 18.5363 32.853 18.5363 32.8438C18.5363 32.8344 18.5379 32.8262 18.5411 32.8191C18.5444 32.8121 18.5486 32.8065 18.5537 32.8022C18.5591 32.7976 18.5651 32.7942 18.5719 32.792C18.5789 32.7899 18.5862 32.7888 18.5937 32.7888C18.6008 32.7888 18.6079 32.7899 18.6152 32.792C18.6227 32.7942 18.6295 32.7976 18.6354 32.8022C18.6416 32.8065 18.6466 32.8121 18.6504 32.8191C18.6544 32.8259 18.6566 32.8338 18.6569 32.843C18.6574 32.8632 18.662 32.8771 18.6706 32.8847C18.6792 32.892 18.6916 32.8956 18.7078 32.8956C18.7159 32.8953 18.7233 32.8944 18.7301 32.8928C18.7371 32.8909 18.743 32.8878 18.7479 32.8835C18.7527 32.8789 18.7565 32.873 18.7592 32.8657C18.7622 32.8581 18.7637 32.8487 18.7637 32.8374C18.7637 32.8233 18.7604 32.8106 18.754 32.7993C18.7478 32.788 18.7395 32.7775 18.7293 32.7678C18.719 32.7581 18.7073 32.7489 18.6941 32.7402C18.6809 32.7313 18.6674 32.7226 18.6536 32.714C18.6399 32.7051 18.6264 32.6959 18.6132 32.6864C18.6002 32.6767 18.5885 32.6662 18.578 32.6549C18.5674 32.6436 18.5589 32.631 18.5525 32.6173C18.5463 32.6035 18.543 32.5879 18.5428 32.5703V32.5639C18.543 32.535 18.5468 32.511 18.5541 32.4918C18.5616 32.4727 18.5726 32.4574 18.5869 32.4461C18.6014 32.4348 18.6192 32.4268 18.6403 32.4222C18.6613 32.4174 18.6854 32.415 18.7127 32.415H18.7232C18.748 32.415 18.7691 32.4177 18.7863 32.4231C18.8036 32.4284 18.8179 32.4353 18.8292 32.4437C18.8408 32.4521 18.8498 32.4615 18.8563 32.472C18.8631 32.4825 18.868 32.4929 18.8713 32.5032C18.8745 32.5134 18.8765 32.523 18.8774 32.5319C18.8782 32.5408 18.8786 32.5479 18.8786 32.5533C18.8786 32.5614 18.8769 32.5688 18.8737 32.5756C18.8707 32.5821 18.8666 32.5876 18.8612 32.5922C18.856 32.5968 18.8498 32.6004 18.8426 32.6031C18.8355 32.6055 18.8279 32.6067 18.8195 32.6067C18.813 32.6067 18.8066 32.6055 18.8001 32.6031C18.7936 32.6004 18.7878 32.597 18.7827 32.593C18.7776 32.5889 18.7734 32.5843 18.7701 32.5792C18.7669 32.5738 18.7653 32.5684 18.7653 32.563C18.7653 32.5409 18.7612 32.5256 18.7531 32.5169C18.7453 32.5083 18.7337 32.504 18.7184 32.504C18.7111 32.504 18.7039 32.5044 18.6969 32.5052C18.6902 32.506 18.6841 32.5083 18.6787 32.5121C18.6736 32.5156 18.6694 32.5211 18.6662 32.5287C18.6632 32.5362 18.6617 32.5469 18.6617 32.5606Z" fill="black"/>
<path d="M19.0914 32.7613V32.8924C19.0914 32.904 19.091 32.9153 19.0902 32.9264C19.0896 32.9374 19.0873 32.9473 19.0833 32.9559C19.0795 32.9645 19.0734 32.9715 19.0651 32.9769C19.0567 32.9821 19.0447 32.9846 19.0291 32.9846C19.014 32.9846 19.0022 32.9821 18.9939 32.9769C18.9858 32.9715 18.9798 32.9645 18.9761 32.9559C18.9723 32.9473 18.97 32.9374 18.9692 32.9264C18.9687 32.9153 18.9684 32.904 18.9684 32.8924V32.5104C18.9684 32.4988 18.9687 32.4875 18.9692 32.4765C18.97 32.4654 18.9723 32.4556 18.9761 32.4469C18.9798 32.4383 18.9858 32.4314 18.9939 32.4263C19.0022 32.4209 19.014 32.4182 19.0291 32.4182H19.1626C19.196 32.4198 19.226 32.4268 19.2524 32.4392C19.2637 32.4446 19.2747 32.4514 19.2852 32.4595C19.296 32.4676 19.3055 32.4775 19.3139 32.4894C19.3225 32.501 19.3294 32.5149 19.3345 32.5311C19.3397 32.547 19.3422 32.5655 19.3422 32.5865C19.3422 32.6154 19.3376 32.6407 19.3285 32.6626C19.3196 32.6841 19.3065 32.7024 19.2892 32.7172C19.2722 32.7318 19.2513 32.7428 19.2265 32.7504C19.202 32.7576 19.1742 32.7613 19.1432 32.7613H19.0914ZM19.1464 32.665C19.1599 32.6642 19.172 32.661 19.1828 32.6553C19.1874 32.6529 19.1919 32.6498 19.1962 32.646C19.2005 32.6422 19.2044 32.6376 19.2079 32.6322C19.2114 32.6266 19.2141 32.62 19.216 32.6124C19.2181 32.6048 19.2192 32.5962 19.2192 32.5865C19.2192 32.5773 19.2181 32.5694 19.216 32.5626C19.2141 32.5556 19.2115 32.5497 19.2083 32.5448C19.2051 32.5397 19.2014 32.5354 19.1974 32.5319C19.1933 32.5284 19.1892 32.5254 19.1848 32.523C19.1746 32.5179 19.1631 32.5148 19.1504 32.5137H19.0914V32.665H19.1464Z" fill="black"/>
<path d="M19.4506 32.7904C19.4431 32.7904 19.4358 32.79 19.4288 32.7892C19.4218 32.7881 19.4156 32.786 19.4102 32.7827C19.4048 32.7792 19.4005 32.7744 19.3972 32.7682C19.394 32.7617 19.3924 32.7529 19.3924 32.7419C19.3924 32.73 19.394 32.7207 19.3972 32.714C19.4005 32.7072 19.4048 32.7022 19.4102 32.699C19.4156 32.6957 19.4218 32.6937 19.4288 32.6929C19.4358 32.6921 19.4431 32.6917 19.4506 32.6917H19.6295C19.6362 32.6917 19.6431 32.6921 19.6501 32.6929C19.6571 32.6937 19.6633 32.6957 19.6687 32.699C19.6744 32.7022 19.679 32.7072 19.6825 32.714C19.686 32.7207 19.6877 32.73 19.6877 32.7419C19.6877 32.7529 19.686 32.7617 19.6825 32.7682C19.679 32.7744 19.6744 32.7792 19.6687 32.7827C19.6633 32.786 19.6571 32.7881 19.6501 32.7892C19.6431 32.79 19.6362 32.7904 19.6295 32.7904H19.4506Z" fill="black"/>
<path d="M19.8965 32.6957L19.7945 32.5412C19.7886 32.5323 19.7832 32.5234 19.7784 32.5145C19.7743 32.5072 19.7705 32.4995 19.767 32.4914C19.7638 32.4833 19.7622 32.4765 19.7622 32.4708C19.7622 32.4635 19.7642 32.4561 19.7682 32.4485C19.7726 32.441 19.78 32.4341 19.7905 32.4279C19.8026 32.4214 19.8137 32.4182 19.8237 32.4182C19.8312 32.4182 19.8381 32.42 19.8443 32.4235C19.8508 32.4267 19.8566 32.4311 19.8617 32.4368C19.8671 32.4422 19.8721 32.4484 19.8767 32.4554C19.8813 32.4624 19.8857 32.4694 19.89 32.4765L19.9653 32.6003H19.9774L20.0527 32.4765C20.057 32.4694 20.0614 32.4624 20.066 32.4554C20.0706 32.4484 20.0755 32.4422 20.0806 32.4368C20.086 32.4311 20.0918 32.4267 20.098 32.4235C20.1042 32.42 20.1112 32.4182 20.119 32.4182C20.1239 32.4182 20.129 32.4191 20.1344 32.421C20.1401 32.4229 20.146 32.4255 20.1522 32.4287C20.1635 32.4349 20.1714 32.4417 20.1757 32.4489C20.18 32.456 20.1821 32.463 20.1821 32.47C20.1821 32.4759 20.1804 32.4829 20.1769 32.491C20.1734 32.4991 20.1695 32.5069 20.1651 32.5145C20.1603 32.5234 20.1546 32.5323 20.1482 32.5412L20.047 32.6957V32.703L20.1595 32.8802C20.1651 32.8891 20.17 32.898 20.174 32.9069C20.1784 32.9156 20.1805 32.9242 20.1805 32.9328C20.1805 32.9401 20.1785 32.9474 20.1745 32.9547C20.1707 32.9617 20.1635 32.9684 20.153 32.9749C20.1409 32.9814 20.1298 32.9846 20.1198 32.9846C20.1128 32.9846 20.1065 32.9833 20.1008 32.9806C20.0952 32.9776 20.0899 32.9738 20.085 32.9692C20.0802 32.9647 20.0756 32.9594 20.0713 32.9535C20.0672 32.9475 20.0632 32.9415 20.0591 32.9353L19.9774 32.8026H19.9653L19.8836 32.9353C19.8795 32.9415 19.8753 32.9475 19.871 32.9535C19.867 32.9594 19.8625 32.9647 19.8577 32.9692C19.8531 32.9738 19.848 32.9776 19.8423 32.9806C19.8366 32.9833 19.8304 32.9846 19.8237 32.9846C19.8134 32.9846 19.8026 32.9814 19.7913 32.9749C19.7803 32.9684 19.7726 32.9617 19.7682 32.9547C19.7642 32.9474 19.7622 32.9401 19.7622 32.9328C19.7622 32.9242 19.7642 32.9156 19.7682 32.9069C19.7726 32.898 19.7776 32.8891 19.7832 32.8802L19.8965 32.703V32.6957Z" fill="black"/>
<path d="M20.3602 32.6957L20.2582 32.5412C20.2523 32.5323 20.2469 32.5234 20.242 32.5145C20.238 32.5072 20.2342 32.4995 20.2307 32.4914C20.2275 32.4833 20.2258 32.4765 20.2258 32.4708C20.2258 32.4635 20.2279 32.4561 20.2319 32.4485C20.2362 32.441 20.2436 32.4341 20.2542 32.4279C20.2663 32.4214 20.2774 32.4182 20.2873 32.4182C20.2949 32.4182 20.3018 32.42 20.308 32.4235C20.3144 32.4267 20.3202 32.4311 20.3254 32.4368C20.3308 32.4422 20.3357 32.4484 20.3403 32.4554C20.3449 32.4624 20.3494 32.4694 20.3537 32.4765L20.4289 32.6003H20.4411L20.5163 32.4765C20.5206 32.4694 20.5251 32.4624 20.5297 32.4554C20.5343 32.4484 20.5391 32.4422 20.5442 32.4368C20.5496 32.4311 20.5554 32.4267 20.5616 32.4235C20.5678 32.42 20.5749 32.4182 20.5827 32.4182C20.5875 32.4182 20.5927 32.4191 20.5981 32.421C20.6037 32.4229 20.6096 32.4255 20.6159 32.4287C20.6272 32.4349 20.635 32.4417 20.6393 32.4489C20.6436 32.456 20.6458 32.463 20.6458 32.47C20.6458 32.4759 20.644 32.4829 20.6405 32.491C20.637 32.4991 20.6331 32.5069 20.6288 32.5145C20.6239 32.5234 20.6183 32.5323 20.6118 32.5412L20.5107 32.6957V32.703L20.6231 32.8802C20.6288 32.8891 20.6337 32.898 20.6377 32.9069C20.642 32.9156 20.6442 32.9242 20.6442 32.9328C20.6442 32.9401 20.6422 32.9474 20.6381 32.9547C20.6343 32.9617 20.6272 32.9684 20.6167 32.9749C20.6045 32.9814 20.5935 32.9846 20.5835 32.9846C20.5765 32.9846 20.5701 32.9833 20.5645 32.9806C20.5588 32.9776 20.5535 32.9738 20.5487 32.9692C20.5438 32.9647 20.5393 32.9594 20.5349 32.9535C20.5309 32.9475 20.5268 32.9415 20.5228 32.9353L20.4411 32.8026H20.4289L20.3472 32.9353C20.3432 32.9415 20.339 32.9475 20.3347 32.9535C20.3306 32.9594 20.3262 32.9647 20.3213 32.9692C20.3167 32.9738 20.3116 32.9776 20.3059 32.9806C20.3003 32.9833 20.2941 32.9846 20.2873 32.9846C20.2771 32.9846 20.2663 32.9814 20.255 32.9749C20.2439 32.9684 20.2362 32.9617 20.2319 32.9547C20.2279 32.9474 20.2258 32.9401 20.2258 32.9328C20.2258 32.9242 20.2279 32.9156 20.2319 32.9069C20.2362 32.898 20.2412 32.8891 20.2469 32.8802L20.3602 32.703V32.6957Z" fill="black"/>
<path d="M20.8238 32.6957L20.7219 32.5412C20.7159 32.5323 20.7105 32.5234 20.7057 32.5145C20.7016 32.5072 20.6978 32.4995 20.6943 32.4914C20.6911 32.4833 20.6895 32.4765 20.6895 32.4708C20.6895 32.4635 20.6915 32.4561 20.6956 32.4485C20.6999 32.441 20.7073 32.4341 20.7178 32.4279C20.7299 32.4214 20.741 32.4182 20.751 32.4182C20.7585 32.4182 20.7654 32.42 20.7716 32.4235C20.7781 32.4267 20.7839 32.4311 20.789 32.4368C20.7944 32.4422 20.7994 32.4484 20.804 32.4554C20.8086 32.4624 20.813 32.4694 20.8173 32.4765L20.8926 32.6003H20.9047L20.98 32.4765C20.9843 32.4694 20.9887 32.4624 20.9933 32.4554C20.9979 32.4484 21.0028 32.4422 21.0079 32.4368C21.0133 32.4311 21.0191 32.4267 21.0253 32.4235C21.0315 32.42 21.0385 32.4182 21.0463 32.4182C21.0512 32.4182 21.0563 32.4191 21.0617 32.421C21.0674 32.4229 21.0733 32.4255 21.0795 32.4287C21.0908 32.4349 21.0987 32.4417 21.103 32.4489C21.1073 32.456 21.1094 32.463 21.1094 32.47C21.1094 32.4759 21.1077 32.4829 21.1042 32.491C21.1007 32.4991 21.0968 32.5069 21.0925 32.5145C21.0876 32.5234 21.0819 32.5323 21.0755 32.5412L20.9743 32.6957V32.703L21.0868 32.8802C21.0925 32.8891 21.0973 32.898 21.1014 32.9069C21.1057 32.9156 21.1078 32.9242 21.1078 32.9328C21.1078 32.9401 21.1058 32.9474 21.1018 32.9547C21.098 32.9617 21.0908 32.9684 21.0803 32.9749C21.0682 32.9814 21.0571 32.9846 21.0471 32.9846C21.0401 32.9846 21.0338 32.9833 21.0281 32.9806C21.0225 32.9776 21.0172 32.9738 21.0123 32.9692C21.0075 32.9647 21.0029 32.9594 20.9986 32.9535C20.9945 32.9475 20.9905 32.9415 20.9865 32.9353L20.9047 32.8026H20.8926L20.8109 32.9353C20.8068 32.9415 20.8026 32.9475 20.7983 32.9535C20.7943 32.9594 20.7898 32.9647 20.785 32.9692C20.7804 32.9738 20.7753 32.9776 20.7696 32.9806C20.7639 32.9833 20.7577 32.9846 20.751 32.9846C20.7407 32.9846 20.7299 32.9814 20.7186 32.9749C20.7076 32.9684 20.6999 32.9617 20.6956 32.9547C20.6915 32.9474 20.6895 32.9401 20.6895 32.9328C20.6895 32.9242 20.6915 32.9156 20.6956 32.9069C20.6999 32.898 20.7049 32.8891 20.7105 32.8802L20.8238 32.703V32.6957Z" fill="black"/>
<path d="M21.2875 32.6957L21.1855 32.5412C21.1796 32.5323 21.1742 32.5234 21.1693 32.5145C21.1653 32.5072 21.1615 32.4995 21.158 32.4914C21.1548 32.4833 21.1531 32.4765 21.1531 32.4708C21.1531 32.4635 21.1552 32.4561 21.1592 32.4485C21.1635 32.441 21.1709 32.4341 21.1815 32.4279C21.1936 32.4214 21.2047 32.4182 21.2146 32.4182C21.2222 32.4182 21.2291 32.42 21.2353 32.4235C21.2417 32.4267 21.2475 32.4311 21.2527 32.4368C21.2581 32.4422 21.2631 32.4484 21.2676 32.4554C21.2722 32.4624 21.2767 32.4694 21.281 32.4765L21.3562 32.6003H21.3684L21.4436 32.4765C21.4479 32.4694 21.4524 32.4624 21.457 32.4554C21.4616 32.4484 21.4664 32.4422 21.4716 32.4368C21.4769 32.4311 21.4827 32.4267 21.4889 32.4235C21.4952 32.42 21.5022 32.4182 21.51 32.4182C21.5148 32.4182 21.52 32.4191 21.5254 32.421C21.531 32.4229 21.537 32.4255 21.5432 32.4287C21.5545 32.4349 21.5623 32.4417 21.5666 32.4489C21.5709 32.456 21.5731 32.463 21.5731 32.47C21.5731 32.4759 21.5713 32.4829 21.5678 32.491C21.5643 32.4991 21.5604 32.5069 21.5561 32.5145C21.5513 32.5234 21.5456 32.5323 21.5391 32.5412L21.438 32.6957V32.703L21.5504 32.8802C21.5561 32.8891 21.561 32.898 21.565 32.9069C21.5693 32.9156 21.5715 32.9242 21.5715 32.9328C21.5715 32.9401 21.5695 32.9474 21.5654 32.9547C21.5616 32.9617 21.5545 32.9684 21.544 32.9749C21.5318 32.9814 21.5208 32.9846 21.5108 32.9846C21.5038 32.9846 21.4974 32.9833 21.4918 32.9806C21.4861 32.9776 21.4809 32.9738 21.476 32.9692C21.4711 32.9647 21.4666 32.9594 21.4622 32.9535C21.4582 32.9475 21.4542 32.9415 21.4501 32.9353L21.3684 32.8026H21.3562L21.2745 32.9353C21.2705 32.9415 21.2663 32.9475 21.262 32.9535C21.2579 32.9594 21.2535 32.9647 21.2486 32.9692C21.244 32.9738 21.2389 32.9776 21.2332 32.9806C21.2276 32.9833 21.2214 32.9846 21.2146 32.9846C21.2044 32.9846 21.1936 32.9814 21.1823 32.9749C21.1712 32.9684 21.1635 32.9617 21.1592 32.9547C21.1552 32.9474 21.1531 32.9401 21.1531 32.9328C21.1531 32.9242 21.1552 32.9156 21.1592 32.9069C21.1635 32.898 21.1685 32.8891 21.1742 32.8802L21.2875 32.703V32.6957Z" fill="black"/>
<path d="M21.7511 32.6957L21.6492 32.5412C21.6432 32.5323 21.6378 32.5234 21.633 32.5145C21.6289 32.5072 21.6252 32.4995 21.6217 32.4914C21.6184 32.4833 21.6168 32.4765 21.6168 32.4708C21.6168 32.4635 21.6188 32.4561 21.6229 32.4485C21.6272 32.441 21.6346 32.4341 21.6451 32.4279C21.6573 32.4214 21.6683 32.4182 21.6783 32.4182C21.6858 32.4182 21.6927 32.42 21.6989 32.4235C21.7054 32.4267 21.7112 32.4311 21.7163 32.4368C21.7217 32.4422 21.7267 32.4484 21.7313 32.4554C21.7359 32.4624 21.7403 32.4694 21.7446 32.4765L21.8199 32.6003H21.832L21.9073 32.4765C21.9116 32.4694 21.9161 32.4624 21.9206 32.4554C21.9252 32.4484 21.9301 32.4422 21.9352 32.4368C21.9406 32.4311 21.9464 32.4267 21.9526 32.4235C21.9588 32.42 21.9658 32.4182 21.9736 32.4182C21.9785 32.4182 21.9836 32.4191 21.989 32.421C21.9947 32.4229 22.0006 32.4255 22.0068 32.4287C22.0181 32.4349 22.026 32.4417 22.0303 32.4489C22.0346 32.456 22.0368 32.463 22.0368 32.47C22.0368 32.4759 22.035 32.4829 22.0315 32.491C22.028 32.4991 22.0241 32.5069 22.0198 32.5145C22.0149 32.5234 22.0092 32.5323 22.0028 32.5412L21.9016 32.6957V32.703L22.0141 32.8802C22.0198 32.8891 22.0246 32.898 22.0287 32.9069C22.033 32.9156 22.0351 32.9242 22.0351 32.9328C22.0351 32.9401 22.0331 32.9474 22.0291 32.9547C22.0253 32.9617 22.0181 32.9684 22.0076 32.9749C21.9955 32.9814 21.9844 32.9846 21.9744 32.9846C21.9674 32.9846 21.9611 32.9833 21.9554 32.9806C21.9498 32.9776 21.9445 32.9738 21.9397 32.9692C21.9348 32.9647 21.9302 32.9594 21.9259 32.9535C21.9219 32.9475 21.9178 32.9415 21.9138 32.9353L21.832 32.8026H21.8199L21.7382 32.9353C21.7341 32.9415 21.7299 32.9475 21.7256 32.9535C21.7216 32.9594 21.7171 32.9647 21.7123 32.9692C21.7077 32.9738 21.7026 32.9776 21.6969 32.9806C21.6912 32.9833 21.685 32.9846 21.6783 32.9846C21.668 32.9846 21.6573 32.9814 21.6459 32.9749C21.6349 32.9684 21.6272 32.9617 21.6229 32.9547C21.6188 32.9474 21.6168 32.9401 21.6168 32.9328C21.6168 32.9242 21.6188 32.9156 21.6229 32.9069C21.6272 32.898 21.6322 32.8891 21.6378 32.8802L21.7511 32.703V32.6957Z" fill="black"/>
<path d="M22.2148 32.6957L22.1128 32.5412C22.1069 32.5323 22.1015 32.5234 22.0966 32.5145C22.0926 32.5072 22.0888 32.4995 22.0853 32.4914C22.0821 32.4833 22.0805 32.4765 22.0805 32.4708C22.0805 32.4635 22.0825 32.4561 22.0865 32.4485C22.0908 32.441 22.0983 32.4341 22.1088 32.4279C22.1209 32.4214 22.132 32.4182 22.1419 32.4182C22.1495 32.4182 22.1564 32.42 22.1626 32.4235C22.1691 32.4267 22.1749 32.4311 22.18 32.4368C22.1854 32.4422 22.1904 32.4484 22.1949 32.4554C22.1995 32.4624 22.204 32.4694 22.2083 32.4765L22.2836 32.6003H22.2957L22.3709 32.4765C22.3753 32.4694 22.3797 32.4624 22.3843 32.4554C22.3889 32.4484 22.3937 32.4422 22.3989 32.4368C22.4043 32.4311 22.4101 32.4267 22.4163 32.4235C22.4225 32.42 22.4295 32.4182 22.4373 32.4182C22.4421 32.4182 22.4473 32.4191 22.4527 32.421C22.4583 32.4229 22.4643 32.4255 22.4705 32.4287C22.4818 32.4349 22.4896 32.4417 22.4939 32.4489C22.4983 32.456 22.5004 32.463 22.5004 32.47C22.5004 32.4759 22.4987 32.4829 22.4951 32.491C22.4916 32.4991 22.4877 32.5069 22.4834 32.5145C22.4786 32.5234 22.4729 32.5323 22.4664 32.5412L22.3653 32.6957V32.703L22.4778 32.8802C22.4834 32.8891 22.4883 32.898 22.4923 32.9069C22.4966 32.9156 22.4988 32.9242 22.4988 32.9328C22.4988 32.9401 22.4968 32.9474 22.4927 32.9547C22.4889 32.9617 22.4818 32.9684 22.4713 32.9749C22.4591 32.9814 22.4481 32.9846 22.4381 32.9846C22.4311 32.9846 22.4248 32.9833 22.4191 32.9806C22.4134 32.9776 22.4082 32.9738 22.4033 32.9692C22.3985 32.9647 22.3939 32.9594 22.3896 32.9535C22.3855 32.9475 22.3815 32.9415 22.3774 32.9353L22.2957 32.8026H22.2836L22.2018 32.9353C22.1978 32.9415 22.1936 32.9475 22.1893 32.9535C22.1852 32.9594 22.1808 32.9647 22.1759 32.9692C22.1713 32.9738 22.1662 32.9776 22.1606 32.9806C22.1549 32.9833 22.1487 32.9846 22.1419 32.9846C22.1317 32.9846 22.1209 32.9814 22.1096 32.9749C22.0985 32.9684 22.0908 32.9617 22.0865 32.9547C22.0825 32.9474 22.0805 32.9401 22.0805 32.9328C22.0805 32.9242 22.0825 32.9156 22.0865 32.9069C22.0908 32.898 22.0958 32.8891 22.1015 32.8802L22.2148 32.703V32.6957Z" fill="black"/>
<path d="M20.3246 26.8349C20.4974 26.8349 20.6375 26.6985 20.6375 26.5302C20.6375 26.362 20.4974 26.2256 20.3246 26.2256C20.1518 26.2256 20.0117 26.362 20.0117 26.5302C20.0117 26.6985 20.1518 26.8349 20.3246 26.8349Z" fill="#141414" stroke="#141414" stroke-width="0.0823378" stroke-miterlimit="10"/>
</svg>
