<svg width="24" height="25" viewBox="0 0 24 25" fill="none" xmlns="http://www.w3.org/2000/svg">
<circle cx="12" cy="12.6172" r="12" fill="url(#paint0_linear_3091_88947)"/>
<path d="M15.9467 9.2614C16.0035 9.20338 16.0714 9.15728 16.1463 9.12581C16.2212 9.09433 16.3017 9.07812 16.3829 9.07812C16.4642 9.07812 16.5446 9.09433 16.6195 9.12581C16.6944 9.15728 16.7623 9.20338 16.8192 9.2614C17.0575 9.50224 17.0608 9.8914 16.8275 10.1364L11.9 15.9614C11.844 16.0228 11.7761 16.0722 11.7005 16.1065C11.6248 16.1408 11.5429 16.1593 11.4598 16.1609C11.3767 16.1624 11.2942 16.147 11.2173 16.1156C11.1404 16.0842 11.0707 16.0374 11.0125 15.9781L8.01415 12.9397C7.89851 12.8218 7.83374 12.6632 7.83374 12.4981C7.83374 12.3329 7.89851 12.1743 8.01415 12.0564C8.07102 11.9984 8.1389 11.9523 8.21381 11.9208C8.28872 11.8893 8.36915 11.8731 8.4504 11.8731C8.53165 11.8731 8.61209 11.8893 8.68699 11.9208C8.7619 11.9523 8.82978 11.9984 8.88665 12.0564L11.43 14.6339L15.93 9.27974C15.9352 9.2733 15.9407 9.26717 15.9467 9.2614Z" fill="white"/>
<defs>
<linearGradient id="paint0_linear_3091_88947" x1="12" y1="0.617187" x2="12" y2="24.6172" gradientUnits="userSpaceOnUse">
<stop stop-color="#006D9E"/>
<stop offset="1" stop-color="#00426A"/>
</linearGradient>
</defs>
</svg>
