<svg width="21" height="21" viewBox="0 0 21 21" fill="none" xmlns="http://www.w3.org/2000/svg">
<path fill-rule="evenodd" clip-rule="evenodd" d="M17.1986 5.79279C17.3861 5.98031 17.4914 6.23462 17.4914 6.49979C17.4914 6.76495 17.3861 7.01926 17.1986 7.20679L9.19862 15.2068C9.01109 15.3943 8.75678 15.4996 8.49162 15.4996C8.22645 15.4996 7.97215 15.3943 7.78462 15.2068L3.78462 11.2068C3.60246 11.0182 3.50167 10.7656 3.50394 10.5034C3.50622 10.2412 3.61139 9.99038 3.7968 9.80497C3.98221 9.61956 4.23302 9.51439 4.49522 9.51211C4.75741 9.50983 5.01002 9.61063 5.19862 9.79279L8.49162 13.0858L15.7846 5.79279C15.9721 5.60532 16.2265 5.5 16.4916 5.5C16.7568 5.5 17.0111 5.60532 17.1986 5.79279Z" fill="white"/>
</svg>
