<svg width="25" height="25" viewBox="0 0 25 25" fill="none" xmlns="http://www.w3.org/2000/svg">
<circle cx="12.5" cy="12.2578" r="12" fill="url(#paint0_linear_3091_88999)"/>
<path d="M16.4467 8.90203C16.5035 8.844 16.5714 8.7979 16.6463 8.76643C16.7212 8.73496 16.8017 8.71875 16.8829 8.71875C16.9642 8.71875 17.0446 8.73496 17.1195 8.76643C17.1944 8.7979 17.2623 8.844 17.3192 8.90203C17.5575 9.14286 17.5608 9.53203 17.3275 9.77703L12.4 15.602C12.344 15.6635 12.2761 15.7128 12.2005 15.7471C12.1248 15.7814 12.0429 15.7999 11.9598 15.8015C11.8767 15.803 11.7942 15.7876 11.7173 15.7562C11.6404 15.7248 11.5707 15.678 11.5125 15.6187L8.51415 12.5804C8.39851 12.4624 8.33374 12.3039 8.33374 12.1387C8.33374 11.9735 8.39851 11.815 8.51415 11.697C8.57102 11.639 8.6389 11.5929 8.71381 11.5614C8.78872 11.53 8.86915 11.5137 8.9504 11.5137C9.03165 11.5137 9.11209 11.53 9.18699 11.5614C9.2619 11.5929 9.32978 11.639 9.38665 11.697L11.93 14.2745L16.43 8.92036C16.4352 8.91392 16.4407 8.9078 16.4467 8.90203Z" fill="white"/>
<defs>
<linearGradient id="paint0_linear_3091_88999" x1="12.5" y1="0.257812" x2="12.5" y2="24.2578" gradientUnits="userSpaceOnUse">
<stop stop-color="#FC8D8E"/>
<stop offset="1" stop-color="#F95759"/>
</linearGradient>
</defs>
</svg>
