<svg width="24" height="24" viewBox="0 0 24 24" fill="none" xmlns="http://www.w3.org/2000/svg">
<circle cx="12" cy="12" r="12" fill="#3CC7CD"/>
<path d="M15.9469 8.64422C16.0038 8.58619 16.0716 8.54009 16.1466 8.50862C16.2215 8.47715 16.3019 8.46094 16.3831 8.46094C16.4644 8.46094 16.5448 8.47715 16.6197 8.50862C16.6946 8.54009 16.7625 8.58619 16.8194 8.64422C17.0577 8.88505 17.0611 9.27422 16.8277 9.51922L11.9002 15.3442C11.8443 15.4057 11.7764 15.455 11.7007 15.4893C11.625 15.5236 11.5431 15.5421 11.4601 15.5437C11.377 15.5452 11.2945 15.5298 11.2176 15.4984C11.1406 15.467 11.0709 15.4202 11.0127 15.3609L8.01439 12.3225C7.89876 12.2046 7.83398 12.046 7.83398 11.8809C7.83398 11.7157 7.89876 11.5571 8.01439 11.4392C8.07127 11.3812 8.13914 11.3351 8.21405 11.3036C8.28896 11.2721 8.36939 11.2559 8.45064 11.2559C8.53189 11.2559 8.61233 11.2721 8.68724 11.3036C8.76215 11.3351 8.83002 11.3812 8.88689 11.4392L11.4302 14.0167L15.9302 8.66255C15.9354 8.65611 15.941 8.64999 15.9469 8.64422Z" fill="white"/>
</svg>
