<svg width="25" height="25" viewBox="0 0 25 25" fill="none" xmlns="http://www.w3.org/2000/svg">
<circle cx="12.5" cy="12.1367" r="12" fill="#81DBDF"/>
<path d="M16.4449 8.778C16.5018 8.71998 16.5697 8.67388 16.6446 8.64241C16.7195 8.61094 16.7999 8.59473 16.8812 8.59473C16.9624 8.59473 17.0429 8.61094 17.1178 8.64241C17.1927 8.67388 17.2606 8.71998 17.3174 8.778C17.5558 9.01884 17.5591 9.408 17.3258 9.653L12.3983 15.478C12.3423 15.5394 12.2744 15.5888 12.1988 15.6231C12.1231 15.6574 12.0412 15.6759 11.9581 15.6775C11.875 15.679 11.7925 15.6636 11.7156 15.6322C11.6387 15.6008 11.569 15.554 11.5108 15.4947L8.51244 12.4563C8.39681 12.3384 8.33203 12.1798 8.33203 12.0147C8.33203 11.8495 8.39681 11.6909 8.51244 11.573C8.56931 11.515 8.63719 11.4689 8.7121 11.4374C8.78701 11.4059 8.86744 11.3897 8.94869 11.3897C9.02994 11.3897 9.11038 11.4059 9.18528 11.4374C9.26019 11.4689 9.32807 11.515 9.38494 11.573L11.9283 14.1505L16.4283 8.79634C16.4335 8.7899 16.439 8.78378 16.4449 8.778Z" fill="white"/>
</svg>
