<svg width="41" height="41" viewBox="0 0 41 41" fill="none" xmlns="http://www.w3.org/2000/svg">
<path d="M22.201 20.7822L29.5699 13.4133C29.7155 13.2432 29.7916 13.0245 29.783 12.8008C29.7743 12.5771 29.6816 12.3649 29.5233 12.2066C29.365 12.0483 29.1528 11.9555 28.9291 11.9469C28.7053 11.9382 28.4866 12.0143 28.3166 12.16L20.9477 19.5288L13.5788 12.1511C13.4114 11.9837 13.1844 11.8896 12.9477 11.8896C12.711 11.8896 12.4839 11.9837 12.3166 12.1511C12.1492 12.3184 12.0551 12.5455 12.0551 12.7822C12.0551 13.0189 12.1492 13.2459 12.3166 13.4133L19.6943 20.7822L12.3166 28.1511C12.2235 28.2308 12.1479 28.3288 12.0946 28.4391C12.0412 28.5494 12.0113 28.6695 12.0065 28.7919C12.0018 28.9143 12.0224 29.0364 12.0671 29.1505C12.1118 29.2645 12.1796 29.3681 12.2662 29.4548C12.3528 29.5414 12.4564 29.6092 12.5705 29.6539C12.6846 29.6985 12.8066 29.7192 12.9291 29.7144C13.0515 29.7097 13.1716 29.6797 13.2819 29.6264C13.3922 29.573 13.4902 29.4974 13.5699 29.4044L20.9477 22.0355L28.3166 29.4044C28.4866 29.55 28.7053 29.6261 28.9291 29.6175C29.1528 29.6088 29.365 29.5161 29.5233 29.3578C29.6816 29.1995 29.7743 28.9873 29.783 28.7636C29.7916 28.5398 29.7155 28.3211 29.5699 28.1511L22.201 20.7822Z" fill="white"/>
</svg>
