<svg width="33" height="33" viewBox="0 0 33 33" fill="none" xmlns="http://www.w3.org/2000/svg">
<g clip-path="url(#clip0_297_73957)">
<path d="M18.2147 16.5019L25.5836 9.13301C25.7292 8.96297 25.8053 8.74423 25.7966 8.52052C25.788 8.29681 25.6953 8.0846 25.537 7.92629C25.3787 7.76798 25.1664 7.67524 24.9427 7.6666C24.719 7.65796 24.5003 7.73406 24.3302 7.87968L16.9613 15.2486L9.59246 7.87079C9.42508 7.70341 9.19806 7.60938 8.96135 7.60938C8.72464 7.60938 8.49762 7.70341 8.33024 7.87079C8.16286 8.03817 8.06882 8.26519 8.06882 8.5019C8.06882 8.73861 8.16286 8.96563 8.33024 9.13301L15.708 16.5019L8.33024 23.8708C8.23719 23.9505 8.16161 24.0485 8.10826 24.1588C8.0549 24.2691 8.02492 24.3892 8.02019 24.5116C8.01547 24.634 8.03609 24.7561 8.08078 24.8702C8.12547 24.9843 8.19325 25.0879 8.27988 25.1745C8.36651 25.2611 8.4701 25.3289 8.58417 25.3736C8.69824 25.4183 8.82031 25.4389 8.94273 25.4342C9.06515 25.4294 9.18526 25.3995 9.29554 25.3461C9.40582 25.2927 9.50388 25.2172 9.58357 25.1241L16.9613 17.7552L24.3302 25.1241C24.5003 25.2697 24.719 25.3458 24.9427 25.3372C25.1664 25.3286 25.3787 25.2358 25.537 25.0775C25.6953 24.9192 25.788 24.707 25.7966 24.4833C25.8053 24.2596 25.7292 24.0408 25.5836 23.8708L18.2147 16.5019Z" fill="#1A1A1A"/>
</g>
<defs>
<clipPath id="clip0_297_73957">
<rect width="32" height="32" fill="white" transform="translate(0.960938 0.5)"/>
</clipPath>
</defs>
</svg>
