<svg width="36" height="37" viewBox="0 0 36 37" fill="none" xmlns="http://www.w3.org/2000/svg">
<circle cx="18" cy="18.7266" r="18" fill="#EFFBFB"/>
<g clip-path="url(#clip0_297_73429)">
<path d="M23.4775 19.7723C23.4775 21.4008 23.4804 23.0293 23.4752 24.6579C23.4765 24.9926 23.457 25.3269 23.417 25.6593C23.397 25.8583 23.3333 26.0504 23.2306 26.222C22.9289 26.6792 22.4663 27.0478 21.9121 27.1635C21.4663 27.265 21.0124 27.3264 20.5557 27.347C19.0155 27.3865 17.4745 27.3979 15.9337 27.4087C15.6225 27.4108 15.3105 27.3663 14.9994 27.3374C14.132 27.2569 13.6793 26.6907 13.4399 25.934C13.3205 25.5563 13.298 25.1463 13.2481 24.7489C13.0738 23.3606 13.1118 21.9657 13.1295 20.5715C13.144 19.4227 13.1562 18.2739 13.1659 17.1251C13.1756 15.8089 13.1653 14.4923 13.1932 13.1766C13.2032 12.7315 13.2621 12.2888 13.3689 11.8565C13.5664 11.0579 14.1228 10.6469 14.9234 10.4856C16.7826 10.1112 18.6547 10.1615 20.5302 10.2598C21.194 10.2946 21.7888 10.5317 22.3422 10.8906C22.7334 11.1406 23.0212 11.5233 23.1528 11.9684C23.2594 12.3316 23.3251 12.7057 23.3486 13.0835C23.4113 14.2748 23.4556 15.4671 23.4817 16.6603C23.5029 17.6972 23.4861 18.7349 23.4861 19.7723H23.4775ZM14.3022 23.8223C17.0376 23.5807 19.7845 23.4961 22.5296 23.5692C22.5375 23.4294 22.5485 23.3203 22.5492 23.2112C22.5662 20.568 22.5157 17.8577 22.5299 15.2143C22.531 15.0807 22.5221 14.9472 22.5031 14.815C22.4138 14.2091 22.3932 13.6698 22.2901 13.0663C22.2428 12.8045 22.1785 12.546 22.0976 12.2926C22.0561 12.1593 21.9853 12.0369 21.8904 11.9345C21.7955 11.832 21.6789 11.752 21.5491 11.7004C21.1736 11.5265 20.7661 11.432 20.3523 11.423C19.9169 11.415 19.4807 11.4202 19.0462 11.4C17.7348 11.3389 16.438 11.4555 15.1459 11.6739C14.7346 11.7434 14.5098 11.9664 14.4229 12.3526C14.3878 12.5046 14.3653 12.6593 14.3558 12.8151C14.3399 13.1045 14.3342 13.3946 14.3322 13.6844C14.3154 16.1378 14.2995 18.5913 14.2845 21.0449C14.2798 21.7587 14.2695 22.4723 14.2677 23.186C14.2677 23.3832 14.2886 23.5804 14.3022 23.8223ZM22.4834 24.3391L14.3401 24.4351C14.3933 24.9446 14.3686 25.4143 14.5132 25.8612C14.6243 26.2044 14.8623 26.4233 15.2502 26.4298C15.3952 26.4323 15.54 26.4438 15.685 26.4444C16.1537 26.4461 16.6224 26.4452 17.0911 26.4444C18.3521 26.4426 19.6133 26.4497 20.874 26.4321C21.2077 26.4252 21.5393 26.378 21.8616 26.2913C22.1586 26.213 22.4391 26.0255 22.4726 25.6967C22.5163 25.2685 22.4834 24.8327 22.4834 24.3392V24.3391Z" fill="#00426A"/>
<path d="M19.1341 25.3266C19.1331 25.6842 18.7944 25.9951 18.3977 26.0025C18.311 26.0048 18.2248 25.9896 18.1442 25.9576C18.0637 25.9257 17.9904 25.8778 17.9288 25.8168C17.8672 25.7558 17.8185 25.683 17.7858 25.6028C17.7531 25.5225 17.737 25.4365 17.7384 25.3498C17.7443 25.1642 17.8204 24.9876 17.9513 24.8559C18.0822 24.7241 18.2583 24.6468 18.4439 24.6397C18.7919 24.6352 19.1349 24.9768 19.1341 25.3266Z" fill="#00426A"/>
</g>
<defs>
<clipPath id="clip0_297_73429">
<rect width="10.5629" height="17.2941" fill="white" transform="translate(13 10.1489)"/>
</clipPath>
</defs>
</svg>
