<svg width="360" height="273" viewBox="0 0 360 273" fill="none" xmlns="http://www.w3.org/2000/svg">
<g clip-path="url(#clip0_581_26782)">
<path d="M239.973 169.054C239.906 169.277 239.839 169.478 239.772 169.702C239.348 171.065 238.923 172.405 238.432 173.723C237.337 176.315 235.974 181.476 234.477 186.815C233.852 189.027 233.226 191.261 232.578 193.339C231.394 197.137 230.188 200.443 229.048 202.186C226.501 206.051 223.887 209.223 221.095 211.86C214.147 218.45 206.126 221.69 195.38 224.192C190.644 225.287 185.394 224.527 180.97 225.376C172.704 226.962 162.293 228.437 153.468 226.314C151.39 225.823 149.38 225.13 147.525 224.17C137.36 219.031 127.552 199.483 123.352 187.396C123.129 186.748 122.928 186.145 122.727 185.542C122.436 184.603 122.235 183.643 122.123 182.66C121.632 178.482 122.57 174.036 122.525 169.881C122.525 168.607 122.503 167.311 122.525 166.016C122.525 165.837 122.525 165.636 122.525 165.457C122.548 159.336 122.727 153.214 123.218 147.093C123.218 146.981 123.24 146.892 123.24 146.78C123.285 146.132 123.33 145.484 123.397 144.836C124.067 136.838 125.072 127.902 128.021 120.216C128.647 118.585 130.077 115.681 131.507 113.112C132.512 111.28 133.517 109.604 134.188 108.621L143.772 108.777L206.26 109.85L211.622 109.939L219.777 110.073L221.184 110.096C221.184 110.096 223.016 115.435 224.692 120.306C225.786 123.456 227.127 127.388 228.579 131.767C229.316 133.934 230.054 136.212 230.836 138.581C230.858 138.648 230.88 138.737 230.903 138.804C233.919 148.098 237.158 158.531 239.616 167.758C239.75 168.227 239.861 168.652 239.973 169.054Z" fill="#FCEBDB"/>
<path d="M239.971 169.054C239.904 169.278 239.837 169.479 239.77 169.702C239.345 171.042 238.921 172.405 238.429 173.723C237.334 176.315 235.972 181.476 234.475 186.793C233.827 186.793 233.201 186.748 232.62 186.659C229.202 186.1 226.946 183.956 225.427 181.029C222.209 174.908 222.165 165.39 221.182 160.207C221.159 160.118 221.137 160.006 221.115 159.917C221.092 159.827 221.07 159.738 221.048 159.626C221.025 159.537 221.003 159.447 220.981 159.358C220.958 159.224 220.914 159.112 220.869 159.001C220.78 158.665 220.668 158.353 220.534 158.062C220.489 157.928 220.422 157.794 220.355 157.682C220.31 157.548 220.243 157.437 220.176 157.303C220.154 157.258 220.132 157.191 220.087 157.146C220.042 157.035 219.975 156.945 219.908 156.833C219.841 156.699 219.752 156.565 219.662 156.454C216.423 151.539 209.453 150.891 204.895 133.978C202.035 123.322 206.593 115.257 211.597 110.006L219.752 110.14L221.159 110.163C221.159 110.163 222.991 115.502 224.689 120.373C225.784 123.523 227.124 127.455 228.577 131.834C229.292 134.001 230.051 136.28 230.833 138.648C230.855 138.715 230.878 138.804 230.9 138.871C233.916 148.165 237.156 158.598 239.613 167.825C239.747 168.227 239.859 168.652 239.971 169.054Z" fill="#D88223"/>
<path d="M239.97 169.054C239.903 169.277 239.836 169.478 239.769 169.702C239.345 171.042 238.92 172.405 238.429 173.723C237.334 176.315 235.971 181.476 234.474 186.793C233.826 186.793 233.201 186.748 232.62 186.659C229.202 186.1 226.945 183.955 225.426 181.029C222.209 174.907 222.164 165.39 221.181 160.207C221.159 160.117 221.137 160.006 221.114 159.916C221.092 159.827 221.07 159.738 221.047 159.626C221.025 159.536 221.003 159.447 220.98 159.358C220.958 159.224 220.913 159.112 220.869 159C220.779 158.665 220.667 158.352 220.533 158.062C220.489 157.928 220.422 157.794 220.355 157.682C220.31 157.548 220.243 157.436 220.176 157.302C220.154 157.258 220.131 157.191 220.087 157.146C220.042 157.034 219.975 156.945 219.908 156.833C219.841 156.699 219.751 156.565 219.662 156.453C220.958 150.175 222.209 143.853 224.13 137.731C224.823 136.592 225.56 135.453 226.342 134.358C227.057 133.487 227.817 132.638 228.576 131.811C229.291 133.978 230.051 136.257 230.833 138.625C230.855 138.692 230.877 138.781 230.9 138.849C233.916 148.142 237.155 158.576 239.613 167.803C239.747 168.227 239.859 168.652 239.97 169.054Z" fill="#51493C"/>
<path d="M144.419 109.671C144.285 110.364 144.218 111.101 144.218 111.839C144.218 116.977 144.017 122.138 143.436 127.254C142.609 132.482 141.291 137.598 139.37 142.535C138.431 144.613 137.404 146.646 136.108 148.523C134.544 150.355 132.869 152.075 131.238 153.862C131.081 154.041 130.902 154.22 130.746 154.399C127.909 157.482 125.317 160.855 123.15 164.452C122.949 164.81 122.748 165.145 122.547 165.502C122.569 159.381 122.748 153.259 123.239 147.138C123.239 147.026 123.262 146.937 123.262 146.825C123.306 146.177 123.351 145.529 123.418 144.881C123.351 144.837 123.284 144.814 123.239 144.77C124.334 131.32 126.881 119.904 131.528 113.179C132.533 111.347 133.539 109.671 134.209 108.688L143.793 108.845C143.994 109.113 144.218 109.403 144.419 109.671Z" fill="#D88223"/>
<path d="M131.259 153.863C131.103 154.041 130.924 154.22 130.768 154.399C127.93 157.482 125.339 160.855 123.172 164.452C122.971 164.81 122.769 165.145 122.568 165.502C122.591 159.381 122.769 153.259 123.261 147.138C123.261 147.026 123.283 146.937 123.283 146.825C123.328 146.177 123.373 145.529 123.44 144.881C126.366 146.736 129.472 149.573 131.259 153.863Z" fill="#51493C"/>
<path d="M224.734 120.372C223.036 115.502 221.137 109.403 221.137 109.403L135.391 106.655C133.716 109.001 129.113 117.468 128.041 120.261C130.7 121.936 134.833 124.237 140.217 126.471C140.239 126.516 156.638 152.745 167.116 152.231C177.594 151.717 205.453 128.571 205.587 128.46C211.731 126.494 218.121 123.835 224.734 120.372Z" fill="#EAD9CA"/>
<path d="M235.996 90.86C232.243 100.243 222.301 114.139 204.54 122.026C203.892 122.316 203.244 122.584 202.574 122.853C183.584 130.538 171.832 127.41 159.969 124.014C156.618 123.054 148.128 120.529 140.778 115.234C139.594 114.385 138.432 113.469 137.337 112.464C133.048 108.554 123.575 91.3291 122.86 84.4257C122.145 77.5223 125.631 63.492 125.631 63.492C127.217 7.23689 162.471 2.25479 162.471 2.25479C175.161 -3.01773 194.062 2.12075 206.506 5.91875C221.072 10.3646 234.767 19.9267 237.024 24.7971C245.446 42.9828 239.883 81.1639 235.996 90.86Z" fill="#D88223"/>
<path d="M199.109 75.937C198.573 75.2221 188.966 51.8756 188.966 51.8756L176.388 49.9766L153.891 72.8539L199.109 75.937Z" fill="#FCEBDB"/>
<path d="M177.239 82.2142C172.815 81.4322 170.514 75.0873 172.011 68.6978L180.88 30.8741C181.551 27.9921 184.254 26.1601 186.912 26.6293C189.571 27.0984 191.492 29.7347 191.157 32.6614L186.734 71.267C185.974 77.7906 181.685 82.9961 177.239 82.2142Z" fill="#FCEBDB"/>
<path d="M204.539 122.027C203.891 122.317 203.243 122.585 202.573 122.853C183.583 130.539 171.832 127.411 159.968 124.015C156.617 123.054 148.128 120.53 140.777 115.235C138.811 111.839 137.426 107.862 136.756 103.238C136.756 103.238 143.212 81.5222 147.837 77.2774C152.462 73.0325 177.082 55.9862 192.654 68.9888C208.047 81.835 213.364 108.98 204.539 122.027Z" fill="#FCEBDB"/>
<path d="M171.474 96.6018C171.474 96.6018 161.442 87.7324 161.755 85.5653C162.046 83.3982 161.107 72.0488 169.441 71.5127C177.774 70.9765 194.038 74.8638 194.463 82.9737C194.887 91.0835 189.592 94.6134 189.592 94.6134C189.592 94.6134 175.115 100.333 171.474 96.6018Z" fill="#341523"/>
<path d="M231.237 18.5415C231.237 18.5415 234.901 34.9846 235.08 39.1848C235.281 43.3849 237.582 51.8075 235.08 58.4205C232.578 65.0335 229.696 81.8788 229.294 89.4971C228.914 97.1155 227.551 100.511 227.551 104.935C227.551 109.336 224.669 112.352 228.512 119.568C232.355 126.785 239.303 132.794 243.927 131.387C248.552 129.979 250.093 125.98 250.473 121.155C250.853 116.351 271.094 106.521 269.932 92.4909C268.815 78.4829 252.819 33.175 231.237 18.5415Z" fill="#BB6B0B"/>
<path d="M147.056 91.4399C146.877 93.0931 146.989 94.8581 147.436 96.556C147.905 98.2539 148.731 99.8625 149.983 101.136C150.72 101.873 151.524 102.432 152.395 102.856C153.401 103.348 154.473 103.66 155.568 103.839C157.221 104.107 158.919 104.107 160.572 104.04C162.226 103.973 163.834 103.817 165.264 103.75C167.855 103.638 170.469 103.549 173.061 103.437C173.53 103.415 173.888 103.035 173.865 102.566C173.843 102.097 173.463 101.739 172.994 101.761C170.402 101.873 167.788 101.963 165.197 102.074C163.186 102.164 161.019 102.409 158.897 102.409C157.847 102.409 156.819 102.342 155.836 102.186C154.853 102.03 153.937 101.761 153.11 101.337C152.395 100.98 151.725 100.533 151.144 99.9295C150.117 98.9018 149.424 97.539 149.022 96.0868C148.62 94.6123 148.53 93.0484 148.687 91.5963C148.731 91.1494 148.419 90.7249 147.949 90.6803C147.525 90.6356 147.101 90.9707 147.056 91.4399Z" fill="#341523"/>
<path d="M199.737 102.231C199.536 102.924 199.267 103.616 198.955 104.309C198.463 105.337 197.793 106.297 197.033 107.079C196.251 107.884 195.358 108.531 194.375 108.934C193.615 109.246 192.856 109.403 192.074 109.447C190.912 109.514 189.705 109.313 188.477 108.934C187.248 108.554 185.997 108.018 184.79 107.414C183.472 106.767 182.176 106.074 180.948 105.448C180.858 105.404 180.747 105.359 180.657 105.314C178.289 104.175 175.943 103.036 173.575 101.896C173.151 101.695 172.659 101.874 172.458 102.276C172.257 102.7 172.436 103.192 172.838 103.393C175.206 104.532 177.552 105.672 179.92 106.811C180.009 106.856 180.099 106.901 180.188 106.945C181.394 107.526 182.69 108.241 184.031 108.911C185.706 109.738 187.494 110.498 189.348 110.9C190.264 111.101 191.202 111.19 192.163 111.145C193.101 111.101 194.062 110.9 195 110.52C196.251 110.006 197.324 109.224 198.24 108.286C199.156 107.347 199.893 106.253 200.452 105.091C200.831 104.331 201.122 103.527 201.345 102.745C201.479 102.298 201.211 101.851 200.764 101.717C200.317 101.539 199.848 101.784 199.737 102.231Z" fill="#341523"/>
<path d="M173.308 97.2482L172.347 102.454C172.258 102.901 172.571 103.347 173.018 103.437C173.464 103.526 173.911 103.213 174.001 102.766L174.961 97.561C175.051 97.1142 174.738 96.6673 174.291 96.578C173.844 96.5109 173.397 96.8014 173.308 97.2482Z" fill="#341523"/>
<path d="M162.896 103.861L182.065 107.861L173.017 102.878L162.896 103.861Z" fill="#341523"/>
<path d="M160.862 63.5148C159.902 61.303 158.159 59.8732 156.193 58.8678C154.249 57.8625 152.172 57.0805 150.004 56.7007C149.468 56.589 148.932 56.5443 148.396 56.4773L147.592 56.3879C147.323 56.3656 147.055 56.3656 146.787 56.3656L145.156 56.3433L143.548 56.4996L142.744 56.589C142.475 56.6337 142.23 56.6784 141.962 56.7454L140.398 57.0805C139.37 57.3486 138.387 57.7284 137.404 58.0635C136.912 58.2423 136.644 58.7784 136.823 59.27C136.98 59.6944 137.382 59.9402 137.806 59.8955H137.918C138.901 59.8061 139.862 59.6498 140.822 59.5604L142.274 59.4934L142.989 59.4487L143.704 59.471C145.603 59.4487 147.48 59.7615 149.29 60.1413L150.63 60.5211L151.926 60.9902C152.797 61.3253 153.624 61.7052 154.428 62.152C155.232 62.5988 156.014 63.068 156.841 63.4924C157.645 63.9393 158.516 64.4084 159.388 64.7435L159.566 64.8106C160.058 65.0116 160.639 64.7659 160.84 64.252C160.974 64.0063 160.952 63.7382 160.862 63.5148Z" fill="#341523"/>
<path d="M201.501 72.3385C203.087 70.5289 205.209 69.7022 207.376 69.3448C209.543 68.9873 211.755 68.8756 213.922 69.1884C214.458 69.2331 214.995 69.3671 215.531 69.4565L216.335 69.6352C216.603 69.7022 216.849 69.7916 217.117 69.8586L218.659 70.3501L220.133 70.998L220.87 71.3108C221.116 71.4225 221.339 71.5566 221.563 71.6906L222.948 72.4949C223.842 73.0534 224.668 73.7237 225.495 74.3492C225.919 74.662 225.986 75.2652 225.674 75.6673C225.406 76.0248 224.936 76.1365 224.557 75.9578L224.445 75.9131C223.529 75.5333 222.658 75.0865 221.764 74.7067L220.401 74.1928L219.731 73.9247L219.038 73.7237C217.229 73.0981 215.352 72.83 213.52 72.6513L212.135 72.5843L210.75 72.6289C209.834 72.6736 208.918 72.7853 208.002 72.9641C207.086 73.1428 206.215 73.3439 205.276 73.5002C204.383 73.679 203.4 73.8577 202.461 73.9247L202.26 73.9471C201.724 73.9918 201.255 73.5673 201.232 73.0311C201.255 72.763 201.344 72.5172 201.501 72.3385Z" fill="#341523"/>
<path d="M148.887 21.7813C148.887 21.7813 139.169 35.4318 138.722 45.3959C138.297 55.3378 140.196 64.6317 136.801 72.8756C133.405 81.0972 131.014 98.3669 124.602 103.662C118.19 108.957 104.629 111.258 102.842 100.467C101.055 89.6762 96.2512 49.9535 101.122 43.631C105.992 37.3308 107.31 34.7168 110.996 31.3657C114.683 28.0145 136.13 14.6098 138.923 13.0012C141.716 11.3926 155.791 1.74124 155.679 5.29349C155.545 8.8234 148.887 21.7813 148.887 21.7813Z" fill="#BB6B0B"/>
</g>
<rect x="-40.8848" y="152.875" width="425.843" height="662.025" rx="212.922" fill="#F7FDFD"/>
<rect x="-11.6623" y="160.478" width="391.991" height="610.022" rx="195.996" stroke="#005C94" stroke-width="1.15974"/>
<defs>
<clipPath id="clip0_581_26782">
<rect width="170.999" height="227.389" fill="white" transform="translate(99 -0.000488281)"/>
</clipPath>
</defs>
</svg>
