<svg width="180" height="189" viewBox="0 0 180 189" fill="none" xmlns="http://www.w3.org/2000/svg">
<mask id="mask0_581_27708" style="mask-type:alpha" maskUnits="userSpaceOnUse" x="0" y="0" width="180" height="180">
<circle cx="89.8775" cy="89.8775" r="89.8775" fill="#D9D9D9"/>
</mask>
<g mask="url(#mask0_581_27708)">
<rect width="192.595" height="213.742" transform="translate(-6.04297 -8.30859)" fill="#AEDCE0"/>
<g clip-path="url(#clip0_581_27708)">
<path d="M135.927 161.671C135.877 161.839 135.826 161.991 135.775 162.16C135.455 163.189 135.134 164.202 134.763 165.197C133.936 167.155 132.907 171.052 131.776 175.085C131.304 176.756 130.831 178.443 130.342 180.012C129.448 182.881 128.536 185.378 127.676 186.694C125.752 189.614 123.778 192.01 121.669 194.001C116.421 198.978 110.364 201.425 102.247 203.315C98.67 204.142 94.7047 203.568 91.3637 204.209C85.1205 205.407 77.2573 206.521 70.5922 204.918C69.023 204.547 67.5043 204.024 66.1038 203.298C58.4263 199.417 51.0187 184.653 47.8465 175.524C47.6777 175.035 47.5259 174.579 47.374 174.123C47.1547 173.415 47.0028 172.689 46.9184 171.947C46.5472 168.791 47.2559 165.434 47.2222 162.295C47.2222 161.333 47.2053 160.355 47.2222 159.376C47.2222 159.241 47.2222 159.089 47.2222 158.954C47.239 154.331 47.374 149.707 47.7452 145.084C47.7452 144.999 47.7621 144.932 47.7621 144.848C47.7959 144.358 47.8296 143.869 47.8802 143.38C48.3864 137.339 49.1458 130.589 51.3731 124.785C51.8455 123.553 52.9255 121.359 54.0054 119.419C54.7647 118.035 55.524 116.77 56.0302 116.027L63.269 116.145L110.465 116.955L114.514 117.023L120.673 117.124L121.736 117.141C121.736 117.141 123.12 121.174 124.386 124.852C125.212 127.231 126.225 130.201 127.322 133.508C127.878 135.145 128.435 136.866 129.026 138.655C129.043 138.706 129.06 138.773 129.076 138.824C131.354 145.843 133.801 153.723 135.657 160.692C135.758 161.046 135.843 161.367 135.927 161.671Z" fill="#FCEBDB"/>
<path d="M135.928 161.671C135.877 161.84 135.827 161.992 135.776 162.161C135.455 163.173 135.135 164.202 134.764 165.198C133.937 167.155 132.907 171.053 131.777 175.069C131.288 175.069 130.815 175.035 130.376 174.968C127.795 174.546 126.09 172.926 124.943 170.716C122.513 166.092 122.48 158.904 121.737 154.989C121.72 154.922 121.703 154.838 121.686 154.77C121.67 154.703 121.653 154.635 121.636 154.551C121.619 154.483 121.602 154.416 121.585 154.348C121.568 154.247 121.535 154.163 121.501 154.078C121.433 153.825 121.349 153.589 121.248 153.37C121.214 153.268 121.163 153.167 121.113 153.083C121.079 152.981 121.028 152.897 120.978 152.796C120.961 152.762 120.944 152.711 120.91 152.678C120.876 152.593 120.826 152.526 120.775 152.441C120.725 152.34 120.657 152.239 120.59 152.155C118.143 148.442 112.878 147.953 109.436 135.18C107.276 127.131 110.719 121.04 114.498 117.074L120.657 117.175L121.72 117.192C121.72 117.192 123.104 121.225 124.386 124.904C125.213 127.283 126.225 130.253 127.322 133.56C127.862 135.197 128.436 136.918 129.026 138.706C129.043 138.757 129.06 138.824 129.077 138.875C131.355 145.894 133.802 153.775 135.658 160.743C135.759 161.047 135.843 161.368 135.928 161.671Z" fill="#D88223"/>
<path d="M135.928 161.671C135.877 161.84 135.827 161.992 135.776 162.161C135.456 163.173 135.135 164.202 134.764 165.198C133.937 167.155 132.908 171.053 131.777 175.069C131.288 175.069 130.815 175.035 130.377 174.968C127.795 174.546 126.091 172.926 124.943 170.716C122.513 166.092 122.48 158.904 121.737 154.989C121.72 154.922 121.704 154.838 121.687 154.77C121.67 154.703 121.653 154.635 121.636 154.551C121.619 154.483 121.602 154.416 121.585 154.348C121.569 154.247 121.535 154.163 121.501 154.078C121.434 153.825 121.349 153.589 121.248 153.37C121.214 153.268 121.164 153.167 121.113 153.083C121.079 152.981 121.029 152.897 120.978 152.796C120.961 152.762 120.944 152.711 120.91 152.678C120.877 152.593 120.826 152.526 120.775 152.442C120.725 152.34 120.657 152.239 120.59 152.155C121.569 147.413 122.513 142.638 123.965 138.014C124.488 137.154 125.045 136.293 125.635 135.467C126.175 134.809 126.749 134.167 127.322 133.543C127.862 135.18 128.436 136.901 129.027 138.689C129.044 138.74 129.06 138.808 129.077 138.858C131.355 145.878 133.802 153.758 135.658 160.726C135.759 161.047 135.844 161.368 135.928 161.671Z" fill="#51493C"/>
<path d="M63.7596 116.819C63.6583 117.342 63.6077 117.899 63.6077 118.455C63.6077 122.336 63.4559 126.234 63.0171 130.098C62.3928 134.047 61.3973 137.911 59.9461 141.64C59.2374 143.209 58.4612 144.745 57.4826 146.162C56.3014 147.546 55.0359 148.845 53.8041 150.195C53.686 150.33 53.551 150.465 53.4329 150.6C51.2899 152.928 49.3326 155.476 47.6958 158.193C47.544 158.463 47.3921 158.716 47.2402 158.986C47.2571 154.363 47.3921 149.739 47.7633 145.116C47.7633 145.031 47.7802 144.964 47.7802 144.88C47.8139 144.39 47.8477 143.901 47.8983 143.412C47.8477 143.378 47.7971 143.361 47.7633 143.327C48.5901 133.169 50.5137 124.547 54.0235 119.468C54.7828 118.084 55.5421 116.819 56.0483 116.076L63.2871 116.194C63.439 116.397 63.6077 116.616 63.7596 116.819Z" fill="#D88223"/>
<path d="M53.8197 150.195C53.7016 150.33 53.5666 150.465 53.4485 150.6C51.3055 152.929 49.3482 155.477 47.7114 158.193C47.5596 158.463 47.4077 158.717 47.2559 158.987C47.2727 154.363 47.4077 149.74 47.7789 145.116C47.7789 145.032 47.7958 144.964 47.7958 144.88C47.8296 144.391 47.8633 143.901 47.9139 143.412C50.1244 144.813 52.4698 146.956 53.8197 150.195Z" fill="#51493C"/>
<path d="M124.42 124.901C123.138 121.223 121.703 116.616 121.703 116.616L56.9421 114.541C55.6765 116.313 52.2006 122.708 51.3906 124.817C53.3986 126.083 56.5202 127.821 60.5868 129.508C60.6037 129.542 72.989 149.351 80.9027 148.963C88.8165 148.575 109.858 131.094 109.959 131.01C114.599 129.525 119.425 127.517 124.42 124.901Z" fill="#EAD9CA"/>
<path d="M132.924 102.612C130.089 109.699 122.58 120.195 109.166 126.151C108.676 126.371 108.187 126.573 107.681 126.776C93.3381 132.58 84.4625 130.218 75.5026 127.653C72.9715 126.927 66.5595 125.021 61.0081 121.022C60.1137 120.38 59.2363 119.689 58.4095 118.929C55.1698 115.976 48.0153 102.967 47.4754 97.7528C46.9354 92.5389 49.5677 81.9422 49.5677 81.9422C50.7657 39.4542 77.3924 35.6914 77.3924 35.6914C86.9767 31.7092 101.252 35.5901 110.65 38.4587C121.652 41.8165 131.996 49.0385 133.7 52.7169C140.061 66.4521 135.86 95.2893 132.924 102.612Z" fill="#D88223"/>
<path d="M105.066 91.3397C104.661 90.7997 97.4058 73.1667 97.4058 73.1667L87.9059 71.7324L70.9141 89.0111L105.066 91.3397Z" fill="#FCEBDB"/>
<path d="M88.5489 96.0819C85.2079 95.4913 83.4699 90.6992 84.6004 85.8733L91.2993 57.3062C91.8055 55.1294 93.8472 53.7458 95.8552 54.1002C97.8631 54.4545 99.3143 56.4456 99.0612 58.656L95.7202 87.8138C95.1465 92.7409 91.9067 96.6725 88.5489 96.0819Z" fill="#FCEBDB"/>
<path d="M109.167 126.151C108.678 126.371 108.189 126.573 107.683 126.776C93.3399 132.58 84.4644 130.218 75.5044 127.653C72.9734 126.928 66.5614 125.021 61.0099 121.022C59.525 118.457 58.4789 115.454 57.9727 111.961C57.9727 111.961 62.8492 95.5595 66.342 92.3535C69.8349 89.1475 88.4297 76.2728 100.191 86.0933C111.817 95.7957 115.833 116.297 109.167 126.151Z" fill="#FCEBDB"/>
<path d="M84.1931 106.949C84.1931 106.949 76.6168 100.25 76.8531 98.6133C77.0724 96.9765 76.3637 88.4047 82.6576 87.9997C88.9515 87.5948 101.236 90.5308 101.556 96.6559C101.877 102.781 97.8777 105.447 97.8777 105.447C97.8777 105.447 86.9435 109.767 84.1931 106.949Z" fill="#341523"/>
<path d="M129.331 47.9922C129.331 47.9922 132.099 60.4112 132.234 63.5835C132.386 66.7557 134.124 73.1171 132.234 78.1117C130.344 83.1063 128.167 95.8291 127.863 101.583C127.577 107.337 126.547 109.902 126.547 113.243C126.547 116.567 124.371 118.845 127.273 124.295C130.175 129.745 135.423 134.284 138.916 133.221C142.409 132.158 143.573 129.138 143.86 125.493C144.147 121.865 159.434 114.441 158.557 103.844C157.713 93.2643 145.631 59.0445 129.331 47.9922Z" fill="#BB6B0B"/>
<path d="M65.7508 103.049C65.6158 104.298 65.7002 105.631 66.0377 106.913C66.392 108.196 67.0163 109.411 67.9613 110.373C68.5181 110.929 69.1255 111.351 69.7836 111.672C70.5429 112.043 71.3529 112.279 72.1797 112.414C73.4283 112.617 74.7107 112.617 75.9594 112.566C77.208 112.516 78.423 112.397 79.5029 112.347C81.4602 112.262 83.4344 112.195 85.3918 112.111C85.7461 112.094 86.0161 111.807 85.9992 111.452C85.9824 111.098 85.6955 110.828 85.3412 110.845C83.3838 110.929 81.4096 110.997 79.4522 111.081C77.9336 111.149 76.2969 111.334 74.6939 111.334C73.9008 111.334 73.1246 111.284 72.3822 111.166C71.6397 111.048 70.9479 110.845 70.3236 110.524C69.7836 110.254 69.2774 109.917 68.8387 109.461C68.0625 108.685 67.5394 107.656 67.2357 106.559C66.932 105.445 66.8645 104.264 66.9826 103.167C67.0163 102.83 66.7801 102.509 66.4258 102.476C66.1052 102.442 65.7846 102.695 65.7508 103.049Z" fill="#341523"/>
<path d="M105.539 111.2C105.387 111.723 105.184 112.246 104.948 112.769C104.577 113.545 104.071 114.271 103.497 114.862C102.906 115.469 102.231 115.958 101.489 116.262C100.915 116.498 100.341 116.616 99.7508 116.65C98.8734 116.701 97.9622 116.549 97.0342 116.262C96.1061 115.975 95.1612 115.57 94.25 115.115C93.2545 114.625 92.2758 114.102 91.3477 113.63C91.2802 113.596 91.1959 113.562 91.1284 113.529C89.3398 112.668 87.568 111.807 85.7794 110.947C85.4588 110.795 85.0876 110.93 84.9357 111.234C84.7839 111.554 84.9189 111.926 85.2226 112.077C87.0112 112.938 88.7829 113.799 90.5716 114.659C90.6391 114.693 90.7065 114.727 90.774 114.76C91.6852 115.199 92.6639 115.739 93.6763 116.245C94.9418 116.87 96.2917 117.443 97.6923 117.747C98.3841 117.899 99.0928 117.966 99.8183 117.933C100.527 117.899 101.253 117.747 101.961 117.46C102.906 117.072 103.716 116.481 104.408 115.773C105.1 115.064 105.657 114.237 106.078 113.36C106.365 112.786 106.585 112.179 106.753 111.588C106.855 111.251 106.652 110.913 106.315 110.812C105.977 110.677 105.623 110.863 105.539 111.2Z" fill="#341523"/>
<path d="M85.577 107.437L84.8514 111.369C84.7839 111.706 85.0201 112.044 85.3576 112.111C85.6951 112.179 86.0326 111.943 86.1 111.605L86.8256 107.674C86.8931 107.336 86.6569 106.999 86.3194 106.931C85.9819 106.88 85.6445 107.1 85.577 107.437Z" fill="#341523"/>
<path d="M77.7148 112.432L92.1925 115.452L85.3586 111.689L77.7148 112.432Z" fill="#341523"/>
<path d="M76.1785 81.9614C75.453 80.2909 74.1368 79.211 72.6519 78.4516C71.1839 77.6923 69.6147 77.1018 67.9779 76.8149C67.5729 76.7305 67.168 76.6968 66.763 76.6462L66.1555 76.5787C65.9531 76.5618 65.7506 76.5618 65.5481 76.5618L64.3163 76.5449L63.1014 76.663L62.494 76.7305C62.2915 76.7643 62.1059 76.798 61.9034 76.8486L60.7222 77.1018C59.946 77.3042 59.2036 77.5911 58.4611 77.8442C58.0899 77.9792 57.8874 78.3842 58.0224 78.7554C58.1405 79.076 58.4443 79.2616 58.7649 79.2278H58.8492C59.5917 79.1603 60.3172 79.0422 61.0428 78.9747L62.1396 78.9241L62.6796 78.8904L63.2195 78.9072C64.6538 78.8904 66.0712 79.1266 67.438 79.4135L68.4504 79.7003L69.429 80.0547C70.0871 80.3078 70.7114 80.5946 71.3189 80.9321C71.9264 81.2696 72.5169 81.6239 73.1413 81.9445C73.7487 82.282 74.4068 82.6363 75.0649 82.8894L75.1999 82.9401C75.5711 83.0919 76.0098 82.9063 76.1616 82.5182C76.2629 82.3326 76.246 82.1301 76.1785 81.9614Z" fill="#341523"/>
<path d="M106.872 88.6248C108.07 87.2581 109.673 86.6337 111.31 86.3638C112.947 86.0938 114.617 86.0094 116.254 86.2457C116.659 86.2794 117.064 86.3806 117.469 86.4481L118.077 86.5831C118.279 86.6338 118.465 86.7012 118.667 86.7519L119.831 87.1231L120.945 87.6124L121.502 87.8487C121.688 87.933 121.856 88.0343 122.025 88.1355L123.071 88.743C123.746 89.1648 124.37 89.671 124.995 90.1435C125.315 90.3797 125.366 90.8353 125.13 91.139C124.927 91.409 124.573 91.4934 124.286 91.3584L124.202 91.3246C123.51 91.0378 122.852 90.7003 122.177 90.4135L121.148 90.0254L120.641 89.8229L120.118 89.671C118.751 89.1986 117.334 88.9961 115.95 88.8611L114.904 88.8105L113.858 88.8442C113.166 88.878 112.474 88.9623 111.783 89.0973C111.091 89.2323 110.433 89.3842 109.724 89.5023C109.049 89.6373 108.307 89.7723 107.598 89.8229L107.446 89.8398C107.041 89.8735 106.687 89.5529 106.67 89.1479C106.687 88.9454 106.754 88.7598 106.872 88.6248Z" fill="#341523"/>
<path d="M67.1339 50.4398C67.1339 50.4398 59.7939 60.7497 59.4564 68.2753C59.1358 75.7841 60.5701 82.8036 58.0053 89.03C55.4405 95.2395 53.635 108.283 48.7922 112.282C43.9495 116.281 33.7071 118.019 32.3572 109.869C31.0073 101.719 27.3795 71.7176 31.058 66.9423C34.7364 62.1839 35.732 60.2097 38.5161 57.6786C41.3003 55.1476 57.499 45.0234 59.6083 43.8085C61.7175 42.5936 72.3479 35.3041 72.2635 37.987C72.1623 40.6531 67.1339 50.4398 67.1339 50.4398Z" fill="#BB6B0B"/>
</g>
</g>
<path d="M129.278 154.792C129.278 154.792 114.8 153.459 110.447 156.125C106.093 158.791 99.7318 163.212 99.5124 168.308C99.2931 173.404 95.1928 175.395 96.5595 179.377C97.9263 183.359 101.065 184.254 101.065 184.254C101.065 184.254 107.865 186.684 112.775 184.254C112.775 184.254 116.251 186.245 120.824 183.815C120.824 183.815 123.49 183.815 125.582 182.263L126.763 177.825C126.763 177.825 134.593 176.914 134.913 167.38C135.251 157.863 132.652 155.012 129.278 154.792Z" fill="#E0C4AD"/>
<path d="M137.36 169.76C137.04 179.53 127.675 179.986 127.675 179.986L126.494 184.525C125.262 185.47 123.828 185.841 122.866 186.01C122.191 186.128 121.735 186.128 121.735 186.128C121.584 186.212 121.449 186.28 121.297 186.347C117.601 188.169 114.699 187.073 113.906 186.685C113.754 186.617 113.687 186.566 113.687 186.566C113.282 186.769 112.877 186.938 112.455 187.073C108.76 188.321 104.474 187.309 102.736 186.819C102.246 186.668 101.959 186.566 101.959 186.566C101.959 186.566 101.605 186.465 101.065 186.161C100.036 185.588 98.3654 184.272 97.4542 181.572C97.3867 181.386 97.3529 181.217 97.3023 181.049C96.4249 177.303 100.188 175.21 100.407 170.216C100.643 164.985 107.005 160.446 111.341 157.712C115.695 154.979 130.155 156.346 130.155 156.346C131.252 156.413 132.433 156.835 133.513 157.679C135.774 159.467 137.58 163.163 137.36 169.76Z" fill="#FCEBDB"/>
<path d="M113.822 184.523V184.675C113.822 185.35 113.855 186.025 113.906 186.683C113.754 186.616 113.687 186.565 113.687 186.565C113.298 186.768 112.877 186.936 112.472 187.071C112.387 186.228 112.354 185.367 112.354 184.507V184.439C112.354 182.769 112.489 181.115 112.691 179.647C112.742 179.242 113.113 178.955 113.518 179.006C113.923 179.056 114.21 179.428 114.159 179.833C113.957 181.284 113.822 182.904 113.822 184.523Z" fill="#341523"/>
<path d="M102.432 181.166C102.33 181.942 102.263 182.786 102.263 183.629C102.263 184.068 102.28 184.49 102.313 184.912C102.364 185.587 102.482 186.245 102.651 186.818C102.212 186.683 101.976 186.599 101.976 186.599C101.976 186.599 101.655 186.515 101.2 186.245C101.099 185.688 101.031 185.097 100.997 184.507C100.98 184.22 100.98 183.916 100.98 183.629C100.98 182.718 101.048 181.824 101.166 180.997C101.284 180.17 101.436 179.428 101.622 178.82C101.723 178.483 102.094 178.28 102.432 178.382C102.769 178.483 102.972 178.854 102.87 179.192C102.668 179.698 102.533 180.39 102.432 181.166Z" fill="#341523"/>
<path d="M123.119 182.583C123.119 182.886 123.119 183.173 123.102 183.443C123.068 184.472 122.967 185.367 122.865 186.008C122.19 186.126 121.735 186.126 121.735 186.126C121.583 186.21 121.448 186.278 121.296 186.345C121.33 186.143 121.381 185.89 121.414 185.569C121.482 185.08 121.549 184.455 121.583 183.764C121.6 183.392 121.617 183.004 121.617 182.599C121.617 181.418 121.516 180.119 121.212 178.837C121.111 178.432 121.364 178.043 121.769 177.942C122.174 177.841 122.562 178.094 122.663 178.499C123 179.9 123.119 181.317 123.119 182.583Z" fill="#341523"/>
<path d="M54.9829 152.314C54.9829 152.314 69.4942 153.259 73.3752 156.566C77.2561 159.873 82.8413 165.239 82.2676 170.301C81.6939 175.363 85.423 177.979 83.4488 181.708C81.4746 185.437 78.2348 185.825 78.2348 185.825C78.2348 185.825 71.131 187.175 66.6594 184.003C66.6594 184.003 62.9135 185.42 58.7626 182.315C58.7626 182.315 56.1303 181.893 54.3079 180.037L53.8354 175.481C53.8354 175.481 46.2423 173.355 47.4066 163.889C48.6046 154.423 51.5912 152.01 54.9829 152.314Z" fill="#E0C4AD"/>
<path d="M44.6557 165.83C43.4408 175.533 52.6201 177.439 52.6201 177.439L53.0757 182.113C54.1387 183.227 55.5055 183.834 56.4335 184.138C57.0916 184.358 57.5303 184.425 57.5303 184.425C57.6653 184.526 57.8003 184.627 57.9184 184.712C61.2763 187.091 64.3136 186.45 65.1741 186.214C65.326 186.163 65.4103 186.129 65.4103 186.129C65.7647 186.382 66.1528 186.619 66.5409 186.821C69.9831 188.627 74.3871 188.306 76.1758 188.087C76.682 188.019 76.9857 187.968 76.9857 187.968C76.9857 187.968 77.3569 187.918 77.9306 187.715C79.0443 187.31 80.9004 186.264 82.2165 183.733C82.3009 183.564 82.3684 183.413 82.4359 183.244C83.887 179.667 80.4954 177.034 81.0691 172.057C81.6597 166.859 76.0914 161.376 72.2104 158.001C68.3464 154.626 53.835 153.715 53.835 153.715C52.7382 153.614 51.5064 153.833 50.3084 154.508C47.8279 155.925 45.4656 159.283 44.6557 165.83Z" fill="#FCEBDB"/>
<path d="M65.5957 184.087L65.5788 184.238C65.4776 184.896 65.3426 185.571 65.1738 186.213C65.3257 186.162 65.4101 186.145 65.4101 186.145C65.7644 186.398 66.1525 186.634 66.5406 186.837C66.76 186.01 66.9287 185.166 67.0637 184.323L67.0806 184.255C67.3337 182.602 67.4686 180.948 67.5024 179.48C67.5024 179.075 67.1818 178.738 66.7768 178.721C66.3719 178.721 66.0344 179.041 66.0175 179.446C65.9669 180.864 65.8488 182.484 65.5957 184.087Z" fill="#341523"/>
<path d="M77.3741 182.551C77.3573 183.327 77.2898 184.17 77.1548 185.014C77.0873 185.436 77.0029 185.858 76.9017 186.28C76.7329 186.938 76.5304 187.579 76.2773 188.119C76.7161 188.068 76.986 188.018 76.986 188.018C76.986 188.018 77.3066 187.984 77.8129 187.798C77.9985 187.258 78.1503 186.685 78.2853 186.111C78.3359 185.824 78.4034 185.537 78.4372 185.233C78.5722 184.339 78.6565 183.428 78.6734 182.601C78.6903 181.774 78.6565 181.015 78.5722 180.374C78.5215 180.019 78.2009 179.766 77.8466 179.817C77.4923 179.868 77.2391 180.188 77.2898 180.543C77.3573 181.066 77.391 181.774 77.3741 182.551Z" fill="#341523"/>
<path d="M56.7204 180.728C56.6698 181.015 56.6361 181.302 56.6023 181.572C56.4842 182.601 56.4505 183.496 56.4336 184.137C57.0917 184.356 57.5304 184.424 57.5304 184.424C57.6654 184.525 57.8004 184.626 57.9185 184.711C57.9185 184.508 57.9185 184.238 57.9185 183.918C57.9354 183.428 57.9522 182.804 58.0366 182.112C58.0703 181.741 58.121 181.353 58.1885 180.965C58.3741 179.8 58.6778 178.518 59.1671 177.32C59.319 176.949 59.1334 176.51 58.7622 176.358C58.3909 176.206 57.9522 176.375 57.8004 176.763C57.2435 178.096 56.9061 179.48 56.7204 180.728Z" fill="#341523"/>
<defs>
<clipPath id="clip0_581_27708">
<rect width="129.151" height="171.74" fill="white" transform="translate(29.4551 33.9863)"/>
</clipPath>
</defs>
</svg>
