<svg width="212" height="212" viewBox="0 0 212 212" fill="none" xmlns="http://www.w3.org/2000/svg">
<path d="M105.698 211.954C76.5272 212.114 47.9959 199.567 28.2557 178.148C-10.0258 138.428 -8.90701 69.9368 30.9729 31.6552C115.528 -51.781 252.51 46.9998 200.083 153.533C182.82 188.857 145.018 212.434 105.698 211.954Z" fill="#FEC301" fill-opacity="0.19"/>
<path d="M198.167 106.414C198.247 123.996 193.292 140.38 184.741 154.445C180.425 161.558 175.15 168.032 169.076 173.706C167.318 175.384 165.4 176.983 163.482 178.581C159.006 182.178 154.211 185.374 149.176 188.092C146.699 189.45 144.221 190.649 141.664 191.688C137.828 193.286 133.832 194.725 129.836 195.844C128.797 196.164 127.678 196.403 126.639 196.643C126.399 196.723 126.239 196.723 126 196.803C125.92 196.803 125.84 196.803 125.76 196.883C119.286 198.321 112.573 199.041 105.78 198.961C100.585 199.041 95.4703 198.641 90.5153 197.762C87.7181 197.282 84.9209 196.643 82.1237 195.924C72.933 193.446 64.2218 189.53 56.2298 184.415C56.1499 184.335 56.0697 184.335 55.9898 184.256C55.9898 184.256 55.9901 184.256 55.9102 184.256C55.5905 184.096 55.2707 183.856 54.951 183.616C54.2318 183.137 53.5923 182.657 52.873 182.258C50.875 180.819 48.9572 179.38 47.119 177.862C32.7335 166.114 21.8641 150.13 16.8292 131.828C-16.2576 -2.99637 192.893 -32.3269 198.167 106.414Z" fill="#FEC301" fill-opacity="0.19"/>
<g clip-path="url(#clip0_760_1413)">
<path d="M110.496 66.2804C112.549 65.1157 114.159 63.304 115.074 61.1281C115.989 58.9522 116.159 56.5345 115.555 54.2523C114.952 51.9702 113.61 49.952 111.739 48.5129C109.867 47.0737 107.572 46.2945 105.212 46.2969C102.851 46.2993 100.558 47.0831 98.6897 48.5261C96.8215 49.9691 95.4836 51.9899 94.8848 54.2733C94.286 56.5567 94.4601 58.9741 95.3797 61.1481C96.2994 63.3222 97.913 65.1306 99.9686 66.2911L99.9152 66.3873C96.415 73.6921 91.5522 84.1552 84.0443 88.0828C77.8776 91.3051 69.0284 89.6859 62.4556 88.4782C62.3502 86.9837 61.828 85.5485 60.9482 84.3357C60.0684 83.1229 58.8664 82.181 57.4784 81.6168C56.0904 81.0526 54.572 80.8887 53.0956 81.1437C51.6191 81.3987 50.2437 82.0625 49.1254 83.0596C48.0071 84.0567 47.1907 85.3473 46.7687 86.785C46.3468 88.2226 46.3363 89.7498 46.7383 91.1931C47.1403 92.6365 47.9389 93.9383 49.0433 94.9507C50.1477 95.9632 51.5138 96.6459 52.9866 96.9213L68.7399 137.587C69.9081 140.602 71.9607 143.193 74.6281 145.02C77.2955 146.847 80.453 147.825 83.6863 147.826H126.757C129.99 147.825 133.147 146.847 135.815 145.02C138.482 143.193 140.535 140.602 141.703 137.587L157.451 96.9213C158.915 96.649 160.273 95.9744 161.375 94.9733C162.477 93.9722 163.278 92.6841 163.689 91.2533C164.1 89.8225 164.104 88.3056 163.701 86.8725C163.298 85.4394 162.505 84.1467 161.408 83.1394C160.312 82.1321 158.958 81.4499 157.496 81.1692C156.034 80.8885 154.523 81.0205 153.131 81.5504C151.74 82.0802 150.524 82.987 149.619 84.1691C148.715 85.3512 148.157 86.7619 148.009 88.2431C141.281 89.1141 132.608 90.2256 126.399 86.982C119.04 83.1345 114.108 73.3929 110.496 66.2804Z" fill="#FEC301"/>
</g>
<defs>
<clipPath id="clip0_760_1413">
<rect width="128.249" height="128.249" fill="white" transform="translate(41.0938 35.4565)"/>
</clipPath>
</defs>
</svg>
