<svg width="228" height="170" viewBox="0 0 228 170" fill="none" xmlns="http://www.w3.org/2000/svg">
<g clip-path="url(#clip0_297_72552)">
<path d="M96.5222 73.1756C85.5199 75.7343 89.9549 88.613 70.3384 93.8156C50.7219 99.1035 60.189 128.443 87.0551 117.867C113.921 107.377 109.23 70.2758 96.5222 73.1756Z" fill="#A6581C"/>
<path d="M231.962 153.687L226.759 169.294H199.979C204.158 161.533 211.237 157.78 215.842 156.16C216.183 156.075 216.525 155.904 216.78 155.819C216.951 155.733 217.122 155.733 217.292 155.648C219.169 155.051 220.363 154.881 220.363 154.881L231.962 153.687Z" fill="#FFBA59"/>
<path d="M216.355 156.491C216.355 156.491 224.117 145.489 224.458 126.384C224.799 107.279 252.006 103.015 252.006 103.015L257.806 120.158L216.355 156.491Z" fill="#FFBA59"/>
<path d="M231.196 88.6943C231.196 88.6943 205.353 136.797 258.403 133.727L259.085 156.073C259.085 156.073 275.631 130.486 275.29 129.463C274.949 128.61 231.196 88.6943 231.196 88.6943Z" fill="#FFBA59"/>
<path d="M283.221 129.632L273.839 169.377H252.943C253.199 167.927 253.626 165.88 254.052 163.236C254.393 161.359 254.734 159.142 255.076 156.754C256.014 150.357 256.867 142.34 257.208 133.896C257.293 131.423 257.378 128.779 257.378 126.22L252.176 133.896L251.92 134.237L228.21 169.377H208.167L215.843 156.242L220.363 148.481L230.854 130.57L232.218 128.352L234.009 125.367L231.195 127.5L228.551 129.547L224.201 132.958L220.278 135.943C212.346 142.084 203.135 146.263 193.412 148.395L137.462 160.421L122.622 165.88C116.225 168.268 109.487 169.462 102.664 169.462H52.5993C47.9084 169.462 48.676 160.762 52.4288 157.948C56.2668 155.048 58.4843 154.792 65.1368 151.722C68.3778 149.76 71.7894 147.798 75.2009 145.922C78.9537 143.875 82.7064 141.913 86.0327 140.208C87.8237 139.269 89.5295 138.502 90.9794 137.734C91.4059 137.478 91.8323 137.308 92.2588 137.137C92.2588 137.137 92.3441 137.137 92.3441 137.052C95.585 135.517 97.5467 134.579 97.5467 134.579L102.835 125.282L119.466 111.977L127.995 105.154L130.042 103.533L147.867 89.2901L149.232 88.1813C149.232 88.1813 149.914 88.3519 151.194 88.4372C152.217 88.5225 153.667 88.6078 155.287 88.5225C157.59 88.4372 160.49 88.096 163.646 87.1579C164.328 86.9873 165.096 86.7314 165.778 86.4756C169.616 85.1109 173.88 82.9787 178.23 79.5671C181.727 76.8379 186.93 71.6352 191.109 67.3708C191.194 67.2855 191.194 67.2855 191.279 67.2002C194.179 64.2151 197.42 61.5711 200.832 59.2683C205.864 55.9421 211.408 53.4687 217.207 52.0188C219.084 51.507 221.131 51.0806 223.178 50.8247C227.016 50.313 230.939 50.1424 235.033 50.5688C241.429 51.3364 247.911 53.6393 253.711 58.586C262.581 66.0062 270.172 79.3966 274.095 102.083L280.065 111.551C282.198 114.962 283.477 118.885 283.647 122.809C283.989 125.026 283.733 127.329 283.221 129.632Z" fill="#FFBA59"/>
<path d="M141.471 93.2145C141.386 95.6879 147.783 100.123 147.271 102.426C140.96 128.951 107.356 144.473 83.9012 134.58C58.3144 123.833 69.8285 110.102 80.916 101.232C88.1656 95.432 89.8714 89.9735 90.2125 86.9031C90.5537 83.4063 91.9183 80.08 94.2211 77.5213C98.912 72.3187 105.991 69.4189 113.496 68.7366C130.298 67.1161 142.409 74.2803 141.471 93.2145Z" fill="#FFBA59"/>
<path d="M212.516 91.1709C212.516 91.1709 200.49 136.204 257.122 134.242" stroke="#141414" stroke-width="0.852891" stroke-miterlimit="10" stroke-linecap="round"/>
<path d="M70.5098 169.202C70.5098 169.202 70.8509 162.037 81.4268 157.432C92.0026 152.741 119.039 140.374 119.039 140.374" stroke="#141414" stroke-width="0.852891" stroke-miterlimit="10" stroke-linecap="round"/>
<path d="M78.7821 122.646L73.75 114.629C73.75 114.629 76.2234 107.123 88.5903 114.799L78.7821 122.646Z" fill="#141414"/>
<path d="M75.9682 129.806C75.9682 129.806 70.2538 145.499 78.0152 148.058C88.0793 151.299 86.1176 132.023 86.1176 132.023C86.1176 132.023 82.7913 131.426 80.1474 128.015L79.7209 128.356C78.9533 129.55 77.4181 130.147 75.9682 129.806Z" fill="#F26F00"/>
<path d="M141.215 92.9585C141.13 95.4318 147.868 100.208 147.271 102.511C142.836 108.908 135.33 113.087 126.887 113.087C113.241 113.087 102.238 102.34 102.238 89.0352C102.238 80.5915 106.759 73.0861 113.496 68.8216C130.298 67.1159 142.068 73.939 141.215 92.9585Z" fill="white"/>
<path d="M113.496 68.7362C121.769 67.5422 133.368 68.0539 140.192 81.2737" stroke="#141414" stroke-width="0.852891" stroke-miterlimit="10" stroke-linecap="round"/>
<path d="M108.891 98.4118C108.891 98.4118 111.535 91.5034 115.287 90.3094C119.125 89.1153 121.684 95.0855 121.855 100.459" stroke="#141414" stroke-width="0.852891" stroke-miterlimit="10" stroke-linecap="round"/>
<path d="M93.2809 95.8572C93.2809 95.8572 94.219 89.7164 91.4045 88.0106C88.6752 86.3048 85.0078 94.322 85.0078 94.322" stroke="#141414" stroke-width="0.852891" stroke-miterlimit="10" stroke-linecap="round"/>
<path d="M188.378 102.768C178.57 104.303 168.08 92.7889 163.645 87.1598C164.327 86.9892 165.094 86.7333 165.777 86.4775C169.615 85.1129 173.879 82.9806 178.229 79.5691C181.726 76.8398 186.928 71.6372 191.108 67.3727C191.193 67.2874 191.193 67.2874 191.278 67.2021C201.086 78.4603 199.551 100.977 188.378 102.768Z" fill="white"/>
<path d="M218.999 64.4734C209.447 65.241 203.818 61.9147 200.918 59.2708C205.95 55.9445 211.494 53.4711 217.293 52.0212C219.17 51.5095 221.217 51.083 223.264 50.8271C225.908 57.2238 226.675 63.8764 218.999 64.4734Z" fill="white"/>
<path d="M164.072 86.7262C164.072 86.7262 178.06 85.8733 191.194 67.2803" stroke="#141414" stroke-width="0.852891" stroke-miterlimit="10" stroke-linecap="round"/>
<path d="M201.002 59.013C201.002 59.013 207.569 52.1045 223.689 50.5693" stroke="#141414" stroke-width="0.852891" stroke-miterlimit="10" stroke-linecap="round"/>
<path d="M59.5082 157.53C59.5082 157.53 52.7704 160.43 54.3056 169.13" stroke="#141414" stroke-width="0.852891" stroke-miterlimit="10" stroke-linecap="round"/>
<path d="M65.3934 158.124C65.3934 158.124 59.5085 160 60.2761 169.212" stroke="#141414" stroke-width="0.852891" stroke-miterlimit="10" stroke-linecap="round"/>
<path d="M77.334 168.864C77.334 168.864 77.6751 162.211 85.1806 159.312" stroke="#141414" stroke-width="0.852891" stroke-miterlimit="10" stroke-linecap="round"/>
<path d="M84.668 168.953C84.668 168.953 84.8385 163.153 91.3205 160.851" stroke="#141414" stroke-width="0.852891" stroke-miterlimit="10" stroke-linecap="round"/>
<path d="M203.988 169.126C203.988 169.126 205.438 164.094 210.982 162.218" stroke="#141414" stroke-width="0.852891" stroke-miterlimit="10" stroke-linecap="round"/>
<path d="M209.531 168.861C209.531 168.861 210.469 165.535 215.416 163.062" stroke="#141414" stroke-width="0.852891" stroke-miterlimit="10" stroke-linecap="round"/>
<path d="M79.2945 118.452C79.2945 118.452 76.7358 123.911 81.0855 128.943C85.4353 133.975 96.9493 133.889 100.446 126.555" stroke="#141414" stroke-width="0.852891" stroke-miterlimit="10" stroke-linecap="round"/>
<path d="M130.375 128.918C119.945 137.857 99.955 138.23 91.2637 137.299C115.103 142.513 137.203 132.642 145.274 127.055C144.653 123.951 140.804 119.978 130.375 128.918Z" fill="black" stroke="black" stroke-width="1.86242"/>
<path d="M73.9219 128.868C73.9219 128.868 77.2481 131.938 80.0627 128.015" stroke="#141414" stroke-width="0.852891" stroke-miterlimit="10" stroke-linecap="round"/>
<path d="M140.787 78.8927C134.817 78.1251 131.661 83.4983 130.894 89.3833C129.273 101.836 117.503 136.889 145.649 133.648C166.545 131.346 155.969 80.7691 140.787 78.8927Z" fill="#A6581C"/>
<path d="M78.7823 142.85C78.8676 142.594 78.1 136.624 79.9764 129.374" stroke="#141414" stroke-width="0.852891" stroke-miterlimit="10" stroke-linecap="round"/>
<path d="M105.432 140.256C105.432 139.245 104.678 138.337 103.65 138.252C102.468 138.132 101.474 139.057 101.474 140.205V140.273C101.474 140.496 101.337 140.685 101.115 140.753C98.0307 141.747 95.8206 144.659 95.9234 148.052C96.0433 152.027 99.4014 155.23 103.428 155.248C107.591 155.265 110.983 151.924 110.983 147.812C110.983 144.505 108.807 141.713 105.792 140.753C105.569 140.667 105.432 140.479 105.432 140.256Z" fill="white" stroke="black" stroke-width="0.171329" stroke-miterlimit="10"/>
<path d="M101.148 147.265V147.453V147.642V147.83V148.018V148.19H101.337V148.378H101.525V148.567H101.714V148.378V148.19H101.525V148.018H101.337V147.83V147.642V147.453H101.525V147.265H101.337H101.148Z" fill="black"/>
<path d="M101.716 147.647H101.527V147.836H101.716V147.647Z" fill="black"/>
<path d="M102.109 148.202V148.03H101.92H101.715V148.202H101.92H102.109Z" fill="black"/>
<path d="M102.296 147.102H102.484V146.913H102.296H102.107V147.102V147.273H102.296V147.102Z" fill="black"/>
<path d="M102.298 147.461H102.11V147.273H101.921V147.102V146.913H101.716H101.527V147.102V147.273H101.716V147.461V147.65H101.921V147.838H102.11H102.298V147.65V147.461Z" fill="black"/>
<path d="M102.298 148.382H102.109V148.57H102.298V148.382Z" fill="black"/>
<path d="M102.485 147.265H102.297V147.453H102.485V147.265Z" fill="black"/>
<path d="M102.673 147.093H102.484V147.281H102.673V147.093Z" fill="black"/>
<path d="M102.674 148.016H102.485V147.827H102.297V148.016V148.187V148.375H102.485H102.674V148.187V148.016Z" fill="black"/>
<path d="M102.877 146.914V146.726H102.672V146.914V147.103H102.877V146.914Z" fill="black"/>
<path d="M102.86 148.929H102.672V149.117H102.86V148.929Z" fill="black"/>
<path d="M103.067 146.53H102.879V146.719H103.067V146.53Z" fill="black"/>
<path d="M103.256 146.362V146.173H103.068V145.985V145.796H103.256H103.445V145.985H103.65V145.796V145.625H103.839V145.437H103.65H103.445V145.625H103.256V145.437H103.068V145.625H102.879V145.437H102.674V145.625V145.796H102.879V145.985H102.674V146.173H102.879V146.362H103.068V146.533H103.256V146.362Z" fill="black"/>
<path d="M103.255 147.46H103.066V147.648H103.255V147.46Z" fill="black"/>
<path d="M103.255 148.929H103.066V149.117H103.255V148.929Z" fill="black"/>
<path d="M103.444 147.641H103.255V147.829H103.067V147.641H102.878V147.453H103.067V147.264V147.093H102.878V147.264H102.673V147.453V147.641H102.484V147.829H102.673H102.878V148.018V148.189V148.378H102.673V148.566H102.878H103.067H103.255V148.755V148.926H103.444V149.114H103.649H103.838V148.926H103.649V148.755H103.444V148.566V148.378V148.189H103.649V148.018V147.829H103.444V147.641Z" fill="black"/>
<path d="M103.443 149.681V149.492H103.648V149.304H103.443H103.254V149.492H103.066V149.304H102.877H102.672V149.492V149.681V149.852V150.04H102.877V149.852H103.066V149.681H103.254V149.852V150.04H103.443H103.648V149.852H103.443V149.681Z" fill="black"/>
<path d="M103.65 149.687V149.858H103.839V150.046H104.027V149.858V149.687H103.839H103.65Z" fill="black"/>
<path d="M104.027 147.27H104.216V147.081V146.893V146.722V146.533H104.027H103.839V146.345H104.027H104.216V146.156H104.027V145.968H103.839V146.156H103.65V146.345V146.533H103.462H103.273V146.722V146.91V147.099V147.287H103.462H103.65H103.839V147.475H103.65V147.664V147.852H103.839V147.664H104.027H104.216V147.475H104.027V147.27ZM104.027 146.722V146.91H103.839V146.722H104.027ZM103.445 147.099V146.91H103.633V147.099H103.445Z" fill="black"/>
<path d="M103.84 148.187H104.028V148.016V147.827H103.84V148.016V148.187Z" fill="black"/>
<path d="M104.027 148.766V148.577H103.839H103.65V148.766H103.839H104.027Z" fill="black"/>
<path d="M104.214 145.437H104.025V145.625H104.214V145.437Z" fill="black"/>
<path d="M104.403 148.577H104.215V148.766H104.403V148.577Z" fill="black"/>
<path d="M104.593 147.647H104.404V147.836H104.593V147.647Z" fill="black"/>
<path d="M104.611 149.494H104.405V149.306H104.611V149.117V148.929H104.405V149.117H104.217H104.028V149.306H103.84V149.494H104.028H104.217V149.683H104.405H104.611V149.494Z" fill="black"/>
<path d="M104.798 148.577H104.609V148.766H104.798V148.577Z" fill="black"/>
<path d="M104.986 148.016H104.797H104.609H104.403H104.215V148.204V148.393H104.403H104.592V148.204H104.78V148.393V148.581H104.969V148.769H105.157V148.581H105.346V148.393H105.534V148.581H105.723V148.393V148.204V148.016H105.534H105.346H105.157V147.827H104.969V148.016H104.986ZM105.174 148.375H104.986V148.187H105.174V148.375Z" fill="black"/>
<path d="M104.985 148.936V148.765H104.797V148.936V149.124V149.313V149.501V149.69H104.985V149.501V149.313V149.124H105.174H105.379V148.936H105.174H104.985Z" fill="black"/>
<path d="M105.362 147.647H105.174V147.836H105.362V147.647Z" fill="black"/>
<path d="M105.362 149.304H105.174V149.492H105.362V149.304Z" fill="black"/>
<path d="M105.38 149.687H105.175V149.858H104.986H104.798H104.609V150.046H104.798H104.986H105.175H105.38H105.569V149.858H105.38V149.687Z" fill="black"/>
<path d="M105.568 147.273V147.102H105.38V147.273H105.174H104.986H104.797V147.102V146.913H104.609V147.102V147.273H104.403H104.215V147.461H104.403H104.609V147.65H104.797H104.986V147.461H105.174H105.38V147.65H105.568V147.838H105.757V147.65V147.461H105.568V147.273Z" fill="black"/>
<path d="M105.381 148.766V148.937H105.569H105.758V148.766H105.569V148.577H105.381V148.766Z" fill="black"/>
<path d="M105.569 149.116H105.381V149.305H105.569V149.116Z" fill="black"/>
<path d="M105.569 149.499H105.381V149.687H105.569V149.499Z" fill="black"/>
<path d="M105.759 149.304H105.57V149.492H105.759V149.304Z" fill="black"/>
<path d="M105.759 149.687H105.57V149.875H105.759V149.687Z" fill="black"/>
<path d="M102.485 145.437H101.148V146.721H102.502V145.437H102.485ZM102.313 146.55H101.32V145.608H102.313V146.55Z" fill="black"/>
<path d="M102.11 145.796H101.527V146.344H102.11V145.796Z" fill="black"/>
<path d="M101.148 150.05H102.502V148.765H101.148V150.05ZM101.32 148.936H102.313V149.878H101.32V148.936Z" fill="black"/>
<path d="M102.11 149.116H101.527V149.664H102.11V149.116Z" fill="black"/>
<path d="M104.404 145.437V146.721H105.758V145.437H104.404ZM105.586 146.55H104.593V145.608H105.586V146.55Z" fill="black"/>
<path d="M105.379 145.796H104.797V146.344H105.379V145.796Z" fill="black"/>
<path d="M100.485 143.29C100.405 143.29 100.327 143.281 100.251 143.264C100.175 143.245 100.113 143.221 100.064 143.191L100.169 142.953C100.215 142.98 100.267 143.002 100.324 143.018C100.381 143.034 100.435 143.042 100.488 143.042C100.533 143.042 100.565 143.038 100.584 143.029C100.604 143.02 100.613 143.007 100.613 142.989C100.613 142.969 100.601 142.954 100.575 142.944C100.55 142.934 100.509 142.923 100.451 142.911C100.376 142.895 100.314 142.878 100.264 142.861C100.215 142.843 100.172 142.813 100.135 142.773C100.098 142.731 100.08 142.676 100.08 142.606C100.08 142.545 100.097 142.49 100.131 142.44C100.165 142.391 100.215 142.352 100.282 142.323C100.35 142.295 100.433 142.28 100.529 142.28C100.595 142.28 100.66 142.288 100.724 142.302C100.788 142.316 100.845 142.337 100.893 142.364L100.795 142.6C100.701 142.552 100.611 142.529 100.527 142.529C100.443 142.529 100.401 142.549 100.401 142.589C100.401 142.609 100.413 142.623 100.438 142.633C100.463 142.643 100.504 142.653 100.561 142.664C100.635 142.678 100.697 142.694 100.747 142.712C100.798 142.729 100.841 142.758 100.878 142.799C100.916 142.839 100.935 142.895 100.935 142.964C100.935 143.025 100.918 143.08 100.884 143.13C100.85 143.179 100.799 143.218 100.731 143.247C100.664 143.276 100.582 143.29 100.485 143.29Z" fill="#E1251B"/>
<path d="M101.531 143.29C101.429 143.29 101.337 143.269 101.255 143.226C101.173 143.183 101.109 143.123 101.062 143.047C101.016 142.97 100.993 142.883 100.993 142.785C100.993 142.688 101.016 142.601 101.062 142.524C101.109 142.447 101.173 142.387 101.255 142.345C101.337 142.302 101.429 142.28 101.531 142.28C101.625 142.28 101.708 142.297 101.782 142.33C101.856 142.363 101.916 142.411 101.964 142.473L101.759 142.657C101.699 142.581 101.628 142.544 101.548 142.544C101.479 142.544 101.425 142.566 101.383 142.61C101.342 142.653 101.321 142.712 101.321 142.785C101.321 142.859 101.342 142.918 101.383 142.962C101.425 143.005 101.479 143.026 101.548 143.026C101.628 143.026 101.699 142.989 101.759 142.913L101.964 143.097C101.916 143.159 101.856 143.207 101.782 143.24C101.708 143.273 101.625 143.29 101.531 143.29Z" fill="#E1251B"/>
<path d="M102.703 143.1H102.336L102.271 143.268H101.94L102.362 142.302H102.682L103.104 143.268H102.767L102.703 143.1ZM102.613 142.865L102.519 142.622L102.425 142.865H102.613Z" fill="#E1251B"/>
<path d="M104.108 142.302V143.268H103.84L103.473 142.829V143.268H103.156V142.302H103.423L103.79 142.741V142.302H104.108Z" fill="#E1251B"/>
<path d="M105.54 143.268L105.537 142.828L105.328 143.181H105.184L104.975 142.843V143.268H104.678V142.302H104.946L105.26 142.817L105.566 142.302H105.834L105.837 143.268H105.54Z" fill="#E1251B"/>
<path d="M106.797 143.022V143.268H105.994V142.302H106.779V142.548H106.314V142.661H106.722V142.895H106.314V143.022H106.797Z" fill="#E1251B"/>
<path d="M100.833 143.9H100.97V144.865H100.833V143.9Z" fill="#E1251B"/>
<path d="M101.273 143.833C101.299 143.833 101.32 143.842 101.337 143.861C101.354 143.878 101.363 143.9 101.363 143.927C101.363 143.941 101.362 143.955 101.359 143.968C101.356 143.981 101.35 144 101.341 144.025L101.275 144.218H101.188L101.239 144.013C101.221 144.006 101.207 143.996 101.196 143.981C101.186 143.965 101.181 143.947 101.181 143.927C101.181 143.9 101.19 143.877 101.207 143.86C101.225 143.842 101.247 143.833 101.273 143.833Z" fill="#E1251B"/>
<path d="M102.467 144.127C102.559 144.127 102.632 144.154 102.685 144.207C102.739 144.26 102.766 144.34 102.766 144.444V144.865H102.634V144.46C102.634 144.389 102.618 144.335 102.584 144.3C102.552 144.264 102.506 144.246 102.445 144.246C102.378 144.246 102.325 144.267 102.285 144.309C102.246 144.351 102.226 144.41 102.226 144.488V144.865H102.093V144.46C102.093 144.389 102.077 144.335 102.044 144.3C102.012 144.264 101.965 144.246 101.904 144.246C101.837 144.246 101.784 144.267 101.744 144.309C101.705 144.351 101.685 144.41 101.685 144.488V144.865H101.553V144.134H101.68V144.243C101.706 144.205 101.741 144.177 101.784 144.157C101.828 144.137 101.877 144.127 101.932 144.127C101.989 144.127 102.04 144.139 102.084 144.162C102.128 144.185 102.162 144.218 102.186 144.262C102.213 144.22 102.252 144.187 102.3 144.163C102.35 144.139 102.406 144.127 102.467 144.127Z" fill="#E1251B"/>
<path d="M103.4 143.9H103.538V144.745H104.061V144.865H103.4V143.9Z" fill="#E1251B"/>
<path d="M104.503 144.873C104.431 144.873 104.365 144.857 104.307 144.825C104.249 144.793 104.204 144.749 104.171 144.693C104.139 144.636 104.123 144.571 104.123 144.5C104.123 144.428 104.139 144.364 104.171 144.308C104.204 144.251 104.249 144.207 104.307 144.175C104.365 144.143 104.431 144.127 104.503 144.127C104.576 144.127 104.641 144.143 104.698 144.175C104.756 144.207 104.801 144.251 104.833 144.308C104.866 144.364 104.883 144.428 104.883 144.5C104.883 144.571 104.866 144.636 104.833 144.693C104.801 144.749 104.756 144.793 104.698 144.825C104.641 144.857 104.576 144.873 104.503 144.873ZM104.503 144.757C104.55 144.757 104.592 144.747 104.629 144.726C104.666 144.704 104.696 144.673 104.717 144.635C104.738 144.595 104.749 144.55 104.749 144.5C104.749 144.449 104.738 144.404 104.717 144.366C104.696 144.326 104.666 144.296 104.629 144.275C104.592 144.254 104.55 144.243 104.503 144.243C104.456 144.243 104.414 144.254 104.376 144.275C104.34 144.296 104.31 144.326 104.288 144.366C104.267 144.404 104.256 144.449 104.256 144.5C104.256 144.55 104.267 144.595 104.288 144.635C104.31 144.673 104.34 144.704 104.376 144.726C104.414 144.747 104.456 144.757 104.503 144.757Z" fill="#E1251B"/>
<path d="M105.275 144.873C105.216 144.873 105.158 144.865 105.103 144.85C105.048 144.833 105.004 144.813 104.973 144.788L105.028 144.683C105.061 144.706 105.1 144.724 105.146 144.738C105.192 144.752 105.238 144.759 105.285 144.759C105.401 144.759 105.459 144.726 105.459 144.66C105.459 144.637 105.451 144.62 105.435 144.607C105.42 144.594 105.4 144.585 105.376 144.58C105.353 144.573 105.32 144.566 105.277 144.559C105.218 144.55 105.17 144.539 105.132 144.527C105.095 144.515 105.063 144.495 105.037 144.466C105.01 144.438 104.997 144.398 104.997 144.346C104.997 144.28 105.024 144.227 105.079 144.188C105.135 144.147 105.209 144.127 105.301 144.127C105.35 144.127 105.399 144.133 105.448 144.145C105.496 144.157 105.536 144.173 105.568 144.193L105.511 144.298C105.451 144.26 105.381 144.24 105.3 144.24C105.244 144.24 105.201 144.249 105.172 144.268C105.142 144.286 105.128 144.311 105.128 144.341C105.128 144.365 105.136 144.384 105.153 144.397C105.169 144.411 105.189 144.421 105.213 144.428C105.238 144.434 105.273 144.442 105.317 144.45C105.376 144.46 105.423 144.471 105.459 144.483C105.496 144.494 105.527 144.513 105.553 144.541C105.578 144.568 105.591 144.607 105.591 144.657C105.591 144.723 105.563 144.776 105.506 144.815C105.45 144.854 105.373 144.873 105.275 144.873Z" fill="#E1251B"/>
<path d="M106.168 144.822C106.148 144.839 106.124 144.852 106.096 144.861C106.067 144.869 106.038 144.873 106.008 144.873C105.934 144.873 105.877 144.854 105.837 144.814C105.796 144.774 105.776 144.718 105.776 144.644V144.243H105.652V144.134H105.776V143.974H105.908V144.134H106.118V144.243H105.908V144.639C105.908 144.678 105.918 144.709 105.937 144.73C105.958 144.751 105.986 144.762 106.023 144.762C106.063 144.762 106.098 144.75 106.126 144.727L106.168 144.822Z" fill="#E1251B"/>
<path d="M99.6624 151.651C99.62 151.651 99.5786 151.646 99.5381 151.636C99.4977 151.625 99.4654 151.612 99.4414 151.596L99.4907 151.49C99.5135 151.505 99.541 151.517 99.5732 151.526C99.6055 151.535 99.6371 151.539 99.668 151.539C99.7306 151.539 99.7619 151.524 99.7619 151.493C99.7619 151.478 99.7534 151.468 99.7363 151.462C99.7193 151.455 99.693 151.45 99.6576 151.446C99.6159 151.439 99.5814 151.432 99.5543 151.424C99.5271 151.416 99.5034 151.401 99.4831 151.38C99.4635 151.359 99.4537 151.33 99.4537 151.291C99.4537 151.259 99.4629 151.23 99.4812 151.206C99.5002 151.18 99.5274 151.161 99.5628 151.147C99.5988 151.133 99.6412 151.126 99.6899 151.126C99.7259 151.126 99.7616 151.13 99.797 151.138C99.833 151.146 99.8628 151.157 99.8861 151.171L99.8368 151.276C99.792 151.251 99.743 151.238 99.6899 151.238C99.6582 151.238 99.6345 151.242 99.6187 151.251C99.6029 151.26 99.595 151.271 99.595 151.285C99.595 151.301 99.6036 151.312 99.6206 151.318C99.6377 151.325 99.6649 151.331 99.7022 151.337C99.7439 151.343 99.778 151.351 99.8046 151.359C99.8311 151.367 99.8542 151.381 99.8738 151.402C99.8934 151.423 99.9032 151.452 99.9032 151.489C99.9032 151.521 99.8937 151.549 99.8748 151.574C99.8558 151.598 99.828 151.618 99.7913 151.631C99.7553 151.645 99.7123 151.651 99.6624 151.651Z" fill="black"/>
<path d="M100.296 151.126C100.343 151.126 100.386 151.137 100.425 151.159C100.464 151.181 100.495 151.211 100.517 151.251C100.539 151.29 100.55 151.336 100.55 151.389C100.55 151.441 100.539 151.487 100.517 151.527C100.495 151.566 100.464 151.597 100.425 151.619C100.386 151.641 100.343 151.651 100.296 151.651C100.231 151.651 100.18 151.631 100.142 151.59V151.828H99.9945V151.134H100.136V151.192C100.172 151.148 100.226 151.126 100.296 151.126ZM100.27 151.53C100.308 151.53 100.339 151.517 100.363 151.492C100.388 151.466 100.4 151.432 100.4 151.389C100.4 151.346 100.388 151.312 100.363 151.286C100.339 151.26 100.308 151.247 100.27 151.247C100.233 151.247 100.201 151.26 100.177 151.286C100.153 151.312 100.141 151.346 100.141 151.389C100.141 151.432 100.153 151.466 100.177 151.492C100.201 151.517 100.233 151.53 100.27 151.53Z" fill="black"/>
<path d="M100.699 151.651C100.673 151.651 100.651 151.642 100.633 151.625C100.616 151.607 100.607 151.585 100.607 151.558C100.607 151.531 100.616 151.509 100.633 151.493C100.651 151.476 100.673 151.467 100.699 151.467C100.725 151.467 100.746 151.476 100.764 151.493C100.782 151.509 100.791 151.531 100.791 151.558C100.791 151.585 100.782 151.607 100.764 151.625C100.746 151.642 100.725 151.651 100.699 151.651Z" fill="black"/>
<path d="M101.411 151.134V151.558C101.411 151.652 101.386 151.722 101.338 151.767C101.289 151.813 101.218 151.835 101.124 151.835C101.075 151.835 101.028 151.829 100.984 151.817C100.94 151.805 100.903 151.788 100.874 151.765L100.933 151.659C100.954 151.677 100.981 151.691 101.014 151.701C101.047 151.711 101.08 151.717 101.113 151.717C101.164 151.717 101.202 151.705 101.226 151.682C101.25 151.659 101.263 151.624 101.263 151.577V151.556C101.224 151.598 101.17 151.619 101.102 151.619C101.055 151.619 101.012 151.609 100.973 151.589C100.934 151.568 100.903 151.539 100.881 151.502C100.858 151.464 100.846 151.421 100.846 151.373C100.846 151.324 100.858 151.281 100.881 151.244C100.903 151.206 100.934 151.178 100.973 151.157C101.012 151.136 101.055 151.126 101.102 151.126C101.176 151.126 101.232 151.15 101.27 151.199V151.134H101.411ZM101.131 151.498C101.17 151.498 101.202 151.486 101.227 151.464C101.252 151.44 101.265 151.41 101.265 151.373C101.265 151.335 101.252 151.305 101.227 151.282C101.202 151.259 101.17 151.247 101.131 151.247C101.092 151.247 101.06 151.259 101.034 151.282C101.009 151.305 100.996 151.335 100.996 151.373C100.996 151.41 101.009 151.44 101.034 151.464C101.06 151.486 101.092 151.498 101.131 151.498Z" fill="black"/>
<path d="M102.048 151.391C102.048 151.392 102.047 151.406 102.045 151.43H101.659C101.666 151.462 101.683 151.487 101.709 151.505C101.735 151.524 101.767 151.533 101.805 151.533C101.832 151.533 101.855 151.529 101.876 151.521C101.896 151.513 101.916 151.501 101.933 151.483L102.012 151.569C101.964 151.624 101.894 151.651 101.802 151.651C101.744 151.651 101.693 151.64 101.649 151.618C101.605 151.595 101.571 151.564 101.547 151.524C101.522 151.484 101.51 151.439 101.51 151.389C101.51 151.339 101.522 151.294 101.546 151.254C101.57 151.214 101.602 151.182 101.643 151.16C101.685 151.137 101.731 151.126 101.783 151.126C101.833 151.126 101.878 151.137 101.918 151.158C101.959 151.18 101.99 151.211 102.013 151.251C102.036 151.291 102.048 151.337 102.048 151.391ZM101.784 151.238C101.75 151.238 101.722 151.247 101.699 151.266C101.676 151.285 101.663 151.311 101.657 151.344H101.909C101.904 151.312 101.89 151.286 101.867 151.267C101.844 151.248 101.816 151.238 101.784 151.238Z" fill="black"/>
<path d="M102.457 151.126C102.52 151.126 102.571 151.145 102.609 151.183C102.649 151.221 102.668 151.277 102.668 151.352V151.644H102.52V151.374C102.52 151.334 102.511 151.304 102.494 151.284C102.476 151.264 102.45 151.254 102.417 151.254C102.38 151.254 102.35 151.266 102.328 151.289C102.306 151.312 102.295 151.346 102.295 151.392V151.644H102.147V151.134H102.288V151.193C102.308 151.172 102.332 151.155 102.361 151.144C102.39 151.132 102.422 151.126 102.457 151.126Z" fill="black"/>
<path d="M102.802 151.134H102.95V151.644H102.802V151.134ZM102.876 151.062C102.849 151.062 102.827 151.055 102.81 151.039C102.793 151.023 102.784 151.003 102.784 150.98C102.784 150.957 102.793 150.937 102.81 150.921C102.827 150.905 102.849 150.897 102.876 150.897C102.903 150.897 102.926 150.905 102.943 150.92C102.96 150.935 102.968 150.954 102.968 150.977C102.968 151.002 102.96 151.022 102.943 151.039C102.926 151.055 102.903 151.062 102.876 151.062Z" fill="black"/>
<path d="M103.601 151.134V151.644H103.461V151.583C103.442 151.605 103.418 151.622 103.391 151.634C103.364 151.646 103.334 151.651 103.303 151.651C103.236 151.651 103.183 151.632 103.143 151.593C103.104 151.555 103.085 151.498 103.085 151.422V151.134H103.233V151.4C103.233 151.482 103.267 151.523 103.336 151.523C103.371 151.523 103.4 151.512 103.421 151.489C103.443 151.466 103.454 151.431 103.454 151.386V151.134H103.601Z" fill="black"/>
<path d="M103.91 151.651C103.868 151.651 103.826 151.646 103.786 151.636C103.745 151.625 103.713 151.612 103.689 151.596L103.739 151.49C103.761 151.505 103.789 151.517 103.821 151.526C103.853 151.535 103.885 151.539 103.916 151.539C103.978 151.539 104.01 151.524 104.01 151.493C104.01 151.478 104.001 151.468 103.984 151.462C103.967 151.455 103.941 151.45 103.905 151.446C103.864 151.439 103.829 151.432 103.802 151.424C103.775 151.416 103.751 151.401 103.731 151.38C103.711 151.359 103.702 151.33 103.702 151.291C103.702 151.259 103.711 151.23 103.729 151.206C103.748 151.18 103.775 151.161 103.811 151.147C103.847 151.133 103.889 151.126 103.938 151.126C103.974 151.126 104.009 151.13 104.045 151.138C104.081 151.146 104.111 151.157 104.134 151.171L104.085 151.276C104.04 151.251 103.991 151.238 103.938 151.238C103.906 151.238 103.882 151.242 103.867 151.251C103.851 151.26 103.843 151.271 103.843 151.285C103.843 151.301 103.851 151.312 103.868 151.318C103.885 151.325 103.913 151.331 103.95 151.337C103.992 151.343 104.026 151.351 104.052 151.359C104.079 151.367 104.102 151.381 104.122 151.402C104.141 151.423 104.151 151.452 104.151 151.489C104.151 151.521 104.142 151.549 104.123 151.574C104.104 151.598 104.076 151.618 104.039 151.631C104.003 151.645 103.96 151.651 103.91 151.651Z" fill="black"/>
<path d="M104.571 151.619C104.557 151.63 104.539 151.638 104.517 151.644C104.496 151.649 104.474 151.651 104.451 151.651C104.39 151.651 104.343 151.636 104.31 151.605C104.277 151.574 104.26 151.528 104.26 151.468V151.259H104.182V151.145H104.26V151.021H104.408V151.145H104.535V151.259H104.408V151.466C104.408 151.488 104.414 151.505 104.424 151.517C104.436 151.528 104.452 151.534 104.472 151.534C104.495 151.534 104.515 151.527 104.532 151.515L104.571 151.619Z" fill="black"/>
<path d="M104.86 151.126C104.939 151.126 105 151.145 105.042 151.183C105.085 151.22 105.106 151.277 105.106 151.353V151.644H104.967V151.58C104.939 151.628 104.888 151.651 104.812 151.651C104.773 151.651 104.738 151.645 104.709 151.631C104.681 151.618 104.659 151.6 104.644 151.576C104.629 151.553 104.621 151.526 104.621 151.497C104.621 151.449 104.639 151.412 104.674 151.385C104.71 151.358 104.766 151.344 104.84 151.344H104.958C104.958 151.312 104.948 151.287 104.928 151.27C104.909 151.252 104.879 151.244 104.84 151.244C104.813 151.244 104.786 151.248 104.76 151.257C104.734 151.265 104.712 151.276 104.693 151.291L104.64 151.188C104.668 151.168 104.701 151.153 104.74 151.142C104.779 151.131 104.819 151.126 104.86 151.126ZM104.849 151.552C104.874 151.552 104.897 151.546 104.916 151.535C104.936 151.523 104.95 151.505 104.958 151.483V151.43H104.856C104.796 151.43 104.765 151.45 104.765 151.49C104.765 151.509 104.773 151.524 104.787 151.536C104.802 151.546 104.823 151.552 104.849 151.552Z" fill="black"/>
<path d="M105.771 151.134V151.558C105.771 151.652 105.747 151.722 105.698 151.767C105.65 151.813 105.579 151.835 105.485 151.835C105.436 151.835 105.389 151.829 105.345 151.817C105.301 151.805 105.264 151.788 105.235 151.765L105.294 151.659C105.315 151.677 105.342 151.691 105.375 151.701C105.408 151.711 105.441 151.717 105.474 151.717C105.525 151.717 105.563 151.705 105.587 151.682C105.611 151.659 105.624 151.624 105.624 151.577V151.556C105.585 151.598 105.531 151.619 105.462 151.619C105.416 151.619 105.373 151.609 105.333 151.589C105.295 151.568 105.264 151.539 105.241 151.502C105.219 151.464 105.207 151.421 105.207 151.373C105.207 151.324 105.219 151.281 105.241 151.244C105.264 151.206 105.295 151.178 105.333 151.157C105.373 151.136 105.416 151.126 105.462 151.126C105.536 151.126 105.593 151.15 105.631 151.199V151.134H105.771ZM105.492 151.498C105.531 151.498 105.563 151.486 105.588 151.464C105.613 151.44 105.625 151.41 105.625 151.373C105.625 151.335 105.613 151.305 105.588 151.282C105.563 151.259 105.531 151.247 105.492 151.247C105.453 151.247 105.42 151.259 105.395 151.282C105.37 151.305 105.357 151.335 105.357 151.373C105.357 151.41 105.37 151.44 105.395 151.464C105.42 151.486 105.453 151.498 105.492 151.498Z" fill="black"/>
<path d="M105.965 151.651C105.939 151.651 105.917 151.642 105.9 151.625C105.882 151.607 105.873 151.585 105.873 151.558C105.873 151.531 105.882 151.509 105.9 151.493C105.917 151.476 105.939 151.467 105.965 151.467C105.991 151.467 106.013 151.476 106.031 151.493C106.048 151.509 106.057 151.531 106.057 151.558C106.057 151.585 106.048 151.607 106.031 151.625C106.013 151.642 105.991 151.651 105.965 151.651Z" fill="black"/>
<path d="M106.397 151.651C106.343 151.651 106.294 151.64 106.25 151.618C106.207 151.595 106.174 151.564 106.149 151.524C106.125 151.484 106.113 151.439 106.113 151.389C106.113 151.338 106.125 151.293 106.149 151.253C106.174 151.213 106.207 151.182 106.25 151.16C106.294 151.137 106.343 151.126 106.397 151.126C106.451 151.126 106.498 151.137 106.538 151.16C106.578 151.182 106.608 151.214 106.626 151.256L106.511 151.318C106.485 151.271 106.446 151.247 106.396 151.247C106.358 151.247 106.326 151.26 106.301 151.285C106.275 151.311 106.263 151.345 106.263 151.389C106.263 151.432 106.275 151.467 106.301 151.492C106.326 151.517 106.358 151.53 106.396 151.53C106.447 151.53 106.485 151.507 106.511 151.46L106.626 151.522C106.608 151.563 106.578 151.594 106.538 151.617C106.498 151.64 106.451 151.651 106.397 151.651Z" fill="black"/>
<path d="M106.947 151.651C106.894 151.651 106.845 151.64 106.802 151.618C106.76 151.595 106.727 151.564 106.703 151.524C106.679 151.484 106.667 151.439 106.667 151.389C106.667 151.338 106.679 151.293 106.703 151.253C106.727 151.213 106.76 151.182 106.802 151.16C106.845 151.137 106.894 151.126 106.947 151.126C107.001 151.126 107.049 151.137 107.092 151.16C107.134 151.182 107.167 151.213 107.191 151.253C107.215 151.293 107.227 151.338 107.227 151.389C107.227 151.439 107.215 151.484 107.191 151.524C107.167 151.564 107.134 151.595 107.092 151.618C107.049 151.64 107.001 151.651 106.947 151.651ZM106.947 151.53C106.985 151.53 107.016 151.517 107.04 151.492C107.065 151.466 107.077 151.432 107.077 151.389C107.077 151.346 107.065 151.312 107.04 151.286C107.016 151.26 106.985 151.247 106.947 151.247C106.909 151.247 106.878 151.26 106.854 151.286C106.829 151.312 106.817 151.346 106.817 151.389C106.817 151.432 106.829 151.466 106.854 151.492C106.878 151.517 106.909 151.53 106.947 151.53Z" fill="black"/>
<path d="M107.979 151.126C108.043 151.126 108.094 151.145 108.131 151.183C108.169 151.22 108.188 151.276 108.188 151.352V151.644H108.04V151.374C108.04 151.334 108.032 151.304 108.014 151.284C107.998 151.264 107.974 151.254 107.943 151.254C107.909 151.254 107.881 151.265 107.861 151.288C107.841 151.31 107.831 151.343 107.831 151.388V151.644H107.683V151.374C107.683 151.294 107.65 151.254 107.586 151.254C107.552 151.254 107.525 151.265 107.504 151.288C107.484 151.31 107.474 151.343 107.474 151.388V151.644H107.326V151.134H107.467V151.192C107.486 151.171 107.509 151.154 107.537 151.143C107.564 151.132 107.595 151.126 107.628 151.126C107.664 151.126 107.696 151.133 107.725 151.148C107.754 151.162 107.778 151.182 107.795 151.209C107.816 151.183 107.843 151.162 107.874 151.148C107.906 151.133 107.941 151.126 107.979 151.126Z" fill="black"/>
<path d="M99.9892 152.359C99.9898 152.382 99.9965 152.404 100.009 152.423C100.023 152.441 100.04 152.459 100.062 152.476C100.084 152.492 100.108 152.509 100.136 152.525C100.163 152.541 100.191 152.558 100.22 152.576C100.249 152.593 100.277 152.612 100.305 152.633C100.332 152.654 100.357 152.677 100.379 152.704C100.401 152.73 100.419 152.76 100.432 152.793C100.446 152.826 100.453 152.864 100.454 152.906V152.913C100.454 152.959 100.448 152.999 100.437 153.033C100.426 153.067 100.411 153.097 100.392 153.121C100.374 153.146 100.352 153.167 100.328 153.183C100.303 153.199 100.277 153.211 100.249 153.221C100.222 153.23 100.195 153.237 100.167 153.241C100.139 153.245 100.113 153.247 100.089 153.248H100.08C100.032 153.248 99.9906 153.243 99.9547 153.233C99.9188 153.224 99.8879 153.211 99.8621 153.195C99.8363 153.179 99.8147 153.161 99.7973 153.14C99.7804 153.119 99.767 153.098 99.7569 153.076C99.7468 153.053 99.7395 153.031 99.735 153.009C99.7305 152.988 99.7282 152.967 99.7282 152.948C99.7282 152.928 99.7316 152.911 99.7384 152.897C99.7451 152.882 99.7538 152.87 99.7644 152.861C99.7757 152.852 99.7883 152.845 99.8023 152.84C99.8169 152.836 99.8321 152.833 99.8478 152.833C99.8624 152.833 99.8773 152.836 99.8924 152.84C99.9081 152.845 99.9222 152.852 99.9345 152.861C99.9474 152.87 99.9578 152.882 99.9657 152.897C99.9741 152.911 99.9786 152.927 99.9791 152.946C99.9802 152.988 99.9898 153.017 100.008 153.033C100.026 153.048 100.052 153.056 100.085 153.056C100.102 153.055 100.117 153.053 100.132 153.05C100.146 153.046 100.158 153.039 100.169 153.03C100.179 153.021 100.187 153.009 100.192 152.993C100.198 152.978 100.201 152.958 100.201 152.934C100.201 152.905 100.195 152.879 100.181 152.855C100.168 152.832 100.151 152.81 100.13 152.79C100.108 152.769 100.084 152.75 100.057 152.732C100.029 152.714 100.001 152.696 99.9724 152.678C99.9438 152.659 99.9157 152.64 99.8882 152.62C99.8613 152.6 99.8368 152.578 99.815 152.555C99.7931 152.531 99.7754 152.505 99.7619 152.477C99.749 152.448 99.7423 152.415 99.7417 152.379V152.365C99.7423 152.305 99.7501 152.255 99.7653 152.216C99.781 152.176 99.8037 152.144 99.8335 152.12C99.8638 152.097 99.9008 152.08 99.9446 152.071C99.9884 152.061 100.039 152.056 100.095 152.056H100.117C100.169 152.056 100.213 152.061 100.249 152.072C100.284 152.084 100.314 152.098 100.338 152.115C100.362 152.133 100.381 152.152 100.394 152.174C100.408 152.196 100.419 152.218 100.425 152.239C100.432 152.26 100.436 152.28 100.438 152.299C100.44 152.317 100.44 152.332 100.44 152.343C100.44 152.36 100.437 152.376 100.43 152.39C100.424 152.403 100.415 152.415 100.404 152.424C100.394 152.434 100.381 152.441 100.366 152.447C100.351 152.452 100.335 152.455 100.318 152.455C100.304 152.455 100.291 152.452 100.277 152.447C100.264 152.441 100.252 152.434 100.241 152.426C100.23 152.418 100.222 152.408 100.215 152.397C100.208 152.386 100.205 152.375 100.205 152.364C100.205 152.318 100.196 152.286 100.179 152.268C100.163 152.25 100.139 152.241 100.107 152.241C100.092 152.241 100.077 152.242 100.062 152.243C100.048 152.245 100.036 152.25 100.025 152.258C100.014 152.265 100.005 152.276 99.9985 152.292C99.9923 152.308 99.9892 152.33 99.9892 152.359Z" fill="black"/>
<path d="M100.883 152.776V153.049C100.883 153.073 100.882 153.097 100.881 153.12C100.88 153.143 100.875 153.163 100.866 153.181C100.859 153.199 100.846 153.214 100.829 153.225C100.811 153.236 100.786 153.241 100.754 153.241C100.722 153.241 100.698 153.236 100.68 153.225C100.664 153.214 100.651 153.199 100.643 153.181C100.635 153.163 100.631 153.143 100.629 153.12C100.628 153.097 100.627 153.073 100.627 153.049V152.254C100.627 152.23 100.628 152.207 100.629 152.184C100.631 152.161 100.635 152.14 100.643 152.122C100.651 152.104 100.664 152.09 100.68 152.079C100.698 152.068 100.722 152.062 100.754 152.062H101.031C101.101 152.066 101.163 152.08 101.218 152.106C101.242 152.117 101.265 152.131 101.287 152.148C101.309 152.165 101.329 152.186 101.346 152.21C101.364 152.235 101.379 152.264 101.389 152.297C101.4 152.33 101.405 152.369 101.405 152.413C101.405 152.473 101.396 152.525 101.377 152.571C101.358 152.616 101.331 152.654 101.295 152.684C101.26 152.715 101.216 152.738 101.164 152.753C101.113 152.769 101.056 152.776 100.991 152.776H100.883ZM100.998 152.576C101.026 152.574 101.051 152.567 101.074 152.556C101.083 152.551 101.092 152.544 101.101 152.536C101.11 152.528 101.118 152.519 101.126 152.508C101.133 152.496 101.139 152.482 101.143 152.466C101.147 152.451 101.149 152.433 101.149 152.413C101.149 152.393 101.147 152.377 101.143 152.363C101.139 152.348 101.133 152.336 101.127 152.326C101.12 152.315 101.112 152.306 101.104 152.299C101.095 152.292 101.087 152.285 101.078 152.28C101.056 152.27 101.033 152.263 101.006 152.261H100.883V152.576H100.998Z" fill="black"/>
<path d="M101.631 152.837C101.615 152.837 101.6 152.836 101.585 152.834C101.571 152.832 101.558 152.828 101.547 152.821C101.535 152.814 101.526 152.803 101.52 152.791C101.513 152.777 101.51 152.759 101.51 152.736C101.51 152.711 101.513 152.692 101.52 152.678C101.526 152.664 101.535 152.653 101.547 152.647C101.558 152.64 101.571 152.636 101.585 152.634C101.6 152.632 101.615 152.631 101.631 152.631H102.003C102.017 152.631 102.031 152.632 102.046 152.634C102.06 152.636 102.073 152.64 102.085 152.647C102.096 152.653 102.106 152.664 102.113 152.678C102.121 152.692 102.124 152.711 102.124 152.736C102.124 152.759 102.121 152.777 102.113 152.791C102.106 152.803 102.096 152.814 102.085 152.821C102.073 152.828 102.06 152.832 102.046 152.834C102.031 152.836 102.017 152.837 102.003 152.837H101.631Z" fill="black"/>
<path d="M102.559 152.64L102.346 152.318C102.334 152.3 102.323 152.281 102.313 152.263C102.304 152.248 102.296 152.232 102.289 152.215C102.282 152.198 102.279 152.184 102.279 152.172C102.279 152.157 102.283 152.141 102.292 152.125C102.301 152.11 102.316 152.095 102.338 152.083C102.363 152.069 102.386 152.062 102.407 152.062C102.423 152.062 102.437 152.066 102.45 152.073C102.463 152.08 102.476 152.089 102.486 152.101C102.497 152.112 102.508 152.125 102.517 152.14C102.527 152.154 102.536 152.169 102.545 152.184L102.702 152.441H102.727L102.884 152.184C102.893 152.169 102.902 152.154 102.911 152.14C102.921 152.125 102.931 152.112 102.942 152.101C102.953 152.089 102.965 152.08 102.978 152.073C102.991 152.066 103.005 152.062 103.022 152.062C103.032 152.062 103.042 152.064 103.054 152.068C103.065 152.072 103.078 152.077 103.091 152.084C103.114 152.097 103.131 152.111 103.139 152.126C103.148 152.141 103.153 152.155 103.153 152.17C103.153 152.182 103.149 152.197 103.142 152.214C103.135 152.231 103.127 152.247 103.118 152.263C103.107 152.281 103.096 152.3 103.082 152.318L102.872 152.64V152.655L103.106 153.024C103.118 153.042 103.128 153.061 103.136 153.079C103.145 153.097 103.15 153.115 103.15 153.133C103.15 153.148 103.145 153.163 103.137 153.179C103.129 153.193 103.114 153.207 103.092 153.221C103.067 153.234 103.044 153.241 103.023 153.241C103.009 153.241 102.996 153.238 102.984 153.232C102.972 153.226 102.961 153.218 102.951 153.209C102.941 153.199 102.931 153.188 102.922 153.176C102.914 153.164 102.905 153.151 102.897 153.138L102.727 152.862H102.702L102.532 153.138C102.523 153.151 102.515 153.164 102.506 153.176C102.497 153.188 102.488 153.199 102.478 153.209C102.468 153.218 102.458 153.226 102.446 153.232C102.434 153.238 102.421 153.241 102.407 153.241C102.386 153.241 102.363 153.234 102.34 153.221C102.317 153.207 102.301 153.193 102.292 153.179C102.283 153.163 102.279 153.148 102.279 153.133C102.279 153.115 102.283 153.097 102.292 153.079C102.301 153.061 102.311 153.042 102.323 153.024L102.559 152.655V152.64Z" fill="black"/>
<path d="M103.523 152.64L103.311 152.318C103.299 152.3 103.288 152.281 103.278 152.263C103.269 152.248 103.261 152.232 103.254 152.215C103.247 152.198 103.244 152.184 103.244 152.172C103.244 152.157 103.248 152.141 103.257 152.125C103.265 152.11 103.281 152.095 103.303 152.083C103.328 152.069 103.351 152.062 103.372 152.062C103.388 152.062 103.402 152.066 103.415 152.073C103.428 152.08 103.44 152.089 103.451 152.101C103.462 152.112 103.473 152.125 103.482 152.14C103.492 152.154 103.501 152.169 103.51 152.184L103.666 152.441H103.692L103.848 152.184C103.857 152.169 103.867 152.154 103.876 152.14C103.886 152.125 103.896 152.112 103.906 152.101C103.918 152.089 103.93 152.08 103.943 152.073C103.956 152.066 103.97 152.062 103.986 152.062C103.997 152.062 104.007 152.064 104.018 152.068C104.03 152.072 104.043 152.077 104.055 152.084C104.079 152.097 104.095 152.111 104.104 152.126C104.113 152.141 104.118 152.155 104.118 152.17C104.118 152.182 104.114 152.197 104.107 152.214C104.099 152.231 104.091 152.247 104.082 152.263C104.072 152.281 104.06 152.3 104.047 152.318L103.837 152.64V152.655L104.071 153.024C104.082 153.042 104.092 153.061 104.101 153.079C104.11 153.097 104.114 153.115 104.114 153.133C104.114 153.148 104.11 153.163 104.102 153.179C104.094 153.193 104.079 153.207 104.057 153.221C104.032 153.234 104.009 153.241 103.988 153.241C103.973 153.241 103.96 153.238 103.949 153.232C103.937 153.226 103.926 153.218 103.916 153.209C103.906 153.199 103.896 153.188 103.887 153.176C103.879 153.164 103.87 153.151 103.862 153.138L103.692 152.862H103.666L103.496 153.138C103.488 153.151 103.479 153.164 103.47 153.176C103.462 153.188 103.453 153.199 103.443 153.209C103.433 153.218 103.422 153.226 103.411 153.232C103.399 153.238 103.386 153.241 103.372 153.241C103.351 153.241 103.328 153.234 103.304 153.221C103.281 153.207 103.265 153.193 103.257 153.179C103.248 153.163 103.244 153.148 103.244 153.133C103.244 153.115 103.248 153.097 103.257 153.079C103.265 153.061 103.276 153.042 103.288 153.024L103.523 152.655V152.64Z" fill="black"/>
<path d="M104.488 152.64L104.276 152.318C104.264 152.3 104.252 152.281 104.242 152.263C104.234 152.248 104.226 152.232 104.219 152.215C104.212 152.198 104.209 152.184 104.209 152.172C104.209 152.157 104.213 152.141 104.221 152.125C104.23 152.11 104.246 152.095 104.268 152.083C104.293 152.069 104.316 152.062 104.337 152.062C104.352 152.062 104.367 152.066 104.38 152.073C104.393 152.08 104.405 152.089 104.416 152.101C104.427 152.112 104.437 152.125 104.447 152.14C104.456 152.154 104.466 152.169 104.475 152.184L104.631 152.441H104.657L104.813 152.184C104.822 152.169 104.831 152.154 104.841 152.14C104.85 152.125 104.861 152.112 104.871 152.101C104.882 152.089 104.894 152.08 104.907 152.073C104.92 152.066 104.935 152.062 104.951 152.062C104.961 152.062 104.972 152.064 104.983 152.068C104.995 152.072 105.007 152.077 105.02 152.084C105.044 152.097 105.06 152.111 105.069 152.126C105.078 152.141 105.083 152.155 105.083 152.17C105.083 152.182 105.079 152.197 105.072 152.214C105.064 152.231 105.056 152.247 105.047 152.263C105.037 152.281 105.025 152.3 105.012 152.318L104.801 152.64V152.655L105.035 153.024C105.047 153.042 105.057 153.061 105.066 153.079C105.075 153.097 105.079 153.115 105.079 153.133C105.079 153.148 105.075 153.163 105.067 153.179C105.059 153.193 105.044 153.207 105.022 153.221C104.997 153.234 104.974 153.241 104.953 153.241C104.938 153.241 104.925 153.238 104.913 153.232C104.902 153.226 104.891 153.218 104.88 153.209C104.87 153.199 104.861 153.188 104.852 153.176C104.843 153.164 104.835 153.151 104.827 153.138L104.657 152.862H104.631L104.461 153.138C104.453 153.151 104.444 153.164 104.435 153.176C104.427 153.188 104.417 153.199 104.407 153.209C104.398 153.218 104.387 153.226 104.375 153.232C104.364 153.238 104.351 153.241 104.337 153.241C104.315 153.241 104.293 153.234 104.269 153.221C104.246 153.207 104.23 153.193 104.221 153.179C104.213 153.163 104.209 153.148 104.209 153.133C104.209 153.115 104.213 153.097 104.221 153.079C104.23 153.061 104.241 153.042 104.252 153.024L104.488 152.655V152.64Z" fill="black"/>
<path d="M105.453 152.64L105.241 152.318C105.228 152.3 105.217 152.281 105.207 152.263C105.199 152.248 105.191 152.232 105.184 152.215C105.177 152.198 105.173 152.184 105.173 152.172C105.173 152.157 105.178 152.141 105.186 152.125C105.195 152.11 105.21 152.095 105.232 152.083C105.258 152.069 105.281 152.062 105.301 152.062C105.317 152.062 105.331 152.066 105.344 152.073C105.358 152.08 105.37 152.089 105.381 152.101C105.392 152.112 105.402 152.125 105.412 152.14C105.421 152.154 105.43 152.169 105.439 152.184L105.596 152.441H105.621L105.778 152.184C105.787 152.169 105.796 152.154 105.806 152.14C105.815 152.125 105.825 152.112 105.836 152.101C105.847 152.089 105.859 152.08 105.872 152.073C105.885 152.066 105.9 152.062 105.916 152.062C105.926 152.062 105.937 152.064 105.948 152.068C105.96 152.072 105.972 152.077 105.985 152.084C106.009 152.097 106.025 152.111 106.034 152.126C106.043 152.141 106.047 152.155 106.047 152.17C106.047 152.182 106.044 152.197 106.036 152.214C106.029 152.231 106.021 152.247 106.012 152.263C106.002 152.281 105.99 152.3 105.977 152.318L105.766 152.64V152.655L106 153.024C106.012 153.042 106.022 153.061 106.03 153.079C106.039 153.097 106.044 153.115 106.044 153.133C106.044 153.148 106.04 153.163 106.031 153.179C106.023 153.193 106.009 153.207 105.987 153.221C105.961 153.234 105.938 153.241 105.918 153.241C105.903 153.241 105.89 153.238 105.878 153.232C105.866 153.226 105.855 153.218 105.845 153.209C105.835 153.199 105.826 153.188 105.817 153.176C105.808 153.164 105.8 153.151 105.791 153.138L105.621 152.862H105.596L105.426 153.138C105.418 153.151 105.409 153.164 105.4 153.176C105.391 153.188 105.382 153.199 105.372 153.209C105.363 153.218 105.352 153.226 105.34 153.232C105.328 153.238 105.315 153.241 105.301 153.241C105.28 153.241 105.258 153.234 105.234 153.221C105.211 153.207 105.195 153.193 105.186 153.179C105.178 153.163 105.173 153.148 105.173 153.133C105.173 153.115 105.178 153.097 105.186 153.079C105.195 153.061 105.205 153.042 105.217 153.024L105.453 152.655V152.64Z" fill="black"/>
<path d="M106.418 152.64L106.206 152.318C106.193 152.3 106.182 152.281 106.172 152.263C106.163 152.248 106.156 152.232 106.148 152.215C106.142 152.198 106.138 152.184 106.138 152.172C106.138 152.157 106.142 152.141 106.151 152.125C106.16 152.11 106.175 152.095 106.197 152.083C106.222 152.069 106.245 152.062 106.266 152.062C106.282 152.062 106.296 152.066 106.309 152.073C106.323 152.08 106.335 152.089 106.345 152.101C106.357 152.112 106.367 152.125 106.376 152.14C106.386 152.154 106.395 152.169 106.404 152.184L106.561 152.441H106.586L106.743 152.184C106.752 152.169 106.761 152.154 106.77 152.14C106.78 152.125 106.79 152.112 106.801 152.101C106.812 152.089 106.824 152.08 106.837 152.073C106.85 152.066 106.864 152.062 106.881 152.062C106.891 152.062 106.902 152.064 106.913 152.068C106.925 152.072 106.937 152.077 106.95 152.084C106.973 152.097 106.99 152.111 106.999 152.126C107.008 152.141 107.012 152.155 107.012 152.17C107.012 152.182 107.008 152.197 107.001 152.214C106.994 152.231 106.986 152.247 106.977 152.263C106.967 152.281 106.955 152.3 106.941 152.318L106.731 152.64V152.655L106.965 153.024C106.977 153.042 106.987 153.061 106.995 153.079C107.004 153.097 107.009 153.115 107.009 153.133C107.009 153.148 107.004 153.163 106.996 153.179C106.988 153.193 106.973 153.207 106.951 153.221C106.926 153.234 106.903 153.241 106.882 153.241C106.868 153.241 106.855 153.238 106.843 153.232C106.831 153.226 106.82 153.218 106.81 153.209C106.8 153.199 106.79 153.188 106.781 153.176C106.773 153.164 106.765 153.151 106.756 153.138L106.586 152.862H106.561L106.391 153.138C106.382 153.151 106.374 153.164 106.365 153.176C106.356 153.188 106.347 153.199 106.337 153.209C106.327 153.218 106.317 153.226 106.305 153.232C106.293 153.238 106.28 153.241 106.266 153.241C106.245 153.241 106.222 153.234 106.199 153.221C106.176 153.207 106.16 153.193 106.151 153.179C106.142 153.163 106.138 153.148 106.138 153.133C106.138 153.115 106.142 153.097 106.151 153.079C106.16 153.061 106.17 153.042 106.182 153.024L106.418 152.655V152.64Z" fill="black"/>
<path d="M107.382 152.64L107.17 152.318C107.158 152.3 107.147 152.281 107.137 152.263C107.128 152.248 107.12 152.232 107.113 152.215C107.106 152.198 107.103 152.184 107.103 152.172C107.103 152.157 107.107 152.141 107.116 152.125C107.125 152.11 107.14 152.095 107.162 152.083C107.187 152.069 107.21 152.062 107.231 152.062C107.247 152.062 107.261 152.066 107.274 152.073C107.287 152.08 107.299 152.089 107.31 152.101C107.321 152.112 107.332 152.125 107.341 152.14C107.351 152.154 107.36 152.169 107.369 152.184L107.526 152.441H107.551L107.707 152.184C107.716 152.169 107.726 152.154 107.735 152.14C107.745 152.125 107.755 152.112 107.766 152.101C107.777 152.089 107.789 152.08 107.802 152.073C107.815 152.066 107.829 152.062 107.846 152.062C107.856 152.062 107.866 152.064 107.878 152.068C107.889 152.072 107.902 152.077 107.915 152.084C107.938 152.097 107.954 152.111 107.963 152.126C107.972 152.141 107.977 152.155 107.977 152.17C107.977 152.182 107.973 152.197 107.966 152.214C107.959 152.231 107.95 152.247 107.941 152.263C107.931 152.281 107.92 152.3 107.906 152.318L107.696 152.64V152.655L107.93 153.024C107.941 153.042 107.952 153.061 107.96 153.079C107.969 153.097 107.973 153.115 107.973 153.133C107.973 153.148 107.969 153.163 107.961 153.179C107.953 153.193 107.938 153.207 107.916 153.221C107.891 153.234 107.868 153.241 107.847 153.241C107.833 153.241 107.819 153.238 107.808 153.232C107.796 153.226 107.785 153.218 107.775 153.209C107.765 153.199 107.755 153.188 107.746 153.176C107.738 153.164 107.729 153.151 107.721 153.138L107.551 152.862H107.526L107.356 153.138C107.347 153.151 107.338 153.164 107.329 153.176C107.321 153.188 107.312 153.199 107.302 153.209C107.292 153.218 107.281 153.226 107.27 153.232C107.258 153.238 107.245 153.241 107.231 153.241C107.21 153.241 107.187 153.234 107.164 153.221C107.141 153.207 107.125 153.193 107.116 153.179C107.107 153.163 107.103 153.148 107.103 153.133C107.103 153.115 107.107 153.097 107.116 153.079C107.125 153.061 107.135 153.042 107.147 153.024L107.382 152.655V152.64Z" fill="black"/>
<path d="M103.444 140.454C103.804 140.454 104.095 140.171 104.095 139.82C104.095 139.47 103.804 139.187 103.444 139.187C103.084 139.187 102.793 139.47 102.793 139.82C102.793 140.171 103.084 140.454 103.444 140.454Z" fill="#141414" stroke="#141414" stroke-width="0.171329" stroke-miterlimit="10"/>
</g>
<path opacity="0.21" d="M38.0533 125.297C30.8362 130.672 20.6282 129.178 15.2531 121.961C9.87804 114.744 11.3713 104.536 18.5885 99.1611C25.8056 93.7861 36.0136 95.2794 41.3887 102.496C46.7637 109.714 45.2705 119.922 38.0533 125.297Z" fill="white"/>
<path opacity="0.76" d="M31.3159 99.7538C31.3979 99.1935 31.0065 98.668 30.4462 98.586C22.3213 97.3974 14.7305 103.051 13.5419 111.176C13.46 111.736 13.8514 112.262 14.4117 112.344C14.972 112.425 15.4975 112.034 15.5795 111.474C16.6041 104.47 23.1439 99.599 30.1481 100.624C30.7085 100.706 31.234 100.314 31.3159 99.7538Z" fill="white"/>
<path opacity="0.58" d="M44.9496 114.645C46.2909 105.476 39.92 96.9218 30.7509 95.5805C21.5818 94.2391 13.0275 100.61 11.6861 109.779C10.3448 118.948 16.7158 127.503 25.8849 128.844C35.054 130.185 43.6083 123.814 44.9496 114.645ZM12.7049 109.928C13.9643 101.319 21.9931 95.3399 30.6018 96.5992C39.2106 97.8586 45.1902 105.887 43.9308 114.496C42.6715 123.105 34.6427 129.084 26.0339 127.825C17.4252 126.566 11.4456 118.537 12.7049 109.928Z" fill="#5547D2"/>
<path d="M37.688 128.711C37.6588 128.733 37.6297 128.754 37.6259 128.78C34.0845 130.759 29.8951 131.655 25.5653 131.022C15.1736 129.502 7.97643 119.838 9.49658 109.446C11.0167 99.0545 20.6805 91.8573 31.0721 93.3774C41.4638 94.8976 48.661 104.561 47.1408 114.953C46.5112 119.257 44.4782 123.018 41.5711 125.819L39.0894 127.667L37.688 128.711ZM44.4411 114.558C45.7451 105.644 39.5916 97.3813 30.6772 96.0772C21.7628 94.7732 13.5004 100.927 12.1964 109.841C10.8923 118.755 17.0458 127.018 25.9602 128.322C34.8492 129.622 43.137 123.472 44.4411 114.558Z" fill="#5547D2"/>
<path d="M47.3707 114.989C48.9095 104.47 41.6036 94.6607 31.0846 93.1219C20.5873 91.6123 10.7776 98.9183 9.24252 109.412C7.70374 119.931 15.0097 129.74 25.5287 131.279C29.7821 131.902 34.0075 131.115 37.7496 129.009L37.808 128.965C37.8372 128.944 37.8409 128.918 37.8664 128.922L41.7494 126.03C44.8136 123.044 46.7522 119.217 47.3707 114.989ZM9.75192 109.486C11.2497 99.2475 20.7967 92.1372 31.0355 93.635C41.2743 95.1328 48.3846 104.68 46.8868 114.919C46.2869 119.019 44.3887 122.748 41.4158 125.643L37.5619 128.513C37.5327 128.535 37.5035 128.557 37.4744 128.578C33.8454 130.623 29.7293 131.373 25.6032 130.77C15.3644 129.272 8.25412 119.725 9.75192 109.486ZM44.6964 114.598C46.0191 105.556 39.7568 97.1481 30.7151 95.8254C21.6733 94.5027 13.265 100.765 11.9423 109.807C10.6196 118.848 16.8819 127.257 25.9236 128.579C34.9654 129.902 43.3737 123.64 44.6964 114.598ZM12.4517 109.881C13.7297 101.145 21.879 95.0531 30.6406 96.3348C39.3767 97.6128 45.4687 105.762 44.187 114.524C42.909 123.26 34.7597 129.352 25.9981 128.07C17.2365 126.788 11.17 118.643 12.4517 109.881Z" fill="#5547D2"/>
<path d="M40.7103 128.692L40.0797 127.845C39.8406 127.524 39.3821 127.457 39.0609 127.696L41.5426 125.848L41.5718 125.826C41.8929 125.587 42.3514 125.654 42.5906 125.975L43.3516 126.997C42.8267 127.207 41.7613 127.909 40.7103 128.692Z" fill="#4C65BA"/>
<path d="M39.0599 127.692C39.381 127.453 39.8395 127.52 40.0787 127.841L40.7092 128.688C39.6874 129.449 38.7128 130.243 38.2817 130.7L37.5641 129.737C37.3467 129.445 37.3808 129.034 37.651 128.787C37.6802 128.765 37.7094 128.743 37.7132 128.718L39.0599 127.692Z" fill="#4C65BA"/>
<path opacity="0.43" d="M39.0599 127.692C39.381 127.453 39.8395 127.52 40.0787 127.841L40.7092 128.688C39.6874 129.449 38.7128 130.243 38.2817 130.7L37.5641 129.737C37.3467 129.445 37.3808 129.034 37.651 128.787C37.6802 128.765 37.7094 128.743 37.7132 128.718L39.0599 127.692Z" fill="#5547D2"/>
<path d="M49.5069 146.292L38.0473 131.088C38.0038 131.03 38.1026 130.888 38.2597 130.703C38.6908 130.246 39.6692 129.426 40.6873 128.691C41.7383 127.908 42.8291 127.209 43.3578 126.974C43.5255 126.895 43.6566 126.888 43.6783 126.917L55.1379 142.121C56.2904 143.669 55.9699 145.859 54.4263 146.986C52.8752 148.164 50.6593 147.84 49.5069 146.292Z" fill="#A199E6"/>
<path opacity="0.14" d="M49.5044 146.286L38.0448 131.082C37.8926 130.878 39.4623 129.572 40.9767 128.467C42.2831 127.54 55.9674 145.853 54.4201 147.005C52.8727 148.158 50.6568 147.833 49.5044 146.286Z" fill="#5547D2"/>
<defs>
<clipPath id="clip0_297_72552">
<rect width="234.545" height="169.214" fill="white" transform="translate(49.3594 0.420898)"/>
</clipPath>
</defs>
</svg>
