<svg width="25" height="24" viewBox="0 0 25 24" fill="none" xmlns="http://www.w3.org/2000/svg">
<path d="M7.11251 9.57434L7.11251 9.57434L7.1134 9.57345C7.13663 9.55017 7.16421 9.53169 7.19459 9.51909C7.22496 9.50649 7.25752 9.5 7.2904 9.5C7.32329 9.5 7.35585 9.50649 7.38622 9.51909C7.41659 9.53169 7.44418 9.55017 7.4674 9.57345L7.46779 9.57384L12.1868 14.2943L12.5404 14.6481L12.894 14.2943L17.613 9.57389C17.66 9.52683 17.7238 9.50039 17.7904 9.50039C17.857 9.50039 17.9208 9.52683 17.9678 9.57389C18.0149 9.62095 18.0413 9.68478 18.0413 9.75134C18.0413 9.8179 18.0149 9.88173 17.9678 9.92879L12.7178 15.1788L12.7174 15.1792C12.6942 15.2025 12.6666 15.221 12.6362 15.2336C12.6058 15.2462 12.5733 15.2527 12.5404 15.2527C12.5075 15.2527 12.475 15.2462 12.4446 15.2336C12.4142 15.221 12.3866 15.2025 12.3634 15.1792L12.363 15.1788L7.11296 9.92879L7.11251 9.92834C7.08923 9.90512 7.07076 9.87753 7.05815 9.84716C7.04555 9.81678 7.03906 9.78422 7.03906 9.75134C7.03906 9.71846 7.04555 9.6859 7.05815 9.65552C7.07076 9.62515 7.08923 9.59756 7.11251 9.57434Z" fill="#00426A" stroke="#00426A"/>
</svg>
