<svg width="17" height="17" viewBox="0 0 17 17" fill="none" xmlns="http://www.w3.org/2000/svg">
<g opacity="0.8">
<circle cx="8.16602" cy="8.72656" r="8" fill="#60D2D7"/>
<g clip-path="url(#clip0_702_3797)">
<path d="M4.93456 12.1447C4.79853 12.1433 4.72723 12.0741 4.72463 11.955C4.72424 11.9214 4.72852 11.8878 4.73735 11.8554C4.83708 11.4793 4.94265 11.1046 5.0366 10.727C5.07747 10.5439 5.1666 10.375 5.29477 10.2377C5.64433 9.87164 5.98818 9.50011 6.34183 9.13811C7.27212 8.18588 8.24776 7.28138 9.24903 6.40413C9.46643 6.21366 9.68032 6.01895 9.90273 5.83447C10.0351 5.72474 10.0857 5.72724 10.2194 5.84112C10.4101 6.00361 10.5938 6.17432 10.7788 6.34346C10.8783 6.43449 10.9737 6.52999 11.0718 6.62268C11.1987 6.74269 11.1984 6.87091 11.0774 6.99823C10.8849 7.20083 10.6975 7.40811 10.5047 7.61039C10.4353 7.68322 10.3552 7.74571 10.2826 7.81558C9.14663 8.90881 8.01091 10.0023 6.87539 11.0959C6.69511 11.2694 6.51461 11.4428 6.32984 11.6115C6.28195 11.652 6.22706 11.6835 6.16785 11.7043C5.81267 11.8408 5.45657 11.9749 5.09954 12.1064C5.04556 12.1232 4.99042 12.136 4.93456 12.1447ZM5.92261 10.9704L9.74852 7.29843C9.66484 7.22013 9.58518 7.14551 9.49151 7.05777C8.17748 8.23261 6.98208 9.52098 5.7398 10.7737L5.92261 10.9704ZM6.27843 11.3356C7.55551 10.1031 8.83739 8.90822 10.0617 7.65821L9.94974 7.51583C8.62928 8.70358 7.37331 9.93228 6.08642 11.1222L6.27843 11.3356ZM5.56699 10.6159C6.78781 9.33159 8.01311 8.08804 9.29833 6.89044L9.16635 6.77336C7.86293 7.937 6.62486 9.16031 5.43839 10.4417C5.46902 10.4799 5.49048 10.5051 5.51019 10.5317C5.52754 10.5549 5.54277 10.5796 5.56711 10.6159H5.56699ZM10.8362 6.85242C10.6233 6.5808 10.1667 6.13406 10.0316 6.06335L9.42863 6.58762L10.3424 7.39326C10.5099 7.21003 10.6709 7.03357 10.8364 6.85242H10.8362ZM5.26065 10.6067C5.21364 10.8482 5.17116 11.0587 5.13333 11.27C5.12868 11.3023 5.13653 11.3351 5.15528 11.3617C5.24212 11.47 5.33428 11.574 5.428 11.6835L5.98985 11.469L5.26065 10.6067Z" fill="white"/>
</g>
</g>
<defs>
<clipPath id="clip0_702_3797">
<rect width="6.53007" height="6.44358" fill="white" transform="translate(4.66602 5.72656)"/>
</clipPath>
</defs>
</svg>
