<svg width="33" height="33" viewBox="0 0 33 33" fill="none" xmlns="http://www.w3.org/2000/svg">
<circle cx="16.5" cy="16.4453" r="16" fill="#00598F"/>
<g clip-path="url(#clip0_297_73634)">
<path d="M8.35268 25.2572C7.97739 25.2533 7.78067 25.0624 7.77351 24.7338C7.77241 24.6409 7.78422 24.5485 7.8086 24.4589C8.08374 23.4212 8.37501 22.3876 8.63421 21.3459C8.74698 20.8406 8.99288 20.3745 9.34651 19.9957C10.3109 18.9858 11.2596 17.9607 12.2353 16.962C14.802 14.3348 17.4938 11.8393 20.2563 9.41895C20.8561 8.89346 21.4462 8.35624 22.0598 7.84729C22.4249 7.54452 22.5648 7.55144 22.9336 7.86561C23.4596 8.31394 23.9666 8.78493 24.4768 9.25158C24.7514 9.50272 25.0148 9.76622 25.2852 10.0219C25.6354 10.353 25.6346 10.7068 25.3009 11.0581C24.7696 11.617 24.2525 12.1889 23.7206 12.747C23.5291 12.948 23.3081 13.1204 23.1078 13.3131C19.9737 16.3294 16.8403 19.3461 13.7074 22.3635C13.21 22.8422 12.712 23.3205 12.2023 23.7859C12.0701 23.8979 11.9187 23.9846 11.7553 24.0421C10.7754 24.4187 9.7929 24.7885 8.80788 25.1516C8.65893 25.1978 8.5068 25.2332 8.35268 25.2572ZM11.0787 22.0173L21.6344 11.8863C21.4035 11.6703 21.1837 11.4644 20.9253 11.2223C17.2999 14.4637 14.0018 18.0183 10.5743 21.4745L11.0787 22.0173ZM12.0604 23.0247C15.5839 19.6245 19.1206 16.3277 22.4983 12.879L22.1895 12.4861C18.5464 15.7631 15.0812 19.1531 11.5306 22.4361L12.0604 23.0247ZM10.0976 21.0392C13.4658 17.4958 16.8464 14.0649 20.3923 10.7607L20.0282 10.4377C16.432 13.6481 13.0162 17.0232 9.74274 20.5585C9.82725 20.6639 9.88646 20.7334 9.94085 20.8069C9.98871 20.871 10.0307 20.9391 10.0979 21.0392H10.0976ZM24.6353 10.6558C24.048 9.9064 22.788 8.67384 22.4155 8.47875L20.7518 9.9252L23.273 12.148C23.735 11.6424 24.1793 11.1556 24.6357 10.6558H24.6353ZM9.25236 21.0138C9.12266 21.6802 9.00545 22.2609 8.9011 22.8438C8.88828 22.9328 8.90993 23.0234 8.96164 23.0969C9.20124 23.3955 9.45552 23.6825 9.7141 23.9847L11.2642 23.3928L9.25236 21.0138Z" fill="white"/>
</g>
<defs>
<clipPath id="clip0_297_73634">
<rect width="18.0164" height="17.7778" fill="white" transform="translate(7.61133 7.55469)"/>
</clipPath>
</defs>
</svg>
