<svg width="25" height="25" viewBox="0 0 25 25" fill="none" xmlns="http://www.w3.org/2000/svg">
<g clip-path="url(#clip0_735_8178)">
<path d="M24.6698 12.0297C24.6174 11.0497 24.5756 10.0523 24.5349 9.08784C24.4954 8.14859 24.4545 7.17733 24.4038 6.22246C24.3305 4.83577 23.6171 3.82554 22.3408 3.30097C21.89 3.11586 21.3355 3.01797 20.6463 3.00146C18.8211 2.95806 16.9652 2.938 15.1702 2.91849C14.5312 2.91152 13.8924 2.90423 13.2536 2.89661C13.2375 2.88328 13.2173 2.87595 13.1964 2.87594H11.7086C10.4995 2.87594 9.29049 2.8763 8.08167 2.87688C7.86043 2.87688 7.63847 2.87638 7.41731 2.87577C6.7524 2.87348 6.06477 2.87159 5.3885 2.89619C4.46518 2.92966 3.75422 3.11018 3.1512 3.4644C1.92997 4.182 1.27854 5.20631 1.21498 6.50909C1.1815 7.19514 1.17022 7.89294 1.15938 8.56782L1.1523 8.99037C1.14251 9.5568 1.13228 10.1231 1.12162 10.6893C1.08726 12.555 1.05168 14.4841 1.03761 16.3822C1.03193 17.1378 1.07004 18.0316 1.39515 18.9328C1.87595 20.2659 2.7628 21.1276 4.10642 21.5675C5.3565 21.967 6.66011 22.1719 7.97188 22.1747C11.2326 22.2171 14.6527 22.237 18.6778 22.237H19.4597C20.1994 22.2497 20.9378 22.1693 21.6577 21.998C23.308 21.5737 24.286 20.5572 24.5645 18.9763C24.6531 18.44 24.7146 17.8995 24.7489 17.3569C24.8694 15.7106 24.7789 14.0422 24.6914 12.4285L24.6698 12.0297ZM9.42128 20.739C8.00886 20.7347 6.49967 20.6811 5.0334 20.3196C4.44342 20.1742 4.02145 20.0039 3.68428 19.7737L10.961 13.0483L11.1641 13.2679C11.3666 13.4869 11.5756 13.713 11.7867 13.937C12.3978 14.5856 12.9973 14.6388 13.673 14.1044C13.9495 13.886 14.2122 13.6387 14.4662 13.4005C14.5625 13.31 14.6597 13.2189 14.7582 13.1282L21.8803 20.3528C21.6341 20.5561 21.3365 20.5987 21.0231 20.6436L20.933 20.6565C20.5963 20.7016 20.2568 20.7225 19.917 20.719L17.9249 20.7262C15.1375 20.7366 12.2557 20.7475 9.42128 20.739ZM20.5409 5.72475C19.4752 6.69159 18.3733 7.69124 17.3227 8.71008C16.2743 9.72673 15.2463 10.7922 14.2521 11.8229C13.8406 12.2495 13.4158 12.69 12.9962 13.1198L4.14655 4.39717C4.20989 4.38024 4.27275 4.36314 4.33511 4.34586C4.57638 4.27988 4.80429 4.21739 5.03707 4.17144C6.19459 3.94302 7.38635 3.97408 8.53897 4.00457C8.79642 4.01124 9.05377 4.01785 9.31104 4.02207C9.7025 4.02822 10.1009 4.04133 10.4861 4.05407C10.8207 4.06505 11.1666 4.07648 11.5072 4.08324C12.4653 4.10228 13.4233 4.12055 14.3814 4.13807C16.4523 4.1769 18.5937 4.21719 20.6993 4.26797C20.9954 4.28439 21.2898 4.32602 21.5788 4.39246C21.6924 4.4152 21.8102 4.43855 21.9271 4.45894V4.46185C21.4665 4.88487 20.9961 5.31183 20.5406 5.7251L20.5409 5.72475ZM5.63606 16.3356C4.74851 17.1837 3.83176 18.0599 2.94524 18.9554C2.57704 18.0823 2.3862 17.3658 2.32939 16.6473C2.17203 14.6542 2.23742 12.6703 2.31837 10.8091C2.35536 9.96038 2.37012 9.0971 2.38447 8.26223C2.39425 7.69469 2.40439 7.10781 2.42135 6.53149C2.43883 5.9202 2.64225 5.49126 3.09718 5.11217L10.0119 11.9391C8.60427 13.4986 7.09542 14.9407 5.63555 16.3363L5.63606 16.3356ZM23.0682 18.8062C23.0358 18.9814 22.9925 19.1542 22.9386 19.3239C22.9192 19.3897 22.8998 19.4556 22.8814 19.5215L22.8537 19.5308L15.5238 12.3525C18.0577 9.72566 20.4607 7.48535 22.8642 5.50863C22.8744 5.55511 22.8849 5.60034 22.8953 5.64445C22.9381 5.80453 22.9665 5.96811 22.9803 6.13332C23.0613 7.79586 23.1274 9.43661 23.1759 10.6804C23.2215 11.8477 23.2603 12.9992 23.2913 14.1035C23.3303 15.5017 23.3346 17.1541 23.0676 18.8066L23.0682 18.8062Z" fill="url(#paint0_linear_735_8178)"/>
</g>
<defs>
<linearGradient id="paint0_linear_735_8178" x1="12.9221" y1="2.87451" x2="12.9221" y2="22.2383" gradientUnits="userSpaceOnUse">
<stop stop-color="#006D9E"/>
<stop offset="1" stop-color="#00426A"/>
</linearGradient>
<clipPath id="clip0_735_8178">
<rect width="24" height="24" fill="white" transform="translate(0.921875 0.554688)"/>
</clipPath>
</defs>
</svg>
