<svg width="25" height="25" viewBox="0 0 25 25" fill="none" xmlns="http://www.w3.org/2000/svg">
<path d="M23.6775 12.8053C23.6381 12.894 22.6888 14.9965 20.5501 16.9121C20.4027 17.0442 20.209 17.1126 20.0112 17.1025C19.8135 17.0923 19.6279 17.0045 19.4947 16.858L9.99874 6.41237C9.90809 6.31266 9.84599 6.19037 9.81895 6.05835C9.79191 5.92634 9.80095 5.78948 9.84509 5.66217C9.88924 5.53485 9.96687 5.42178 10.0698 5.33484C10.1728 5.2479 10.2973 5.19031 10.4302 5.16812C11.1117 5.05547 11.8014 4.99925 12.4922 5.00002C15.762 5.00002 18.7334 6.24315 21.085 8.59505C22.8507 10.3609 23.6446 12.122 23.6776 12.1961C23.7202 12.292 23.7422 12.3957 23.7422 12.5007C23.7422 12.6056 23.7202 12.7094 23.6776 12.8053H23.6775ZM20.5472 20.2455C20.681 20.3927 20.7509 20.587 20.7414 20.7857C20.7319 20.9844 20.6439 21.1712 20.4967 21.305C20.3495 21.4388 20.1552 21.5086 19.9565 21.4992C19.7578 21.4897 19.571 21.4017 19.4372 21.2545L17.3734 18.9843C15.8363 19.6637 14.1727 20.0098 12.4922 20C9.22239 20 6.25108 18.7571 3.89945 16.4056C2.13377 14.6403 1.3397 12.8795 1.3068 12.8054C1.2642 12.7095 1.24219 12.6057 1.24219 12.5008C1.24219 12.3958 1.2642 12.2921 1.3068 12.1962C1.37205 12.0496 2.83595 8.82868 6.24105 6.7389L4.4373 4.75468C4.30347 4.6075 4.23359 4.41318 4.24303 4.21447C4.25247 4.01577 4.34046 3.82895 4.48764 3.69512C4.63482 3.56129 4.82914 3.4914 5.02785 3.50085C5.22656 3.51029 5.41337 3.59828 5.5472 3.74546L20.5472 20.2455ZM14.1498 15.4384L9.72442 10.5705C9.28655 11.1975 9.07473 11.9547 9.12372 12.7179C9.1727 13.4811 9.47958 14.205 9.99402 14.7709C10.5085 15.3368 11.1999 15.711 11.955 15.8323C12.7101 15.9536 13.484 15.8147 14.1498 15.4384Z" fill="#B3B3B3"/>
</svg>
