<svg width="25" height="25" viewBox="0 0 25 25" fill="none" xmlns="http://www.w3.org/2000/svg">
<path d="M23.6775 12.5703C23.6446 12.4963 22.8507 10.7351 21.085 8.96939C18.7334 6.61749 15.7619 5.37427 12.4922 5.37427C9.22249 5.37427 6.25099 6.61739 3.89936 8.9693C2.13367 10.7351 1.3397 12.4964 1.3068 12.5704C1.2642 12.6663 1.24219 12.7701 1.24219 12.875C1.24219 12.9799 1.2642 13.0837 1.3068 13.1796C1.3398 13.2537 2.13367 15.0145 3.89945 16.78C6.25108 19.1313 9.22239 20.3743 12.4922 20.3743C15.762 20.3743 18.7333 19.1313 21.085 16.78C22.8506 15.0145 23.6446 13.2538 23.6776 13.1796C23.7202 13.0837 23.7422 12.9799 23.7422 12.875C23.7422 12.7701 23.7202 12.6663 23.6776 12.5704L23.6775 12.5703ZM12.4922 9.50002C13.1597 9.50002 13.8122 9.69796 14.3673 10.0688C14.9223 10.4397 15.3549 10.9668 15.6103 11.5835C15.8657 12.2002 15.9326 12.8788 15.8024 13.5334C15.6721 14.1881 15.3507 14.7895 14.8787 15.2615C14.4067 15.7335 13.8053 16.0549 13.1506 16.1852C12.4959 16.3154 11.8173 16.2486 11.2006 15.9931C10.5839 15.7377 10.0568 15.3051 9.68599 14.7501C9.31514 14.1951 9.1172 13.5425 9.1172 12.875C9.1182 11.9802 9.47409 11.1223 10.1068 10.4896C10.7395 9.85691 11.5974 9.50101 12.4922 9.50002Z" fill="#CCCCCC"/>
</svg>
