<svg width="33" height="32" viewBox="0 0 33 32" fill="none" xmlns="http://www.w3.org/2000/svg">
<path d="M23.7316 7.78346C24.2239 7.7238 24.7316 7.70002 25.2225 7.67684C25.4188 7.66764 25.6151 7.65842 25.8115 7.64764C26.6558 7.59833 27.2149 7.14184 27.3449 6.39535C27.7019 4.34904 27.7119 2.6786 27.3772 1.1381C27.2099 0.368732 26.7035 -0.0335441 25.9579 0.00219148C25.2189 0.038507 24.4638 0.0605204 23.7335 0.0816692C21.8549 0.136218 19.9121 0.192512 18.0376 0.498218C14.692 1.04371 12.5973 3.15613 12.1381 6.44658C12.0237 7.40122 11.9635 8.36162 11.9577 9.32309C11.9482 9.70522 11.9385 10.1005 11.9217 10.4873C11.9091 10.7771 11.9122 11.0717 11.9154 11.3834C11.9166 11.4927 11.9177 11.6051 11.9182 11.7225C11.6093 11.733 11.3123 11.7428 11.0239 11.7517C10.2916 11.7753 9.59999 11.7976 8.91608 11.8304L8.61563 11.8441C8.01263 11.8602 7.41094 11.9094 6.81332 11.9915C5.96023 12.1246 5.64374 12.4738 5.60275 13.3256C5.53828 14.682 5.47264 16.2585 5.50983 17.8198C5.54148 19.147 6.13336 19.7012 7.55279 19.7325C8.13621 19.745 8.72794 19.728 9.30012 19.711C9.66066 19.7004 10.0335 19.6893 10.3993 19.6861C10.6178 19.6864 10.8362 19.6985 11.0534 19.7223C11.1117 19.7274 11.1701 19.7325 11.2257 19.7368C11.2403 19.774 11.2526 19.807 11.2643 19.8369C11.2868 19.8834 11.3025 19.9329 11.311 19.9839C11.3238 23.0853 11.3365 26.3911 11.3391 29.7111C11.3405 31.3026 11.7249 31.7129 13.2985 31.8009C14.5848 31.8729 15.8947 31.8831 17.1606 31.8929L17.6449 31.8966C17.6887 31.8966 17.7301 31.8966 17.7715 31.8966C19.6186 31.8966 19.9916 31.5198 20.2179 29.5638C20.2616 29.2115 20.2865 28.8575 20.2925 28.5026C20.3105 26.5191 20.3219 24.5033 20.3332 22.5533L20.3367 21.916C20.3389 21.5215 20.3386 21.1271 20.3379 20.6961V20.1794C20.6799 20.1794 21.0057 20.1801 21.3202 20.1805C22.0932 20.182 22.8216 20.183 23.5372 20.1775C24.5781 20.1694 25.3312 19.6633 25.6586 18.7525C26.149 17.3869 26.6191 15.8903 27.0958 14.1776C27.2189 13.7352 27.1707 13.3511 26.9561 13.0663C26.7351 12.7728 26.3619 12.6154 25.8768 12.6115C25.0183 12.6045 24.1445 12.6367 23.3006 12.6678C22.8607 12.6839 22.4207 12.7 21.9811 12.7116C21.6542 12.7197 21.3212 12.7177 20.9986 12.7153C20.8881 12.7145 20.7775 12.7139 20.6672 12.7135C20.6475 12.638 20.6293 12.5705 20.6124 12.5094C20.5727 12.3782 20.5422 12.2445 20.5211 12.1092C20.4846 11.8736 20.474 11.6346 20.4894 11.3966C20.7015 9.31271 20.9567 8.11789 23.7316 7.78346ZM24.364 15.0439L23.5878 17.7931L22.7659 17.8066C22.115 17.8171 21.4782 17.8275 20.8408 17.84C18.2644 17.8914 17.9247 18.2133 17.8106 20.7117C17.7332 22.4055 17.724 24.1293 17.7149 25.7962C17.7113 26.4986 17.7075 27.2011 17.6989 27.9029C17.6941 28.3013 17.6953 28.6998 17.6966 29.1164C17.6966 29.2744 17.6976 29.4349 17.6979 29.5989C16.5028 29.81 15.4243 29.7369 14.2849 29.6595C14.1579 29.6511 14.0303 29.6426 13.9019 29.6342C13.8917 29.5704 13.8809 29.5084 13.8706 29.4475C13.8345 29.2649 13.8112 29.08 13.8008 28.8942C13.7671 27.7244 13.7357 26.5542 13.7068 25.3842C13.6569 23.4444 13.6054 21.439 13.5371 19.4666C13.4799 17.8052 13.0908 17.4595 11.3422 17.5075C10.5241 17.531 9.71448 17.5765 8.85746 17.6242C8.52272 17.6431 8.18288 17.6622 7.83561 17.6805V14.2181C7.91552 14.2073 7.99503 14.1958 8.07392 14.1844C8.32688 14.143 8.58186 14.115 8.83777 14.1008C9.28363 14.0842 9.73826 14.0767 10.1779 14.0697C10.8196 14.0592 11.4819 14.0484 12.134 14.0089C13.7765 13.9094 14.0885 13.5847 14.0961 11.9658C14.0985 11.492 14.0953 11.0178 14.0923 10.5443C14.0874 9.78342 14.0825 8.99664 14.1009 8.22451C14.1234 7.7302 14.1766 7.2378 14.2601 6.75009L14.3021 6.46644C14.6113 4.3434 15.9344 3.0354 18.3472 2.46758L18.5084 2.42878C18.7811 2.35109 19.0616 2.30422 19.3447 2.28904C20.7507 2.27593 22.1368 2.27784 23.6047 2.27929C24.0668 2.27987 24.5336 2.28024 25.005 2.28042C25.2717 3.33742 25.128 4.42986 24.9384 5.37631C24.7453 5.41073 24.552 5.44473 24.3583 5.47838C23.869 5.56355 23.3629 5.65169 22.8663 5.75291C20.141 6.30715 18.9015 7.66633 18.5876 10.4421C18.5707 10.5935 18.5527 10.745 18.5351 10.8967C18.4492 11.6299 18.3601 12.3882 18.3455 13.1391C18.3201 14.444 18.7718 14.9254 20.0713 14.9791C20.8083 15.0096 21.5568 14.9958 22.2805 14.9825C22.6807 14.975 23.0945 14.9679 23.501 14.9679C23.708 14.972 23.9146 14.9882 24.1197 15.0163C24.1966 15.0248 24.2772 15.0341 24.3642 15.0434L24.364 15.0439Z" fill="#006FB3"/>
</svg>
