<svg width="56" height="55" viewBox="0 0 56 55" fill="none" xmlns="http://www.w3.org/2000/svg">
<circle cx="27.875" cy="27.5" r="27" fill="#00426A" stroke="#006FB2"/>
<path d="M32.7154 21.8376C33.0846 21.7928 33.4654 21.775 33.8336 21.7576C33.9809 21.7507 34.1281 21.7438 34.2753 21.7357C34.9086 21.6987 35.3279 21.3564 35.4255 20.7965C35.6932 19.2618 35.7007 18.0089 35.4496 16.8536C35.3242 16.2765 34.9444 15.9748 34.3852 16.0016C33.8309 16.0289 33.2646 16.0454 32.7169 16.0613C31.3079 16.1022 29.8508 16.1444 28.4449 16.3737C25.9358 16.7828 24.3647 18.3671 24.0203 20.8349C23.9345 21.5509 23.8893 22.2712 23.885 22.9923C23.8779 23.2789 23.8706 23.5754 23.858 23.8655C23.8486 24.0828 23.8509 24.3038 23.8533 24.5376C23.8542 24.6195 23.8551 24.7038 23.8554 24.7918C23.6237 24.7997 23.401 24.8071 23.1847 24.8137C22.6355 24.8315 22.1167 24.8482 21.6038 24.8728L21.3785 24.8831C20.9262 24.8952 20.475 24.9321 20.0267 24.9936C19.3869 25.0935 19.1495 25.3553 19.1188 25.9942C19.0705 27.0115 19.0212 28.1939 19.0491 29.3648C19.0729 30.3603 19.5168 30.7759 20.5813 30.7993C21.0189 30.8088 21.4627 30.796 21.8918 30.7833C22.1622 30.7753 22.4418 30.767 22.7162 30.7646C22.8801 30.7648 23.0439 30.7739 23.2068 30.7917C23.2506 30.7955 23.2943 30.7993 23.336 30.8026C23.3469 30.8305 23.3562 30.8552 23.365 30.8777C23.3818 30.9126 23.3936 30.9496 23.4 30.9879C23.4096 33.314 23.4191 35.7933 23.4211 38.2833C23.4221 39.477 23.7104 39.7847 24.8906 39.8507C25.8554 39.9046 26.8378 39.9123 27.7872 39.9197L28.1505 39.9225C28.1833 39.9225 28.2143 39.9225 28.2454 39.9225C29.6307 39.9225 29.9105 39.6398 30.0801 38.1728C30.113 37.9086 30.1317 37.6432 30.1361 37.377C30.1496 35.8893 30.1581 34.3775 30.1667 32.915L30.1693 32.437C30.1709 32.1411 30.1707 31.8453 30.1702 31.5221V31.1345C30.4267 31.1345 30.6711 31.1351 30.9069 31.1354C31.4867 31.1365 32.033 31.1372 32.5696 31.1331C33.3503 31.1271 33.9151 30.7475 34.1607 30.0644C34.5285 29.0401 34.881 27.9177 35.2386 26.6332C35.331 26.3014 35.2947 26.0133 35.1338 25.7997C34.9681 25.5796 34.6882 25.4616 34.3244 25.4586C33.6805 25.4533 33.0251 25.4775 32.3922 25.5008C32.0623 25.5129 31.7323 25.525 31.4026 25.5337C31.1574 25.5398 30.9077 25.5382 30.6657 25.5365C30.5828 25.5359 30.4999 25.5354 30.4172 25.5351C30.4024 25.4785 30.3887 25.4278 30.376 25.382C30.3463 25.2837 30.3234 25.1834 30.3076 25.0819C30.2802 24.9052 30.2722 24.7259 30.2838 24.5475C30.4429 22.9845 30.6343 22.0884 32.7154 21.8376ZM33.1898 27.2829L32.6076 29.3448L31.9912 29.355C31.503 29.3628 31.0254 29.3706 30.5473 29.38C28.615 29.4185 28.3603 29.66 28.2747 31.5338C28.2166 32.8041 28.2097 34.097 28.203 35.3471C28.2002 35.874 28.1974 36.4008 28.1909 36.9272C28.1873 37.226 28.1882 37.5248 28.1892 37.8373C28.1892 37.9558 28.1899 38.0762 28.1902 38.1992C27.2938 38.3575 26.485 38.3027 25.6304 38.2446C25.5352 38.2383 25.4395 38.232 25.3432 38.2257C25.3355 38.1778 25.3274 38.1313 25.3197 38.0857C25.2926 37.9487 25.2752 37.81 25.2674 37.6707C25.2421 36.7933 25.2186 35.9156 25.1968 35.0382C25.1594 33.5833 25.1208 32.0792 25.0696 30.5999C25.0267 29.3539 24.7349 29.0946 23.4234 29.1306C22.8098 29.1482 22.2026 29.1823 21.5598 29.2181C21.3088 29.2323 21.0539 29.2467 20.7935 29.2603V26.6635C20.8534 26.6555 20.913 26.6468 20.9722 26.6383C21.1619 26.6072 21.3531 26.5863 21.5451 26.5756C21.8795 26.5631 22.2204 26.5575 22.5501 26.5523C23.0315 26.5444 23.5282 26.5363 24.0173 26.5067C25.2491 26.4321 25.4831 26.1885 25.4888 24.9743C25.4906 24.619 25.4882 24.2633 25.4859 23.9082C25.4823 23.3376 25.4786 22.7475 25.4924 22.1684C25.5093 21.7976 25.5492 21.4283 25.6118 21.0626L25.6433 20.8498C25.8752 19.2575 26.8675 18.2765 28.6772 17.8507L28.798 17.8216C29.0025 17.7633 29.2129 17.7282 29.4253 17.7168C30.4797 17.7069 31.5194 17.7084 32.6203 17.7095C32.9668 17.7099 33.317 17.7102 33.6705 17.7103C33.8705 18.5031 33.7627 19.3224 33.6205 20.0322C33.4757 20.058 33.3308 20.0835 33.1855 20.1088C32.8185 20.1727 32.4389 20.2388 32.0664 20.3147C30.0225 20.7304 29.0928 21.7497 28.8574 23.8315C28.8448 23.9451 28.8313 24.0588 28.8181 24.1725C28.7536 24.7224 28.6868 25.2911 28.6759 25.8543C28.6568 26.833 28.9956 27.1941 29.9702 27.2343C30.523 27.2572 31.0843 27.2468 31.6271 27.2368C31.9273 27.2313 32.2376 27.2259 32.5425 27.2259C32.6977 27.229 32.8527 27.2411 33.0065 27.2622C33.0642 27.2686 33.1247 27.2756 33.1899 27.2826L33.1898 27.2829Z" fill="white"/>
</svg>
