<svg width="25" height="25" viewBox="0 0 25 25" fill="none" xmlns="http://www.w3.org/2000/svg">
<path d="M7.523 15.7655C8.86531 15.9977 10.204 15.893 11.616 15.4454C12.4394 15.1905 13.2247 14.8246 13.9504 14.3579C14.0869 14.5104 14.2221 14.6621 14.3559 14.8131C14.6843 15.183 14.9953 15.5326 15.3204 15.8833C16.9091 17.5973 18.6328 19.2272 20.2999 20.8034C20.6028 21.09 20.9056 21.3768 21.2083 21.6637C21.4456 21.8814 21.7062 22.0718 21.9854 22.2313C22.0543 22.2682 22.1317 22.2864 22.2097 22.2841C22.2914 22.2853 22.3723 22.2683 22.4466 22.2341C22.4868 22.2139 22.5225 22.1856 22.5518 22.151C22.5809 22.1166 22.6029 22.0766 22.6164 22.0334C22.6324 21.982 22.6382 21.928 22.6332 21.8741C22.6284 21.8206 22.6131 21.7685 22.5883 21.7207C22.4563 21.4433 22.2952 21.181 22.1076 20.9383C21.8052 20.5777 21.4835 20.2338 21.1439 19.9082C20.3528 19.1387 19.5453 18.36 18.7644 17.6067C18.2229 17.0846 17.6818 16.5621 17.1411 16.0391C16.5829 15.4986 16.0393 14.9676 15.464 14.4047C15.2297 14.1756 14.9938 13.9452 14.7565 13.7136L14.7873 13.6797C14.832 13.6305 14.8667 13.5923 14.9036 13.5563C15.8029 12.6807 16.2961 11.5852 16.3692 10.3007C16.4963 8.06997 15.7484 6.17631 14.1467 4.67163C13.362 3.9169 12.344 3.4551 11.2619 3.36305C10.2096 3.26127 9.14773 3.38256 8.14493 3.71909C6.60752 4.24479 5.30247 5.25333 4.2662 6.71675C3.37332 7.97758 3.01544 9.37658 3.20251 10.8749C3.32452 11.8525 3.71805 12.779 4.47834 13.879C5.1968 14.9181 6.19254 15.5351 7.523 15.7655ZM9.11287 4.86964C9.4705 4.83911 9.8403 4.80762 10.2035 4.79554C10.265 4.79361 10.3259 4.79261 10.3863 4.79255C12.0416 4.79255 13.3136 5.54759 14.169 7.03872C14.9345 8.37302 15.1511 9.65174 14.8312 10.9479C14.7215 11.4339 14.5026 11.8882 14.1911 12.2758C13.8045 12.7484 13.3347 13.1453 12.8051 13.4467C11.5959 14.1369 10.2359 14.5162 8.84584 14.551C8.71253 14.5362 8.5789 14.5231 8.44527 14.5099C8.15078 14.4811 7.84618 14.4511 7.55112 14.4027C6.8177 14.2915 6.15126 13.911 5.68045 13.3347C5.10667 12.6618 4.69242 11.8665 4.46896 11.0091C4.21269 10.0152 4.30609 8.96276 4.73334 8.0302C5.21034 6.96502 5.84388 6.17913 6.67027 5.62765C7.33152 5.18645 7.93439 4.95955 8.56729 4.9138C8.74923 4.90066 8.93085 4.88511 9.11255 4.86964H9.11287Z" fill="white"/>
</svg>
