<svg width="342" height="317" viewBox="0 0 342 317" fill="none" xmlns="http://www.w3.org/2000/svg">
<path d="M2.04545 103.942C0.95655 90.874 9.1737 85.4044 15.159 83.1793C10.5312 74.3421 10.7876 66.7873 10.7876 62.4162C12.8833 47.6047 32.4322 45.2905 43.5712 44.9317C40.7337 32.6925 46.3957 26.3545 49.035 24.1689C64.3339 11.5002 98.2104 27.4471 103.674 35.0966C109.138 42.7461 129.935 50.0121 135.365 47.1172C140.795 44.2224 148.206 22.5272 150.664 17.6121C153.942 11.0554 169.241 -7.522 186.936 5.59141C204.63 18.7048 197.943 32.911 197.654 37.2822C197.365 41.6533 181.624 65.7683 180.169 78.808C178.715 91.8477 178.007 107.944 181.041 112.458C183.469 116.068 212.798 133.783 227.159 142.189C262.553 165.661 275.216 178.925 277.122 182.623L402.004 183.715L346.272 314.849C209.022 278.656 145.113 203.844 131.405 171.181C94.2275 172.062 64.3341 154.21 55.5261 140.344C27.3719 134.127 3.13814 117.056 2.04545 103.942Z" fill="#EFB154"/>
<path d="M172.521 207.757C242.459 272.45 335.345 261.668 372.5 248.19L344.087 314.85C320.41 308.658 264.096 290.372 228.252 266.768C183.448 237.263 174.706 226.335 164.871 216.5C155.036 206.665 135.366 179.345 132.088 170.603C112.417 170.603 72.203 162.735 55.5926 140.005C33.7366 135.634 5.32424 122.52 3.13867 106.128V106.127C3.13883 97.3856 3.13894 90.8292 10.7882 86.4583C8.16548 123.176 42.4794 131.627 62.1495 131.262C69.7986 148.747 111.325 156.032 134.273 158.582C138.644 171.695 161.593 196.829 172.521 207.757Z" fill="#EA971A"/>
<path fill-rule="evenodd" clip-rule="evenodd" d="M135.891 45.9806C139.641 42.1312 143.897 35.8661 147.077 25.7666C150.862 13.7421 156.928 7.19611 163.217 3.95088C169.479 0.71992 175.823 0.833194 180.068 1.86585C184.327 2.90182 190.773 6.24884 195.362 11.9991C199.996 17.8066 202.715 26.0465 199.431 36.689C196.578 45.9379 192.972 52.4445 189.798 58.173L189.794 58.1795C189.401 58.8895 189.014 59.5876 188.636 60.2775C185.212 66.528 182.522 72.0926 181.993 79.9334C181.753 83.4769 181.43 86.7603 181.132 89.7885L181.074 90.384C181.05 90.6261 181.026 90.8666 181.003 91.1054C180.672 94.5029 180.396 97.5526 180.328 100.321C180.194 105.864 180.905 110.091 183.519 113.509C183.787 113.86 184.34 114.385 185.227 115.09C186.095 115.779 187.222 116.593 188.581 117.521C191.298 119.375 194.893 121.653 199.098 124.254C202.138 126.134 205.497 128.183 209.064 130.36L209.068 130.362C215.347 134.193 222.271 138.418 229.24 142.808C240.175 149.698 251.274 157.028 260.277 163.958C264.778 167.423 268.772 170.801 271.965 173.986C274.912 176.924 277.227 179.747 278.614 182.363H403.953L346.784 316.721L345.903 316.533L346.131 315.464C345.903 316.533 345.9 316.532 345.9 316.532L345.894 316.531L345.872 316.526L345.786 316.507C345.738 316.497 345.675 316.483 345.597 316.465C345.553 316.456 345.504 316.445 345.451 316.433C345.156 316.367 344.718 316.267 344.146 316.133C343.002 315.864 341.318 315.455 339.157 314.897C334.833 313.779 328.594 312.06 320.919 309.649C305.572 304.829 284.478 297.243 261.486 286.179C215.679 264.135 162.21 228.221 131.729 172.735C131.349 172.725 130.808 172.708 130.122 172.676C128.679 172.61 126.595 172.482 124.013 172.232C118.852 171.734 112.213 170.949 104.229 169.008C87.6574 165.296 68.6181 157.3 55.2968 142.042C55.1807 142.015 55.0371 141.981 54.8675 141.94C54.3622 141.82 53.6262 141.639 52.6973 141.396C50.8397 140.91 48.2091 140.177 45.109 139.187C38.9155 137.208 30.8181 134.192 23.2619 130.048C15.7263 125.915 8.61316 120.598 4.52246 113.968C0.382406 107.258 -0.610783 99.2753 3.98672 90.0803L4.02635 90.001L4.07824 89.9292C4.4015 89.9959 4.07972 89.9271 4.07972 89.9271L4.08155 89.9246L4.0862 89.9183L4.09954 89.9003C4.11024 89.886 4.12457 89.8671 4.1426 89.8438C4.17866 89.7973 4.22952 89.7333 4.29575 89.6539C4.42821 89.4951 4.62221 89.2742 4.88232 89.0069C5.40255 88.4723 6.18734 87.7519 7.27287 86.9706C8.79636 85.8741 10.9063 84.662 13.6985 83.6755C13.6422 83.5323 13.5798 83.3706 13.5122 83.1916C13.2128 82.398 12.812 81.261 12.4021 79.876C11.5842 77.1124 10.72 73.3296 10.5651 69.3016C10.4104 65.2789 10.9602 60.9367 13.0439 57.1185C15.1447 53.2687 18.7537 50.0476 24.5223 48.2199C30.2902 46.3925 36.5189 45.5025 42.7596 45.5221C42.6314 44.8901 42.4791 44.0297 42.3524 43.0031C42.0783 40.7826 41.9202 37.7534 42.4042 34.5642C42.8884 31.3742 44.0225 27.9772 46.3716 25.0793C48.7328 22.1663 52.2624 19.8318 57.3989 18.6902L57.4203 18.6855L57.4418 18.6816C73.5579 15.7718 91.8337 21.8108 104.306 34.2828C110.216 40.193 118.18 43.1346 124.751 44.5888C128.025 45.3134 130.924 45.6625 133.003 45.8302C134.042 45.914 134.874 45.9523 135.443 45.9698C135.618 45.9751 135.768 45.9785 135.891 45.9806ZM149.161 26.4229C152.807 14.8432 158.543 8.82214 164.219 5.89314C169.924 2.94987 175.71 3.05515 179.551 3.9895C183.379 4.92055 189.391 8.02096 193.653 13.3624C197.871 18.6467 200.398 26.1429 197.343 36.0447C194.559 45.0665 191.059 51.3856 187.887 57.1114C187.492 57.8246 187.102 58.5286 186.719 59.2274C183.259 65.5439 180.375 71.4536 179.812 79.786C179.575 83.2922 179.256 86.5393 178.958 89.5679L178.958 89.571C178.914 90.0164 178.87 90.4571 178.828 90.8931C178.497 94.2846 178.213 97.4091 178.143 100.268C178.005 105.981 178.714 110.824 181.783 114.837C182.225 115.415 182.96 116.08 183.867 116.801C184.794 117.537 185.969 118.384 187.348 119.326C190.109 121.21 193.74 123.509 197.949 126.112C201.011 128.007 204.38 130.062 207.952 132.242L207.955 132.244C214.223 136.068 221.115 140.273 228.075 144.658C238.995 151.537 250.024 158.823 258.944 165.69C263.403 169.123 267.318 172.438 270.422 175.533C273.538 178.641 275.779 181.471 276.956 183.928L277.254 184.548H400.648L345.482 314.199C345.35 314.169 345.204 314.135 345.043 314.098C344.919 314.069 344.787 314.038 344.646 314.005C343.517 313.739 341.849 313.335 339.703 312.78C335.412 311.671 329.209 309.962 321.574 307.564C306.303 302.768 285.311 295.219 262.434 284.209C216.655 262.179 163.454 226.354 133.342 171.13L133.033 170.564L132.388 170.561L132.356 170.561L132.253 170.559C132.197 170.559 132.123 170.557 132.032 170.556C131.974 170.554 131.91 170.553 131.838 170.551C131.471 170.542 130.926 170.525 130.222 170.493C128.812 170.429 126.765 170.303 124.224 170.057C119.14 169.566 112.09 168.596 104.229 166.685C88.4779 162.856 69.6126 155.281 56.7151 140.342L56.4775 140.066L56.1224 139.988L56.1177 140.01C56.1223 139.988 56.1224 139.988 56.1224 139.988L56.1122 139.986L56.0774 139.978L55.9355 139.946C55.8094 139.917 55.6212 139.873 55.3755 139.815C54.8841 139.697 54.163 139.52 53.25 139.281C51.4237 138.804 48.8312 138.082 45.7741 137.105C39.6533 135.15 31.7004 132.183 24.3128 128.131C16.9046 124.068 10.1803 118.976 6.38248 112.821C2.64764 106.767 1.69445 99.618 5.89534 91.1505C5.91531 91.1253 5.94159 91.0928 5.97433 91.0536C6.0727 90.9356 6.22937 90.7565 6.44864 90.5312C6.88716 90.0805 7.57592 89.4453 8.5496 88.7445C10.4941 87.345 13.587 85.6753 18.1168 84.698C27.1712 82.7446 42.1031 83.5321 65.2361 95.0442L66.2098 93.0876C42.7902 81.4327 27.3427 80.4717 17.6559 82.5616C17.0075 82.7015 16.3856 82.8549 15.7894 83.0195C15.7234 82.8539 15.645 82.6531 15.557 82.4199C15.2734 81.6682 14.8904 80.5821 14.4978 79.2557C13.7107 76.5963 12.8947 73.0029 12.7491 69.2175C12.6032 65.4269 13.1325 61.5185 14.9624 58.1654C16.775 54.8438 19.914 51.9726 25.1825 50.3034C36.0031 46.8751 48.5661 46.8718 59.5949 50.1187C70.6294 53.3672 79.9983 59.8253 84.6317 69.1974L86.5909 68.2288C81.6078 58.1493 71.6343 51.3848 60.2121 48.0221C55.3436 46.5888 50.1882 45.7655 45.0038 45.5683C44.9814 45.4681 44.957 45.3555 44.931 45.2312C44.8073 44.638 44.6505 43.7802 44.5215 42.7354C44.2628 40.6395 44.1203 37.8224 44.565 34.8921C45.0097 31.9625 46.0337 28.9669 48.0694 26.4555C50.0898 23.963 53.1652 21.8743 57.8518 20.8285C73.2027 18.0652 90.7594 23.8274 102.76 35.8282C109.089 42.1571 117.517 45.2261 124.278 46.7227C127.67 47.4734 130.672 47.8348 132.827 48.0087C133.116 48.0319 133.389 48.0518 133.646 48.0689C131.832 49.5902 130.234 50.541 129.07 51.1168C128.427 51.4351 127.917 51.6391 127.575 51.7614C127.404 51.8226 127.276 51.8633 127.194 51.8877C127.153 51.8999 127.124 51.9081 127.108 51.9126L127.094 51.9164C127.094 51.9164 127.095 51.916 127.356 52.9772C127.617 54.0384 127.619 54.0379 127.619 54.0379L127.626 54.0362L127.639 54.0327L127.681 54.0215C127.715 54.0122 127.762 53.9991 127.821 53.9815C127.938 53.9464 128.104 53.8936 128.312 53.819C128.728 53.6699 129.317 53.4333 130.04 53.0755C131.486 52.3596 133.467 51.1594 135.675 49.206C140.098 45.293 145.392 38.3972 149.161 26.4229Z" fill="#90611C"/>
<path d="M99.3012 60.229C86.552 64.6001 61.4908 79.8991 63.2393 106.126" stroke="#90611C" stroke-width="2.18557" stroke-linecap="round"/>
</svg>
