<svg width="16" height="17" viewBox="0 0 16 17" fill="none" xmlns="http://www.w3.org/2000/svg">
<g opacity="0.9" clip-path="url(#clip0_1647_66631)">
<path d="M16 8.45898C16 10.5807 15.1571 12.6155 13.6569 14.1158C12.1566 15.6161 10.1217 16.459 8 16.459C5.87827 16.459 3.84344 15.6161 2.34315 14.1158C0.842855 12.6155 0 10.5807 0 8.45898C0 6.33725 0.842855 4.30242 2.34315 2.80213C3.84344 1.30184 5.87827 0.458984 8 0.458984C10.1217 0.458984 12.1566 1.30184 13.6569 2.80213C15.1571 4.30242 16 6.33725 16 8.45898ZM5.496 6.49198H6.321C6.459 6.49198 6.569 6.37898 6.587 6.24198C6.677 5.58598 7.127 5.10798 7.929 5.10798C8.615 5.10798 9.243 5.45098 9.243 6.27598C9.243 6.91098 8.869 7.20298 8.278 7.64698C7.605 8.13598 7.072 8.70698 7.11 9.63398L7.113 9.85098C7.11405 9.91659 7.14085 9.97916 7.18762 10.0252C7.23439 10.0712 7.29738 10.097 7.363 10.097H8.174C8.2403 10.097 8.30389 10.0706 8.35078 10.0238C8.39766 9.97688 8.424 9.91329 8.424 9.84698V9.74198C8.424 9.02398 8.697 8.81498 9.434 8.25598C10.043 7.79298 10.678 7.27898 10.678 6.19998C10.678 4.68898 9.402 3.95898 8.005 3.95898C6.738 3.95898 5.35 4.54898 5.255 6.24498C5.25363 6.27728 5.25888 6.30951 5.27043 6.3397C5.28198 6.36989 5.29958 6.3974 5.32216 6.42053C5.34473 6.44367 5.3718 6.46194 5.40169 6.47423C5.43159 6.48652 5.46368 6.49256 5.496 6.49198ZM7.821 12.935C8.431 12.935 8.85 12.541 8.85 12.008C8.85 11.456 8.43 11.068 7.821 11.068C7.237 11.068 6.812 11.456 6.812 12.008C6.812 12.541 7.237 12.935 7.822 12.935H7.821Z" fill="#00426A"/>
</g>
<defs>
<clipPath id="clip0_1647_66631">
<rect width="16" height="16" fill="white" transform="translate(0 0.458984)"/>
</clipPath>
</defs>
</svg>
