<svg width="56" height="55" viewBox="0 0 56 55" fill="none" xmlns="http://www.w3.org/2000/svg">
<circle cx="27.875" cy="27.5" r="27" fill="#00426A" stroke="#006FB2"/>
<path d="M38.1472 20.5243C37.8177 17.8177 35.5401 16.7313 33.4299 16.8563C32.1775 16.9298 30.9373 16.9689 29.4604 17.0051C28.1223 17.0379 26.7501 17.0661 25.5395 17.0909C23.8024 17.1267 22.0061 17.1638 20.2224 17.213C18.1746 17.2698 16.5234 18.5888 16.2059 20.4209C16.0784 21.1562 16.0747 21.8983 16.0826 22.7223C16.1056 25.1286 16.1408 27.5602 16.1752 29.9117L16.1789 30.1663C16.1925 31.1123 16.2058 32.0583 16.2189 33.0045C16.2212 33.1637 16.2267 33.3235 16.2325 33.4833L16.2329 33.496C16.2562 33.8919 16.2523 34.2889 16.2212 34.6842C16.111 35.7397 16.5151 36.8653 17.3022 37.6948C18.1772 38.6169 19.4173 39.0856 20.7949 39.0153C22.2982 38.9375 23.8317 38.9524 25.3146 38.9666L25.422 38.9677C27.1817 38.9845 28.9714 39.0293 30.7044 39.0728L31.5781 39.0947C31.7254 39.1036 31.8713 39.1256 32.0143 39.1609C32.0894 39.1768 32.1646 39.1925 32.2392 39.2055C32.25 39.2073 32.261 39.2083 32.2718 39.2083H33.22C33.2293 39.2082 33.2386 39.2076 33.2478 39.2063C33.4373 39.1785 33.6277 39.1533 33.8174 39.1284L33.8317 39.1266C34.2572 39.0709 34.6971 39.0138 35.126 38.9206C36.9758 38.5188 38.543 36.6001 38.5483 34.731C38.5495 34.2907 38.5511 33.8502 38.5529 33.4098L38.5538 33.1885C38.563 30.7743 38.5733 28.2777 38.5213 25.8194C38.4835 24.0318 38.3575 22.2498 38.1472 20.5243ZM37.1187 34.6009C37.1244 36.0444 35.8652 37.396 34.2521 37.6778C33.0161 37.8937 31.7527 37.8203 30.5307 37.7495C30.0771 37.7233 29.6081 37.696 29.142 37.6837C28.613 37.6698 28.0741 37.6425 27.55 37.6158L27.5036 37.6134C27.2781 37.602 27.0524 37.5907 26.8285 37.5804H26.8181C26.2479 37.5804 25.6777 37.5798 25.1074 37.5783C24.4455 37.5772 23.7731 37.5762 23.0979 37.5762C22.2097 37.5762 21.4796 37.578 20.7995 37.5821H20.7695C19.772 37.5821 18.9491 37.2862 18.3898 36.7262C17.8083 36.1439 17.5048 35.2741 17.5125 34.2108C17.5305 31.7106 17.5196 29.1793 17.509 26.7313C17.5031 25.3336 17.497 23.8884 17.4963 22.4605C17.4823 21.6381 17.6683 20.8246 18.0383 20.0899C18.4579 19.2831 19.2073 18.8549 20.3967 18.7425C22.0657 18.585 23.4124 18.4992 24.6348 18.4726C28.164 18.3953 30.88 18.368 33.4411 18.3838C35.3091 18.3954 36.3881 19.2742 36.7398 21.0709C37.1289 23.0622 37.1234 25.1089 37.1175 27.0892L37.117 27.2571C37.1091 30.0656 37.1095 32.3989 37.1186 34.6009H37.1187Z" fill="white"/>
<path d="M27.7922 22.7533C26.6214 22.7315 25.5794 22.9694 24.6938 23.4576C23.6273 24.045 22.4913 24.8382 22.1514 26.2645C21.7142 28.0981 21.9131 29.8623 22.7424 31.5082C23.3361 32.6869 24.2669 33.4121 25.434 33.6054C26.1324 33.7273 26.8396 33.7913 27.5485 33.7968C27.7709 33.7968 27.9915 33.789 28.2033 33.7738C29.7747 33.6604 31.023 33.0305 31.9134 31.9011C33.2919 30.1524 33.5317 28.1502 32.626 25.9502C31.7503 23.8226 30.0751 22.7167 27.7922 22.7533ZM31.6247 28.3752C31.6314 30.7658 30.0285 32.3623 27.5407 32.4416C26.9079 32.4524 26.2756 32.3972 25.6542 32.277C24.8588 32.1342 24.255 31.6554 23.8593 30.8543C23.1992 29.5173 23.0391 28.1354 23.3832 26.7469C23.6483 25.677 24.4295 24.8924 25.7713 24.348C26.2699 24.1475 26.8028 24.0457 27.3402 24.0482C27.8057 24.0504 28.2687 24.1185 28.7151 24.2506C30.4769 24.7633 31.6189 26.3822 31.6247 28.3752Z" fill="white"/>
<path d="M33.8239 20.4248H33.7974C33.5369 20.4313 33.2889 20.5375 33.1044 20.7215C32.92 20.9055 32.8131 21.1533 32.8059 21.4137C32.7994 21.5406 32.8188 21.6675 32.8628 21.7868C32.9069 21.906 32.9745 22.0151 33.0617 22.1075C33.1528 22.2002 33.2619 22.2735 33.3822 22.3229C33.5025 22.3723 33.6315 22.3967 33.7617 22.3948C34.0181 22.3865 34.2616 22.2799 34.4416 22.0971C34.6217 21.9142 34.7246 21.6691 34.729 21.4126C34.7373 20.9005 34.3144 20.4391 33.8239 20.4248Z" fill="white"/>
</svg>
