<svg width="33" height="32" viewBox="0 0 33 32" fill="none" xmlns="http://www.w3.org/2000/svg">
<path d="M30.9746 6.03293C30.5352 2.42415 27.4984 0.975555 24.6849 1.14222C23.015 1.24019 21.3614 1.29235 19.3922 1.34066C17.6081 1.38439 15.7785 1.42195 14.1644 1.45506C11.8482 1.50275 9.45311 1.55216 7.07485 1.61788C4.34448 1.69349 2.14289 3.45228 1.7195 5.89502C1.5495 6.87549 1.54455 7.86483 1.55505 8.96352C1.58582 12.172 1.63277 15.4141 1.6786 18.5494L1.68355 18.8889C1.70167 20.1502 1.71944 21.4115 1.7369 22.6731C1.73987 22.8854 1.74728 23.0985 1.75494 23.3116L1.75558 23.3285C1.78664 23.8563 1.7814 24.3857 1.73989 24.9127C1.593 26.3202 2.13178 27.821 3.1813 28.9268C4.34794 30.1564 6.00134 30.7813 7.83822 30.6876C9.84262 30.5839 11.8872 30.6036 13.8644 30.6226L14.0076 30.6242C16.354 30.6466 18.7401 30.7062 21.0508 30.7642L22.2158 30.7934C22.4121 30.8052 22.6068 30.8346 22.7974 30.8817C22.8976 30.9029 22.9977 30.9238 23.0973 30.9411C23.1116 30.9436 23.1263 30.9449 23.1408 30.9449H24.405C24.4174 30.9447 24.4298 30.944 24.4421 30.9423C24.6947 30.9052 24.9486 30.8715 25.2016 30.8384L25.2206 30.8359C25.7879 30.7618 26.3745 30.6855 26.9463 30.5613C29.4128 30.0256 31.5024 27.4673 31.5094 24.9752C31.511 24.3881 31.5131 23.8008 31.5156 23.2135L31.5167 22.9186C31.5289 19.6995 31.5427 16.3708 31.4734 13.0931C31.423 10.7095 31.255 8.33359 30.9746 6.03293ZM29.6033 24.8017C29.6108 26.7264 27.9319 28.5285 25.7812 28.9042C24.1332 29.1921 22.4486 29.0942 20.8193 28.9999C20.2145 28.9649 19.5891 28.9285 18.9677 28.9122C18.2623 28.8935 17.5437 28.8572 16.8449 28.8216L16.7832 28.8184C16.4825 28.8032 16.1815 28.7881 15.883 28.7744H15.8692C15.1089 28.7744 14.3486 28.7736 13.5882 28.7715C12.7057 28.77 11.8091 28.7687 10.9088 28.7687C9.72464 28.7687 8.75112 28.7712 7.84428 28.7766H7.80437C6.47428 28.7766 5.37708 28.3821 4.63137 27.6354C3.85599 26.8591 3.45138 25.6994 3.46164 24.2816C3.4856 20.9479 3.47112 17.5729 3.45704 14.3088C3.44914 12.4453 3.441 10.5184 3.44001 8.61442C3.42145 7.51789 3.66945 6.43325 4.16274 5.45374C4.72215 4.3779 5.7214 3.80701 7.30724 3.65713C9.53256 3.44712 11.3282 3.33269 12.9581 3.29725C17.6637 3.19421 21.285 3.15776 24.6998 3.17888C27.1905 3.19432 28.6292 4.36603 29.0981 6.76172C29.6168 9.41672 29.6095 12.1456 29.6016 14.7861L29.601 15.0099C29.5905 18.7546 29.591 21.8658 29.6031 24.8017H29.6033Z" fill="#006FB3"/>
<path d="M17.1696 9.00428C15.6084 8.97513 14.2192 9.29241 13.0384 9.94326C11.6164 10.7265 10.1017 11.7841 9.64845 13.6858C9.06556 16.1307 9.33069 18.483 10.4364 20.6774C11.2281 22.249 12.4691 23.216 14.0253 23.4736C14.9565 23.6363 15.8994 23.7216 16.8446 23.7289C17.1411 23.7289 17.4353 23.7185 17.7177 23.6982C19.8129 23.5471 21.4772 22.7072 22.6644 21.2013C24.5025 18.8697 24.8222 16.2001 23.6146 13.2668C22.447 10.43 20.2134 8.95549 17.1696 9.00428ZM22.2795 16.5001C22.2885 19.6875 20.1513 21.8162 16.8343 21.922C15.9904 21.9363 15.1475 21.8627 14.3189 21.7025C13.2583 21.512 12.4533 20.8737 11.9256 19.8055C11.0456 18.0229 10.8321 16.1803 11.2909 14.329C11.6443 12.9025 12.6859 11.8563 14.475 11.1305C15.1398 10.8632 15.8503 10.7274 16.5669 10.7307C17.1876 10.7337 17.8048 10.8246 18.4001 11.0007C20.7491 11.6843 22.2718 13.8428 22.2795 16.5001Z" fill="#006FB2"/>
<path d="M25.2096 5.90039H25.1742C24.8269 5.90909 24.4962 6.05068 24.2502 6.29599C24.0043 6.54129 23.8618 6.87167 23.8522 7.2189C23.8436 7.38815 23.8694 7.55735 23.9281 7.71635C23.9868 7.87536 24.077 8.02082 24.1933 8.14399C24.3147 8.26764 24.4602 8.36537 24.6206 8.4312C24.781 8.49704 24.953 8.5296 25.1266 8.52699C25.4684 8.51596 25.7931 8.37384 26.0331 8.13006C26.2733 7.88629 26.4105 7.55952 26.4164 7.2174C26.4275 6.53469 25.8635 5.9194 25.2096 5.90039Z" fill="#006FB2"/>
</svg>
