<svg width="25" height="25" viewBox="0 0 25 25" fill="none" xmlns="http://www.w3.org/2000/svg">
<g clip-path="url(#clip0_735_8186)">
<path fill-rule="evenodd" clip-rule="evenodd" d="M6.24991 19.9582C7.23909 19.0093 8.48772 18.66 9.46493 18.4615C9.62001 18.4301 9.77695 18.4048 9.944 18.3779L10.0509 18.3606C9.96674 18.2193 9.88272 18.0791 9.7989 17.94C9.55825 17.5402 9.33102 17.1624 9.11594 16.7661C7.73646 14.2252 6.97014 12.1813 6.63099 10.1386C6.42389 8.89372 6.24818 7.25744 6.72823 5.63926C7.53352 2.92542 9.35543 1.29518 12.1434 0.793733C13.9873 0.461869 15.7017 0.792752 17.238 1.77658C19.4529 3.19485 20.3987 5.34357 20.1296 8.34523C19.8743 11.1935 18.5821 13.6808 17.4848 15.5295C17.1183 16.147 16.7202 16.7597 16.3352 17.3523L16.3338 17.3544C16.1812 17.5882 16.0293 17.823 15.8781 18.0587C15.9914 18.0809 16.1047 18.1018 16.218 18.1227L16.2484 18.1283L16.257 18.1299C16.6301 18.1987 17.0157 18.2699 17.3869 18.376C18.3866 18.6609 19.1551 19.1362 19.7362 19.8291C20.1528 20.3255 20.3418 20.8597 20.2835 21.3751C20.2256 21.8858 19.9254 22.3591 19.4152 22.7442C18.3592 23.5415 17.1326 23.875 16.0727 24.0959C14.9795 24.3245 13.8657 24.4399 12.7488 24.4405C11.2522 24.4381 9.76286 24.2331 8.32143 23.8304C7.65623 23.6416 7.02558 23.3476 6.45352 22.9593C5.9198 22.5988 5.60059 22.104 5.55469 21.5662C5.50675 21.0055 5.75401 20.4347 6.24991 19.9582ZM13.0023 19.5168C13.018 19.4965 13.0336 19.4763 13.0492 19.4562C13.2358 19.2139 13.4121 18.9853 13.598 18.7556C15.2643 16.6938 16.5547 14.67 17.5428 12.5687C18.4184 10.7072 18.8425 9.12545 18.8776 7.59128C18.9087 6.21345 18.64 5.14434 18.0316 4.22692C17.0757 2.78628 15.3965 1.94731 13.4974 1.94731C13.3976 1.94731 13.2971 1.94967 13.196 1.95433C11.1322 2.04972 9.37117 3.09061 8.48526 4.73883C7.77213 6.06571 7.5729 7.55868 7.83914 9.58117C8.15047 11.9444 9.11856 14.0607 10.0244 15.8194C10.7283 17.1861 11.5586 18.6005 12.8556 19.7068C12.9047 19.643 12.9537 19.5798 13.0023 19.5168ZM10.8041 19.3353C10.7272 19.2649 10.6281 19.2239 10.5241 19.2193C10.5119 19.2191 10.4998 19.2203 10.4878 19.2227C10.363 19.2513 10.2373 19.2785 10.1115 19.3056C9.59813 19.4166 9.06732 19.5314 8.59164 19.7387C7.99597 20.0009 7.44203 20.3491 6.94748 20.7722C6.71791 20.9685 6.60298 21.1848 6.61523 21.3976C6.62816 21.6236 6.78112 21.8414 7.05746 22.0277C7.45161 22.287 7.8786 22.4926 8.32715 22.639C9.70323 23.1027 11.1533 23.1905 12.6418 23.2453C14.6934 23.2024 16.2971 22.8945 17.6883 22.2768C18.0589 22.1114 18.407 21.8999 18.7245 21.6473C18.7949 21.5997 18.8549 21.5384 18.9009 21.467C18.9469 21.3957 18.9779 21.3157 18.992 21.232C18.994 21.1498 18.9793 21.068 18.9486 20.9917C18.918 20.9153 18.8722 20.8459 18.8139 20.788C18.5452 20.4662 18.2286 20.1879 17.8752 19.9625C17.037 19.4459 16.072 19.3058 15.1543 19.2313C15.0288 19.2485 14.9148 19.3132 14.8355 19.4119C14.5678 19.7251 14.3107 20.0587 14.0622 20.3813L13.8787 20.619C13.6094 20.9668 13.2913 21.0634 12.9342 20.9059C12.1182 20.5437 11.3913 20.0077 10.8041 19.3353ZM15.9935 7.03366C15.9929 7.05323 15.9924 7.07283 15.9924 7.09244C16 7.09822 16.0069 7.10507 16.0128 7.11276C16.0209 7.12345 16.0269 7.13567 16.0302 7.1487C16.0336 7.16173 16.0343 7.17533 16.0322 7.18864C16.0186 7.2779 16.0068 7.36757 15.995 7.45728L15.9919 7.48129C15.9676 7.69839 15.9317 7.91405 15.8844 8.12732C15.5791 9.39421 14.5763 10.1776 13.3479 10.1776C13.1475 10.1772 12.9476 10.1572 12.751 10.1179C11.2915 9.82905 10.279 8.4349 10.4942 7.01021C10.6599 5.91301 11.2153 5.06773 12.1001 4.56581C12.475 4.34436 12.9003 4.22252 13.3355 4.21194C13.7708 4.20138 14.2014 4.30242 14.5866 4.50541C14.983 4.718 15.3193 5.02716 15.5644 5.40421C15.8096 5.78129 15.9557 6.21406 15.9892 6.66258C15.9973 6.77908 15.9989 6.89594 15.9941 7.01262C15.9939 7.01963 15.9937 7.02665 15.9935 7.03366ZM14.8865 7.25145L14.8885 7.21071V7.21028C14.8982 6.51661 14.6731 5.95199 14.2546 5.62099C13.9746 5.40695 13.6299 5.29488 13.2775 5.30332C13.0916 5.30443 12.9064 5.32849 12.7263 5.37496C11.9804 5.56302 11.7053 6.17708 11.5191 6.81271C11.447 7.04185 11.4255 7.28399 11.4562 7.52227C11.4869 7.76055 11.569 7.98926 11.6969 8.19265C11.8371 8.41588 12.0209 8.60858 12.2373 8.75913C12.4537 8.90967 12.6982 9.01501 12.9563 9.06886C13.4506 9.15405 13.8885 9.06236 14.2232 8.80323C14.5997 8.51191 14.8257 8.03147 14.8768 7.41402C14.8816 7.3547 14.8844 7.29539 14.8865 7.25145Z" fill="url(#paint0_linear_735_8186)"/>
</g>
<defs>
<linearGradient id="paint0_linear_735_8186" x1="12.9213" y1="0.668945" x2="12.9213" y2="24.4405" gradientUnits="userSpaceOnUse">
<stop stop-color="#006D9E"/>
<stop offset="1" stop-color="#00426A"/>
</linearGradient>
<clipPath id="clip0_735_8186">
<rect width="24" height="24" fill="white" transform="translate(0.921875 0.554688)"/>
</clipPath>
</defs>
</svg>
