<svg width="36" height="37" viewBox="0 0 36 37" fill="none" xmlns="http://www.w3.org/2000/svg">
<circle cx="18" cy="18.7266" r="18" fill="#EFFBFB"/>
<path d="M12.3415 19.8257C12.6302 19.8452 12.9238 19.8573 13.2079 19.8691C13.2987 19.8729 13.3895 19.8766 13.4803 19.8805L13.5677 19.8844C13.9121 19.8995 14.2683 19.9152 14.6189 19.9266C14.9405 19.9371 15.2914 19.9453 15.6916 19.9518C15.9525 19.956 16.2139 19.9584 16.4751 19.9606L16.8309 19.9638C16.9478 19.965 17.0648 19.9664 17.1816 19.968C17.4401 19.9713 17.7076 19.9741 17.9704 19.9746C18.3083 19.9742 18.708 19.9722 19.1112 19.9599C19.279 19.9547 19.4491 19.9448 19.6135 19.9353C19.7996 19.9245 19.9919 19.9135 20.1807 19.9093C20.2947 19.9068 20.4108 19.8974 20.523 19.8885C20.7634 19.8611 21.0059 19.8597 21.2464 19.8841C21.1467 20.0687 21.0321 20.2449 20.904 20.4113C20.8124 20.5322 20.7269 20.6578 20.648 20.7875L20.6328 20.8135C20.438 21.1461 20.2365 21.4898 20.0554 21.8378C20.0089 21.9269 19.9575 22.0166 19.9075 22.1034C19.7706 22.3413 19.6296 22.5872 19.5618 22.8693C19.5588 22.8818 19.5595 22.8948 19.5637 22.9069C19.5679 22.919 19.5755 22.9296 19.5856 22.9376L19.7561 23.0716C19.7657 23.0792 19.7773 23.084 19.7895 23.0855C19.8017 23.0869 19.8141 23.085 19.8253 23.08C19.8458 23.0707 19.8664 23.063 19.8867 23.0555C19.937 23.0398 19.9842 23.0154 20.0261 22.9833C20.8815 22.2521 21.6462 21.3566 22.5058 20.0799C22.5557 20.002 22.5995 19.9205 22.6372 19.8361C22.7816 19.5332 22.7516 19.2575 22.5483 19.0166C22.5255 18.9896 22.5032 18.9621 22.4809 18.9347C22.4331 18.8755 22.3836 18.8145 22.3285 18.7582C22.1763 18.6026 22.0246 18.4464 21.8734 18.2897C21.4731 17.8754 21.0592 17.447 20.6315 17.0462C20.3547 16.7977 20.0625 16.5667 19.7568 16.3547C19.6589 16.2837 19.5611 16.2128 19.4642 16.1407L19.4535 16.1327C19.3989 16.091 19.2709 15.9936 19.1212 16.1372C19.109 16.149 19.1017 16.165 19.1008 16.1819C19.0882 16.4253 19.2312 16.5865 19.37 16.7423C19.4245 16.8007 19.4749 16.8628 19.5206 16.9282C19.6896 17.1725 19.8742 17.4057 20.0734 17.6262L20.1085 17.6668C20.2059 17.7795 20.3102 17.888 20.4112 17.9937C20.5076 18.0943 20.6074 18.1984 20.6997 18.3046C20.7633 18.3776 20.8339 18.4464 20.9019 18.5128C21.041 18.6368 21.1621 18.7796 21.2617 18.937L21.2406 18.9396C21.1844 18.9485 21.1275 18.953 21.0705 18.953C20.7048 18.9427 20.3391 18.9314 19.9733 18.9191C19.3892 18.9004 18.7852 18.881 18.1909 18.8681C18.005 18.8641 17.819 18.86 17.6331 18.8556C15.9697 18.8174 14.2503 18.7778 12.5602 18.9279C11.9535 18.9816 11.341 19.0729 10.7487 19.1612L10.4999 19.1982C10.4055 19.2207 10.3168 19.2621 10.2389 19.3198C10.1819 19.355 10.1173 19.3949 10.035 19.4396C10.0239 19.4457 10.0147 19.4547 10.0086 19.4657C10.0024 19.4766 9.99945 19.4892 10.0001 19.5018C10.0007 19.5144 10.0049 19.5265 10.0121 19.5368C10.0194 19.5471 10.0294 19.5552 10.041 19.5601C10.4047 19.7124 10.7182 19.7173 10.9948 19.7217C11.0914 19.7232 11.1827 19.7246 11.2734 19.7318C11.43 19.7441 11.5862 19.7592 11.7424 19.7742C11.9384 19.7926 12.1411 19.8121 12.3415 19.8257Z" fill="#00426A"/>
<path d="M24.5019 12.4373C24.4323 12.0483 24.1918 11.83 23.8066 11.8057C23.6566 11.7963 23.4948 11.784 23.3312 11.7717C23.1082 11.7548 22.8776 11.7374 22.6669 11.7266C21.2084 11.7344 18.7143 11.8798 18.5187 11.9077C18.4798 11.9113 18.4421 11.9234 18.4083 11.943C18.3745 11.9626 18.3454 11.9894 18.323 12.0214C18.298 12.0662 18.2831 12.1159 18.2793 12.167C18.2753 12.2181 18.2826 12.2695 18.3005 12.3175C18.3031 12.3269 18.3077 12.3356 18.314 12.343C18.3204 12.3504 18.3282 12.3564 18.3371 12.3604C18.7155 12.5342 20.7584 12.5826 22.2501 12.6179C22.8327 12.6316 23.3031 12.6428 23.5305 12.6582C23.5383 12.7394 23.5465 12.816 23.5543 12.8893C23.5739 13.0715 23.5905 13.2292 23.5944 13.3877C23.6095 14.0214 23.6251 14.7707 23.625 15.5228C23.625 16.0234 23.6257 16.5241 23.627 17.0247C23.63 18.5897 23.6334 20.208 23.6043 21.7987C23.5872 22.7365 23.5267 23.6901 23.4681 24.6121C23.4434 24.9999 23.418 25.4009 23.3963 25.7954C23.3907 25.8684 23.3808 25.9411 23.3669 26.013C23.3626 26.039 23.358 26.0659 23.3533 26.0938C23.3188 26.0989 23.2848 26.1043 23.251 26.1098C23.151 26.1277 23.0503 26.1402 22.9489 26.1474C22.6352 26.1636 22.3212 26.1772 22.0072 26.1907C21.4608 26.2142 20.8958 26.2386 20.3408 26.2777C19.7471 26.3196 18.7536 26.3788 18.2142 26.4103C18.111 26.4163 18.014 26.4613 17.9431 26.5362C17.872 26.6111 17.8324 26.7102 17.832 26.8133C17.8318 26.9164 17.871 27.0157 17.9416 27.091C18.0122 27.1662 18.109 27.2117 18.2121 27.2183C19.0261 27.2704 20.8133 27.3733 22.21 27.3733C22.5377 27.3733 22.8443 27.3676 23.1114 27.3543L23.208 27.3498C23.4246 27.3475 23.6406 27.3227 23.8523 27.276C24.2268 27.1795 24.3948 26.956 24.4141 26.5288C24.4295 26.1894 24.4476 25.8501 24.4656 25.5108C24.4945 24.9707 24.5243 24.4128 24.5419 23.8629C24.5806 22.6546 24.6032 21.5622 24.6108 20.5232C24.6141 20.0594 24.6184 19.5956 24.6238 19.1316C24.6441 17.1795 24.6651 15.1608 24.5717 13.1752C24.5644 12.928 24.5411 12.6815 24.5019 12.4373Z" fill="#00426A"/>
</svg>
