<svg width="192" height="59" viewBox="0 0 192 59" fill="none" xmlns="http://www.w3.org/2000/svg">
<path d="M19.9451 29.5633C19.5499 30.5117 18.9703 31.2494 18.2853 32.0134C17.9692 32.3559 17.653 32.9355 17.574 33.4097C17.4686 34.1737 17.9165 35.5173 18.5224 35.9915C19.1547 36.5184 20.2349 36.7819 20.9462 36.2813C21.8946 35.5963 22.3688 34.6479 22.3425 33.4887C22.3425 32.9882 22.3425 32.5403 21.9473 32.2768C20.9725 31.6446 20.3139 30.459 20.0241 29.3262L19.9451 29.5633Z" fill="#F18D93"/>
<path d="M35.7539 16.7314C35.0689 16.2835 34.2522 15.7302 33.5145 15.3877C32.8822 15.0716 31.5913 14.8872 30.9327 14.6237C31.1962 13.4382 31.9865 12.7532 32.6978 12.4634C33.5145 12.1209 34.0678 12.0946 34.9372 12.0419C35.5695 12.0156 36.4125 12.0419 36.8867 11.7258C37.6244 11.2515 37.44 10.5139 36.9658 9.93428C36.1227 8.90681 33.857 7.80031 32.5398 7.53686C31.0908 7.27341 30.3794 7.00995 29.2203 8.03742C28.3772 8.77509 27.4024 10.0133 27.3497 11.1725L26.9282 11.6204C26.1906 11.436 25.2948 11.0144 24.6098 10.751C24.6098 11.5677 24.3991 12.3844 24.2147 13.1747C23.8722 14.5974 23.398 15.9937 23.0291 17.4163C22.1597 20.8676 23.0555 24.3978 27.139 24.2661C27.9557 24.2398 29.7999 23.6075 30.3004 22.9488C30.5375 22.6327 30.5375 22.4483 30.9064 22.3429C30.9064 22.3692 30.9064 22.3692 30.9064 22.3956C30.5375 25.1618 38.1513 25.6887 38.7309 21.2891C38.9944 19.3395 37.2556 17.7325 35.7539 16.7314Z" fill="#99D3D8"/>
<path d="M53.2985 11.83C51.5334 8.64223 48.9779 6.66634 46.6595 5.53349C41.8383 3.21511 38.15 4.50603 36.3321 5.13831C35.1729 5.71791 34.3036 6.19212 34.3562 6.24481C34.488 6.2975 34.5934 6.3502 34.7251 6.40289C35.0149 6.37654 35.5418 6.21847 36.5692 5.87598C38.4661 5.34908 41.7329 4.24257 46.2116 6.45558C48.3456 7.53573 50.7167 9.3799 52.3501 12.3569C53.9571 15.2812 54.6684 19.3911 53.3248 23.7381C52.0339 28.085 49.3204 31.1938 46.7912 33.4595C44.2094 35.7252 41.6802 37.2532 39.5199 38.4651C35.1203 40.8098 32.0642 41.8373 30.1673 42.5486C27.6119 43.418 26.558 43.7078 26.1365 43.8395C25.5833 43.6024 24.345 43.1018 22.0794 41.6265C20.3406 40.441 17.548 38.6758 13.7279 35.2773C11.831 33.5649 9.69708 31.4309 7.6685 28.5329C5.66626 25.6613 3.74305 21.8676 3.71671 17.2044C3.66402 12.5413 5.1657 8.53685 7.64215 6.11309C10.0659 3.66298 13.0429 2.6882 15.4667 2.31937C20.5513 1.52901 23.502 3.34684 25.2408 4.42699C27.2694 5.79694 28.3232 6.66634 28.5603 6.79806C28.6393 6.71903 28.7447 6.66634 28.8237 6.5873C28.771 6.40289 27.928 5.45446 25.6623 3.76836C24.0289 2.60917 20.7094 0.527892 15.335 1.31825C12.7268 1.66074 9.53901 2.66186 6.8518 5.34908C4.13823 7.9836 2.53117 12.3569 2.61021 17.2044C2.63655 22.21 4.69148 26.1882 6.74641 29.1652C8.85403 32.1686 11.0934 34.3289 13.0166 36.0413C16.942 39.4662 19.8137 41.205 21.6315 42.2851C24.266 43.8132 25.7677 44.3137 25.9521 44.3401C26.2946 44.3928 27.6645 44.0503 30.3781 43.2863C32.354 42.654 35.4627 41.7055 39.9678 39.3608C42.2071 38.1753 44.8153 36.6209 47.5025 34.2762C50.1371 31.9314 52.9823 28.691 54.3786 24.0542C55.8276 19.4701 55.0373 14.9914 53.2985 11.83Z" fill="#F18D93"/>
<path d="M26.5567 19.6123C26.5831 19.6386 26.6094 19.6649 26.6621 19.7176C26.6358 19.0327 26.2406 18.3477 25.6346 18.0579C24.9497 17.689 23.9485 17.7154 23.5007 18.4531C23.3953 18.6111 23.4216 18.7956 23.527 18.9273C24.6072 19.2961 25.0024 18.5058 26.5567 19.6123Z" fill="#0B405E"/>
<path d="M17.0214 18.6536C16.9687 18.68 16.9424 18.7063 16.916 18.7327C17.1004 18.074 17.68 17.5208 18.3123 17.3627C19.0763 17.1783 20.0248 17.4417 20.2882 18.2584C20.3409 18.4429 20.2619 18.6009 20.1565 18.7327C18.9973 18.838 18.8129 17.9423 17.0214 18.6536Z" fill="#0B405E"/>
<path d="M22.1588 32.3905C22.3169 32.3905 22.4486 32.3114 22.554 32.9174C22.9229 34.8142 22.2642 37.0799 19.8141 36.9218C17.7855 36.8428 17.4694 34.8933 17.4167 34.1819C17.3113 33.3125 17.4167 32.6803 17.5221 32.3641C17.7855 31.7055 17.7592 32.048 17.9173 32.1007C18.0753 32.1534 18.2071 31.7582 18.1544 32.3378C18.1544 32.6276 17.9436 33.497 18.0753 34.1556C18.2071 34.7879 18.7603 36.1578 19.8668 36.1842C22.475 36.2369 22.0271 33.576 21.8954 32.2324C22.0008 31.5738 22.0008 32.3905 22.1588 32.3905Z" fill="#0B405E"/>
<path d="M19.9443 33.1786C19.7863 33.1522 19.7863 32.5199 19.918 30.2542C20.1814 27.1455 20.3922 27.3563 20.4976 27.3826C20.682 27.409 20.7347 27.2509 20.4712 30.3069C20.2605 32.7307 20.0761 33.2049 19.9443 33.1786Z" fill="#0B405E"/>
<path d="M37.8066 21.1781C37.2797 20.7303 36.463 20.941 35.9625 21.3099C35.6463 21.547 35.2775 21.9685 35.3565 22.4164C35.8044 22.0212 36.3577 21.8368 36.9636 21.8368C37.227 21.8368 37.4378 22.0212 37.7013 21.9422C37.9647 21.8368 38.0701 21.4152 37.8066 21.1781Z" fill="#0B405E"/>
<path d="M44.3415 19.8876C43.6829 19.7032 42.8662 19.8349 42.6027 20.5462C42.55 20.7043 42.6027 20.8624 42.7081 20.9414C43.0242 21.0995 43.2613 20.7307 43.5511 20.678C44.1834 20.5726 44.8684 20.6253 45.4216 20.9414C45.448 20.9678 45.5007 20.9941 45.527 20.9941C45.3953 20.4409 44.9211 20.0457 44.3415 19.8876Z" fill="#0B405E"/>
<path d="M51.9031 23.3388C51.9031 23.3125 51.9031 23.2862 51.9031 23.2598C51.7977 22.6275 51.5869 22.0479 51.2971 21.4683C51.0073 21.0205 50.7175 20.6516 50.4277 20.3091C49.9008 19.6769 49.5057 19.15 49.532 18.5967C49.6637 16.3837 48.9788 14.6713 48.3992 13.3013L48.2147 12.8798L47.9513 12.3529C47.7405 11.9313 47.4771 11.7206 47.1873 11.7206C46.8975 11.7206 46.6077 11.905 46.2652 12.1421L46.1071 12.2475C45.5012 12.6163 45.0797 12.9061 44.7372 13.1432C43.3936 14.1444 43.0774 14.6186 42.7613 15.1718C42.7086 15.2509 42.6559 15.3299 42.6296 15.4089C42.2344 15.2509 41.6548 15.0928 40.7854 15.0928C40.3112 15.0928 39.8106 15.1455 39.2574 15.2245C37.703 15.488 37.2024 15.8041 36.5965 16.2256C36.4384 16.331 36.2803 16.4364 36.0959 16.5418C35.7271 16.1729 34.9367 15.5143 33.5141 14.9347C33.0662 14.7503 32.5657 14.5922 31.9597 14.4078C31.749 14.3551 31.6436 14.2761 31.6172 14.1707C31.5645 13.9863 31.8807 13.6438 31.9861 13.5384C32.3812 13.1432 32.9608 12.9061 33.7512 12.8534C34.041 12.8007 34.3308 12.8007 34.6996 12.8007C35.3056 12.8007 35.9905 12.8007 36.8599 12.5636C37.4922 12.4583 37.9401 12.0104 38.0982 11.3254C38.3089 10.4824 38.0191 9.50758 37.4395 9.03337C37.1497 8.82261 36.8599 8.63819 36.5438 8.42743L36.4384 8.37474C34.5942 7.21555 32.8028 6.58326 31.3801 6.58326C30.4844 6.58326 29.7204 6.82037 29.1408 7.32093C27.9289 8.34839 27.5337 9.34951 27.2703 9.9818C27.2176 10.1399 27.1649 10.2716 27.0859 10.4033C26.9805 10.7195 26.9014 10.9566 26.8487 11.141C26.1638 10.7458 24.8728 10.2716 22.6862 10.0872C22.3174 10.0608 21.9485 10.0608 21.606 10.0608C19.6038 10.0608 18.7344 10.4297 18.1812 10.7458L18.1548 10.6404C17.9967 10.1926 17.6542 9.21779 16.5214 7.32093C16.1262 6.74133 15.5203 6.24077 14.809 5.95097C14.3347 5.7929 13.8078 5.71387 13.2546 5.71387C12.8594 5.71387 12.4642 5.74021 12.0691 5.81925C11.0152 6.03001 9.98778 6.34615 9.013 6.79402C8.38072 7.08382 7.85381 7.34727 7.3796 7.63707C7.03711 7.79514 6.45751 8.2957 6.2731 8.90164C6.16772 9.29682 6.19406 9.66566 6.40482 10.0345C7.16884 11.22 8.38072 11.4044 9.43453 11.5625C9.93509 11.6416 10.383 11.7206 10.7781 11.8787C11.9637 12.3265 13.0965 13.6174 12.9121 15.4616C12.8331 17.1477 12.1217 18.9655 11.226 21.1522C11.0679 21.5737 10.8835 22.0216 10.6728 22.4958C9.96143 24.1555 9.17108 26.0261 9.35549 28.2654C9.53991 30.979 11.2787 32.3753 13.7025 33.271C14.8617 33.7189 16.2316 33.7189 17.3381 33.1129C18.2602 32.6124 19.0505 31.9011 19.7355 30.8999C19.8936 30.6628 20.0517 30.3994 20.1834 30.1096C20.3415 30.5838 20.5522 31.058 20.7893 31.4795C21.6587 32.9549 23.6873 34.035 25.7949 34.2985C27.9026 34.5619 30.0365 33.9823 31.0113 32.1382C31.6172 31.0053 31.9861 30.6365 32.5393 30.6365C32.8818 30.6365 33.3033 30.7682 33.8829 30.9526C34.1991 31.058 34.5416 31.1634 34.9631 31.2688C36.4911 31.6903 38.2826 32.1118 40.1794 32.1118C40.7854 32.1118 41.3913 32.0591 41.9709 31.9801C44.7635 31.5586 49.7691 30.2413 51.6133 26.1841C51.9558 25.3411 52.0612 24.3663 51.9031 23.3388ZM30.1156 31.7693C28.5348 34.4829 23.0814 33.192 21.8168 30.9263C21.4743 30.3203 21.2372 29.609 21.1318 28.8977C22.8443 28.3971 25.7159 26.8164 24.5304 25.6045C23.3975 24.4453 18.1812 24.0765 17.2064 24.6034C15.6784 25.4465 17.9177 27.8439 19.4194 28.7133C19.2086 29.2665 18.9452 29.7671 18.6554 30.2413C17.7069 31.7166 15.8891 32.8495 14.1503 32.0855C12.2271 31.3741 10.8045 30.3994 10.6464 28.1864C10.462 26.3422 11.1997 24.6298 11.8846 22.9964C12.0691 22.5748 12.2535 22.127 12.4115 21.7054L12.4642 21.5737C13.2809 19.5451 14.0713 17.6219 14.1767 15.5933C14.4138 13.5121 13.0965 11.4044 11.1997 10.7722C10.6201 10.5877 10.0141 10.4824 9.51356 10.377C8.53879 10.1926 7.74843 10.0608 7.43229 9.50758C7.3796 9.45489 7.3796 9.37586 7.3796 9.32317C7.48498 8.90164 8.53879 8.37474 9.22377 8.03225L9.43453 7.92687C10.3303 7.50534 11.2524 7.1892 12.2271 6.97844C12.596 6.8994 12.9648 6.84671 13.3073 6.84671C14.3084 6.84671 15.1514 7.24189 15.652 7.95321C16.6268 9.77104 16.9956 10.6404 17.18 11.0356C17.2591 11.22 17.3381 11.6942 17.6279 11.6942C17.7333 11.6942 17.865 11.6679 18.0758 11.5889L18.1812 11.5625C18.6817 11.4308 19.6301 11.141 21.4743 11.141C21.8168 11.141 22.1856 11.141 22.5545 11.1673C25.189 11.3781 26.3482 11.9313 26.8487 12.1948L26.8751 12.2211C26.9014 12.2211 26.9278 12.2475 26.9541 12.2475C27.1122 12.2475 27.323 12.0367 27.9026 10.9566L27.9289 10.8775C28.0079 10.7458 28.087 10.5877 28.1924 10.4033C28.5085 9.82373 28.93 9.00702 29.7994 8.34839C30.1419 8.0586 30.6161 7.90052 31.2221 7.90052C32.3812 7.90052 33.9883 8.48012 35.6744 9.53393C36.0432 9.77104 36.9126 10.5087 36.8336 10.9829C36.8073 11.1673 36.6492 11.2991 36.3594 11.3781C35.8325 11.5362 35.2265 11.5625 34.6469 11.5625C34.2254 11.5889 33.8566 11.5889 33.4877 11.6416C31.4065 11.984 30.3527 13.2486 30.1156 15.8041L30.0892 16.1729C29.9311 17.6219 29.7204 19.5978 30.4054 21.6264C30.5107 22.1006 30.2736 22.6275 29.9838 23.3125C29.7731 23.7867 29.536 24.34 29.4042 24.9459C29.0881 26.1841 29.5096 27.1853 29.9311 28.16C30.458 29.3192 30.9059 30.3994 30.1156 31.7693ZM50.3751 25.789C49.2686 28.2654 45.9754 30.1886 41.7338 30.7946C40.8908 30.8999 40.0477 30.979 39.2047 30.979C36.0432 30.979 33.4087 30.1623 31.8017 28.6869C31.3538 28.2654 31.0376 27.7385 30.8269 27.1589C31.5645 27.4487 32.3022 27.5804 33.0662 27.5804C33.8302 27.5804 34.3571 27.5014 35.3846 27.2116C35.6744 27.1326 35.8325 26.9218 35.8061 26.7637C35.7798 26.6583 35.7008 26.5266 35.49 26.5266C35.4373 26.5266 35.3583 26.5266 35.3056 26.553C34.6733 26.7374 34.3308 26.7637 33.7249 26.7637C32.6974 26.7637 31.6699 26.5266 30.6952 26.0261C30.6688 26.0261 30.6425 25.9997 30.6161 25.9997C30.6161 25.7363 30.6161 25.4728 30.6688 25.2094C30.7215 24.8932 30.8532 24.5507 31.0113 24.2082C31.1694 24.2873 31.3274 24.34 31.4855 24.3927C31.8017 24.5244 32.0651 24.6825 32.4339 24.8142C32.8818 24.9459 33.0399 24.9986 33.6458 25.0249C33.9093 25.0249 34.1727 24.9986 34.4098 24.9986H34.4625C34.7787 24.9722 34.9631 24.7615 34.9631 24.5771C34.9631 24.419 34.8314 24.2873 34.5679 24.2873C34.5416 24.2873 34.5416 24.2873 34.5152 24.2873C34.3571 24.2873 34.2254 24.3136 34.0937 24.3136C33.5404 24.3136 33.1716 24.1819 32.6447 23.9711C32.1968 23.8131 31.828 23.5233 31.4065 23.3388C31.6172 22.8119 31.7753 22.1797 31.6699 21.4156C31.0113 19.5451 31.143 17.9644 31.2484 16.5945C31.2747 16.3837 31.2747 16.1993 31.3011 16.0149C31.3274 15.8304 31.3801 15.646 31.4065 15.4616V15.4089L31.6436 15.4616C32.1968 15.6197 32.7237 15.7514 33.1716 15.9095C33.3297 15.9885 33.5141 16.0412 33.6722 16.0939C33.962 16.1993 34.2781 16.3047 34.5679 16.4627C34.6996 16.5418 34.884 16.7262 35.0421 16.9106C35.2529 17.1477 35.4636 17.3585 35.6481 17.4375C35.7271 17.4639 35.8325 17.4902 35.9379 17.4902C36.4911 17.4902 37.2024 17.1741 37.8874 16.8579C38.388 16.6208 38.8885 16.41 39.231 16.3574C39.9687 16.252 40.5746 16.1729 41.1279 16.1729C41.365 16.1729 41.6284 16.1729 41.8392 16.1993C41.8919 16.1993 41.9973 16.2256 42.129 16.252C42.3661 16.3047 42.6559 16.3837 42.8667 16.3837C42.9984 16.3837 43.1038 16.3574 43.1828 16.3047C43.3672 16.1466 43.3936 16.0149 43.4199 15.8831C43.4199 15.8041 43.4463 15.7251 43.4726 15.646C43.5253 15.5143 43.6307 15.3299 43.7097 15.2508C44.0259 14.9084 44.4474 14.5922 44.8426 14.3024C45.0006 14.197 45.1587 14.0917 45.2904 13.9863C45.6856 13.7228 46.1862 13.433 46.634 13.1696C46.7658 13.0905 46.8711 13.0378 47.0029 12.9588L47.1873 13.354C47.24 13.5121 47.319 13.6701 47.3717 13.8282C47.8459 15.1191 48.4519 16.6998 48.2938 18.623C48.2938 19.4924 48.7153 20.1511 49.1632 20.7307C48.6099 21.5474 48.004 22.0479 47.24 22.3641C46.9765 22.4695 46.8711 22.6802 46.8975 22.8119C46.9238 22.9437 47.0556 23.049 47.2136 23.049C47.2927 23.049 47.3717 23.0227 47.4507 22.9964C48.4519 22.6012 49.2159 22.2587 49.7955 21.4947C49.9272 21.6791 50.0853 21.8899 50.1906 22.0743C50.3751 22.4431 50.5068 22.8383 50.5858 23.2335C49.5057 23.8131 48.3201 24.3927 47.0292 24.6034C46.7394 24.6561 46.634 24.8142 46.6604 24.9459C46.6604 25.0776 46.8185 25.2357 47.0819 25.2357C47.1346 25.2357 47.1609 25.2357 47.24 25.2357C48.4519 25.0249 49.611 24.8405 50.6912 24.2873C50.6912 24.8142 50.5858 25.3147 50.3751 25.789Z" fill="#0B405E"/>
<path d="M40.0985 28.2549C39.8351 28.2549 39.5716 28.2286 39.2818 28.1495C37.8592 27.649 37.4904 26.8849 37.3323 26.6215C37.1215 26.2 37.5431 25.9365 37.8329 26.3053C37.8592 26.3317 37.8855 26.358 37.9382 26.4107C38.149 26.6478 38.5442 27.0957 39.4926 27.4382C39.7561 27.5172 39.9668 27.5699 40.1512 27.5699C40.4147 27.5699 40.6518 27.4909 40.8626 27.3065C41.2577 26.9903 41.1524 26.3053 41.047 25.7784C40.9679 25.3833 40.9416 24.9881 40.8362 24.5402C40.7308 24.5139 40.6518 24.4875 40.5464 24.4348L40.441 24.4085C40.0195 24.2241 39.4926 23.7499 39.4926 23.302C39.519 22.617 40.2303 22.7224 40.7045 22.7224C40.8889 22.7224 40.9679 22.7487 41.126 22.6434C41.2314 22.5643 41.6266 22.4062 41.732 22.4062C41.89 22.4062 42.0744 22.4589 42.1798 22.5907C42.496 22.9595 42.1271 23.6972 41.9427 23.987C41.8373 24.145 41.7056 24.2241 41.5739 24.3295C41.5475 24.3558 41.5475 24.3558 41.5212 24.3821C41.6266 25.1198 41.7583 25.8048 41.8637 26.5161C41.9164 26.964 42.1535 27.1484 42.575 27.1484C42.6277 27.1484 42.7067 27.1484 42.7594 27.1484C43.1809 27.0957 43.3917 26.964 43.7342 26.6742C44.3928 26.0682 44.5772 25.5413 44.6826 25.2252C44.709 25.1198 44.7353 25.0408 44.788 24.9617C44.9988 24.5929 45.3676 24.6193 45.3676 25.0935C45.3676 25.1462 45.3413 25.1988 45.3413 25.2515C45.2886 25.6204 45.2095 26.358 44.2348 27.2538C43.8132 27.649 43.1546 27.8861 42.575 27.8861C42.4433 27.8861 42.3379 27.8861 42.2325 27.8597C42.1271 27.8334 42.0218 27.7807 41.9427 27.7016C41.8637 27.649 41.811 27.6226 41.7583 27.5963H41.732C41.6002 27.5963 41.4948 27.7016 41.3631 27.8334C41.2577 27.9388 41.1787 28.0178 41.047 28.0968C40.7835 28.1759 40.4674 28.2549 40.0985 28.2549Z" fill="#0B405E"/>
<path d="M25.0018 29.4496C24.8701 29.4496 24.791 29.3706 24.7384 29.2652C24.6857 29.1335 24.712 29.0018 24.791 28.8964L24.8174 28.87C24.8701 28.791 24.9491 28.7646 25.0545 28.7646C25.1862 28.7646 25.3443 28.87 25.3706 29.0018C25.4233 29.1335 25.397 29.2652 25.2916 29.3442L25.2389 29.3706C25.1862 29.4233 25.1072 29.4496 25.0281 29.4496H25.0018Z" fill="#0B405E"/>
<path d="M26.2409 30.2542C26.1355 30.2542 26.0301 30.2015 25.9511 30.1225C25.8984 30.0435 25.8457 29.9644 25.8457 29.859C25.8457 29.6746 25.9774 29.4639 26.2409 29.4639C26.3463 29.4639 26.4516 29.5166 26.5307 29.5956C26.5834 29.6746 26.6361 29.7537 26.6361 29.859C26.6361 30.0435 26.5043 30.2542 26.2409 30.2542Z" fill="#0B405E"/>
<path d="M24.7917 31.2591C24.5282 31.2591 24.3965 31.0747 24.3965 30.8639C24.3965 30.6795 24.5282 30.4688 24.7917 30.4688C24.897 30.4688 25.0024 30.5214 25.0815 30.6005C25.1342 30.6795 25.1868 30.7585 25.1868 30.8639C25.1868 31.0483 25.0551 31.2591 24.7917 31.2591Z" fill="#0B405E"/>
<path d="M15.7799 28.2952C15.6746 28.2952 15.5692 28.2426 15.4901 28.1635C15.4375 28.0845 15.3848 28.0054 15.3848 27.9001C15.3848 27.7156 15.5165 27.5049 15.7799 27.5049C15.8853 27.5049 15.9907 27.5576 16.0697 27.6366C16.1224 27.7156 16.1751 27.7947 16.1751 27.9001C16.1751 28.0845 16.0434 28.2952 15.7799 28.2952Z" fill="#0B405E"/>
<path d="M16.2292 30.0101C16.1238 30.0101 16.0184 29.9574 15.9394 29.8784C15.8867 29.7993 15.834 29.7203 15.834 29.6149C15.834 29.4305 15.9657 29.2197 16.2292 29.2197C16.4926 29.2197 16.6243 29.4041 16.6243 29.6149C16.598 29.7993 16.4663 30.0101 16.2292 30.0101Z" fill="#0B405E"/>
<path d="M14.4644 29.0952C14.4117 29.0952 14.359 29.0952 14.3326 29.0689C14.2009 28.9898 14.1482 28.8844 14.1746 28.7527C14.2009 28.621 14.3063 28.5156 14.438 28.4893C14.438 28.4893 14.4644 28.4893 14.4907 28.4893C14.6224 28.4893 14.7278 28.5683 14.7805 28.7C14.8332 28.8054 14.7805 28.9371 14.7015 29.0162C14.5961 29.0689 14.5434 29.0952 14.4644 29.0952Z" fill="#0B405E"/>
<path d="M60.4824 17.2648C59.5718 16.7727 58.932 16.1082 58.6121 15.2961C58.5629 15.1485 58.5137 15.0501 58.5137 14.9516C58.5137 14.7794 58.5875 14.6317 58.7105 14.5087C58.8336 14.3856 59.0058 14.2872 59.2273 14.238C59.2519 14.238 59.3258 14.2134 59.3996 14.2134C59.5718 14.2134 59.7687 14.2626 59.9164 14.3856C60.0886 14.4841 60.2117 14.6317 60.2855 14.8286C60.4824 15.2715 60.9007 15.6653 61.5159 15.9606C62.1311 16.2805 62.7956 16.4281 63.5338 16.4281C64.3951 16.4281 65.1334 16.2313 65.724 15.8375C66.3146 15.4438 66.6099 14.9024 66.6099 14.2134C66.6099 13.5489 66.3638 13.0075 65.847 12.54C65.3549 12.0724 64.5674 11.8017 63.5338 11.6787C62.1065 11.531 60.9991 11.1373 60.1871 10.4236C59.375 9.7346 58.9566 8.8733 58.9566 7.81513C58.9566 7.07687 59.1535 6.43704 59.5718 5.92026C59.9902 5.37887 60.5562 4.98513 61.2944 4.68983C62.0327 4.41914 62.8448 4.27148 63.7553 4.27148C64.7397 4.27148 65.5763 4.46835 66.2408 4.8867C66.9052 5.28044 67.4958 5.87104 67.9634 6.6093C68.111 6.83078 68.1602 7.02765 68.1602 7.22452C68.1602 7.47061 68.0372 7.69208 67.8157 7.83973C67.6927 7.91356 67.545 7.96278 67.3728 7.96278C67.2005 7.96278 67.0283 7.91356 66.8806 7.83973C66.733 7.76591 66.6099 7.64287 66.5361 7.49521C66.2162 6.97843 65.847 6.58469 65.3795 6.314C64.9119 6.0433 64.3213 5.92026 63.6077 5.92026C62.7464 5.92026 62.0327 6.09252 61.4913 6.43704C60.9499 6.78156 60.6792 7.27374 60.6792 7.91356C60.6792 8.50417 60.9253 8.99634 61.3929 9.41469C61.8851 9.80842 62.7217 10.0791 63.9768 10.2022C65.3549 10.3498 66.413 10.7436 67.1759 11.4572C67.9388 12.1462 68.3079 13.0568 68.3079 14.1888C68.3079 15.0255 68.0864 15.7145 67.6435 16.3051C67.2005 16.8957 66.6099 17.3387 65.8716 17.634C65.1334 17.9293 64.3459 18.0769 63.4846 18.0769C62.4018 18.0031 61.3929 17.757 60.4824 17.2648Z" fill="#0B405E"/>
<path d="M73.2792 17.5224C72.4179 17.1287 71.7535 16.5627 71.2859 15.8245C70.8184 15.1108 70.5723 14.2741 70.5723 13.339V5.31657C70.5723 5.04588 70.6461 4.84901 70.8184 4.67675C70.9906 4.50449 71.2121 4.43066 71.4582 4.43066C71.7289 4.43066 71.9257 4.50449 72.098 4.67675C72.2703 4.84901 72.3441 5.07049 72.3441 5.31657V13.339C72.3441 13.9542 72.5163 14.4956 72.8363 14.9632C73.1562 15.4553 73.6237 15.8245 74.1897 16.0952C74.7803 16.3658 75.4202 16.4889 76.183 16.4889C76.8967 16.4889 77.5365 16.3412 78.1025 16.0952C78.6685 15.8245 79.1115 15.4553 79.4068 14.9632C79.7267 14.471 79.8743 13.9296 79.8743 13.339V5.31657C79.8743 5.04588 79.9481 4.84901 80.1204 4.67675C80.2927 4.50449 80.5141 4.43066 80.7602 4.43066C81.0063 4.43066 81.2278 4.50449 81.3754 4.67675C81.5477 4.84901 81.6215 5.07049 81.6215 5.31657V13.339C81.6215 14.2495 81.4001 15.0862 80.9325 15.7998C80.4649 16.5381 79.8251 17.1041 78.9884 17.4978C78.1517 17.9162 77.2166 18.1131 76.1584 18.1131C75.1002 18.1377 74.1405 17.9162 73.2792 17.5224Z" fill="#0B405E"/>
<path d="M84.8691 17.5963C84.6969 17.424 84.623 17.2025 84.623 16.9565V5.31657C84.623 5.04588 84.6969 4.84901 84.8691 4.67675C85.0414 4.50449 85.2629 4.43066 85.509 4.43066H88.9542C89.7909 4.43066 90.5537 4.62753 91.2428 4.99666C91.9072 5.36579 92.424 5.90718 92.8177 6.57161C93.1868 7.26066 93.3837 8.02352 93.3837 8.88482C93.3837 9.72152 93.1868 10.4598 92.8177 11.1242C92.4486 11.7886 91.9318 12.2808 91.2428 12.6499C90.5783 13.0191 89.8155 13.1913 88.9542 13.1913H86.4195V16.9565C86.4195 17.2025 86.3456 17.424 86.1734 17.5963C86.0011 17.7685 85.8043 17.8424 85.5336 17.8424C85.2629 17.8424 85.0414 17.7685 84.8691 17.5963ZM88.9542 11.5426C89.7416 11.5426 90.3815 11.2965 90.8736 10.8043C91.3658 10.3121 91.6365 9.6723 91.6365 8.88482C91.6365 8.07274 91.3904 7.40831 90.8736 6.86692C90.3815 6.35014 89.717 6.07944 88.9542 6.07944H86.4195V11.5426H88.9542Z" fill="#0B405E"/>
<path d="M95.2519 17.5963C95.0797 17.424 95.0059 17.2025 95.0059 16.9565V5.31657C95.0059 5.04588 95.0797 4.84901 95.2519 4.67675C95.4242 4.50449 95.6457 4.43066 95.8918 4.43066H99.337C100.174 4.43066 100.937 4.62753 101.626 4.99666C102.29 5.36579 102.807 5.90718 103.201 6.57161C103.57 7.26066 103.767 8.02352 103.767 8.88482C103.767 9.72152 103.57 10.4598 103.201 11.1242C102.831 11.7886 102.315 12.2808 101.626 12.6499C100.961 13.0191 100.198 13.1913 99.337 13.1913H96.8023V16.9565C96.8023 17.2025 96.7285 17.424 96.5562 17.5963C96.3839 17.7685 96.1871 17.8424 95.9164 17.8424C95.6457 17.8424 95.4242 17.7685 95.2519 17.5963ZM99.337 11.5426C100.124 11.5426 100.764 11.2965 101.256 10.8043C101.749 10.3121 102.019 9.6723 102.019 8.88482C102.019 8.07274 101.773 7.40831 101.256 6.86692C100.764 6.35014 100.1 6.07944 99.337 6.07944H96.8023V11.5426H99.337Z" fill="#0B405E"/>
<path d="M129.903 17.0549C129.903 17.2764 129.829 17.4732 129.681 17.6209C129.534 17.7685 129.312 17.8424 129.066 17.8424C128.722 17.8424 128.476 17.6947 128.303 17.424L125.35 12.6746H125.03H122.84V16.9565C122.84 17.2025 122.766 17.424 122.594 17.5963C122.422 17.7685 122.2 17.8424 121.954 17.8424C121.708 17.8424 121.487 17.7685 121.314 17.5963C121.142 17.424 121.068 17.2025 121.068 16.9565V5.31657C121.068 5.04588 121.142 4.84901 121.314 4.67675C121.487 4.50449 121.708 4.43066 121.954 4.43066H125.055C125.892 4.43066 126.655 4.60292 127.344 4.97205C128.008 5.31657 128.525 5.83336 128.919 6.47318C129.288 7.113 129.485 7.85126 129.485 8.66335C129.485 9.47543 129.288 10.1891 128.869 10.8289C128.451 11.4687 127.885 11.9363 127.196 12.2562L129.829 16.4889C129.829 16.6611 129.903 16.858 129.903 17.0549ZM125.006 11.0258C125.793 11.0258 126.433 10.8043 126.925 10.3613C127.417 9.91839 127.688 9.35239 127.688 8.63874C127.688 7.87587 127.442 7.26066 126.925 6.79309C126.408 6.32553 125.769 6.07944 125.006 6.07944H122.816V11.0258H125.006Z" fill="#0B405E"/>
<path d="M140.707 4.64196C140.854 4.78961 140.928 4.98648 140.928 5.23257C140.928 5.47866 140.854 5.67552 140.707 5.82318C140.559 5.97083 140.362 6.04465 140.116 6.04465H136.425V16.9217C136.425 17.1678 136.351 17.3892 136.179 17.5615C136.006 17.7338 135.785 17.8076 135.539 17.8076C135.293 17.8076 135.071 17.7338 134.899 17.5615C134.727 17.3892 134.653 17.1678 134.653 16.9217V6.06926H130.937C130.691 6.06926 130.494 5.99544 130.346 5.84778C130.199 5.70013 130.125 5.50326 130.125 5.25718C130.125 5.01109 130.199 4.81422 130.346 4.66657C130.494 4.51892 130.691 4.44509 130.937 4.44509H140.141C140.338 4.42048 140.534 4.49431 140.707 4.64196Z" fill="#0B405E"/>
<path d="M147.352 17.5963C147.179 17.424 147.105 17.2025 147.105 16.9565V5.31657C147.105 5.04588 147.179 4.84901 147.352 4.67675C147.524 4.50449 147.745 4.43066 147.991 4.43066H151.437C152.273 4.43066 153.036 4.62753 153.725 4.99666C154.39 5.36579 154.906 5.90718 155.3 6.57161C155.669 7.26066 155.866 8.02352 155.866 8.88482C155.866 9.72152 155.669 10.4598 155.3 11.1242C154.931 11.7886 154.414 12.2808 153.725 12.6499C153.061 13.0191 152.298 13.1913 151.437 13.1913H148.902V16.9565C148.902 17.2025 148.828 17.424 148.656 17.5963C148.484 17.7685 148.287 17.8424 148.016 17.8424C147.721 17.8424 147.524 17.7685 147.352 17.5963ZM151.412 11.5426C152.199 11.5426 152.839 11.2965 153.331 10.8043C153.824 10.3121 154.094 9.6723 154.094 8.88482C154.094 8.07274 153.848 7.40831 153.331 6.86692C152.839 6.35014 152.175 6.07944 151.412 6.07944H148.877V11.5426H151.412Z" fill="#0B405E"/>
<path d="M157.736 17.5963C157.564 17.424 157.49 17.2025 157.49 16.9565V5.31657C157.49 5.04588 157.564 4.84901 157.736 4.67675C157.909 4.50449 158.13 4.43066 158.376 4.43066H166.152C166.423 4.43066 166.62 4.50449 166.792 4.65214C166.94 4.79979 167.038 5.02127 167.038 5.26736C167.038 5.51344 166.965 5.71031 166.792 5.85796C166.62 6.00562 166.423 6.07944 166.152 6.07944H159.287V10.2629H164.208C164.454 10.2629 164.676 10.3367 164.824 10.4844C164.996 10.632 165.07 10.8289 165.07 11.075C165.07 11.3211 164.996 11.5179 164.824 11.6656C164.651 11.8133 164.454 11.8871 164.208 11.8871H159.287V16.1936H166.152C166.423 16.1936 166.62 16.2674 166.792 16.4151C166.94 16.5627 167.038 16.7596 167.038 17.0057C167.038 17.2518 166.965 17.4732 166.792 17.6209C166.62 17.7685 166.423 17.8424 166.152 17.8424H158.376C158.105 17.8424 157.909 17.7685 157.736 17.5963Z" fill="#0B405E"/>
<path d="M178.8 4.64196C178.948 4.78961 179.022 4.98648 179.022 5.23257C179.022 5.47866 178.948 5.67552 178.8 5.82318C178.653 5.97083 178.456 6.04465 178.21 6.04465H174.519V16.9217C174.519 17.1678 174.445 17.3892 174.272 17.5615C174.1 17.7338 173.879 17.8076 173.633 17.8076C173.387 17.8076 173.165 17.7338 172.993 17.5615C172.821 17.3892 172.747 17.1678 172.747 16.9217V6.06926H169.031C168.785 6.06926 168.588 5.99544 168.44 5.84778C168.293 5.70013 168.219 5.50326 168.219 5.25718C168.219 5.01109 168.293 4.81422 168.44 4.66657C168.588 4.51892 168.785 4.44509 169.031 4.44509H178.234C178.456 4.42048 178.653 4.49431 178.8 4.64196Z" fill="#0B405E"/>
<path d="M181.729 17.2648C180.819 16.7727 180.179 16.1082 179.859 15.2961C179.81 15.1485 179.785 15.0501 179.785 14.9516C179.785 14.7794 179.859 14.6317 179.982 14.5087C180.105 14.3856 180.277 14.2872 180.499 14.238C180.523 14.238 180.597 14.2134 180.671 14.2134C180.843 14.2134 181.04 14.2626 181.188 14.3856C181.36 14.4841 181.483 14.6317 181.557 14.8286C181.754 15.2715 182.172 15.6653 182.787 15.9606C183.403 16.2805 184.067 16.4281 184.805 16.4281C185.667 16.4281 186.405 16.2313 186.995 15.8375C187.586 15.4438 187.881 14.9024 187.881 14.2134C187.881 13.5489 187.635 13.0075 187.119 12.54C186.626 12.0724 185.839 11.8017 184.805 11.6787C183.378 11.531 182.271 11.1373 181.459 10.4236C180.646 9.7346 180.228 8.8733 180.228 7.81513C180.228 7.07687 180.425 6.43704 180.843 5.92026C181.262 5.37887 181.828 4.98513 182.566 4.68983C183.304 4.41914 184.116 4.27148 185.027 4.27148C186.011 4.27148 186.848 4.46835 187.512 4.8867C188.177 5.28044 188.767 5.87104 189.235 6.6093C189.383 6.83078 189.432 7.02765 189.432 7.22452C189.432 7.47061 189.309 7.69208 189.087 7.83973C188.964 7.91356 188.817 7.96278 188.644 7.96278C188.472 7.96278 188.324 7.91356 188.152 7.83973C188.004 7.76591 187.881 7.64287 187.808 7.49521C187.488 6.97843 187.119 6.58469 186.651 6.314C186.183 6.0433 185.593 5.92026 184.879 5.92026C184.018 5.92026 183.304 6.09252 182.763 6.43704C182.221 6.78156 181.951 7.27374 181.951 7.91356C181.951 8.50417 182.197 8.99634 182.664 9.41469C183.157 9.80842 183.993 10.0791 185.248 10.2022C186.626 10.3498 187.685 10.7436 188.447 11.4572C189.21 12.1462 189.579 13.0568 189.579 14.1888C189.579 15.0255 189.358 15.7145 188.915 16.3051C188.472 16.8957 187.881 17.3387 187.143 17.634C186.405 17.9293 185.617 18.0769 184.756 18.0769C183.649 18.0031 182.64 17.757 181.729 17.2648Z" fill="#0B405E"/>
<path d="M115.137 5.66773C116.909 5.66773 118.656 7.61181 118.238 10.491C117.598 14.8221 112.332 17.0123 112.332 17.0123C112.332 17.0123 106.795 14.7975 106.278 10.491C105.859 7.09503 107.779 5.66773 109.551 5.66773C110.461 5.66773 111.766 6.65207 112.356 7.46416C112.922 6.65207 114.226 5.66773 115.137 5.66773ZM115.137 4.21582C114.153 4.21582 113.119 4.75721 112.332 5.39703C111.544 4.75721 110.535 4.21582 109.526 4.21582C108.197 4.21582 106.942 4.78182 106.081 5.76616C105.343 6.60286 104.531 8.12859 104.826 10.6633C105.441 15.7573 111.519 18.2427 111.79 18.3412C111.962 18.415 112.135 18.4396 112.332 18.4396C112.528 18.4396 112.701 18.415 112.873 18.3412C113.119 18.2427 118.902 15.7819 119.665 10.6879C119.936 8.81763 119.468 7.04581 118.385 5.79077C117.549 4.80643 116.343 4.21582 115.137 4.21582Z" fill="#F18D93"/>
<path d="M92.3567 25.3535C92.8439 25.3535 93.2824 25.4731 93.6721 25.7123C94.0619 25.9514 94.3675 26.2792 94.5889 26.6955C94.8192 27.1118 94.9344 27.5857 94.9344 28.1172C94.9344 28.6398 94.8192 29.1137 94.5889 29.5389C94.3675 29.964 94.0619 30.3006 93.6721 30.5487C93.2824 30.7967 92.8439 30.9207 92.3567 30.9207H89.6595L89.7525 30.7613V34.1095C89.7525 34.2601 89.7038 34.3886 89.6063 34.4949C89.5089 34.6011 89.3849 34.6543 89.2343 34.6543C89.0749 34.6543 88.9464 34.6011 88.849 34.4949C88.7604 34.3886 88.7161 34.2601 88.7161 34.1095V25.885C88.7161 25.7344 88.7648 25.6104 88.8623 25.513C88.9686 25.4067 89.097 25.3535 89.2476 25.3535H92.3567ZM92.3567 29.8976C92.649 29.8976 92.9059 29.8179 93.1273 29.6584C93.3488 29.499 93.526 29.282 93.6588 29.0074C93.7917 28.7328 93.8581 28.4361 93.8581 28.1172C93.8581 27.7806 93.7917 27.4838 93.6588 27.227C93.526 26.9701 93.3488 26.7663 93.1273 26.6158C92.9059 26.4563 92.649 26.3766 92.3567 26.3766H89.6595L89.7525 26.2304V30.0305L89.6595 29.8976H92.3567ZM102.745 31.1997C102.745 31.8906 102.59 32.5063 102.28 33.0466C101.979 33.5869 101.567 34.0121 101.045 34.3221C100.531 34.6322 99.9506 34.7872 99.304 34.7872C98.6573 34.7872 98.0727 34.6322 97.5501 34.3221C97.0275 34.0121 96.6112 33.5869 96.3011 33.0466C96 32.5063 95.8494 31.8906 95.8494 31.1997C95.8494 30.5088 96 29.8932 96.3011 29.3528C96.6112 28.8125 97.0275 28.3873 97.5501 28.0773C98.0727 27.7673 98.6573 27.6123 99.304 27.6123C99.9506 27.6123 100.531 27.7673 101.045 28.0773C101.567 28.3873 101.979 28.8125 102.28 29.3528C102.59 29.8932 102.745 30.5088 102.745 31.1997ZM101.682 31.1997C101.682 30.686 101.576 30.2342 101.363 29.8445C101.16 29.4547 100.876 29.1491 100.513 28.9277C100.159 28.7062 99.7557 28.5955 99.304 28.5955C98.8522 28.5955 98.4447 28.7062 98.0816 28.9277C97.7273 29.1491 97.4438 29.4547 97.2312 29.8445C97.0186 30.2342 96.9123 30.686 96.9123 31.1997C96.9123 31.7046 97.0186 32.1519 97.2312 32.5417C97.4438 32.9314 97.7273 33.2415 98.0816 33.4718C98.4447 33.6932 98.8522 33.8039 99.304 33.8039C99.7557 33.8039 100.159 33.6932 100.513 33.4718C100.876 33.2415 101.16 32.9314 101.363 32.5417C101.576 32.1519 101.682 31.7046 101.682 31.1997ZM112.316 27.6654C112.458 27.6654 112.577 27.7141 112.675 27.8116C112.781 27.909 112.834 28.0375 112.834 28.1969C112.834 28.2323 112.83 28.2722 112.821 28.3165C112.821 28.3519 112.812 28.3873 112.794 28.4228L110.748 34.3088C110.704 34.424 110.629 34.5126 110.522 34.5746C110.425 34.6366 110.319 34.6632 110.204 34.6543C110 34.6454 109.845 34.5303 109.738 34.3088L108.064 30.1102L108.33 30.1501L106.815 34.3088C106.718 34.5303 106.563 34.6454 106.35 34.6543C106.235 34.6632 106.124 34.6366 106.018 34.5746C105.912 34.5126 105.841 34.424 105.806 34.3088L103.72 28.4228C103.693 28.343 103.68 28.2678 103.68 28.1969C103.68 28.0552 103.728 27.9312 103.826 27.8249C103.923 27.7186 104.056 27.6654 104.224 27.6654C104.331 27.6654 104.428 27.692 104.517 27.7451C104.605 27.7983 104.667 27.8824 104.703 27.9976L106.496 33.2326L106.217 33.2193L107.772 29.2333C107.861 29.0118 108.024 28.9011 108.264 28.9011C108.388 28.9011 108.485 28.9321 108.556 28.9941C108.636 29.0473 108.693 29.127 108.729 29.2333L110.35 33.2193L110.018 33.2459L111.811 27.9976C111.891 27.7761 112.059 27.6654 112.316 27.6654ZM117.31 34.7872C116.601 34.7872 115.981 34.6366 115.45 34.3354C114.918 34.0342 114.502 33.6224 114.201 33.0997C113.908 32.5683 113.762 31.9571 113.762 31.2662C113.762 30.4955 113.913 29.84 114.214 29.2997C114.524 28.7505 114.923 28.3342 115.41 28.0507C115.906 27.7584 116.428 27.6123 116.978 27.6123C117.385 27.6123 117.779 27.6876 118.16 27.8382C118.541 27.9887 118.878 28.2102 119.17 28.5025C119.462 28.7859 119.697 29.1314 119.874 29.5389C120.051 29.9375 120.144 30.3848 120.153 30.8808C120.153 31.0226 120.1 31.1421 119.994 31.2396C119.887 31.337 119.763 31.3857 119.622 31.3857H114.373L114.134 30.4689H119.25L119.037 30.655V30.3626C119.002 29.9995 118.878 29.6894 118.665 29.4326C118.461 29.1668 118.209 28.9631 117.908 28.8214C117.615 28.6796 117.305 28.6088 116.978 28.6088C116.712 28.6088 116.446 28.6575 116.18 28.7549C115.924 28.8435 115.689 28.9941 115.476 29.2067C115.272 29.4104 115.104 29.6762 114.971 30.0039C114.847 30.3316 114.785 30.7258 114.785 31.1864C114.785 31.7002 114.887 32.1519 115.091 32.5417C115.303 32.9314 115.596 33.2415 115.968 33.4718C116.34 33.6932 116.774 33.8039 117.27 33.8039C117.58 33.8039 117.85 33.7641 118.08 33.6844C118.311 33.6046 118.51 33.5072 118.678 33.392C118.847 33.268 118.988 33.144 119.104 33.02C119.219 32.9403 119.329 32.9004 119.436 32.9004C119.569 32.9004 119.675 32.9447 119.755 33.0333C119.843 33.1219 119.887 33.2282 119.887 33.3522C119.887 33.5028 119.817 33.6356 119.675 33.7508C119.427 34.0254 119.09 34.269 118.665 34.4816C118.24 34.6853 117.788 34.7872 117.31 34.7872ZM122.149 34.6543C121.999 34.6543 121.87 34.6011 121.764 34.4949C121.667 34.3886 121.618 34.2601 121.618 34.1095V28.3165C121.618 28.1659 121.667 28.0419 121.764 27.9444C121.87 27.8382 121.999 27.785 122.149 27.785C122.309 27.785 122.437 27.8382 122.535 27.9444C122.632 28.0419 122.681 28.1659 122.681 28.3165V30.0703L122.521 29.7913C122.575 29.5167 122.668 29.251 122.8 28.9941C122.942 28.7284 123.119 28.4936 123.332 28.2899C123.545 28.0773 123.788 27.9134 124.063 27.7983C124.337 27.6743 124.638 27.6123 124.966 27.6123C125.161 27.6123 125.338 27.661 125.498 27.7584C125.666 27.847 125.75 27.9754 125.75 28.1437C125.75 28.3298 125.701 28.4671 125.604 28.5556C125.507 28.6442 125.396 28.6885 125.272 28.6885C125.157 28.6885 125.046 28.6664 124.94 28.6221C124.833 28.5689 124.701 28.5424 124.541 28.5424C124.32 28.5424 124.098 28.6044 123.877 28.7284C123.664 28.8435 123.465 29.0118 123.279 29.2333C123.102 29.4547 122.955 29.7072 122.84 29.9906C122.734 30.2652 122.681 30.562 122.681 30.8808V34.1095C122.681 34.2601 122.628 34.3886 122.521 34.4949C122.424 34.6011 122.3 34.6543 122.149 34.6543ZM129.695 34.7872C128.986 34.7872 128.366 34.6366 127.835 34.3354C127.303 34.0342 126.887 33.6224 126.586 33.0997C126.294 32.5683 126.148 31.9571 126.148 31.2662C126.148 30.4955 126.298 29.84 126.599 29.2997C126.909 28.7505 127.308 28.3342 127.795 28.0507C128.291 27.7584 128.814 27.6123 129.363 27.6123C129.77 27.6123 130.165 27.6876 130.545 27.8382C130.926 27.9887 131.263 28.2102 131.555 28.5025C131.848 28.7859 132.082 29.1314 132.259 29.5389C132.437 29.9375 132.53 30.3848 132.538 30.8808C132.538 31.0226 132.485 31.1421 132.379 31.2396C132.273 31.337 132.149 31.3857 132.007 31.3857H126.759L126.52 30.4689H131.635L131.422 30.655V30.3626C131.387 29.9995 131.263 29.6894 131.05 29.4326C130.847 29.1668 130.594 28.9631 130.293 28.8214C130.001 28.6796 129.691 28.6088 129.363 28.6088C129.097 28.6088 128.831 28.6575 128.566 28.7549C128.309 28.8435 128.074 28.9941 127.862 29.2067C127.658 29.4104 127.489 29.6762 127.357 30.0039C127.233 30.3316 127.171 30.7258 127.171 31.1864C127.171 31.7002 127.272 32.1519 127.476 32.5417C127.689 32.9314 127.981 33.2415 128.353 33.4718C128.725 33.6932 129.159 33.8039 129.655 33.8039C129.965 33.8039 130.235 33.7641 130.466 33.6844C130.696 33.6046 130.895 33.5072 131.064 33.392C131.232 33.268 131.374 33.144 131.489 33.02C131.604 32.9403 131.715 32.9004 131.821 32.9004C131.954 32.9004 132.06 32.9447 132.14 33.0333C132.228 33.1219 132.273 33.2282 132.273 33.3522C132.273 33.5028 132.202 33.6356 132.06 33.7508C131.812 34.0254 131.476 34.269 131.05 34.4816C130.625 34.6853 130.173 34.7872 129.695 34.7872ZM139.663 24.822C139.814 24.822 139.938 24.8752 140.035 24.9815C140.142 25.0789 140.195 25.2029 140.195 25.3535V34.1095C140.195 34.2601 140.142 34.3886 140.035 34.4949C139.938 34.6011 139.814 34.6543 139.663 34.6543C139.504 34.6543 139.376 34.6011 139.278 34.4949C139.181 34.3886 139.132 34.2601 139.132 34.1095V32.8473L139.384 32.7543C139.384 32.9669 139.318 33.1927 139.185 33.4319C139.052 33.6622 138.871 33.8792 138.64 34.083C138.41 34.2867 138.135 34.455 137.817 34.5879C137.507 34.7207 137.17 34.7872 136.807 34.7872C136.213 34.7872 135.673 34.6322 135.186 34.3221C134.707 34.0121 134.327 33.5869 134.043 33.0466C133.769 32.5063 133.631 31.8906 133.631 31.1997C133.631 30.4999 133.769 29.8799 134.043 29.3396C134.327 28.7992 134.707 28.3785 135.186 28.0773C135.664 27.7673 136.196 27.6123 136.78 27.6123C137.152 27.6123 137.502 27.6743 137.83 27.7983C138.158 27.9223 138.441 28.0906 138.68 28.3032C138.928 28.5158 139.123 28.7505 139.265 29.0074C139.407 29.2643 139.477 29.5211 139.477 29.778L139.132 29.6983V25.3535C139.132 25.2029 139.181 25.0789 139.278 24.9815C139.376 24.8752 139.504 24.822 139.663 24.822ZM136.926 33.8039C137.369 33.8039 137.759 33.6932 138.096 33.4718C138.441 33.2415 138.707 32.9314 138.893 32.5417C139.088 32.1431 139.185 31.6958 139.185 31.1997C139.185 30.6948 139.088 30.2475 138.893 29.8577C138.707 29.468 138.441 29.1624 138.096 28.941C137.759 28.7107 137.369 28.5955 136.926 28.5955C136.492 28.5955 136.103 28.7107 135.757 28.941C135.421 29.1624 135.155 29.468 134.96 29.8577C134.765 30.2475 134.668 30.6948 134.668 31.1997C134.668 31.6869 134.765 32.1298 134.96 32.5284C135.155 32.9182 135.421 33.2282 135.757 33.4585C136.103 33.6888 136.492 33.8039 136.926 33.8039ZM148.946 27.6123C149.549 27.6123 150.089 27.7673 150.567 28.0773C151.046 28.3785 151.422 28.7948 151.697 29.3263C151.98 29.8577 152.122 30.4734 152.122 31.1731C152.122 31.8729 151.98 32.493 151.697 33.0333C151.422 33.5736 151.046 34.0032 150.567 34.3221C150.098 34.6322 149.566 34.7872 148.973 34.7872C148.645 34.7872 148.335 34.7384 148.043 34.641C147.759 34.5347 147.498 34.3974 147.259 34.2291C147.029 34.052 146.834 33.8615 146.674 33.6578C146.515 33.4452 146.4 33.237 146.329 33.0333L146.621 32.8473V34.176C146.621 34.3266 146.572 34.455 146.475 34.5613C146.377 34.6676 146.249 34.7207 146.09 34.7207C145.939 34.7207 145.811 34.672 145.704 34.5746C145.607 34.4683 145.558 34.3354 145.558 34.176V25.3668C145.558 25.2162 145.607 25.0878 145.704 24.9815C145.811 24.8752 145.939 24.822 146.09 24.822C146.249 24.822 146.377 24.8752 146.475 24.9815C146.572 25.0878 146.621 25.2162 146.621 25.3668V29.4591L146.422 29.3528C146.484 29.1314 146.59 28.9188 146.741 28.7151C146.9 28.5025 147.091 28.3165 147.312 28.157C147.542 27.9887 147.795 27.8559 148.069 27.7584C148.353 27.661 148.645 27.6123 148.946 27.6123ZM148.827 28.5955C148.384 28.5955 147.99 28.7062 147.644 28.9277C147.308 29.1491 147.042 29.4547 146.847 29.8445C146.661 30.2342 146.568 30.6771 146.568 31.1731C146.568 31.6692 146.661 32.1165 146.847 32.5151C147.042 32.9137 147.308 33.2282 147.644 33.4585C147.99 33.6888 148.384 33.8039 148.827 33.8039C149.27 33.8039 149.659 33.6888 149.996 33.4585C150.333 33.2282 150.598 32.9137 150.793 32.5151C150.988 32.1165 151.085 31.6692 151.085 31.1731C151.085 30.6771 150.988 30.2342 150.793 29.8445C150.598 29.4547 150.333 29.1491 149.996 28.9277C149.659 28.7062 149.27 28.5955 148.827 28.5955ZM158.729 27.6787C158.879 27.6787 159.003 27.7319 159.101 27.8382C159.207 27.9356 159.26 28.0596 159.26 28.2102V34.0032C159.26 34.7473 159.114 35.3629 158.822 35.8501C158.53 36.3462 158.135 36.7138 157.639 36.9529C157.152 37.1921 156.598 37.3117 155.978 37.3117C155.633 37.3117 155.301 37.2762 154.982 37.2054C154.663 37.1345 154.402 37.0415 154.198 36.9263C154.03 36.8466 153.91 36.7448 153.839 36.6207C153.777 36.5056 153.768 36.3816 153.813 36.2487C153.875 36.0893 153.963 35.9786 154.078 35.9165C154.202 35.8545 154.331 35.8545 154.464 35.9165C154.605 35.9786 154.809 36.0627 155.075 36.169C155.35 36.2841 155.655 36.3417 155.992 36.3417C156.452 36.3417 156.847 36.2531 157.174 36.076C157.502 35.8988 157.754 35.6375 157.932 35.2921C158.109 34.9555 158.197 34.5347 158.197 34.0298V33.0865L158.357 33.4186C158.215 33.6932 158.025 33.9324 157.785 34.1361C157.546 34.3398 157.272 34.4993 156.962 34.6144C156.652 34.7296 156.311 34.7872 155.939 34.7872C155.434 34.7872 155.004 34.6809 154.65 34.4683C154.304 34.2468 154.039 33.9457 153.853 33.5648C153.675 33.175 153.587 32.7277 153.587 32.2228V28.2102C153.587 28.0596 153.636 27.9356 153.733 27.8382C153.839 27.7319 153.968 27.6787 154.118 27.6787C154.278 27.6787 154.406 27.7319 154.504 27.8382C154.601 27.9356 154.65 28.0596 154.65 28.2102V31.9836C154.65 32.586 154.783 33.0422 155.048 33.3522C155.314 33.6534 155.726 33.8039 156.284 33.8039C156.638 33.8039 156.957 33.7242 157.241 33.5648C157.533 33.4053 157.763 33.1883 157.932 32.9137C158.109 32.6303 158.197 32.3202 158.197 31.9836V28.2102C158.197 28.0596 158.246 27.9356 158.343 27.8382C158.441 27.7319 158.569 27.6787 158.729 27.6787Z" fill="#0B405E" fill-opacity="0.4"/>
<path fill-rule="evenodd" clip-rule="evenodd" d="M64.6213 53.17L69.5583 58.107L74.4895 53.17C75.6288 52.0307 76.2948 50.5934 76.4818 49.1094H72.9353C72.7834 49.6937 72.4796 50.2487 72.0239 50.7044C70.6626 52.0658 68.4541 52.0658 67.0927 50.7044C65.7314 49.3431 65.7314 47.1346 67.0927 45.7675C67.5485 45.3117 68.1035 45.0079 68.6878 44.856V41.3096C67.2038 41.4965 65.7665 42.1626 64.6272 43.3019C61.8987 46.0304 61.8987 50.4474 64.6213 53.17Z" fill="#F93348"/>
<path fill-rule="evenodd" clip-rule="evenodd" d="M70.4277 44.856C71.012 45.0079 71.567 45.3117 72.0228 45.7675C72.4785 46.2232 72.7881 46.7782 72.9342 47.3625H76.4807C76.2937 45.8785 75.6276 44.447 74.4883 43.3019C73.349 42.1567 71.9118 41.4965 70.4277 41.3096V44.856Z" fill="#F93348"/>
<path fill-rule="evenodd" clip-rule="evenodd" d="M70.7908 47.0127C71.4743 47.6963 71.4743 48.8005 70.7908 49.4783C70.1072 50.156 69.0029 50.156 68.3252 49.4783C67.6416 48.7947 67.6416 47.6904 68.3252 47.0127C69.0029 46.3291 70.1072 46.3291 70.7908 47.0127Z" fill="#F93348"/>
<path fill-rule="evenodd" clip-rule="evenodd" d="M87.976 49.1323V51.3255H91.8434V53.1554C91.0128 53.7783 90.0005 53.973 88.8844 53.973C86.0812 53.973 84.3292 52.4157 84.3292 49.7422C84.3292 47.1726 86.0163 45.5504 88.56 45.5504C90.0135 45.5504 91.3113 46.0306 92.1548 46.7833L93.7381 45.0054C92.5312 43.8763 90.8181 43.1885 88.534 43.1885C84.459 43.1885 81.7207 45.7191 81.7207 49.7422C81.7207 53.7783 84.459 56.2701 88.8066 56.2701C91.0517 56.2701 92.9594 55.6341 94.2183 54.4013V49.1193H87.976V49.1323Z" fill="black"/>
<path fill-rule="evenodd" clip-rule="evenodd" d="M179.844 49.9366V50.884H184.516V53.9078C183.413 54.9071 182.076 55.2445 180.545 55.2445C177.015 55.2445 174.873 53.1421 174.873 49.8068C174.873 46.4715 177.015 44.3432 180.233 44.3432C182.05 44.3432 183.387 44.9401 184.412 45.8875L185.074 45.1608C183.906 44.0576 182.323 43.3828 180.246 43.3828C176.379 43.3828 173.822 45.8486 173.822 49.8068C173.822 53.752 176.379 56.2178 180.545 56.2178C182.478 56.2178 184.204 55.7117 185.515 54.4009V49.9366H179.844Z" fill="black"/>
<path fill-rule="evenodd" clip-rule="evenodd" d="M167.464 43.4463H166.789L161.234 56.0347H162.35L163.804 52.7254H170.449L171.902 56.0347H173.005L167.464 43.4463ZM164.245 51.778L165.738 48.2221L167.126 45.0036L168.489 48.2221L169.981 51.778H164.245Z" fill="black"/>
<path fill-rule="evenodd" clip-rule="evenodd" d="M145.611 56.3166C148.726 56.3166 150.348 54.967 150.348 52.3714C150.348 49.9056 148.544 49.1399 146.078 48.6208C144.145 48.1926 143.003 47.8941 143.003 46.9078C143.003 46.1291 143.729 45.5192 145.157 45.5192C146.52 45.5192 147.804 45.8696 148.83 46.3368L149.881 44.2214C148.635 43.6244 147.052 43.248 145.144 43.248C142.003 43.248 140.42 44.7794 140.42 47.0635C140.42 49.5552 142.302 50.3728 145.053 50.9179C146.818 51.2553 147.713 51.5798 147.713 52.5661C147.713 53.5654 146.896 54.0845 145.494 54.0845C144.002 54.0845 142.6 53.6562 141.199 52.9814L140.238 55.1616C141.977 55.9533 143.405 56.3166 145.611 56.3166Z" fill="black"/>
<path fill-rule="evenodd" clip-rule="evenodd" d="M132.843 56.2686C136.464 56.2686 138.28 54.5166 138.28 51.0515V43.4336H135.75V50.4416C135.75 52.8814 134.828 53.8677 132.843 53.8677C130.857 53.8677 129.949 52.8684 129.949 50.4416V43.4336H127.418V51.0515C127.405 54.5166 129.287 56.2686 132.843 56.2686Z" fill="black"/>
<path d="M124.663 43.4336H122.094V56.022H124.663V43.4336Z" fill="black"/>
<path fill-rule="evenodd" clip-rule="evenodd" d="M116.763 43.4477V51.3641L109.21 43.3828H107.951V56.0361H110.443V48.1197L117.944 56.114H119.242V43.4477H116.763Z" fill="black"/>
<path fill-rule="evenodd" clip-rule="evenodd" d="M96.3633 56.022H105.785V53.7769H98.7901V50.8958H104.435V48.7415H98.7901V45.7047H105.5V43.4336H96.3633V56.022Z" fill="black"/>
<path fill-rule="evenodd" clip-rule="evenodd" d="M156.2 56.0223H157.225V44.4591H161.624V43.5117H151.787V44.4591H156.2V56.0223Z" fill="black"/>
</svg>
