<svg width="87" height="27" viewBox="0 0 87 27" fill="none" xmlns="http://www.w3.org/2000/svg">
<path d="M9.47807 13.9713C9.29962 14.3996 9.03788 14.7327 8.72857 15.0777C8.5858 15.2324 8.44304 15.4941 8.40735 15.7083C8.35976 16.0533 8.56201 16.66 8.83564 16.8742C9.12116 17.1121 9.60893 17.2311 9.93015 17.005C10.3584 16.6957 10.5726 16.2674 10.5607 15.744C10.5607 15.5179 10.5607 15.3157 10.3822 15.1967C9.94205 14.9112 9.64462 14.3758 9.51376 13.8643L9.47807 13.9713Z" fill="#F18D93"/>
<path d="M16.6152 8.17746C16.3059 7.97521 15.9371 7.72538 15.604 7.57072C15.3185 7.42796 14.7355 7.34468 14.4381 7.22571C14.5571 6.69035 14.914 6.38104 15.2352 6.25017C15.604 6.09551 15.8538 6.08361 16.2464 6.05982C16.532 6.04792 16.9127 6.05982 17.1268 5.91706C17.4599 5.70291 17.3766 5.3698 17.1625 5.10807C16.7818 4.64409 15.7587 4.14443 15.1638 4.02546C14.5095 3.90649 14.1883 3.78752 13.6648 4.2515C13.2841 4.58461 12.8439 5.14376 12.8201 5.66722L12.6298 5.86947C12.2967 5.78619 11.8922 5.59584 11.5829 5.47687C11.5829 5.84568 11.4877 6.21448 11.4044 6.57138C11.2497 7.21382 11.0356 7.84435 10.8691 8.48678C10.4765 10.0453 10.8809 11.6394 12.725 11.58C13.0938 11.5681 13.9265 11.2825 14.1526 10.9851C14.2597 10.8424 14.2597 10.7591 14.4262 10.7115C14.4262 10.7234 14.4262 10.7234 14.4262 10.7353C14.2597 11.9845 17.6978 12.2224 17.9596 10.2356C18.0785 9.35525 17.2934 8.62954 16.6152 8.17746Z" fill="#99D3D8"/>
<path d="M24.5392 5.9605C23.7422 4.52098 22.5882 3.62872 21.5412 3.11715C19.3641 2.07023 17.6986 2.65317 16.8777 2.9387C16.3542 3.20043 15.9616 3.41457 15.9854 3.43837C16.0449 3.46216 16.0925 3.48595 16.152 3.50975C16.2828 3.49785 16.5208 3.42647 16.9847 3.27181C17.8413 3.03387 19.3165 2.5342 21.339 3.53354C22.3026 4.02131 23.3734 4.85409 24.111 6.19844C24.8367 7.51899 25.1579 9.3749 24.5511 11.3379C23.9682 13.3009 22.7428 14.7047 21.6007 15.7278C20.4348 16.7509 19.2927 17.441 18.3172 17.9882C16.3304 19.047 14.9504 19.511 14.0938 19.8322C12.9398 20.2248 12.4639 20.3557 12.2736 20.4152C12.0238 20.3081 11.4646 20.0821 10.4415 19.4158C9.65628 18.8805 8.39521 18.0834 6.67017 16.5487C5.81359 15.7754 4.84995 14.8118 3.93389 13.5031C3.02973 12.2063 2.16126 10.4932 2.14936 8.38746C2.12557 6.28171 2.80369 4.47339 3.922 3.37888C5.01651 2.27247 6.36085 1.83229 7.45536 1.66573C9.75145 1.30883 11.0839 2.12971 11.8691 2.61748C12.7852 3.23612 13.261 3.62872 13.3681 3.6882C13.4038 3.65251 13.4514 3.62872 13.4871 3.59302C13.4633 3.50975 13.0826 3.08146 12.0594 2.32006C11.3218 1.7966 9.82283 0.856748 7.39588 1.21365C6.21809 1.36831 4.77857 1.82039 3.56509 3.03387C2.33971 4.22356 1.61401 6.19844 1.6497 8.38746C1.66159 10.6479 2.58955 12.4443 3.5175 13.7886C4.46925 15.1449 5.48048 16.1204 6.34895 16.8937C8.12158 18.4403 9.41834 19.2255 10.2392 19.7133C11.4289 20.4033 12.107 20.6293 12.1903 20.6412C12.345 20.665 12.9636 20.5104 14.189 20.1653C15.0812 19.8798 16.4851 19.4515 18.5194 18.3927C19.5307 17.8574 20.7085 17.1554 21.9219 16.0966C23.1116 15.0378 24.3965 13.5745 25.027 11.4806C25.6813 9.41059 25.3244 7.38812 24.5392 5.9605Z" fill="#F18D93"/>
<path d="M12.4631 9.4691C12.475 9.481 12.4869 9.49289 12.5107 9.51669C12.4988 9.20737 12.3203 8.89805 12.0467 8.76719C11.7374 8.60063 11.2853 8.61253 11.083 8.94564C11.0354 9.01702 11.0473 9.1003 11.0949 9.15978C11.5827 9.32634 11.7611 8.96943 12.4631 9.4691Z" fill="white"/>
<path d="M8.15696 9.0399C8.13317 9.0518 8.12127 9.0637 8.10938 9.07559C8.19265 8.77817 8.45438 8.52834 8.73991 8.45696C9.08492 8.37368 9.5132 8.49265 9.63217 8.86145C9.65597 8.94473 9.62028 9.01611 9.57269 9.07559C9.04923 9.12318 8.96595 8.71869 8.15696 9.0399Z" fill="white"/>
<path d="M10.4776 15.2527C10.5489 15.2527 10.6084 15.2171 10.656 15.4907C10.8226 16.3473 10.5251 17.3704 9.41873 17.299C8.50267 17.2633 8.35991 16.3829 8.33612 16.0617C8.28853 15.6691 8.33612 15.3836 8.3837 15.2408C8.50267 14.9434 8.49078 15.0981 8.56216 15.1219C8.63354 15.1457 8.69302 14.9672 8.66923 15.229C8.66923 15.3598 8.57405 15.7524 8.63354 16.0498C8.69302 16.3354 8.94286 16.954 9.44253 16.9659C10.6203 16.9897 10.4181 15.7881 10.3586 15.1814C10.4062 14.8839 10.4062 15.2527 10.4776 15.2527Z" fill="white"/>
<path d="M9.477 15.5985C9.40562 15.5866 9.40562 15.3011 9.4651 14.278C9.58407 12.8742 9.67925 12.9693 9.72683 12.9812C9.81011 12.9931 9.83391 12.9217 9.71494 14.3018C9.61976 15.3963 9.53648 15.6104 9.477 15.5985Z" fill="white"/>
<path d="M17.5449 10.1828C17.307 9.98051 16.9382 10.0757 16.7121 10.2422C16.5694 10.3493 16.4028 10.5397 16.4385 10.7419C16.6407 10.5635 16.8906 10.4802 17.1642 10.4802C17.2832 10.4802 17.3783 10.5635 17.4973 10.5278C17.6163 10.4802 17.6639 10.2898 17.5449 10.1828Z" fill="white"/>
<path d="M20.4957 9.60032C20.1983 9.51705 19.8295 9.57653 19.7105 9.89775C19.6867 9.96913 19.7105 10.0405 19.7581 10.0762C19.9009 10.1476 20.0079 9.98102 20.1388 9.95723C20.4243 9.90964 20.7336 9.93344 20.9835 10.0762C20.9954 10.0881 21.0192 10.1 21.0311 10.1C20.9716 9.85016 20.7574 9.67171 20.4957 9.60032Z" fill="white"/>
<path d="M23.9099 11.1592C23.9099 11.1473 23.9099 11.1354 23.9099 11.1235C23.8623 10.838 23.7671 10.5762 23.6363 10.3145C23.5054 10.1123 23.3745 9.94571 23.2437 9.79105C23.0057 9.50553 22.8273 9.26759 22.8392 9.01776C22.8986 8.01842 22.5893 7.24513 22.3276 6.62649L22.2443 6.43614L22.1254 6.1982C22.0302 6.00785 21.9112 5.91268 21.7803 5.91268C21.6495 5.91268 21.5186 5.99596 21.364 6.10303L21.2926 6.15062C21.0189 6.31717 20.8286 6.44804 20.6739 6.55511C20.0672 7.00719 19.9244 7.22133 19.7817 7.47117C19.7579 7.50686 19.7341 7.54255 19.7222 7.57824C19.5437 7.50686 19.282 7.43548 18.8894 7.43548C18.6753 7.43548 18.4492 7.45927 18.1994 7.49496C17.4975 7.61393 17.2714 7.75669 16.9978 7.94704C16.9264 7.99463 16.855 8.04221 16.7718 8.0898C16.6052 7.92325 16.2483 7.62583 15.6059 7.36409C15.4036 7.28082 15.1776 7.20944 14.904 7.12616C14.8088 7.10236 14.7612 7.06667 14.7493 7.01909C14.7255 6.93581 14.8683 6.78115 14.9159 6.73356C15.0943 6.55511 15.356 6.44804 15.7129 6.42424C15.8438 6.40045 15.9747 6.40045 16.1412 6.40045C16.4149 6.40045 16.7242 6.40045 17.1168 6.29338C17.4023 6.24579 17.6045 6.04354 17.6759 5.73423C17.7711 5.35353 17.6402 4.91334 17.3785 4.6992C17.2476 4.60402 17.1168 4.52075 16.974 4.42557L16.9264 4.40178C16.0936 3.87832 15.2847 3.59279 14.6422 3.59279C14.2377 3.59279 13.8927 3.69986 13.631 3.9259C13.0837 4.38988 12.9053 4.84196 12.7863 5.12749C12.7625 5.19887 12.7387 5.25835 12.703 5.31784C12.6555 5.4606 12.6198 5.56767 12.596 5.65095C12.2867 5.47249 11.7037 5.25835 10.7163 5.17507C10.5497 5.16318 10.3832 5.16318 10.2285 5.16318C9.32434 5.16318 8.93174 5.32973 8.68191 5.47249L8.67001 5.42491C8.59863 5.22266 8.44397 4.78248 7.93241 3.9259C7.75395 3.66417 7.48033 3.43813 7.15911 3.30727C6.94497 3.23589 6.70703 3.2002 6.4572 3.2002C6.27875 3.2002 6.10029 3.21209 5.92184 3.24778C5.44597 3.34296 4.98199 3.48572 4.5418 3.68797C4.25628 3.81883 4.01834 3.9378 3.8042 4.06867C3.64954 4.14005 3.38781 4.36609 3.30453 4.63971C3.25694 4.81817 3.26884 4.98472 3.36402 5.15128C3.70902 5.68664 4.25628 5.76992 4.73215 5.8413C4.95819 5.87699 5.16044 5.91268 5.33889 5.98406C5.87425 6.18631 6.38582 6.76925 6.30254 7.60203C6.26685 8.36343 5.94563 9.18431 5.54114 10.1718C5.46976 10.3621 5.38648 10.5643 5.29131 10.7785C4.97009 11.528 4.61319 12.3727 4.69646 13.3839C4.77974 14.6093 5.56493 15.2398 6.65944 15.6443C7.18291 15.8466 7.80154 15.8466 8.30121 15.5729C8.7176 15.3469 9.07451 15.0257 9.38382 14.5736C9.4552 14.4665 9.52659 14.3475 9.58607 14.2167C9.65745 14.4308 9.75263 14.645 9.8597 14.8353C10.2523 15.5015 11.1684 15.9893 12.1201 16.1083C13.0718 16.2273 14.0355 15.9655 14.4757 15.1327C14.7493 14.6212 14.9159 14.4546 15.1657 14.4546C15.3204 14.4546 15.5107 14.5141 15.7724 14.5974C15.9152 14.645 16.0699 14.6926 16.2602 14.7401C16.9502 14.9305 17.7592 15.1208 18.6158 15.1208C18.8894 15.1208 19.163 15.097 19.4248 15.0614C20.6858 14.871 22.9462 14.2762 23.779 12.4441C23.9337 12.0634 23.9813 11.6232 23.9099 11.1592ZM14.0712 14.9662C13.3574 16.1916 10.8947 15.6086 10.3237 14.5855C10.169 14.3119 10.0619 13.9906 10.0144 13.6694C10.7877 13.4434 12.0844 12.7296 11.5491 12.1823C11.0375 11.6589 8.68191 11.4923 8.24173 11.7302C7.55171 12.1109 8.56294 13.1936 9.24106 13.5861C9.14589 13.836 9.02692 14.062 8.89605 14.2762C8.46777 14.9424 7.64688 15.454 6.86169 15.1089C5.99322 14.7877 5.35079 14.3475 5.27941 13.3482C5.19613 12.5154 5.52924 11.7421 5.83856 11.0045C5.92184 10.8142 6.00512 10.6119 6.0765 10.4216L6.10029 10.3621C6.46909 9.44604 6.826 8.57757 6.87359 7.66152C6.98066 6.72166 6.38582 5.76992 5.52924 5.48439C5.26751 5.40111 4.99388 5.35353 4.76784 5.30594C4.32766 5.22266 3.97076 5.16318 3.82799 4.91334C3.8042 4.88955 3.8042 4.85386 3.8042 4.83006C3.85179 4.63971 4.32766 4.40178 4.63698 4.24712L4.73215 4.19953C5.13665 4.00918 5.55304 3.86642 5.99322 3.77124C6.15978 3.73555 6.32633 3.71176 6.48099 3.71176C6.93307 3.71176 7.31377 3.89021 7.53981 4.21143C7.98 5.03231 8.14655 5.42491 8.22983 5.60336C8.26552 5.68664 8.30121 5.90078 8.43208 5.90078C8.47966 5.90078 8.53915 5.88888 8.63432 5.85319L8.68191 5.8413C8.90795 5.78181 9.33624 5.65095 10.169 5.65095C10.3237 5.65095 10.4902 5.65095 10.6568 5.66284C11.8465 5.75802 12.3699 6.00785 12.596 6.12682L12.6079 6.13872C12.6198 6.13872 12.6317 6.15062 12.6436 6.15062C12.7149 6.15062 12.8101 6.05544 13.0718 5.56767L13.0837 5.53198C13.1194 5.47249 13.1551 5.40111 13.2027 5.31784C13.3455 5.0561 13.5358 4.6873 13.9284 4.38988C14.0831 4.25902 14.2972 4.18763 14.5709 4.18763C15.0943 4.18763 15.82 4.44937 16.5814 4.92524C16.748 5.03231 17.1406 5.36542 17.1049 5.57957C17.093 5.66284 17.0216 5.72233 16.8907 5.75802C16.6528 5.8294 16.3792 5.8413 16.1174 5.8413C15.9271 5.85319 15.7605 5.85319 15.594 5.87699C14.6541 6.03165 14.1783 6.6027 14.0712 7.75669L14.0593 7.92325C13.9879 8.57757 13.8927 9.46984 14.202 10.3859C14.2496 10.6 14.1426 10.838 14.0117 11.1473C13.9165 11.3614 13.8095 11.6113 13.75 11.8849C13.6072 12.4441 13.7976 12.8961 13.9879 13.3363C14.2258 13.8598 14.4281 14.3475 14.0712 14.9662ZM23.2199 12.2656C22.7202 13.3839 21.2331 14.2524 19.3177 14.526C18.937 14.5736 18.5563 14.6093 18.1756 14.6093C16.748 14.6093 15.5583 14.2405 14.8326 13.5743C14.6303 13.3839 14.4876 13.146 14.3924 12.8842C14.7255 13.0151 15.0586 13.0746 15.4036 13.0746C15.7486 13.0746 15.9866 13.0389 16.4506 12.908C16.5814 12.8723 16.6528 12.7772 16.6409 12.7058C16.629 12.6582 16.5933 12.5987 16.4981 12.5987C16.4743 12.5987 16.4387 12.5987 16.4149 12.6106C16.1293 12.6939 15.9747 12.7058 15.7011 12.7058C15.2371 12.7058 14.7731 12.5987 14.3329 12.3727C14.321 12.3727 14.3091 12.3608 14.2972 12.3608C14.2972 12.2418 14.2972 12.1228 14.321 12.0039C14.3448 11.8611 14.4043 11.7064 14.4757 11.5518C14.5471 11.5875 14.6184 11.6113 14.6898 11.6351C14.8326 11.6945 14.9516 11.7659 15.1181 11.8254C15.3204 11.8849 15.3917 11.9087 15.6654 11.9206C15.7843 11.9206 15.9033 11.9087 16.0104 11.9087H16.0342C16.1769 11.8968 16.2602 11.8016 16.2602 11.7183C16.2602 11.647 16.2007 11.5875 16.0818 11.5875C16.0699 11.5875 16.0699 11.5875 16.058 11.5875C15.9866 11.5875 15.9271 11.5994 15.8676 11.5994C15.6178 11.5994 15.4512 11.5399 15.2133 11.4447C15.011 11.3733 14.8445 11.2425 14.6541 11.1592C14.7493 10.9213 14.8207 10.6357 14.7731 10.2907C14.4757 9.44604 14.5352 8.73223 14.5827 8.1136C14.5946 8.01842 14.5946 7.93514 14.6065 7.85187C14.6184 7.76859 14.6422 7.68531 14.6541 7.60203V7.57824L14.7612 7.60203C15.011 7.67341 15.249 7.7329 15.4512 7.80428C15.5226 7.83997 15.6059 7.86376 15.6773 7.88756C15.8081 7.93514 15.9509 7.98273 16.0818 8.05411C16.1412 8.0898 16.2245 8.17308 16.2959 8.25636C16.3911 8.36343 16.4862 8.45861 16.5695 8.4943C16.6052 8.50619 16.6528 8.51809 16.7004 8.51809C16.9502 8.51809 17.2714 8.37533 17.5808 8.23257C17.8068 8.12549 18.0328 8.03032 18.1875 8.00652C18.5206 7.95894 18.7942 7.92325 19.0441 7.92325C19.1511 7.92325 19.2701 7.92325 19.3653 7.93514C19.3891 7.93514 19.4367 7.94704 19.4961 7.95894C19.6032 7.98273 19.7341 8.01842 19.8293 8.01842C19.8887 8.01842 19.9363 8.00652 19.972 7.98273C20.0553 7.91135 20.0672 7.85187 20.0791 7.79238C20.0791 7.75669 20.091 7.721 20.1029 7.68531C20.1267 7.62582 20.1743 7.54255 20.21 7.50686C20.3527 7.3522 20.5431 7.20943 20.7215 7.07857C20.7929 7.03098 20.8643 6.9834 20.9238 6.93581C21.1022 6.81684 21.3283 6.68597 21.5305 6.56701C21.59 6.53131 21.6376 6.50752 21.6971 6.47183L21.7803 6.65028C21.8041 6.72166 21.8398 6.79305 21.8636 6.86443C22.0778 7.44737 22.3514 8.16118 22.28 9.02965C22.28 9.42225 22.4704 9.71967 22.6726 9.9814C22.4228 10.3502 22.1491 10.5762 21.8041 10.719C21.6852 10.7666 21.6376 10.8618 21.6495 10.9213C21.6614 10.9807 21.7209 11.0283 21.7922 11.0283C21.8279 11.0283 21.8636 11.0164 21.8993 11.0045C22.3514 10.8261 22.6964 10.6714 22.9581 10.3264C23.0176 10.4097 23.089 10.5049 23.1366 10.5881C23.2199 10.7547 23.2793 10.9332 23.315 11.1116C22.8273 11.3733 22.2919 11.6351 21.709 11.7302C21.5781 11.754 21.5305 11.8254 21.5424 11.8849C21.5424 11.9444 21.6138 12.0158 21.7328 12.0158C21.7566 12.0158 21.7684 12.0158 21.8041 12.0158C22.3514 11.9206 22.8749 11.8373 23.3626 11.5875C23.3626 11.8254 23.315 12.0515 23.2199 12.2656Z" fill="white"/>
<path d="M18.5796 13.3833C18.4606 13.3833 18.3416 13.3714 18.2108 13.3357C17.5683 13.1097 17.4018 12.7647 17.3304 12.6457C17.2352 12.4553 17.4256 12.3364 17.5564 12.5029C17.5683 12.5148 17.5802 12.5267 17.604 12.5505C17.6992 12.6576 17.8776 12.8598 18.3059 13.0145C18.4249 13.0502 18.5201 13.074 18.6033 13.074C18.7223 13.074 18.8294 13.0383 18.9246 12.955C19.103 12.8122 19.0554 12.5029 19.0078 12.265C18.9721 12.0865 18.9603 11.9081 18.9127 11.7058C18.8651 11.6939 18.8294 11.682 18.7818 11.6582L18.7342 11.6463C18.5439 11.5631 18.3059 11.3489 18.3059 11.1467C18.3178 10.8374 18.639 10.8849 18.8532 10.8849C18.9365 10.8849 18.9721 10.8968 19.0435 10.8493C19.0911 10.8136 19.2696 10.7422 19.3172 10.7422C19.3885 10.7422 19.4718 10.766 19.5194 10.8255C19.6622 10.992 19.4956 11.3251 19.4123 11.456C19.3647 11.5274 19.3053 11.5631 19.2458 11.6107C19.2339 11.6226 19.2339 11.6226 19.222 11.6345C19.2696 11.9676 19.3291 12.2769 19.3766 12.5981C19.4004 12.8003 19.5075 12.8836 19.6979 12.8836C19.7217 12.8836 19.7573 12.8836 19.7811 12.8836C19.9715 12.8598 20.0667 12.8003 20.2213 12.6695C20.5187 12.3958 20.602 12.1579 20.6496 12.0152C20.6615 11.9676 20.6734 11.9319 20.6972 11.8962C20.7924 11.7296 20.9589 11.7415 20.9589 11.9557C20.9589 11.9795 20.947 12.0033 20.947 12.027C20.9232 12.1936 20.8875 12.5267 20.4474 12.9312C20.257 13.1097 19.9596 13.2167 19.6979 13.2167C19.6384 13.2167 19.5908 13.2167 19.5432 13.2048C19.4956 13.1929 19.448 13.1691 19.4123 13.1335C19.3766 13.1097 19.3528 13.0978 19.3291 13.0859H19.3172C19.2577 13.0859 19.2101 13.1335 19.1506 13.1929C19.103 13.2405 19.0673 13.2762 19.0078 13.3119C18.8889 13.3476 18.7461 13.3833 18.5796 13.3833Z" fill="white"/>
<path d="M11.7622 13.9236C11.7027 13.9236 11.667 13.8879 11.6432 13.8403C11.6194 13.7808 11.6313 13.7213 11.667 13.6737L11.6789 13.6618C11.7027 13.6262 11.7384 13.6143 11.786 13.6143C11.8455 13.6143 11.9169 13.6618 11.9288 13.7213C11.9526 13.7808 11.9407 13.8403 11.8931 13.876L11.8693 13.8879C11.8455 13.9117 11.8098 13.9236 11.7741 13.9236H11.7622Z" fill="white"/>
<path d="M12.321 14.2807C12.2734 14.2807 12.2259 14.2569 12.1902 14.2212C12.1664 14.1856 12.1426 14.1499 12.1426 14.1023C12.1426 14.019 12.2021 13.9238 12.321 13.9238C12.3686 13.9238 12.4162 13.9476 12.4519 13.9833C12.4757 14.019 12.4995 14.0547 12.4995 14.1023C12.4995 14.1856 12.44 14.2807 12.321 14.2807Z" fill="white"/>
<path d="M11.6667 14.7339C11.5478 14.7339 11.4883 14.6506 11.4883 14.5554C11.4883 14.4721 11.5478 14.377 11.6667 14.377C11.7143 14.377 11.7619 14.4007 11.7976 14.4364C11.8214 14.4721 11.8452 14.5078 11.8452 14.5554C11.8452 14.6387 11.7857 14.7339 11.6667 14.7339Z" fill="white"/>
<path d="M7.59837 13.3979C7.55079 13.3979 7.5032 13.3741 7.46751 13.3384C7.44372 13.3027 7.41992 13.2671 7.41992 13.2195C7.41992 13.1362 7.47941 13.041 7.59837 13.041C7.64596 13.041 7.69355 13.0648 7.72924 13.1005C7.75303 13.1362 7.77683 13.1719 7.77683 13.2195C7.77683 13.3027 7.71734 13.3979 7.59837 13.3979Z" fill="white"/>
<path d="M7.8015 14.1753C7.75391 14.1753 7.70632 14.1515 7.67063 14.1158C7.64684 14.0801 7.62305 14.0444 7.62305 13.9968C7.62305 13.9135 7.68253 13.8184 7.8015 13.8184C7.92047 13.8184 7.97995 13.9016 7.97995 13.9968C7.96806 14.0801 7.90857 14.1753 7.8015 14.1753Z" fill="white"/>
<path d="M7.00298 13.758C6.97919 13.758 6.95539 13.758 6.9435 13.7461C6.88401 13.7104 6.86022 13.6628 6.87211 13.6033C6.88401 13.5439 6.9316 13.4963 6.99108 13.4844C6.99108 13.4844 7.00298 13.4844 7.01488 13.4844C7.07436 13.4844 7.12195 13.5201 7.14574 13.5795C7.16954 13.6271 7.14574 13.6866 7.11005 13.7223C7.06246 13.7461 7.03867 13.758 7.00298 13.758Z" fill="white"/>
<path d="M27.7835 8.41141C27.3724 8.18916 27.0834 7.88912 26.939 7.5224C26.9168 7.45573 26.8945 7.41128 26.8945 7.36683C26.8945 7.28904 26.9279 7.22236 26.9834 7.1668C27.039 7.11124 27.1168 7.06679 27.2168 7.04456C27.2279 7.04456 27.2612 7.03345 27.2946 7.03345C27.3724 7.03345 27.4613 7.05567 27.528 7.11124C27.6057 7.15569 27.6613 7.22236 27.6946 7.31126C27.7835 7.51129 27.9725 7.68909 28.2503 7.82245C28.5281 7.96691 28.8281 8.03359 29.1615 8.03359C29.5504 8.03359 29.8838 7.94468 30.1505 7.76688C30.4172 7.58908 30.5506 7.3446 30.5506 7.03345C30.5506 6.73341 30.4395 6.48893 30.2061 6.27779C29.9838 6.06665 29.6282 5.94441 29.1615 5.88885C28.517 5.82217 28.0169 5.64437 27.6502 5.3221C27.2835 5.01095 27.0946 4.62201 27.0946 4.14416C27.0946 3.81079 27.1835 3.52186 27.3724 3.28849C27.5613 3.04401 27.8169 2.86621 28.1503 2.73286C28.4836 2.61062 28.8504 2.54395 29.2615 2.54395C29.706 2.54395 30.0839 2.63285 30.3839 2.82176C30.6839 2.99956 30.9506 3.26627 31.1618 3.59965C31.2285 3.69966 31.2507 3.78856 31.2507 3.87746C31.2507 3.98859 31.1951 4.0886 31.0951 4.15528C31.0395 4.18861 30.9729 4.21084 30.8951 4.21084C30.8173 4.21084 30.7395 4.18861 30.6728 4.15528C30.6062 4.12194 30.5506 4.06638 30.5173 3.9997C30.3728 3.76633 30.2061 3.58853 29.995 3.46629C29.7838 3.34405 29.5171 3.28849 29.1948 3.28849C28.8059 3.28849 28.4836 3.36628 28.2392 3.52186C27.9947 3.67743 27.8724 3.89969 27.8724 4.18861C27.8724 4.45532 27.9836 4.67757 28.1947 4.86649C28.417 5.04429 28.7948 5.16653 29.3615 5.22209C29.9838 5.28877 30.4617 5.46657 30.8062 5.78883C31.1507 6.09999 31.3174 6.51115 31.3174 7.02234C31.3174 7.40017 31.2173 7.71132 31.0173 7.97802C30.8173 8.24473 30.5506 8.44475 30.2172 8.5781C29.8838 8.71146 29.5282 8.77813 29.1393 8.77813C28.6503 8.74479 28.1947 8.63367 27.7835 8.41141Z" fill="white"/>
<path d="M33.5622 8.52325C33.1733 8.34545 32.8732 8.08986 32.6621 7.75648C32.451 7.43421 32.3398 7.05638 32.3398 6.6341V3.01138C32.3398 2.88914 32.3732 2.80024 32.451 2.72245C32.5288 2.64467 32.6288 2.61133 32.7399 2.61133C32.8621 2.61133 32.951 2.64467 33.0288 2.72245C33.1066 2.80024 33.14 2.90026 33.14 3.01138V6.6341C33.14 6.91192 33.2177 7.15639 33.3622 7.36754C33.5067 7.58979 33.7178 7.75648 33.9734 7.87872C34.2401 8.00095 34.529 8.05652 34.8735 8.05652C35.1958 8.05652 35.4847 7.98984 35.7403 7.87872C35.9959 7.75648 36.1959 7.58979 36.3293 7.36754C36.4737 7.14528 36.5404 6.9008 36.5404 6.6341V3.01138C36.5404 2.88914 36.5738 2.80024 36.6515 2.72245C36.7293 2.64467 36.8293 2.61133 36.9405 2.61133C37.0516 2.61133 37.1516 2.64467 37.2183 2.72245C37.2961 2.80024 37.3294 2.90026 37.3294 3.01138V6.6341C37.3294 7.04527 37.2294 7.4231 37.0183 7.74536C36.8071 8.07874 36.5182 8.33433 36.1404 8.51214C35.7625 8.70105 35.3403 8.78995 34.8624 8.78995C34.3846 8.80106 33.9512 8.70105 33.5622 8.52325Z" fill="white"/>
<path d="M38.7967 8.55659C38.7189 8.4788 38.6855 8.37878 38.6855 8.26766V3.01138C38.6855 2.88914 38.7189 2.80024 38.7967 2.72245C38.8745 2.64467 38.9745 2.61133 39.0856 2.61133H40.6414C41.0192 2.61133 41.3637 2.70023 41.6748 2.86692C41.9749 3.03361 42.2083 3.27809 42.3861 3.57813C42.5527 3.88928 42.6416 4.23377 42.6416 4.62271C42.6416 5.00054 42.5527 5.33392 42.3861 5.63396C42.2194 5.934 41.986 6.15626 41.6748 6.32295C41.3748 6.48964 41.0303 6.56743 40.6414 6.56743H39.4968V8.26766C39.4968 8.37878 39.4634 8.4788 39.3856 8.55659C39.3079 8.63437 39.219 8.66771 39.0967 8.66771C38.9745 8.66771 38.8745 8.63437 38.7967 8.55659ZM40.6414 5.82288C40.997 5.82288 41.2859 5.71175 41.5082 5.4895C41.7304 5.26725 41.8526 4.97832 41.8526 4.62271C41.8526 4.256 41.7415 3.95596 41.5082 3.71148C41.2859 3.47811 40.9859 3.35587 40.6414 3.35587H39.4968V5.82288H40.6414Z" fill="white"/>
<path d="M43.4861 8.55659C43.4083 8.4788 43.375 8.37878 43.375 8.26766V3.01138C43.375 2.88914 43.4083 2.80024 43.4861 2.72245C43.5639 2.64467 43.6639 2.61133 43.7751 2.61133H45.3308C45.7087 2.61133 46.0531 2.70023 46.3643 2.86692C46.6643 3.03361 46.8977 3.27809 47.0755 3.57813C47.2422 3.88928 47.3311 4.23377 47.3311 4.62271C47.3311 5.00054 47.2422 5.33392 47.0755 5.63396C46.9088 5.934 46.6755 6.15626 46.3643 6.32295C46.0643 6.48964 45.7198 6.56743 45.3308 6.56743H44.1862V8.26766C44.1862 8.37878 44.1529 8.4788 44.0751 8.55659C43.9973 8.63437 43.9084 8.66771 43.7862 8.66771C43.6639 8.66771 43.5639 8.63437 43.4861 8.55659ZM45.3308 5.82288C45.6864 5.82288 45.9754 5.71175 46.1976 5.4895C46.4199 5.26725 46.5421 4.97832 46.5421 4.62271C46.5421 4.256 46.431 3.95596 46.1976 3.71148C45.9754 3.47811 45.6753 3.35587 45.3308 3.35587H44.1862V5.82288H45.3308Z" fill="white"/>
<path d="M59.132 8.31211C59.132 8.41212 59.0987 8.50102 59.032 8.5677C58.9653 8.63437 58.8653 8.66771 58.7542 8.66771C58.5986 8.66771 58.4875 8.60104 58.4097 8.4788L57.0762 6.33406H56.9317H55.9427V8.26766C55.9427 8.37878 55.9094 8.4788 55.8316 8.55659C55.7538 8.63437 55.6538 8.66771 55.5426 8.66771C55.4315 8.66771 55.3315 8.63437 55.2537 8.55659C55.1759 8.4788 55.1426 8.37878 55.1426 8.26766V3.01138C55.1426 2.88914 55.1759 2.80024 55.2537 2.72245C55.3315 2.64467 55.4315 2.61133 55.5426 2.61133H56.9428C57.3207 2.61133 57.6651 2.68912 57.9763 2.85581C58.2763 3.01138 58.5097 3.24475 58.6875 3.53368C58.8542 3.8226 58.9431 4.15598 58.9431 4.5227C58.9431 4.88942 58.8542 5.21168 58.6653 5.50061C58.4764 5.78954 58.2208 6.00068 57.9096 6.14515L59.0987 8.05652C59.0987 8.13431 59.132 8.22321 59.132 8.31211ZM56.9206 5.58951C57.2762 5.58951 57.5651 5.4895 57.7874 5.28947C58.0096 5.08944 58.1319 4.83385 58.1319 4.51159C58.1319 4.1671 58.0208 3.88928 57.7874 3.67814C57.554 3.467 57.2651 3.35587 56.9206 3.35587H55.9316V5.58951H56.9206Z" fill="white"/>
<path d="M64.0109 2.7121C64.0775 2.77878 64.1109 2.86768 64.1109 2.9788C64.1109 3.08993 64.0775 3.17883 64.0109 3.24551C63.9442 3.31218 63.8553 3.34552 63.7442 3.34552H62.0773V8.25731C62.0773 8.36843 62.0439 8.46845 61.9661 8.54623C61.8883 8.62402 61.7883 8.65736 61.6772 8.65736C61.5661 8.65736 61.4661 8.62402 61.3883 8.54623C61.3105 8.46845 61.2771 8.36843 61.2771 8.25731V3.35663H59.5991C59.488 3.35663 59.3991 3.3233 59.3324 3.25662C59.2658 3.18994 59.2324 3.10104 59.2324 2.98992C59.2324 2.87879 59.2658 2.78989 59.3324 2.72321C59.3991 2.65654 59.488 2.6232 59.5991 2.6232H63.7553C63.8442 2.61209 63.9331 2.64543 64.0109 2.7121Z" fill="white"/>
<path d="M67.0115 8.55659C66.9337 8.4788 66.9004 8.37878 66.9004 8.26766V3.01138C66.9004 2.88914 66.9337 2.80024 67.0115 2.72245C67.0893 2.64467 67.1893 2.61133 67.3004 2.61133H68.8562C69.234 2.61133 69.5785 2.70023 69.8897 2.86692C70.1897 3.03361 70.4231 3.27809 70.6009 3.57813C70.7676 3.88928 70.8565 4.23377 70.8565 4.62271C70.8565 5.00054 70.7676 5.33392 70.6009 5.63396C70.4342 5.934 70.2008 6.15626 69.8897 6.32295C69.5897 6.48964 69.2452 6.56743 68.8562 6.56743H67.7116V8.26766C67.7116 8.37878 67.6783 8.4788 67.6005 8.55659C67.5227 8.63437 67.4338 8.66771 67.3116 8.66771C67.1782 8.66771 67.0893 8.63437 67.0115 8.55659ZM68.8451 5.82288C69.2007 5.82288 69.4896 5.71175 69.7119 5.4895C69.9341 5.26725 70.0564 4.97832 70.0564 4.62271C70.0564 4.256 69.9453 3.95596 69.7119 3.71148C69.4896 3.47811 69.1896 3.35587 68.8451 3.35587H67.7005V5.82288H68.8451Z" fill="white"/>
<path d="M71.701 8.55659C71.6232 8.4788 71.5898 8.37878 71.5898 8.26766V3.01138C71.5898 2.88914 71.6232 2.80024 71.701 2.72245C71.7788 2.64467 71.8788 2.61133 71.9899 2.61133H75.5015C75.6237 2.61133 75.7126 2.64467 75.7904 2.71134C75.8571 2.77802 75.9015 2.87803 75.9015 2.98916C75.9015 3.10028 75.8682 3.18918 75.7904 3.25586C75.7126 3.32254 75.6237 3.35587 75.5015 3.35587H72.4011V5.24502H74.6236C74.7347 5.24502 74.8347 5.27836 74.9014 5.34504C74.9792 5.41171 75.0125 5.50061 75.0125 5.61174C75.0125 5.72287 74.9792 5.81177 74.9014 5.87844C74.8236 5.94512 74.7347 5.97846 74.6236 5.97846H72.4011V7.92317H75.5015C75.6237 7.92317 75.7126 7.9565 75.7904 8.02318C75.8571 8.08986 75.9015 8.17876 75.9015 8.28988C75.9015 8.40101 75.8682 8.50102 75.7904 8.5677C75.7126 8.63437 75.6237 8.66771 75.5015 8.66771H71.9899C71.8677 8.66771 71.7788 8.63437 71.701 8.55659Z" fill="white"/>
<path d="M81.212 2.7121C81.2787 2.77878 81.312 2.86768 81.312 2.9788C81.312 3.08993 81.2787 3.17883 81.212 3.24551C81.1454 3.31218 81.0564 3.34552 80.9453 3.34552H79.2784V8.25731C79.2784 8.36843 79.2451 8.46845 79.1673 8.54623C79.0895 8.62402 78.9895 8.65736 78.8784 8.65736C78.7672 8.65736 78.6672 8.62402 78.5894 8.54623C78.5117 8.46845 78.4783 8.36843 78.4783 8.25731V3.35663H76.8003C76.6892 3.35663 76.6003 3.3233 76.5336 3.25662C76.4669 3.18994 76.4336 3.10104 76.4336 2.98992C76.4336 2.87879 76.4669 2.78989 76.5336 2.72321C76.6003 2.65654 76.6892 2.6232 76.8003 2.6232H80.9564C81.0564 2.61209 81.1454 2.64543 81.212 2.7121Z" fill="white"/>
<path d="M82.5341 8.41141C82.123 8.18916 81.8341 7.88912 81.6896 7.5224C81.6674 7.45573 81.6562 7.41128 81.6562 7.36683C81.6562 7.28904 81.6896 7.22236 81.7451 7.1668C81.8007 7.11124 81.8785 7.06679 81.9785 7.04456C81.9896 7.04456 82.023 7.03345 82.0563 7.03345C82.1341 7.03345 82.223 7.05567 82.2897 7.11124C82.3675 7.15569 82.423 7.22236 82.4564 7.31126C82.5453 7.51129 82.7342 7.68909 83.012 7.82245C83.2898 7.96691 83.5898 8.03359 83.9232 8.03359C84.3122 8.03359 84.6455 7.94468 84.9123 7.76688C85.179 7.58908 85.3123 7.3446 85.3123 7.03345C85.3123 6.73341 85.2012 6.48893 84.9678 6.27779C84.7456 6.06665 84.39 5.94441 83.9232 5.88885C83.2787 5.82217 82.7786 5.64437 82.4119 5.3221C82.0452 5.01095 81.8563 4.62201 81.8563 4.14416C81.8563 3.81079 81.9452 3.52186 82.1341 3.28849C82.323 3.04401 82.5786 2.86621 82.912 2.73286C83.2454 2.61062 83.6121 2.54395 84.0232 2.54395C84.4677 2.54395 84.8456 2.63285 85.1456 2.82176C85.4457 2.99956 85.7124 3.26627 85.9235 3.59965C85.9902 3.69966 86.0124 3.78856 86.0124 3.87746C86.0124 3.98859 85.9568 4.0886 85.8568 4.15528C85.8013 4.18861 85.7346 4.21084 85.6568 4.21084C85.579 4.21084 85.5123 4.18861 85.4345 4.15528C85.3679 4.12194 85.3123 4.06638 85.279 3.9997C85.1345 3.76633 84.9678 3.58853 84.7567 3.46629C84.5455 3.34405 84.2788 3.28849 83.9566 3.28849C83.5676 3.28849 83.2454 3.36628 83.0009 3.52186C82.7564 3.67743 82.6342 3.89969 82.6342 4.18861C82.6342 4.45532 82.7453 4.67757 82.9564 4.86649C83.1787 5.04429 83.5565 5.16653 84.1232 5.22209C84.7456 5.28877 85.2234 5.46657 85.5679 5.78883C85.9124 6.09999 86.0791 6.51115 86.0791 7.02234C86.0791 7.40017 85.9791 7.71132 85.779 7.97802C85.579 8.24473 85.3123 8.44475 84.9789 8.5781C84.6455 8.71146 84.2899 8.77813 83.901 8.77813C83.4009 8.74479 82.9453 8.63367 82.5341 8.41141Z" fill="white"/>
<path d="M52.4655 3.17908C53.2656 3.17908 54.0546 4.05698 53.8657 5.35716C53.5768 7.31298 51.1987 8.30201 51.1987 8.30201C51.1987 8.30201 48.6984 7.30187 48.465 5.35716C48.2761 3.82362 49.1429 3.17908 49.943 3.17908C50.3541 3.17908 50.9431 3.62359 51.2098 3.99031C51.4654 3.62359 52.0544 3.17908 52.4655 3.17908ZM52.4655 2.52344C52.021 2.52344 51.5543 2.76792 51.1987 3.05684C50.8431 2.76792 50.3875 2.52344 49.9319 2.52344C49.3318 2.52344 48.765 2.77903 48.3761 3.22353C48.0427 3.60136 47.676 4.29035 47.8093 5.43495C48.0872 7.73526 50.832 8.85764 50.9542 8.90209C51.032 8.93543 51.1098 8.94654 51.1987 8.94654C51.2876 8.94654 51.3654 8.93543 51.4432 8.90209C51.5543 8.85764 54.1658 7.74637 54.5103 5.44606C54.6325 4.6015 54.4214 3.80139 53.9324 3.23465C53.5546 2.79014 53.0101 2.52344 52.4655 2.52344Z" fill="#F18D93"/>
<path d="M42.1583 11.7463C42.3783 11.7463 42.5763 11.8003 42.7523 11.9083C42.9283 12.0163 43.0663 12.1643 43.1663 12.3523C43.2703 12.5403 43.3223 12.7543 43.3223 12.9943C43.3223 13.2303 43.2703 13.4443 43.1663 13.6363C43.0663 13.8283 42.9283 13.9803 42.7523 14.0923C42.5763 14.2043 42.3783 14.2603 42.1583 14.2603H40.9403L40.9823 14.1883V15.7003C40.9823 15.7683 40.9603 15.8263 40.9163 15.8743C40.8723 15.9223 40.8163 15.9463 40.7483 15.9463C40.6763 15.9463 40.6183 15.9223 40.5743 15.8743C40.5343 15.8263 40.5143 15.7683 40.5143 15.7003V11.9863C40.5143 11.9183 40.5363 11.8623 40.5803 11.8183C40.6283 11.7703 40.6863 11.7463 40.7543 11.7463H42.1583ZM42.1583 13.7983C42.2903 13.7983 42.4063 13.7623 42.5063 13.6903C42.6063 13.6183 42.6863 13.5203 42.7463 13.3963C42.8063 13.2723 42.8363 13.1383 42.8363 12.9943C42.8363 12.8423 42.8063 12.7083 42.7463 12.5923C42.6863 12.4763 42.6063 12.3843 42.5063 12.3163C42.4063 12.2443 42.2903 12.2083 42.1583 12.2083H40.9403L40.9823 12.1423V13.8583L40.9403 13.7983H42.1583ZM46.8495 14.3863C46.8495 14.6983 46.7795 14.9763 46.6395 15.2203C46.5035 15.4643 46.3175 15.6563 46.0815 15.7963C45.8495 15.9363 45.5875 16.0063 45.2955 16.0063C45.0035 16.0063 44.7395 15.9363 44.5035 15.7963C44.2675 15.6563 44.0795 15.4643 43.9395 15.2203C43.8035 14.9763 43.7355 14.6983 43.7355 14.3863C43.7355 14.0743 43.8035 13.7963 43.9395 13.5523C44.0795 13.3083 44.2675 13.1163 44.5035 12.9763C44.7395 12.8363 45.0035 12.7663 45.2955 12.7663C45.5875 12.7663 45.8495 12.8363 46.0815 12.9763C46.3175 13.1163 46.5035 13.3083 46.6395 13.5523C46.7795 13.7963 46.8495 14.0743 46.8495 14.3863ZM46.3695 14.3863C46.3695 14.1543 46.3215 13.9503 46.2255 13.7743C46.1335 13.5983 46.0055 13.4603 45.8415 13.3603C45.6815 13.2603 45.4995 13.2103 45.2955 13.2103C45.0915 13.2103 44.9075 13.2603 44.7435 13.3603C44.5835 13.4603 44.4555 13.5983 44.3595 13.7743C44.2635 13.9503 44.2155 14.1543 44.2155 14.3863C44.2155 14.6143 44.2635 14.8163 44.3595 14.9923C44.4555 15.1683 44.5835 15.3083 44.7435 15.4123C44.9075 15.5123 45.0915 15.5623 45.2955 15.5623C45.4995 15.5623 45.6815 15.5123 45.8415 15.4123C46.0055 15.3083 46.1335 15.1683 46.2255 14.9923C46.3215 14.8163 46.3695 14.6143 46.3695 14.3863ZM51.1715 12.7903C51.2355 12.7903 51.2895 12.8123 51.3335 12.8563C51.3815 12.9003 51.4055 12.9583 51.4055 13.0303C51.4055 13.0463 51.4035 13.0643 51.3995 13.0843C51.3995 13.1003 51.3955 13.1163 51.3875 13.1323L50.4635 15.7903C50.4435 15.8423 50.4095 15.8823 50.3615 15.9103C50.3175 15.9383 50.2695 15.9503 50.2175 15.9463C50.1255 15.9423 50.0555 15.8903 50.0075 15.7903L49.2515 13.8943L49.3715 13.9123L48.6875 15.7903C48.6435 15.8903 48.5735 15.9423 48.4775 15.9463C48.4255 15.9503 48.3755 15.9383 48.3275 15.9103C48.2795 15.8823 48.2475 15.8423 48.2315 15.7903L47.2895 13.1323C47.2775 13.0963 47.2715 13.0623 47.2715 13.0303C47.2715 12.9663 47.2935 12.9103 47.3375 12.8623C47.3815 12.8143 47.4415 12.7903 47.5175 12.7903C47.5655 12.7903 47.6095 12.8023 47.6495 12.8263C47.6895 12.8503 47.7175 12.8883 47.7335 12.9403L48.5435 15.3043L48.4175 15.2983L49.1195 13.4983C49.1595 13.3983 49.2335 13.3483 49.3415 13.3483C49.3975 13.3483 49.4415 13.3623 49.4735 13.3903C49.5095 13.4143 49.5355 13.4503 49.5515 13.4983L50.2835 15.2983L50.1335 15.3103L50.9435 12.9403C50.9795 12.8403 51.0555 12.7903 51.1715 12.7903ZM53.4265 16.0063C53.1065 16.0063 52.8265 15.9383 52.5865 15.8023C52.3465 15.6663 52.1585 15.4803 52.0225 15.2443C51.8905 15.0043 51.8245 14.7283 51.8245 14.4163C51.8245 14.0683 51.8925 13.7723 52.0285 13.5283C52.1685 13.2803 52.3485 13.0923 52.5685 12.9643C52.7925 12.8323 53.0285 12.7663 53.2765 12.7663C53.4605 12.7663 53.6385 12.8003 53.8105 12.8683C53.9825 12.9363 54.1345 13.0363 54.2665 13.1683C54.3985 13.2963 54.5045 13.4523 54.5845 13.6363C54.6645 13.8163 54.7065 14.0183 54.7105 14.2423C54.7105 14.3063 54.6865 14.3603 54.6385 14.4043C54.5905 14.4483 54.5345 14.4703 54.4705 14.4703H52.1005L51.9925 14.0563H54.3025L54.2065 14.1403V14.0083C54.1905 13.8443 54.1345 13.7043 54.0385 13.5883C53.9465 13.4683 53.8325 13.3763 53.6965 13.3123C53.5645 13.2483 53.4245 13.2163 53.2765 13.2163C53.1565 13.2163 53.0365 13.2383 52.9165 13.2823C52.8005 13.3223 52.6945 13.3903 52.5985 13.4863C52.5065 13.5783 52.4305 13.6983 52.3705 13.8463C52.3145 13.9943 52.2865 14.1723 52.2865 14.3803C52.2865 14.6123 52.3325 14.8163 52.4245 14.9923C52.5205 15.1683 52.6525 15.3083 52.8205 15.4123C52.9885 15.5123 53.1845 15.5623 53.4085 15.5623C53.5485 15.5623 53.6705 15.5443 53.7745 15.5083C53.8785 15.4723 53.9685 15.4283 54.0445 15.3763C54.1205 15.3203 54.1845 15.2643 54.2365 15.2083C54.2885 15.1723 54.3385 15.1543 54.3865 15.1543C54.4465 15.1543 54.4945 15.1743 54.5305 15.2143C54.5705 15.2543 54.5905 15.3023 54.5905 15.3583C54.5905 15.4263 54.5585 15.4863 54.4945 15.5383C54.3825 15.6623 54.2305 15.7723 54.0385 15.8683C53.8465 15.9603 53.6425 16.0063 53.4265 16.0063ZM55.612 15.9463C55.544 15.9463 55.486 15.9223 55.438 15.8743C55.394 15.8263 55.372 15.7683 55.372 15.7003V13.0843C55.372 13.0163 55.394 12.9603 55.438 12.9163C55.486 12.8683 55.544 12.8443 55.612 12.8443C55.684 12.8443 55.742 12.8683 55.786 12.9163C55.83 12.9603 55.852 13.0163 55.852 13.0843V13.8763L55.78 13.7503C55.804 13.6263 55.846 13.5063 55.906 13.3903C55.97 13.2703 56.05 13.1643 56.146 13.0723C56.242 12.9763 56.352 12.9023 56.476 12.8503C56.6 12.7943 56.736 12.7663 56.884 12.7663C56.972 12.7663 57.052 12.7883 57.124 12.8323C57.2 12.8723 57.238 12.9303 57.238 13.0063C57.238 13.0903 57.216 13.1523 57.172 13.1923C57.128 13.2323 57.078 13.2523 57.022 13.2523C56.97 13.2523 56.92 13.2423 56.872 13.2223C56.824 13.1983 56.764 13.1863 56.692 13.1863C56.592 13.1863 56.492 13.2143 56.392 13.2703C56.296 13.3223 56.206 13.3983 56.122 13.4983C56.042 13.5983 55.976 13.7123 55.924 13.8403C55.876 13.9643 55.852 14.0983 55.852 14.2423V15.7003C55.852 15.7683 55.828 15.8263 55.78 15.8743C55.736 15.9223 55.68 15.9463 55.612 15.9463ZM59.0194 16.0063C58.6994 16.0063 58.4194 15.9383 58.1794 15.8023C57.9394 15.6663 57.7514 15.4803 57.6154 15.2443C57.4834 15.0043 57.4174 14.7283 57.4174 14.4163C57.4174 14.0683 57.4854 13.7723 57.6214 13.5283C57.7614 13.2803 57.9414 13.0923 58.1614 12.9643C58.3854 12.8323 58.6214 12.7663 58.8694 12.7663C59.0534 12.7663 59.2314 12.8003 59.4034 12.8683C59.5754 12.9363 59.7274 13.0363 59.8594 13.1683C59.9914 13.2963 60.0974 13.4523 60.1774 13.6363C60.2574 13.8163 60.2994 14.0183 60.3034 14.2423C60.3034 14.3063 60.2794 14.3603 60.2314 14.4043C60.1834 14.4483 60.1274 14.4703 60.0634 14.4703H57.6934L57.5854 14.0563H59.8954L59.7994 14.1403V14.0083C59.7834 13.8443 59.7274 13.7043 59.6314 13.5883C59.5394 13.4683 59.4254 13.3763 59.2894 13.3123C59.1574 13.2483 59.0174 13.2163 58.8694 13.2163C58.7494 13.2163 58.6294 13.2383 58.5094 13.2823C58.3934 13.3223 58.2874 13.3903 58.1914 13.4863C58.0994 13.5783 58.0234 13.6983 57.9634 13.8463C57.9074 13.9943 57.8794 14.1723 57.8794 14.3803C57.8794 14.6123 57.9254 14.8163 58.0174 14.9923C58.1134 15.1683 58.2454 15.3083 58.4134 15.4123C58.5814 15.5123 58.7774 15.5623 59.0014 15.5623C59.1414 15.5623 59.2634 15.5443 59.3674 15.5083C59.4714 15.4723 59.5614 15.4283 59.6374 15.3763C59.7134 15.3203 59.7774 15.2643 59.8294 15.2083C59.8814 15.1723 59.9314 15.1543 59.9794 15.1543C60.0394 15.1543 60.0874 15.1743 60.1234 15.2143C60.1634 15.2543 60.1834 15.3023 60.1834 15.3583C60.1834 15.4263 60.1514 15.4863 60.0874 15.5383C59.9754 15.6623 59.8234 15.7723 59.6314 15.8683C59.4394 15.9603 59.2354 16.0063 59.0194 16.0063ZM63.5209 11.5063C63.5889 11.5063 63.6449 11.5303 63.6889 11.5783C63.7369 11.6223 63.7609 11.6783 63.7609 11.7463V15.7003C63.7609 15.7683 63.7369 15.8263 63.6889 15.8743C63.6449 15.9223 63.5889 15.9463 63.5209 15.9463C63.4489 15.9463 63.3909 15.9223 63.3469 15.8743C63.3029 15.8263 63.2809 15.7683 63.2809 15.7003V15.1303L63.3949 15.0883C63.3949 15.1843 63.3649 15.2863 63.3049 15.3943C63.2449 15.4983 63.1629 15.5963 63.0589 15.6883C62.9549 15.7803 62.8309 15.8563 62.6869 15.9163C62.5469 15.9763 62.3949 16.0063 62.2309 16.0063C61.9629 16.0063 61.7189 15.9363 61.4989 15.7963C61.2829 15.6563 61.1109 15.4643 60.9829 15.2203C60.8589 14.9763 60.7969 14.6983 60.7969 14.3863C60.7969 14.0703 60.8589 13.7903 60.9829 13.5463C61.1109 13.3023 61.2829 13.1123 61.4989 12.9763C61.7149 12.8363 61.9549 12.7663 62.2189 12.7663C62.3869 12.7663 62.5449 12.7943 62.6929 12.8503C62.8409 12.9063 62.9689 12.9823 63.0769 13.0783C63.1889 13.1743 63.2769 13.2803 63.3409 13.3963C63.4049 13.5123 63.4369 13.6283 63.4369 13.7443L63.2809 13.7083V11.7463C63.2809 11.6783 63.3029 11.6223 63.3469 11.5783C63.3909 11.5303 63.4489 11.5063 63.5209 11.5063ZM62.2849 15.5623C62.4849 15.5623 62.6609 15.5123 62.8129 15.4123C62.9689 15.3083 63.0889 15.1683 63.1729 14.9923C63.2609 14.8123 63.3049 14.6103 63.3049 14.3863C63.3049 14.1583 63.2609 13.9563 63.1729 13.7803C63.0889 13.6043 62.9689 13.4663 62.8129 13.3663C62.6609 13.2623 62.4849 13.2103 62.2849 13.2103C62.0889 13.2103 61.9129 13.2623 61.7569 13.3663C61.6049 13.4663 61.4849 13.6043 61.3969 13.7803C61.3089 13.9563 61.2649 14.1583 61.2649 14.3863C61.2649 14.6063 61.3089 14.8063 61.3969 14.9863C61.4849 15.1623 61.6049 15.3023 61.7569 15.4063C61.9129 15.5103 62.0889 15.5623 62.2849 15.5623ZM67.7128 12.7663C67.9848 12.7663 68.2288 12.8363 68.4448 12.9763C68.6608 13.1123 68.8308 13.3003 68.9548 13.5403C69.0828 13.7803 69.1468 14.0583 69.1468 14.3743C69.1468 14.6903 69.0828 14.9703 68.9548 15.2143C68.8308 15.4583 68.6608 15.6523 68.4448 15.7963C68.2328 15.9363 67.9928 16.0063 67.7248 16.0063C67.5768 16.0063 67.4368 15.9843 67.3048 15.9403C67.1768 15.8923 67.0588 15.8303 66.9508 15.7543C66.8468 15.6743 66.7588 15.5883 66.6868 15.4963C66.6148 15.4003 66.5628 15.3063 66.5308 15.2143L66.6628 15.1303V15.7303C66.6628 15.7983 66.6408 15.8563 66.5968 15.9043C66.5528 15.9523 66.4948 15.9763 66.4228 15.9763C66.3548 15.9763 66.2968 15.9543 66.2488 15.9103C66.2048 15.8623 66.1828 15.8023 66.1828 15.7303V11.7523C66.1828 11.6843 66.2048 11.6263 66.2488 11.5783C66.2968 11.5303 66.3548 11.5063 66.4228 11.5063C66.4948 11.5063 66.5528 11.5303 66.5968 11.5783C66.6408 11.6263 66.6628 11.6843 66.6628 11.7523V13.6003L66.5728 13.5523C66.6008 13.4523 66.6488 13.3563 66.7168 13.2643C66.7888 13.1683 66.8748 13.0843 66.9748 13.0123C67.0788 12.9363 67.1928 12.8763 67.3168 12.8323C67.4448 12.7883 67.5768 12.7663 67.7128 12.7663ZM67.6588 13.2103C67.4588 13.2103 67.2808 13.2603 67.1248 13.3603C66.9728 13.4603 66.8528 13.5983 66.7648 13.7743C66.6808 13.9503 66.6388 14.1503 66.6388 14.3743C66.6388 14.5983 66.6808 14.8003 66.7648 14.9803C66.8528 15.1603 66.9728 15.3023 67.1248 15.4063C67.2808 15.5103 67.4588 15.5623 67.6588 15.5623C67.8588 15.5623 68.0348 15.5103 68.1868 15.4063C68.3388 15.3023 68.4588 15.1603 68.5468 14.9803C68.6348 14.8003 68.6788 14.5983 68.6788 14.3743C68.6788 14.1503 68.6348 13.9503 68.5468 13.7743C68.4588 13.5983 68.3388 13.4603 68.1868 13.3603C68.0348 13.2603 67.8588 13.2103 67.6588 13.2103ZM72.1303 12.7963C72.1983 12.7963 72.2543 12.8203 72.2983 12.8683C72.3463 12.9123 72.3703 12.9683 72.3703 13.0363V15.6523C72.3703 15.9883 72.3043 16.2663 72.1723 16.4863C72.0403 16.7103 71.8623 16.8763 71.6383 16.9843C71.4183 17.0923 71.1683 17.1463 70.8883 17.1463C70.7323 17.1463 70.5823 17.1303 70.4383 17.0983C70.2943 17.0663 70.1763 17.0243 70.0843 16.9723C70.0083 16.9363 69.9543 16.8903 69.9223 16.8343C69.8943 16.7823 69.8903 16.7263 69.9103 16.6663C69.9383 16.5943 69.9783 16.5443 70.0303 16.5163C70.0863 16.4883 70.1443 16.4883 70.2043 16.5163C70.2683 16.5443 70.3603 16.5823 70.4803 16.6303C70.6043 16.6823 70.7423 16.7083 70.8943 16.7083C71.1023 16.7083 71.2803 16.6683 71.4283 16.5883C71.5763 16.5083 71.6903 16.3903 71.7703 16.2343C71.8503 16.0823 71.8903 15.8923 71.8903 15.6643V15.2383L71.9623 15.3883C71.8983 15.5123 71.8123 15.6203 71.7043 15.7123C71.5963 15.8043 71.4723 15.8763 71.3323 15.9283C71.1923 15.9803 71.0383 16.0063 70.8703 16.0063C70.6423 16.0063 70.4483 15.9583 70.2883 15.8623C70.1323 15.7623 70.0123 15.6263 69.9283 15.4543C69.8483 15.2783 69.8083 15.0763 69.8083 14.8483V13.0363C69.8083 12.9683 69.8303 12.9123 69.8743 12.8683C69.9223 12.8203 69.9803 12.7963 70.0483 12.7963C70.1203 12.7963 70.1783 12.8203 70.2223 12.8683C70.2663 12.9123 70.2883 12.9683 70.2883 13.0363V14.7403C70.2883 15.0123 70.3483 15.2183 70.4683 15.3583C70.5883 15.4943 70.7743 15.5623 71.0263 15.5623C71.1863 15.5623 71.3303 15.5263 71.4583 15.4543C71.5903 15.3823 71.6943 15.2843 71.7703 15.1603C71.8503 15.0323 71.8903 14.8923 71.8903 14.7403V13.0363C71.8903 12.9683 71.9123 12.9123 71.9563 12.8683C72.0003 12.8203 72.0583 12.7963 72.1303 12.7963Z" fill="white"/>
<path fill-rule="evenodd" clip-rule="evenodd" d="M29.6522 24.4994L31.8817 26.7289L34.1084 24.4994C34.6229 23.985 34.9237 23.3359 35.0081 22.6658H33.4066C33.338 22.9296 33.2008 23.1803 32.9951 23.386C32.3803 24.0008 31.383 24.0008 30.7683 23.386C30.1535 22.7713 30.1535 21.774 30.7683 21.1566C30.9741 20.9508 31.2247 20.8136 31.4885 20.745V19.1436C30.8184 19.228 30.1694 19.5288 29.6549 20.0432C28.4228 21.2754 28.4228 23.27 29.6522 24.4994Z" fill="#F93348"/>
<path fill-rule="evenodd" clip-rule="evenodd" d="M32.2734 20.745C32.5373 20.8136 32.7879 20.9508 32.9937 21.1566C33.1995 21.3624 33.3393 21.6131 33.4053 21.8769H35.0068C34.9224 21.2068 34.6216 20.5604 34.1071 20.0432C33.5926 19.5261 32.9436 19.228 32.2734 19.1436V20.745Z" fill="#F93348"/>
<path fill-rule="evenodd" clip-rule="evenodd" d="M32.4367 21.7178C32.7454 22.0265 32.7454 22.5252 32.4367 22.8312C32.128 23.1373 31.6294 23.1373 31.3233 22.8312C31.0146 22.5225 31.0146 22.0239 31.3233 21.7178C31.6294 21.4092 32.128 21.4092 32.4367 21.7178Z" fill="#F93348"/>
<path fill-rule="evenodd" clip-rule="evenodd" d="M40.1978 22.6763V23.6667H41.9442V24.493C41.5691 24.7743 41.112 24.8622 40.608 24.8622C39.3422 24.8622 38.551 24.159 38.551 22.9517C38.551 21.7913 39.3128 21.0588 40.4615 21.0588C41.1179 21.0588 41.7039 21.2756 42.0848 21.6155L42.7998 20.8126C42.2548 20.3028 41.4812 19.9922 40.4498 19.9922C38.6096 19.9922 37.373 21.135 37.373 22.9517C37.373 24.7743 38.6096 25.8995 40.5728 25.8995C41.5867 25.8995 42.4482 25.6123 43.0166 25.0556V22.6704H40.1978V22.6763Z" fill="white"/>
<path fill-rule="evenodd" clip-rule="evenodd" d="M81.6841 23.0357V23.4635H83.7938V24.829C83.2957 25.2802 82.6921 25.4326 82.0005 25.4326C80.4065 25.4326 79.4395 24.4832 79.4395 22.9771C79.4395 21.471 80.4065 20.5098 81.8599 20.5098C82.6804 20.5098 83.284 20.7794 83.747 21.2072L84.0458 20.879C83.5184 20.3809 82.8034 20.0762 81.8658 20.0762C80.1193 20.0762 78.9648 21.1897 78.9648 22.9771C78.9648 24.7587 80.1193 25.8721 82.0005 25.8721C82.8737 25.8721 83.6532 25.6436 84.2451 25.0517V23.0357H81.6841Z" fill="white"/>
<path fill-rule="evenodd" clip-rule="evenodd" d="M76.0923 20.1084H75.7876L73.2793 25.793H73.7833L74.4397 24.2986H77.4402L78.0966 25.793H78.5947L76.0923 20.1084ZM74.6389 23.8708L75.3129 22.265L75.9399 20.8116L76.5553 22.265L77.2292 23.8708H74.6389Z" fill="white"/>
<path fill-rule="evenodd" clip-rule="evenodd" d="M66.2231 25.9141C67.6296 25.9141 68.3621 25.3047 68.3621 24.1326C68.3621 23.0191 67.5475 22.6733 66.4341 22.4389C65.5609 22.2455 65.0451 22.1107 65.0451 21.6653C65.0451 21.3137 65.3733 21.0383 66.018 21.0383C66.6333 21.0383 67.2135 21.1965 67.6765 21.4075L68.1512 20.4522C67.5886 20.1826 66.8736 20.0127 66.0121 20.0127C64.5939 20.0127 63.8789 20.7042 63.8789 21.7357C63.8789 22.8609 64.7287 23.2301 65.9711 23.4762C66.7681 23.6286 67.1725 23.7751 67.1725 24.2205C67.1725 24.6717 66.8033 24.9062 66.1703 24.9062C65.4964 24.9062 64.8635 24.7128 64.2305 24.408L63.7969 25.3926C64.5822 25.7501 65.2268 25.9141 66.2231 25.9141Z" fill="white"/>
<path fill-rule="evenodd" clip-rule="evenodd" d="M60.4575 25.8946C62.0926 25.8946 62.913 25.1034 62.913 23.5387V20.0986H61.7702V23.2633C61.7702 24.365 61.3541 24.8104 60.4575 24.8104C59.5609 24.8104 59.1506 24.3592 59.1506 23.2633V20.0986H58.0078V23.5387C58.002 25.1034 58.8517 25.8946 60.4575 25.8946Z" fill="white"/>
<path d="M56.7658 20.0986H55.6055V25.7832H56.7658V20.0986Z" fill="white"/>
<path fill-rule="evenodd" clip-rule="evenodd" d="M53.196 20.1074V23.6823L49.7853 20.0781H49.2168V25.792H50.342V22.2172L53.7293 25.8272H54.3154V20.1074H53.196Z" fill="white"/>
<path fill-rule="evenodd" clip-rule="evenodd" d="M43.9844 25.7832H48.239V24.7694H45.0803V23.4684H47.6296V22.4955H45.0803V21.1242H48.1101V20.0986H43.9844V25.7832Z" fill="white"/>
<path fill-rule="evenodd" clip-rule="evenodd" d="M71.0062 25.7911H71.4692V20.5694H73.4559V20.1416H69.0137V20.5694H71.0062V25.7911Z" fill="white"/>
</svg>
