<svg width="130" height="19" viewBox="0 0 130 19" fill="none" xmlns="http://www.w3.org/2000/svg">
<path fill-rule="evenodd" clip-rule="evenodd" d="M2.83234 12.9473L7.9868 18.1018L13.1352 12.9473C14.3246 11.7579 15.02 10.2573 15.2152 8.70788H11.5126C11.354 9.31788 11.0368 9.89737 10.561 10.3732C9.13969 11.7945 6.83391 11.7945 5.41262 10.3732C3.99133 8.95188 3.99133 6.6461 5.41262 5.21871C5.88842 4.74292 6.46791 4.42572 7.07791 4.26712V0.564453C5.52852 0.759651 4.02793 1.45505 2.83844 2.64454C-0.0102338 5.49321 -0.0102341 10.1048 2.83234 12.9473Z" fill="#F93348"/>
<path fill-rule="evenodd" clip-rule="evenodd" d="M8.89648 4.26614C9.50648 4.42474 10.086 4.74194 10.5618 5.21774C11.0376 5.69353 11.3609 6.27303 11.5134 6.88302H15.216C15.0208 5.33364 14.3254 3.83915 13.1359 2.64356C11.9465 1.44797 10.4459 0.758675 8.89648 0.563477V4.26614Z" fill="#F93348"/>
<path fill-rule="evenodd" clip-rule="evenodd" d="M9.27546 6.50695C9.98916 7.22064 9.98916 8.37354 9.27546 9.08113C8.56177 9.78872 7.40888 9.78872 6.70129 9.08113C5.98759 8.36744 5.98759 7.21454 6.70129 6.50695C7.40888 5.79326 8.56177 5.79326 9.27546 6.50695Z" fill="#F93348"/>
<path fill-rule="evenodd" clip-rule="evenodd" d="M27.2203 8.72321V11.0131H31.258V12.9235C30.3908 13.5739 29.334 13.7771 28.1687 13.7771C25.2421 13.7771 23.4129 12.1512 23.4129 9.36004C23.4129 6.67725 25.1743 4.98357 27.83 4.98357C29.3475 4.98357 30.7025 5.4849 31.5832 6.27077L33.2362 4.4145C31.9761 3.2357 30.1876 2.51758 27.8029 2.51758C23.5484 2.51758 20.6895 5.15972 20.6895 9.36004C20.6895 13.5739 23.5484 16.1754 28.0874 16.1754C30.4315 16.1754 32.4233 15.5115 33.7375 14.2243V8.70967H27.2203V8.72321Z" fill="black"/>
<path fill-rule="evenodd" clip-rule="evenodd" d="M123.135 9.57097V10.5601H128.012V13.7171C126.861 14.7604 125.465 15.1127 123.866 15.1127C120.181 15.1127 117.945 12.9177 117.945 9.43548C117.945 5.95328 120.181 3.73117 123.541 3.73117C125.438 3.73117 126.834 4.35444 127.904 5.34355L128.595 4.58478C127.376 3.43308 125.723 2.72852 123.555 2.72852C119.517 2.72852 116.848 5.30291 116.848 9.43548C116.848 13.5545 119.517 16.1289 123.866 16.1289C125.885 16.1289 127.687 15.6005 129.056 14.232V9.57097H123.135Z" fill="black"/>
<path fill-rule="evenodd" clip-rule="evenodd" d="M110.209 2.78906H109.504L103.705 15.932H104.87L106.388 12.4769H113.325L114.843 15.932H115.994L110.209 2.78906ZM106.849 11.4878L108.407 7.77525L109.857 4.41499L111.279 7.77525L112.837 11.4878H106.849Z" fill="black"/>
<path fill-rule="evenodd" clip-rule="evenodd" d="M87.3927 16.2224C90.6445 16.2224 92.3382 14.8132 92.3382 12.1034C92.3382 9.52898 90.4548 8.72956 87.8804 8.18758C85.8616 7.74045 84.6692 7.42882 84.6692 6.39906C84.6692 5.5861 85.428 4.94927 86.9184 4.94927C88.3411 4.94927 89.6825 5.31511 90.7529 5.80289L91.8504 3.59433C90.5497 2.97106 88.8966 2.57812 86.9049 2.57812C83.6259 2.57812 81.9729 4.17695 81.9729 6.56165C81.9729 9.16314 83.9376 10.0168 86.81 10.5858C88.6528 10.9381 89.5877 11.2769 89.5877 12.3066C89.5877 13.3499 88.7341 13.8919 87.2707 13.8919C85.7125 13.8919 84.2492 13.4448 82.7859 12.7402L81.7832 15.0165C83.5988 15.843 85.0893 16.2224 87.3927 16.2224Z" fill="black"/>
<path fill-rule="evenodd" clip-rule="evenodd" d="M74.0622 16.1699C77.8425 16.1699 79.7394 14.3407 79.7394 10.723V2.76953H77.0972V10.0862C77.0972 12.6335 76.1352 13.6633 74.0622 13.6633C71.9891 13.6633 71.0406 12.62 71.0406 10.0862V2.76953H68.3985V10.723C68.385 14.3407 70.3496 16.1699 74.0622 16.1699Z" fill="black"/>
<path d="M65.5246 2.76953H62.8418V15.9125H65.5246V2.76953Z" fill="black"/>
<path fill-rule="evenodd" clip-rule="evenodd" d="M57.2743 2.79626V11.0614L49.3885 2.72852H48.0742V15.9392H50.6757V7.67405L58.5073 16.0205H59.8622V2.79626H57.2743Z" fill="black"/>
<path fill-rule="evenodd" clip-rule="evenodd" d="M35.9746 15.9125H45.8115V13.5684H38.5084V10.5604H44.4024V8.31125H38.5084V5.14068H45.5134V2.76953H35.9746V15.9125Z" fill="black"/>
<path fill-rule="evenodd" clip-rule="evenodd" d="M98.4466 15.921H99.5171V3.84849H104.11V2.85938H93.8398V3.84849H98.4466V15.921Z" fill="black"/>
</svg>
