<svg width="33" height="32" viewBox="0 0 33 32" fill="none" xmlns="http://www.w3.org/2000/svg">
<g clip-path="url(#clip0_297_75168)">
<path d="M31.7642 15.3001C31.6943 13.9936 31.6386 12.6636 31.5843 11.3777C31.5316 10.1254 31.4771 8.83035 31.4095 7.55719C31.3117 5.70827 30.3605 4.3613 28.6588 3.66187C28.0578 3.41506 27.3184 3.28454 26.3995 3.26252C23.9659 3.20465 21.4913 3.17791 19.098 3.1519C18.246 3.14261 17.3942 3.13288 16.5426 3.12273C16.5211 3.10495 16.4942 3.09518 16.4663 3.09516H14.4825C12.8704 3.09516 11.2584 3.09564 9.64666 3.09642C9.35167 3.09642 9.05572 3.09575 8.76083 3.09493C7.87429 3.09189 6.95745 3.08936 6.05576 3.12216C4.82467 3.16679 3.87672 3.40748 3.07269 3.87979C1.44439 4.83658 0.575808 6.20233 0.491071 7.93937C0.446429 8.8541 0.431391 9.78449 0.416937 10.6843L0.407497 11.2477C0.394443 12.003 0.380804 12.758 0.366584 13.513C0.320777 16.0005 0.273338 18.5728 0.254573 21.1036C0.246995 22.111 0.297814 23.3028 0.731292 24.5044C1.37236 26.2818 2.55483 27.4308 4.34633 28.0172C6.0131 28.5499 7.75123 28.8231 9.50027 28.8269C13.8479 28.8833 18.408 28.9099 23.7748 28.9099H24.8173C25.8036 28.9268 26.7882 28.8197 27.748 28.5912C29.9485 28.0254 31.2524 26.6701 31.6238 24.5623C31.7419 23.8473 31.8239 23.1266 31.8696 22.4032C32.0303 20.208 31.9097 17.9835 31.793 15.8318L31.7642 15.3001ZM11.4328 26.9126C9.54958 26.9069 7.53732 26.8353 5.5823 26.3534C4.79566 26.1596 4.23303 25.9325 3.78347 25.6254L13.4857 16.6583L13.7566 16.9511C14.0265 17.2431 14.3052 17.5445 14.5867 17.8432C15.4014 18.7081 16.2008 18.7789 17.1018 18.0665C17.4705 17.7752 17.8207 17.4455 18.1594 17.1279C18.2877 17.0072 18.4173 16.8857 18.5488 16.7648L28.0448 26.3976C27.7166 26.6687 27.3198 26.7255 26.9018 26.7854L26.7817 26.8026C26.3328 26.8627 25.8802 26.8905 25.4271 26.8859L22.771 26.8956C19.0545 26.9094 15.2121 26.924 11.4328 26.9126ZM26.259 6.89358C24.838 8.1827 23.3689 9.51557 21.9681 10.874C20.5701 12.2295 19.1995 13.6502 17.8739 15.0244C17.3252 15.5932 16.7588 16.1806 16.1994 16.7536L4.39983 5.12348C4.48429 5.1009 4.5681 5.0781 4.65124 5.05506C4.97293 4.96709 5.27681 4.88377 5.58719 4.8225C7.13054 4.51794 8.71956 4.55936 10.2564 4.6C10.5996 4.60891 10.9428 4.61771 11.2858 4.62334C11.8078 4.63154 12.339 4.64903 12.8526 4.66601C13.2986 4.68065 13.7598 4.69588 14.2141 4.7049C15.4914 4.73028 16.7688 4.75465 18.0463 4.77801C20.8075 4.82978 23.6626 4.8835 26.4702 4.9512C26.865 4.9731 27.2574 5.02861 27.6429 5.11719C27.7942 5.14751 27.9514 5.17865 28.1072 5.20583V5.20972C27.4931 5.77374 26.8659 6.34302 26.2586 6.89405L26.259 6.89358ZM6.38584 21.0414C5.20243 22.1721 3.98011 23.3405 2.79808 24.5344C2.30715 23.3703 2.0527 22.415 1.97694 21.457C1.76714 18.7995 1.85432 16.1543 1.96225 13.6727C2.01157 12.5411 2.03125 11.39 2.05038 10.2769C2.06343 9.52017 2.07695 8.73766 2.09957 7.96923C2.12287 7.15418 2.39409 6.58226 3.00067 6.07681L12.2204 15.1794C10.3435 17.2587 8.33166 19.1815 6.38516 21.0423L6.38584 21.0414ZM29.6287 24.3356C29.5855 24.5691 29.5278 24.7996 29.4559 25.0257C29.43 25.1134 29.4041 25.2014 29.3797 25.2893L29.3426 25.3017L19.5695 15.7306C22.948 12.2281 26.152 9.24105 29.3567 6.60542C29.3703 6.66739 29.3844 6.7277 29.3982 6.78651C29.4552 6.99995 29.4931 7.21806 29.5114 7.43834C29.6195 9.65506 29.7076 11.8427 29.7723 13.5012C29.8331 15.0574 29.8848 16.5929 29.9262 18.0652C29.9781 19.9295 29.9839 22.1328 29.6279 24.3361L29.6287 24.3356Z" fill="#006FB3"/>
</g>
<defs>
<clipPath id="clip0_297_75168">
<rect width="32" height="32" fill="white" transform="translate(0.0996094)"/>
</clipPath>
</defs>
</svg>
