<svg width="164" height="199" viewBox="0 0 164 199" fill="none" xmlns="http://www.w3.org/2000/svg">
<g opacity="0.3">
<path fill-rule="evenodd" clip-rule="evenodd" d="M24.0652 139.985L82.26 198.18L140.386 139.985C153.815 126.555 161.667 109.613 163.87 92.1206H122.067C120.276 99.0075 116.695 105.55 111.323 110.922C95.2763 126.969 69.2436 126.969 53.197 110.922C37.1504 94.8753 37.1504 68.8426 53.197 52.7272C58.5689 47.3553 65.1115 43.7741 71.9984 41.9835V0.179688C54.5056 2.38351 37.5637 10.2346 24.1341 23.6642C-8.028 55.8263 -8.028 107.892 24.0652 139.985Z" fill="#F93348"/>
<path fill-rule="evenodd" clip-rule="evenodd" d="M92.5273 41.9835C99.4143 43.7741 105.957 47.3553 111.329 52.7272C116.701 58.099 120.351 64.6416 122.072 71.5286H163.876C161.672 54.0357 153.821 37.1627 140.392 23.6642C126.962 10.1658 110.02 2.38351 92.5273 0.179688V41.9835Z" fill="#F93348"/>
<path fill-rule="evenodd" clip-rule="evenodd" d="M96.8055 67.3949C104.863 75.4526 104.863 88.469 96.8055 96.4578C88.7477 104.447 75.7314 104.447 67.7425 96.4578C59.6848 88.4001 59.6848 75.3837 67.7425 67.3949C75.7314 59.3371 88.7477 59.3371 96.8055 67.3949Z" fill="#F93348"/>
</g>
</svg>
