<svg width="27" height="33" viewBox="0 0 27 33" fill="none" xmlns="http://www.w3.org/2000/svg">
<path d="M26.0308 19.3968C26.0308 22.0313 25.2677 24.6066 23.8381 26.7971C22.4085 28.9876 20.3765 30.6949 17.9992 31.7031C15.6218 32.7113 13.0058 32.9751 10.482 32.4611C7.95823 31.9471 5.63998 30.6785 3.82043 28.8156C2.00087 26.9528 0.761744 24.5793 0.259729 21.9954C-0.242285 19.4115 0.0153675 16.7333 1.0001 14.2993C1.98484 11.8654 3.65243 9.78501 5.79199 8.32136C7.93156 6.85771 10.447 6.07649 13.0202 6.07649H17.3571V0.526367L23.8623 7.18651L17.3571 13.8467V8.29653H13.0202C10.8759 8.29653 8.77968 8.94755 6.9967 10.1673C5.21373 11.387 3.82407 13.1206 3.00346 15.1489C2.18285 17.1772 1.96814 19.4091 2.38648 21.5623C2.80482 23.7156 3.83744 25.6934 5.35373 27.2458C6.87002 28.7982 8.8019 29.8554 10.9051 30.2837C13.0082 30.712 15.1882 30.4922 17.1693 29.6521C19.1505 28.8119 20.8438 27.3892 22.0351 25.5637C23.2265 23.7383 23.8623 21.5922 23.8623 19.3968H26.0308Z" fill="#625DF5"/>
<path d="M11.3872 20.0264L9.73877 19.6279L10.3716 13.8857H16.6294V15.5967H12.0825L11.7856 18.2529C11.9471 18.154 12.1815 18.055 12.4888 17.9561C12.8013 17.8519 13.1528 17.7998 13.5435 17.7998C14.0851 17.7998 14.5695 17.8883 14.9966 18.0654C15.4237 18.2373 15.7856 18.4873 16.0825 18.8154C16.3846 19.1436 16.6112 19.5446 16.7622 20.0186C16.9185 20.4873 16.9966 21.0186 16.9966 21.6123C16.9966 22.1331 16.9185 22.6227 16.7622 23.0811C16.6112 23.5342 16.3794 23.9378 16.0669 24.292C15.7544 24.641 15.3612 24.917 14.8872 25.1201C14.4132 25.318 13.856 25.417 13.2153 25.417C12.731 25.417 12.2648 25.3467 11.8169 25.2061C11.3742 25.0602 10.9757 24.8493 10.6216 24.5732C10.2674 24.292 9.98356 23.9482 9.77002 23.542C9.56169 23.1357 9.4471 22.6696 9.42627 22.1436H11.4653C11.5018 22.4925 11.5955 22.7894 11.7466 23.0342C11.8976 23.279 12.0955 23.4665 12.3403 23.5967C12.5903 23.7269 12.8794 23.792 13.2075 23.792C13.5044 23.792 13.7596 23.7373 13.9731 23.6279C14.1919 23.5133 14.3716 23.3545 14.5122 23.1514C14.6528 22.9482 14.757 22.7087 14.8247 22.4326C14.8924 22.1566 14.9263 21.8545 14.9263 21.5264C14.9263 21.2087 14.8872 20.9196 14.8091 20.6592C14.731 20.3936 14.6112 20.1644 14.4497 19.9717C14.2882 19.779 14.0851 19.6305 13.8403 19.5264C13.6007 19.4222 13.3195 19.3701 12.9966 19.3701C12.5643 19.3701 12.231 19.4352 11.9966 19.5654C11.7674 19.6956 11.5643 19.8493 11.3872 20.0264Z" fill="#625DF5"/>
</svg>
