<svg width="183" height="231" viewBox="0 0 183 231" fill="none" xmlns="http://www.w3.org/2000/svg">
<path d="M164.985 114.511C164.985 114.511 120.295 106.326 78.168 143.76C78.168 143.76 137.43 157.447 164.985 114.511Z" fill="white"/>
<path d="M82.6055 110.779C92.3951 108.89 111.959 105.112 121.899 103.193C121.794 84.0186 121.599 51.0518 121.599 51.0518C121.509 42.8513 133.862 41.9818 134.912 50.1373C134.912 50.1373 139.214 82.6993 141.553 100.33C142.527 101.814 144.791 105.232 148.029 110.299C156.904 124.181 165.735 138.633 174.235 153.16V230.743H112.649C107.507 202.108 90.5212 144.645 73.7305 112.503L82.6055 110.779Z" fill="#F7AB97"/>
<path d="M134.882 61.0663C135.077 61.0663 135.272 61.0513 135.467 61.0363C135.797 61.0063 136.036 60.7065 136.006 60.3766C135.976 60.0468 135.692 59.807 135.347 59.8369C132.723 60.0768 130.819 58.2478 130.519 55.1745L129.53 45.3249C129.5 44.9951 129.2 44.7553 128.87 44.7852C128.541 44.8152 128.301 45.1151 128.331 45.4449L129.32 55.2944C129.68 58.8175 131.884 61.0663 134.882 61.0663Z" fill="#EA8973"/>
<path d="M78.168 143.763C84.3146 170.674 92.3352 205.664 98.3468 230.73H174.235L182.622 147.226C175.122 132.726 173.425 129.401 173.021 128.667C170.292 123.674 167.759 119.162 164.985 114.5C141.553 133.974 109.441 144.273 78.168 143.763Z" fill="#60D2D7"/>
<path d="M102.184 125.815C102.514 125.815 102.828 125.635 102.993 125.32C105.227 120.853 109.56 115.111 109.605 115.051C109.904 114.661 109.829 114.092 109.425 113.792C109.035 113.492 108.465 113.567 108.165 113.972C107.985 114.212 103.683 119.908 101.374 124.526C101.149 124.976 101.329 125.515 101.779 125.725C101.914 125.785 102.049 125.815 102.184 125.815Z" fill="#EA8973"/>
<path d="M117.551 230.483C117.221 230.483 116.906 230.258 116.816 229.914L95.4377 143.052C95.3328 142.647 95.5877 142.242 95.9924 142.152C96.3972 142.047 96.802 142.302 96.8919 142.707L118.27 229.569C118.375 229.974 118.12 230.378 117.715 230.468C117.67 230.468 117.61 230.483 117.551 230.483Z" fill="white"/>
<path d="M144.523 230.487C144.208 230.487 143.908 230.277 143.804 229.962L114.87 138.872C114.75 138.482 114.959 138.063 115.364 137.928C115.754 137.808 116.174 138.018 116.309 138.422L145.243 229.512C145.363 229.902 145.153 230.322 144.748 230.457C144.673 230.472 144.598 230.487 144.523 230.487Z" fill="white"/>
<path d="M172.855 227.923C172.556 227.923 172.271 227.743 172.151 227.443L135.316 132.485C135.166 132.096 135.361 131.661 135.751 131.511C136.141 131.361 136.575 131.556 136.725 131.946L173.575 226.903C173.725 227.293 173.53 227.728 173.14 227.878C173.035 227.908 172.945 227.923 172.855 227.923Z" fill="white"/>
<path d="M172.856 167.614C172.586 167.614 172.317 167.464 172.182 167.209L150.414 124.738C150.219 124.363 150.369 123.913 150.743 123.733C151.118 123.539 151.568 123.689 151.748 124.063L173.516 166.535C173.711 166.91 173.561 167.359 173.186 167.539C173.096 167.599 172.976 167.614 172.856 167.614Z" fill="white"/>
<path d="M112.272 61.6202C97.79 48.8023 82.8433 36.539 67.3119 25.0104C62.1097 21.1875 56.8027 17.4696 51.3607 13.8865C48.4223 11.9526 44.4645 12.7622 42.5306 15.7005C40.6866 18.504 41.3462 22.2369 43.9548 24.2458C48.8121 28.0987 53.5795 32.1015 58.2869 36.2242C71.7644 48.1576 84.6873 60.7956 97.1604 73.7935C106.05 85.8768 122.676 72.3543 112.272 61.6202Z" fill="#F7AB97"/>
<path d="M122.316 104.738V10.4851C122.316 5.08803 117.939 0.710449 112.542 0.710449H66.2922C60.8952 0.710449 56.5176 5.08803 56.5176 10.4851V104.738C56.5176 110.135 60.8952 114.513 66.2922 114.513H112.542C117.954 114.513 122.316 110.135 122.316 104.738Z" fill="white"/>
<path d="M112.843 107.866H66.0092C62.9272 107.866 60.4375 105.376 60.4375 102.294V12.9286C60.4375 9.84658 62.9272 7.35693 66.0092 7.35693H112.843C115.925 7.35693 118.415 9.84658 118.415 12.9286V102.294C118.415 105.376 115.925 107.866 112.843 107.866Z" fill="white" stroke="#E8E8E8"/>
<path d="M90.3948 60.5065C86.8777 60.5258 83.4378 59.013 81.0578 56.4306C76.4423 51.6417 76.5772 43.3839 81.3854 38.7683C91.58 28.7086 108.096 40.6184 101.775 53.4628C99.6933 57.7218 95.1356 60.5644 90.3948 60.5065Z" fill="#FEC301" fill-opacity="0.19"/>
<path d="M101.543 47.7808C101.553 49.9006 100.955 51.876 99.9243 53.5718C99.4039 54.4294 98.768 55.2099 98.0357 55.8941C97.8237 56.0964 97.5924 56.2891 97.3612 56.4818C96.8216 56.9154 96.2434 57.3009 95.6364 57.6285C95.3377 57.7923 95.039 57.9368 94.7306 58.0621C94.2681 58.2548 93.7863 58.4283 93.3046 58.5632C93.1793 58.6017 93.0444 58.6306 92.9191 58.6595C92.8902 58.6691 92.8709 58.6691 92.842 58.6788C92.8324 58.6788 92.8228 58.6788 92.8131 58.6884C92.0326 58.8619 91.2232 58.9486 90.4042 58.9389C89.7779 58.9486 89.1612 58.9004 88.5638 58.7944C88.2265 58.7366 87.8893 58.6595 87.552 58.5728C86.4439 58.2741 85.3936 57.8019 84.43 57.1852C84.4204 57.1756 84.4107 57.1756 84.4011 57.166C84.4011 57.166 84.4011 57.166 84.3915 57.166C84.353 57.1467 84.3144 57.1178 84.2759 57.0889C84.1891 57.0311 84.112 56.9733 84.0253 56.9251C83.7844 56.7516 83.5532 56.5782 83.3316 56.3951C81.5971 54.9787 80.2866 53.0515 79.6796 50.8449C75.6904 34.5895 100.907 31.0531 101.543 47.7808Z" fill="#FEC301" fill-opacity="0.19"/>
<g clip-path="url(#clip0_297_73339)">
<path d="M90.9745 42.9445C91.222 42.8041 91.4161 42.5857 91.5265 42.3233C91.6368 42.061 91.6572 41.7695 91.5845 41.4943C91.5117 41.2192 91.3499 40.9758 91.1243 40.8023C90.8987 40.6288 90.622 40.5349 90.3374 40.5352C90.0528 40.5354 89.7763 40.63 89.5511 40.8039C89.3258 40.9779 89.1645 41.2216 89.0923 41.4969C89.0201 41.7722 89.0411 42.0636 89.152 42.3257C89.2629 42.5879 89.4574 42.8059 89.7052 42.9458L89.6988 42.9574C89.2768 43.8381 88.6905 45.0996 87.7853 45.5732C87.0418 45.9617 85.9749 45.7665 85.1824 45.6209C85.1697 45.4407 85.1067 45.2676 85.0007 45.1214C84.8946 44.9752 84.7496 44.8616 84.5823 44.7936C84.415 44.7256 84.2319 44.7058 84.0539 44.7366C83.8759 44.7673 83.71 44.8473 83.5752 44.9675C83.4404 45.0878 83.3419 45.2434 83.2911 45.4167C83.2402 45.59 83.2389 45.7742 83.2874 45.9482C83.3359 46.1222 83.4321 46.2792 83.5653 46.4012C83.6985 46.5233 83.8632 46.6056 84.0407 46.6388L85.9401 51.5418C86.0809 51.9053 86.3284 52.2177 86.65 52.438C86.9716 52.6583 87.3523 52.7762 87.7421 52.7762H92.935C93.3248 52.7762 93.7055 52.6583 94.0271 52.438C94.3487 52.2177 94.5962 51.9053 94.7371 51.5418L96.6358 46.6388C96.8122 46.606 96.976 46.5247 97.1089 46.404C97.2417 46.2833 97.3383 46.128 97.3878 45.9554C97.4374 45.7829 97.4379 45.6 97.3893 45.4273C97.3408 45.2545 97.2451 45.0986 97.1129 44.9772C96.9808 44.8557 96.8174 44.7735 96.6411 44.7396C96.4649 44.7058 96.2827 44.7217 96.115 44.7856C95.9472 44.8495 95.8006 44.9588 95.6915 45.1013C95.5824 45.2438 95.5152 45.4139 95.4973 45.5925C94.6862 45.6975 93.6405 45.8315 92.8919 45.4405C92.0047 44.9766 91.41 43.8021 90.9745 42.9445Z" fill="#FEC301"/>
</g>
<path d="M104.832 67.5449H76.0344C75.6662 67.5449 75.377 67.2556 75.377 66.8875C75.377 66.5193 75.6662 66.23 76.0344 66.23H104.832C105.2 66.23 105.489 66.5193 105.489 66.8875C105.489 67.2556 105.2 67.5449 104.832 67.5449Z" fill="#FFD442"/>
<path d="M104.834 71.29H88.6204C88.2522 71.29 87.9629 71.0008 87.9629 70.6326C87.9629 70.2644 88.2522 69.9751 88.6204 69.9751H104.834C105.202 69.9751 105.491 70.2644 105.491 70.6326C105.491 70.9876 105.202 71.29 104.834 71.29Z" fill="#FFD442"/>
<path d="M85.8046 71.29H76.0344C75.6662 71.29 75.377 71.0008 75.377 70.6326C75.377 70.2644 75.6662 69.9751 76.0344 69.9751H85.8046C86.1727 69.9751 86.462 70.2644 86.462 70.6326C86.462 70.9876 86.1727 71.29 85.8046 71.29Z" fill="#FFD442"/>
<path d="M89.6559 4.92215C90.2683 4.77755 90.6476 4.16387 90.503 3.55148C90.3584 2.93909 89.7447 2.55987 89.1323 2.70448C88.5199 2.84908 88.1407 3.46275 88.2853 4.07514C88.4299 4.68754 89.0435 5.06675 89.6559 4.92215Z" fill="#0B405E"/>
<path d="M83.1291 112.487H95.7371C96.2618 112.487 96.6666 112.068 96.6666 111.558C96.6666 111.033 96.2468 110.628 95.7371 110.628H83.1291C82.6043 110.628 82.1996 111.048 82.1996 111.558C82.1846 112.068 82.6043 112.487 83.1291 112.487Z" fill="#0B405E"/>
<path d="M58.2717 80.57C64.6732 80.7349 67.5665 71.9047 62.1395 68.2917C57.4471 65.1135 51.0457 58.697 46.0834 65.3234C41.5859 72.2645 49.8163 76.0574 54.4338 79.3706C55.5882 80.1802 56.9374 80.57 58.2717 80.57Z" fill="#F7AB97"/>
<path d="M59.3501 66.6771C65.7516 66.842 68.645 58.0119 63.218 54.3989L54.7627 48.5071C47.4017 43.5599 39.8609 54.3839 47.0419 59.571C49.5755 60.9653 56.2319 67.0969 59.3501 66.6771Z" fill="#F7AB97"/>
<path d="M60.7883 52.4187C67.1898 52.5836 70.0833 43.7535 64.6563 40.1405L56.1259 34.1888C48.765 29.2415 41.2242 40.0655 48.4052 45.2527C50.9538 46.6469 57.6551 52.8235 60.7883 52.4187Z" fill="#F7AB97"/>
<path d="M60.1302 79.9574C60.3251 79.9574 60.505 79.8675 60.625 79.7026C60.8199 79.4327 60.7599 79.0579 60.49 78.863L56.2174 75.8197C55.6027 75.385 55.1979 74.7403 55.093 73.9907C54.9731 73.2411 55.1679 72.5065 55.6177 71.9069C56.4872 70.7375 58.1363 70.4527 59.3507 71.2622L63.5933 74.0507C63.8632 74.2306 64.238 74.1556 64.4179 73.8858C64.5978 73.6159 64.5228 73.2411 64.2529 73.0612L60.0103 70.2728C58.2712 69.1184 55.9175 69.5382 54.6582 71.2023C54.0136 72.0718 53.7438 73.1212 53.9087 74.2006C54.0736 75.265 54.6433 76.1945 55.5278 76.8242L59.8004 79.8675C59.8904 79.9274 60.0103 79.9574 60.1302 79.9574Z" fill="#EA8973"/>
<path d="M61.8545 65.6707C62.0644 65.6707 62.2593 65.5658 62.3792 65.3709C62.5441 65.086 62.4542 64.7112 62.1693 64.5463L58.0316 62.1177C57.387 61.7429 56.9222 61.1282 56.7423 60.3936C56.5624 59.659 56.6823 58.9094 57.0871 58.2648C57.8517 57.0205 59.4708 56.6007 60.7451 57.2903L64.7179 59.4341C65.0028 59.5841 65.3776 59.4791 65.5275 59.1943C65.6774 58.9094 65.5724 58.5346 65.2876 58.3847L61.3148 56.2409C59.4708 55.2515 57.1771 55.8661 56.0677 57.6351C55.498 58.5496 55.3181 59.629 55.5879 60.6785C55.8428 61.7279 56.5025 62.5974 57.4319 63.1521L61.5697 65.5808C61.6446 65.6407 61.7496 65.6707 61.8545 65.6707Z" fill="#EA8973"/>
<path d="M63.1443 51.4872C63.3542 51.4872 63.5491 51.3822 63.669 51.1873C63.8339 50.9025 63.744 50.5277 63.4591 50.3628L59.2464 47.8892C58.6018 47.5144 58.137 46.8997 57.9571 46.1651C57.7772 45.4305 57.8972 44.6809 58.302 44.0363C59.0665 42.792 60.6856 42.3722 61.9599 43.0618L66.1576 45.3256C66.4425 45.4755 66.8173 45.3705 66.9672 45.0857C67.1171 44.8009 67.0121 44.4261 66.7273 44.2761L62.5296 42.0124C60.6856 41.0229 58.3919 41.6376 57.2825 43.4066C56.7128 44.3211 56.5329 45.4005 56.8028 46.4499C57.0577 47.4994 57.7173 48.3689 58.6468 48.9236L62.8595 51.3972C62.9344 51.4572 63.0394 51.4872 63.1443 51.4872Z" fill="#EA8973"/>
<path d="M20.7816 31.0674L18.8301 20.7295" stroke="#F93348" stroke-width="1.05205" stroke-linecap="round"/>
<path d="M13.523 35.6331L5.10547 29.3223" stroke="#F93348" stroke-width="1.05205" stroke-linecap="round"/>
<path d="M11.0857 42.5687L0.582031 43.1636" stroke="#F93348" stroke-width="1.05205" stroke-linecap="round"/>
<circle cx="43.418" cy="56.0796" r="29.0918" fill="#F93348"/>
<path d="M56.3298 64.0501L54.9874 60.774C54.6367 59.9266 54.4794 59.005 54.5226 58.0492L54.7774 53.0161C55.0008 48.5244 52.0587 44.5728 47.9708 43.332C47.9972 43.245 48.0236 43.1581 48.0031 43.0379C48.0716 41.7478 47.1052 40.6756 45.8152 40.607C44.5252 40.5384 43.4529 41.5048 43.3843 42.7949C43.3579 42.8818 43.3785 43.002 43.3921 43.0822C39.1583 43.8869 35.8242 47.5484 35.594 52L35.3392 57.0331C35.2892 57.9488 35.0321 58.8587 34.5941 59.6756L32.902 62.8096C32.1786 64.1289 33.0736 65.7494 34.6177 65.8571L54.3757 66.8576C55.8329 66.9389 56.9365 65.4311 56.3298 64.0501Z" fill="white"/>
<path d="M42.1616 67.5415C41.4931 67.4906 41.0278 68.1473 41.2574 68.7679C41.6765 70.016 42.8628 70.927 44.233 70.9819C45.6501 71.07 46.8699 70.2434 47.4134 69.0785C47.6852 68.4961 47.2816 67.8227 46.6532 67.7649L42.1616 67.5415Z" fill="white"/>
<path d="M71.8865 77.6767L54.3827 78.8454L67.7152 60.637L71.8865 77.6767Z" fill="#F93348"/>
<defs>
<clipPath id="clip0_297_73339">
<rect width="15.4627" height="15.4627" fill="white" transform="translate(82.6074 39.229)"/>
</clipPath>
</defs>
</svg>
