<svg width="36" height="37" viewBox="0 0 36 37" fill="none" xmlns="http://www.w3.org/2000/svg">
<circle cx="18" cy="18.7266" r="18" fill="#EFFBFB"/>
<g clip-path="url(#clip0_702_6389)">
<path d="M26.4484 13.946C26.4262 13.4106 26.3732 12.8685 26.322 12.3443C26.2966 12.0855 26.2704 11.8177 26.2484 11.5545C26.1934 10.8981 25.8891 10.5662 25.3182 10.54H25.315L24.5307 10.5404C24.4681 10.5466 24.4055 10.5536 24.3429 10.5606C24.2116 10.5752 24.0758 10.5904 23.9429 10.5978C23.5367 10.6203 23.1305 10.6419 22.7242 10.6626C21.8185 10.7096 20.8819 10.7583 19.9615 10.8232C19.7492 10.8381 19.3555 10.8945 19.106 11.1034L18.7517 11.3998C17.8007 12.1946 16.8173 13.0164 15.9223 13.9002C14.5264 15.2788 13.1369 16.7102 11.7931 18.0943C11.2251 18.6794 10.6564 19.2638 10.087 19.8473C10.0715 19.8631 10.0567 19.8803 10.0419 19.8976C10.018 19.9299 9.98848 19.9575 9.95467 19.9792C9.59502 20.1562 9.42235 20.4801 9.25532 20.7934L9.21804 20.863C9.12657 21.0181 9.08558 21.1976 9.10074 21.3769C9.1159 21.5562 9.18646 21.7263 9.30265 21.8638C10.595 23.5313 11.8832 25.1413 13.4314 26.5089C13.9022 26.9245 14.4518 27.2526 14.9275 27.5189C15.0761 27.6118 15.2462 27.6649 15.4213 27.6729C15.6635 27.6729 15.8616 27.5379 16.0871 27.3189C16.2787 27.1323 16.4695 26.9447 16.6594 26.7561C17.0811 26.3395 17.5172 25.9088 17.9608 25.5022C19.0064 24.5431 20.0744 23.5728 21.1071 22.6345C22.0523 21.7755 23.0296 20.8875 23.9876 20.0104C24.5442 19.5007 25.0959 18.9678 25.6295 18.4523C25.7811 18.306 25.9327 18.1596 26.0847 18.0133C26.3696 17.7394 26.5051 17.4368 26.4988 17.0883C26.492 16.7195 26.4895 16.344 26.4867 15.9808C26.4817 15.3138 26.4765 14.6238 26.4484 13.946ZM25.5679 16.7192C25.5738 16.8383 25.5525 16.9573 25.5056 17.0669C25.4588 17.1766 25.3874 17.2741 25.2971 17.3521C23.1448 19.3402 21.4988 20.8646 19.9602 22.2957C19.0301 23.1606 18.0876 24.0431 17.1761 24.8968C16.6853 25.3562 16.1946 25.8153 15.7039 26.2744C15.6311 26.3424 15.5563 26.4085 15.4649 26.4892C15.4289 26.5209 15.3902 26.5551 15.348 26.5923C15.2402 26.5173 15.1292 26.4441 15.0213 26.3729C14.7486 26.2028 14.4893 26.0123 14.2454 25.8029C12.6862 24.3897 11.345 22.7637 10.2388 21.3596C10.1244 21.2145 10.1101 21.0902 10.1924 20.9562L10.2234 20.9058C10.3139 20.7437 10.4227 20.5924 10.5476 20.455C10.9408 20.059 11.3339 19.6628 11.7268 19.2664C13.5002 17.4783 15.334 15.6292 17.1595 13.8331C17.5743 13.4249 18.0355 13.0477 18.4816 12.683C18.7705 12.447 19.0686 12.2029 19.3528 11.952C19.6605 11.6802 20.0221 11.6613 20.405 11.6414C20.4508 11.6389 20.4965 11.6365 20.542 11.6337C21.6862 11.5621 22.8513 11.5099 23.9779 11.4588C24.3251 11.4432 24.6722 11.4274 25.0194 11.4114C25.0308 11.4109 25.0422 11.4107 25.0538 11.4107C25.1051 11.4107 25.16 11.4155 25.2311 11.4217C25.2631 11.4245 25.2979 11.4276 25.3362 11.4306C25.3587 11.7459 25.3817 12.0587 25.4055 12.3691C25.4649 13.161 25.5211 13.909 25.5586 14.6736C25.5793 15.0878 25.5744 15.5111 25.5699 15.9204C25.5672 16.1822 25.5642 16.4528 25.5679 16.7192Z" fill="#00426A"/>
<path d="M22.0601 12.9663H22.0327C21.6066 12.9716 21.1997 13.1441 20.8997 13.4465C20.5466 13.7905 20.3447 14.2606 20.338 14.7535C20.3298 15.7364 21.1435 16.5231 22.1904 16.5445C22.2066 16.5448 22.2226 16.545 22.2385 16.545C22.748 16.5566 23.2419 16.3688 23.6149 16.0215C23.783 15.8561 23.9166 15.6588 24.0077 15.4412C24.0987 15.2236 24.1456 14.99 24.1454 14.7541C24.1591 13.7238 23.3014 12.9886 22.0601 12.9663ZM21.3176 14.2451C21.3787 14.0926 21.4328 13.9729 21.5271 13.936C21.5495 13.9274 21.5733 13.9231 21.5973 13.9234C21.6628 13.9269 21.7266 13.9446 21.7845 13.9752C21.7953 13.9803 21.8073 13.9826 21.8193 13.9818C21.8312 13.981 21.8427 13.9772 21.8528 13.9707C21.863 13.9643 21.8712 13.9554 21.8769 13.9448C21.8826 13.9343 21.8855 13.9225 21.8854 13.9106V13.9056C21.9457 13.9249 22.0063 13.9435 22.0669 13.962C22.2705 14.0186 22.4695 14.0908 22.6621 14.178C23.0282 14.3563 23.0507 14.6843 23.005 14.9278C22.9453 15.2475 22.761 15.4228 22.4252 15.4793C21.9637 15.557 21.6397 15.459 21.4054 15.1708C21.1986 14.9169 21.1701 14.614 21.3176 14.2449V14.2451Z" fill="#00426A"/>
</g>
<defs>
<clipPath id="clip0_702_6389">
<rect width="17.6085" height="17.2941" fill="white" transform="translate(9 10.4326)"/>
</clipPath>
</defs>
</svg>
