<svg width="36" height="37" viewBox="0 0 36 37" fill="none" xmlns="http://www.w3.org/2000/svg">
<circle cx="18" cy="18.7266" r="18" fill="#EFFBFB"/>
<g clip-path="url(#clip0_702_11523)">
<path d="M20.5126 26.634C18.951 26.634 17.3893 26.6264 15.8278 26.6364C14.5723 26.6445 13.3174 26.6808 12.0621 26.6895C11.7089 26.6895 11.3562 26.6629 11.007 26.6106C10.2547 26.5026 9.95541 26.0581 10.2059 25.3409C10.3772 24.8605 10.6011 24.4005 10.8735 23.9691C12.0274 22.1212 13.7065 20.9213 15.7187 20.1483C16.8111 19.7199 17.9721 19.492 19.1459 19.4755C20.9007 19.4602 22.5161 19.9046 23.8956 21.0594C24.8374 21.837 25.607 22.8011 26.1559 23.8906C26.3086 24.1951 26.4808 24.4925 26.6031 24.8089C26.7206 25.1011 26.8027 25.4062 26.8478 25.7177C26.9081 26.1844 26.6475 26.4938 26.1804 26.5526C25.8546 26.5967 25.5264 26.6212 25.1974 26.6261C23.6358 26.6332 22.0742 26.6295 20.5126 26.6295V26.634ZM25.6429 25.4949C25.6491 25.4452 25.6485 25.3951 25.6415 25.3456C25.144 24.0569 24.4568 22.8922 23.3949 21.9799C22.5757 21.2761 21.6568 20.7696 20.5652 20.6322C19.3074 20.474 18.0611 20.5072 16.8317 20.8527C14.5058 21.5065 12.6501 22.7934 11.3793 24.868C11.2347 25.104 11.1199 25.3581 10.987 25.6114C11.0274 25.6335 11.0695 25.6522 11.113 25.6674C11.5481 25.7628 11.9821 25.7067 12.4209 25.6822C13.3329 25.6312 14.2474 25.6093 15.1609 25.6046C18.1498 25.5893 21.1386 25.5904 24.1274 25.5762C24.625 25.5735 25.1217 25.524 25.6431 25.4949H25.6429Z" fill="#00426A"/>
<path d="M18.8082 11.483C20.0114 11.4538 21.0166 12.0267 21.7798 13.0679C21.9597 13.3134 22.1768 13.5413 22.3082 13.8105C22.6018 14.4123 22.845 15.0306 22.689 15.733C22.5424 16.3925 22.3514 17.0277 21.9257 17.5683C21.1686 18.5286 20.2034 19.1224 18.9699 19.27C17.8595 19.4029 16.8037 19.2388 15.8179 18.7176C14.8027 18.1808 14.225 17.3122 14.0153 16.1962C13.6996 14.5161 14.5807 13.0093 15.9708 12.2081C16.812 11.7232 17.7205 11.4788 18.8082 11.483ZM21.4445 14.8964C21.4997 14.4728 21.3298 14.1346 21.0665 13.8263C20.9638 13.7061 20.8709 13.577 20.7639 13.4607C20.3769 13.0397 19.9356 12.7067 19.3485 12.6185C18.5254 12.4826 17.6805 12.5931 16.9205 12.9361C15.9705 13.3719 15.2618 14.0364 15.0985 15.1413C14.908 16.4302 15.5748 17.5837 16.7605 17.9644C17.4711 18.186 18.2214 18.2511 18.9596 18.1552C19.9687 18.04 21.1566 17.0051 21.3171 15.9429C21.3695 15.5955 21.4026 15.2451 21.4445 14.896V14.8964Z" fill="#00426A"/>
</g>
<defs>
<clipPath id="clip0_702_11523">
<rect width="16.9446" height="15.2942" fill="white" transform="translate(10 11.4326)"/>
</clipPath>
</defs>
</svg>
