<svg width="200" height="250" viewBox="0 0 200 250" fill="none" xmlns="http://www.w3.org/2000/svg">
<path d="M199.41 180.138C200.481 180.978 201.908 181.651 203.32 181.188C206.716 180.064 206.817 176.002 208.833 173.452C210.555 171.271 214.763 169.909 215.141 166.951C215.363 165.201 214.361 163.695 213.138 162.728C211.461 161.402 209.099 161.462 206.611 162.328C205.607 162.677 203.365 162.179 201.378 162.194C199.391 162.209 197.611 162.8 196.729 163.91C195.518 165.44 195.419 167.143 195.866 168.774C196.385 170.681 197.582 172.472 197.515 173.686C197.378 176.272 197.444 178.591 199.41 180.138Z" fill="#E6E6E6"/>
<path d="M200.957 156.329C199.62 153.709 200.03 150.822 201.874 149.881C203.718 148.94 206.296 150.302 207.634 152.922C208.971 155.542 208.56 158.429 206.716 159.37C204.873 160.311 202.294 158.949 200.957 156.329Z" fill="#E6E6E6"/>
<path d="M191.374 158.438C189.05 156.193 188.359 153.139 189.83 151.617C191.3 150.095 194.376 150.681 196.699 152.926C199.023 155.17 199.714 158.224 198.243 159.746C196.773 161.268 193.697 160.682 191.374 158.438Z" fill="#E6E6E6"/>
<path d="M184.329 172.151C184.813 170.139 187.524 169.065 190.384 169.754C193.244 170.442 195.17 172.631 194.685 174.643C194.201 176.656 191.49 177.729 188.63 177.041C185.77 176.353 183.845 174.163 184.329 172.151Z" fill="#E6E6E6"/>
<path d="M186.083 166.414C183.358 164.68 182.07 161.826 183.206 160.041C184.342 158.255 187.473 158.214 190.198 159.949C192.924 161.684 194.212 164.537 193.075 166.323C191.939 168.108 188.808 168.149 186.083 166.414Z" fill="#E6E6E6"/>
<path d="M221.045 111.308C221.489 112.597 221.652 114.171 220.74 115.341C218.553 118.171 214.692 116.933 211.618 117.984C208.989 118.89 206.311 122.414 203.404 121.794C201.679 121.428 200.589 119.989 200.08 118.506C199.388 116.483 200.221 114.28 201.858 112.213C202.517 111.373 202.792 109.104 203.463 107.229C204.135 105.353 205.283 103.873 206.615 103.408C208.466 102.771 210.1 103.239 211.489 104.194C213.114 105.313 214.409 107.032 215.576 107.378C218.064 108.116 220.232 108.946 221.045 111.308Z" fill="#E6E6E6"/>
<path d="M192.646 110.1C190.615 107.972 190.182 105.089 191.68 103.66C193.177 102.23 196.037 102.797 198.068 104.925C200.1 107.052 200.532 109.936 199.035 111.365C197.538 112.794 194.678 112.228 192.646 110.1Z" fill="#E6E6E6"/>
<path d="M196.26 99.7659C194.91 96.8313 195.373 93.735 197.296 92.8501C199.218 91.9652 201.872 93.6268 203.222 96.5614C204.573 99.496 204.109 102.592 202.187 103.477C200.264 104.362 197.611 102.7 196.26 99.7659Z" fill="#E6E6E6"/>
<path d="M155.259 124.545C156.478 125.146 158.016 125.504 159.302 124.758C162.384 122.952 161.645 118.962 163.09 116.041C164.319 113.55 168.156 111.34 167.911 108.371C167.763 106.616 166.474 105.35 165.075 104.655C163.16 103.708 160.862 104.257 158.6 105.625C157.684 106.174 155.396 106.157 153.458 106.58C151.517 107.011 149.898 107.955 149.274 109.219C148.413 110.969 148.664 112.654 149.44 114.157C150.342 115.907 151.884 117.42 152.076 118.617C152.477 121.181 153.026 123.441 155.259 124.545Z" fill="#E6E6E6"/>
<path d="M151.839 100.943C149.987 98.6578 149.788 95.7488 151.396 94.4453C153.004 93.1418 155.809 93.9373 157.661 96.2222C159.514 98.5071 159.712 101.416 158.105 102.72C156.497 104.023 153.692 103.228 151.839 100.943Z" fill="#E6E6E6"/>
<path d="M142.903 104.993C140.164 103.28 138.853 100.437 139.975 98.6428C141.097 96.8483 144.227 96.7819 146.966 98.4946C149.705 100.207 151.016 103.05 149.894 104.845C148.772 106.639 145.642 106.706 142.903 104.993Z" fill="#E6E6E6"/>
<path d="M138.85 119.877C138.905 117.808 141.334 116.194 144.275 116.273C147.215 116.352 149.554 118.093 149.499 120.162C149.443 122.231 147.015 123.844 144.074 123.766C141.134 123.687 138.795 121.946 138.85 119.877Z" fill="#E6E6E6"/>
<path d="M135.225 108.252C135.965 106.269 139.019 105.578 142.046 106.709C145.072 107.839 146.925 110.363 146.185 112.345C145.444 114.328 142.39 115.019 139.364 113.889C136.337 112.758 134.484 110.235 135.225 108.252Z" fill="#E6E6E6"/>
<path d="M162.124 52.7166C162.827 53.8854 163.308 55.3859 162.663 56.7253C161.117 59.9464 157.074 59.533 154.289 61.2089C151.902 62.6357 150.021 66.6433 147.046 66.6468C145.283 66.647 143.912 65.4617 143.107 64.1248C142.009 62.2915 142.364 59.9612 143.538 57.5938C144.009 56.64 143.804 54.3594 144.068 52.3823C144.329 50.4126 145.15 48.718 146.357 47.9974C148.037 46.9912 149.73 47.1067 151.289 47.752C153.113 48.508 154.736 49.9209 155.954 50.016C158.547 50.2129 160.844 50.5778 162.124 52.7166Z" fill="#E6E6E6"/>
<path d="M134.097 57.4294C131.668 55.7703 130.645 53.0398 131.813 51.3307C132.98 49.6216 135.896 49.581 138.325 51.2401C140.754 52.8992 141.776 55.6297 140.609 57.3388C139.441 59.0479 136.526 59.0885 134.097 57.4294Z" fill="#E6E6E6"/>
<path d="M135.472 46.5888C133.541 43.9992 133.35 40.8741 135.047 39.6086C136.743 38.3432 139.684 39.4167 141.616 42.0064C143.547 44.596 143.738 47.7211 142.041 48.9866C140.345 50.252 137.404 49.1785 135.472 46.5888Z" fill="#E6E6E6"/>
<path d="M152.966 42.4427C152.647 39.5184 154.056 36.9656 156.114 36.7408C158.171 36.5161 160.098 38.7045 160.418 41.6289C160.737 44.5532 159.328 47.106 157.27 47.3308C155.213 47.5555 153.286 45.3671 152.966 42.4427Z" fill="#E6E6E6"/>
<path d="M143.266 41.0124C141.892 38.0888 142.33 34.9887 144.245 34.0881C146.161 33.1876 148.828 34.8276 150.202 37.7512C151.577 40.6749 151.139 43.775 149.223 44.6755C147.308 45.576 144.641 43.936 143.266 41.0124Z" fill="#E6E6E6"/>
<path d="M96.6558 93.0586C97.9644 93.4241 99.5422 93.4924 100.662 92.5142C103.357 90.1621 101.89 86.3832 102.762 83.251C103.504 80.5707 106.867 77.6897 106.081 74.8217C105.609 73.1266 104.111 72.1172 102.603 71.7001C100.541 71.126 98.3913 72.097 96.429 73.8523C95.6329 74.5591 93.3783 74.9729 91.5497 75.752C89.7211 76.5311 88.3068 77.7691 87.9272 79.1292C87.4023 81.0113 87.9731 82.6198 89.0052 83.9474C90.2221 85.4999 92.0128 86.6943 92.4245 87.8416C93.2994 90.2718 94.2587 92.3931 96.6558 93.0586Z" fill="#E6E6E6"/>
<path d="M88.896 70.5089C86.651 68.608 85.9155 65.7864 87.253 64.2068C88.5906 62.6271 91.4949 62.8876 93.7398 64.7885C95.9848 66.6894 96.7204 69.511 95.3828 71.0907C94.0452 72.6703 91.1409 72.4099 88.896 70.5089Z" fill="#E6E6E6"/>
<path d="M76.8171 70.4344C77.5862 68.4626 80.6496 67.8158 83.6595 68.9897C86.6693 70.1636 88.4858 72.7138 87.7167 74.6856C86.9477 76.6574 83.8843 77.3042 80.8744 76.1303C77.8646 74.9563 76.0481 72.4062 76.8171 70.4344Z" fill="#E6E6E6"/>
<path d="M79.6836 91.504C79.3537 89.4607 81.4404 87.4241 84.3442 86.9553C87.2481 86.4865 89.8696 87.7628 90.1995 89.8061C90.5294 91.8494 88.4428 93.8859 85.5389 94.3548C82.635 94.8236 80.0135 93.5473 79.6836 91.504Z" fill="#E6E6E6"/>
<path d="M73.9578 80.7882C74.3172 78.7026 77.1892 77.4565 80.3728 78.005C83.5564 78.5534 85.8459 80.6888 85.4865 82.7744C85.1272 84.8601 82.2552 86.1062 79.0716 85.5577C75.888 85.0092 73.5985 82.8739 73.9578 80.7882Z" fill="#E6E6E6"/>
<path d="M90.0594 21.205C90.9628 22.2236 91.7209 23.612 91.3366 25.04C90.4133 28.4929 86.3679 28.8383 83.9396 31.0031C81.8626 32.8544 80.7518 37.136 77.8253 37.69C76.0951 38.0173 74.5315 37.1062 73.49 35.9448C72.0694 34.3478 71.9881 31.9903 72.7028 29.4434C72.991 28.4181 72.3618 26.2126 72.257 24.225C72.1522 22.2374 72.6373 20.4302 73.691 19.4894C75.1545 18.1928 76.8425 17.9896 78.4952 18.3411C80.4265 18.7467 82.292 19.8287 83.4954 19.6979C86.08 19.413 88.4024 19.3387 90.0594 21.205Z" fill="#E6E6E6"/>
<path d="M60.0283 25.4545C60.8581 23.5582 63.7154 22.9769 66.4103 24.1561C69.1052 25.3353 70.6173 27.8284 69.7875 29.7247C68.9578 31.621 66.1005 32.2023 63.4056 31.0231C60.7106 29.8439 59.1986 27.3507 60.0283 25.4545Z" fill="#E6E6E6"/>
<path d="M62.7457 20.1276C60.3668 17.942 59.5991 14.9068 61.031 13.3484C62.4628 11.7899 65.5521 12.2983 67.9309 14.484C70.3098 16.6696 71.0775 19.7048 69.6457 21.2632C68.2138 22.8217 65.1246 22.3133 62.7457 20.1276Z" fill="#E6E6E6"/>
<path d="M79.1688 12.8175C78.3117 10.0036 79.222 7.23369 81.202 6.63063C83.1819 6.02758 85.4818 7.81976 86.3388 10.6336C87.1958 13.4474 86.2856 16.2174 84.3056 16.8204C82.3257 17.4235 80.0258 15.6313 79.1688 12.8175Z" fill="#E6E6E6"/>
<path d="M69.3697 13.1969C67.4761 10.5796 67.331 7.45214 69.0456 6.21156C70.7603 4.97098 73.6854 6.08703 75.579 8.70432C77.4727 11.3216 77.6178 14.449 75.9032 15.6896C74.1885 16.9302 71.2634 15.8142 69.3697 13.1969Z" fill="#E6E6E6"/>
</svg>
