<svg width="33" height="34" viewBox="0 0 33 34" fill="none" xmlns="http://www.w3.org/2000/svg">
<g clip-path="url(#clip0_297_73414)">
<path d="M11.9478 13.1994C12.0915 13.1994 12.2372 13.1892 12.3802 13.1694C13.5135 13.0133 14.4861 12.2715 15.1186 11.0808C15.7208 9.94724 15.9428 8.5312 15.7439 7.0938C15.3587 4.30979 13.4026 2.12891 11.2906 2.12891C11.1469 2.12891 11.0012 2.13906 10.8576 2.15901C9.75233 2.31268 8.79391 3.03307 8.15916 4.18716C7.52792 5.33343 7.29199 6.77153 7.49455 8.23634C7.8803 11.0193 9.83634 13.1994 11.9478 13.1994ZM9.09424 4.70172C9.56284 3.84995 10.2412 3.32232 11.0049 3.21614C11.0999 3.20296 11.1961 3.19619 11.2908 3.19619C12.8548 3.19619 14.3783 5.01023 14.6868 7.24012C14.8551 8.45699 14.6738 9.64317 14.1761 10.5801C13.7086 11.46 13.0192 12.0041 12.234 12.1123C12.1389 12.1254 12.0427 12.1322 11.9478 12.1322C10.3842 12.1322 8.86065 10.3189 8.55191 8.09002C8.38051 6.85134 8.57315 5.64812 9.09424 4.70172Z" fill="white"/>
<path d="M3.2948 9.57812C3.07509 9.57812 2.85421 9.60543 2.63462 9.66027C1.73793 9.8906 1.03026 10.5573 0.641942 11.5375C0.276847 12.4592 0.232858 13.5774 0.517793 14.6858C1.04099 16.7271 2.52809 18.1527 4.13374 18.1527C4.35263 18.1527 4.57328 18.1254 4.79345 18.0705C6.58521 17.6096 7.51504 15.4024 6.9104 13.0458C6.38743 11.0041 4.90057 9.57812 3.2948 9.57812ZM4.53162 17.0359C4.39977 17.0687 4.26582 17.0854 4.13374 17.0854C3.01558 17.0854 1.95379 15.9896 1.55159 14.4205C1.32219 13.5285 1.3516 12.6442 1.6342 11.9306C1.89335 11.2763 2.34292 10.8371 2.89645 10.6949C3.02795 10.6621 3.1619 10.6455 3.29469 10.6455C4.41284 10.6455 5.4744 11.7415 5.8766 13.3109C6.33271 15.0884 5.74009 16.725 4.53162 17.0359Z" fill="white"/>
<path d="M22.1726 2.15913C22.0294 2.13906 21.8834 2.12891 21.7389 2.12891C19.6269 2.12891 17.6709 4.30979 17.2856 7.09392C17.0871 8.53143 17.3094 9.94735 17.9117 11.0808C18.5444 12.2716 19.5168 13.0134 20.6498 13.1694C20.7918 13.189 20.9363 13.1989 21.0797 13.1989C23.1927 13.1989 25.1503 11.0183 25.5359 8.23471C25.738 6.7713 25.5018 5.33378 24.8709 4.18728C24.2348 3.03073 23.2759 2.31035 22.1726 2.15913ZM24.4785 8.08851C24.1644 10.3557 22.6715 12.1317 21.0796 12.1317C20.9849 12.1317 20.8893 12.1251 20.7954 12.1123C20.011 12.0042 19.3216 11.4601 18.854 10.5802C18.3563 9.64328 18.1747 8.4571 18.3427 7.24024C18.6514 5.01046 20.1749 3.1963 21.7387 3.1963C21.8339 3.1963 21.9301 3.20296 22.0259 3.21637C22.788 3.32092 23.4662 3.84843 23.9356 4.70184C24.4567 5.64847 24.6495 6.85122 24.4785 8.08851Z" fill="white"/>
<path d="M30.3897 9.65933C30.1737 9.60543 29.9529 9.57812 29.7335 9.57812C28.1275 9.57812 26.6405 11.0041 26.1174 13.0458C25.5135 15.4027 26.4434 17.6099 28.2382 18.0716C28.4542 18.1255 28.6748 18.1527 28.8934 18.1527C28.8935 18.1527 28.8962 18.1525 28.8965 18.1527C30.5008 18.1527 31.9867 16.7271 32.5101 14.6857C33.1143 12.3282 32.1845 10.1207 30.3897 9.65933ZM31.4763 14.4207C31.074 15.9896 30.0131 17.0854 28.8965 17.0853H28.8941C28.7619 17.0853 28.628 17.0686 28.5004 17.0368C27.2884 16.7251 26.6959 15.0883 27.1514 13.3105C27.5534 11.7413 28.6152 10.6453 29.7335 10.6453C29.866 10.6453 29.9998 10.662 30.1276 10.6938C31.3396 11.0055 31.9319 12.6425 31.4763 14.4207Z" fill="white"/>
<path d="M20.4408 15.3945C18.9235 15.3945 17.5518 16.1294 16.5119 17.4818C15.4726 16.1295 14.1012 15.3945 12.5845 15.3945C10.2945 15.3945 8.26789 17.0703 7.65613 19.4696C7.32837 20.7547 7.26501 22.8084 8.82399 25.2945C10.2666 27.5948 12.7671 29.7262 16.2562 31.6293C16.3359 31.6728 16.4238 31.6945 16.5118 31.6945C16.5996 31.6945 16.6876 31.6728 16.7673 31.6293C20.2572 29.7261 22.7585 27.5947 24.2016 25.2943C25.7612 22.8083 25.698 20.7546 25.3704 19.4696C24.7585 17.0703 22.7314 15.3945 20.4408 15.3945ZM16.5116 30.5516C7.91959 25.7695 8.34945 21.0699 8.69027 19.7334C9.18138 17.8073 10.7828 16.4619 12.5844 16.4619C13.9472 16.4619 15.1797 17.2582 16.0551 18.7038C16.1518 18.8636 16.3248 18.9611 16.5115 18.9611C16.5116 18.9611 16.5116 18.9611 16.5116 18.9611C16.6983 18.9611 16.8714 18.8637 16.9681 18.704C17.8441 17.258 19.0774 16.4618 20.4408 16.4618C22.2432 16.4618 23.845 17.807 24.3361 19.7332C24.6767 21.0698 25.1061 25.769 16.5116 30.5516Z" fill="white"/>
</g>
<defs>
<clipPath id="clip0_297_73414">
<rect width="32.363" height="32.363" fill="white" transform="translate(0.332031 0.726562)"/>
</clipPath>
</defs>
</svg>
