<svg width="36" height="37" viewBox="0 0 36 37" fill="none" xmlns="http://www.w3.org/2000/svg">
<circle cx="18" cy="18.7266" r="18" fill="#EFFBFB"/>
<mask id="path-2-inside-1_297_73393" fill="white">
<path fill-rule="evenodd" clip-rule="evenodd" d="M22.3965 22.7775L22.3966 22.7775L22.3919 22.7676C22.2855 22.5459 22.271 22.1507 22.6178 21.5972C22.9575 21.0551 23.5803 20.4889 24.4273 20.0885C25.2718 19.6893 26.1025 19.5713 26.7358 19.6569C27.3814 19.7442 27.6822 20.0096 27.7888 20.2407L27.7919 20.2476L27.7952 20.2545C27.9016 20.4762 27.9161 20.8714 27.5693 21.4249C27.23 21.9664 26.6084 22.5318 25.763 22.9321C24.9183 23.3235 24.0863 23.4387 23.4506 23.3528C22.7993 23.2647 22.5002 22.9998 22.3965 22.7775ZM21.4903 23.2002C22.0858 24.4769 24.1992 24.7604 26.1872 23.8376C28.1742 22.8983 29.3089 21.0975 28.6968 19.8219C28.1003 18.5286 25.9869 18.2451 23.9999 19.1845C22.0129 20.1238 20.8782 21.9246 21.4903 23.2002ZM18.2195 17.9824C16.8369 17.2727 15.6989 17.7683 14.2639 18.3933C13.5407 18.7083 12.7421 19.0561 11.7987 19.2991C7.6745 20.3722 6.96648 22.8781 8.38313 24.2531C9.14449 24.992 10.2022 25.0158 11.2964 25.0405C12.2381 25.0617 13.2068 25.0835 14.0369 25.5624C14.0369 25.5624 14.0535 25.5613 14.0545 25.5779C14.0545 25.5779 14.0711 25.5769 14.0721 25.5935C14.9127 26.0392 15.4506 26.8432 15.973 27.6241C16.584 28.5372 17.1738 29.4189 18.2019 29.6593C20.1269 30.121 21.8684 28.1824 20.5498 24.1235C20.2537 23.2 20.1205 22.3419 19.9998 21.5644C19.7582 20.0082 19.5666 18.7742 18.2195 17.9824ZM14.0956 13.7502C14.365 15.9288 13.454 17.8487 12.052 18.0362C10.6489 18.2072 9.28404 16.5961 8.99701 14.402C8.72759 12.2234 9.6386 10.3036 11.0406 10.116C12.4436 9.94504 13.8085 11.5561 14.0956 13.7502ZM18.3398 14.0219C18.8791 13.5911 19.404 12.8608 19.7236 11.9195C20.0426 10.98 20.0677 10.0851 19.8997 9.41887C19.7284 8.73889 19.4052 8.4339 19.1318 8.34139C18.8614 8.2499 18.4212 8.2956 17.8703 8.73561C17.331 9.1664 16.8061 9.89669 16.4865 10.8379C16.1675 11.7775 16.1425 12.6723 16.3104 13.3386C16.4818 14.0186 16.8049 14.3236 17.0783 14.4161C17.3487 14.5076 17.7889 14.4619 18.3398 14.0219ZM16.7578 15.3634C18.1681 15.8406 19.9262 14.4332 20.6705 12.241C21.4148 10.0489 20.8627 7.87136 19.4524 7.39414C18.042 6.91693 16.2839 8.32428 15.5396 10.5164C14.7953 12.7086 15.3474 14.8861 16.7578 15.3634ZM22.5189 13.4659L22.5189 13.4659L22.5219 13.4622C23.1432 12.6819 23.8841 12.1792 24.5343 11.9639C25.1972 11.7444 25.6255 11.8549 25.8493 12.0372C26.0754 12.2214 26.2714 12.6206 26.1959 13.3177C26.1218 14.0015 25.7879 14.8335 25.1646 15.6086L25.1646 15.6086L25.1616 15.6124C24.5393 16.394 23.8019 16.8958 23.1549 17.1104C22.5007 17.3274 22.0678 17.2227 21.8313 17.035C21.6064 16.8498 21.4124 16.451 21.4876 15.7569C21.5617 15.073 21.8956 14.241 22.5189 13.4659ZM21.7396 12.8393C20.2891 14.6432 20.046 16.8705 21.2027 17.8127C22.3759 18.7538 24.4944 18.0557 25.9439 16.2352C27.3944 14.4313 27.6376 12.204 26.4808 11.2618C25.3241 10.3197 23.1891 11.0188 21.7396 12.8393Z"/>
</mask>
<path d="M22.3966 22.7775L22.8226 23.6822L23.734 23.2531L23.2982 22.3449L22.3966 22.7775ZM22.3965 22.7775L21.9706 21.8728L21.0691 22.2972L21.4903 23.2002L22.3965 22.7775ZM22.3919 22.7676L21.4903 23.2002L21.4903 23.2002L22.3919 22.7676ZM22.6178 21.5972L23.4653 22.1281L23.4653 22.1281L22.6178 21.5972ZM24.4273 20.0885L24.8547 20.9926L24.8547 20.9926L24.4273 20.0885ZM26.7358 19.6569L26.8698 18.6659L26.8698 18.6659L26.7358 19.6569ZM27.7888 20.2407L28.6968 19.8219L28.6968 19.8219L27.7888 20.2407ZM27.7919 20.2476L26.8839 20.6665L26.8871 20.6734L26.8904 20.6802L27.7919 20.2476ZM27.7952 20.2545L28.6968 19.8219L28.6968 19.8218L27.7952 20.2545ZM27.5693 21.4249L28.4167 21.9559L28.4167 21.9559L27.5693 21.4249ZM25.763 22.9321L26.1834 23.8395L26.191 23.8359L25.763 22.9321ZM23.4506 23.3528L23.3166 24.3437L23.3166 24.3437L23.4506 23.3528ZM26.1872 23.8376L26.6083 24.7447L26.6146 24.7417L26.1872 23.8376ZM21.4903 23.2002L22.3966 22.7775L22.3919 22.7676L21.4903 23.2002ZM28.6968 19.8219L27.7888 20.2407L27.7919 20.2476L27.7952 20.2545L28.6968 19.8219ZM23.9999 19.1845L23.5725 18.2804L23.5725 18.2804L23.9999 19.1845ZM14.2639 18.3933L13.8646 17.4765L14.2639 18.3933ZM18.2195 17.9824L18.7262 17.1203L18.7016 17.1058L18.6761 17.0927L18.2195 17.9824ZM11.7987 19.2991L11.5493 18.3307L11.5468 18.3313L11.7987 19.2991ZM8.38313 24.2531L9.0796 23.5355L8.38313 24.2531ZM11.2964 25.0405L11.3189 24.0407L11.2964 25.0405ZM14.0369 25.5624L13.5372 26.4286L13.7985 26.5793L14.0996 26.5604L14.0369 25.5624ZM14.0545 25.5779L13.0565 25.6404L13.1189 26.6375L14.1161 26.576L14.0545 25.5779ZM14.0721 25.5935L13.0741 25.6559L13.109 26.2147L13.6036 26.4769L14.0721 25.5935ZM15.973 27.6241L15.1419 28.1801L15.973 27.6241ZM18.2019 29.6593L18.4351 28.6869L18.4297 28.6856L18.2019 29.6593ZM20.5498 24.1235L19.5976 24.4288L19.5988 24.4325L20.5498 24.1235ZM19.9998 21.5644L20.988 21.411L19.9998 21.5644ZM12.052 18.0362L12.173 19.0289L12.1846 19.0274L12.052 18.0362ZM14.0956 13.7502L15.088 13.6275L15.0871 13.6205L14.0956 13.7502ZM8.99701 14.402L8.00455 14.5248L8.00546 14.5317L8.99701 14.402ZM11.0406 10.116L10.9196 9.1233L10.908 9.12486L11.0406 10.116ZM19.7236 11.9195L20.6705 12.241L20.6705 12.241L19.7236 11.9195ZM18.3398 14.0219L17.7157 13.2405L18.3398 14.0219ZM19.8997 9.41887L18.9301 9.66324L18.9301 9.66324L19.8997 9.41887ZM19.1318 8.34139L19.4524 7.39414L19.4524 7.39414L19.1318 8.34139ZM17.8703 8.73561L18.4944 9.51695L18.4944 9.51695L17.8703 8.73561ZM16.4865 10.8379L15.5396 10.5164L15.5396 10.5164L16.4865 10.8379ZM16.3104 13.3386L15.3407 13.583L15.3407 13.583L16.3104 13.3386ZM17.0783 14.4161L16.7578 15.3634L16.7578 15.3634L17.0783 14.4161ZM20.6705 12.241L21.6174 12.5625L20.6705 12.241ZM16.7578 15.3634L17.0783 14.4161L17.0783 14.4161L16.7578 15.3634ZM19.4524 7.39414L19.7729 6.4469L19.7729 6.4469L19.4524 7.39414ZM15.5396 10.5164L14.5927 10.1949L15.5396 10.5164ZM22.5189 13.4659L21.9025 14.2534L22.6835 14.8647L23.3012 14.0888L22.5189 13.4659ZM22.5189 13.4659L23.1353 12.6785L22.3581 12.0701L21.7396 12.8393L22.5189 13.4659ZM22.5219 13.4622L23.3042 14.0851L23.3042 14.0851L22.5219 13.4622ZM24.5343 11.9639L24.22 11.0146L24.22 11.0146L24.5343 11.9639ZM25.8493 12.0372L26.4808 11.2618L26.4808 11.2618L25.8493 12.0372ZM26.1959 13.3177L25.2017 13.21L26.1959 13.3177ZM25.1646 15.6086L24.5482 16.3961L25.3254 17.0044L25.9439 16.2352L25.1646 15.6086ZM25.1646 15.6086L25.781 14.8211L25 14.2098L24.3823 14.9857L25.1646 15.6086ZM25.1616 15.6124L25.9439 16.2352L25.9439 16.2352L25.1616 15.6124ZM23.1549 17.1104L23.4697 18.0596L23.4697 18.0596L23.1549 17.1104ZM21.8313 17.035L21.1956 17.8069L21.2026 17.8127L21.2097 17.8183L21.8313 17.035ZM21.4876 15.7569L22.4818 15.8646L22.4818 15.8646L21.4876 15.7569ZM21.2027 17.8127L20.5711 18.5881L20.5769 18.5927L21.2027 17.8127ZM21.7396 12.8393L22.5189 13.4659L22.5219 13.4622L21.7396 12.8393ZM25.9439 16.2352L25.1646 15.6086L25.1616 15.6124L25.9439 16.2352ZM26.4808 11.2618L27.1124 10.4865L26.4808 11.2618ZM21.9706 21.8727L21.9706 21.8728L22.8225 23.6822L22.8226 23.6822L21.9706 21.8727ZM21.4903 23.2002L21.495 23.2101L23.2982 22.3449L23.2934 22.335L21.4903 23.2002ZM21.7704 21.0662C21.3091 21.8025 21.1877 22.5697 21.4903 23.2002L23.2935 22.335C23.334 22.4194 23.3226 22.4652 23.3259 22.4407C23.3295 22.4142 23.3508 22.3108 23.4653 22.1281L21.7704 21.0662ZM23.9999 19.1845C23.0062 19.6542 22.2259 20.3393 21.7704 21.0662L23.4653 22.1281C23.6891 21.7708 24.1544 21.3237 24.8547 20.9926L23.9999 19.1845ZM26.8698 18.6659C26.0186 18.5508 24.9936 18.7147 23.9999 19.1845L24.8547 20.9926C25.55 20.6639 26.1864 20.5917 26.6018 20.6479L26.8698 18.6659ZM28.6968 19.8219C28.4018 19.1823 27.7314 18.7824 26.8698 18.6659L26.6017 20.6479C26.8138 20.6766 26.9081 20.7264 26.933 20.742C26.9562 20.7566 26.9174 20.7391 26.8807 20.6596L28.6968 19.8219ZM28.7 19.8288L28.6968 19.8219L26.8807 20.6596L26.8839 20.6665L28.7 19.8288ZM28.6968 19.8218L28.6935 19.815L26.8904 20.6802L26.8937 20.6871L28.6968 19.8218ZM28.4167 21.9559C28.878 21.2195 28.9994 20.4524 28.6968 19.8219L26.8936 20.6871C26.8531 20.6027 26.8645 20.5569 26.8612 20.5814C26.8576 20.6079 26.8363 20.7112 26.7218 20.894L28.4167 21.9559ZM26.191 23.8359C27.1828 23.3662 27.9618 22.6819 28.4167 21.9559L26.7218 20.894C26.4983 21.2508 26.0339 21.6973 25.335 22.0283L26.191 23.8359ZM23.3166 24.3437C24.1666 24.4587 25.1905 24.2995 26.1834 23.8394L25.3425 22.0248C24.6461 22.3475 24.0059 22.4187 23.5846 22.3618L23.3166 24.3437ZM21.4903 23.2002C21.7847 23.8315 22.4548 24.2272 23.3166 24.3437L23.5846 22.3618C23.1437 22.3022 23.2157 22.1681 23.3028 22.3548L21.4903 23.2002ZM25.7662 22.9306C24.9204 23.3232 24.0871 23.4388 23.4506 23.3528C22.7993 23.2647 22.5002 22.9998 22.3965 22.7775L20.584 23.623C21.0758 24.6773 22.1313 25.1926 23.1826 25.3347C24.2486 25.4789 25.466 25.2749 26.6083 24.7447L25.7662 22.9306ZM27.7952 20.2545C27.9016 20.4762 27.9161 20.8714 27.5693 21.4249C27.2296 21.967 26.6068 22.5332 25.7598 22.9336L26.6146 24.7417C27.7546 24.2028 28.6927 23.3988 29.2641 22.4868C29.8283 21.5862 30.1041 20.4431 29.5984 19.3893L27.7952 20.2545ZM24.4273 20.0885C25.2718 19.6893 26.1025 19.5713 26.7358 19.6569C27.3814 19.7442 27.6822 20.0096 27.7888 20.2407L29.6049 19.403C29.1149 18.3408 28.0607 17.8179 27.0038 17.675C25.9344 17.5304 24.715 17.7403 23.5725 18.2804L24.4273 20.0885ZM22.3919 22.7676C22.2855 22.5459 22.271 22.1507 22.6178 21.5972C22.9575 21.0551 23.5803 20.4889 24.4273 20.0885L23.5725 18.2804C22.4325 18.8193 21.4944 19.6233 20.923 20.5353C20.3588 21.4359 20.083 22.5789 20.5887 23.6328L22.3919 22.7676ZM14.6632 19.3101C16.1639 18.6565 16.8583 18.4077 17.7628 18.872L18.6761 17.0927C16.8155 16.1376 15.2339 16.8801 13.8646 17.4765L14.6632 19.3101ZM12.0481 20.2675C13.0783 20.0021 13.9444 19.6232 14.6632 19.3101L13.8646 17.4765C13.137 17.7933 12.4058 18.11 11.5493 18.3307L12.0481 20.2675ZM9.0796 23.5355C8.68926 23.1566 8.59503 22.6772 8.88829 22.1466C9.21906 21.5483 10.1277 20.7672 12.0505 20.2668L11.5468 18.3313C9.34548 18.9041 7.83802 19.9125 7.1379 21.1791C6.40027 22.5135 6.66035 23.9745 7.68666 24.9706L9.0796 23.5355ZM11.3189 24.0407C10.1303 24.014 9.51044 23.9536 9.0796 23.5355L7.68666 24.9706C8.77855 26.0304 10.274 26.0177 11.2738 26.0402L11.3189 24.0407ZM14.5366 24.6962C13.4475 24.0679 12.21 24.0608 11.3189 24.0407L11.2738 26.0402C12.2661 26.0626 12.9661 26.0991 13.5372 26.4286L14.5366 24.6962ZM15.0525 25.5154C15.0414 25.3367 14.9813 25.1392 14.8471 24.9629C14.7175 24.7926 14.56 24.696 14.4357 24.6433C14.3154 24.5923 14.2094 24.5747 14.1418 24.5677C14.1056 24.564 14.0733 24.5626 14.0462 24.5624C14.0325 24.5623 14.0196 24.5625 14.0077 24.5628C14.0017 24.563 13.9959 24.5632 13.9904 24.5635C13.9876 24.5636 13.9848 24.5637 13.9821 24.5639C13.9808 24.564 13.9795 24.564 13.9781 24.5641C13.9775 24.5642 13.9768 24.5642 13.9762 24.5642C13.9758 24.5643 13.9753 24.5643 13.9752 24.5643C13.9747 24.5643 13.9742 24.5644 14.0369 25.5624C14.0996 26.5604 14.0991 26.5604 14.0986 26.5605C14.0985 26.5605 14.098 26.5605 14.0976 26.5605C14.097 26.5606 14.0963 26.5606 14.0957 26.5607C14.0944 26.5607 14.093 26.5608 14.0917 26.5609C14.089 26.561 14.0863 26.5612 14.0835 26.5613C14.078 26.5616 14.0724 26.5618 14.0665 26.5619C14.0548 26.5623 14.0423 26.5625 14.029 26.5623C14.0028 26.5621 13.9719 26.5608 13.9372 26.5572C13.8727 26.5506 13.7709 26.5338 13.6549 26.4846C13.5349 26.4337 13.3817 26.3399 13.2555 26.1741C13.1248 26.0022 13.0671 25.8108 13.0565 25.6404L15.0525 25.5154ZM15.0701 25.531C15.059 25.3522 14.9989 25.1549 14.8649 24.9788C14.7355 24.8086 14.5783 24.712 14.4542 24.6592C14.334 24.6081 14.2281 24.5904 14.1605 24.5834C14.1243 24.5796 14.0921 24.5782 14.0649 24.5779C14.0512 24.5778 14.0383 24.578 14.0264 24.5783C14.0205 24.5785 14.0147 24.5787 14.0091 24.5789C14.0063 24.5791 14.0036 24.5792 14.0009 24.5794C13.9995 24.5794 13.9982 24.5795 13.9969 24.5796C13.9962 24.5796 13.9956 24.5796 13.9949 24.5797C13.9946 24.5797 13.9941 24.5797 13.9939 24.5797C13.9934 24.5798 13.9929 24.5798 14.0545 25.5779C14.1161 26.576 14.1156 26.576 14.1151 26.5761C14.1149 26.5761 14.1144 26.5761 14.1141 26.5761C14.1134 26.5762 14.1128 26.5762 14.1121 26.5763C14.1108 26.5763 14.1095 26.5764 14.1081 26.5765C14.1055 26.5766 14.1028 26.5768 14.1 26.5769C14.0945 26.5771 14.0888 26.5773 14.0829 26.5775C14.0713 26.5778 14.0588 26.578 14.0455 26.5779C14.0193 26.5776 13.9883 26.5763 13.9537 26.5727C13.8892 26.5659 13.7875 26.549 13.6717 26.4998C13.5518 26.4488 13.3989 26.355 13.2729 26.1893C13.1423 26.0176 13.0847 25.8264 13.0741 25.6559L15.0701 25.531ZM16.8042 27.068C16.3098 26.3291 15.6417 25.2938 14.5406 24.71L13.6036 26.4769C14.1837 26.7845 14.5913 27.3572 15.1419 28.1801L16.8042 27.068ZM18.4297 28.6856C17.8531 28.5508 17.4693 28.0622 16.8042 27.068L15.1419 28.1801C15.6986 29.0123 16.4945 30.287 17.9742 30.6331L18.4297 28.6856ZM19.5988 24.4325C20.2135 26.3249 20.0419 27.509 19.7149 28.1067C19.4254 28.6359 18.9689 28.8149 18.4351 28.6869L17.9687 30.6318C19.3599 30.9654 20.7367 30.406 21.4695 29.0666C22.1649 27.7956 22.2047 25.981 21.5009 23.8146L19.5988 24.4325ZM19.0117 21.7178C19.1316 22.4906 19.2745 23.4212 19.5976 24.4288L21.5021 23.8182C21.233 22.9788 21.1094 22.1933 20.988 21.411L19.0117 21.7178ZM17.7127 18.8445C18.5963 19.3638 18.759 20.0905 19.0117 21.7178L20.988 21.411C20.7574 19.9258 20.537 18.1846 18.7262 17.1203L17.7127 18.8445ZM12.1846 19.0274C13.3354 18.8734 14.1467 18.0291 14.6035 17.0697C15.066 16.0982 15.2426 14.8777 15.088 13.6275L13.1031 13.873C13.2179 14.8014 13.0738 15.6301 12.7977 16.21C12.5158 16.8021 12.1706 17.0114 11.9194 17.045L12.1846 19.0274ZM8.00546 14.5317C8.16995 15.7891 8.64771 16.9273 9.34129 17.7504C10.0272 18.5644 11.0247 19.1688 12.173 19.0289L11.931 17.0436C11.6762 17.0746 11.2898 16.959 10.8707 16.4617C10.4593 15.9734 10.1111 15.209 9.98857 14.2723L8.00546 14.5317ZM10.908 9.12486C9.75723 9.2788 8.94588 10.1231 8.48913 11.0825C8.02659 12.054 7.84996 13.2746 8.00457 14.5248L9.98945 14.2793C9.87464 13.3509 10.0188 12.5222 10.2949 11.9422C10.5768 11.3502 10.922 11.1408 11.1732 11.1072L10.908 9.12486ZM15.0871 13.6205C14.9226 12.3631 14.4449 11.2249 13.7513 10.4018C13.0654 9.58782 12.0679 8.98344 10.9196 9.12337L11.1616 11.1087C11.4164 11.0776 11.8028 11.1933 12.2219 11.6906C12.6333 12.1788 12.9815 12.9432 13.104 13.8799L15.0871 13.6205ZM18.7767 11.598C18.5098 12.3843 18.0856 12.9451 17.7157 13.2405L18.9639 14.8032C19.6727 14.2371 20.2983 13.3373 20.6705 12.241L18.7767 11.598ZM18.9301 9.66324C19.0446 10.1179 19.0425 10.8152 18.7767 11.598L20.6705 12.241C21.0427 11.1448 21.0907 10.0524 20.8694 9.17449L18.9301 9.66324ZM18.8113 9.28863C18.6595 9.23726 18.8109 9.19035 18.9301 9.66324L20.8694 9.17449C20.6459 8.28742 20.151 7.63054 19.4524 7.39414L18.8113 9.28863ZM18.4944 9.51695C18.8798 9.2091 18.969 9.34199 18.8113 9.28863L19.4524 7.39414C18.7539 7.1578 17.9625 7.38211 17.2462 7.95427L18.4944 9.51695ZM17.4334 11.1594C17.7004 10.3732 18.1245 9.81243 18.4944 9.51695L17.2462 7.95427C16.5375 8.52038 15.9118 9.42018 15.5396 10.5164L17.4334 11.1594ZM17.2801 13.0942C17.1655 12.6396 17.1677 11.9422 17.4334 11.1594L15.5396 10.5164C15.1674 11.6127 15.1195 12.7051 15.3407 13.583L17.2801 13.0942ZM17.3988 13.4689C17.5506 13.5202 17.3992 13.5671 17.2801 13.0942L15.3407 13.583C15.5643 14.4701 16.0591 15.127 16.7578 15.3634L17.3988 13.4689ZM17.7157 13.2405C17.3303 13.5484 17.2411 13.4155 17.3988 13.4689L16.7578 15.3634C17.4563 15.5997 18.2476 15.3754 18.9639 14.8032L17.7157 13.2405ZM19.7236 11.9195C19.404 12.8608 18.8791 13.5911 18.3398 14.0219C17.7889 14.4619 17.3487 14.5076 17.0783 14.4161L16.4373 16.3106C17.5772 16.6963 18.7212 16.277 19.588 15.5846C20.4664 14.8829 21.1927 13.8135 21.6174 12.5625L19.7236 11.9195ZM19.1318 8.34139C19.4052 8.4339 19.7284 8.73889 19.8997 9.41887C20.0677 10.0851 20.0426 10.98 19.7236 11.9195L21.6174 12.5625C22.0427 11.3099 22.1138 10.02 21.8391 8.93012C21.5679 7.85399 20.9098 6.8316 19.7729 6.4469L19.1318 8.34139ZM16.4865 10.8379C16.8061 9.89669 17.331 9.1664 17.8703 8.73561C18.4212 8.2956 18.8614 8.2499 19.1318 8.34139L19.7729 6.4469C18.6329 6.06117 17.4889 6.48053 16.6221 7.17293C15.7437 7.87456 15.0174 8.94402 14.5927 10.1949L16.4865 10.8379ZM17.0783 14.4161C16.8049 14.3236 16.4818 14.0186 16.3104 13.3386C16.1425 12.6723 16.1675 11.7775 16.4865 10.8379L14.5927 10.1949C14.1674 11.4476 14.0964 12.7375 14.371 13.8274C14.6422 14.9035 15.3003 15.9259 16.4373 16.3106L17.0783 14.4161ZM23.1353 12.6785L23.1353 12.6785L21.9025 14.2534L21.9025 14.2534L23.1353 12.6785ZM21.7396 12.8393L21.7366 12.843L23.3012 14.0888L23.3042 14.0851L21.7396 12.8393ZM24.22 11.0146C23.3606 11.2991 22.4645 11.9289 21.7396 12.8393L23.3042 14.0851C23.8218 13.435 24.4076 13.0592 24.8486 12.9132L24.22 11.0146ZM26.4808 11.2618C25.908 10.7952 25.0886 10.727 24.22 11.0146L24.8486 12.9132C25.3059 12.7618 25.3431 12.9146 25.2178 12.8125L26.4808 11.2618ZM27.1901 13.4254C27.2886 12.5162 27.0539 11.7286 26.4808 11.2618L25.2178 12.8125C25.0969 12.7141 25.2543 12.725 25.2017 13.21L27.1901 13.4254ZM25.9439 16.2352C26.6693 15.3331 27.0926 14.3253 27.1901 13.4254L25.2017 13.21C25.151 13.6777 24.9064 14.3339 24.3853 14.982L25.9439 16.2352ZM24.5482 16.396L24.5482 16.3961L25.781 14.8211L25.781 14.8211L24.5482 16.396ZM25.9439 16.2352L25.9469 16.2314L24.3823 14.9857L24.3793 14.9895L25.9439 16.2352ZM23.4697 18.0596C24.327 17.7752 25.219 17.1456 25.9439 16.2352L24.3793 14.9895C23.8595 15.6423 23.2768 16.0164 22.84 16.1613L23.4697 18.0596ZM21.2097 17.8183C21.7911 18.2797 22.6074 18.3456 23.4697 18.0596L22.84 16.1613C22.3939 16.3093 22.3444 16.1656 22.453 16.2517L21.2097 17.8183ZM20.4934 15.6492C20.3953 16.5546 20.6275 17.339 21.1956 17.8069L22.467 16.2631C22.5854 16.3605 22.4295 16.3474 22.4818 15.8646L20.4934 15.6492ZM21.7396 12.8393C21.0142 13.7414 20.5909 14.7492 20.4934 15.6492L22.4818 15.8646C22.5325 15.3968 22.7771 14.7407 23.2982 14.0926L21.7396 12.8393ZM21.8342 17.0373C21.6081 16.8532 21.4121 16.4539 21.4876 15.7569C21.5617 15.073 21.8956 14.241 22.5189 13.4659L20.9603 12.2127C20.133 13.2415 19.6202 14.4251 19.4992 15.5415C19.3797 16.6445 19.6405 17.8301 20.5711 18.588L21.8342 17.0373ZM25.1616 15.6124C24.5393 16.394 23.8019 16.8958 23.1549 17.1104C22.4979 17.3283 22.0642 17.2218 21.8284 17.0326L20.5769 18.5927C21.5144 19.3447 22.7265 19.3597 23.7846 19.0087C24.8524 18.6545 25.8991 17.897 26.7262 16.8581L25.1616 15.6124ZM25.8493 12.0372C26.0754 12.2214 26.2714 12.6206 26.1959 13.3177C26.1218 14.0015 25.7879 14.8335 25.1646 15.6086L26.7232 16.8619C27.5505 15.8331 28.0633 14.6494 28.1843 13.5331C28.3038 12.43 28.043 11.2445 27.1124 10.4865L25.8493 12.0372ZM22.5219 13.4622C23.1432 12.6819 23.8841 12.1792 24.5343 11.9639C25.1972 11.7444 25.6255 11.8549 25.8493 12.0372L27.1124 10.4865C26.1795 9.72661 24.9619 9.71558 23.9057 10.0653C22.8368 10.4191 21.7855 11.1762 20.9573 12.2164L22.5219 13.4622Z" fill="#00426A" mask="url(#path-2-inside-1_297_73393)"/>
</svg>
