<svg width="146" height="146" viewBox="0 0 146 146" fill="none" xmlns="http://www.w3.org/2000/svg">
<path fill-rule="evenodd" clip-rule="evenodd" d="M44.212 28.3427C63.3687 26.6774 82.6338 26.6774 101.79 28.3427L110.978 29.1413C119.769 29.9055 126.89 36.595 128.202 45.3209C130.962 63.6726 130.962 82.3337 128.202 100.685C127.961 102.291 127.523 103.827 126.914 105.271C126.51 106.228 125.265 106.373 124.566 105.604L97.6688 76.0174C96.4536 74.6806 94.564 74.1868 92.8501 74.7581L77.4542 79.8901L55.1196 54.7637C54.2848 53.8245 53.0996 53.2712 51.8435 53.2343C50.5875 53.1974 49.3719 53.6801 48.4833 54.5687L18.5891 84.4629C17.669 85.3829 16.0999 84.7973 16.0265 83.4983C15.3073 70.7605 15.8985 57.9672 17.8002 45.3209C19.1124 36.595 26.2339 29.9055 35.0248 29.1413L44.212 28.3427ZM85.1679 54.7532C85.1679 49.7136 89.2533 45.6282 94.2929 45.6282C99.3325 45.6282 103.418 49.7136 103.418 54.7532C103.418 59.7928 99.3325 63.8782 94.2929 63.8782C89.2533 63.8782 85.1679 59.7928 85.1679 54.7532Z" fill="#004360"/>
<path d="M18.016 97.9407C17.6793 98.2774 17.5193 98.7525 17.5864 99.224C17.6557 99.7113 17.727 100.198 17.8002 100.685C19.1124 109.411 26.234 116.101 35.0248 116.865L44.212 117.664C63.3687 119.329 82.6338 119.329 101.791 117.664L110.978 116.865C113.561 116.64 116 115.904 118.19 114.755C119.02 114.32 119.159 113.222 118.529 112.529L93.5825 85.0878C93.1774 84.6422 92.5476 84.4776 91.9762 84.668L77.4856 89.4982C75.7542 90.0754 73.8453 89.5651 72.6328 88.201L52.5857 65.648C52.0044 64.994 50.9924 64.9643 50.3736 65.583L18.016 97.9407Z" fill="#004360"/>
</svg>
