<svg width="109" height="117" viewBox="0 0 109 117" fill="none" xmlns="http://www.w3.org/2000/svg">
<path d="M98.7339 112.051C100.361 112.981 102.57 112.865 104.198 111.818C108.615 109.145 108.847 102.751 106.871 98.5664C104.081 92.5216 95.5953 90.5454 89.5505 91.7079C84.5519 92.6378 80.4833 96.009 79.2046 100.891C79.0884 101.124 79.0883 101.356 78.9721 101.589C78.0421 105.541 78.6234 110.888 83.5057 111.586C86.4118 111.935 86.8768 110.075 87.5743 107.866C87.1093 110.54 90.5967 112.167 93.2704 111.935C94.5491 111.818 95.7115 110.888 96.5253 109.726C96.9902 110.656 97.6877 111.586 98.7339 112.051Z" fill="#D9BBA2"/>
<path d="M97.4496 110.548C98.612 109.269 98.7283 107.176 98.8445 105.549C99.077 103.34 99.077 101.132 98.612 98.9229C98.4958 98.3417 97.6821 98.5742 97.6821 99.0392C97.5658 101.132 97.5658 103.34 97.3334 105.433C97.1009 107.06 96.4034 108.804 96.7521 110.431C96.8684 110.664 97.2171 110.78 97.4496 110.548Z" fill="#B8896A"/>
<path d="M88.2666 108.91C88.6154 107.283 88.3829 105.539 88.4991 103.795C88.6154 101.819 88.8479 99.9592 88.9641 97.9831C88.9641 97.6343 88.3829 97.5181 88.2666 97.8668C87.3367 101.122 86.6392 105.539 87.4529 108.794C87.6854 109.259 88.2666 109.259 88.2666 108.91Z" fill="#B8896A"/>
<path d="M21.0738 112.051C22.7012 112.981 24.9099 112.865 26.5373 111.818C30.9547 109.145 31.1872 102.751 29.211 98.5664C26.4211 92.5216 17.9351 90.5454 11.8903 91.7079C6.89174 92.6378 2.82314 96.009 1.54443 100.891C1.42818 101.124 1.42819 101.356 1.31194 101.589C0.381973 105.541 0.963197 110.888 5.84553 111.586C8.75168 111.935 9.21666 110.075 9.91414 107.866C9.44916 110.54 12.9365 112.167 15.6102 111.935C16.8889 111.818 18.0514 110.888 18.8651 109.726C19.4463 110.656 20.1438 111.586 21.0738 112.051Z" fill="#D9BBA2"/>
<path d="M19.7973 110.54C20.9597 109.261 21.076 107.169 21.1922 105.541C21.4247 103.332 21.4247 101.124 20.9597 98.9151C20.8435 98.3339 20.0298 98.5664 20.0298 99.0313C19.9135 101.124 19.9135 103.332 19.681 105.425C19.4485 107.052 18.751 108.796 19.0998 110.423C19.216 110.656 19.681 110.772 19.7973 110.54Z" fill="#B8896A"/>
<path d="M10.7276 108.91C11.0763 107.283 10.8438 105.539 10.9601 103.795C11.0763 101.819 11.3088 99.9592 11.4251 97.9831C11.4251 97.6343 10.8438 97.5181 10.7276 97.8668C9.79762 101.122 9.10014 105.539 9.91387 108.794C10.0301 109.259 10.7276 109.259 10.7276 108.91Z" fill="#B8896A"/>
<path d="M85.3542 75.3189C81.5181 64.2755 82.3318 50.9073 75.8221 40.7938C66.1736 25.9144 44.9006 25.6819 35.136 40.7938C28.5099 50.9073 29.4399 64.2755 25.6038 75.3189C23.7438 80.6662 21.3027 86.0135 21.1864 91.5934C21.0702 97.9869 24.5576 105.078 30.3699 108.914C33.1598 110.774 77.9145 110.774 80.7044 108.914C86.5167 105.078 89.8878 97.9869 89.8878 91.5934C89.7716 86.0135 87.2141 80.6662 85.3542 75.3189Z" fill="#D9BBA2"/>
<path d="M25.4916 78.8063C29.3277 67.7629 28.514 54.3946 35.0237 44.2812C44.9047 29.1692 66.0614 29.4017 75.7099 44.2812C82.3359 54.3946 81.4059 67.7629 85.242 78.8063C86.8694 83.6886 89.0781 88.4547 89.5431 93.4533C89.5431 92.8721 89.6594 92.1746 89.6594 91.5934C89.5431 86.0135 87.1019 80.6662 85.242 75.3189C81.4059 64.2755 82.2196 50.9073 75.7099 40.7938C66.0614 25.9144 44.7884 25.6819 35.0237 40.7938C28.3977 50.9073 29.3277 64.2755 25.4916 75.3189C23.6316 80.6662 21.1905 86.0135 21.0742 91.5934C21.0742 92.1746 21.0742 92.8721 21.1905 93.4533C21.6554 88.4547 23.8641 83.6886 25.4916 78.8063Z" fill="#DFC5AD"/>
<path d="M85.3611 75.3187C84.1986 71.8313 83.3849 68.2277 82.8037 64.5078C78.6188 66.6002 75.364 72.4126 71.7603 76.5974C63.1581 86.4783 50.3711 86.9433 41.4201 77.6436C38.2815 74.3887 35.4915 72.2963 32.3529 69.0414C31.0742 67.7627 29.6792 66.6002 28.2843 65.9028C27.5868 69.9714 27.0056 71.7151 25.7269 75.4349C23.9832 80.3173 21.8908 85.1996 21.4258 90.1982C21.6583 94.0343 22.5882 97.9867 23.867 101.59C26.7731 109.379 37.9327 113.447 45.3725 115.075C54.7884 117.167 64.9018 116.47 73.8527 112.866C78.1538 111.122 82.3387 108.565 85.3611 104.961C88.616 101.009 89.5459 95.1968 89.8947 90.1982C89.1972 85.0834 87.1048 80.201 85.3611 75.3187Z" fill="#E5CFC1"/>
<path d="M79.0848 92.8705C79.0848 91.2431 76.5273 91.243 76.5273 92.9867C76.5273 94.4979 79.0848 94.4979 79.0848 92.8705Z" fill="#472B3C"/>
<path d="M75.1316 89.3861C75.1316 87.7587 72.5742 87.7587 72.5742 89.5024C72.5742 91.0136 75.1316 91.0136 75.1316 89.3861Z" fill="#472B3C"/>
<path d="M74.5457 96.8203C74.5457 95.1928 71.9883 95.3091 71.9883 96.9365C72.1045 98.4477 74.662 98.4477 74.5457 96.8203Z" fill="#472B3C"/>
<path d="M32.4648 92.8705C32.4648 91.2431 35.0223 91.243 35.0223 92.9867C35.0223 94.4979 32.4648 94.4979 32.4648 92.8705Z" fill="#472B3C"/>
<path d="M36.4219 89.3861C36.4219 87.7587 38.9793 87.7587 38.9793 89.5024C38.9793 91.0136 36.4219 91.0136 36.4219 89.3861Z" fill="#472B3C"/>
<path d="M36.9999 96.8203C36.9999 95.1928 39.5574 95.3091 39.5574 96.9365C39.4411 98.4477 36.8837 98.4477 36.9999 96.8203Z" fill="#472B3C"/>
<path d="M72.8076 74.858C71.7613 72.1843 68.5064 71.1381 65.6003 70.6731C62.4617 70.2081 59.2068 69.8594 55.9519 69.8594C55.8356 69.8594 55.6032 69.8594 55.4869 69.8594C55.3707 69.8594 55.1381 69.8594 55.0219 69.8594C51.767 69.9756 48.5121 70.2081 45.3735 70.6731C42.4673 71.1381 39.2124 72.0681 38.1662 74.858C37.0038 77.7641 39.0962 81.019 41.5374 82.9952C44.9085 86.0176 50.3721 89.1562 55.0219 89.5049C55.1381 89.5049 55.2544 89.5049 55.4869 89.5049C55.6032 89.5049 55.7194 89.5049 55.9519 89.5049C60.718 89.1562 66.0653 86.0176 69.4364 82.9952C71.8776 81.019 73.97 77.7641 72.8076 74.858Z" fill="#472B3C"/>
<path d="M72.8066 74.858C71.7604 72.1843 68.5055 71.1381 65.5993 70.6731C62.4607 70.2081 59.2058 69.8594 55.9509 69.8594C55.8347 69.8594 55.6022 69.8594 55.486 69.8594C55.3697 69.8594 55.1372 69.8594 55.021 69.8594C51.7661 69.9756 48.5112 70.2081 45.3725 70.6731C42.4664 71.1381 39.2115 72.0681 38.1653 74.858C37.8165 75.7879 37.8166 76.6016 37.9328 77.5316C37.9328 77.2991 38.049 76.9504 38.1653 76.7179C39.2115 74.0442 42.4664 72.998 45.3725 72.533C48.5112 72.0681 51.7661 71.7193 55.021 71.7193C55.1372 71.7193 55.3697 71.7193 55.486 71.7193C55.6022 71.7193 55.8347 71.7193 55.9509 71.7193C59.2058 71.8355 62.4607 72.0681 65.5993 72.533C68.5055 72.998 71.7604 73.928 72.8066 76.7179C72.9229 76.9504 72.9228 77.2991 73.0391 77.5316C73.1553 76.7179 73.1554 75.7879 72.8066 74.858Z" fill="#634357"/>
<path d="M63.5072 94.9648C61.8797 96.8247 60.7172 98.6846 58.0436 98.9171C55.0212 99.1496 53.045 97.1734 50.9526 95.3135C50.4876 94.8485 49.4414 95.3135 49.6739 96.011C50.8363 99.3821 54.6725 101.475 58.1598 101.126C61.066 100.893 64.6696 98.5684 64.4371 95.3135C64.4371 94.9648 63.8559 94.616 63.5072 94.9648Z" fill="#472B3C"/>
<path d="M75.8288 40.7938C66.1804 25.9144 44.9074 25.6819 35.1427 40.7938C30.6091 47.7686 29.5629 56.2546 28.168 64.3918C30.6091 66.833 33.864 68.6929 37.2351 69.1579C41.1875 69.7391 45.4886 68.3442 48.1623 65.3218C51.5334 61.6019 51.8821 56.2546 52.2309 51.256C52.6959 44.165 53.0446 37.074 53.5096 29.983C53.7421 38.1202 53.8583 46.3737 55.2533 54.3946C55.9508 57.9983 56.8807 61.8344 59.5544 64.3918C63.5068 68.3442 71.0628 71.4828 75.8288 68.4604C78.6187 66.7167 80.7111 64.2755 82.3386 61.4856C81.6411 53.5809 79.2 46.0249 75.8288 40.7938Z" fill="#C85E38"/>
<path d="M60.364 60.5611C60.1315 59.6312 60.0153 58.7012 60.1315 57.7712C60.2478 56.9575 60.4803 56.1438 60.9452 55.5626C61.4102 54.9813 62.3402 54.6326 63.1539 54.7488C63.8514 54.8651 64.3164 55.4463 64.6651 56.0275C65.9438 57.7712 67.1063 61.2586 65.8276 63.351C65.3626 64.1648 64.4326 64.6297 63.5027 64.3973C62.9214 64.1648 62.3402 63.816 61.8752 63.351C61.1778 62.5373 60.7128 61.6074 60.364 60.5611Z" fill="#472B3C"/>
<path d="M48.1576 60.7964C48.2738 59.9827 48.1576 59.0527 47.9251 58.239C47.6926 57.5415 47.3439 56.844 46.7627 56.379C46.1814 55.9141 45.3677 55.7978 44.6702 56.0303C44.089 56.2628 43.7402 56.844 43.5077 57.4253C42.694 59.1689 42.2291 62.5401 43.7403 64.1675C44.3215 64.865 45.2515 65.0975 46.0652 64.7488C46.6464 64.5163 46.9951 64.0513 47.3439 63.4701C47.8089 62.6563 48.0413 61.7264 48.1576 60.7964Z" fill="#472B3C"/>
<path d="M60.3639 49.5119C61.0614 49.0469 61.8751 48.9306 62.6888 49.1631C64.0838 49.2794 65.595 49.7443 65.4787 51.1393C65.3625 52.3018 63.9675 52.5343 63.0376 52.418C61.9914 52.3018 61.0614 51.953 60.2476 51.2556C59.8989 50.7906 59.7827 49.8606 60.3639 49.5119Z" fill="#472B3C"/>
<path d="M42.9284 51.4912C43.1609 50.6775 43.6259 49.98 44.4396 49.515C45.4859 48.5851 46.997 48.0038 47.8108 49.0501C48.5082 49.98 47.6945 51.0262 46.8808 51.6075C46.0671 52.3049 45.1371 52.5374 44.0909 52.6537C43.3934 52.8862 42.6959 52.1887 42.9284 51.4912Z" fill="#472B3C"/>
<path d="M39.2124 38.1221C38.3986 35.3322 37.7012 32.5422 36.0737 30.1011C34.5625 27.6599 32.1213 25.5675 29.2152 25.335C25.7278 24.9863 22.3567 27.0787 19.9155 29.6361C17.4743 32.1935 15.4982 35.2159 12.592 37.3083C9.56961 39.6333 5.38475 41.0282 4.10605 44.6318C2.82734 48.468 5.96598 52.7691 9.91835 53.5828C13.8707 54.3965 17.9393 52.4203 20.7292 49.5142C23.5191 46.608 25.2628 43.0044 27.1227 39.4008C27.4715 38.7033 27.9365 37.8896 28.7502 37.6571C29.3315 37.5408 29.9127 37.7733 30.3777 38.0058C33.2838 39.4008 35.8412 41.6094 37.5849 44.3993C39.6773 41.8419 40.1423 41.1445 39.2124 38.1221Z" fill="#C85E38"/>
<path d="M71.6468 38.1221C72.4605 35.3322 73.158 32.5422 74.7854 30.1011C76.2966 27.6599 78.7378 25.5675 81.644 25.335C85.1314 24.9863 88.5025 27.0787 90.9437 29.6361C93.3848 32.1935 95.361 35.2159 98.2671 37.3083C101.29 39.6333 105.474 41.0282 106.753 44.6318C108.032 48.468 104.893 52.7691 100.941 53.5828C96.9884 54.3965 92.9198 52.4203 90.1299 49.5142C87.34 46.608 85.5963 43.0044 83.7364 39.4008C83.3877 38.7033 82.9227 37.8896 82.109 37.6571C81.5277 37.5408 80.9465 37.7733 80.4815 38.0058C77.5754 39.4008 75.0179 41.6094 73.2742 44.3993C71.2981 41.8419 70.8331 41.1445 71.6468 38.1221Z" fill="#C85E38"/>
<path d="M29.2946 18.7195C29.2337 17.5171 30.1408 16.4914 31.3432 16.4305C32.5457 16.3695 33.5714 17.2766 33.6323 18.4791C33.6932 19.6815 32.7862 20.7072 31.5837 20.7681C30.3812 20.829 29.3581 19.8859 29.2946 18.7195Z" fill="#FFBD55"/>
<path d="M77.8159 15.9791C77.755 14.7766 76.7293 13.8695 75.5268 13.9305C74.3244 13.9914 73.4173 15.0171 73.4782 16.2195C73.5392 17.422 74.5648 18.3291 75.7673 18.2681C76.9698 18.2072 77.8768 17.1815 77.8159 15.9791Z" fill="#FFBD55"/>
<path d="M54.6754 8.05244C55.968 7.07542 56.2238 5.23554 55.2468 3.94296C54.2698 2.65038 52.4299 2.39457 51.1373 3.37159C49.8447 4.3486 49.5889 6.18847 50.5659 7.48105C51.5429 8.77363 53.3828 9.02946 54.6754 8.05244Z" fill="#FFBD55"/>
<path d="M75.6226 16.1212L63.8682 22.1957L52.8997 5.66838L43.8209 23.2954L31.4459 18.5425L39.6644 31.8271L39.8464 34.9261C39.8464 34.9261 54.6877 37.1287 69.1161 33.3113L68.934 30.2122L75.6226 16.1212Z" fill="#FFBD55"/>
</svg>
