<svg width="17" height="17" viewBox="0 0 17 17" fill="none" xmlns="http://www.w3.org/2000/svg">
<path opacity="0.67" d="M16.5 8.25781C16.5 10.3795 15.6571 12.4144 14.1569 13.9147C12.6566 15.415 10.6217 16.2578 8.5 16.2578C6.37827 16.2578 4.34344 15.415 2.84315 13.9147C1.34285 12.4144 0.5 10.3795 0.5 8.25781C0.5 6.13608 1.34285 4.10125 2.84315 2.60096C4.34344 1.10067 6.37827 0.257813 8.5 0.257812C10.6217 0.257813 12.6566 1.10067 14.1569 2.60096C15.6571 4.10125 16.5 6.13608 16.5 8.25781ZM5.996 6.29081H6.821C6.959 6.29081 7.069 6.17781 7.087 6.04081C7.177 5.38481 7.627 4.90681 8.429 4.90681C9.115 4.90681 9.743 5.24981 9.743 6.07481C9.743 6.70981 9.369 7.00181 8.778 7.44581C8.105 7.93481 7.572 8.50581 7.61 9.43281L7.613 9.64981C7.61405 9.71542 7.64085 9.77799 7.68762 9.82401C7.73439 9.87003 7.79738 9.89582 7.863 9.89581H8.674C8.7403 9.89581 8.80389 9.86947 8.85078 9.82259C8.89766 9.7757 8.924 9.71212 8.924 9.64581V9.54081C8.924 8.82281 9.197 8.61381 9.934 8.05481C10.543 7.59181 11.178 7.07781 11.178 5.99881C11.178 4.48781 9.902 3.75781 8.505 3.75781C7.238 3.75781 5.85 4.34781 5.755 6.04381C5.75363 6.07611 5.75888 6.10834 5.77043 6.13853C5.78198 6.16872 5.79958 6.19623 5.82216 6.21936C5.84473 6.2425 5.8718 6.26077 5.90169 6.27306C5.93159 6.28534 5.96368 6.29139 5.996 6.29081ZM8.321 12.7338C8.931 12.7338 9.35 12.3398 9.35 11.8068C9.35 11.2548 8.93 10.8668 8.321 10.8668C7.737 10.8668 7.312 11.2548 7.312 11.8068C7.312 12.3398 7.737 12.7338 8.322 12.7338H8.321Z" fill="#CCCCCC"/>
</svg>
