<svg width="16" height="17" viewBox="0 0 16 17" fill="none" xmlns="http://www.w3.org/2000/svg">
<path d="M16 8.21094C16 10.3327 15.1571 12.3675 13.6569 13.8678C12.1566 15.3681 10.1217 16.2109 8 16.2109C5.87827 16.2109 3.84344 15.3681 2.34315 13.8678C0.842855 12.3675 0 10.3327 0 8.21094C0 6.08921 0.842855 4.05437 2.34315 2.55408C3.84344 1.05379 5.87827 0.210938 8 0.210938C10.1217 0.210938 12.1566 1.05379 13.6569 2.55408C15.1571 4.05437 16 6.08921 16 8.21094ZM5.496 6.24394H6.321C6.459 6.24394 6.569 6.13094 6.587 5.99394C6.677 5.33794 7.127 4.85994 7.929 4.85994C8.615 4.85994 9.243 5.20294 9.243 6.02794C9.243 6.66294 8.869 6.95494 8.278 7.39894C7.605 7.88794 7.072 8.45894 7.11 9.38594L7.113 9.60294C7.11405 9.66855 7.14085 9.73111 7.18762 9.77713C7.23439 9.82316 7.29738 9.84895 7.363 9.84894H8.174C8.2403 9.84894 8.30389 9.8226 8.35078 9.77571C8.39766 9.72883 8.424 9.66524 8.424 9.59894V9.49394C8.424 8.77594 8.697 8.56694 9.434 8.00794C10.043 7.54494 10.678 7.03094 10.678 5.95194C10.678 4.44094 9.402 3.71094 8.005 3.71094C6.738 3.71094 5.35 4.30094 5.255 5.99694C5.25363 6.02923 5.25888 6.06146 5.27043 6.09165C5.28198 6.12184 5.29958 6.14935 5.32216 6.17249C5.34473 6.19562 5.3718 6.21389 5.40169 6.22618C5.43159 6.23847 5.46368 6.24451 5.496 6.24394ZM7.821 12.6869C8.431 12.6869 8.85 12.2929 8.85 11.7599C8.85 11.2079 8.43 10.8199 7.821 10.8199C7.237 10.8199 6.812 11.2079 6.812 11.7599C6.812 12.2929 7.237 12.6869 7.822 12.6869H7.821Z" fill="#CCCCCC"/>
</svg>
