<svg width="17" height="17" viewBox="0 0 17 17" fill="none" xmlns="http://www.w3.org/2000/svg">
<g opacity="0.9" clip-path="url(#clip0_297_74074)">
<path d="M16.4453 8.89062C16.4453 11.0124 15.6025 13.0472 14.1022 14.5475C12.6019 16.0478 10.567 16.8906 8.44531 16.8906C6.32358 16.8906 4.28875 16.0478 2.78846 14.5475C1.28817 13.0472 0.445313 11.0124 0.445312 8.89062C0.445313 6.76889 1.28817 4.73406 2.78846 3.23377C4.28875 1.73348 6.32358 0.890625 8.44531 0.890625C10.567 0.890625 12.6019 1.73348 14.1022 3.23377C15.6025 4.73406 16.4453 6.76889 16.4453 8.89062V8.89062ZM5.94131 6.92362H6.76631C6.90431 6.92362 7.01431 6.81062 7.03231 6.67362C7.12231 6.01762 7.57231 5.53963 8.37431 5.53963C9.06031 5.53963 9.68831 5.88262 9.68831 6.70762C9.68831 7.34262 9.31431 7.63463 8.72331 8.07863C8.05031 8.56763 7.51731 9.13863 7.55531 10.0656L7.55831 10.2826C7.55936 10.3482 7.58616 10.4108 7.63294 10.4568C7.67971 10.5028 7.7427 10.5286 7.80831 10.5286H8.61931C8.68562 10.5286 8.74921 10.5023 8.79609 10.4554C8.84297 10.4085 8.86931 10.3449 8.86931 10.2786V10.1736C8.86931 9.45562 9.14231 9.24662 9.87931 8.68762C10.4883 8.22462 11.1233 7.71063 11.1233 6.63163C11.1233 5.12063 9.84731 4.39062 8.45031 4.39062C7.18331 4.39062 5.79531 4.98062 5.70031 6.67662C5.69894 6.70892 5.7042 6.74115 5.71574 6.77134C5.72729 6.80153 5.74489 6.82904 5.76747 6.85217C5.79004 6.87531 5.81711 6.89358 5.847 6.90587C5.8769 6.91816 5.90899 6.9242 5.94131 6.92362V6.92362ZM8.26631 13.3666C8.87631 13.3666 9.29531 12.9726 9.29531 12.4396C9.29531 11.8876 8.87531 11.4996 8.26631 11.4996C7.68231 11.4996 7.25731 11.8876 7.25731 12.4396C7.25731 12.9726 7.68231 13.3666 8.26731 13.3666H8.26631Z" fill="#00426A"/>
</g>
<defs>
<clipPath id="clip0_297_74074">
<rect width="16" height="16" fill="white" transform="translate(0.445312 0.890625)"/>
</clipPath>
</defs>
</svg>
