<svg width="36" height="37" viewBox="0 0 36 37" fill="none" xmlns="http://www.w3.org/2000/svg">
<circle cx="18" cy="18.7266" r="18" fill="#EFFBFB"/>
<g clip-path="url(#clip0_702_21991)">
<path d="M11.1712 19.0754C11.1712 17.6732 11.1749 16.2708 11.1688 14.8688C11.1671 14.4703 11.1324 14.0721 11.1202 13.6735C11.088 12.621 11.8093 11.8485 12.9293 11.8264C15.2636 11.7804 17.5978 11.6801 19.9336 11.7598C20.1808 11.7682 20.429 11.7509 20.676 11.7618C20.8257 11.7677 20.9741 11.7922 21.1179 11.8345C21.1808 11.8528 21.2363 11.8909 21.276 11.9433C21.3157 11.9956 21.3375 12.0593 21.3383 12.125C21.3476 12.2676 21.2964 12.3941 21.1685 12.4475C21.0107 12.5125 20.8454 12.5575 20.6766 12.5815C20.5265 12.5958 20.3755 12.5961 20.2254 12.5824C18.2781 12.4987 16.3299 12.5085 14.382 12.5438C13.8561 12.556 13.3312 12.5978 12.81 12.6691C12.4837 12.712 12.1852 12.8595 12.0588 13.204C12.002 13.3426 11.9712 13.4905 11.968 13.6403C11.9829 14.2109 12.0176 14.781 12.0456 15.3513C12.0551 15.5452 12.0738 15.7389 12.0759 15.9328C12.0957 17.7016 12.1222 19.4705 12.1271 21.2395C12.1301 22.3396 12.0935 23.4396 12.0873 24.5397C12.0947 24.8301 12.1178 25.12 12.1565 25.408C12.1766 25.6026 12.2845 25.7216 12.4874 25.7421C12.5516 25.7483 12.615 25.7704 12.6788 25.7704C13.2806 25.7709 13.8825 25.7779 14.4841 25.7641C15.2478 25.7466 16.011 25.6928 16.7747 25.6875C18.6367 25.6749 20.4989 25.6764 22.3609 25.6817C22.8879 25.6832 23.4148 25.7182 23.9418 25.7354C24.1365 25.7483 24.33 25.6951 24.4906 25.5841C24.6513 25.4731 24.7699 25.311 24.8272 25.1241C24.8503 25.0535 24.8618 24.9796 24.8612 24.9053C24.8541 24.3346 24.8062 23.7619 24.8389 23.1937C24.9524 21.2214 24.9516 19.2479 24.9509 17.274C24.9509 17.0691 24.9539 16.8639 24.9658 16.6595C24.9711 16.541 24.9899 16.4235 25.0219 16.3093C25.0386 16.2459 25.0746 16.1893 25.125 16.1474C25.1754 16.1055 25.2375 16.0805 25.3027 16.0756C25.4542 16.058 25.5937 16.0968 25.6585 16.2395C25.7234 16.3746 25.7644 16.5199 25.7799 16.6691C25.8274 17.3249 25.8604 17.9818 25.8969 18.6384C26.0112 20.6993 25.8945 22.7574 25.834 24.8163C25.8233 25.0314 25.7833 25.2441 25.7153 25.4485C25.6534 25.6618 25.5424 25.8577 25.3914 26.0202C25.2403 26.1828 25.0532 26.3075 24.8453 26.3844C24.4436 26.5408 24.0158 26.6192 23.5849 26.6153C22.1968 26.6118 20.8085 26.6162 19.4204 26.6145C18.8931 26.6139 18.3656 26.5927 17.8385 26.6019C16.5907 26.6241 15.3432 26.6619 14.0955 26.6876C13.5899 26.698 13.0834 26.7097 12.5784 26.6918C11.7757 26.6633 11.2665 26.1329 11.2559 25.3187C11.2288 23.2376 11.2109 21.1566 11.1893 19.0755L11.1712 19.0754Z" fill="#00426A"/>
<path d="M16.9868 20.6844C16.9976 20.5903 17.017 20.4973 17.0447 20.4067C17.2047 19.9617 17.3654 19.5165 17.5447 19.0789C17.614 18.9209 17.7071 18.7743 17.8208 18.6445C19.6524 16.4672 21.5137 14.3166 23.5353 12.3114C23.6177 12.2264 23.7057 12.1468 23.7985 12.0732C24.0614 11.8729 24.335 11.8665 24.5983 12.0681C24.7585 12.195 24.9105 12.3321 25.0535 12.4784C25.3057 12.7286 25.5494 12.9872 25.7985 13.2402C26.0206 13.4657 25.9677 13.7495 25.7966 13.9374C25.6589 14.0886 25.5111 14.2304 25.3655 14.3741C23.6709 16.0466 21.9595 17.7027 20.2908 19.4008C19.8158 19.8951 19.2706 20.3163 18.6729 20.651C18.381 20.8115 18.0808 20.9569 17.7825 21.1056C17.7058 21.1447 17.6251 21.1757 17.5419 21.198C17.1813 21.2911 16.9751 21.1254 16.9868 20.6844ZM19.2988 19.4019L23.6927 14.8437L23.0268 13.8443C21.519 15.4711 20.0352 17.0718 18.5293 18.6966C18.7993 18.9442 19.057 19.1805 19.2985 19.4019H19.2988ZM23.5715 13.342L24.372 14.1513L24.9904 13.6009C24.7236 13.2874 24.4778 12.9987 24.2216 12.6977L23.5715 13.342ZM18.1417 19.3395C18.0607 19.5279 18.0004 19.6682 17.941 19.8066L18.1847 20.0793L18.5564 19.8622L18.1417 19.3395Z" fill="#00426A"/>
</g>
<defs>
<clipPath id="clip0_702_21991">
<rect width="15" height="15" fill="white" transform="translate(11 11.7266)"/>
</clipPath>
</defs>
</svg>
