<svg width="25" height="25" viewBox="0 0 25 25" fill="none" xmlns="http://www.w3.org/2000/svg">
<g clip-path="url(#clip0_297_76565)">
<path d="M1.73588 15.1543C1.73588 13.4295 1.74051 11.7045 1.73293 9.98004C1.73085 9.48987 1.68823 8.99999 1.67315 8.50972C1.63355 7.21509 2.52081 6.2649 3.89838 6.23776C6.76977 6.18117 9.64088 6.05774 12.514 6.15581C12.818 6.1662 13.1233 6.14488 13.4272 6.15829C13.6112 6.16559 13.7938 6.19564 13.9707 6.24776C14.0481 6.27023 14.1163 6.31712 14.1652 6.38147C14.214 6.44582 14.2408 6.52421 14.2418 6.60505C14.2532 6.78049 14.1902 6.93609 14.033 7.00167C13.8388 7.08162 13.6355 7.137 13.4278 7.16657C13.2432 7.1841 13.0575 7.18446 12.8729 7.16764C10.4776 7.06469 8.0813 7.07679 5.68536 7.12012C5.03842 7.13513 4.39283 7.18658 3.75166 7.27424C3.35037 7.32703 2.9832 7.50844 2.82772 7.93226C2.75785 8.10272 2.71998 8.28463 2.71602 8.46886C2.73428 9.17077 2.77699 9.87205 2.8114 10.5736C2.82309 10.812 2.84613 11.0502 2.84876 11.2887C2.87305 13.4645 2.90569 15.6403 2.91164 17.8162C2.91536 19.1693 2.87033 20.5224 2.86276 21.8756C2.87181 22.2328 2.90023 22.5893 2.94784 22.9436C2.97259 23.183 3.10533 23.3294 3.35492 23.3545C3.43382 23.3622 3.51186 23.3894 3.59029 23.3894C4.33052 23.39 5.07097 23.3985 5.81088 23.3816C6.75027 23.3601 7.68905 23.2939 8.62843 23.2874C10.9188 23.2719 13.2093 23.2738 15.4996 23.2802C16.1479 23.2821 16.7959 23.3252 17.4442 23.3463C17.6837 23.3622 17.9217 23.2968 18.1193 23.1602C18.317 23.0237 18.4628 22.8243 18.5333 22.5943C18.5617 22.5076 18.5759 22.4166 18.5752 22.3253C18.5663 21.6232 18.5074 20.9188 18.5477 20.2199C18.6873 17.794 18.6863 15.3665 18.6855 12.9385C18.6855 12.6865 18.6891 12.4341 18.7037 12.1826C18.7103 12.0369 18.7334 11.8923 18.7728 11.7518C18.7934 11.6739 18.8376 11.6043 18.8997 11.5528C18.9615 11.5012 19.038 11.4704 19.1182 11.4645C19.3045 11.4427 19.4761 11.4905 19.5558 11.666C19.6356 11.8322 19.6861 12.0109 19.7052 12.1944C19.7636 13.0011 19.8042 13.8091 19.8491 14.6167C19.9897 17.1517 19.8461 19.6833 19.7717 22.2158C19.7585 22.4804 19.7093 22.7421 19.6257 22.9935C19.5496 23.2558 19.4131 23.4967 19.2272 23.6966C19.0414 23.8966 18.8113 24.05 18.5555 24.1447C18.0614 24.337 17.5353 24.4334 17.0052 24.4287C15.2977 24.4243 13.5902 24.4298 11.8827 24.4276C11.2341 24.4269 10.5852 24.4008 9.93697 24.4121C8.40212 24.4395 6.86762 24.4859 5.33287 24.5176C4.71099 24.5303 4.08803 24.5447 3.46685 24.5227C2.4795 24.4877 1.85313 23.8353 1.84014 22.8337C1.8068 20.274 1.78475 17.7142 1.75814 15.1544L1.73588 15.1543Z" fill="white"/>
<path d="M9.0774 20.6034C8.11643 20.6034 7.15546 20.6059 6.19496 20.6014C5.9688 20.6045 5.74275 20.5897 5.5189 20.5572C5.27773 20.5177 5.15172 20.3744 5.15235 20.2016C5.15312 20.035 5.2918 19.8736 5.51955 19.8356C5.82139 19.78 6.1269 19.7468 6.43362 19.7363C8.28784 19.7026 10.1421 19.6766 11.9963 19.6582C12.196 19.6571 12.3952 19.6804 12.5892 19.7275C12.8333 19.7861 12.9423 19.9405 12.9352 20.1506C12.9274 20.3698 12.7789 20.5188 12.5199 20.5589C12.4405 20.5693 12.3605 20.5736 12.2804 20.5717C11.2127 20.5724 10.145 20.5727 9.07724 20.5722L9.0774 20.6034Z" fill="white"/>
<path d="M8.84778 17.2763C7.77977 17.2763 6.71177 17.278 5.64375 17.2745C5.48381 17.2754 5.32412 17.2613 5.16679 17.2324C5.03147 17.2062 4.916 17.129 4.90186 16.9712C4.88625 16.7959 4.99678 16.6977 5.14077 16.6416C5.22914 16.6117 5.32146 16.5952 5.41469 16.5925C6.11987 16.5421 6.82466 16.4709 7.53078 16.4519C9.052 16.4105 10.5738 16.395 12.0954 16.3732C12.2285 16.3713 12.3612 16.3871 12.4901 16.4201C12.7583 16.4894 12.8746 16.6382 12.8634 16.8646C12.8531 17.0736 12.7352 17.2117 12.4872 17.2643C12.3305 17.2954 12.1711 17.3105 12.0115 17.3092C10.9567 17.3129 9.90203 17.3111 8.84731 17.3111L8.84778 17.2763Z" fill="white"/>
<path d="M8.96297 14.0723C7.81387 14.0723 6.66474 14.0723 5.51558 14.0723C5.43542 14.0723 5.35447 14.0855 5.27533 14.0779C5.13712 14.0645 5.00673 14.0285 4.98368 13.8596C4.97047 13.7925 4.98281 13.7229 5.01826 13.6645C5.05372 13.6061 5.10974 13.563 5.17533 13.5437C5.38817 13.4679 5.60895 13.4165 5.83341 13.3905C7.55127 13.248 9.27524 13.1916 10.9988 13.2217C11.4532 13.229 11.9077 13.2266 12.362 13.2296C12.4556 13.2273 12.5492 13.2299 12.6424 13.2378C12.957 13.2739 13.1627 13.4643 13.152 13.7021C13.1416 13.9291 12.9474 14.0982 12.6489 14.1281C12.5289 14.1379 12.4085 14.1395 12.2883 14.133C11.5406 14.1069 10.7929 14.0743 10.0451 14.0526C9.6847 14.042 9.32376 14.0507 8.96297 14.0507V14.0723Z" fill="white"/>
<path d="M13.0885 12.1507C13.1018 12.035 13.1256 11.9206 13.1597 11.8092C13.3566 11.2618 13.5542 10.7141 13.7747 10.176C13.86 9.98154 13.9745 9.80129 14.1143 9.6416C16.3672 6.96342 18.6567 4.31809 21.1433 1.85168C21.2448 1.7471 21.353 1.64924 21.4671 1.55871C21.7904 1.31227 22.1271 1.30445 22.4508 1.55237C22.648 1.70851 22.835 1.87711 23.0108 2.05712C23.321 2.36482 23.6207 2.68288 23.9272 2.99414C24.2004 3.27144 24.1353 3.62061 23.9249 3.85164C23.7555 4.03769 23.5737 4.21211 23.3946 4.38887C21.3101 6.4461 19.2051 8.4831 17.1525 10.5719C16.5682 11.1798 15.8976 11.698 15.1624 12.1096C14.8034 12.3071 14.4341 12.4859 14.0673 12.6688C13.9728 12.717 13.8736 12.755 13.7713 12.7825C13.3277 12.897 13.0741 12.6932 13.0885 12.1507ZM15.9323 10.5732L21.337 4.96648L20.5179 3.73721C18.6632 5.73823 16.8381 7.70717 14.9858 9.70564C15.3179 10.0102 15.6349 10.3009 15.932 10.5732H15.9323ZM21.1879 3.11934L22.1725 4.11475L22.9332 3.43772C22.605 3.0522 22.3026 2.697 21.9876 2.32682L21.1879 3.11934ZM14.509 10.4965C14.4094 10.7282 14.3353 10.9008 14.2622 11.071L14.5619 11.4064L15.0192 11.1394L14.509 10.4965Z" fill="white"/>
</g>
<defs>
<clipPath id="clip0_297_76565">
<rect width="24" height="24" fill="white" transform="translate(0.894531 0.804688)"/>
</clipPath>
</defs>
</svg>
