<svg width="24" height="24" viewBox="0 0 24 24" fill="none" xmlns="http://www.w3.org/2000/svg">
<circle cx="12" cy="12" r="12" fill="#E6E6E6"/>
<path d="M12.6613 11.9898L16.3918 8.26928C16.4655 8.18342 16.504 8.07298 16.4997 7.96003C16.4953 7.84708 16.4483 7.73994 16.3682 7.66001C16.2881 7.58008 16.1806 7.53326 16.0674 7.52889C15.9541 7.52453 15.8434 7.56295 15.7573 7.63648L12.0268 11.357L8.29629 7.63199C8.21156 7.54748 8.09663 7.5 7.97679 7.5C7.85696 7.5 7.74203 7.54748 7.65729 7.63199C7.57256 7.7165 7.52495 7.83112 7.52495 7.95063C7.52495 8.07015 7.57256 8.18477 7.65729 8.26928L11.3923 11.9898L7.65729 15.7103C7.61019 15.7506 7.57193 15.8001 7.54492 15.8557C7.51791 15.9114 7.50273 15.9721 7.50034 16.0339C7.49794 16.0957 7.50838 16.1573 7.53101 16.2149C7.55363 16.2725 7.58795 16.3248 7.6318 16.3686C7.67566 16.4123 7.7281 16.4465 7.78585 16.4691C7.8436 16.4916 7.9054 16.5021 7.96737 16.4997C8.02934 16.4973 8.09015 16.4821 8.14598 16.4552C8.20181 16.4283 8.25145 16.3901 8.29179 16.3431L12.0268 12.6226L15.7573 16.3431C15.8434 16.4167 15.9541 16.4551 16.0674 16.4507C16.1806 16.4463 16.2881 16.3995 16.3682 16.3196C16.4483 16.2397 16.4953 16.1325 16.4997 16.0196C16.504 15.9066 16.4655 15.7962 16.3918 15.7103L12.6613 11.9898Z" fill="white"/>
</svg>
