<svg width="25" height="25" viewBox="0 0 25 25" fill="none" xmlns="http://www.w3.org/2000/svg">
<circle cx="12.9531" cy="12.9844" r="12" fill="#014C76"/>
<path d="M19.1406 12.4219H13.5156H12.3906H6.76562C6.61644 12.4219 6.47337 12.4811 6.36788 12.5866C6.26239 12.6921 6.20312 12.8352 6.20312 12.9844C6.20312 13.1336 6.26239 13.2766 6.36788 13.3821C6.47337 13.4876 6.61644 13.5469 6.76562 13.5469H12.3906H13.5156H19.1406C19.2898 13.5469 19.4329 13.4876 19.5384 13.3821C19.6439 13.2766 19.7031 13.1336 19.7031 12.9844C19.7031 12.8352 19.6439 12.6921 19.5384 12.5866C19.4329 12.4811 19.2898 12.4219 19.1406 12.4219Z" fill="white"/>
</svg>
