<svg width="16" height="17" viewBox="0 0 16 17" fill="none" xmlns="http://www.w3.org/2000/svg">
<g clip-path="url(#clip0_771_28766)">
<path fill-rule="evenodd" clip-rule="evenodd" d="M5.90481 0.935783C7.47808 0.508606 9.14431 0.572272 10.6804 1.11826C12.2165 1.66424 13.5491 2.66648 14.4998 3.99078V2.40578C14.4998 2.20687 14.5788 2.01611 14.7195 1.87545C14.8601 1.7348 15.0509 1.65578 15.2498 1.65578C15.4487 1.65578 15.6395 1.7348 15.7801 1.87545C15.9208 2.01611 15.9998 2.20687 15.9998 2.40578V6.65578H11.7498C11.5509 6.65578 11.3601 6.57677 11.2195 6.43611C11.0788 6.29546 10.9998 6.1047 10.9998 5.90578C10.9998 5.70687 11.0788 5.5161 11.2195 5.37545C11.3601 5.2348 11.5509 5.15578 11.7498 5.15578H13.4768C12.6935 3.93027 11.5218 3.0029 10.1491 2.52201C8.7764 2.04113 7.2821 2.03454 5.90523 2.50328C4.52836 2.97202 3.34849 3.88901 2.55437 5.10756C1.76025 6.32611 1.39777 7.77579 1.52491 9.22469C1.65206 10.6736 2.26149 12.038 3.25571 13.0996C4.24992 14.1612 5.57147 14.8587 7.00894 15.0805C8.4464 15.3022 9.91671 15.0355 11.1847 14.3229C12.4526 13.6103 13.4449 12.493 14.0028 11.1498C14.039 11.0567 14.0935 10.9717 14.163 10.8999C14.2325 10.8281 14.3156 10.771 14.4075 10.7318C14.4995 10.6926 14.5983 10.6721 14.6982 10.6716C14.7981 10.6711 14.8971 10.6906 14.9894 10.7289C15.0817 10.7673 15.1654 10.8236 15.2356 10.8947C15.3058 10.9658 15.361 11.0503 15.3982 11.143C15.4353 11.2358 15.4535 11.335 15.4517 11.4349C15.4499 11.5348 15.4282 11.6334 15.3878 11.7248C14.8666 12.9793 14.0345 14.0805 12.97 14.9244C11.9055 15.7684 10.6436 16.3274 9.30323 16.5487C7.96289 16.77 6.58827 16.6463 5.30894 16.1894C4.02962 15.7324 2.88773 14.9571 1.99092 13.9367C1.09412 12.9163 0.471931 11.6844 0.183015 10.3569C-0.105901 9.02953 -0.0520297 7.65041 0.339551 6.34957C0.731131 5.04874 1.44752 3.86905 2.42119 2.92171C3.39486 1.97436 4.59374 1.29057 5.90481 0.934783V0.935783Z" fill="#900413"/>
</g>
<defs>
<clipPath id="clip0_771_28766">
<rect width="16" height="16" fill="white" transform="translate(0 0.65625)"/>
</clipPath>
</defs>
</svg>
