<svg width="431" height="191" viewBox="0 0 431 191" fill="none" xmlns="http://www.w3.org/2000/svg">
<g clip-path="url(#clip0_297_74674)">
<path opacity="0.44" d="M386.222 126.139C386.222 126.139 415.993 132.959 425.953 141.728C435.263 149.848 435.371 168.576 377.345 169.334C359.915 169.551 372.04 180.809 324.298 188.387C287.707 194.233 238.017 186.331 199.802 183.516C161.587 180.701 79.4193 193.151 62.5311 185.573C45.6429 177.886 57.3347 169.442 53.2209 165.112C49.2154 160.565 -1.12449 162.189 0.49938 149.739C2.12325 137.29 29.0794 137.181 29.0794 137.181C82.5588 135.666 185.62 142.703 234.986 138.372C284.351 133.934 338.372 117.154 386.222 126.139Z" fill="#85E0E0"/>
<path d="M262.266 144.001C245.594 147.574 221.453 145.301 221.453 145.301C217.339 148.007 212.576 150.064 207.487 151.58C193.739 155.693 172.304 151.796 168.731 153.636C165.159 155.477 153.683 162.297 149.786 156.776C149.57 156.451 149.353 156.018 149.136 155.585L148.27 155.693C148.27 155.693 142.641 158.725 138.744 155.477C138.527 155.26 138.311 155.044 138.094 154.827L137.228 155.369C132.14 156.776 129.758 153.203 129.217 148.332C128.568 142.594 130.3 135.124 132.898 131.119C137.553 123.757 152.926 116.721 152.926 116.721C154.982 122.025 158.122 126.572 162.669 129.928C180.748 143.352 219.504 131.227 222.427 117.154C226.974 94.8525 209.761 90.7387 203.265 72.4431C198.069 58.0448 200.126 34.3364 187.135 17.1234C194.496 17.0151 218.205 15.6078 236.501 10.4114C236.934 10.3031 237.367 10.1949 237.8 9.97835C224.267 19.9381 221.344 39.3162 225.025 46.0282C230.33 55.6631 241.805 51.6576 246.244 64.9733C247.759 69.6284 249.816 85.3258 265.081 83.0524C287.273 79.6964 282.51 54.364 292.686 50.0337C302.863 45.7034 321.699 46.2447 326.246 27.1913C330.685 8.67926 318.127 2.18379 307.085 1.31773V1.20947C328.411 3.15811 348.656 11.2774 360.131 32.0629C361.863 35.2024 363.379 38.6667 364.678 42.3474C367.276 50.0337 371.065 66.2724 370.307 77.9642C364.894 100.049 344.434 107.519 340.428 113.365C335.556 120.51 342.593 122.783 342.593 122.783C342.593 122.783 321.808 128.304 318.452 138.697C315.854 147.033 323.973 146.383 327.437 145.842C323.756 146.708 313.905 149.198 310.008 153.528C306.543 154.827 303.404 155.693 300.806 156.235C278.288 160.565 261.183 158.183 261.833 146.6C261.833 145.625 262.049 144.759 262.266 144.001Z" fill="#F7CB7F"/>
<path d="M121.748 158.293C121.748 158.401 121.748 158.401 121.639 158.401C120.882 160.241 116.551 162.082 112.654 162.19C101.72 166.628 95.1161 158.726 89.9198 158.401C71.4077 157.102 60.5819 149.415 55.6021 139.672C53.5452 135.667 52.5708 131.336 52.3543 127.006C51.813 112.391 63.3966 108.602 64.1544 108.386C66.6444 115.422 74.8719 123.65 91.5436 125.707C106.483 125.382 116.768 129.388 120.773 133.826C124.887 138.373 128.027 143.786 128.676 148.333C129.217 152.663 127.485 156.452 122.181 158.509L121.748 158.293Z" fill="#F7CB7F"/>
<path d="M105.4 7.48897C122.938 0.993504 142.207 5.8651 142.207 5.8651C141.233 8.13852 156.281 26.2176 154.549 44.1884C153.141 58.8032 144.264 94.3117 153.033 116.505C153.033 116.505 137.769 123.541 133.006 130.903C130.516 134.908 128.783 142.378 129.325 148.116L128.567 148.224C127.917 143.569 124.778 138.264 120.664 133.718C116.767 129.279 106.374 125.273 91.4345 125.598C74.8711 123.541 66.6435 115.314 64.0453 108.277C63.504 106.761 63.1792 105.354 63.1792 104.055C62.6379 90.1979 70.4325 86.3006 71.8399 82.4034C74.7628 74.7171 76.1702 32.9296 89.3776 18.2065C94.0327 13.0101 99.6621 9.54587 105.4 7.48897Z" fill="#F7CB7F"/>
<path opacity="0.1" d="M120.665 133.717C124.779 138.264 127.918 143.677 128.568 148.224L129.326 148.115C128.676 142.378 130.408 134.908 133.007 130.902C134.414 128.737 136.687 126.572 139.177 124.624C128.676 129.603 122.506 130.902 115.469 129.82C117.742 131.119 119.474 132.418 120.665 133.717Z" fill="#0E0901"/>
<path d="M327.546 145.735C324.082 146.277 316.071 146.926 318.56 138.59C321.808 128.198 342.702 122.677 342.702 122.677C342.702 122.677 335.773 120.403 340.537 113.258C344.434 107.52 364.895 100.051 370.416 77.8578C371.174 66.0578 367.385 49.8191 364.787 42.241C363.487 38.452 361.972 35.096 360.24 31.9565C360.24 31.9565 405.708 66.2743 390.877 118.455C383.623 143.787 366.302 158.293 352.337 157.969C346.058 157.86 346.924 153.747 346.924 153.747C328.304 167.604 310.658 163.923 308.926 159.051C308.168 156.886 308.817 155.046 310.225 153.422C314.014 149.091 323.757 146.602 327.546 145.735Z" fill="#8E4324"/>
<path d="M307.085 1.2103C318.128 2.07636 330.685 8.57183 326.247 27.0839C321.7 46.1373 302.863 45.596 292.687 49.9263C282.511 54.2566 287.166 79.5889 265.081 82.9449C249.925 85.2184 247.868 69.521 246.244 64.8659C241.806 51.5502 230.331 55.5557 225.026 45.9208C221.345 39.317 224.268 19.9389 237.8 9.87092C252.199 5.75712 280.346 -1.38789 306.977 1.10204L307.085 1.2103Z" fill="#8E4324"/>
<path d="M73.6802 12.0368C84.6142 -0.196342 104.75 7.16519 105.4 7.48996C99.6621 9.65512 94.1409 13.0111 89.4858 18.2075C76.3866 32.9305 74.871 74.7181 71.9481 82.4044C70.4325 86.3016 62.7462 90.1989 63.2874 104.056C63.2874 105.355 63.6122 106.762 64.1535 108.278C63.3957 108.494 51.9204 112.392 52.3534 126.898C52.5699 131.229 53.5442 135.559 55.6011 139.564L54.7351 139.998C45.2084 143.029 25.8302 136.1 21.7164 118.238C17.6027 100.375 36.9808 92.9054 50.08 74.1768C63.1792 55.4482 62.5296 24.4864 73.6802 12.0368Z" fill="#8E4324"/>
<path d="M203.266 72.336C209.761 90.6316 226.974 94.7453 222.427 117.046C219.504 131.12 180.748 143.245 162.669 129.821C158.231 126.465 155.091 121.918 152.926 116.613C144.157 94.4206 153.034 58.8038 154.441 44.2972C156.174 26.2182 141.126 8.1391 142.1 5.97394C143.399 3.26749 159.097 -2.47017 172.629 4.89136C178.799 8.24735 183.455 12.4694 187.027 17.1245C200.126 34.121 198.069 57.9377 203.266 72.336Z" fill="#8E4324"/>
<path d="M72.3826 82.5115C71.8414 83.8106 70.9753 84.8932 70.2175 85.8675C69.4597 86.8418 68.5936 87.9244 67.9441 89.007C66.5367 91.0639 65.4541 93.4455 64.9129 95.8272C64.3716 98.3171 64.0468 100.807 64.155 103.297C64.155 105.787 64.9128 108.169 66.1037 110.334C68.4854 114.772 72.5992 118.128 77.0377 120.51C81.5846 122.892 86.5644 124.299 91.6525 125.057C91.869 125.057 91.9773 125.273 91.9773 125.49C91.9773 125.706 91.7608 125.815 91.5443 125.815C86.3479 125.273 81.1515 124.082 76.3882 121.701C71.6248 119.319 67.4028 115.747 64.6963 111.092C63.3972 108.71 62.5312 106.003 62.6394 103.297C62.5312 100.699 62.856 97.9924 63.6138 95.3942C64.3716 92.796 65.5624 90.4143 67.078 88.2492C67.8358 87.1666 68.7019 86.1923 69.5679 85.2179C70.434 84.2436 71.3001 83.2693 71.7331 82.1867C71.8414 81.9702 72.0579 81.8619 72.2744 81.9702C72.3826 82.0785 72.3826 82.295 72.3826 82.5115Z" fill="#D88664"/>
<path d="M121.964 158.074C124.346 157.1 126.511 155.476 127.485 153.203C128.46 150.929 128.135 148.223 127.377 145.841C126.511 143.459 125.32 141.078 123.913 138.913C123.155 137.83 122.397 136.747 121.531 135.773C121.098 135.232 120.665 134.799 120.232 134.257C119.799 133.824 119.366 133.391 118.825 132.958C116.876 131.334 114.494 130.144 112.113 129.278C109.731 128.303 107.133 127.762 104.535 127.221C99.3383 126.246 94.142 125.922 88.8373 126.03C88.6208 126.03 88.4043 125.813 88.4043 125.597C88.4043 125.38 88.5126 125.272 88.7291 125.164C91.4355 124.947 94.0337 124.839 96.7402 124.947C99.4466 125.056 102.045 125.272 104.751 125.705C107.458 126.138 110.056 126.788 112.546 127.762C115.036 128.736 117.634 129.927 119.799 131.659C120.34 132.092 120.882 132.634 121.315 133.067C121.748 133.608 122.181 134.041 122.614 134.582C123.48 135.665 124.238 136.747 124.995 137.83C126.511 140.103 127.81 142.485 128.568 145.191C129.001 146.491 129.217 147.898 129.217 149.305C129.217 150.713 129.001 152.12 128.46 153.419C127.269 156.017 124.671 157.749 122.181 158.615C121.964 158.724 121.748 158.615 121.639 158.399C121.639 158.399 121.748 158.182 121.964 158.074Z" fill="#D88664"/>
<path d="M64.1565 108.707H64.2647H64.1565C61.9913 109.573 59.9344 110.981 58.2023 112.604C56.4702 114.337 55.1711 116.393 54.305 118.667C54.0885 119.208 53.872 119.749 53.7637 120.399L53.3307 122.131C53.2225 123.322 53.0059 124.513 53.0059 125.704C52.8977 128.085 53.3307 130.575 53.872 132.957C55.0628 137.612 57.3362 142.051 60.584 145.623C62.2078 147.355 64.0482 148.979 66.1051 150.386C68.162 151.685 70.3272 152.876 72.4923 153.851C77.0392 155.691 81.8025 156.882 86.6741 157.423C87.9732 157.531 89.0558 157.64 90.3549 157.748C91.7622 157.964 92.9531 158.506 94.0356 159.047C96.3091 160.13 98.4742 161.32 100.748 162.078C103.021 162.836 105.403 163.161 107.784 162.836C108.434 162.836 108.975 162.62 109.516 162.511C110.058 162.403 110.707 162.187 111.249 161.97L112.115 161.645C112.223 161.645 112.223 161.645 112.223 161.645C112.223 161.645 112.331 161.537 112.331 161.429C112.548 160.996 112.656 160.454 112.764 159.805C112.981 157.531 112.548 155.041 111.357 152.985C110.816 152.01 109.95 151.036 108.975 150.386C108.001 149.737 106.918 149.304 105.727 149.196C105.511 149.196 105.403 148.979 105.403 148.763C105.403 148.546 105.619 148.438 105.836 148.438C107.135 148.546 108.434 148.979 109.516 149.737C110.599 150.495 111.573 151.469 112.223 152.552C113.63 154.825 114.172 157.423 113.955 160.021C113.847 160.671 113.739 161.32 113.414 162.078C113.306 162.295 113.197 162.403 113.089 162.62C112.981 162.836 112.548 163.053 112.439 163.053L111.573 163.377C110.924 163.594 110.383 163.81 109.733 163.919C109.083 164.027 108.434 164.243 107.784 164.243C105.186 164.568 102.588 164.243 100.098 163.486C97.6081 162.728 95.443 161.537 93.1696 160.454C92.087 159.913 91.0044 159.48 89.8136 159.372C88.6227 159.264 87.3237 159.155 86.1328 159.047C81.153 158.506 76.1731 157.315 71.518 155.366C69.2446 154.392 66.9712 153.201 64.806 151.686C62.7491 150.278 60.8005 148.546 59.0684 146.706C57.3362 144.865 55.9289 142.7 54.7381 140.427C53.5472 138.153 52.6812 135.772 52.1399 133.282C51.5986 130.792 51.2738 128.302 51.3821 125.704C51.3821 124.405 51.5986 123.214 51.7068 121.915L52.1399 120.074C52.2481 119.425 52.5729 118.883 52.7894 118.234C53.7637 115.852 55.2793 113.687 57.1197 111.955C58.9601 110.223 61.2335 108.815 63.6152 108.058C63.7235 108.058 63.7235 108.058 63.8317 108.058C64.0482 108.058 64.2647 108.274 64.2647 108.491C64.2647 108.707 64.373 108.707 64.1565 108.707Z" fill="#D88664"/>
<path d="M115.796 143.352C117.095 144.11 118.286 144.976 119.261 146.058C120.343 147.141 121.209 148.332 121.859 149.631C122.508 150.93 122.941 152.446 123.05 153.961C123.158 155.477 122.725 156.993 122.292 158.4V158.292C122.075 158.941 121.75 159.266 121.426 159.699C121.101 160.024 120.668 160.349 120.343 160.565C119.585 160.998 118.719 161.431 117.853 161.648C116.121 162.189 114.389 162.514 112.657 162.405C112.44 162.405 112.332 162.297 112.332 162.081C112.332 161.972 112.44 161.756 112.657 161.756C114.281 161.648 116.013 161.215 117.528 160.673C118.286 160.349 119.044 160.024 119.694 159.591C120.018 159.374 120.343 159.158 120.56 158.833C120.884 158.616 120.993 158.183 121.101 158.075V157.967C121.534 156.668 121.859 155.369 121.75 153.961C121.642 152.662 121.426 151.255 120.776 150.064C119.585 147.574 117.637 145.409 115.363 143.785C115.255 143.677 115.147 143.46 115.255 143.352C115.472 143.352 115.688 143.352 115.796 143.352Z" fill="#D88664"/>
<path d="M153.144 116.937C151.087 118.019 149.138 119.102 147.19 120.293C145.241 121.483 143.292 122.674 141.452 124.082C137.771 126.788 134.199 129.711 132.466 133.825C130.734 137.939 129.868 142.485 129.977 147.032C130.085 149.197 130.41 151.579 131.6 153.311C132.142 154.177 133.008 154.827 133.982 155.043C134.956 155.368 136.147 155.26 137.23 154.935C137.446 154.935 137.663 155.043 137.663 155.26C137.663 155.476 137.555 155.693 137.446 155.693C136.364 156.018 135.065 156.234 133.766 156.018C132.466 155.801 131.384 154.935 130.626 153.961C129.11 151.904 128.677 149.414 128.569 147.032C128.461 144.651 128.677 142.269 129.002 139.996C129.435 137.722 130.085 135.34 130.951 133.175C131.817 131.01 133.441 128.953 135.065 127.329C136.797 125.706 138.637 124.19 140.586 122.891C144.483 120.293 148.597 118.127 152.819 116.287C153.035 116.179 153.252 116.287 153.36 116.504C153.36 116.612 153.36 116.828 153.144 116.937Z" fill="#D88664"/>
<path d="M144.049 137.181C143.183 137.938 142.426 139.021 141.776 140.104C141.126 141.186 140.585 142.269 140.044 143.46C139.07 145.733 138.312 148.223 138.095 150.605C137.987 151.795 137.987 153.094 138.528 154.069C138.745 154.61 139.07 154.935 139.503 155.26C139.719 155.476 139.936 155.584 140.26 155.693C140.477 155.801 140.802 155.909 141.018 156.017C142.101 156.45 143.4 156.45 144.591 156.342C145.782 156.234 147.081 155.909 148.163 155.368C148.271 155.26 148.488 155.368 148.596 155.584C148.705 155.693 148.596 155.909 148.488 156.017C147.297 156.667 146.106 157.1 144.807 157.317C143.508 157.533 142.101 157.533 140.802 157.208C140.477 157.1 140.152 156.992 139.827 156.883C139.503 156.775 139.178 156.559 138.961 156.342C138.42 156.017 137.77 155.368 137.554 154.718C136.904 153.419 136.904 152.012 137.013 150.605C137.337 147.898 138.095 145.408 139.286 143.135C139.827 141.944 140.477 140.861 141.235 139.779C141.993 138.696 142.859 137.614 143.941 136.856C144.049 136.748 144.266 136.748 144.374 136.964C144.266 136.964 144.266 137.072 144.049 137.181Z" fill="#D88664"/>
<path d="M155.309 140.537C153.577 142.811 151.953 145.192 150.871 147.79C150.329 149.09 149.788 150.389 149.572 151.796C149.355 153.095 149.463 154.502 149.896 155.693C150.438 156.884 151.412 157.75 152.711 158.075C153.902 158.4 155.309 158.291 156.717 158.075C159.423 157.534 162.021 156.343 164.619 155.152C165.919 154.502 167.109 153.853 168.408 153.095C169.275 152.662 170.032 152.554 170.79 152.554C171.548 152.446 172.306 152.446 172.955 152.446C175.878 152.446 178.693 152.554 181.616 152.662C187.354 152.879 193.091 152.987 198.721 152.446C201.535 152.121 204.35 151.688 207.057 150.93C209.763 150.172 212.469 149.198 215.068 148.007C220.264 145.734 225.027 142.378 228.275 137.831C229.899 135.557 231.198 133.067 231.956 130.361C232.714 127.654 233.147 124.84 233.147 122.025C233.255 116.396 232.172 110.658 230.548 105.137C230.44 104.92 230.657 104.704 230.765 104.704C230.981 104.596 231.198 104.812 231.198 104.92C232.93 110.441 234.121 116.179 234.229 122.025C234.229 124.948 233.904 127.871 233.038 130.686C232.172 133.5 230.981 136.207 229.249 138.589C225.785 143.46 220.805 146.924 215.501 149.306C212.794 150.497 210.088 151.471 207.273 152.337C204.458 153.203 201.535 153.636 198.612 153.961C192.766 154.502 187.029 154.394 181.291 154.178C178.368 154.069 175.553 153.853 172.739 153.961C171.981 153.961 171.331 153.961 170.682 154.069C170.032 154.178 169.383 154.178 168.842 154.502C167.542 155.152 166.352 155.91 164.944 156.451C162.346 157.75 159.64 158.833 156.717 159.482C155.201 159.699 153.685 159.807 152.17 159.374C151.412 159.157 150.654 158.724 150.005 158.183C149.355 157.642 148.922 156.992 148.597 156.235C148.056 154.719 147.948 153.095 148.273 151.688C148.489 150.172 149.139 148.873 149.68 147.466C150.979 144.867 152.603 142.378 154.443 140.212C154.551 139.996 154.876 139.996 154.985 140.212C155.418 140.104 155.526 140.429 155.309 140.537Z" fill="#D88664"/>
<path d="M310.226 153.744C306.761 155.043 303.189 156.126 299.508 156.775C295.936 157.533 292.255 158.075 288.574 158.399C284.893 158.724 281.212 158.832 277.423 158.508C273.743 158.183 269.954 157.533 266.489 155.693C264.866 154.719 263.242 153.419 262.267 151.687C261.293 149.955 260.968 147.898 261.077 145.95C261.185 144.001 261.943 142.052 263.133 140.429C264.324 138.805 265.84 137.614 267.464 136.639C270.711 134.691 274.284 133.5 277.207 131.551C278.614 130.577 279.913 129.386 280.455 127.871C280.671 127.113 280.779 126.247 280.779 125.381C280.888 124.515 280.888 123.54 280.888 122.674C280.996 115.313 280.996 107.951 281.754 100.59C282.512 93.2281 283.919 85.8666 286.625 78.9381C289.224 72.0096 293.554 65.5141 299.508 60.9673C302.539 58.6939 305.895 57.07 309.468 55.8792L312.174 55.0131L314.881 54.4718C315.314 54.3636 315.747 54.2553 316.288 54.2553L317.695 54.147L320.51 53.8223C320.727 53.8223 320.943 53.9305 320.943 54.147C320.943 54.3636 320.835 54.5801 320.618 54.5801L317.912 54.9048L316.505 55.1214C316.071 55.2296 315.638 55.3379 315.205 55.4461L312.499 56.0957L309.901 56.9617C306.545 58.2608 303.189 59.8847 300.374 62.1581C294.636 66.5967 290.523 72.8756 288.033 79.6959C285.435 86.5161 284.135 93.7694 283.378 101.023C282.62 108.276 282.728 115.637 282.62 122.999C282.62 123.973 282.62 124.839 282.512 125.814C282.403 126.788 282.403 127.762 282.079 128.737C281.429 130.794 279.805 132.201 278.181 133.283C274.934 135.34 271.361 136.423 268.33 138.263C266.814 139.129 265.407 140.212 264.324 141.619C263.35 143.027 262.7 144.651 262.592 146.383C262.484 148.115 262.7 149.847 263.566 151.363C264.433 152.878 265.732 153.961 267.247 154.827C270.387 156.559 273.959 157.208 277.532 157.533C281.104 157.858 284.785 157.75 288.466 157.425C292.147 157.1 295.719 156.667 299.4 156.018C302.972 155.476 306.545 154.394 310.009 153.203C310.226 153.095 310.442 153.203 310.55 153.419C310.442 153.419 310.442 153.636 310.226 153.744Z" fill="#D88664"/>
<path d="M112.329 72.0099C112.545 74.0668 113.087 76.232 114.169 77.8559C114.71 78.6137 115.36 79.2632 116.226 79.6963C116.659 79.9128 117.092 80.021 117.525 80.1293C117.958 80.1293 118.499 80.2375 118.932 80.2375C120.881 80.2375 122.397 79.2632 123.371 77.5311C124.345 75.799 124.887 73.6338 125.103 71.5769C125.103 71.2521 125.428 71.0356 125.644 71.1439C125.861 71.1439 126.077 71.3604 126.077 71.5769C126.294 73.8503 126.077 76.232 124.995 78.5054C124.454 79.588 123.696 80.6706 122.613 81.4284C122.397 81.6449 122.072 81.7531 121.747 81.8614C121.422 81.9697 121.098 82.1862 120.881 82.1862L119.907 82.4027H118.932C118.283 82.511 117.633 82.2944 117.092 82.2944C116.443 82.0779 115.793 81.9697 115.252 81.6449C114.061 80.9953 113.087 80.021 112.545 78.9385C111.354 76.7733 111.03 74.3916 111.246 72.0099C111.246 71.6852 111.571 71.4687 111.787 71.5769C112.112 71.5769 112.329 71.6852 112.329 72.0099Z" fill="#3D1D0F"/>
<path d="M76.2787 73.2004C76.4952 75.0408 76.9282 76.7729 77.7943 78.2885C78.6604 79.6958 79.9595 80.5619 81.4751 80.4536C82.9907 80.4536 84.1815 79.5876 84.9393 77.9637C85.6971 76.4481 86.1302 74.6077 86.3467 72.7673C86.3467 72.4426 86.6714 72.2261 86.888 72.3343C87.1045 72.3343 87.321 72.5508 87.321 72.7673C87.5375 74.716 87.4292 76.7729 86.6714 78.7215C86.3467 79.6958 85.6971 80.6702 84.7228 81.428C83.8567 82.1858 82.5576 82.6188 81.4751 82.5105C80.9338 82.6188 80.3925 82.4023 79.7429 82.294C79.2017 82.0775 78.6604 81.9693 78.1191 81.5362C77.1448 80.8867 76.3869 80.0206 75.9539 79.0463C75.0879 77.0977 74.8713 75.0408 75.0879 73.0921C75.0879 72.7673 75.4126 72.5508 75.6291 72.6591C76.0622 72.7673 76.2787 72.9839 76.2787 73.2004Z" fill="#3D1D0F"/>
<path d="M96.4157 96.3696C96.1992 99.9421 91.5441 102.649 86.0229 102.216C80.5018 101.891 76.2797 98.6431 76.4962 94.9623C76.7128 91.3898 81.3679 88.6833 86.889 89.1164C92.4102 89.5494 96.6322 92.7971 96.4157 96.3696Z" fill="#3D1D0F"/>
<path d="M107.241 12.2512C103.993 12.2512 100.746 13.442 98.2558 15.4989C95.7659 17.5558 94.0337 20.4788 93.4924 23.6182C93.1677 25.1339 93.1677 26.7577 93.4924 28.2733C93.9255 29.6807 94.6833 30.8715 96.0906 31.1963C97.3897 31.6293 99.1218 31.5211 100.529 31.088C102.045 30.655 103.344 29.8972 104.535 28.8146C105.076 28.2733 105.617 27.732 105.942 27.0825C106.159 26.7577 106.267 26.4329 106.483 26.1082L106.7 25.5669C106.808 25.3504 106.808 25.2421 106.808 25.4586C106.808 25.5669 106.916 25.7834 107.025 25.8917C107.133 25.9999 107.349 25.9999 107.349 25.9999C107.458 25.9999 107.241 25.9999 107.025 25.9999C106.7 25.9999 106.375 26.1082 106.05 26.2164C105.401 26.4329 104.86 26.866 104.318 27.4073C103.344 28.4898 102.803 29.8972 102.911 31.3045C103.019 32.7119 103.777 34.1192 104.86 35.0936C107.025 37.2587 110.489 37.367 113.195 36.0679C116.01 34.6605 117.85 31.7376 118.5 28.7064C118.608 28.2733 119.041 28.0568 119.474 28.0568C119.799 28.1651 120.124 28.4898 120.124 28.8146C120.124 29.7889 120.232 30.655 120.34 31.4128C120.557 32.2789 120.882 32.9284 121.423 33.4697C121.964 34.011 122.722 34.2275 123.372 34.1193C124.021 33.9027 124.671 33.2532 124.562 32.7119C124.562 32.3871 124.779 32.1706 124.995 32.1706C125.32 32.1706 125.537 32.3871 125.537 32.6036C125.645 33.2532 125.428 33.7945 124.995 34.3358C124.671 34.7688 124.129 35.0936 123.588 35.3101C122.397 35.7431 121.206 35.3101 120.34 34.5523C119.474 33.7945 118.933 32.8202 118.717 31.8458C118.392 30.8715 118.392 29.8972 118.283 28.9229L119.799 29.0311C119.15 32.4954 117.093 35.9596 113.737 37.8C112.113 38.6661 110.164 39.0991 108.324 38.9909C106.375 38.8826 104.535 38.0165 103.127 36.7174C101.72 35.4183 100.746 33.578 100.529 31.6293C100.313 29.5724 101.07 27.6238 102.37 26.1082C103.019 25.3504 103.885 24.8091 104.751 24.376C105.184 24.1595 105.726 24.0513 106.267 23.943C106.483 23.943 106.7 23.8348 107.241 23.943C107.458 23.943 107.782 24.0513 108.107 24.376C108.432 24.5926 108.54 25.0256 108.54 25.3504C108.54 25.8917 108.432 26.2164 108.324 26.4329L107.999 27.0825C107.782 27.5155 107.566 27.9486 107.349 28.2733C106.808 29.0311 106.267 29.7889 105.509 30.4385C102.803 32.9284 98.7971 34.2275 95.0081 33.1449C94.0337 32.8202 93.1677 32.1706 92.5181 31.4128C91.8686 30.655 91.4355 29.6807 91.219 28.7064C90.786 26.866 90.8943 24.9173 91.3273 23.1852C92.0851 19.6127 94.142 16.365 96.9567 14.1998C99.7714 12.0347 103.344 10.8438 106.916 11.0603C107.241 11.0603 107.458 11.2769 107.458 11.6016C107.674 12.0347 107.458 12.2512 107.241 12.2512Z" fill="#D88664"/>
<path d="M83.5293 118.886C83.9623 115.964 85.1532 113.365 87.1018 111.092C88.9422 108.819 91.5404 107.086 94.2468 106.112C97.0615 105.138 99.9845 104.921 102.907 105.354C105.722 105.896 108.429 106.978 110.702 108.71C110.919 108.927 111.027 109.252 110.81 109.468C110.702 109.685 110.377 109.685 110.161 109.576C107.887 108.385 105.181 107.519 102.691 107.195C100.093 106.87 97.4946 107.195 95.0046 108.061C94.3551 108.277 93.8138 108.602 93.1642 108.819C92.623 109.143 91.9734 109.36 91.5404 109.793C90.4578 110.442 89.4835 111.308 88.6174 112.283C86.8853 114.123 85.4779 116.505 84.6119 118.995C84.5036 119.211 84.2871 119.428 83.9623 119.32C83.6376 119.32 83.5293 119.103 83.5293 118.886Z" fill="#3D1D0F"/>
<path d="M274.067 142.486C273.309 143.568 272.551 144.651 271.793 145.733C271.144 146.816 270.386 148.007 269.953 149.198C269.412 150.389 269.087 151.579 268.979 152.77C268.87 153.961 269.195 155.152 269.845 156.234C269.953 156.451 269.953 156.668 269.737 156.776C269.628 156.884 269.412 156.884 269.304 156.776C268.221 155.801 267.571 154.286 267.571 152.77C267.463 151.255 267.896 149.847 268.437 148.548C269.628 145.95 271.36 143.785 273.526 141.944C273.742 141.836 273.959 141.836 274.067 141.944C274.175 142.053 274.175 142.269 274.067 142.486Z" fill="#D88664"/>
<path d="M284.243 143.243C283.918 143.785 283.594 144.434 283.269 144.975C282.944 145.517 282.728 146.166 282.511 146.816C282.078 148.007 281.753 149.306 281.537 150.497C281.32 151.796 281.429 152.986 281.645 154.286C281.862 155.585 282.403 156.667 282.944 157.966C283.052 158.183 282.944 158.399 282.728 158.508C282.511 158.616 282.403 158.508 282.295 158.399C281.429 157.317 280.562 156.126 280.238 154.719C279.805 153.311 279.696 151.796 279.805 150.388C280.021 148.981 280.346 147.574 280.996 146.274C281.645 144.975 282.403 143.785 283.377 142.81C283.485 142.702 283.81 142.702 283.918 142.81C284.351 142.918 284.352 143.027 284.243 143.243Z" fill="#D88664"/>
<path d="M85.1564 58.4801C84.2904 57.2892 82.6665 57.5058 81.5839 58.1553C81.0426 58.4801 80.6096 58.9131 80.0683 59.3461C79.6353 59.7792 79.094 60.104 78.661 60.537C77.6866 61.2948 76.4958 62.0526 76.171 63.3517C75.9545 64.2177 76.171 65.0838 76.8206 65.6251C77.4701 66.2746 78.3362 66.3829 79.2023 66.1664C79.6353 66.0581 80.1766 65.8416 80.6096 65.5168C80.7179 65.5168 80.7179 65.5168 80.8261 65.4086C81.8004 64.9756 82.6665 64.4343 83.4243 63.7847C84.1821 63.1352 84.8317 62.3774 85.2647 61.5113C85.5895 60.6452 85.806 59.3461 85.1564 58.4801Z" fill="#8E4324"/>
<path d="M127.269 61.2932C126.836 60.6437 126.187 60.3189 125.537 59.9941C124.563 59.5611 123.589 59.2363 122.506 58.9116C122.181 58.8033 121.857 58.695 121.424 58.5868C121.099 58.3703 120.666 58.1537 120.341 57.9372C119.258 57.3959 117.851 57.0712 116.768 57.7207C115.578 58.4785 115.253 59.9941 115.578 61.2932C116.335 63.6749 118.825 64.541 120.99 65.0822C121.965 65.2988 122.939 65.5153 124.022 65.407C125.213 65.2988 126.728 64.8657 127.378 63.6749C127.702 63.0253 127.702 62.051 127.269 61.2932Z" fill="#8E4324"/>
<path opacity="0.24" d="M216.582 110.766C212.793 112.173 208.895 110.766 205.648 108.384C205.539 101.348 203.158 94.3108 198.936 88.7897C197.745 87.1658 196.337 85.6502 194.822 84.2429C194.281 83.7016 193.414 83.8098 192.981 84.4594C191.033 87.8154 192.548 91.8209 193.739 95.2852C195.038 98.7494 196.554 101.997 198.719 104.92C199.91 106.544 201.534 108.276 203.374 109.792C203.374 112.173 203.049 114.555 202.183 116.72C200.776 120.509 197.312 122.566 193.523 120.726C192.548 120.184 191.574 119.535 190.708 118.777C191.358 116.504 191.574 114.014 191.682 111.74C192.115 103.404 189.625 94.8521 184.754 87.9236C183.346 85.8667 178.8 79.3713 176.31 83.8098C174.253 87.7071 174.469 92.9035 175.335 97.1255C176.31 101.781 178.367 106.219 180.748 110.333C182.697 113.689 185.079 117.153 188.002 119.86C187.46 121.267 186.811 122.566 185.728 123.649C182.372 127.005 177.609 124.19 174.794 121.592C168.515 115.962 165.484 107.518 164.185 99.2907C162.777 90.3053 163.427 81.1034 164.293 72.118C165.809 55.6628 167.974 36.3929 157.689 21.9946C156.607 20.479 155.416 19.0717 154.117 17.7726C153.9 17.5561 153.576 17.8808 153.792 18.0973C166.891 34.2278 163.535 56.2041 161.911 75.3657C161.045 85.3254 160.721 95.6099 163.319 105.353C164.51 109.792 166.35 114.122 168.948 118.019C171.33 121.484 174.578 125.056 178.583 126.68C182.48 128.304 186.486 127.113 188.759 123.54C189.192 122.891 189.517 122.133 189.842 121.375C192.981 123.757 197.312 125.056 200.776 122.458C203.915 120.184 204.89 116.179 205.323 112.606C205.323 112.173 205.431 111.849 205.431 111.416C209.112 113.797 213.442 114.988 217.123 112.39C217.881 111.74 217.448 110.333 216.582 110.766ZM184.754 111.632C182.372 108.06 180.207 104.162 178.8 100.049C177.501 96.043 176.743 91.6044 177.717 87.4906C177.825 86.9493 178.042 85.0007 178.583 84.6759C179.233 84.3511 180.424 86.0832 180.857 86.5163C182.156 87.9236 183.238 89.5475 184.321 91.1714C188.326 97.6668 190.167 105.57 189.517 113.148C189.409 114.339 189.192 115.638 188.976 116.937C187.352 115.313 185.945 113.364 184.754 111.632ZM200.451 103.08C198.611 100.59 197.203 97.7751 196.121 94.8521C195.255 92.5787 193.956 89.5475 194.389 86.9493C199.26 92.0374 202.4 98.7494 203.158 105.786C203.158 105.894 203.158 106.111 203.158 106.327C202.183 105.245 201.209 104.162 200.451 103.08Z" fill="#E5AF99"/>
<path opacity="0.24" d="M73.4652 33.1465C73.1404 38.0181 71.0835 42.7814 69.6762 47.3283C68.3771 51.6586 66.9697 56.0972 65.3459 60.3192C61.9899 69.1964 57.3348 77.2074 50.9476 84.2442C47.8081 87.7084 44.4521 90.9562 41.2044 94.2039C38.0649 97.3434 34.7089 100.591 32.219 104.38C30.0538 107.844 28.43 112.066 29.5126 116.18C30.1621 118.887 32.219 119.969 34.4924 119.969C34.2759 121.485 34.3842 123 34.8172 124.408C35.7915 127.764 39.2558 130.903 42.9365 129.821C43.9108 129.496 43.6943 128.089 42.72 128.089C38.931 127.98 36.6576 124.841 36.6576 121.268C36.6576 120.727 36.7658 120.078 36.7658 119.536C36.9823 119.428 37.3071 119.32 37.5236 119.32C41.5292 117.804 45.2099 114.448 48.0246 111.309C51.0559 107.953 53.3293 104.055 55.0614 99.7251C55.3862 98.9672 54.5201 98.2094 53.7623 98.426C46.6173 100.591 40.3383 105.679 36.8741 112.391C36.008 114.015 35.2502 115.964 34.7089 117.912C34.2759 117.912 33.7346 117.912 33.3016 117.804C31.1364 117.263 31.0282 114.448 31.1364 112.608C31.3529 108.386 34.0594 104.705 36.6576 101.674C42.287 95.1782 48.999 89.5488 54.4118 82.9451C59.8247 76.4496 63.6138 68.9798 66.5367 61.077C68.1606 56.6384 69.4597 52.0916 70.6505 47.5448C71.8414 42.8897 73.4652 38.0181 73.357 33.2548C73.79 32.93 73.4652 32.93 73.4652 33.1465ZM40.1218 111.633C43.0448 106.978 47.3751 103.298 52.3549 101.241C49.432 107.52 44.6686 113.149 38.7145 116.613C38.3897 116.83 37.9567 117.046 37.5236 117.263C38.1732 115.206 39.0392 113.366 40.1218 111.633Z" fill="#E5AF99"/>
<path opacity="0.24" d="M353.961 115.854C355.151 114.447 356.775 113.256 358.183 111.957C363.92 106.76 369.225 100.806 372.906 93.8778C374.963 89.9805 376.586 85.8667 377.561 81.6447C377.561 81.5364 377.453 81.5364 377.453 81.6447C374.638 90.6301 369.117 98.4246 362.729 105.245C361.214 106.869 359.59 108.493 357.858 110.008C356.234 111.524 354.394 112.823 352.878 114.447C351.579 115.854 350.713 117.695 350.929 119.643C350.929 119.968 351.038 120.184 351.146 120.401C347.573 122.458 344.001 124.515 340.645 126.788C337.397 128.953 334.258 131.66 332.634 135.341C331.876 137.073 331.226 139.238 332.634 140.753C332.85 140.97 333.067 141.186 333.392 141.403C332.309 142.486 331.335 143.893 331.226 145.409C331.01 147.465 332.093 149.631 334.149 150.28C335.016 150.497 335.557 149.198 334.799 148.873C332.742 148.007 332.634 145.517 333.716 143.785C334.041 143.243 334.474 142.702 335.015 142.269C335.99 142.702 336.964 142.919 337.938 143.027C342.594 143.785 347.249 142.486 350.821 139.454C351.362 139.021 351.038 138.155 350.388 138.047C345.408 136.315 339.671 136.856 335.34 139.887C335.232 139.996 335.124 139.996 335.015 140.104C334.366 139.779 333.933 139.238 333.933 138.372C333.933 137.289 334.474 135.99 335.015 135.016C335.99 133.284 337.289 131.768 338.805 130.469C342.377 127.438 346.707 125.164 350.713 122.783C351.146 122.458 351.687 122.241 352.12 121.917C352.662 122.566 353.528 122.891 354.394 123.107C358.832 123.865 363.379 120.184 365.869 116.828C366.085 116.504 365.977 116.071 365.652 115.854C361.43 113.797 356.992 117.045 353.419 119.102C353.203 119.21 352.986 119.318 352.662 119.535C352.445 118.344 353.095 116.72 353.961 115.854ZM348.115 139.346C344.867 141.403 340.645 142.053 336.856 140.97C337.289 140.753 337.722 140.537 338.047 140.32C341.186 138.805 344.759 138.588 348.115 139.346ZM364.029 116.828C362.946 118.236 361.539 119.318 360.023 120.184C358.399 121.051 356.018 122.025 354.177 121.375C353.961 121.267 353.744 121.159 353.528 121.051C354.827 120.293 356.018 119.535 357.317 118.777C359.265 117.586 361.647 116.287 364.029 116.828Z" fill="#E9D2C8"/>
<path opacity="0.24" d="M240.83 19.073C240.614 18.8565 240.397 18.7482 240.073 18.6399C239.748 18.5317 239.098 18.5317 238.773 18.8565C238.557 19.073 238.232 19.2895 237.907 19.506C237.691 19.7225 237.583 19.8308 237.474 20.0473C237.041 20.4803 236.717 21.0216 236.392 21.4546C236.175 21.7794 235.959 22.2124 235.742 22.6455C235.634 22.862 235.526 23.0785 235.417 23.295C235.201 23.8363 234.876 24.3776 234.984 24.9189C234.984 25.2437 235.093 25.6767 235.309 26.0015C235.526 26.4345 235.85 26.651 236.283 26.8675C236.608 26.9758 237.041 27.084 237.366 26.9758C237.799 26.8675 238.232 26.7593 238.557 26.4345C239.098 26.0015 239.206 25.2437 239.531 24.5941C239.748 24.0528 239.964 23.6198 240.181 23.1868C240.506 22.5372 240.939 21.8877 241.263 21.1299C241.155 21.2381 241.155 21.4546 241.047 21.5629C241.155 21.4546 241.155 21.3464 241.263 21.1299C241.372 20.8051 241.48 20.4803 241.48 20.0473C241.263 19.7225 241.047 19.2895 240.83 19.073Z" fill="#9E680A"/>
<path opacity="0.24" d="M246.568 20.8039C246.568 20.5874 246.568 20.3709 246.46 20.1544C246.352 19.8296 246.135 19.5048 245.919 19.2883C245.811 19.18 245.594 19.0718 245.377 18.9635C245.161 18.8553 244.836 18.8553 244.62 18.9635C243.97 19.0718 243.754 19.6131 243.429 20.0461C243.321 20.2626 243.212 20.3709 243.104 20.5874C242.996 20.8039 242.888 21.0204 242.888 21.1287C242.779 21.3452 242.779 21.4534 242.671 21.67C242.563 21.8865 242.563 22.2113 242.671 22.4278C242.671 22.6443 242.779 22.9691 242.888 23.1856C242.996 23.4021 243.104 23.5103 243.212 23.6186C243.537 23.9434 244.078 24.1599 244.62 24.1599C244.944 24.1599 245.377 24.0516 245.594 23.9434C245.919 23.7269 246.135 23.5103 246.352 23.1856C246.568 22.7525 246.568 22.4278 246.677 21.9947V21.3452C246.677 21.2369 246.677 21.0204 246.568 20.8039Z" fill="#9E680A"/>
<path opacity="0.24" d="M250.142 20.2635C250.033 20.1552 250.033 20.0469 249.925 20.0469L249.709 19.8304C249.6 19.7222 249.384 19.7222 249.167 19.7222C248.951 19.7222 248.843 19.7222 248.626 19.7222C248.301 19.8304 247.977 20.0469 247.76 20.2635C247.652 20.3717 247.544 20.5882 247.435 20.6965C247.219 20.913 247.219 21.2378 247.219 21.5625C247.219 21.6708 247.219 21.6708 247.219 21.7791C247.219 21.9956 247.219 22.1038 247.327 22.3204C247.327 22.4286 247.435 22.5369 247.435 22.6451C247.544 22.8616 247.652 22.9699 247.76 23.0782C247.868 23.1864 248.085 23.2947 248.301 23.2947C248.41 23.2947 248.518 23.2947 248.734 23.2947C248.843 23.2947 248.951 23.2947 249.059 23.2947C249.276 23.1864 249.492 23.0782 249.6 22.9699C249.817 22.7534 250.033 22.3204 250.033 21.9956C250.033 21.9956 250.033 21.9956 250.033 21.8873V21.7791C250.033 21.7791 250.033 21.6708 250.142 21.6708C250.25 21.5625 250.25 21.346 250.25 21.1295C250.25 21.0213 250.25 20.913 250.25 20.8047C250.358 20.5882 250.25 20.48 250.142 20.2635Z" fill="#9E680A"/>
<path opacity="0.24" d="M291.713 83.8103C291.064 83.702 290.414 83.9185 290.089 84.4598C289.115 85.7589 288.574 87.491 288.141 89.1149C287.924 89.8727 287.708 90.6305 287.599 91.3883C287.383 92.4709 287.166 93.77 287.816 94.7443C288.465 95.7186 289.764 95.9351 290.631 95.0691C291.497 94.203 291.605 93.1204 291.713 91.9296C291.713 91.7131 291.713 91.4966 291.821 91.2801C291.821 91.2801 291.821 91.28 291.821 91.1718C291.93 90.7388 291.93 90.414 292.038 89.981C292.363 88.3571 292.796 86.7332 292.904 85.1094C292.796 84.6763 292.363 84.0268 291.713 83.8103Z" fill="#9E680A"/>
<path opacity="0.24" d="M297.45 90.9556C297.45 89.873 297.559 88.6822 297.775 87.5996C297.883 87.0583 297.342 86.4088 296.801 86.3005C296.26 86.1922 295.502 86.4088 295.285 86.9501C295.069 87.5996 294.744 88.1409 294.527 88.7904C294.311 89.3317 294.203 89.873 294.094 90.4143C293.986 91.0638 293.878 91.8217 293.77 92.4712C293.661 93.4455 294.311 94.5281 295.177 94.7446C296.26 94.9611 297.017 93.9868 297.234 93.0125C297.45 92.4712 297.342 91.7134 297.45 90.9556Z" fill="#9E680A"/>
<path opacity="0.24" d="M302.215 88.3565C301.674 88.2483 301.025 88.6813 300.916 89.2226L300.483 90.8465C300.375 91.1712 300.375 91.6043 300.375 91.9291C300.375 92.4703 300.592 93.0116 300.916 93.3364C301.241 93.6612 301.674 93.6612 302.107 93.4447C302.54 93.2281 302.865 92.7951 302.973 92.2538C303.081 91.929 303.19 91.496 303.19 91.1712C303.19 90.63 303.19 90.0887 303.19 89.5474C303.298 88.8978 302.757 88.3565 302.215 88.3565Z" fill="#9E680A"/>
<path opacity="0.24" d="M214.74 138.697C213.983 138.481 213.441 138.914 212.9 139.347C212.359 139.78 211.926 140.321 211.384 140.754C211.276 140.862 210.951 141.079 211.276 140.862C211.168 140.971 210.951 141.079 210.843 141.187C210.518 141.404 210.302 141.62 209.977 141.728C209.652 141.945 209.328 142.053 208.894 142.27C208.786 142.27 208.786 142.27 208.678 142.378C208.678 142.378 208.57 142.378 208.57 142.486C208.353 142.595 208.245 142.595 208.028 142.703C207.271 142.919 206.513 143.244 205.755 143.461C204.889 143.677 204.889 144.868 205.755 145.084C208.786 145.951 211.926 144.651 214.307 142.703C214.957 142.161 215.606 141.404 215.823 140.538C215.931 139.78 215.498 139.022 214.74 138.697Z" fill="#9E680A"/>
<path opacity="0.24" d="M209.869 136.1C209.544 135.883 209.219 135.883 208.895 135.992C208.786 136.1 208.57 136.1 208.461 136.208C208.353 136.316 208.245 136.425 208.137 136.533C208.137 136.533 208.028 136.533 208.028 136.641C207.92 136.749 208.028 136.641 208.028 136.641C207.92 136.749 207.812 136.858 207.704 136.966C207.595 137.074 207.379 137.182 207.271 137.291C206.946 137.507 206.621 137.615 206.296 137.832H206.188C206.08 137.832 205.972 137.94 205.972 137.94C205.755 138.048 205.647 138.048 205.43 138.157C204.889 138.265 204.564 138.914 204.781 139.348C204.997 139.889 205.43 140.105 205.972 139.997C206.838 139.781 207.595 139.456 208.353 139.023C208.786 138.806 209.111 138.481 209.436 138.265C209.652 138.048 209.869 137.94 209.977 137.724C210.085 137.507 210.194 137.291 210.302 137.074C210.302 136.749 210.085 136.316 209.869 136.1Z" fill="#9E680A"/>
<path opacity="0.24" d="M73.1411 135.99C73.1411 135.882 73.1411 135.773 73.1411 135.773C73.1411 135.773 73.1411 135.773 73.1411 135.665V135.557C73.0329 135.34 72.9246 135.016 72.7081 134.907C72.5998 134.799 72.5999 134.691 72.4916 134.691C72.3833 134.583 72.2751 134.474 72.1668 134.366C71.9503 134.041 71.7338 133.717 71.5173 133.284C71.5173 133.175 71.409 133.067 71.409 132.959C71.3008 132.742 71.1925 132.526 71.0842 132.201C70.8677 131.768 70.4347 131.66 70.0017 131.66C69.5686 131.768 69.2439 131.984 69.1356 132.417C69.0273 132.634 69.0273 132.959 69.0273 133.175C69.0273 133.392 69.1356 133.717 69.1356 133.933C69.2439 134.258 69.3521 134.583 69.4604 134.907C69.6769 135.34 69.7852 135.773 70.1099 136.098C70.3264 136.315 70.4347 136.531 70.6512 136.748C70.8677 136.964 70.976 137.073 71.3008 137.181C71.5173 137.289 71.7338 137.289 72.0586 137.289C72.4916 137.289 72.8164 137.073 73.1411 136.748C73.3577 136.423 73.4659 136.098 73.3577 135.665C73.1411 135.773 73.1411 135.882 73.1411 135.99Z" fill="#9E680A"/>
<path opacity="0.24" d="M76.9282 133.718C76.9282 133.61 76.8199 133.393 76.7117 133.285C76.7117 133.177 76.6034 133.068 76.4951 132.96C76.3869 132.744 76.1704 132.527 75.9538 132.311C75.7373 132.202 75.6291 131.986 75.4126 131.877C75.196 131.769 74.9795 131.553 74.8713 131.444C74.6548 131.228 74.33 131.011 74.0052 130.903L73.7887 130.795C73.6804 130.795 73.4639 130.795 73.3557 130.795C73.1391 130.795 72.9226 130.903 72.7061 131.12C72.3813 131.444 72.2731 131.986 72.4896 132.419C72.5979 132.635 72.7061 132.744 72.8144 132.96C73.0309 133.177 73.2474 133.501 73.3557 133.718C73.4639 133.934 73.6804 134.043 73.7887 134.259C73.8969 134.476 74.1135 134.584 74.2217 134.692C74.33 134.8 74.5465 135.017 74.763 135.017C74.763 135.017 74.8713 135.017 74.8713 135.125C74.8713 135.125 74.9795 135.125 74.9795 135.233C75.0878 135.342 75.196 135.342 75.3043 135.342C75.5208 135.342 75.6291 135.342 75.8456 135.342C75.9538 135.342 76.0621 135.233 76.1704 135.233C76.3869 135.125 76.4951 134.909 76.6034 134.8C76.9282 134.367 76.9282 133.934 76.9282 133.718Z" fill="#9E680A"/>
<path opacity="0.24" d="M80.2845 130.037C80.1763 130.037 80.1763 129.929 80.068 129.929C79.8515 129.713 79.635 129.604 79.3102 129.496C79.0937 129.496 78.8772 129.388 78.6607 129.388C78.4442 129.388 78.2277 129.28 78.0111 129.28C77.7946 129.28 77.5781 129.171 77.4698 129.171C77.3616 129.171 77.2533 129.171 77.1451 129.171H76.8203C76.6038 129.28 76.3873 129.388 76.279 129.496C76.1708 129.604 76.0625 129.821 76.0625 129.929C76.0625 130.146 76.0625 130.362 76.1708 130.579C76.4955 131.12 76.9286 131.553 77.4698 131.77C77.6864 131.878 77.9029 131.986 78.0111 131.986C78.1194 131.986 78.3359 132.094 78.4442 132.094C78.6607 132.094 78.7689 132.094 78.8772 132.094C79.0937 132.094 79.3102 131.986 79.4185 131.878C79.5267 131.878 79.5267 131.77 79.635 131.77C79.9598 131.553 80.068 131.337 80.1763 131.012C80.6093 130.579 80.5011 130.254 80.2845 130.037Z" fill="#9E680A"/>
<path opacity="0.24" d="M208.355 26.6507C208.031 25.8929 207.381 25.6764 206.623 26.0011C205.757 26.3259 205.432 27.625 205.108 28.3828C204.783 29.0323 204.675 29.7902 204.458 30.548C204.241 31.3058 204.133 32.0636 204.025 32.7131C203.917 33.6874 203.592 34.9865 204.241 35.8526C204.566 36.2856 204.783 36.5021 205.324 36.5021C205.757 36.6104 206.298 36.3939 206.515 36.0691C206.731 35.7443 206.948 35.5278 207.056 35.0948C207.164 34.8783 207.164 34.5535 207.164 34.337C207.164 34.0122 207.164 33.5792 207.273 33.2544C207.273 32.9296 207.381 32.4966 207.381 32.1718C207.381 32.1718 207.381 32.1718 207.381 32.0636C207.381 31.9553 207.381 31.9553 207.381 31.847C207.381 31.6305 207.489 31.5223 207.489 31.3058C207.597 30.548 207.814 29.7902 207.922 29.1406C208.139 28.3828 208.572 27.4085 208.355 26.6507Z" fill="#9E680A"/>
<path opacity="0.24" d="M213.983 32.2787C213.983 31.8457 213.983 31.3044 213.983 30.8714C213.983 29.897 213.983 28.9227 213.983 27.8401C213.983 27.2988 213.55 26.8658 213.009 26.7576C212.467 26.6493 211.926 26.9741 211.818 27.5154C211.601 28.5979 211.385 29.6805 211.277 30.7631C211.168 31.3044 211.168 31.7374 211.06 32.2787C210.952 33.0365 211.06 33.7943 211.71 34.3356C212.251 34.7686 212.792 34.7686 213.333 34.3356C213.983 33.7943 213.983 33.0365 213.983 32.2787Z" fill="#9E680A"/>
<path opacity="0.24" d="M218.316 25.1348C218.316 24.8101 218.207 24.5935 217.991 24.377C217.774 24.1605 217.558 24.0522 217.233 24.0522C216.692 24.0522 216.259 24.4853 216.259 25.0266C216.259 25.5679 216.15 26.2174 216.15 26.7587C216.15 27.4082 216.15 28.0578 216.259 28.7073C216.259 28.9238 216.475 29.1404 216.583 29.2486C216.8 29.3569 217.016 29.4651 217.233 29.4651C217.449 29.4651 217.558 29.3569 217.774 29.3569C217.991 29.2486 218.207 28.9238 218.207 28.7073C218.316 28.0578 218.424 27.4082 218.316 26.7587C218.424 26.3257 218.316 25.7844 218.316 25.1348Z" fill="#9E680A"/>
<g clip-path="url(#clip1_297_74674)">
<path d="M125.015 91.3694C124.932 89.959 124.237 88.4034 123.677 87.3975C123.242 86.6197 122.91 85.7382 122.505 85.002C122.505 86.2464 121.582 87.8642 121.582 87.8642C120.95 89.2538 120.213 90.6434 120.545 92.1886C120.815 93.4745 121.997 94.8849 123.47 94.2108C124.725 93.6508 125.088 92.562 125.015 91.3694Z" fill="#BDEDF4"/>
<path d="M120.835 91.6274C120.815 92.2082 121.043 92.8408 121.406 93.2971C121.499 93.4215 121.852 93.8156 122.049 93.7326C122.277 93.6289 121.966 93.2452 121.893 93.0896C121.748 92.7785 121.623 92.4571 121.52 92.1252C121.395 91.7311 121.416 91.3682 121.375 90.9637C121.343 90.6837 121.24 90.6319 121.074 90.8808C120.783 91.3059 120.825 92.1045 120.991 92.54L120.835 91.6274Z" fill="white"/>
<path d="M125.682 95.6685C125.661 96.2907 125.361 96.8818 125.133 97.4625C124.915 98.0018 124.79 98.5307 124.739 99.101C124.666 100.024 125.081 100.916 126.097 100.916C127.186 100.916 127.383 99.6507 127.207 98.8107C126.968 97.6492 126.056 96.7885 125.682 95.6685Z" fill="#BDEDF4"/>
<path d="M125.464 100.397C125.547 100.459 125.64 100.511 125.712 100.49C125.878 100.449 125.702 100.19 125.661 100.117C125.557 99.9407 125.484 99.7229 125.443 99.5363C125.401 99.3807 125.37 99.2252 125.339 99.0696C125.329 99.0074 125.318 98.8933 125.267 98.8518C125.132 98.7585 125.018 99.0903 125.007 99.1837C124.955 99.5363 125.059 99.9407 125.277 100.221C125.308 100.262 125.381 100.335 125.464 100.397Z" fill="white"/>
</g>
</g>
<defs>
<clipPath id="clip0_297_74674">
<rect width="430" height="189.884" fill="white" transform="translate(0.460938 0.55957)"/>
</clipPath>
<clipPath id="clip1_297_74674">
<rect width="7.46667" height="16" fill="white" transform="translate(120.461 85.002)"/>
</clipPath>
</defs>
</svg>
