<svg width="194" height="135" viewBox="0 0 194 135" fill="none" xmlns="http://www.w3.org/2000/svg">
<path d="M75.5177 16.7872C75.5177 8.86757 69.6115 1.75329 61.5576 1.08213C52.2957 0.142508 44.5102 7.39102 44.5102 16.3845V16.9215C44.5102 18.6665 43.4364 20.143 41.6914 20.68C17.5297 28.4654 0.213769 51.2848 1.01916 77.8626C1.95878 109.004 28.2682 134.106 59.8126 134.24C92.4309 134.374 119.009 108.199 119.009 75.9834C119.009 50.0767 101.961 28.1969 78.3366 20.68C76.5916 20.0088 75.5177 18.5322 75.5177 16.7872Z" fill="white" stroke="#1A1A1A" stroke-width="1.34232" stroke-miterlimit="10"/>
<path d="M43.9875 78.9341V78.2629L44.1218 78.2629V78.9341V79.6052H44.7929H45.5983V80.4106V81.216H45.4641V80.4106V79.7394H44.7929H43.9875V78.9341ZM42.6452 78.2629L42.511 78.2629V77.5917V76.1152V74.6386V73.1621V72.3567H43.3164H44.1218V72.4909H43.3164H42.6452V73.1621V74.6386V76.1152V77.5917V78.2629Z" fill="#1A1A1A" stroke="#1A1A1A" stroke-width="1.34232"/>
<path d="M45.4641 75.3098H45.5984V75.4441H45.4641V75.3098Z" fill="#1A1A1A" stroke="#1A1A1A" stroke-width="1.34232"/>
<path d="M47.8842 78.263H48.6896L47.8842 78.263L46.9446 78.263H47.8842Z" fill="#1A1A1A" stroke="#1A1A1A" stroke-width="1.34232"/>
<path d="M50.8359 69.6726H50.1648V70.3437V71.0149H50.0305V70.3437V69.5383H50.8359H51.6413V69.6726H50.8359Z" fill="#1A1A1A" stroke="#1A1A1A" stroke-width="1.34232"/>
<path d="M48.6857 73.1626V73.8338H49.3568H50.1622V74.6392V75.4445H49.3568H48.5515V74.6392V73.968H47.8803H46.9407V73.1626V71.6861V71.0149H46.2695H45.4641V70.3437V69.5383H46.2695H47.2091V70.3437V71.6861V72.3572H47.8803H48.6857V73.1626Z" fill="#1A1A1A" stroke="#1A1A1A" stroke-width="1.34232"/>
<path d="M50.0305 81.0872H50.1648V81.2214H50.0305V81.0872Z" fill="#1A1A1A" stroke="#1A1A1A" stroke-width="1.34232"/>
<path d="M51.5071 72.3567H51.6413V72.4909H51.5071V72.3567Z" fill="#1A1A1A" stroke="#1A1A1A" stroke-width="1.34232"/>
<path d="M52.9837 71.0149H53.1179V71.1491H52.9837V71.0149Z" fill="#1A1A1A" stroke="#1A1A1A" stroke-width="1.34232"/>
<path d="M51.6413 77.5918V78.2629H52.3125H53.1179V78.9341V79.7395H52.3125H51.5071V78.9341V77.5918V76.7864H51.6413V77.5918Z" fill="#1A1A1A" stroke="#1A1A1A" stroke-width="1.34232"/>
<path d="M54.4602 68.0618H54.7287V68.8672V69.6726H54.4602V68.8672V68.0618Z" fill="#1A1A1A" stroke="#1A1A1A" stroke-width="1.34232"/>
<path d="M54.4602 85.3762H54.5945V85.5105H54.4602V85.3762Z" fill="#1A1A1A" stroke="#1A1A1A" stroke-width="1.34232"/>
<path d="M56.0696 66.5852H56.2038V66.7195H56.0696V66.5852Z" fill="#1A1A1A" stroke="#1A1A1A" stroke-width="1.34232"/>
<path d="M56.2052 63.0962V63.7673H56.8764H57.6818V64.5727V65.2439H57.5475V64.5727V63.9016H56.8764H56.071V63.0962V62.425H55.3998H54.4602V62.2908H55.3998H56.071V61.6196V60.1431V59.4719H56.2052V60.1431V61.6196V63.0962ZM54.7287 59.4719H54.4602V58.8008V57.9954H54.7287V58.8008V59.4719ZM57.5475 58.8008V57.9954H57.6818V58.8008V59.4719H57.5475V58.8008ZM60.5006 58.8008V57.9954H61.4403H62.2457V58.1296H61.4403H60.7691V58.8008V60.1431V60.9485H60.5006V60.1431V59.4719V58.8008Z" fill="#1A1A1A" stroke="#1A1A1A" stroke-width="1.34232"/>
<path d="M57.5462 73.8333H57.6804V73.9675H57.5462V73.8333Z" fill="#1A1A1A" stroke="#1A1A1A" stroke-width="1.34232"/>
<path d="M57.5462 85.3762H57.6804V85.5105H57.5462V85.3762Z" fill="#1A1A1A" stroke="#1A1A1A" stroke-width="1.34232"/>
<path d="M58.3529 76.7869H59.0241V76.1157V75.3103H59.1583V76.1157V76.7869H59.8295H60.7691V77.5923V78.2634H59.8295H59.1583V78.9346V80.4111V81.8877V83.3642V84.0354H59.0241V83.3642V81.8877V81.2165H58.3529H56.8764H55.3998H54.4602V81.0823H55.3998H56.071V80.4111V78.9346V77.5923V76.1157V75.4446H55.3998H53.7891H52.9837V75.3103H53.7891H54.4602V74.6392V73.1626V72.3572H55.3998H56.071V71.6861V71.0149H56.2052V71.6861V72.4915H55.3998H54.7287V73.1626V74.6392V75.3103H55.3998H56.2052V76.1157V76.7869H56.8764H58.3529ZM60.5006 84.0354H60.7691V84.7065V85.3777H61.4403H62.2456V85.5119H61.4403H60.5006V84.7065V84.0354Z" fill="#1A1A1A" stroke="#1A1A1A" stroke-width="1.34232"/>
<path d="M59.8295 88.4616H59.1583V89.1328V90.6094V91.9517V92.6228H59.8295H60.7691V92.7571H59.8295H59.0241V91.9517V90.6094V89.9382H58.3529H56.8764H56.2052V90.6094V91.2805H55.3998H54.7287V91.9517V92.7571H54.4602V91.9517V90.6094V89.1328V88.3274H55.3998H56.2052V89.1328V89.804H56.8764H58.3529H59.0241V89.1328V88.3274H59.8295H60.7691V88.4616H59.8295Z" fill="#1A1A1A" stroke="#1A1A1A" stroke-width="1.34232"/>
<path d="M63.5852 91.9517V91.2805H62.9141H62.1087L62.9141 91.2805H63.7194V91.9517V92.7571H63.5852V91.9517Z" fill="#1A1A1A" stroke="#1A1A1A" stroke-width="1.34232"/>
<path d="M64.3906 71.0148H63.7194V71.686V73.2968V73.9679H64.3906H65.196V74.1022H64.3906H62.914H62.2429V74.7733V75.5787H62.1086V74.7733V73.9679H62.914H63.5852V73.2968V71.8202V71.1491H62.914H61.4375H59.9609H59.1555V70.3437V68.8671V67.3906V66.5852H59.9609H61.4375H62.1086V65.914V64.4375V63.6321H62.914H63.5852V62.9609V62.1555H63.7194V62.9609V63.6321H64.3906H65.196V63.7663H64.3906H62.914H62.2429V64.4375V65.914V66.5852H62.914H64.3906H65.196V67.3906V68.7329V70.2094V71.0148H64.3906ZM65.0617 67.3906V66.7194H64.3906H62.914H62.2429V67.3906V68.8671V69.5383H62.914H64.3906H65.0617V68.8671V67.3906ZM59.1555 71.0148H59.8267H61.3032H61.9744V70.3437V68.8671V68.196H61.3032H59.8267H59.1555V68.8671V70.3437V71.0148Z" fill="#1A1A1A" stroke="#1A1A1A" stroke-width="1.34232"/>
<path d="M63.7195 77.5918V78.2629H63.5852V77.5918V76.7864H63.7195V77.5918Z" fill="#1A1A1A" stroke="#1A1A1A" stroke-width="1.34232"/>
<path d="M62.9141 82.5637H63.7194V82.698H62.9141H62.1087V82.5637H62.9141Z" fill="#1A1A1A" stroke="#1A1A1A" stroke-width="1.34232"/>
<path d="M65.0618 57.9954H65.196V58.1296H65.0618V57.9954Z" fill="#1A1A1A" stroke="#1A1A1A" stroke-width="1.34232"/>
<path d="M66.5383 82.5637H66.6726V82.698H66.5383V82.5637Z" fill="#1A1A1A" stroke="#1A1A1A" stroke-width="1.34232"/>
<path d="M68.0149 75.3098H68.1491V75.4441H68.0149V75.3098Z" fill="#1A1A1A" stroke="#1A1A1A" stroke-width="1.34232"/>
<path d="M66.6725 89.1347V89.8059H67.3437H68.2833V89.9401H67.3437H66.5383V89.1347V88.4636H65.8672H64.3906H63.5852V88.3293H64.3906H65.0618V87.6582V86.8528H65.8672H67.3437H68.0149V86.1816V85.3762H68.2833V86.1816V86.987H67.3437H66.6725V87.6582V89.1347Z" fill="#1A1A1A" stroke="#1A1A1A" stroke-width="1.34232"/>
<path d="M69.6243 82.5637H69.7585V82.698H69.6243V82.5637Z" fill="#1A1A1A" stroke="#1A1A1A" stroke-width="1.34232"/>
<path d="M71.9076 77.5918H72.4445V76.7864H72.5788V77.5918V78.2629L71.9076 78.2629V77.5918ZM71.1022 78.2629L71.2365 78.2629V78.9341V80.4106V81.0818H71.9076H73.3842H74.0553V81.3503H73.2499H72.5788V82.0214V82.8268H72.4445V82.0214V81.3503H71.7734H70.968V80.5449V79.0683V78.3972H70.2968H68.8203H68.1491V79.0683V79.8737H67.3437H66.5383V79.0683V78.2629H67.3437H68.9545H70.4311H71.1022ZM76.203 78.2629H77.0084V79.0683V80.5449V81.3503H76.8742V80.5449V79.8737H76.203H74.7265H74.0553V78.9341V78.2629L74.7265 78.2629H76.203Z" fill="#1A1A1A" stroke="#1A1A1A" stroke-width="1.34232"/>
<path d="M71.2351 84.7056V85.3768H71.9062H73.3828H74.3224V85.511H73.3828H71.9062H71.2351V86.1821V87.6587V89.1352V89.9406H71.1008V89.1352V87.6587V86.1821V84.7056V84.0344H71.2351V84.7056Z" fill="#1A1A1A" stroke="#1A1A1A" stroke-width="1.34232"/>
<path d="M74.054 75.3098H74.1882V75.4441H74.054V75.3098Z" fill="#1A1A1A" stroke="#1A1A1A" stroke-width="1.34232"/>
<path d="M74.054 88.3274H74.1882V88.4616H74.054V88.3274Z" fill="#1A1A1A" stroke="#1A1A1A" stroke-width="1.34232"/>
<path d="M73.3828 92.6228H74.0539V91.9517V91.2805H74.3224V91.9517V92.6228H74.9935H75.7989V92.7571H74.9935H73.3828H71.9062H70.4297H69.6243V92.6228H70.4297H71.9062H73.3828Z" fill="#1A1A1A" stroke="#1A1A1A" stroke-width="1.34232"/>
<path d="M75.1199 72.49H75.7911V71.8189V71.1477H75.9253V71.8189V73.2954V73.9666H76.5965H77.4019V74.772V75.5774H77.2676V74.772V74.1008H76.5965H75.7911V73.2954V72.6243H75.1199H73.5092H72.0326H71.3615V73.2954V74.1008H70.5561H69.7507V73.2954V72.6243H69.0795H67.4687H66.6633V72.49H67.4687H69.0795H69.7507V71.8189V70.4766V69.6712H69.8849V70.4766V71.8189V72.49H70.5561H72.0326H73.5092H75.1199Z" fill="#1A1A1A" stroke="#1A1A1A" stroke-width="1.34232"/>
<path d="M75.8015 83.3691V84.0403H76.4726L77.278 84.0403H76.4726H75.6673V83.3691V82.5637H75.8015V83.3691Z" fill="#1A1A1A" stroke="#1A1A1A" stroke-width="1.34232"/>
<path d="M75.6673 86.8508H75.8015V86.9851H75.6673V86.8508Z" fill="#1A1A1A" stroke="#1A1A1A" stroke-width="1.34232"/>
<path d="M75.6673 89.804H75.8015V89.9382H75.6673V89.804Z" fill="#1A1A1A" stroke="#1A1A1A" stroke-width="1.34232"/>
<path d="M77.1438 88.3274H77.278V88.4616H77.1438V88.3274Z" fill="#1A1A1A" stroke="#1A1A1A" stroke-width="1.34232"/>
<path d="M77.1438 91.2805H77.278V91.4148H77.1438V91.2805Z" fill="#1A1A1A" stroke="#1A1A1A" stroke-width="1.34232"/>
<path d="M42.511 66.7204V57.9954V58.6665V66.0493V66.7204ZM51.6388 57.9954H51.773V66.7204H51.6388V66.0493V58.6665V57.9954Z" fill="#1A1A1A" stroke="#1A1A1A" stroke-width="1.34232"/>
<path d="M45.4641 60.8137H48.6857V63.7668H45.4641V60.8137Z" fill="#1A1A1A" stroke="#1A1A1A" stroke-width="1.34232"/>
<path d="M51.773 84.0344V92.7595H51.6388V92.0883V84.7056V84.0344H51.773ZM42.511 92.0883V92.7595V84.0344V84.7056V92.0883Z" fill="#1A1A1A" stroke="#1A1A1A" stroke-width="1.34232"/>
<path d="M45.4641 86.8508H48.6857V89.8039H45.4641V86.8508Z" fill="#1A1A1A" stroke="#1A1A1A" stroke-width="1.34232"/>
<path d="M68.1491 66.0493V66.7204H68.0149V57.9954H68.1491V58.6665V66.0493Z" fill="#1A1A1A" stroke="#1A1A1A" stroke-width="1.34232"/>
<path d="M71.1048 60.8137H74.3263V63.7668H71.1048V60.8137Z" fill="#1A1A1A" stroke="#1A1A1A" stroke-width="1.34232"/>
<rect x="43.6367" y="105" width="52.2656" height="14" rx="7" fill="#F93348" fill-opacity="0.4"/>
<path d="M48.9062 111.904L47.1836 109.293C47.0833 109.143 46.9922 108.992 46.9102 108.842C46.8418 108.719 46.778 108.589 46.7188 108.452C46.6641 108.315 46.6367 108.199 46.6367 108.104C46.6367 107.98 46.6709 107.855 46.7393 107.728C46.8122 107.6 46.9375 107.484 47.1152 107.379C47.3203 107.27 47.5072 107.215 47.6758 107.215C47.8034 107.215 47.9196 107.244 48.0244 107.304C48.1338 107.358 48.2318 107.434 48.3184 107.529C48.4095 107.62 48.4938 107.725 48.5713 107.844C48.6488 107.962 48.724 108.081 48.7969 108.199L50.0684 110.291H50.2734L51.5449 108.199C51.6178 108.081 51.693 107.962 51.7705 107.844C51.848 107.725 51.93 107.62 52.0166 107.529C52.1077 107.434 52.2057 107.358 52.3105 107.304C52.4154 107.244 52.5339 107.215 52.666 107.215C52.748 107.215 52.8346 107.231 52.9258 107.263C53.0215 107.295 53.1217 107.338 53.2266 107.393C53.418 107.497 53.5501 107.611 53.623 107.734C53.696 107.853 53.7324 107.971 53.7324 108.09C53.7324 108.19 53.7028 108.309 53.6436 108.445C53.5843 108.582 53.5182 108.714 53.4453 108.842C53.3633 108.992 53.2676 109.143 53.1582 109.293L51.4492 111.904V112.027L53.3496 115.021C53.4453 115.172 53.5273 115.322 53.5957 115.473C53.6686 115.618 53.7051 115.764 53.7051 115.91C53.7051 116.033 53.6709 116.156 53.6025 116.279C53.5387 116.398 53.418 116.512 53.2402 116.621C53.0352 116.73 52.8483 116.785 52.6797 116.785C52.5612 116.785 52.4541 116.762 52.3584 116.717C52.2627 116.667 52.1738 116.603 52.0918 116.525C52.0098 116.448 51.9323 116.359 51.8594 116.259C51.791 116.159 51.7227 116.056 51.6543 115.951L50.2734 113.709H50.0684L48.6875 115.951C48.6191 116.056 48.5485 116.159 48.4756 116.259C48.4072 116.359 48.332 116.448 48.25 116.525C48.1725 116.603 48.0859 116.667 47.9902 116.717C47.8945 116.762 47.7897 116.785 47.6758 116.785C47.5026 116.785 47.3203 116.73 47.1289 116.621C46.9421 116.512 46.8122 116.398 46.7393 116.279C46.6709 116.156 46.6367 116.033 46.6367 115.91C46.6367 115.764 46.6709 115.618 46.7393 115.473C46.8122 115.322 46.8965 115.172 46.9922 115.021L48.9062 112.027V111.904Z" fill="#1A1A1A"/>
<path d="M56.7402 111.904L55.0176 109.293C54.9173 109.143 54.8262 108.992 54.7441 108.842C54.6758 108.719 54.612 108.589 54.5527 108.452C54.498 108.315 54.4707 108.199 54.4707 108.104C54.4707 107.98 54.5049 107.855 54.5732 107.728C54.6462 107.6 54.7715 107.484 54.9492 107.379C55.1543 107.27 55.3411 107.215 55.5098 107.215C55.6374 107.215 55.7536 107.244 55.8584 107.304C55.9678 107.358 56.0658 107.434 56.1523 107.529C56.2435 107.62 56.3278 107.725 56.4053 107.844C56.4827 107.962 56.5579 108.081 56.6309 108.199L57.9023 110.291H58.1074L59.3789 108.199C59.4518 108.081 59.527 107.962 59.6045 107.844C59.682 107.725 59.764 107.62 59.8506 107.529C59.9417 107.434 60.0397 107.358 60.1445 107.304C60.2493 107.244 60.3678 107.215 60.5 107.215C60.582 107.215 60.6686 107.231 60.7598 107.263C60.8555 107.295 60.9557 107.338 61.0605 107.393C61.252 107.497 61.3841 107.611 61.457 107.734C61.5299 107.853 61.5664 107.971 61.5664 108.09C61.5664 108.19 61.5368 108.309 61.4775 108.445C61.4183 108.582 61.3522 108.714 61.2793 108.842C61.1973 108.992 61.1016 109.143 60.9922 109.293L59.2832 111.904V112.027L61.1836 115.021C61.2793 115.172 61.3613 115.322 61.4297 115.473C61.5026 115.618 61.5391 115.764 61.5391 115.91C61.5391 116.033 61.5049 116.156 61.4365 116.279C61.3727 116.398 61.252 116.512 61.0742 116.621C60.8691 116.73 60.6823 116.785 60.5137 116.785C60.3952 116.785 60.2881 116.762 60.1924 116.717C60.0967 116.667 60.0078 116.603 59.9258 116.525C59.8438 116.448 59.7663 116.359 59.6934 116.259C59.625 116.159 59.5566 116.056 59.4883 115.951L58.1074 113.709H57.9023L56.5215 115.951C56.4531 116.056 56.3825 116.159 56.3096 116.259C56.2412 116.359 56.166 116.448 56.084 116.525C56.0065 116.603 55.9199 116.667 55.8242 116.717C55.7285 116.762 55.6237 116.785 55.5098 116.785C55.3366 116.785 55.1543 116.73 54.9629 116.621C54.776 116.512 54.6462 116.398 54.5732 116.279C54.5049 116.156 54.4707 116.033 54.4707 115.91C54.4707 115.764 54.5049 115.618 54.5732 115.473C54.6462 115.322 54.7305 115.172 54.8262 115.021L56.7402 112.027V111.904Z" fill="#1A1A1A"/>
<path d="M64.5742 111.904L62.8516 109.293C62.7513 109.143 62.6602 108.992 62.5781 108.842C62.5098 108.719 62.446 108.589 62.3867 108.452C62.332 108.315 62.3047 108.199 62.3047 108.104C62.3047 107.98 62.3389 107.855 62.4072 107.728C62.4801 107.6 62.6055 107.484 62.7832 107.379C62.9883 107.27 63.1751 107.215 63.3438 107.215C63.4714 107.215 63.5876 107.244 63.6924 107.304C63.8018 107.358 63.8997 107.434 63.9863 107.529C64.0775 107.62 64.1618 107.725 64.2393 107.844C64.3167 107.962 64.3919 108.081 64.4648 108.199L65.7363 110.291H65.9414L67.2129 108.199C67.2858 108.081 67.361 107.962 67.4385 107.844C67.516 107.725 67.598 107.62 67.6846 107.529C67.7757 107.434 67.8737 107.358 67.9785 107.304C68.0833 107.244 68.2018 107.215 68.334 107.215C68.416 107.215 68.5026 107.231 68.5938 107.263C68.6895 107.295 68.7897 107.338 68.8945 107.393C69.0859 107.497 69.2181 107.611 69.291 107.734C69.3639 107.853 69.4004 107.971 69.4004 108.09C69.4004 108.19 69.3708 108.309 69.3115 108.445C69.2523 108.582 69.1862 108.714 69.1133 108.842C69.0312 108.992 68.9355 109.143 68.8262 109.293L67.1172 111.904V112.027L69.0176 115.021C69.1133 115.172 69.1953 115.322 69.2637 115.473C69.3366 115.618 69.373 115.764 69.373 115.91C69.373 116.033 69.3389 116.156 69.2705 116.279C69.2067 116.398 69.0859 116.512 68.9082 116.621C68.7031 116.73 68.5163 116.785 68.3477 116.785C68.2292 116.785 68.1221 116.762 68.0264 116.717C67.9307 116.667 67.8418 116.603 67.7598 116.525C67.6777 116.448 67.6003 116.359 67.5273 116.259C67.459 116.159 67.3906 116.056 67.3223 115.951L65.9414 113.709H65.7363L64.3555 115.951C64.2871 116.056 64.2165 116.159 64.1436 116.259C64.0752 116.359 64 116.448 63.918 116.525C63.8405 116.603 63.7539 116.667 63.6582 116.717C63.5625 116.762 63.4577 116.785 63.3438 116.785C63.1706 116.785 62.9883 116.73 62.7969 116.621C62.61 116.512 62.4801 116.398 62.4072 116.279C62.3389 116.156 62.3047 116.033 62.3047 115.91C62.3047 115.764 62.3389 115.618 62.4072 115.473C62.4801 115.322 62.5645 115.172 62.6602 115.021L64.5742 112.027V111.904Z" fill="#1A1A1A"/>
<path d="M72.4082 111.904L70.6855 109.293C70.5853 109.143 70.4941 108.992 70.4121 108.842C70.3438 108.719 70.2799 108.589 70.2207 108.452C70.166 108.315 70.1387 108.199 70.1387 108.104C70.1387 107.98 70.1729 107.855 70.2412 107.728C70.3141 107.6 70.4395 107.484 70.6172 107.379C70.8223 107.27 71.0091 107.215 71.1777 107.215C71.3053 107.215 71.4215 107.244 71.5264 107.304C71.6357 107.358 71.7337 107.434 71.8203 107.529C71.9115 107.62 71.9958 107.725 72.0732 107.844C72.1507 107.962 72.2259 108.081 72.2988 108.199L73.5703 110.291H73.7754L75.0469 108.199C75.1198 108.081 75.195 107.962 75.2725 107.844C75.3499 107.725 75.432 107.62 75.5186 107.529C75.6097 107.434 75.7077 107.358 75.8125 107.304C75.9173 107.244 76.0358 107.215 76.168 107.215C76.25 107.215 76.3366 107.231 76.4277 107.263C76.5234 107.295 76.6237 107.338 76.7285 107.393C76.9199 107.497 77.0521 107.611 77.125 107.734C77.1979 107.853 77.2344 107.971 77.2344 108.09C77.2344 108.19 77.2048 108.309 77.1455 108.445C77.0863 108.582 77.0202 108.714 76.9473 108.842C76.8652 108.992 76.7695 109.143 76.6602 109.293L74.9512 111.904V112.027L76.8516 115.021C76.9473 115.172 77.0293 115.322 77.0977 115.473C77.1706 115.618 77.207 115.764 77.207 115.91C77.207 116.033 77.1729 116.156 77.1045 116.279C77.0407 116.398 76.9199 116.512 76.7422 116.621C76.5371 116.73 76.3503 116.785 76.1816 116.785C76.0632 116.785 75.9561 116.762 75.8604 116.717C75.7646 116.667 75.6758 116.603 75.5938 116.525C75.5117 116.448 75.4342 116.359 75.3613 116.259C75.293 116.159 75.2246 116.056 75.1562 115.951L73.7754 113.709H73.5703L72.1895 115.951C72.1211 116.056 72.0505 116.159 71.9775 116.259C71.9092 116.359 71.834 116.448 71.752 116.525C71.6745 116.603 71.5879 116.667 71.4922 116.717C71.3965 116.762 71.2917 116.785 71.1777 116.785C71.0046 116.785 70.8223 116.73 70.6309 116.621C70.444 116.512 70.3141 116.398 70.2412 116.279C70.1729 116.156 70.1387 116.033 70.1387 115.91C70.1387 115.764 70.1729 115.618 70.2412 115.473C70.3141 115.322 70.3984 115.172 70.4941 115.021L72.4082 112.027V111.904Z" fill="#1A1A1A"/>
<path d="M80.2422 111.904L78.5195 109.293C78.4193 109.143 78.3281 108.992 78.2461 108.842C78.1777 108.719 78.1139 108.589 78.0547 108.452C78 108.315 77.9727 108.199 77.9727 108.104C77.9727 107.98 78.0068 107.855 78.0752 107.728C78.1481 107.6 78.2734 107.484 78.4512 107.379C78.6562 107.27 78.8431 107.215 79.0117 107.215C79.1393 107.215 79.2555 107.244 79.3604 107.304C79.4697 107.358 79.5677 107.434 79.6543 107.529C79.7454 107.62 79.8298 107.725 79.9072 107.844C79.9847 107.962 80.0599 108.081 80.1328 108.199L81.4043 110.291H81.6094L82.8809 108.199C82.9538 108.081 83.029 107.962 83.1064 107.844C83.1839 107.725 83.266 107.62 83.3525 107.529C83.4437 107.434 83.5417 107.358 83.6465 107.304C83.7513 107.244 83.8698 107.215 84.002 107.215C84.084 107.215 84.1706 107.231 84.2617 107.263C84.3574 107.295 84.4577 107.338 84.5625 107.393C84.7539 107.497 84.8861 107.611 84.959 107.734C85.0319 107.853 85.0684 107.971 85.0684 108.09C85.0684 108.19 85.0387 108.309 84.9795 108.445C84.9202 108.582 84.8542 108.714 84.7812 108.842C84.6992 108.992 84.6035 109.143 84.4941 109.293L82.7852 111.904V112.027L84.6855 115.021C84.7812 115.172 84.8633 115.322 84.9316 115.473C85.0046 115.618 85.041 115.764 85.041 115.91C85.041 116.033 85.0068 116.156 84.9385 116.279C84.8747 116.398 84.7539 116.512 84.5762 116.621C84.3711 116.73 84.1842 116.785 84.0156 116.785C83.8971 116.785 83.79 116.762 83.6943 116.717C83.5986 116.667 83.5098 116.603 83.4277 116.525C83.3457 116.448 83.2682 116.359 83.1953 116.259C83.127 116.159 83.0586 116.056 82.9902 115.951L81.6094 113.709H81.4043L80.0234 115.951C79.9551 116.056 79.8844 116.159 79.8115 116.259C79.7432 116.359 79.668 116.448 79.5859 116.525C79.5085 116.603 79.4219 116.667 79.3262 116.717C79.2305 116.762 79.1257 116.785 79.0117 116.785C78.8385 116.785 78.6562 116.73 78.4648 116.621C78.278 116.512 78.1481 116.398 78.0752 116.279C78.0068 116.156 77.9727 116.033 77.9727 115.91C77.9727 115.764 78.0068 115.618 78.0752 115.473C78.1481 115.322 78.2324 115.172 78.3281 115.021L80.2422 112.027V111.904Z" fill="#1A1A1A"/>
<path d="M88.0762 111.904L86.3535 109.293C86.2533 109.143 86.1621 108.992 86.0801 108.842C86.0117 108.719 85.9479 108.589 85.8887 108.452C85.834 108.315 85.8066 108.199 85.8066 108.104C85.8066 107.98 85.8408 107.855 85.9092 107.728C85.9821 107.6 86.1074 107.484 86.2852 107.379C86.4902 107.27 86.6771 107.215 86.8457 107.215C86.9733 107.215 87.0895 107.244 87.1943 107.304C87.3037 107.358 87.4017 107.434 87.4883 107.529C87.5794 107.62 87.6637 107.725 87.7412 107.844C87.8187 107.962 87.8939 108.081 87.9668 108.199L89.2383 110.291H89.4434L90.7148 108.199C90.7878 108.081 90.863 107.962 90.9404 107.844C91.0179 107.725 91.0999 107.62 91.1865 107.529C91.2777 107.434 91.3757 107.358 91.4805 107.304C91.5853 107.244 91.7038 107.215 91.8359 107.215C91.918 107.215 92.0046 107.231 92.0957 107.263C92.1914 107.295 92.2917 107.338 92.3965 107.393C92.5879 107.497 92.7201 107.611 92.793 107.734C92.8659 107.853 92.9023 107.971 92.9023 108.09C92.9023 108.19 92.8727 108.309 92.8135 108.445C92.7542 108.582 92.6882 108.714 92.6152 108.842C92.5332 108.992 92.4375 109.143 92.3281 109.293L90.6191 111.904V112.027L92.5195 115.021C92.6152 115.172 92.6973 115.322 92.7656 115.473C92.8385 115.618 92.875 115.764 92.875 115.91C92.875 116.033 92.8408 116.156 92.7725 116.279C92.7087 116.398 92.5879 116.512 92.4102 116.621C92.2051 116.73 92.0182 116.785 91.8496 116.785C91.7311 116.785 91.624 116.762 91.5283 116.717C91.4326 116.667 91.3438 116.603 91.2617 116.525C91.1797 116.448 91.1022 116.359 91.0293 116.259C90.9609 116.159 90.8926 116.056 90.8242 115.951L89.4434 113.709H89.2383L87.8574 115.951C87.7891 116.056 87.7184 116.159 87.6455 116.259C87.5771 116.359 87.502 116.448 87.4199 116.525C87.3424 116.603 87.2559 116.667 87.1602 116.717C87.0645 116.762 86.9596 116.785 86.8457 116.785C86.6725 116.785 86.4902 116.73 86.2988 116.621C86.112 116.512 85.9821 116.398 85.9092 116.279C85.8408 116.156 85.8066 116.033 85.8066 115.91C85.8066 115.764 85.8408 115.618 85.9092 115.473C85.9821 115.322 86.0664 115.172 86.1621 115.021L88.0762 112.027V111.904Z" fill="#1A1A1A"/>
<path d="M25.4666 109.455C25.471 109.639 25.5237 109.806 25.6249 109.956C25.7304 110.101 25.8667 110.239 26.0338 110.371C26.2053 110.503 26.3988 110.633 26.6142 110.761C26.8297 110.884 27.0495 111.016 27.2738 111.156C27.5025 111.293 27.7245 111.442 27.94 111.605C28.1554 111.767 28.3489 111.952 28.5204 112.159C28.6919 112.365 28.8304 112.599 28.9359 112.858C29.0415 113.117 29.0986 113.412 29.1074 113.742V113.795C29.1074 114.155 29.0635 114.47 28.9755 114.738C28.8876 115.006 28.771 115.237 28.6259 115.43C28.4808 115.624 28.3115 115.784 28.1181 115.912C27.9246 116.035 27.7201 116.134 27.5047 116.209C27.2936 116.283 27.0781 116.336 26.8583 116.367C26.6428 116.398 26.4383 116.415 26.2449 116.42H26.1789C25.8051 116.42 25.4776 116.382 25.1961 116.308C24.9147 116.233 24.6729 116.134 24.4706 116.011C24.2683 115.883 24.099 115.738 23.9627 115.575C23.8308 115.413 23.7253 115.246 23.6461 115.074C23.567 114.898 23.5098 114.725 23.4746 114.553C23.4395 114.382 23.4219 114.221 23.4219 114.072C23.4219 113.918 23.4483 113.784 23.501 113.669C23.5538 113.555 23.6219 113.463 23.7055 113.392C23.7934 113.317 23.8924 113.263 24.0023 113.227C24.1166 113.192 24.2354 113.175 24.3585 113.175C24.4728 113.175 24.5893 113.192 24.708 113.227C24.8312 113.263 24.9411 113.317 25.0378 113.392C25.139 113.463 25.2203 113.555 25.2819 113.669C25.3478 113.779 25.383 113.909 25.3874 114.058C25.3962 114.388 25.471 114.615 25.6117 114.738C25.7524 114.856 25.9546 114.916 26.2185 114.916C26.3504 114.911 26.4713 114.896 26.5812 114.87C26.6956 114.839 26.7923 114.788 26.8715 114.718C26.9506 114.643 27.0122 114.546 27.0561 114.428C27.1045 114.305 27.1287 114.151 27.1287 113.966C27.1287 113.737 27.0759 113.531 26.9704 113.346C26.8693 113.161 26.7351 112.99 26.5681 112.832C26.401 112.673 26.2097 112.524 25.9942 112.383C25.7788 112.238 25.5589 112.095 25.3346 111.954C25.1104 111.809 24.8905 111.66 24.6751 111.506C24.464 111.348 24.2727 111.176 24.1012 110.991C23.9297 110.807 23.7912 110.602 23.6857 110.378C23.5846 110.154 23.5318 109.899 23.5274 109.613V109.507C23.5318 109.037 23.5934 108.645 23.7121 108.333C23.8352 108.021 24.0133 107.773 24.2463 107.588C24.4838 107.403 24.774 107.274 25.117 107.199C25.46 107.12 25.8535 107.08 26.2976 107.08H26.4691C26.8737 107.08 27.2166 107.124 27.4981 107.212C27.7795 107.3 28.0125 107.412 28.1972 107.548C28.3863 107.685 28.5336 107.839 28.6391 108.01C28.7491 108.182 28.8304 108.351 28.8832 108.518C28.9359 108.685 28.9689 108.841 28.9821 108.986C28.9953 109.131 29.0019 109.248 29.0019 109.336C29.0019 109.468 28.9755 109.589 28.9227 109.699C28.8744 109.804 28.8062 109.894 28.7183 109.969C28.6347 110.044 28.5336 110.103 28.4149 110.147C28.3005 110.187 28.1752 110.206 28.0389 110.206C27.9334 110.206 27.8278 110.187 27.7223 110.147C27.6168 110.103 27.5222 110.048 27.4387 109.982C27.3552 109.916 27.287 109.842 27.2342 109.758C27.1815 109.67 27.1551 109.582 27.1551 109.494C27.1551 109.134 27.0891 108.883 26.9572 108.742C26.8297 108.602 26.6406 108.531 26.39 108.531C26.2712 108.531 26.1547 108.538 26.0404 108.551C25.9305 108.564 25.8315 108.602 25.7436 108.663C25.66 108.72 25.5919 108.81 25.5391 108.933C25.4907 109.057 25.4666 109.23 25.4666 109.455Z" fill="#1A1A1A"/>
<path d="M32.4713 112.726V114.863C32.4713 115.052 32.4647 115.237 32.4515 115.417C32.4427 115.597 32.4053 115.758 32.3394 115.899C32.2778 116.039 32.1789 116.154 32.0425 116.242C31.9062 116.325 31.7106 116.367 31.4555 116.367C31.2093 116.367 31.018 116.325 30.8817 116.242C30.7498 116.154 30.653 116.039 30.5915 115.899C30.5299 115.758 30.4925 115.597 30.4793 115.417C30.4706 115.237 30.4662 115.052 30.4662 114.863V108.637C30.4662 108.448 30.4706 108.263 30.4793 108.083C30.4925 107.902 30.5299 107.742 30.5915 107.601C30.653 107.46 30.7498 107.348 30.8817 107.265C31.018 107.177 31.2093 107.133 31.4555 107.133H33.6321C34.1774 107.159 34.6655 107.274 35.0964 107.476C35.2811 107.564 35.4592 107.674 35.6306 107.806C35.8065 107.938 35.9626 108.1 36.0989 108.294C36.2397 108.483 36.3518 108.709 36.4353 108.973C36.5189 109.232 36.5606 109.534 36.5606 109.877C36.5606 110.347 36.4859 110.761 36.3364 111.117C36.1913 111.468 35.978 111.765 35.6966 112.007C35.4196 112.245 35.0788 112.425 34.6743 112.548C34.2741 112.667 33.8212 112.726 33.3155 112.726H32.4713ZM33.3683 111.156C33.5882 111.143 33.786 111.09 33.9619 110.998C34.0367 110.958 34.1092 110.908 34.1796 110.846C34.2499 110.785 34.3137 110.71 34.3709 110.622C34.428 110.53 34.472 110.422 34.5028 110.299C34.5379 110.176 34.5555 110.035 34.5555 109.877C34.5555 109.727 34.5379 109.597 34.5028 109.488C34.472 109.373 34.4302 109.276 34.3774 109.197C34.3247 109.114 34.2653 109.043 34.1994 108.986C34.1334 108.929 34.0652 108.881 33.9949 108.841C33.8278 108.758 33.6409 108.707 33.4343 108.689H32.4713V111.156H33.3683Z" fill="#1A1A1A"/>
<path d="M38.3283 113.201C38.2052 113.201 38.0865 113.194 37.9721 113.181C37.8578 113.164 37.7567 113.128 37.6687 113.076C37.5808 113.018 37.5104 112.939 37.4577 112.838C37.4049 112.733 37.3785 112.59 37.3785 112.409C37.3785 112.216 37.4049 112.064 37.4577 111.954C37.5104 111.844 37.5808 111.763 37.6687 111.71C37.7567 111.658 37.8578 111.625 37.9721 111.611C38.0865 111.598 38.2052 111.592 38.3283 111.592H41.2436C41.3536 111.592 41.4657 111.598 41.58 111.611C41.6944 111.625 41.7955 111.658 41.8834 111.71C41.9758 111.763 42.0505 111.844 42.1077 111.954C42.1649 112.064 42.1934 112.216 42.1934 112.409C42.1934 112.59 42.1649 112.733 42.1077 112.838C42.0505 112.939 41.9758 113.018 41.8834 113.076C41.7955 113.128 41.6944 113.164 41.58 113.181C41.4657 113.194 41.3536 113.201 41.2436 113.201H38.6977H38.3283Z" fill="#1A1A1A"/>
<path fill-rule="evenodd" clip-rule="evenodd" d="M23.5274 109.507C23.5318 109.037 23.5934 108.645 23.7121 108.333C23.8352 108.021 24.0133 107.773 24.2463 107.588C24.4838 107.403 24.774 107.274 25.117 107.199C25.46 107.12 25.8535 107.08 26.2976 107.08H26.4691C26.8737 107.08 27.2166 107.124 27.4981 107.212C27.7795 107.3 28.0125 107.412 28.1972 107.548C28.3863 107.685 28.5336 107.839 28.6391 108.01C28.7491 108.182 28.8304 108.351 28.8832 108.518C28.9359 108.685 28.9689 108.841 28.9821 108.986C28.9953 109.131 29.0019 109.248 29.0019 109.336C29.0019 109.468 28.9755 109.589 28.9227 109.699C28.8744 109.804 28.8062 109.894 28.7183 109.969C28.6347 110.044 28.5336 110.103 28.4149 110.147C28.3682 110.163 28.3196 110.176 28.2692 110.186C28.1963 110.2 28.1195 110.206 28.0389 110.206C27.9857 110.206 27.9325 110.201 27.8792 110.191C27.8703 110.19 27.8613 110.188 27.8523 110.186C27.809 110.176 27.7656 110.163 27.7223 110.147C27.6168 110.103 27.5222 110.048 27.4387 109.982C27.3552 109.916 27.287 109.842 27.2342 109.758C27.2297 109.75 27.2253 109.743 27.2211 109.735C27.2176 109.729 27.2143 109.722 27.2111 109.716C27.1761 109.647 27.1575 109.577 27.1553 109.508C27.1552 109.503 27.1551 109.499 27.1551 109.494C27.1551 109.134 27.0891 108.883 26.9572 108.742C26.8297 108.602 26.6406 108.531 26.39 108.531C26.2712 108.531 26.1547 108.538 26.0404 108.551C25.9305 108.564 25.8315 108.602 25.7436 108.663C25.66 108.72 25.5919 108.81 25.5391 108.933C25.4907 109.057 25.4666 109.23 25.4666 109.455C25.471 109.639 25.5237 109.806 25.6249 109.956C25.7288 110.099 25.8627 110.235 26.0264 110.365C26.0288 110.367 26.0313 110.369 26.0338 110.371C26.0596 110.391 26.086 110.411 26.1128 110.431C26.1214 110.437 26.1301 110.444 26.1388 110.45C26.2831 110.555 26.4416 110.658 26.6142 110.761C26.6621 110.788 26.7102 110.816 26.7585 110.844C26.9276 110.943 27.0994 111.047 27.2738 111.156C27.2813 111.161 27.2888 111.165 27.2962 111.17C27.3078 111.177 27.3194 111.184 27.331 111.191C27.514 111.302 27.6928 111.422 27.8673 111.551C27.8916 111.568 27.9158 111.587 27.94 111.605C28.1554 111.767 28.3489 111.952 28.5204 112.159C28.6919 112.365 28.8304 112.599 28.9359 112.858C29.0415 113.117 29.0986 113.412 29.1074 113.742V113.795C29.1074 114.155 29.0635 114.47 28.9755 114.738C28.8876 115.006 28.771 115.237 28.6259 115.43C28.4808 115.624 28.3115 115.784 28.1181 115.912C27.9246 116.035 27.7201 116.134 27.5047 116.209C27.2936 116.283 27.0781 116.336 26.8583 116.367C26.6428 116.398 26.4383 116.415 26.2449 116.42H26.1789C25.8051 116.42 25.4776 116.382 25.1961 116.308C24.9147 116.233 24.6729 116.134 24.4706 116.011C24.2683 115.883 24.099 115.738 23.9627 115.575C23.8308 115.413 23.7253 115.246 23.6461 115.074C23.567 114.898 23.5098 114.725 23.4746 114.553C23.4395 114.382 23.4219 114.221 23.4219 114.072C23.4219 113.918 23.4483 113.784 23.501 113.669C23.5538 113.555 23.6219 113.463 23.7055 113.392C23.7934 113.317 23.8924 113.263 24.0023 113.227C24.1166 113.192 24.2354 113.175 24.3585 113.175C24.4728 113.175 24.5893 113.192 24.708 113.227C24.8312 113.263 24.9411 113.317 25.0378 113.392C25.139 113.463 25.2203 113.555 25.2819 113.669C25.3478 113.779 25.383 113.909 25.3874 114.058C25.3962 114.388 25.471 114.615 25.6117 114.738C25.7524 114.856 25.9546 114.916 26.2185 114.916C26.3504 114.911 26.4713 114.896 26.5812 114.87C26.6956 114.839 26.7923 114.788 26.8715 114.718C26.9506 114.643 27.0122 114.546 27.0561 114.428C27.1045 114.305 27.1287 114.151 27.1287 113.966C27.1287 113.737 27.0759 113.531 26.9704 113.346C26.8693 113.161 26.7351 112.99 26.5681 112.832C26.401 112.673 26.2097 112.524 25.9942 112.383C25.7788 112.238 25.5589 112.095 25.3346 111.954C25.1104 111.809 24.8905 111.66 24.6751 111.506C24.464 111.348 24.2727 111.176 24.1012 110.991C23.9297 110.807 23.7912 110.602 23.6857 110.378C23.5846 110.154 23.5318 109.899 23.5274 109.613V109.507ZM35.6306 107.806C35.4592 107.674 35.2811 107.564 35.0964 107.476C34.6655 107.274 34.1774 107.159 33.6321 107.133H31.4555C31.2093 107.133 31.018 107.177 30.8817 107.265C30.7498 107.348 30.653 107.46 30.5915 107.601C30.5299 107.742 30.4925 107.902 30.4793 108.083C30.4706 108.263 30.4662 108.448 30.4662 108.637V114.863C30.4662 115.052 30.4706 115.237 30.4793 115.417C30.4925 115.597 30.5299 115.758 30.5915 115.899C30.653 116.039 30.7498 116.154 30.8817 116.242C31.018 116.325 31.2093 116.367 31.4555 116.367C31.7106 116.367 31.9062 116.325 32.0425 116.242C32.1789 116.154 32.2778 116.039 32.3394 115.899C32.4053 115.758 32.4427 115.597 32.4515 115.417C32.4647 115.237 32.4713 115.052 32.4713 114.863V112.726H33.3155C33.8212 112.726 34.2741 112.667 34.6743 112.548C35.0788 112.425 35.4196 112.245 35.6966 112.007C35.978 111.765 36.1913 111.468 36.3364 111.117C36.4859 110.761 36.5606 110.347 36.5606 109.877C36.5606 109.534 36.5189 109.232 36.4353 108.973C36.3518 108.709 36.2397 108.483 36.0989 108.294C35.9626 108.1 35.8065 107.938 35.6306 107.806ZM34.3774 109.197C34.3247 109.114 34.2653 109.043 34.1994 108.986C34.1334 108.929 34.0652 108.881 33.9949 108.841C33.9395 108.813 33.8819 108.789 33.8221 108.769C33.7016 108.728 33.5724 108.701 33.4343 108.689H32.4713V111.156H33.3683C33.5317 111.146 33.683 111.115 33.8221 111.061C33.8701 111.043 33.9168 111.022 33.9619 110.998C34.0367 110.958 34.1092 110.908 34.1796 110.846C34.2499 110.785 34.3137 110.71 34.3709 110.622C34.428 110.53 34.472 110.422 34.5028 110.299C34.5379 110.176 34.5555 110.035 34.5555 109.877C34.5555 109.727 34.5379 109.597 34.5028 109.488C34.472 109.373 34.4302 109.276 34.3774 109.197ZM41.58 113.181C41.4657 113.194 41.3536 113.201 41.2436 113.201H38.3283C38.2052 113.201 38.0865 113.194 37.9721 113.181C37.8578 113.164 37.7567 113.128 37.6687 113.076C37.5808 113.018 37.5104 112.939 37.4577 112.838C37.4049 112.733 37.3785 112.59 37.3785 112.409C37.3785 112.216 37.4049 112.064 37.4577 111.954C37.5104 111.844 37.5808 111.763 37.6687 111.71C37.7567 111.658 37.8578 111.625 37.9721 111.611C38.0865 111.598 38.2052 111.592 38.3283 111.592H41.2436C41.3536 111.592 41.4657 111.598 41.58 111.611C41.6944 111.625 41.7955 111.658 41.8834 111.71C41.9758 111.763 42.0505 111.844 42.1077 111.954C42.1649 112.064 42.1934 112.216 42.1934 112.409C42.1934 112.59 42.1649 112.733 42.1077 112.838C42.0505 112.939 41.9758 113.018 41.8834 113.076C41.7955 113.128 41.6944 113.164 41.58 113.181Z" fill="#1A1A1A"/>
<path d="M36.6505 37.9913C36.0237 37.9913 35.4114 37.9228 34.8134 37.7859C34.2227 37.6419 33.7364 37.4509 33.3545 37.2132L34.1758 35.3545C34.536 35.5634 34.9395 35.7327 35.3862 35.8624C35.8328 35.9849 36.2615 36.0461 36.6721 36.0461C37.0251 36.0461 37.2773 36.0137 37.4286 35.9488C37.5799 35.8768 37.6555 35.7723 37.6555 35.6354C37.6555 35.4769 37.5547 35.3581 37.3529 35.2788C37.1584 35.1996 36.8342 35.1131 36.3804 35.0195C35.7968 34.897 35.3105 34.7673 34.9215 34.6304C34.5324 34.4864 34.1938 34.2558 33.9057 33.9388C33.6175 33.6146 33.4734 33.1788 33.4734 32.6312C33.4734 32.1558 33.6067 31.7235 33.8732 31.3345C34.1398 30.9454 34.536 30.6392 35.062 30.4159C35.5951 30.1926 36.2399 30.0809 36.9963 30.0809C37.515 30.0809 38.0229 30.1385 38.52 30.2538C39.0243 30.3619 39.4674 30.524 39.8492 30.7401L39.082 32.588C38.3399 32.2134 37.6375 32.0261 36.9747 32.0261C36.3191 32.0261 35.9913 32.1846 35.9913 32.5016C35.9913 32.6528 36.0886 32.7681 36.2831 32.8474C36.4776 32.9194 36.7982 32.9987 37.2449 33.0851C37.8212 33.1932 38.3075 33.3193 38.7038 33.4633C39.1 33.6002 39.4422 33.8272 39.7304 34.1441C40.0257 34.4611 40.1734 34.8934 40.1734 35.4409C40.1734 35.9164 40.0402 36.3487 39.7736 36.7377C39.507 37.1195 39.1072 37.4257 38.5741 37.6563C38.0482 37.8796 37.407 37.9913 36.6505 37.9913ZM44.8443 37.9913C44.0446 37.9913 43.3242 37.8256 42.683 37.4942C42.0418 37.1556 41.5375 36.6873 41.1701 36.0893C40.8099 35.4842 40.6298 34.7997 40.6298 34.0361C40.6298 33.2724 40.8099 32.5916 41.1701 31.9937C41.5375 31.3885 42.0418 30.9202 42.683 30.5888C43.3242 30.2502 44.0446 30.0809 44.8443 30.0809C45.5791 30.0809 46.2347 30.2106 46.8111 30.4699C47.3874 30.7293 47.8629 31.1039 48.2375 31.5938L46.6274 33.0311C46.1591 32.4403 45.608 32.1449 44.974 32.1449C44.4409 32.1449 44.0122 32.3178 43.688 32.6637C43.3638 33.0023 43.2017 33.4597 43.2017 34.0361C43.2017 34.6124 43.3638 35.0735 43.688 35.4193C44.0122 35.7579 44.4409 35.9272 44.974 35.9272C45.608 35.9272 46.1591 35.6318 46.6274 35.0411L48.2375 36.4784C47.8629 36.9682 47.3874 37.3429 46.8111 37.6022C46.2347 37.8616 45.5791 37.9913 44.8443 37.9913ZM54.0231 36.5H51.1485L50.6406 37.8184H48.0471L51.3539 30.2538H53.861L57.1678 37.8184H54.531L54.0231 36.5ZM53.3207 34.6629L52.5858 32.7609L51.851 34.6629H53.3207ZM65.0313 30.2538V37.8184H62.9348L60.0603 34.3819V37.8184H57.5748V30.2538H59.6712L62.5458 33.6903V30.2538H65.0313ZM76.254 37.8184L76.2324 34.3711L74.5898 37.1375H73.4659L71.8233 34.49V37.8184H69.4999V30.2538H71.5964L74.0603 34.2846L76.4593 30.2538H78.5558L78.5774 37.8184H76.254ZM86.0998 35.8948V37.8184H79.8104V30.2538H85.9593V32.1774H82.3175V33.0635H85.5163V34.9006H82.3175V35.8948H86.0998Z" fill="#E1251B"/>
<path d="M39.3721 43.2538H40.4527V50.8184H39.3721V43.2538ZM42.8255 42.7351C43.0272 42.7351 43.1929 42.8071 43.3226 42.9512C43.4595 43.0881 43.5279 43.261 43.5279 43.4699C43.5279 43.578 43.5171 43.6861 43.4955 43.7941C43.4739 43.895 43.4271 44.0427 43.355 44.2372L42.8363 45.7501H42.1555L42.5553 44.1399C42.4185 44.0895 42.3068 44.0067 42.2203 43.8914C42.1411 43.7689 42.1015 43.6284 42.1015 43.4699C42.1015 43.2538 42.1699 43.0773 42.3068 42.9404C42.4437 42.8035 42.6166 42.7351 42.8255 42.7351ZM52.1792 45.0369C52.8996 45.0369 53.4688 45.2458 53.8866 45.6637C54.3117 46.0815 54.5242 46.7011 54.5242 47.5224V50.8184H53.4868V47.6412C53.4868 47.0865 53.3571 46.6687 53.0978 46.3877C52.8456 46.1067 52.4818 45.9662 52.0063 45.9662C51.4804 45.9662 51.0625 46.1319 50.7528 46.4633C50.443 46.7875 50.2881 47.2558 50.2881 47.8682V50.8184H49.2506V47.6412C49.2506 47.0865 49.121 46.6687 48.8616 46.3877C48.6095 46.1067 48.2456 45.9662 47.7702 45.9662C47.2442 45.9662 46.8264 46.1319 46.5166 46.4633C46.2068 46.7875 46.0519 47.2558 46.0519 47.8682V50.8184H45.0145V45.0909H46.0087V45.9446C46.2176 45.6492 46.4914 45.4259 46.83 45.2746C47.1686 45.1161 47.554 45.0369 47.9863 45.0369C48.433 45.0369 48.8292 45.1269 49.175 45.307C49.5208 45.4871 49.7874 45.7501 49.9747 46.0959C50.1908 45.7645 50.4898 45.5052 50.8716 45.3178C51.2607 45.1305 51.6965 45.0369 52.1792 45.0369ZM59.4865 43.2538H60.5672V49.8782H64.6628V50.8184H59.4865V43.2538ZM68.1308 50.8832C67.5617 50.8832 67.0501 50.7571 66.5963 50.505C66.1424 50.2528 65.7858 49.907 65.5264 49.4675C65.2743 49.0209 65.1482 48.5166 65.1482 47.9546C65.1482 47.3927 65.2743 46.892 65.5264 46.4525C65.7858 46.0059 66.1424 45.6601 66.5963 45.4151C67.0501 45.163 67.5617 45.0369 68.1308 45.0369C68.6999 45.0369 69.2078 45.163 69.6545 45.4151C70.1084 45.6601 70.4614 46.0059 70.7136 46.4525C70.9729 46.892 71.1026 47.3927 71.1026 47.9546C71.1026 48.5166 70.9729 49.0209 70.7136 49.4675C70.4614 49.907 70.1084 50.2528 69.6545 50.505C69.2078 50.7571 68.6999 50.8832 68.1308 50.8832ZM68.1308 49.9755C68.4982 49.9755 68.826 49.8926 69.1142 49.7269C69.4096 49.554 69.6401 49.3163 69.8058 49.0137C69.9715 48.7039 70.0544 48.3509 70.0544 47.9546C70.0544 47.5584 69.9715 47.209 69.8058 46.9064C69.6401 46.5966 69.4096 46.3589 69.1142 46.1932C68.826 46.0275 68.4982 45.9446 68.1308 45.9446C67.7634 45.9446 67.432 46.0275 67.1366 46.1932C66.8484 46.3589 66.6179 46.5966 66.445 46.9064C66.2793 47.209 66.1964 47.5584 66.1964 47.9546C66.1964 48.3509 66.2793 48.7039 66.445 49.0137C66.6179 49.3163 66.8484 49.554 67.1366 49.7269C67.432 49.8926 67.7634 49.9755 68.1308 49.9755ZM74.1799 50.8832C73.7116 50.8832 73.2614 50.822 72.8291 50.6995C72.3968 50.5698 72.0582 50.4077 71.8133 50.2132L72.2455 49.3919C72.4977 49.572 72.8039 49.7161 73.1641 49.8242C73.5243 49.9322 73.8881 49.9863 74.2556 49.9863C75.1633 49.9863 75.6172 49.7269 75.6172 49.2082C75.6172 49.0353 75.5559 48.8984 75.4335 48.7975C75.311 48.6967 75.1561 48.6246 74.9688 48.5814C74.7887 48.531 74.5293 48.4769 74.1907 48.4193C73.7296 48.3473 73.3514 48.2644 73.056 48.1708C72.7679 48.0771 72.5193 47.9186 72.3104 47.6953C72.1015 47.4719 71.997 47.1586 71.997 46.7551C71.997 46.2364 72.2131 45.8222 72.6454 45.5124C73.0776 45.1954 73.6576 45.0369 74.3852 45.0369C74.7671 45.0369 75.1489 45.0837 75.5307 45.1774C75.9126 45.271 76.2259 45.3971 76.4709 45.5556L76.0278 46.3769C75.5595 46.0743 75.0084 45.923 74.3744 45.923C73.935 45.923 73.6 45.9951 73.3694 46.1391C73.1389 46.2832 73.0236 46.4741 73.0236 46.7119C73.0236 46.8992 73.0885 47.0469 73.2181 47.155C73.3478 47.263 73.5063 47.3423 73.6936 47.3927C73.8881 47.4431 74.1583 47.5008 74.5041 47.5656C74.9652 47.6448 75.3362 47.7313 75.6172 47.825C75.9053 47.9114 76.1503 48.0627 76.352 48.2788C76.5537 48.495 76.6546 48.7975 76.6546 49.1866C76.6546 49.7053 76.4313 50.1195 75.9846 50.4293C75.5451 50.7319 74.9436 50.8832 74.1799 50.8832ZM81.1715 50.4834C81.0202 50.613 80.8329 50.7139 80.6095 50.7859C80.3862 50.8508 80.1557 50.8832 79.9179 50.8832C79.3416 50.8832 78.8949 50.7283 78.5779 50.4185C78.2609 50.1087 78.1024 49.6657 78.1024 49.0893V45.9446H77.1298V45.0909H78.1024V43.8374H79.1398V45.0909H80.7824V45.9446H79.1398V49.0461C79.1398 49.3559 79.2155 49.5936 79.3668 49.7593C79.5253 49.925 79.7486 50.0079 80.0368 50.0079C80.3538 50.0079 80.6239 49.9178 80.8473 49.7377L81.1715 50.4834Z" fill="black"/>
<path d="M26.7193 103.353C27.9155 103.353 28.6064 102.825 28.6064 102.082C28.6064 100.507 26.1919 101.168 26.1919 100.485C26.1919 100.277 26.4147 100.113 26.9348 100.113C27.2988 100.113 27.6926 100.188 28.0864 100.411L28.4727 99.586C28.0938 99.3631 27.4846 99.2368 26.9348 99.2368C25.7684 99.2368 25.0849 99.7717 25.0849 100.53C25.0849 102.127 27.4994 101.458 27.4994 102.112C27.4994 102.335 27.2988 102.476 26.7639 102.476C26.2736 102.476 25.7312 102.32 25.3746 102.09L24.9883 102.922C25.3598 103.167 26.0433 103.353 26.7193 103.353Z" fill="#1A1A1A"/>
<path d="M31.6841 99.2368C31.1492 99.2368 30.7183 99.4077 30.4285 99.7569V99.2962H29.3215V104.735H30.4805V102.87C30.7777 103.197 31.1863 103.353 31.6841 103.353C32.8059 103.353 33.6752 102.55 33.6752 101.295C33.6752 100.039 32.8059 99.2368 31.6841 99.2368ZM31.4835 102.402C30.904 102.402 30.4657 101.986 30.4657 101.295C30.4657 100.604 30.904 100.188 31.4835 100.188C32.063 100.188 32.5013 100.604 32.5013 101.295C32.5013 101.986 32.063 102.402 31.4835 102.402Z" fill="#1A1A1A"/>
<path d="M34.8386 103.353C35.2398 103.353 35.5593 103.048 35.5593 102.625C35.5593 102.194 35.2398 101.911 34.8386 101.911C34.4374 101.911 34.1179 102.194 34.1179 102.625C34.1179 103.048 34.4374 103.353 34.8386 103.353Z" fill="#1A1A1A"/>
<path d="M39.3177 99.2962V99.8089C39.0131 99.4225 38.5525 99.2368 37.9953 99.2368C36.8883 99.2368 35.9967 100.002 35.9967 101.168C35.9967 102.335 36.8883 103.1 37.9953 103.1C38.5153 103.1 38.9537 102.937 39.2583 102.602V102.773C39.2583 103.494 38.9017 103.865 38.0844 103.865C37.5718 103.865 37.0146 103.687 36.6728 103.412L36.2122 104.244C36.6802 104.608 37.4158 104.794 38.1736 104.794C39.6149 104.794 40.4173 104.111 40.4173 102.625V99.2962H39.3177ZM38.2256 102.149C37.6164 102.149 37.1706 101.755 37.1706 101.168C37.1706 100.582 37.6164 100.188 38.2256 100.188C38.8348 100.188 39.2731 100.582 39.2731 101.168C39.2731 101.755 38.8348 102.149 38.2256 102.149Z" fill="#1A1A1A"/>
<path d="M45.4113 101.31C45.4113 100.024 44.5049 99.2368 43.3311 99.2368C42.1126 99.2368 41.1988 100.099 41.1988 101.295C41.1988 102.483 42.0978 103.353 43.4797 103.353C44.2003 103.353 44.7575 103.13 45.129 102.706L44.5124 102.038C44.2375 102.298 43.9329 102.424 43.5094 102.424C42.9002 102.424 42.4767 102.119 42.3652 101.622H45.389C45.3965 101.525 45.4113 101.399 45.4113 101.31ZM43.3385 100.113C43.8586 100.113 44.2375 100.44 44.3192 100.946H42.3504C42.4321 100.433 42.811 100.113 43.3385 100.113Z" fill="#1A1A1A"/>
<path d="M48.6124 99.2368C48.07 99.2368 47.602 99.4225 47.2899 99.7643V99.2962H46.1829V103.293H47.3419V101.317C47.3419 100.582 47.7431 100.24 48.3003 100.24C48.813 100.24 49.1102 100.537 49.1102 101.183V103.293H50.2691V101.005C50.2691 99.7866 49.5559 99.2368 48.6124 99.2368Z" fill="#1A1A1A"/>
<path d="M51.8992 98.739C52.3301 98.739 52.6199 98.4567 52.6199 98.0704C52.6199 97.7138 52.3301 97.4463 51.8992 97.4463C51.4683 97.4463 51.1786 97.7286 51.1786 98.0927C51.1786 98.4567 51.4683 98.739 51.8992 98.739ZM51.3197 103.293H52.4787V99.2962H51.3197V103.293Z" fill="#1A1A1A"/>
<path d="M56.4221 99.2962V101.272C56.4221 102.008 56.0358 102.35 55.5009 102.35C54.9883 102.35 54.6911 102.053 54.6911 101.384V99.2962H53.5321V101.555C53.5321 102.788 54.2379 103.353 55.2409 103.353C55.7312 103.353 56.177 103.167 56.4816 102.818V103.293H57.5811V99.2962H56.4221Z" fill="#1A1A1A"/>
<path d="M59.9996 103.353C61.1958 103.353 61.8867 102.825 61.8867 102.082C61.8867 100.507 59.4721 101.168 59.4721 100.485C59.4721 100.277 59.695 100.113 60.2151 100.113C60.5791 100.113 60.9729 100.188 61.3666 100.411L61.753 99.586C61.3741 99.3631 60.7648 99.2368 60.2151 99.2368C59.0486 99.2368 58.3651 99.7717 58.3651 100.53C58.3651 102.127 60.7797 101.458 60.7797 102.112C60.7797 102.335 60.5791 102.476 60.0442 102.476C59.5538 102.476 59.0115 102.32 58.6549 102.09L58.2685 102.922C58.64 103.167 59.3235 103.353 59.9996 103.353Z" fill="#1A1A1A"/>
<path d="M64.8678 102.283C64.7415 102.379 64.5706 102.431 64.3997 102.431C64.0877 102.431 63.9019 102.246 63.9019 101.904V100.277H64.8975V99.3854H63.9019V98.4121H62.7429V99.3854H62.1263V100.277H62.7429V101.919C62.7429 102.87 63.2927 103.353 64.2363 103.353C64.5929 103.353 64.9421 103.271 65.1798 103.1L64.8678 102.283Z" fill="#1A1A1A"/>
<path d="M67.4426 99.2368C66.8037 99.2368 66.1573 99.4077 65.719 99.7197L66.135 100.53C66.4248 100.299 66.8631 100.158 67.2866 100.158C67.9107 100.158 68.2078 100.448 68.2078 100.946H67.2866C66.0682 100.946 65.5704 101.436 65.5704 102.142C65.5704 102.833 66.1276 103.353 67.0637 103.353C67.6506 103.353 68.0667 103.16 68.2821 102.796V103.293H69.3668V101.012C69.3668 99.8014 68.661 99.2368 67.4426 99.2368ZM67.3535 102.573C66.9448 102.573 66.6997 102.379 66.6997 102.09C66.6997 101.822 66.8705 101.622 67.4129 101.622H68.2078V102.03C68.0741 102.394 67.7398 102.573 67.3535 102.573Z" fill="#1A1A1A"/>
<path d="M73.4831 99.2962V99.8089C73.1785 99.4225 72.7179 99.2368 72.1607 99.2368C71.0537 99.2368 70.1621 100.002 70.1621 101.168C70.1621 102.335 71.0537 103.1 72.1607 103.1C72.6807 103.1 73.1191 102.937 73.4237 102.602V102.773C73.4237 103.494 73.0671 103.865 72.2498 103.865C71.7372 103.865 71.18 103.687 70.8382 103.412L70.3776 104.244C70.8457 104.608 71.5812 104.794 72.339 104.794C73.7803 104.794 74.5827 104.111 74.5827 102.625V99.2962H73.4831ZM72.391 102.149C71.7818 102.149 71.336 101.755 71.336 101.168C71.336 100.582 71.7818 100.188 72.391 100.188C73.0002 100.188 73.4385 100.582 73.4385 101.168C73.4385 101.755 73.0002 102.149 72.391 102.149Z" fill="#1A1A1A"/>
<path d="M76.0997 103.353C76.5009 103.353 76.8204 103.048 76.8204 102.625C76.8204 102.194 76.5009 101.911 76.0997 101.911C75.6986 101.911 75.3791 102.194 75.3791 102.625C75.3791 103.048 75.6986 103.353 76.0997 103.353Z" fill="#1A1A1A"/>
<path d="M79.4867 103.353C80.3262 103.353 80.9875 102.981 81.2772 102.342L80.3782 101.852C80.1628 102.238 79.8433 102.402 79.4793 102.402C78.8924 102.402 78.4317 101.993 78.4317 101.295C78.4317 100.596 78.8924 100.188 79.4793 100.188C79.8433 100.188 80.1628 100.359 80.3782 100.738L81.2772 100.255C80.9875 99.6008 80.3262 99.2368 79.4867 99.2368C78.1866 99.2368 77.2579 100.091 77.2579 101.295C77.2579 102.498 78.1866 103.353 79.4867 103.353Z" fill="#1A1A1A"/>
<path d="M83.7957 103.353C85.0661 103.353 85.9874 102.498 85.9874 101.295C85.9874 100.091 85.0661 99.2368 83.7957 99.2368C82.5252 99.2368 81.5966 100.091 81.5966 101.295C81.5966 102.498 82.5252 103.353 83.7957 103.353ZM83.7957 102.402C83.2162 102.402 82.7704 101.986 82.7704 101.295C82.7704 100.604 83.2162 100.188 83.7957 100.188C84.3752 100.188 84.8135 100.604 84.8135 101.295C84.8135 101.986 84.3752 102.402 83.7957 102.402Z" fill="#1A1A1A"/>
<path d="M91.881 99.2368C91.2792 99.2368 90.7591 99.482 90.4397 99.8906C90.1573 99.4522 89.6819 99.2368 89.1246 99.2368C88.612 99.2368 88.1663 99.4151 87.8691 99.7569V99.2962H86.7621V103.293H87.9211V101.287C87.9211 100.574 88.2851 100.24 88.7978 100.24C89.2807 100.24 89.5556 100.537 89.5556 101.183V103.293H90.7146V101.287C90.7146 100.574 91.0786 100.24 91.5987 100.24C92.0667 100.24 92.3565 100.537 92.3565 101.183V103.293H93.5155V101.005C93.5155 99.7866 92.832 99.2368 91.881 99.2368Z" fill="#1A1A1A"/>
<path fill-rule="evenodd" clip-rule="evenodd" d="M27.4344 100.956C27.5362 100.976 27.6376 101 27.7357 101.029C27.8168 101.054 27.8957 101.082 27.9707 101.115C28.3333 101.275 28.6064 101.552 28.6064 102.082C28.6064 102.091 28.6063 102.101 28.6061 102.111C28.6049 102.158 28.6009 102.204 28.5942 102.25C28.5423 102.597 28.3272 102.887 27.9707 103.082C27.6667 103.249 27.2599 103.346 26.7639 103.352C26.7491 103.352 26.7343 103.352 26.7193 103.352C26.5751 103.352 26.4305 103.344 26.2887 103.328C26.0055 103.297 25.7332 103.236 25.4967 103.157C25.2967 103.09 25.1222 103.009 24.9883 102.921L25.3746 102.089C25.4117 102.113 25.4508 102.136 25.4917 102.158C25.6132 102.225 25.7501 102.283 25.8954 102.331C25.9904 102.362 26.0889 102.389 26.1891 102.411C26.3644 102.449 26.5447 102.472 26.7193 102.475C26.7343 102.475 26.7491 102.475 26.7639 102.475C27.0824 102.475 27.2824 102.425 27.3921 102.338C27.3952 102.335 27.3982 102.333 27.4012 102.33C27.4693 102.272 27.4994 102.198 27.4994 102.111C27.4994 102.101 27.4989 102.091 27.4977 102.082C27.4872 101.995 27.4298 101.933 27.3393 101.887C27.3393 101.887 27.3394 101.887 27.3393 101.887C27.2054 101.819 26.9987 101.783 26.7639 101.749C26.7375 101.745 26.7107 101.741 26.6836 101.737C26.5438 101.716 26.3961 101.695 26.2492 101.665C26.0745 101.631 25.901 101.585 25.7434 101.518C25.3695 101.359 25.0849 101.077 25.0849 100.529C25.0849 100.514 25.0851 100.499 25.0857 100.484C25.0878 100.424 25.0945 100.364 25.1054 100.307C25.2273 99.6687 25.8858 99.236 26.9348 99.236C27.0031 99.236 27.0723 99.238 27.1419 99.2418C27.4246 99.2574 27.7133 99.3043 27.9707 99.3786C28.042 99.3991 28.1109 99.4218 28.1766 99.4465C28.2852 99.4873 28.3851 99.5337 28.4727 99.5852L28.0864 100.41C28.0614 100.396 28.0364 100.382 28.0115 100.369C27.9979 100.362 27.9843 100.355 27.9707 100.349C27.9017 100.314 27.8328 100.285 27.7641 100.259C27.6753 100.226 27.5868 100.199 27.4992 100.178C27.3061 100.131 27.1168 100.113 26.9348 100.113C26.6044 100.113 26.394 100.179 26.2844 100.28C26.2832 100.281 26.282 100.282 26.2808 100.284C26.2204 100.341 26.1919 100.41 26.1919 100.484C26.1919 100.5 26.1931 100.515 26.1955 100.529C26.2327 100.745 26.5458 100.809 26.9348 100.871C26.9667 100.876 26.9991 100.881 27.0319 100.887C27.162 100.907 27.2985 100.928 27.4344 100.956ZM29.3215 99.2955V104.734H30.4805V102.869C30.54 102.935 30.604 102.993 30.6723 103.045C30.898 103.216 31.1705 103.314 31.4835 103.343C31.5486 103.349 31.6155 103.352 31.6841 103.352C31.7337 103.352 31.7828 103.35 31.8313 103.347C32.1941 103.324 32.5263 103.215 32.8057 103.033C32.9749 102.922 33.1248 102.785 33.2504 102.624C33.5178 102.281 33.6752 101.828 33.6752 101.294C33.6752 101.166 33.6661 101.043 33.6487 100.924C33.5001 99.9161 32.7418 99.2775 31.7793 99.238C31.7478 99.2367 31.716 99.236 31.6841 99.236C31.6155 99.236 31.5486 99.2388 31.4835 99.2445C31.3762 99.2538 31.2737 99.2707 31.1765 99.2955C30.988 99.3434 30.8191 99.4204 30.6723 99.5271C30.5826 99.5923 30.5011 99.6686 30.4285 99.7561V99.2955H29.3215ZM34.7251 101.918C34.3788 101.966 34.1179 102.234 34.1179 102.624C34.1179 102.901 34.255 103.128 34.4622 103.251C34.5714 103.316 34.7001 103.352 34.8386 103.352C34.9788 103.352 35.109 103.315 35.2191 103.248C35.2521 103.228 35.2833 103.206 35.3124 103.181C35.4272 103.082 35.5096 102.946 35.5429 102.786C35.553 102.737 35.5586 102.687 35.5592 102.634C35.5592 102.631 35.5593 102.627 35.5593 102.624C35.5593 102.243 35.31 101.979 34.9754 101.922C34.9312 101.914 34.8854 101.911 34.8386 101.911C34.7999 101.911 34.762 101.913 34.7251 101.918ZM34.5183 103.163C34.6315 103.236 34.7482 103.261 34.8386 103.261C34.953 103.261 35.1094 103.22 35.2478 103.095C35.1418 102.948 35.0477 102.791 34.9673 102.624C34.9307 102.548 34.8969 102.47 34.8661 102.39C34.8573 102.419 34.8481 102.447 34.8386 102.475C34.8219 102.525 34.804 102.575 34.7851 102.624C34.7122 102.812 34.6232 102.992 34.5183 103.163ZM47.3419 103.293V101.316C47.3419 101.009 47.4118 100.771 47.5338 100.597C47.6259 100.466 47.7479 100.372 47.8919 100.313C48.0138 100.263 48.1515 100.239 48.3003 100.239C48.4155 100.239 48.5199 100.254 48.6124 100.285C48.8916 100.377 49.0632 100.611 49.1018 101.004C49.1074 101.06 49.1102 101.12 49.1102 101.183V103.293H50.2691V101.004C50.2691 100.526 50.1593 100.151 49.9689 99.8717C49.6789 99.4462 49.2018 99.2428 48.6407 99.2362C48.6313 99.2361 48.6219 99.236 48.6124 99.236C48.5053 99.236 48.401 99.2433 48.3003 99.2575C48.233 99.2671 48.1673 99.2797 48.1034 99.2955C47.892 99.3475 47.6998 99.433 47.5338 99.5495C47.4446 99.612 47.363 99.6835 47.2899 99.7635V99.2955H46.1829V103.293H47.3419ZM40.4173 99.2955H39.3177V99.8081C39.243 99.7134 39.159 99.6308 39.0665 99.5599C38.9042 99.4358 38.7159 99.3481 38.5062 99.2955C38.4164 99.273 38.3228 99.2569 38.2256 99.2472C38.1508 99.2397 38.074 99.236 37.9953 99.236C37.9858 99.236 37.9763 99.2361 37.9669 99.2362C36.9556 99.2482 36.1302 99.9005 36.0114 100.913C36.0017 100.995 35.9967 101.08 35.9967 101.168C35.9967 101.362 36.0214 101.545 36.0678 101.715C36.168 102.084 36.3693 102.392 36.6401 102.624C36.7215 102.693 36.8091 102.756 36.9021 102.811C36.9595 102.845 37.019 102.877 37.0803 102.905C37.3541 103.031 37.6651 103.099 37.9953 103.099C38.0253 103.099 38.055 103.099 38.0844 103.098C38.1322 103.096 38.1793 103.093 38.2256 103.088C38.547 103.056 38.8305 102.954 39.0618 102.78C39.0653 102.778 39.0687 102.775 39.0721 102.772C39.1308 102.728 39.186 102.678 39.2375 102.624C39.2445 102.617 39.2514 102.609 39.2583 102.602V102.772C39.2583 102.99 39.2259 103.175 39.1582 103.328C39.0098 103.664 38.6916 103.845 38.1736 103.863C38.1445 103.864 38.1148 103.865 38.0844 103.865C38.0548 103.865 38.0251 103.864 37.9953 103.863C37.7219 103.852 37.4403 103.793 37.1889 103.697C37.0442 103.642 36.9095 103.575 36.7921 103.498C36.7742 103.486 36.7567 103.474 36.7396 103.462C36.7165 103.446 36.6943 103.429 36.6728 103.411L36.2122 104.243C36.3696 104.366 36.5573 104.468 36.766 104.55C36.985 104.636 37.2271 104.699 37.4814 104.74C37.6768 104.771 37.8794 104.788 38.0844 104.792C38.1141 104.793 38.1438 104.793 38.1736 104.793C39.3747 104.793 40.132 104.319 40.3512 103.301C40.3623 103.249 40.3721 103.195 40.3805 103.14C40.3982 103.024 40.4096 102.902 40.4145 102.772C40.4163 102.724 40.4173 102.674 40.4173 102.624V99.2955ZM39.1635 100.7C39.1359 100.647 39.1034 100.598 39.0665 100.552C38.9742 100.438 38.8543 100.347 38.7133 100.285C38.5702 100.221 38.4053 100.187 38.2256 100.187C38.1458 100.187 38.0688 100.194 37.9953 100.207C37.5072 100.293 37.1706 100.658 37.1706 101.168C37.1706 101.678 37.5072 102.042 37.9953 102.129C38.0688 102.142 38.1458 102.148 38.2256 102.148C38.3884 102.148 38.5391 102.12 38.6724 102.068C38.8312 102.005 38.9654 101.908 39.0665 101.783C39.0815 101.765 39.0959 101.746 39.1094 101.726C39.2142 101.572 39.2731 101.383 39.2731 101.168C39.2731 100.993 39.2342 100.835 39.1635 100.7ZM41.7673 102.717C42.1663 103.114 42.7569 103.352 43.4797 103.352C43.4896 103.352 43.4995 103.352 43.5094 103.352C43.6332 103.351 43.7522 103.343 43.8662 103.329C44.245 103.281 44.5684 103.162 44.8321 102.974C44.8331 102.973 44.8341 102.972 44.8351 102.972C44.8437 102.966 44.8521 102.959 44.8605 102.953C44.9587 102.88 45.0482 102.798 45.129 102.706L44.5124 102.037C44.5013 102.047 44.4902 102.058 44.479 102.068C44.4662 102.079 44.4533 102.09 44.4403 102.101C44.4007 102.135 44.3605 102.166 44.3192 102.194C44.2619 102.233 44.2027 102.267 44.141 102.296C43.9586 102.381 43.7538 102.423 43.5094 102.423C43.4994 102.423 43.4895 102.423 43.4797 102.423C43.2586 102.419 43.0629 102.375 42.8985 102.296C42.6217 102.162 42.434 101.928 42.3652 101.621H45.389C45.3912 101.593 45.394 101.562 45.3969 101.53C45.4039 101.454 45.4113 101.372 45.4113 101.309C45.4113 101.275 45.4107 101.242 45.4095 101.21C45.4068 101.138 45.4013 101.068 45.393 100.999C45.3917 100.989 45.3904 100.979 45.389 100.969C45.3802 100.903 45.3689 100.839 45.355 100.777C45.3143 100.594 45.2521 100.424 45.1714 100.27C45.0805 100.097 44.9662 99.9431 44.8321 99.8106C44.459 99.4419 43.9333 99.2377 43.3385 99.236C43.336 99.236 43.3335 99.236 43.3311 99.236C42.7002 99.236 42.1511 99.467 41.7681 99.8559C41.6469 99.9789 41.5423 100.118 41.4571 100.27C41.3709 100.424 41.3045 100.592 41.2606 100.771C41.2201 100.936 41.1988 101.111 41.1988 101.294C41.1988 101.494 41.2244 101.686 41.2735 101.865C41.3151 102.018 41.3738 102.162 41.4481 102.296C41.5134 102.413 41.5908 102.523 41.6794 102.624C41.7076 102.656 41.7369 102.687 41.7673 102.717ZM42.3504 100.945C42.3546 100.919 42.3595 100.893 42.3652 100.868C42.4247 100.606 42.5661 100.4 42.7671 100.27C42.9228 100.169 43.1143 100.114 43.3311 100.113C43.3335 100.113 43.336 100.113 43.3385 100.113C43.5537 100.113 43.7447 100.169 43.9005 100.27C44 100.335 44.0852 100.418 44.1531 100.517C44.2358 100.638 44.2929 100.782 44.3192 100.945H42.3504ZM51.3197 103.293H52.4787V99.2955H51.3197V103.293ZM52.2423 98.668C52.3372 98.6248 52.4172 98.563 52.4787 98.4867C52.5692 98.3745 52.6199 98.2312 52.6199 98.0696C52.6199 98.0266 52.6157 97.9848 52.6075 97.9447C52.5672 97.7473 52.4312 97.5889 52.2304 97.5068C52.2508 97.5218 52.2711 97.5384 52.2914 97.5571C52.407 97.6633 52.4825 97.8017 52.5134 97.9447H51.282C51.3083 97.816 51.3756 97.6779 51.4953 97.5651C51.5141 97.5475 51.5329 97.5316 51.5518 97.5172C51.3662 97.6021 51.2387 97.7563 51.1951 97.9447C51.1842 97.9918 51.1786 98.041 51.1786 98.0919C51.1786 98.2441 51.2292 98.3821 51.3197 98.4911C51.3862 98.5712 51.4742 98.6356 51.5794 98.6786C51.6733 98.717 51.7809 98.7383 51.8992 98.7383C52.0019 98.7383 52.0966 98.7222 52.1813 98.6926C52.2022 98.6852 52.2226 98.677 52.2423 98.668ZM53.5321 99.2955V101.554C53.5321 102.035 53.6393 102.414 53.8295 102.698C54.1093 103.115 54.5687 103.326 55.1308 103.35C55.167 103.351 55.2037 103.352 55.2409 103.352C55.3292 103.352 55.416 103.346 55.5009 103.334C55.5709 103.324 55.6396 103.31 55.7066 103.293C55.8973 103.242 56.0743 103.159 56.2303 103.046C56.3218 102.98 56.406 102.904 56.4816 102.817V103.293H57.5811V99.2955H56.4221V101.272C56.4221 101.585 56.3521 101.827 56.2303 102.001C56.1377 102.134 56.0151 102.228 55.8706 102.284C55.7591 102.328 55.6347 102.349 55.5009 102.349C55.4068 102.349 55.3199 102.339 55.2409 102.318C54.9278 102.237 54.7364 101.992 54.6982 101.554C54.6935 101.5 54.6911 101.443 54.6911 101.383V99.2955H53.5321ZM58.6549 102.089C58.692 102.113 58.7311 102.136 58.7719 102.158C58.8228 102.186 58.8763 102.212 58.932 102.237C59.0094 102.271 59.0911 102.303 59.1757 102.331C59.2706 102.362 59.3692 102.389 59.4693 102.411C59.6447 102.449 59.825 102.472 59.9996 102.475C60.0145 102.475 60.0294 102.475 60.0442 102.475C60.3627 102.475 60.5627 102.425 60.6723 102.338C60.6754 102.335 60.6785 102.333 60.6814 102.33C60.7495 102.272 60.7797 102.198 60.7797 102.111C60.7797 102.101 60.7791 102.091 60.778 102.082C60.7674 101.995 60.7101 101.933 60.6196 101.887C60.6196 101.887 60.6196 101.887 60.6196 101.887C60.4856 101.819 60.279 101.783 60.0442 101.749C60.0177 101.745 59.9909 101.741 59.9639 101.737C59.824 101.716 59.6763 101.695 59.5295 101.665C59.3548 101.631 59.1813 101.585 59.0236 101.518C58.9924 101.505 58.9618 101.49 58.932 101.475C58.6042 101.31 58.3651 101.031 58.3651 100.529C58.3651 100.514 58.3654 100.499 58.3659 100.484C58.3681 100.424 58.3747 100.364 58.3857 100.307C58.4453 99.995 58.633 99.7322 58.932 99.5449C59.2446 99.3491 59.6788 99.236 60.2151 99.236C60.2834 99.236 60.3526 99.238 60.4221 99.2418C60.5398 99.2483 60.6585 99.2602 60.7755 99.2773C60.9473 99.3023 61.1155 99.3384 61.2717 99.3846C61.3356 99.4036 61.3975 99.4242 61.4569 99.4465C61.5655 99.4873 61.6654 99.5337 61.753 99.5852L61.3666 100.41C61.3417 100.396 61.3167 100.382 61.2918 100.369C61.224 100.334 61.1563 100.303 61.0888 100.276C61.074 100.27 61.0591 100.264 61.0443 100.259C60.9555 100.226 60.8671 100.199 60.7795 100.178C60.7781 100.177 60.7768 100.177 60.7755 100.177C60.5838 100.131 60.3958 100.113 60.2151 100.113C59.8847 100.113 59.6742 100.179 59.5647 100.28C59.5635 100.281 59.5623 100.282 59.5611 100.284C59.5006 100.341 59.4721 100.41 59.4721 100.484C59.4721 100.5 59.4734 100.515 59.4758 100.529C59.5129 100.745 59.8261 100.809 60.2151 100.871C60.2469 100.876 60.2793 100.881 60.3121 100.887C60.4423 100.907 60.5788 100.928 60.7147 100.956C60.735 100.96 60.7552 100.964 60.7755 100.968C60.8567 100.986 60.9374 101.006 61.016 101.029C61.1498 101.07 61.2776 101.12 61.3921 101.186C61.5692 101.289 61.7144 101.429 61.8007 101.627C61.838 101.713 61.8643 101.809 61.8773 101.918C61.8835 101.97 61.8867 102.024 61.8867 102.082C61.8867 102.091 61.8866 102.101 61.8863 102.111C61.8851 102.158 61.8812 102.204 61.8744 102.25C61.8381 102.493 61.7216 102.708 61.5326 102.883C61.2216 103.169 60.7143 103.344 60.0442 103.352C60.0294 103.352 60.0145 103.352 59.9996 103.352C59.8554 103.352 59.7108 103.344 59.569 103.328C59.3458 103.303 59.1294 103.261 58.932 103.205C58.8789 103.19 58.8271 103.174 58.777 103.157C58.5769 103.09 58.4025 103.009 58.2685 102.921L58.6549 102.089ZM75.8843 103.321C75.9522 103.341 76.0245 103.352 76.0997 103.352C76.2487 103.352 76.3864 103.31 76.5007 103.235C76.6941 103.109 76.8204 102.89 76.8204 102.624C76.8204 102.193 76.5009 101.911 76.0997 101.911C76.0521 101.911 76.0057 101.915 75.9608 101.922C75.9516 101.924 75.9425 101.926 75.9335 101.928C75.6138 101.994 75.3791 102.255 75.3791 102.624C75.3791 102.968 75.59 103.234 75.8843 103.321ZM75.8976 103.223C75.9221 103.025 75.9335 102.825 75.9335 102.624V102.025C75.9484 102.021 75.9633 102.017 75.9782 102.014C76.0092 102.166 76.0499 102.314 76.0997 102.455C76.1198 102.512 76.1414 102.569 76.1643 102.624C76.2414 102.809 76.3344 102.984 76.4416 103.148C76.3217 103.232 76.1959 103.261 76.0997 103.261C76.0408 103.261 75.9707 103.25 75.8976 103.223ZM74.5827 99.2955H73.4831V99.8081C73.4084 99.7134 73.3244 99.6308 73.2319 99.5599C73.0696 99.4358 72.8813 99.3481 72.6716 99.2955C72.5818 99.273 72.4882 99.2569 72.391 99.2472C72.3163 99.2397 72.2394 99.236 72.1607 99.236C72.1512 99.236 72.1417 99.2361 72.1323 99.2362C71.4944 99.2438 70.9304 99.5061 70.5711 99.953C70.3425 100.237 70.1968 100.596 70.1676 101.012C70.164 101.063 70.1621 101.115 70.1621 101.168C70.1621 101.362 70.1869 101.545 70.2332 101.715C70.3222 102.043 70.4911 102.323 70.7177 102.544C70.8699 102.692 71.0481 102.814 71.2457 102.905C71.5196 103.031 71.8305 103.099 72.1607 103.099C72.1907 103.099 72.2204 103.099 72.2498 103.098C72.2976 103.096 72.3447 103.093 72.391 103.088C72.7124 103.056 72.9959 102.954 73.2272 102.78C73.2307 102.778 73.2341 102.775 73.2375 102.772C73.2962 102.728 73.3514 102.678 73.4029 102.624C73.4099 102.617 73.4168 102.609 73.4237 102.602V102.772C73.4237 102.99 73.3913 103.175 73.3237 103.328C73.1752 103.664 72.857 103.845 72.339 103.863C72.3099 103.864 72.2802 103.865 72.2498 103.865C72.2202 103.865 72.1905 103.864 72.1607 103.863C71.8873 103.852 71.6057 103.793 71.3543 103.697C71.2096 103.642 71.0749 103.575 70.9575 103.498C70.9154 103.47 70.8755 103.441 70.8382 103.411L70.3776 104.243C70.4792 104.323 70.5934 104.393 70.7177 104.455C70.786 104.489 70.8574 104.521 70.9314 104.55C71.1504 104.636 71.3925 104.699 71.6468 104.74C71.8422 104.771 72.0449 104.788 72.2498 104.792C72.2795 104.793 72.3092 104.793 72.339 104.793C73.339 104.793 74.0314 104.464 74.3617 103.767C74.4281 103.626 74.4799 103.471 74.5166 103.301C74.5515 103.138 74.5727 102.962 74.5799 102.772C74.5818 102.724 74.5827 102.674 74.5827 102.624V99.2955ZM73.3289 100.7C73.3013 100.647 73.2688 100.598 73.2319 100.552C73.1396 100.438 73.0197 100.347 72.8787 100.285C72.7356 100.221 72.5707 100.187 72.391 100.187C72.3112 100.187 72.2342 100.194 72.1607 100.207C71.6727 100.293 71.336 100.658 71.336 101.168C71.336 101.678 71.6727 102.042 72.1607 102.129C72.2342 102.142 72.3112 102.148 72.391 102.148C72.5538 102.148 72.7045 102.12 72.8378 102.068C72.9966 102.005 73.1308 101.908 73.2319 101.783C73.2469 101.765 73.2613 101.746 73.2748 101.726C73.3796 101.572 73.4385 101.383 73.4385 101.168C73.4385 100.993 73.3996 100.835 73.3289 100.7ZM69.3668 101.012C69.3668 100.989 69.3666 100.967 69.3661 100.945C69.3605 100.691 69.3227 100.466 69.2546 100.27C69.2045 100.126 69.138 99.9975 69.0558 99.8843C68.9479 99.7355 68.813 99.6131 68.6528 99.5162C68.341 99.3276 67.9334 99.236 67.4426 99.236C67.3906 99.236 67.3386 99.2372 67.2866 99.2394C67.1917 99.2435 67.097 99.2513 67.0033 99.2628C66.7474 99.294 66.4985 99.3522 66.2709 99.4354C66.2633 99.4382 66.2558 99.4409 66.2483 99.4438C66.0524 99.5172 65.8729 99.6094 65.719 99.719L66.135 100.529C66.1685 100.502 66.204 100.477 66.2412 100.453C66.2436 100.451 66.2459 100.449 66.2483 100.448C66.3733 100.368 66.5174 100.302 66.6712 100.253C66.867 100.191 67.0786 100.157 67.2866 100.157C67.3411 100.157 67.3931 100.159 67.4426 100.164C67.601 100.178 67.7341 100.214 67.8426 100.27C67.944 100.323 68.0239 100.393 68.0827 100.48C68.1666 100.603 68.2078 100.759 68.2078 100.945H67.2866C67.1325 100.945 66.9899 100.953 66.8584 100.968C66.7402 100.981 66.6309 101.001 66.5302 101.026C66.4273 101.051 66.3335 101.083 66.2483 101.119C66.1288 101.171 66.0263 101.232 65.9399 101.303C65.8268 101.396 65.7412 101.505 65.6811 101.627C65.6234 101.744 65.5891 101.873 65.5762 102.012C65.5739 102.037 65.5722 102.063 65.5713 102.089C65.5707 102.106 65.5704 102.123 65.5704 102.141C65.5704 102.259 65.5868 102.373 65.6187 102.48C65.6599 102.618 65.727 102.744 65.8181 102.856C66.0129 103.094 66.3172 103.263 66.712 103.325C66.7823 103.337 66.8554 103.344 66.9313 103.348C66.9746 103.351 67.0187 103.352 67.0637 103.352C67.1655 103.352 67.2621 103.346 67.3535 103.335C67.4319 103.325 67.5064 103.311 67.5769 103.293C67.747 103.249 67.8938 103.181 68.016 103.09C68.0643 103.054 68.1087 103.015 68.1492 102.972C68.1698 102.95 68.1893 102.927 68.2078 102.904C68.2348 102.869 68.2596 102.833 68.2821 102.795V103.293H69.3668V101.012ZM68.016 102.329C68.027 102.318 68.0377 102.307 68.0481 102.296C68.1154 102.222 68.1697 102.133 68.2078 102.03V101.621H67.4129C67.411 101.621 67.4091 101.621 67.4072 101.621C67.3889 101.621 67.3709 101.621 67.3535 101.622C67.3304 101.622 67.3082 101.623 67.2866 101.625C67.2371 101.628 67.1913 101.633 67.1491 101.641C67.0218 101.662 66.9264 101.7 66.857 101.752C66.7434 101.835 66.6997 101.954 66.6997 102.089C66.6997 102.107 66.7006 102.124 66.7024 102.141C66.711 102.222 66.74 102.294 66.7873 102.355C66.7879 102.356 66.7885 102.356 66.7891 102.357C66.8512 102.436 66.9442 102.496 67.0637 102.533C67.1477 102.558 67.2448 102.572 67.3535 102.572C67.3734 102.572 67.3932 102.571 67.4129 102.57C67.5404 102.564 67.6612 102.538 67.7697 102.491C67.8609 102.452 67.9435 102.399 68.014 102.331C68.0147 102.33 68.0154 102.329 68.016 102.329ZM64.8975 100.276H63.9019V101.903C63.9019 101.908 63.902 101.913 63.9021 101.918C63.9063 102.185 64.0267 102.354 64.2335 102.41C64.2344 102.41 64.2354 102.411 64.2363 102.411C64.2859 102.424 64.3406 102.431 64.3997 102.431C64.4305 102.431 64.4612 102.429 64.4917 102.426C64.5521 102.419 64.6115 102.406 64.6678 102.387C64.7411 102.362 64.8092 102.327 64.8678 102.282L65.1798 103.099C65.0229 103.212 64.8173 103.286 64.5931 103.323C64.5686 103.327 64.5439 103.331 64.519 103.334C64.4797 103.339 64.4398 103.343 64.3997 103.346C64.3457 103.35 64.291 103.352 64.2363 103.352C64.0861 103.352 63.9459 103.34 63.8163 103.315C63.5102 103.258 63.2632 103.132 63.0837 102.939C62.8899 102.731 62.7748 102.445 62.7487 102.082C62.7449 102.029 62.7429 101.974 62.7429 101.918V100.276H62.1263V99.3846H62.7429V98.4114H63.9019V99.3846H64.8975V100.276ZM86.7621 103.293H87.9211V101.287C87.9211 100.974 87.9911 100.734 88.1129 100.563C88.2074 100.431 88.3331 100.34 88.4815 100.289C88.5781 100.255 88.6843 100.239 88.7978 100.239C88.9205 100.239 89.0299 100.258 89.1246 100.297C89.2463 100.348 89.3439 100.431 89.4153 100.55C89.4244 100.565 89.4331 100.58 89.4414 100.596C89.4965 100.705 89.5323 100.839 89.5474 100.999C89.5528 101.057 89.5556 101.118 89.5556 101.183V103.293H90.7146V101.287C90.7146 101.251 90.7155 101.216 90.7173 101.183C90.7291 100.96 90.7791 100.779 90.8601 100.637C90.9182 100.534 90.9923 100.452 91.0795 100.39C91.2215 100.289 91.3986 100.239 91.5987 100.239C91.7018 100.239 91.7963 100.253 91.881 100.283C92.1431 100.374 92.3107 100.609 92.3484 101.004C92.3538 101.06 92.3565 101.12 92.3565 101.183V103.293H93.5155V101.004C93.5155 99.7858 92.832 99.236 91.881 99.236C91.7846 99.236 91.6904 99.2423 91.5987 99.2546C91.5131 99.266 91.4297 99.2826 91.3491 99.3041C91.0245 99.3907 90.7428 99.5567 90.5298 99.7845C90.4982 99.8183 90.4681 99.8534 90.4397 99.8898C90.335 99.7273 90.2037 99.5954 90.0516 99.4938C89.9519 99.4272 89.8433 99.3736 89.7273 99.3329C89.5703 99.2778 89.3999 99.2463 89.2199 99.2382C89.1884 99.2367 89.1567 99.236 89.1246 99.236C89.0122 99.236 88.9029 99.2446 88.7978 99.2616C88.7424 99.2706 88.6882 99.2819 88.6352 99.2955C88.4424 99.345 88.2663 99.4251 88.1129 99.5347C88.0235 99.5985 87.9418 99.6724 87.8691 99.7561V99.2955H86.7621V103.293ZM77.2885 100.924C77.2683 101.043 77.2579 101.166 77.2579 101.294C77.2579 101.817 77.4333 102.274 77.7383 102.624C77.855 102.758 77.9907 102.876 78.1428 102.976C78.5062 103.215 78.9633 103.351 79.4793 103.352C79.4818 103.352 79.4842 103.352 79.4867 103.352C79.7236 103.352 79.9462 103.322 80.1504 103.266C80.3529 103.209 80.5373 103.126 80.6991 103.018C80.8859 102.894 81.0427 102.737 81.1631 102.551C81.2041 102.487 81.2409 102.42 81.2732 102.35C81.2746 102.347 81.2759 102.344 81.2772 102.342L80.3783 101.851C80.3658 101.874 80.3528 101.895 80.3396 101.916C80.3291 101.933 80.3183 101.949 80.3074 101.965C80.1566 102.182 79.9662 102.311 79.7514 102.367C79.6667 102.389 79.5781 102.4 79.4867 102.401C79.4842 102.401 79.4818 102.401 79.4793 102.401C78.8924 102.401 78.4317 101.992 78.4317 101.294C78.4317 100.596 78.8924 100.187 79.4793 100.187C79.4818 100.187 79.4842 100.187 79.4867 100.187C79.5746 100.188 79.6599 100.198 79.7417 100.219C79.9603 100.276 80.1541 100.407 80.3071 100.624C80.3175 100.639 80.3278 100.654 80.3379 100.67C80.3517 100.692 80.3652 100.714 80.3782 100.737L81.2772 100.254C81.2739 100.246 81.2705 100.239 81.2671 100.231C81.2353 100.163 81.1994 100.097 81.1595 100.035C81.0398 99.848 80.8845 99.6918 80.6998 99.5684C80.5393 99.4611 80.3566 99.3788 80.1559 99.3228C79.9503 99.2655 79.7257 99.236 79.4867 99.236C79.4842 99.236 79.4818 99.236 79.4793 99.236C78.3207 99.2389 77.4586 99.921 77.2885 100.924ZM81.6179 101.604C81.622 101.634 81.6267 101.663 81.6319 101.691C81.7097 102.117 81.9128 102.484 82.2087 102.764C82.2898 102.841 82.378 102.911 82.4724 102.974C82.8337 103.215 83.2874 103.352 83.7957 103.352C84.4548 103.352 85.02 103.122 85.4113 102.733C85.7741 102.371 85.9874 101.873 85.9874 101.294C85.9874 100.715 85.7741 100.217 85.4113 99.8555C85.02 99.466 84.4548 99.236 83.7957 99.236C83.2863 99.236 82.8318 99.3734 82.4701 99.6156C82.3638 99.6868 82.2655 99.767 82.1762 99.8555C81.895 100.134 81.7028 100.494 81.6296 100.91C81.625 100.936 81.6209 100.962 81.6172 100.988C81.6036 101.087 81.5966 101.189 81.5966 101.294C81.5966 101.4 81.6038 101.504 81.6179 101.604ZM82.8121 101.64C82.7849 101.534 82.7704 101.419 82.7704 101.294C82.7704 101.176 82.7834 101.066 82.8078 100.965C82.8355 100.85 82.8779 100.747 82.9327 100.655C83.1128 100.355 83.4272 100.187 83.7957 100.187C84.3752 100.187 84.8135 100.603 84.8135 101.294C84.8135 101.985 84.3752 102.401 83.7957 102.401C83.4323 102.401 83.1215 102.237 82.9403 101.945C82.8845 101.855 82.8411 101.753 82.8121 101.64ZM30.5369 101.741C30.5711 101.839 30.6168 101.927 30.6723 102.004C30.7767 102.15 30.916 102.258 31.0791 102.325C31.2019 102.375 31.3383 102.401 31.4835 102.401C31.5525 102.401 31.6196 102.395 31.6841 102.384C32.1612 102.298 32.5013 101.903 32.5013 101.294C32.5013 100.685 32.1612 100.29 31.6841 100.204C31.6196 100.193 31.5525 100.187 31.4835 100.187C31.3279 100.187 31.1825 100.217 31.053 100.274C30.9011 100.341 30.7711 100.446 30.6723 100.584C30.6063 100.676 30.5543 100.783 30.5189 100.903C30.4843 101.021 30.4657 101.152 30.4657 101.294C30.4657 101.459 30.4908 101.609 30.5369 101.741Z" fill="#1A1A1A"/>
<path d="M59.9485 18.2632C62.7656 18.2632 65.0493 16.0396 65.0493 13.2966C65.0493 10.5537 62.7656 8.33008 59.9485 8.33008C57.1314 8.33008 54.8477 10.5537 54.8477 13.2966C54.8477 16.0396 57.1314 18.2632 59.9485 18.2632Z" fill="white" stroke="#1A1A1A" stroke-width="1.34232" stroke-miterlimit="10"/>
<path d="M188.762 72.9575C188.985 72.4521 188.756 71.8619 188.251 71.6392C187.745 71.4164 187.155 71.6456 186.932 72.151L188.762 72.9575ZM113.711 111.284C113.285 111.635 113.224 112.265 113.576 112.691L119.3 119.636C119.652 120.062 120.282 120.123 120.708 119.772C121.134 119.42 121.195 118.79 120.844 118.364L115.755 112.191L121.928 107.102C122.354 106.751 122.415 106.121 122.064 105.695C121.713 105.269 121.082 105.208 120.656 105.559L113.711 111.284ZM186.932 72.151C174.143 101.173 145.239 114.026 114.443 111.06L114.252 113.051C145.709 116.081 175.552 102.937 188.762 72.9575L186.932 72.151Z" fill="#F93348"/>
</svg>
