<svg width="337" height="250" viewBox="0 0 337 250" fill="none" xmlns="http://www.w3.org/2000/svg">
<path d="M166.136 25.9441C163.493 32.8566 160.817 38.0792 157.544 42.7236C155.108 46.1891 154.666 47.2309 155.513 47.619C157.013 48.3417 161.503 43.0173 165.275 36.0347L167.56 31.7574C166.515 52.2487 166.214 54.4938 169.95 50.938C171.379 49.5778 171.541 48.9944 171.718 43.8083C171.828 41.3138 171.971 39.5052 172.111 39.8025C175.933 48.5885 176.863 49.6153 179.019 47.563C180.624 46.0357 180.379 44.071 177.957 39.0166C175.863 34.6067 171.967 21.8282 172.048 19.5533C172.192 16.6922 169.462 17.1877 166.136 25.9441Z" fill="#00426A"/>
<path d="M165.085 88.349C162.175 98.095 164.726 107.805 167.949 99.2415C168.499 97.8106 168.689 86.1611 168.188 85.6346C167.327 84.7809 165.725 86.2103 165.085 88.349Z" fill="#00426A"/>
<path d="M165.818 62.6602C165.167 67.198 165.122 77.9452 165.719 78.572C168.845 81.8566 171.573 68.556 169.502 60.2049C168.789 57.3472 166.325 58.9757 165.818 62.6602Z" fill="#00426A"/>
<path d="M164.099 140.132C163.985 148.699 164.733 154.104 166.059 153.94C169.277 153.506 169.951 147.034 167.887 136.431C167.214 132.962 164.153 135.971 164.099 140.132Z" fill="#00426A"/>
<path d="M164.726 113.732C164.206 115.947 163.995 127.474 164.448 127.95C167.575 131.235 169.783 122.108 168.293 112.057C167.922 109.257 165.52 110.348 164.726 113.732Z" fill="#00426A"/>
<g clip-path="url(#clip0_297_72905)">
<path d="M193.823 195.935C193.926 191.712 193.979 187.418 194.029 183.265L194.051 181.494C194.061 180.676 194.019 179.857 193.925 179.044C193.629 176.458 192.352 174.55 190.13 173.372C188.33 172.419 186.383 172.231 184.888 172.174L180.996 172.022C174.351 171.763 167.478 171.495 160.716 171.347C157.951 171.283 155.187 171.473 152.457 171.916C148.526 172.562 146.136 174.912 145.546 178.714C145.095 181.622 144.816 184.617 144.582 187.421C144.422 189.335 144.339 191.285 144.258 193.172C144.229 193.847 144.2 194.522 144.168 195.195C144.13 195.98 144.087 196.764 144.044 197.548C143.934 199.54 143.821 201.598 143.806 203.625C143.785 206.607 143.809 209.639 143.832 212.57C143.85 214.798 143.868 217.101 143.867 219.366C143.863 225.318 143.812 231.233 143.763 236.233C143.719 238.359 143.972 240.48 144.514 242.535C145.27 245.31 146.958 247.049 149.674 247.849C152.014 248.538 154.553 248.865 157.9 248.906C161.412 248.948 164.628 248.969 167.652 248.969C170.856 248.969 173.843 248.945 176.731 248.896C179.216 248.854 181.737 248.636 184.175 248.424C184.931 248.359 185.687 248.294 186.443 248.233C188.41 248.075 189.876 246.996 190.796 245.024C191.138 244.282 191.423 243.515 191.65 242.73C192.9 238.512 193.092 234.116 193.174 230.327C193.29 224.947 193.342 219.477 193.392 214.187C193.413 211.94 193.436 209.693 193.461 207.445L193.408 207.296C193.451 206.17 193.495 205.044 193.542 203.917C193.649 201.302 193.758 198.598 193.823 195.935ZM189.224 236.544L188.968 237.783C188.603 239.555 188.226 241.387 187.791 243.172C187.484 244.432 186.626 245.115 185.241 245.201C184.182 245.267 183.107 245.352 182.067 245.434C180.088 245.59 178.042 245.752 176.031 245.786C169.668 245.896 163.992 245.9 158.677 245.795C156.271 245.748 153.446 245.572 150.735 244.628C149.399 244.164 148.611 243.351 148.253 242.074L148.229 241.986C147.794 240.431 147.344 238.825 147.57 236.983C152.028 236.883 156.538 236.69 160.901 236.504C170.128 236.11 179.667 235.703 189.023 236.166C189.06 236.238 189.097 236.301 189.129 236.357C189.168 236.416 189.2 236.478 189.224 236.544ZM147.644 233.873C147.626 233.743 147.606 233.62 147.588 233.504C147.536 233.234 147.508 232.96 147.503 232.685L147.585 227.958C147.722 219.939 147.865 211.647 148.038 203.493C148.159 197.758 148.29 192.143 148.55 186.48C148.688 184.354 148.938 182.236 149.299 180.136L149.431 179.275C149.515 178.518 149.837 177.807 150.35 177.243C150.863 176.68 151.541 176.293 152.287 176.138L152.701 176.03C153.627 175.744 154.586 175.575 155.555 175.528H155.574C162.276 175.554 169.226 175.632 176.822 175.769C179.527 175.817 182.46 175.944 186.049 176.168C189.265 176.368 190.522 177.675 190.534 180.829C190.557 186.794 190.443 192.86 190.333 198.727L190.304 200.277C190.256 202.862 190.175 205.491 190.096 208.032C190.033 210.113 189.965 212.265 189.917 214.382C189.835 218.03 189.768 221.74 189.704 225.327C189.665 227.465 189.625 229.602 189.585 231.739C189.575 231.952 189.553 232.164 189.517 232.374C189.505 232.462 189.491 232.555 189.478 232.656C179.327 232.254 169.052 232.796 159.114 233.319C155.359 233.517 151.477 233.721 147.644 233.873Z" fill="#00426A"/>
<path d="M162.538 218.106C161.986 217.967 161.417 217.91 160.849 217.934L160.564 217.932C159.549 217.918 158.524 217.921 157.438 217.923C157.024 217.923 156.597 217.926 156.155 217.926C156.155 217.476 156.158 217.044 156.16 216.623C156.166 215.605 156.171 214.642 156.147 213.688C156.118 212.537 155.95 211.472 154.928 211.472H154.921C153.996 211.476 153.74 212.357 153.639 213.676C153.583 214.409 153.544 215.156 153.509 215.877C153.477 216.493 153.446 217.109 153.404 217.724C153.256 219.879 154.049 220.904 156.054 221.149C157.295 221.29 158.543 221.356 159.792 221.346C160.242 221.346 160.679 221.34 161.095 221.332C161.773 221.296 162.424 221.057 162.965 220.647C163.178 220.464 163.348 220.234 163.461 219.977C163.574 219.719 163.629 219.44 163.62 219.158C163.572 218.704 162.948 218.232 162.538 218.106Z" fill="#00426A"/>
<path d="M177.24 195.43C177.357 195.425 177.469 195.415 177.588 195.42C178.623 195.422 179.658 195.42 180.722 195.42H181.828V195.96C181.828 196.38 181.831 196.732 181.826 197.084C181.82 197.479 181.81 197.874 181.799 198.269C181.779 199.051 181.757 199.859 181.776 200.654C181.803 201.814 182.316 202.532 183.182 202.624C183.233 202.63 183.285 202.632 183.336 202.632C184.146 202.632 184.791 201.935 184.995 200.809C185.027 200.64 185.044 200.469 185.047 200.298C185.051 199.831 185.058 199.365 185.066 198.898C185.084 197.759 185.102 196.585 185.066 195.428C185.034 194.404 184.776 193.681 184.278 193.215C183.78 192.749 183.05 192.548 182.039 192.585C180.505 192.643 178.949 192.775 177.445 192.902L176.861 192.951C176.495 192.943 176.139 193.074 175.865 193.318C175.562 193.654 175.393 194.089 175.391 194.541C175.422 194.889 175.92 195.252 176.262 195.359C176.582 195.438 176.913 195.462 177.24 195.43Z" fill="#00426A"/>
<path d="M185.039 217.258C184.885 216.459 184.769 215.637 184.657 214.843C184.591 214.377 184.525 213.912 184.452 213.448C184.437 213.355 184.425 213.26 184.413 213.163C184.394 212.81 184.303 212.466 184.145 212.149C183.918 211.767 183.497 211.296 183.059 211.217C182.921 211.189 182.777 211.192 182.64 211.226C182.503 211.26 182.375 211.324 182.265 211.414C182.13 211.532 182.023 211.679 181.95 211.843C181.878 212.007 181.841 212.184 181.842 212.364C181.839 213.098 181.874 213.831 181.948 214.561L181.98 214.952C182.029 215.565 182.092 216.168 182.165 216.867C182.194 217.145 182.224 217.436 182.256 217.746C181.963 217.767 181.687 217.786 181.425 217.805C180.768 217.852 180.192 217.893 179.613 217.922C179.325 217.936 179.035 217.937 178.746 217.938C178.222 217.928 177.698 217.956 177.179 218.021C176.219 218.167 175.63 218.809 175.643 219.697C175.655 220.593 176.235 221.177 177.234 221.299C177.943 221.389 178.656 221.435 179.37 221.438C180.623 221.453 181.87 221.258 183.058 220.86C184.744 220.282 185.392 219.103 185.039 217.258Z" fill="#00426A"/>
<path d="M154.785 202.767H154.801C154.984 202.783 155.168 202.76 155.342 202.701C155.516 202.642 155.675 202.547 155.811 202.423C155.946 202.299 156.054 202.148 156.128 201.981C156.203 201.813 156.241 201.631 156.242 201.448C156.328 200.316 156.366 199.201 156.4 198.065C156.416 197.557 156.413 197.06 156.409 196.484C156.409 196.263 156.405 196.03 156.405 195.786C156.777 195.767 157.141 195.749 157.498 195.733C158.497 195.686 159.441 195.642 160.388 195.572L160.485 195.565C161.014 195.567 161.536 195.451 162.014 195.225C162.253 195.084 162.46 194.895 162.623 194.67C162.786 194.445 162.9 194.189 162.96 193.918C162.975 193.783 162.964 193.647 162.926 193.517C162.888 193.387 162.824 193.266 162.738 193.161C162.453 192.857 162.059 192.677 161.642 192.662C161.292 192.639 160.942 192.643 160.593 192.674L160.332 192.689C159.129 192.752 157.926 192.819 156.724 192.89L156.466 192.905C156.332 192.913 156.197 192.918 156.062 192.923C155.707 192.929 155.353 192.958 155.002 193.008C154.166 193.145 153.624 193.69 153.588 194.431C153.465 196.946 153.408 199.217 153.413 201.373C153.407 201.562 153.439 201.75 153.507 201.927C153.574 202.103 153.676 202.265 153.807 202.402C153.937 202.524 154.091 202.62 154.259 202.683C154.427 202.745 154.605 202.774 154.785 202.767Z" fill="#00426A"/>
<path d="M169.383 238.219C169.07 238.216 168.76 238.276 168.471 238.396C168.182 238.515 167.92 238.692 167.701 238.915C167.521 239.118 167.383 239.355 167.297 239.612C167.211 239.869 167.178 240.141 167.2 240.411C167.255 241.525 168.601 242.679 169.832 242.679H169.863C170.448 242.644 171 242.398 171.417 241.987C171.834 241.575 172.087 241.026 172.13 240.442C172.141 240.166 172.094 239.892 171.992 239.636C171.89 239.38 171.735 239.148 171.538 238.956C171.248 238.692 170.908 238.49 170.537 238.364C170.167 238.237 169.774 238.188 169.383 238.219Z" fill="#00426A"/>
</g>
<defs>
<clipPath id="clip0_297_72905">
<rect width="51.061" height="79" fill="white" transform="translate(143.148 170.593)"/>
</clipPath>
</defs>
</svg>
