<svg width="36" height="37" viewBox="0 0 36 37" fill="none" xmlns="http://www.w3.org/2000/svg">
<circle cx="18" cy="18.7812" r="18" fill="#EBF9FA"/>
<path d="M11.6686 22.6945C11.9404 22.8803 11.976 23.0153 11.8341 23.3225C11.537 23.9656 11.1944 24.7277 10.9052 25.507C10.8282 25.7146 10.8227 26.12 10.9893 26.2828C11.1257 26.416 11.3571 26.4343 11.5808 26.4519C11.647 26.4571 11.7094 26.462 11.7683 26.4697C11.7778 26.4711 11.7873 26.4716 11.7969 26.4716C11.8783 26.4639 11.9567 26.4369 12.0255 26.393L12.0546 26.3779C12.2998 26.2513 12.5453 26.1253 12.791 25.9995C13.4923 25.64 14.2174 25.2679 14.9234 24.8885L14.9301 24.885C15.7797 24.4286 16.5815 23.9975 17.5662 24.187C17.6073 24.1935 17.649 24.1952 17.6905 24.1917C17.7037 24.1911 17.7169 24.1905 17.7299 24.1904C20.0691 24.1691 21.8717 23.6849 23.4025 22.6665C25.7473 21.1065 26.8 18.8741 26.2909 16.5416C25.8196 14.382 24.8904 13.0383 23.2779 12.1848C21.6386 11.3173 19.7913 10.8188 18.0763 10.7812C18.0757 10.7814 18.075 10.7814 18.0745 10.7812C15.9577 10.7896 14.1893 11.1374 12.5093 11.8762C10.4727 12.7715 9.35604 14.0578 9.09555 15.8086C8.98326 16.5208 8.96987 17.245 9.05575 17.9608C9.33774 20.1376 10.1925 21.686 11.6686 22.6945ZM12.3856 24.4547C12.5272 23.9509 12.6608 23.475 12.8275 23.019C13.0889 22.3045 12.7031 21.903 12.338 21.6331C11.7828 21.2227 11.2211 20.7502 10.8736 20.0786C9.976 18.3442 9.85385 16.7195 10.4999 15.1116C10.8503 14.2395 11.5616 13.5921 12.7384 13.0739C14.3627 12.3587 15.9793 12.0011 17.5777 12.0011C19.169 12.0082 20.7403 12.3556 22.1858 13.0197C23.8546 13.7696 24.78 15.0064 25.0983 16.9121C25.3598 18.476 24.9253 19.7785 23.7317 21.0111C22.6689 22.1086 21.2359 22.7545 19.2221 23.0437C18.2071 23.1894 17.0065 23.3101 15.7982 23.1005C15.6474 23.075 15.4787 23.1692 15.3422 23.2454C14.5243 23.7039 13.7141 24.1638 12.8564 24.6506L12.229 25.0065C12.2838 24.8171 12.3353 24.6336 12.3856 24.4547Z" fill="#00426A"/>
<path d="M14.4691 18.184V18.1841H14.4786C14.5435 18.1838 14.6079 18.1706 14.6678 18.1452C14.7278 18.1197 14.782 18.0828 14.8272 18.0364C14.8607 18.0018 14.887 17.9608 14.9042 17.9159L14.4691 18.184ZM14.4691 18.184L14.46 18.1842M14.4691 18.184L14.46 18.1842M14.46 18.1842C14.3432 18.1871 14.2301 18.1443 14.1448 18.0652C14.1162 18.0362 14.0936 18.0021 14.0782 17.9649L14.0782 17.9648C14.0625 17.927 14.0545 17.8865 14.0544 17.8456C14.056 17.7834 14.0697 17.722 14.0949 17.665C14.1204 17.6071 14.1571 17.5548 14.203 17.5111L14.2031 17.5112M14.46 18.1842L14.2031 17.5112M14.7958 17.4969L14.7958 17.4969C14.7196 17.4225 14.6191 17.3778 14.5127 17.371C14.458 17.3725 14.4041 17.3842 14.3536 17.4056L14.7958 17.4969ZM14.7958 17.4969C14.8729 17.5722 14.9197 17.6726 14.9278 17.7795M14.7958 17.4969L14.9278 17.7795M14.2031 17.5112L14.2121 17.5021M14.2031 17.5112L14.2121 17.5021M14.2121 17.5021C14.2523 17.461 14.3004 17.4282 14.3536 17.4056L14.2121 17.5021ZM14.9278 17.7795C14.9289 17.826 14.921 17.8723 14.9043 17.9158L14.9278 17.7795Z" fill="#00426A" stroke="#00426A" stroke-width="0.73387"/>
<path d="M18.1838 18.2686L18.1838 18.2686L18.1792 18.2732C18.1089 18.3438 18.0133 18.3842 17.9132 18.3854H17.9096C17.8572 18.3847 17.8055 18.3737 17.7572 18.3531C17.7088 18.3323 17.665 18.3022 17.6283 18.2645L17.6283 18.2645L17.6268 18.263C17.5881 18.2236 17.5576 18.1769 17.5372 18.1256L17.5371 18.1253C17.5166 18.0741 17.5066 18.0193 17.5076 17.9642L17.5077 17.9624C17.509 17.8592 17.559 17.7359 17.6505 17.6354C17.7377 17.5396 17.8272 17.5018 17.8848 17.4969C17.9702 17.5076 18.0489 17.5488 18.1061 17.6129L18.113 17.6206L18.1202 17.6278C18.2526 17.7602 18.3064 17.9093 18.3066 17.989C18.3039 18.0944 18.2599 18.1948 18.1838 18.2686Z" fill="#00426A" stroke="#00426A" stroke-width="0.73387"/>
<path d="M21.4349 17.7293L21.444 17.7394L21.4539 17.7488C21.5121 17.8046 21.5478 17.8793 21.555 17.9589C21.5425 18.0473 21.5004 18.1293 21.435 18.1916C21.367 18.2563 21.2782 18.2951 21.1844 18.3011C21.0776 18.2951 20.977 18.2486 20.9035 18.1712L20.9034 18.1711C20.8275 18.0913 20.7865 17.9851 20.7889 17.8754L20.7891 17.8672L20.7889 17.8589C20.7876 17.8012 20.7979 17.7435 20.8193 17.6893L20.8193 17.6893C20.8404 17.6358 20.8719 17.5868 20.9122 17.5452C20.9244 17.533 20.939 17.5234 20.9552 17.5168L20.9555 17.5167C20.9692 17.5112 20.9837 17.508 20.9985 17.5072C21.1666 17.5248 21.3222 17.6039 21.4349 17.7293Z" fill="#00426A" stroke="#00426A" stroke-width="0.73387"/>
</svg>
