<svg width="25" height="25" viewBox="0 0 25 25" fill="none" xmlns="http://www.w3.org/2000/svg">
<g clip-path="url(#clip0_735_8195)">
<path d="M4.69105 18.0983C5.06144 18.3513 5.10992 18.5353 4.91648 18.9539C4.51175 19.8302 4.04489 20.8687 3.65084 21.9307C3.54585 22.2135 3.53833 22.766 3.76544 22.9877C3.95127 23.1693 4.26654 23.1942 4.57141 23.2182C4.66156 23.2253 4.74667 23.232 4.82681 23.2425C4.83979 23.2443 4.85283 23.2451 4.86591 23.2451C4.9768 23.2346 5.08358 23.1978 5.17741 23.138L5.217 23.1173C5.55114 22.9449 5.88561 22.7731 6.22039 22.6018C7.176 22.1119 8.16408 21.6048 9.1262 21.0878L9.13521 21.0831C10.293 20.4612 11.3856 19.8737 12.7273 20.1319C12.7833 20.1409 12.8401 20.1431 12.8967 20.1384C12.9146 20.1375 12.9327 20.1367 12.9505 20.1366C16.1379 20.1076 18.5941 19.4477 20.6802 18.06C23.8752 15.9343 25.3097 12.8923 24.616 9.71403C23.9738 6.77132 22.7075 4.9403 20.5103 3.77733C18.2765 2.59521 15.7593 1.91597 13.4225 1.86475C13.4216 1.86489 13.4207 1.86489 13.4199 1.86475C10.5355 1.8761 8.12578 2.35007 5.83656 3.3567C3.06146 4.57673 1.53984 6.32952 1.18489 8.71518C1.03188 9.68564 1.01363 10.6725 1.13066 11.6479C1.5149 14.6141 2.6796 16.724 4.69105 18.0983ZM5.66803 20.4967C5.861 19.8102 6.04307 19.1617 6.27017 18.5404C6.6264 17.5668 6.10067 17.0197 5.60321 16.6519C4.84661 16.0927 4.0813 15.4488 3.60769 14.5337C2.38462 12.1704 2.21817 9.95642 3.09848 7.7654C3.57593 6.57716 4.54519 5.6949 6.14876 4.98881C8.36208 4.01426 10.565 3.52702 12.7429 3.52702C14.9113 3.53665 17.0525 4.00998 19.0222 4.91498C21.2961 5.93681 22.5572 7.62213 22.9908 10.2189C23.3472 12.3499 22.7551 14.1248 21.1287 15.8044C19.6805 17.2999 17.7278 18.18 14.9837 18.574C13.6006 18.7725 11.9647 18.9371 10.3182 18.6515C10.1127 18.6167 9.88281 18.7451 9.69689 18.849C8.58236 19.4737 7.47831 20.1003 6.30956 20.7636L5.45469 21.2486C5.5293 20.9906 5.59955 20.7405 5.66803 20.4967Z" fill="url(#paint0_linear_735_8195)"/>
<path d="M8.50843 12.4524H8.52218C8.67748 12.4519 8.83111 12.4204 8.97406 12.3599C9.11702 12.2993 9.24642 12.211 9.35469 12.0999C9.4477 12.0042 9.52029 11.8906 9.56811 11.7661C9.61591 11.6416 9.63794 11.5088 9.63285 11.3756C9.61532 11.1041 9.49783 10.8486 9.30294 10.6583C9.10805 10.4679 8.84951 10.356 8.577 10.3442C8.43223 10.3451 8.28906 10.3748 8.15581 10.4313C8.02258 10.4878 7.90192 10.57 7.8008 10.6734C7.69058 10.7785 7.60225 10.9042 7.54091 11.0434C7.47958 11.1826 7.44642 11.3326 7.44338 11.4847C7.44256 11.6082 7.46648 11.7307 7.51377 11.8449C7.56104 11.9591 7.6307 12.0626 7.71867 12.1497C7.93138 12.3508 8.21539 12.4597 8.50843 12.4524Z" fill="url(#paint1_linear_735_8195)"/>
<path d="M13.1955 12.7266H13.2054C13.474 12.7244 13.7308 12.6165 13.92 12.4264C14.119 12.2335 14.2337 11.9699 14.2391 11.6932C14.2414 11.4168 14.088 11.09 13.8388 10.8408C13.6699 10.6518 13.4343 10.5351 13.1812 10.5151H13.178C12.6669 10.5181 12.158 11.0771 12.1506 11.6436C12.148 11.7853 12.1737 11.926 12.2263 12.0576C12.2787 12.1892 12.3569 12.3092 12.4563 12.4103C12.5524 12.5092 12.6672 12.5881 12.7941 12.6424C12.921 12.6966 13.0574 12.7253 13.1955 12.7266Z" fill="url(#paint2_linear_735_8195)"/>
<path d="M17.6566 12.6117H17.6631C17.9177 12.6019 18.16 12.4997 18.3444 12.3243C18.5288 12.1488 18.6427 11.9122 18.6646 11.659C18.6576 11.4087 18.5523 11.1711 18.3713 10.9977C18.1279 10.7272 17.7901 10.5597 17.4271 10.5294C17.3349 10.5276 17.2434 10.5446 17.1582 10.5792C17.0728 10.6137 16.9955 10.6652 16.9308 10.7306C16.829 10.835 16.749 10.9586 16.6955 11.0942C16.6421 11.2297 16.6161 11.3745 16.6194 11.5202C16.6132 11.8018 16.7186 12.0743 16.9129 12.2787C17.107 12.483 17.3744 12.6028 17.6566 12.6117Z" fill="url(#paint3_linear_735_8195)"/>
</g>
<defs>
<linearGradient id="paint0_linear_735_8195" x1="12.921" y1="1.86475" x2="12.921" y2="23.2451" gradientUnits="userSpaceOnUse">
<stop stop-color="#006D9E"/>
<stop offset="1" stop-color="#00426A"/>
</linearGradient>
<linearGradient id="paint1_linear_735_8195" x1="8.53846" y1="10.3442" x2="8.53846" y2="12.4527" gradientUnits="userSpaceOnUse">
<stop stop-color="#006D9E"/>
<stop offset="1" stop-color="#00426A"/>
</linearGradient>
<linearGradient id="paint2_linear_735_8195" x1="13.1948" y1="10.5151" x2="13.1948" y2="12.7266" gradientUnits="userSpaceOnUse">
<stop stop-color="#006D9E"/>
<stop offset="1" stop-color="#00426A"/>
</linearGradient>
<linearGradient id="paint3_linear_735_8195" x1="17.6419" y1="10.5293" x2="17.6419" y2="12.6117" gradientUnits="userSpaceOnUse">
<stop stop-color="#006D9E"/>
<stop offset="1" stop-color="#00426A"/>
</linearGradient>
<clipPath id="clip0_735_8195">
<rect width="24" height="24" fill="white" transform="translate(0.921875 0.554688)"/>
</clipPath>
</defs>
</svg>
