<svg width="25" height="25" viewBox="0 0 25 25" fill="none" xmlns="http://www.w3.org/2000/svg">
<g clip-path="url(#clip0_735_8207)">
<path d="M3.68288 19.4776C4.447 19.8495 5.30388 19.9165 6.3026 19.6826C6.8281 19.5594 7.35102 19.3964 7.85734 19.239C8.08194 19.1691 8.30659 19.0995 8.53202 19.0325C8.6063 19.0106 8.68015 18.9877 8.74894 18.9669L8.77205 18.9599L8.77703 18.9657C8.78583 18.9759 8.79292 18.983 8.7944 18.9823C8.90494 19.4143 9.01536 19.8467 9.12559 20.279C9.3355 21.1026 9.55249 21.9542 9.77082 22.7906C9.84686 23.0618 9.9403 23.3278 10.0505 23.5871C10.0977 23.7034 10.177 23.8041 10.279 23.8773C10.3811 23.9506 10.5019 23.9935 10.6275 24.0013C11.2764 24.0717 11.9331 24.005 12.555 23.8056C12.7812 23.7366 13.0039 23.6561 13.222 23.5644C13.6082 23.4034 13.645 23.1891 13.5785 22.8254C13.3093 21.3833 12.8851 19.9745 12.3136 18.6234C12.2389 18.4456 12.1696 18.2657 12.0892 18.0579C12.069 18.0052 12.048 17.951 12.0262 17.8948C12.1565 17.9222 12.2826 17.9488 12.4046 17.9745C12.7629 18.0498 13.1013 18.1209 13.4323 18.1971C14.2719 18.3903 15.1228 18.601 15.9455 18.8046C17.6944 19.2376 19.5027 19.6846 21.3131 19.9944C21.4308 20.0143 21.5484 20.0373 21.6654 20.06C22.2652 20.177 22.885 20.2974 23.5401 20.0452C23.9991 19.8678 24.1823 19.7345 24.0066 19.2036C23.9549 19.0474 23.8982 18.8904 23.8434 18.7387C23.756 18.4971 23.666 18.2474 23.5953 17.9984C23.1455 16.4112 22.718 14.8564 22.3594 13.5453C22.2987 13.3232 22.2512 13.0937 22.2052 12.8715C22.1893 12.7945 22.1735 12.7178 22.1571 12.6416C22.7069 12.397 23.161 11.9788 23.4492 11.4516C23.7376 10.9244 23.844 10.3175 23.7521 9.72442C23.634 8.96182 23.3813 8.4138 22.9572 8.00096C22.2568 7.3184 21.3429 7.22147 20.5292 7.19656L20.5063 7.12075C20.4764 7.0217 20.4485 6.92632 20.4181 6.8315C20.2481 6.29894 20.0774 5.76656 19.9064 5.23418C19.4982 3.96249 19.0762 2.64745 18.6726 1.3508C18.5656 1.00789 18.3758 0.879435 18.2351 0.831812C18.0239 0.760489 17.765 0.816827 17.5247 0.986461C17.433 1.05576 17.3488 1.13438 17.2735 1.22102C17.247 1.24958 17.2205 1.27815 17.1934 1.30538C17.1154 1.38476 17.0384 1.46526 16.9616 1.5458C16.8256 1.688 16.6851 1.835 16.5413 1.97225C16.1194 2.37428 15.6956 2.77445 15.2699 3.17274C14.4156 3.97572 13.5322 4.80595 12.6876 5.64758C11.6925 6.63931 10.6718 7.72995 9.65414 8.88932C9.61271 8.93642 9.57229 8.9842 9.53224 9.03058C9.21194 9.40547 8.93547 9.72952 8.40564 9.70346C8.34026 9.70433 8.27577 9.71894 8.2164 9.74634C8.20363 9.75131 8.19088 9.75627 8.17816 9.76072C7.96935 9.83458 7.75983 9.90604 7.54972 9.97759C7.06599 10.1426 6.56585 10.3131 6.08437 10.5108C5.007 10.9536 4.22786 11.3772 3.55775 11.8843C2.56928 12.6324 2.01845 13.4131 1.82434 14.3411C1.58543 15.4081 1.67211 16.5214 2.07323 17.5378C2.34141 18.2063 2.76602 19.031 3.68288 19.4776ZM10.8204 18.0922L12.2199 22.7208L11.2531 23.0131L9.78736 18.6306L10.8204 18.0922ZM3.03233 14.2274C3.20968 13.5749 3.65595 12.9995 4.32222 12.5635C4.87788 12.1932 5.46062 11.8652 6.06555 11.5823C6.68724 11.2976 7.31536 11.0484 7.98032 10.7845C8.23219 10.6846 8.48647 10.5837 8.74377 10.4795L10.5642 16.8388L10.483 16.8767C10.3685 16.9335 10.2506 16.983 10.13 17.0254C9.68918 17.1695 9.24835 17.3355 8.822 17.4962C7.88938 17.847 6.92505 18.2099 5.91675 18.3599L5.89467 18.3633C5.69638 18.3932 5.49082 18.4236 5.29069 18.4344C4.44601 18.4808 3.83684 18.1525 3.42793 17.4302C3.14914 16.9508 2.97042 16.42 2.90248 15.8695C2.83458 15.3192 2.87887 14.7606 3.0327 14.2273L3.03233 14.2274ZM9.98704 10.0817C10.8349 9.00053 16.7572 3.38377 17.9068 2.56026C19.0884 6.20774 20.1635 9.95734 21.2043 13.5846C21.6879 15.2714 22.1877 17.0138 22.695 18.736C21.3336 18.4774 19.9763 18.1737 18.6622 17.8793C16.4621 17.3868 14.1878 16.8776 11.9087 16.5888C11.2593 14.0264 10.6477 11.9553 9.98741 10.0816L9.98704 10.0817ZM21.7828 11.2844L20.856 8.21909C21.5925 8.21423 22.2349 8.75212 22.4432 9.56601C22.6225 10.2657 22.3463 10.9686 21.7832 11.2841L21.7828 11.2844Z" fill="url(#paint0_linear_735_8207)"/>
</g>
<defs>
<linearGradient id="paint0_linear_735_8207" x1="9.79232" y1="3.26469" x2="15.7144" y2="22.851" gradientUnits="userSpaceOnUse">
<stop stop-color="#006D9E"/>
<stop offset="1" stop-color="#00426A"/>
</linearGradient>
<clipPath id="clip0_735_8207">
<rect width="24" height="24" fill="white" transform="translate(0.921875 0.554688)"/>
</clipPath>
</defs>
</svg>
