<svg width="440" height="383" viewBox="0 0 440 383" fill="none" xmlns="http://www.w3.org/2000/svg">
<path d="M288.595 223.074C234.624 223.074 190.873 179.323 190.873 125.353C190.873 71.3827 234.624 27.6315 288.595 27.6315C327.181 27.6315 360.543 49.9925 376.427 82.4666L218.132 115.263L256.974 145.893L256.121 146.282L256.602 193.382L287.36 170.313L284.861 167.886L306.727 185.128L385.899 116.256C386.175 119.25 386.316 122.286 386.316 125.353C386.316 179.323 342.565 223.074 288.595 223.074Z" fill="#00426A"/>
<path d="M218.133 115.264L306.727 185.129L439.845 69.3273L218.133 115.264Z" fill="#81DBDF"/>
<path d="M256.604 193.381L264.774 150.127L381.208 89.4559L270.541 153.972L270.641 154.068L270.601 154.091L281.235 164.544L256.604 193.381Z" fill="#33C1C7"/>
<path d="M255.542 193.402C143.09 288.536 88.2134 257.545 104.975 210.908C116.946 177.602 194.386 247.784 6.30397 382.26" stroke="#FB7987" stroke-width="1.63922" stroke-dasharray="9.84 9.84"/>
</svg>
