<svg width="160" height="180" viewBox="0 0 160 180" fill="none" xmlns="http://www.w3.org/2000/svg">
<path d="M100.793 22.2613C100.793 11.7014 92.9175 2.21536 82.1786 1.32045C69.8288 0.0675752 59.4479 9.73259 59.4479 21.7244V22.4403C59.4479 24.767 58.0161 26.7358 55.6893 27.4518C23.4726 37.8327 0.383948 68.2596 1.45784 103.698C2.71071 145.222 37.7911 178.691 79.8518 178.87C123.344 179.049 158.783 144.148 158.783 101.192C158.783 66.6488 136.052 37.4747 104.551 27.4518C102.225 26.5569 100.793 24.5881 100.793 22.2613Z" fill="white" stroke="black" stroke-width="1.78982" stroke-miterlimit="10"/>
<path d="M56.0469 95.4609V97.4297V99.3985V101.367V103.336V105.126H58.0157V107.095H59.9845V109.064H61.9533V107.095V105.126H59.9845V103.336H58.0157V101.367V99.3985V97.4297H59.9845V95.4609H58.0157H56.0469Z" fill="black"/>
<path d="M61.9532 99.3984H59.9844V101.367H61.9532V99.3984Z" fill="black"/>
<path d="M66.0717 105.126V103.336H64.1029H61.9551V105.126H64.1029H66.0717Z" fill="black"/>
<path d="M68.0391 93.6719H70.0079V91.7031H68.0391H66.0703V93.6719V95.4617H68.0391V93.6719Z" fill="black"/>
<path d="M68.0385 97.4305H66.0697V95.4617H64.101V93.6719V91.7031H61.9532H59.9844V93.6719V95.4617H61.9532V97.4305V99.3993H64.101V101.368H66.0697H68.0385V99.3993V97.4305Z" fill="black"/>
<path d="M68.0391 107.102H66.0703V109.07H68.0391V107.102Z" fill="black"/>
<path d="M70.0079 95.4609H68.0391V97.4297H70.0079V95.4609Z" fill="black"/>
<path d="M71.9766 93.6719H70.0078V95.6407H71.9766V93.6719Z" fill="black"/>
<path d="M71.9767 103.336H70.0079V101.367H68.0391V103.336V105.126V107.095H70.0079H71.9767V105.126V103.336Z" fill="black"/>
<path d="M74.1243 91.7032V89.7344H71.9766V91.7032V93.672H74.1243V91.7032Z" fill="black"/>
<path d="M73.9454 112.82H71.9766V114.789H73.9454V112.82Z" fill="black"/>
<path d="M76.0938 87.7656H74.125V89.7344H76.0938V87.7656Z" fill="black"/>
<path d="M78.0639 85.9775V84.0087H76.0951V82.0399V80.0711H78.0639H80.0327V82.0399H82.1805V80.0711V78.2813H84.1493V76.3125H82.1805H80.0327V78.2813H78.0639V76.3125H76.0951V78.2813H74.1263V76.3125H71.9785V78.2813V80.0711H74.1263V82.0399H71.9785V84.0087H74.1263V85.9775H76.0951V87.7673H78.0639V85.9775Z" fill="black"/>
<path d="M78.0625 97.4297H76.0938V99.3985H78.0625V97.4297Z" fill="black"/>
<path d="M78.0625 112.82H76.0938V114.789H78.0625V112.82Z" fill="black"/>
<path d="M80.0308 99.3993H78.062V101.368H76.0932V99.3993H74.1244V97.4305H76.0932V95.4617V93.6719H74.1244V95.4617H71.9766V97.4305V99.3993H70.0078V101.368H71.9766H74.1244V103.337V105.127V107.095H71.9766V109.064H74.1244H76.0932H78.062V111.033V112.823H80.0308V114.792H82.1786H84.1474V112.823H82.1786V111.033H80.0308V109.064V107.095V105.127H82.1786V103.337V101.368H80.0308V99.3993Z" fill="black"/>
<path d="M80.0307 120.695V118.727H82.1785V116.758H80.0307H78.0619V118.727H76.0931V116.758H74.1243H71.9766V118.727V120.695V122.485V124.454H74.1243V122.485H76.0931V120.695H78.0619V122.485V124.454H80.0307H82.1785V122.485H80.0307V120.695Z" fill="black"/>
<path d="M82.1797 120.695V122.485H84.1485V124.454H86.1173V122.485V120.695H84.1485H82.1797Z" fill="black"/>
<path d="M86.1174 95.462H88.0862V93.4932V91.5244V89.7346V87.7658H86.1174H84.1486V85.797H86.1174H88.0862V83.8282H86.1174V81.8594H84.1486V83.8282H82.1798V85.797V87.7658H80.211H78.2422V89.7346V91.7034V93.6722V95.641H80.211H82.1798H84.1486V97.6098H82.1798V99.5786V101.547H84.1486V99.5786H86.1174H88.0862V97.6098H86.1174V95.462ZM86.1174 89.7346V91.7034H84.1486V89.7346H86.1174ZM80.032 93.6722V91.7034H82.0008V93.6722H80.032Z" fill="black"/>
<path d="M84.1484 105.126H86.1172V103.336V101.367H84.1484V103.336V105.126Z" fill="black"/>
<path d="M86.1173 111.039V109.07H84.1485H82.1797V111.039H84.1485H86.1173Z" fill="black"/>
<path d="M88.084 76.3125H86.1152V78.2813H88.084V76.3125Z" fill="black"/>
<path d="M90.0547 109.07H88.0859V111.039H90.0547V109.07Z" fill="black"/>
<path d="M92.0235 99.3984H90.0547V101.367H92.0235V99.3984Z" fill="black"/>
<path d="M92.2026 118.727H90.0548V116.758H92.2026V114.789V112.82H90.0548V114.789H88.086H86.1172V116.758H84.1484V118.727H86.1172H88.086V120.696H90.0548H92.2026V118.727Z" fill="black"/>
<path d="M94.17 109.07H92.2012V111.039H94.17V109.07Z" fill="black"/>
<path d="M96.1401 103.336H94.1713H92.2025H90.0547H88.0859V105.305V107.274H90.0547H92.0235V105.305H93.9923V107.274V109.242H95.9611V111.211H97.9299V109.242H99.8987V107.274H101.868V109.242H103.836V107.274V105.305V103.336H101.868H99.8987H97.9299V101.367H95.9611V103.336H96.1401ZM98.1089 107.095H96.1401V105.126H98.1089V107.095Z" fill="black"/>
<path d="M96.1407 112.821V111.031H94.1719V112.821V114.79V116.759V118.727V120.696H96.1407V118.727V116.759V114.79H98.1095H100.257V112.821H98.1095H96.1407Z" fill="black"/>
<path d="M100.078 99.3984H98.1094V101.367H100.078V99.3984Z" fill="black"/>
<path d="M100.078 116.758H98.1094V118.727H100.078V116.758Z" fill="black"/>
<path d="M100.255 120.695H98.1076V122.485H96.1388H94.17H92.2012V124.454H94.17H96.1388H98.1076H100.255H102.224V122.485H100.255V120.695Z" fill="black"/>
<path d="M102.225 95.4617V93.6719H100.257V95.4617H98.1089H96.1401H94.1713V93.6719V91.7031H92.2025V93.6719V95.4617H90.0547H88.0859V97.4305H90.0547H92.2025V99.3993H94.1713H96.1401V97.4305H98.1089H100.257V99.3993H102.225V101.368H104.194V99.3993V97.4305H102.225V95.4617Z" fill="black"/>
<path d="M100.258 111.039V112.829H102.227H104.195V111.039H102.227V109.07H100.258V111.039Z" fill="black"/>
<path d="M102.227 114.789H100.258V116.758H102.227V114.789Z" fill="black"/>
<path d="M102.227 118.727H100.258V120.695H102.227V118.727Z" fill="black"/>
<path d="M104.193 116.758H102.225V118.727H104.193V116.758Z" fill="black"/>
<path d="M104.193 120.695H102.225V122.664H104.193V120.695Z" fill="black"/>
<path d="M70.0074 76.3125H56.0469V89.7361H70.1864V76.3125H70.0074ZM68.2176 87.9463H57.8367V78.1023H68.2176V87.9463Z" fill="black"/>
<path d="M66.0697 80.0703H59.9844V85.7977H66.0697V80.0703Z" fill="black"/>
<path d="M56.0469 124.455H70.1864V111.031H56.0469V124.455ZM57.8367 112.821H68.2176V122.665H57.8367V112.821Z" fill="black"/>
<path d="M66.0697 114.789H59.9844V120.516H66.0697V114.789Z" fill="black"/>
<path d="M90.0547 76.3125V89.7361H104.194V76.3125H90.0547ZM102.404 87.9463H92.0235V78.1023H102.404V87.9463Z" fill="black"/>
<path d="M100.257 80.0703H94.1719V85.7977H100.257V80.0703Z" fill="black"/>
<path d="M39.8596 145.822C39.8655 146.069 39.9359 146.291 40.0707 146.491C40.2114 146.684 40.3932 146.869 40.616 147.045C40.8447 147.221 41.1026 147.394 41.3899 147.564C41.6772 147.728 41.9704 147.904 42.2694 148.091C42.5743 148.273 42.8704 148.472 43.1576 148.689C43.4449 148.906 43.7029 149.153 43.9316 149.428C44.1602 149.704 44.3449 150.014 44.4856 150.36C44.6264 150.706 44.7026 151.099 44.7143 151.539V151.609C44.7143 152.09 44.6557 152.509 44.5384 152.867C44.4211 153.224 44.2658 153.532 44.0723 153.79C43.8788 154.048 43.6531 154.262 43.3951 154.432C43.1371 154.596 42.8645 154.728 42.5772 154.828C42.2958 154.928 42.0085 154.998 41.7153 155.039C41.428 155.08 41.1554 155.104 40.8974 155.109H40.8095C40.3111 155.109 39.8743 155.06 39.4991 154.96C39.1238 154.86 38.8014 154.728 38.5317 154.564C38.262 154.394 38.0362 154.201 37.8545 153.984C37.6786 153.767 37.5379 153.544 37.4323 153.315C37.3268 153.081 37.2506 152.849 37.2037 152.621C37.1568 152.392 37.1333 152.178 37.1333 151.979C37.1333 151.773 37.1685 151.594 37.2388 151.442C37.3092 151.29 37.4001 151.166 37.5115 151.073C37.6287 150.973 37.7607 150.9 37.9072 150.853C38.0597 150.806 38.218 150.782 38.3821 150.782C38.5346 150.782 38.69 150.806 38.8483 150.853C39.0124 150.9 39.159 150.973 39.288 151.073C39.4228 151.166 39.5313 151.29 39.6134 151.442C39.7013 151.589 39.7483 151.762 39.7541 151.961C39.7658 152.401 39.8655 152.703 40.0531 152.867C40.2408 153.025 40.5105 153.104 40.8622 153.104C41.0381 153.098 41.1994 153.078 41.3459 153.043C41.4984 153.002 41.6274 152.934 41.7329 152.84C41.8384 152.741 41.9205 152.612 41.9792 152.453C42.0437 152.289 42.0759 152.084 42.0759 151.838C42.0759 151.533 42.0055 151.257 41.8648 151.011C41.73 150.765 41.5512 150.536 41.3284 150.325C41.1056 150.114 40.8505 149.915 40.5632 149.727C40.2759 149.534 39.9828 149.343 39.6838 149.155C39.3847 148.962 39.0916 148.763 38.8043 148.557C38.5229 148.346 38.2678 148.118 38.0392 147.871C37.8105 147.625 37.6258 147.353 37.4851 147.054C37.3502 146.754 37.2799 146.414 37.274 146.033V145.893C37.2799 145.265 37.362 144.743 37.5203 144.327C37.6844 143.911 37.9219 143.58 38.2326 143.333C38.5492 143.087 38.9362 142.914 39.3935 142.814C39.8509 142.709 40.3756 142.656 40.9678 142.656H41.1964C41.7358 142.656 42.1932 142.715 42.5684 142.832C42.9436 142.949 43.2544 143.099 43.5006 143.281C43.7528 143.462 43.9492 143.668 44.0899 143.896C44.2365 144.125 44.3449 144.351 44.4153 144.573C44.4856 144.796 44.5296 145.004 44.5472 145.198C44.5648 145.391 44.5736 145.547 44.5736 145.664C44.5736 145.84 44.5384 146.001 44.4681 146.148C44.4036 146.288 44.3127 146.409 44.1954 146.508C44.084 146.608 43.9492 146.687 43.7909 146.746C43.6384 146.798 43.4713 146.825 43.2896 146.825C43.1489 146.825 43.0081 146.798 42.8674 146.746C42.7267 146.687 42.6007 146.614 42.4893 146.526C42.3779 146.438 42.287 146.338 42.2166 146.227C42.1463 146.11 42.1111 145.992 42.1111 145.875C42.1111 145.394 42.0231 145.06 41.8472 144.872C41.6772 144.685 41.4251 144.591 41.0909 144.591C40.9326 144.591 40.7772 144.6 40.6248 144.617C40.4782 144.635 40.3463 144.685 40.229 144.767C40.1176 144.843 40.0267 144.963 39.9564 145.127C39.8919 145.292 39.8596 145.523 39.8596 145.822ZM49.1996 150.184V153.034C49.1996 153.286 49.1908 153.532 49.1732 153.773C49.1615 154.013 49.1116 154.227 49.0237 154.415C48.9416 154.602 48.8097 154.755 48.6279 154.872C48.4462 154.983 48.1853 155.039 47.8452 155.039C47.5169 155.039 47.2618 154.983 47.0801 154.872C46.9042 154.755 46.7752 154.602 46.6931 154.415C46.611 154.227 46.5612 154.013 46.5436 153.773C46.5319 153.532 46.526 153.286 46.526 153.034V144.732C46.526 144.48 46.5319 144.233 46.5436 143.993C46.5612 143.753 46.611 143.539 46.6931 143.351C46.7752 143.163 46.9042 143.014 47.0801 142.902C47.2618 142.785 47.5169 142.727 47.8452 142.727H50.7474C51.4745 142.762 52.1253 142.914 52.6999 143.184C52.9461 143.301 53.1836 143.448 53.4122 143.624C53.6467 143.799 53.8549 144.016 54.0366 144.274C54.2243 144.527 54.3738 144.828 54.4852 145.18C54.5966 145.526 54.6523 145.928 54.6523 146.385C54.6523 147.012 54.5526 147.564 54.3532 148.039C54.1598 148.508 53.8754 148.903 53.5002 149.226C53.1308 149.542 52.6764 149.783 52.137 149.947C51.6034 150.105 50.9996 150.184 50.3253 150.184H49.1996ZM50.3957 148.091C50.6888 148.074 50.9526 148.003 51.1872 147.88C51.2868 147.827 51.3836 147.76 51.4774 147.678C51.5712 147.596 51.6562 147.496 51.7324 147.379C51.8087 147.256 51.8673 147.112 51.9083 146.948C51.9552 146.784 51.9787 146.596 51.9787 146.385C51.9787 146.186 51.9552 146.013 51.9083 145.866C51.8673 145.714 51.8116 145.585 51.7412 145.479C51.6709 145.368 51.5917 145.274 51.5038 145.198C51.4158 145.122 51.325 145.057 51.2311 145.004C51.0083 144.893 50.7592 144.826 50.4836 144.802H49.1996V148.091H50.3957ZM57.0092 150.818C56.8451 150.818 56.6868 150.809 56.5343 150.791C56.3819 150.768 56.247 150.721 56.1298 150.651C56.0125 150.574 55.9187 150.469 55.8483 150.334C55.778 150.193 55.7428 150.003 55.7428 149.762C55.7428 149.504 55.778 149.302 55.8483 149.155C55.9187 149.009 56.0125 148.9 56.1298 148.83C56.247 148.76 56.3819 148.716 56.5343 148.698C56.6868 148.681 56.8451 148.672 57.0092 148.672H60.8965C61.0431 148.672 61.1926 148.681 61.345 148.698C61.4974 148.716 61.6323 148.76 61.7496 148.83C61.8727 148.9 61.9724 149.009 62.0486 149.155C62.1248 149.302 62.1629 149.504 62.1629 149.762C62.1629 150.003 62.1248 150.193 62.0486 150.334C61.9724 150.469 61.8727 150.574 61.7496 150.651C61.6323 150.721 61.4974 150.768 61.345 150.791C61.1926 150.809 61.0431 150.818 60.8965 150.818H57.5017H57.0092ZM66.7009 148.76L64.4847 145.4C64.3557 145.207 64.2384 145.013 64.1329 144.82C64.045 144.661 63.9629 144.494 63.8867 144.318C63.8163 144.142 63.7811 143.993 63.7811 143.87C63.7811 143.712 63.8251 143.55 63.913 143.386C64.0069 143.222 64.1681 143.072 64.3967 142.938C64.6606 142.797 64.901 142.727 65.1179 142.727C65.2821 142.727 65.4316 142.765 65.5664 142.841C65.7072 142.911 65.8332 143.008 65.9446 143.131C66.0619 143.248 66.1703 143.383 66.27 143.536C66.3697 143.688 66.4664 143.841 66.5602 143.993L68.196 146.684H68.4599L70.0957 143.993C70.1895 143.841 70.2862 143.688 70.3859 143.536C70.4856 143.383 70.5911 143.248 70.7025 143.131C70.8198 143.008 70.9458 142.911 71.0807 142.841C71.2155 142.765 71.368 142.727 71.538 142.727C71.6435 142.727 71.7549 142.747 71.8722 142.788C71.9953 142.829 72.1243 142.885 72.2592 142.955C72.5054 143.09 72.6755 143.237 72.7693 143.395C72.8631 143.547 72.91 143.7 72.91 143.852C72.91 143.981 72.8719 144.134 72.7956 144.31C72.7194 144.485 72.6344 144.656 72.5406 144.82C72.4351 145.013 72.3119 145.207 72.1712 145.4L69.9726 148.76V148.918L72.4175 152.77C72.5406 152.964 72.6461 153.157 72.7341 153.35C72.8279 153.538 72.8748 153.726 72.8748 153.913C72.8748 154.072 72.8308 154.23 72.7429 154.388C72.6608 154.541 72.5054 154.687 72.2768 154.828C72.0129 154.969 71.7725 155.039 71.5556 155.039C71.4032 155.039 71.2654 155.01 71.1423 154.951C71.0191 154.887 70.9048 154.805 70.7993 154.705C70.6937 154.605 70.594 154.491 70.5002 154.362C70.4123 154.233 70.3243 154.101 70.2364 153.966L68.4599 151.081H68.196L66.4195 153.966C66.3316 154.101 66.2407 154.233 66.1469 154.362C66.0589 154.491 65.9622 154.605 65.8567 154.705C65.757 154.805 65.6456 154.887 65.5225 154.951C65.3993 155.01 65.2645 155.039 65.1179 155.039C64.8951 155.039 64.6606 154.969 64.4143 154.828C64.1739 154.687 64.0069 154.541 63.913 154.388C63.8251 154.23 63.7811 154.072 63.7811 153.913C63.7811 153.726 63.8251 153.538 63.913 153.35C64.0069 153.157 64.1153 152.964 64.2384 152.77L66.7009 148.918V148.76ZM76.7796 148.76L74.5634 145.4C74.4344 145.207 74.3171 145.013 74.2116 144.82C74.1236 144.661 74.0416 144.494 73.9653 144.318C73.895 144.142 73.8598 143.993 73.8598 143.87C73.8598 143.712 73.9038 143.55 73.9917 143.386C74.0855 143.222 74.2468 143.072 74.4754 142.938C74.7393 142.797 74.9797 142.727 75.1966 142.727C75.3608 142.727 75.5103 142.765 75.6451 142.841C75.7858 142.911 75.9119 143.008 76.0233 143.131C76.1405 143.248 76.249 143.383 76.3487 143.536C76.4484 143.688 76.5451 143.841 76.6389 143.993L78.2747 146.684H78.5386L80.1744 143.993C80.2682 143.841 80.3649 143.688 80.4646 143.536C80.5643 143.383 80.6698 143.248 80.7812 143.131C80.8985 143.008 81.0245 142.911 81.1594 142.841C81.2942 142.765 81.4467 142.727 81.6167 142.727C81.7222 142.727 81.8336 142.747 81.9509 142.788C82.074 142.829 82.203 142.885 82.3379 142.955C82.5841 143.09 82.7541 143.237 82.8479 143.395C82.9418 143.547 82.9887 143.7 82.9887 143.852C82.9887 143.981 82.9505 144.134 82.8743 144.31C82.7981 144.485 82.7131 144.656 82.6193 144.82C82.5137 145.013 82.3906 145.207 82.2499 145.4L80.0512 148.76V148.918L82.4962 152.77C82.6193 152.964 82.7248 153.157 82.8128 153.35C82.9066 153.538 82.9535 153.726 82.9535 153.913C82.9535 154.072 82.9095 154.23 82.8216 154.388C82.7395 154.541 82.5841 154.687 82.3554 154.828C82.0916 154.969 81.8512 155.039 81.6343 155.039C81.4818 155.039 81.3441 155.01 81.2209 154.951C81.0978 154.887 80.9835 154.805 80.8779 154.705C80.7724 154.605 80.6727 154.491 80.5789 154.362C80.491 154.233 80.403 154.101 80.3151 153.966L78.5386 151.081H78.2747L76.4982 153.966C76.4103 154.101 76.3194 154.233 76.2256 154.362C76.1376 154.491 76.0409 154.605 75.9353 154.705C75.8357 154.805 75.7243 154.887 75.6011 154.951C75.478 155.01 75.3432 155.039 75.1966 155.039C74.9738 155.039 74.7393 154.969 74.493 154.828C74.2526 154.687 74.0855 154.541 73.9917 154.388C73.9038 154.23 73.8598 154.072 73.8598 153.913C73.8598 153.726 73.9038 153.538 73.9917 153.35C74.0855 153.157 74.194 152.964 74.3171 152.77L76.7796 148.918V148.76ZM86.8583 148.76L84.642 145.4C84.5131 145.207 84.3958 145.013 84.2903 144.82C84.2023 144.661 84.1202 144.494 84.044 144.318C83.9737 144.142 83.9385 143.993 83.9385 143.87C83.9385 143.712 83.9825 143.55 84.0704 143.386C84.1642 143.222 84.3254 143.072 84.5541 142.938C84.8179 142.797 85.0583 142.727 85.2753 142.727C85.4394 142.727 85.5889 142.765 85.7238 142.841C85.8645 142.911 85.9906 143.008 86.102 143.131C86.2192 143.248 86.3277 143.383 86.4274 143.536C86.527 143.688 86.6238 143.841 86.7176 143.993L88.3534 146.684H88.6172L90.253 143.993C90.3469 143.841 90.4436 143.688 90.5433 143.536C90.6429 143.383 90.7485 143.248 90.8599 143.131C90.9771 143.008 91.1032 142.911 91.238 142.841C91.3729 142.765 91.5253 142.727 91.6954 142.727C91.8009 142.727 91.9123 142.747 92.0296 142.788C92.1527 142.829 92.2817 142.885 92.4165 142.955C92.6628 143.09 92.8328 143.237 92.9266 143.395C93.0204 143.547 93.0673 143.7 93.0673 143.852C93.0673 143.981 93.0292 144.134 92.953 144.31C92.8768 144.485 92.7918 144.656 92.698 144.82C92.5924 145.013 92.4693 145.207 92.3286 145.4L90.1299 148.76V148.918L92.5748 152.77C92.698 152.964 92.8035 153.157 92.8914 153.35C92.9852 153.538 93.0322 153.726 93.0322 153.913C93.0322 154.072 92.9882 154.23 92.9002 154.388C92.8182 154.541 92.6628 154.687 92.4341 154.828C92.1703 154.969 91.9299 155.039 91.713 155.039C91.5605 155.039 91.4227 155.01 91.2996 154.951C91.1765 154.887 91.0622 154.805 90.9566 154.705C90.8511 154.605 90.7514 154.491 90.6576 154.362C90.5696 154.233 90.4817 154.101 90.3938 153.966L88.6172 151.081H88.3534L86.5769 153.966C86.4889 154.101 86.3981 154.233 86.3042 154.362C86.2163 154.491 86.1196 154.605 86.014 154.705C85.9143 154.805 85.8029 154.887 85.6798 154.951C85.5567 155.01 85.4218 155.039 85.2753 155.039C85.0525 155.039 84.8179 154.969 84.5717 154.828C84.3313 154.687 84.1642 154.541 84.0704 154.388C83.9825 154.23 83.9385 154.072 83.9385 153.913C83.9385 153.726 83.9825 153.538 84.0704 153.35C84.1642 153.157 84.2727 152.964 84.3958 152.77L86.8583 148.918V148.76ZM96.937 148.76L94.7207 145.4C94.5917 145.207 94.4745 145.013 94.3689 144.82C94.281 144.661 94.1989 144.494 94.1227 144.318C94.0523 144.142 94.0172 143.993 94.0172 143.87C94.0172 143.712 94.0611 143.55 94.1491 143.386C94.2429 143.222 94.4041 143.072 94.6328 142.938C94.8966 142.797 95.137 142.727 95.3539 142.727C95.5181 142.727 95.6676 142.765 95.8025 142.841C95.9432 142.911 96.0692 143.008 96.1806 143.131C96.2979 143.248 96.4064 143.383 96.506 143.536C96.6057 143.688 96.7025 143.841 96.7963 143.993L98.4321 146.684H98.6959L100.332 143.993C100.426 143.841 100.522 143.688 100.622 143.536C100.722 143.383 100.827 143.248 100.939 143.131C101.056 143.008 101.182 142.911 101.317 142.841C101.452 142.765 101.604 142.727 101.774 142.727C101.88 142.727 101.991 142.747 102.108 142.788C102.231 142.829 102.36 142.885 102.495 142.955C102.741 143.09 102.911 143.237 103.005 143.395C103.099 143.547 103.146 143.7 103.146 143.852C103.146 143.981 103.108 144.134 103.032 144.31C102.955 144.485 102.87 144.656 102.777 144.82C102.671 145.013 102.548 145.207 102.407 145.4L100.209 148.76V148.918L102.654 152.77C102.777 152.964 102.882 153.157 102.97 153.35C103.064 153.538 103.111 153.726 103.111 153.913C103.111 154.072 103.067 154.23 102.979 154.388C102.897 154.541 102.741 154.687 102.513 154.828C102.249 154.969 102.009 155.039 101.792 155.039C101.639 155.039 101.501 155.01 101.378 154.951C101.255 154.887 101.141 154.805 101.035 154.705C100.93 154.605 100.83 154.491 100.736 154.362C100.648 154.233 100.56 154.101 100.472 153.966L98.6959 151.081H98.4321L96.6556 153.966C96.5676 154.101 96.4767 154.233 96.3829 154.362C96.295 154.491 96.1982 154.605 96.0927 154.705C95.993 154.805 95.8816 154.887 95.7585 154.951C95.6354 155.01 95.5005 155.039 95.3539 155.039C95.1311 155.039 94.8966 154.969 94.6504 154.828C94.41 154.687 94.2429 154.541 94.1491 154.388C94.0611 154.23 94.0172 154.072 94.0172 153.913C94.0172 153.726 94.0611 153.538 94.1491 153.35C94.2429 153.157 94.3514 152.964 94.4745 152.77L96.937 148.918V148.76ZM107.016 148.76L104.799 145.4C104.67 145.207 104.553 145.013 104.448 144.82C104.36 144.661 104.278 144.494 104.201 144.318C104.131 144.142 104.096 143.993 104.096 143.87C104.096 143.712 104.14 143.55 104.228 143.386C104.322 143.222 104.483 143.072 104.711 142.938C104.975 142.797 105.216 142.727 105.433 142.727C105.597 142.727 105.746 142.765 105.881 142.841C106.022 142.911 106.148 143.008 106.259 143.131C106.377 143.248 106.485 143.383 106.585 143.536C106.684 143.688 106.781 143.841 106.875 143.993L108.511 146.684H108.775L110.41 143.993C110.504 143.841 110.601 143.688 110.701 143.536C110.8 143.383 110.906 143.248 111.017 143.131C111.134 143.008 111.261 142.911 111.395 142.841C111.53 142.765 111.683 142.727 111.853 142.727C111.958 142.727 112.07 142.747 112.187 142.788C112.31 142.829 112.439 142.885 112.574 142.955C112.82 143.09 112.99 143.237 113.084 143.395C113.178 143.547 113.225 143.7 113.225 143.852C113.225 143.981 113.187 144.134 113.11 144.31C113.034 144.485 112.949 144.656 112.855 144.82C112.75 145.013 112.627 145.207 112.486 145.4L110.287 148.76V148.918L112.732 152.77C112.855 152.964 112.961 153.157 113.049 153.35C113.143 153.538 113.19 153.726 113.19 153.913C113.19 154.072 113.146 154.23 113.058 154.388C112.976 154.541 112.82 154.687 112.591 154.828C112.328 154.969 112.087 155.039 111.87 155.039C111.718 155.039 111.58 155.01 111.457 154.951C111.334 154.887 111.22 154.805 111.114 154.705C111.008 154.605 110.909 154.491 110.815 154.362C110.727 154.233 110.639 154.101 110.551 153.966L108.775 151.081H108.511L106.734 153.966C106.646 154.101 106.555 154.233 106.462 154.362C106.374 154.491 106.277 154.605 106.171 154.705C106.072 154.805 105.96 154.887 105.837 154.951C105.714 155.01 105.579 155.039 105.433 155.039C105.21 155.039 104.975 154.969 104.729 154.828C104.489 154.687 104.322 154.541 104.228 154.388C104.14 154.23 104.096 154.072 104.096 153.913C104.096 153.726 104.14 153.538 104.228 153.35C104.322 153.157 104.43 152.964 104.553 152.77L107.016 148.918V148.76ZM117.094 148.76L114.878 145.4C114.749 145.207 114.632 145.013 114.526 144.82C114.438 144.661 114.356 144.494 114.28 144.318C114.21 144.142 114.175 143.993 114.175 143.87C114.175 143.712 114.218 143.55 114.306 143.386C114.4 143.222 114.561 143.072 114.79 142.938C115.054 142.797 115.294 142.727 115.511 142.727C115.675 142.727 115.825 142.765 115.96 142.841C116.101 142.911 116.227 143.008 116.338 143.131C116.455 143.248 116.564 143.383 116.663 143.536C116.763 143.688 116.86 143.841 116.954 143.993L118.589 146.684H118.853L120.489 143.993C120.583 143.841 120.68 143.688 120.779 143.536C120.879 143.383 120.985 143.248 121.096 143.131C121.213 143.008 121.339 142.911 121.474 142.841C121.609 142.765 121.761 142.727 121.931 142.727C122.037 142.727 122.148 142.747 122.266 142.788C122.389 142.829 122.518 142.885 122.653 142.955C122.899 143.09 123.069 143.237 123.163 143.395C123.256 143.547 123.303 143.7 123.303 143.852C123.303 143.981 123.265 144.134 123.189 144.31C123.113 144.485 123.028 144.656 122.934 144.82C122.828 145.013 122.705 145.207 122.565 145.4L120.366 148.76V148.918L122.811 152.77C122.934 152.964 123.04 153.157 123.127 153.35C123.221 153.538 123.268 153.726 123.268 153.913C123.268 154.072 123.224 154.23 123.136 154.388C123.054 154.541 122.899 154.687 122.67 154.828C122.406 154.969 122.166 155.039 121.949 155.039C121.797 155.039 121.659 155.01 121.536 154.951C121.413 154.887 121.298 154.805 121.193 154.705C121.087 154.605 120.987 154.491 120.894 154.362C120.806 154.233 120.718 154.101 120.63 153.966L118.853 151.081H118.589L116.813 153.966C116.725 154.101 116.634 154.233 116.54 154.362C116.452 154.491 116.356 154.605 116.25 154.705C116.15 154.805 116.039 154.887 115.916 154.951C115.793 155.01 115.658 155.039 115.511 155.039C115.289 155.039 115.054 154.969 114.808 154.828C114.567 154.687 114.4 154.541 114.306 154.388C114.218 154.23 114.175 154.072 114.175 153.913C114.175 153.726 114.218 153.538 114.306 153.35C114.4 153.157 114.509 152.964 114.632 152.77L117.094 148.918V148.76Z" fill="black"/>
<path d="M46.4158 51.1993C45.58 51.1993 44.7635 51.108 43.9662 50.9255C43.1785 50.7334 42.5301 50.4788 42.021 50.1618L43.1161 47.6835C43.5964 47.962 44.1343 48.1878 44.7299 48.3607C45.3255 48.524 45.897 48.6056 46.4446 48.6056C46.9153 48.6056 47.2515 48.5624 47.4532 48.476C47.655 48.3799 47.7558 48.2406 47.7558 48.0581C47.7558 47.8468 47.6213 47.6883 47.3524 47.5826C47.093 47.4769 46.6607 47.3617 46.0555 47.2368C45.2775 47.0735 44.629 46.9006 44.1103 46.718C43.5916 46.5259 43.1401 46.2185 42.7558 45.7959C42.3716 45.3636 42.1795 44.7824 42.1795 44.0523C42.1795 43.4183 42.3572 42.842 42.7126 42.3232C43.068 41.8045 43.5964 41.3963 44.2976 41.0985C45.0085 40.8007 45.8682 40.6518 46.8769 40.6518C47.5685 40.6518 48.2457 40.7286 48.9086 40.8823C49.581 41.0264 50.1718 41.2426 50.6809 41.5307L49.6578 43.9947C48.6684 43.4952 47.7318 43.2454 46.8481 43.2454C45.9739 43.2454 45.5368 43.4568 45.5368 43.8794C45.5368 44.0812 45.6665 44.2349 45.9259 44.3405C46.1852 44.4366 46.6127 44.5423 47.2083 44.6575C47.9768 44.8016 48.6252 44.9697 49.1535 45.1619C49.6819 45.3444 50.1381 45.647 50.5224 46.0696C50.9162 46.4923 51.1132 47.0687 51.1132 47.7987C51.1132 48.4327 50.9355 49.0091 50.58 49.5278C50.2246 50.037 49.6915 50.4452 48.9806 50.7526C48.2794 51.0504 47.4244 51.1993 46.4158 51.1993ZM57.3412 51.1993C56.2749 51.1993 55.3143 50.9784 54.4594 50.5365C53.6044 50.085 52.932 49.4606 52.4421 48.6633C51.9618 47.8564 51.7216 46.9438 51.7216 45.9255C51.7216 44.9073 51.9618 43.9995 52.4421 43.2022C52.932 42.3953 53.6044 41.7709 54.4594 41.329C55.3143 40.8775 56.2749 40.6518 57.3412 40.6518C58.321 40.6518 59.1952 40.8247 59.9637 41.1705C60.7321 41.5163 61.3662 42.0159 61.8657 42.6691L59.7187 44.5855C59.0943 43.7978 58.3594 43.4039 57.5141 43.4039C56.8032 43.4039 56.2317 43.6345 55.7994 44.0956C55.3671 44.5471 55.151 45.1571 55.151 45.9255C55.151 46.694 55.3671 47.3088 55.7994 47.7699C56.2317 48.2214 56.8032 48.4471 57.5141 48.4471C58.3594 48.4471 59.0943 48.0533 59.7187 47.2656L61.8657 49.182C61.3662 49.8352 60.7321 50.3347 59.9637 50.6806C59.1952 51.0264 58.321 51.1993 57.3412 51.1993ZM69.58 49.2108H65.7471L65.0699 50.9688H61.6117L66.0209 40.8823H69.3638L73.773 50.9688H70.2572L69.58 49.2108ZM68.6434 46.7613L67.6636 44.2253L66.6837 46.7613H68.6434ZM84.2581 40.8823V50.9688H81.4627L77.6299 46.3866V50.9688H74.3158V40.8823H77.1111L80.944 45.4644V40.8823H84.2581ZM99.2222 50.9688L99.1934 46.3722L97.0032 50.061H95.5047L93.3145 46.5307V50.9688H90.2165V40.8823H93.0119L96.2972 46.257L99.496 40.8823H102.291L102.32 50.9688H99.2222ZM112.35 48.4039V50.9688H103.964V40.8823H112.163V43.4472H107.307V44.6287H111.572V47.0783H107.307V48.4039H112.35Z" fill="#E1251B"/>
<path d="M50.0446 58.8823H51.4856V68.9688H50.0446V58.8823ZM54.6494 58.1907C54.9184 58.1907 55.1393 58.2868 55.3122 58.4789C55.4947 58.6614 55.586 58.8919 55.586 59.1705C55.586 59.3146 55.5716 59.4587 55.5427 59.6028C55.5139 59.7373 55.4515 59.9342 55.3554 60.1936L54.6638 62.2108H53.756L54.2892 60.0639C54.1066 59.9966 53.9577 59.8862 53.8425 59.7325C53.7368 59.5692 53.684 59.3818 53.684 59.1705C53.684 58.8823 53.7752 58.647 53.9577 58.4645C54.1403 58.2819 54.3708 58.1907 54.6494 58.1907ZM67.1214 61.2598C68.082 61.2598 68.8409 61.5384 69.3981 62.0956C69.9648 62.6527 70.2482 63.4789 70.2482 64.574V68.9688H68.8649V64.7325C68.8649 63.9928 68.692 63.4356 68.3462 63.061C68.01 62.6864 67.5249 62.499 66.8909 62.499C66.1896 62.499 65.6325 62.72 65.2194 63.1619C64.8063 63.5941 64.5998 64.2185 64.5998 65.035V68.9688H63.2165V64.7325C63.2165 63.9928 63.0436 63.4356 62.6978 63.061C62.3616 62.6864 61.8765 62.499 61.2425 62.499C60.5412 62.499 59.9841 62.72 59.571 63.1619C59.1579 63.5941 58.9514 64.2185 58.9514 65.035V68.9688H57.5681V61.3319H58.8938V62.4702C59.1724 62.0764 59.5374 61.7786 59.9889 61.5768C60.4404 61.3655 60.9543 61.2598 61.5307 61.2598C62.1262 61.2598 62.6546 61.3799 63.1157 61.6201C63.5768 61.8602 63.9322 62.2108 64.1819 62.6719C64.4701 62.2301 64.8688 61.8842 65.3779 61.6345C65.8966 61.3847 66.4778 61.2598 67.1214 61.2598ZM76.8648 58.8823H78.3057V67.7152H83.7668V68.9688H76.8648V58.8823ZM88.3909 69.0552C87.632 69.0552 86.95 68.8871 86.3448 68.5509C85.7396 68.2147 85.2641 67.7536 84.9183 67.1676C84.5821 66.572 84.414 65.8996 84.414 65.1503C84.414 64.401 84.5821 63.7334 84.9183 63.1474C85.2641 62.5519 85.7396 62.0908 86.3448 61.7642C86.95 61.428 87.632 61.2598 88.3909 61.2598C89.1498 61.2598 89.827 61.428 90.4226 61.7642C91.0278 62.0908 91.4985 62.5519 91.8347 63.1474C92.1805 63.7334 92.3534 64.401 92.3534 65.1503C92.3534 65.8996 92.1805 66.572 91.8347 67.1676C91.4985 67.7536 91.0278 68.2147 90.4226 68.5509C89.827 68.8871 89.1498 69.0552 88.3909 69.0552ZM88.3909 67.8448C88.8808 67.8448 89.3179 67.7344 89.7022 67.5134C90.096 67.2829 90.4034 66.9659 90.6243 66.5624C90.8453 66.1494 90.9558 65.6787 90.9558 65.1503C90.9558 64.622 90.8453 64.1561 90.6243 63.7526C90.4034 63.3396 90.096 63.0226 89.7022 62.8016C89.3179 62.5807 88.8808 62.4702 88.3909 62.4702C87.901 62.4702 87.4591 62.5807 87.0653 62.8016C86.681 63.0226 86.3736 63.3396 86.1431 63.7526C85.9222 64.1561 85.8117 64.622 85.8117 65.1503C85.8117 65.6787 85.9222 66.1494 86.1431 66.5624C86.3736 66.9659 86.681 67.2829 87.0653 67.5134C87.4591 67.7344 87.901 67.8448 88.3909 67.8448ZM96.4567 69.0552C95.8323 69.0552 95.2319 68.9736 94.6555 68.8102C94.0792 68.6373 93.6277 68.4212 93.3011 68.1618L93.8774 67.0667C94.2137 67.3069 94.6219 67.499 95.1022 67.6431C95.5825 67.7872 96.0676 67.8592 96.5575 67.8592C97.7679 67.8592 98.3731 67.5134 98.3731 66.8218C98.3731 66.5912 98.2914 66.4087 98.1281 66.2742C97.9648 66.1397 97.7583 66.0437 97.5085 65.9861C97.2684 65.9188 96.9226 65.8468 96.4711 65.7699C95.8563 65.6739 95.352 65.5634 94.9581 65.4385C94.5739 65.3136 94.2425 65.1023 93.9639 64.8045C93.6853 64.5067 93.546 64.0888 93.546 63.5509C93.546 62.8593 93.8342 62.3069 94.4106 61.8938C94.9869 61.4712 95.7602 61.2598 96.7305 61.2598C97.2396 61.2598 97.7487 61.3223 98.2578 61.4472C98.7669 61.572 99.1848 61.7402 99.5114 61.9515L98.9206 63.0466C98.2962 62.6431 97.5614 62.4414 96.716 62.4414C96.1301 62.4414 95.6834 62.5375 95.376 62.7296C95.0686 62.9217 94.9149 63.1763 94.9149 63.4933C94.9149 63.743 95.0014 63.94 95.1743 64.084C95.3472 64.2281 95.5585 64.3338 95.8083 64.401C96.0676 64.4683 96.4279 64.5451 96.889 64.6316C97.5037 64.7373 97.9985 64.8525 98.3731 64.9774C98.7573 65.0927 99.0839 65.2944 99.3529 65.5826C99.6219 65.8708 99.7564 66.2742 99.7564 66.793C99.7564 67.4846 99.4586 68.037 98.863 68.45C98.277 68.8535 97.4749 69.0552 96.4567 69.0552ZM105.779 68.5221C105.577 68.695 105.328 68.8295 105.03 68.9255C104.732 69.012 104.425 69.0552 104.108 69.0552C103.339 69.0552 102.744 68.8487 102.321 68.4356C101.898 68.0225 101.687 67.4318 101.687 66.6633V62.4702H100.39V61.3319H101.687V59.6604H103.07V61.3319H105.26V62.4702H103.07V66.6056C103.07 67.0187 103.171 67.3357 103.373 67.5567C103.584 67.7776 103.882 67.8881 104.266 67.8881C104.689 67.8881 105.049 67.768 105.347 67.5278L105.779 68.5221Z" fill="black"/>
<path d="M35.2875 138.353C34.8451 138.353 34.4125 138.3 33.9898 138.194C33.5672 138.082 33.2303 137.943 32.9794 137.778L33.4945 136.669C33.7323 136.821 34.0195 136.946 34.3564 137.045C34.6932 137.138 35.0234 137.184 35.347 137.184C36.0008 137.184 36.3277 137.022 36.3277 136.698C36.3277 136.546 36.2385 136.437 36.0602 136.371C35.8819 136.305 35.6078 136.249 35.238 136.203C34.8021 136.137 34.4422 136.061 34.1582 135.975C33.8742 135.889 33.6266 135.737 33.4153 135.519C33.2105 135.302 33.1082 134.991 33.1082 134.588C33.1082 134.251 33.2039 133.954 33.3954 133.697C33.5936 133.433 33.8775 133.228 34.2474 133.083C34.6238 132.937 35.0663 132.865 35.5748 132.865C35.9513 132.865 36.3244 132.908 36.6942 132.993C37.0707 133.073 37.3811 133.185 37.6254 133.33L37.1103 134.43C36.6414 134.166 36.1296 134.034 35.5748 134.034C35.2446 134.034 34.997 134.08 34.8319 134.172C34.6667 134.265 34.5842 134.384 34.5842 134.529C34.5842 134.694 34.6734 134.81 34.8517 134.876C35.03 134.942 35.314 135.004 35.7036 135.064C36.1395 135.136 36.4961 135.216 36.7735 135.302C37.0509 135.381 37.2919 135.529 37.4967 135.747C37.7014 135.965 37.8037 136.269 37.8037 136.659C37.8037 136.989 37.7047 137.283 37.5066 137.54C37.3084 137.798 37.0178 137.999 36.6348 138.145C36.2584 138.283 35.8093 138.353 35.2875 138.353ZM41.9074 132.865C42.4027 132.865 42.8518 132.98 43.2547 133.211C43.6641 133.436 43.9845 133.756 44.2156 134.172C44.4467 134.582 44.5623 135.06 44.5623 135.609C44.5623 136.157 44.4467 136.639 44.2156 137.055C43.9845 137.464 43.6641 137.785 43.2547 138.016C42.8518 138.24 42.4027 138.353 41.9074 138.353C41.2272 138.353 40.6923 138.138 40.3026 137.709V140.195H38.7572V132.944H40.2333V133.558C40.6163 133.096 41.1744 132.865 41.9074 132.865ZM41.64 137.085C42.0362 137.085 42.3598 136.953 42.6108 136.688C42.8683 136.418 42.9971 136.058 42.9971 135.609C42.9971 135.16 42.8683 134.803 42.6108 134.539C42.3598 134.268 42.0362 134.133 41.64 134.133C41.2437 134.133 40.9168 134.268 40.6592 134.539C40.4083 134.803 40.2828 135.16 40.2828 135.609C40.2828 136.058 40.4083 136.418 40.6592 136.688C40.9168 136.953 41.2437 137.085 41.64 137.085ZM46.1136 138.353C45.8428 138.353 45.615 138.26 45.43 138.075C45.2451 137.89 45.1527 137.659 45.1527 137.382C45.1527 137.098 45.2451 136.87 45.43 136.698C45.615 136.52 45.8428 136.431 46.1136 136.431C46.3844 136.431 46.6122 136.52 46.7971 136.698C46.982 136.87 47.0745 137.098 47.0745 137.382C47.0745 137.659 46.982 137.89 46.7971 138.075C46.6122 138.26 46.3844 138.353 46.1136 138.353ZM53.5521 132.944V137.382C53.5521 138.359 53.2978 139.086 52.7893 139.561C52.2807 140.037 51.5378 140.275 50.5604 140.275C50.0452 140.275 49.5565 140.212 49.0942 140.086C48.6319 139.961 48.2489 139.779 47.9451 139.541L48.5593 138.432C48.7838 138.617 49.0678 138.762 49.4112 138.868C49.7546 138.98 50.0981 139.036 50.4415 139.036C50.9764 139.036 51.3694 138.914 51.6203 138.67C51.8779 138.432 52.0067 138.069 52.0067 137.58V137.352C51.6038 137.795 51.0425 138.016 50.3226 138.016C49.8339 138.016 49.3848 137.91 48.9753 137.699C48.5725 137.481 48.2522 137.177 48.0144 136.787C47.7767 136.398 47.6578 135.949 47.6578 135.44C47.6578 134.932 47.7767 134.483 48.0144 134.093C48.2522 133.703 48.5725 133.403 48.9753 133.192C49.3848 132.974 49.8339 132.865 50.3226 132.865C51.0953 132.865 51.6831 133.119 52.0859 133.627V132.944H53.5521ZM50.6297 136.748C51.0392 136.748 51.3727 136.629 51.6302 136.391C51.8944 136.147 52.0265 135.83 52.0265 135.44C52.0265 135.051 51.8944 134.737 51.6302 134.499C51.3727 134.255 51.0392 134.133 50.6297 134.133C50.2202 134.133 49.8834 134.255 49.6193 134.499C49.3551 134.737 49.223 135.051 49.223 135.44C49.223 135.83 49.3551 136.147 49.6193 136.391C49.8834 136.629 50.2202 136.748 50.6297 136.748ZM60.211 135.628C60.211 135.648 60.2011 135.787 60.1813 136.045H56.1494C56.2221 136.375 56.3938 136.636 56.6646 136.827C56.9353 137.019 57.2722 137.114 57.675 137.114C57.9524 137.114 58.1967 137.075 58.4081 136.996C58.626 136.91 58.8274 136.778 59.0124 136.599L59.8346 137.491C59.3327 138.065 58.5996 138.353 57.6354 138.353C57.0344 138.353 56.5028 138.237 56.0405 138.006C55.5782 137.768 55.2216 137.441 54.9706 137.025C54.7196 136.609 54.5942 136.137 54.5942 135.609C54.5942 135.087 54.7163 134.618 54.9607 134.202C55.2116 133.779 55.5518 133.452 55.981 133.221C56.4169 132.983 56.9023 132.865 57.4373 132.865C57.959 132.865 58.4312 132.977 58.8539 133.201C59.2765 133.426 59.6067 133.75 59.8445 134.172C60.0889 134.588 60.211 135.074 60.211 135.628ZM57.4472 134.034C57.0971 134.034 56.8033 134.133 56.5655 134.331C56.3278 134.529 56.1825 134.8 56.1296 135.143H58.7548C58.702 134.806 58.5567 134.539 58.3189 134.341C58.0812 134.136 57.7906 134.034 57.4472 134.034ZM64.4793 132.865C65.1397 132.865 65.6713 133.063 66.0742 133.459C66.4836 133.855 66.6884 134.443 66.6884 135.222V138.273H65.143V135.46C65.143 135.037 65.0505 134.724 64.8656 134.519C64.6807 134.308 64.4132 134.202 64.0632 134.202C63.6735 134.202 63.3631 134.324 63.132 134.568C62.9008 134.806 62.7853 135.163 62.7853 135.638V138.273H61.2399V132.944H62.7159V133.568C62.9207 133.343 63.1749 133.172 63.4787 133.053C63.7825 132.927 64.116 132.865 64.4793 132.865ZM68.0892 132.944H69.6346V138.273H68.0892V132.944ZM68.8619 132.201C68.5779 132.201 68.3467 132.118 68.1684 131.953C67.9901 131.788 67.9009 131.583 67.9009 131.339C67.9009 131.095 67.9901 130.89 68.1684 130.725C68.3467 130.56 68.5779 130.477 68.8619 130.477C69.1458 130.477 69.377 130.556 69.5553 130.715C69.7336 130.873 69.8228 131.072 69.8228 131.309C69.8228 131.567 69.7336 131.782 69.5553 131.953C69.377 132.118 69.1458 132.201 68.8619 132.201ZM76.438 132.944V138.273H74.9719V137.639C74.7672 137.871 74.5228 138.049 74.2388 138.174C73.9548 138.293 73.6477 138.353 73.3175 138.353C72.6175 138.353 72.0627 138.151 71.6533 137.748C71.2438 137.346 71.0391 136.748 71.0391 135.955V132.944H72.5845V135.728C72.5845 136.586 72.9444 137.015 73.6643 137.015C74.0341 137.015 74.3313 136.896 74.5558 136.659C74.7804 136.414 74.8926 136.054 74.8926 135.579V132.944H76.438ZM79.6628 138.353C79.2203 138.353 78.7877 138.3 78.365 138.194C77.9424 138.082 77.6055 137.943 77.3546 137.778L77.8697 136.669C78.1075 136.821 78.3947 136.946 78.7316 137.045C79.0684 137.138 79.3986 137.184 79.7222 137.184C80.376 137.184 80.7029 137.022 80.7029 136.698C80.7029 136.546 80.6138 136.437 80.4354 136.371C80.2571 136.305 79.9831 136.249 79.6132 136.203C79.1773 136.137 78.8174 136.061 78.5334 135.975C78.2495 135.889 78.0018 135.737 77.7905 135.519C77.5857 135.302 77.4834 134.991 77.4834 134.588C77.4834 134.251 77.5791 133.954 77.7706 133.697C77.9688 133.433 78.2528 133.228 78.6226 133.083C78.999 132.937 79.4415 132.865 79.95 132.865C80.3265 132.865 80.6996 132.908 81.0694 132.993C81.4459 133.073 81.7563 133.185 82.0006 133.33L81.4855 134.43C81.0166 134.166 80.5048 134.034 79.95 134.034C79.6198 134.034 79.3722 134.08 79.2071 134.172C79.042 134.265 78.9594 134.384 78.9594 134.529C78.9594 134.694 79.0486 134.81 79.2269 134.876C79.4052 134.942 79.6892 135.004 80.0788 135.064C80.5147 135.136 80.8713 135.216 81.1487 135.302C81.4261 135.381 81.6671 135.529 81.8719 135.747C82.0766 135.965 82.179 136.269 82.179 136.659C82.179 136.989 82.0799 137.283 81.8818 137.54C81.6836 137.798 81.3931 137.999 81.01 138.145C80.6336 138.283 80.1845 138.353 79.6628 138.353ZM86.5699 138.016C86.418 138.128 86.2298 138.214 86.0053 138.273C85.7873 138.326 85.5562 138.353 85.3118 138.353C84.6778 138.353 84.1858 138.191 83.8358 137.867C83.4924 137.544 83.3207 137.068 83.3207 136.441V134.251H82.4984V133.063H83.3207V131.765H84.866V133.063H86.1935V134.251H84.866V136.421C84.866 136.646 84.9222 136.821 85.0344 136.946C85.1533 137.065 85.3184 137.124 85.5298 137.124C85.7741 137.124 85.9821 137.058 86.1539 136.926L86.5699 138.016ZM89.5871 132.865C90.4126 132.865 91.0466 133.063 91.4891 133.459C91.9316 133.849 92.1528 134.44 92.1528 135.232V138.273H90.7065V137.61C90.4159 138.105 89.8744 138.353 89.0819 138.353C88.6724 138.353 88.3158 138.283 88.012 138.145C87.7148 138.006 87.4869 137.814 87.3284 137.57C87.1699 137.326 87.0907 137.048 87.0907 136.738C87.0907 136.243 87.2756 135.853 87.6454 135.569C88.0219 135.285 88.5998 135.143 89.3791 135.143H90.6074C90.6074 134.806 90.5051 134.549 90.3003 134.37C90.0956 134.185 89.7885 134.093 89.3791 134.093C89.0951 134.093 88.8144 134.139 88.537 134.232C88.2662 134.318 88.0351 134.436 87.8436 134.588L87.2888 133.509C87.5794 133.304 87.9261 133.145 88.329 133.033C88.7384 132.921 89.1578 132.865 89.5871 132.865ZM89.4682 137.313C89.7324 137.313 89.9668 137.253 90.1716 137.134C90.3763 137.009 90.5216 136.827 90.6074 136.589V136.045H89.5475C88.9135 136.045 88.5965 136.253 88.5965 136.669C88.5965 136.867 88.6724 137.025 88.8243 137.144C88.9828 137.256 89.1974 137.313 89.4682 137.313ZM99.1075 132.944V137.382C99.1075 138.359 98.8532 139.086 98.3447 139.561C97.8362 140.037 97.0932 140.275 96.1158 140.275C95.6007 140.275 95.112 140.212 94.6497 140.086C94.1874 139.961 93.8043 139.779 93.5005 139.541L94.1147 138.432C94.3393 138.617 94.6233 138.762 94.9667 138.868C95.3101 138.98 95.6535 139.036 95.9969 139.036C96.5319 139.036 96.9248 138.914 97.1758 138.67C97.4333 138.432 97.5621 138.069 97.5621 137.58V137.352C97.1593 137.795 96.5979 138.016 95.878 138.016C95.3893 138.016 94.9403 137.91 94.5308 137.699C94.1279 137.481 93.8076 137.177 93.5699 136.787C93.3321 136.398 93.2133 135.949 93.2133 135.44C93.2133 134.932 93.3321 134.483 93.5699 134.093C93.8076 133.703 94.1279 133.403 94.5308 133.192C94.9403 132.974 95.3893 132.865 95.878 132.865C96.6507 132.865 97.2385 133.119 97.6414 133.627V132.944H99.1075ZM96.1851 136.748C96.5946 136.748 96.9281 136.629 97.1857 136.391C97.4498 136.147 97.5819 135.83 97.5819 135.44C97.5819 135.051 97.4498 134.737 97.1857 134.499C96.9281 134.255 96.5946 134.133 96.1851 134.133C95.7757 134.133 95.4389 134.255 95.1747 134.499C94.9105 134.737 94.7784 135.051 94.7784 135.44C94.7784 135.83 94.9105 136.147 95.1747 136.391C95.4389 136.629 95.7757 136.748 96.1851 136.748ZM101.13 138.353C100.86 138.353 100.632 138.26 100.447 138.075C100.262 137.89 100.169 137.659 100.169 137.382C100.169 137.098 100.262 136.87 100.447 136.698C100.632 136.52 100.86 136.431 101.13 136.431C101.401 136.431 101.629 136.52 101.814 136.698C101.999 136.87 102.091 137.098 102.091 137.382C102.091 137.659 101.999 137.89 101.814 138.075C101.629 138.26 101.401 138.353 101.13 138.353ZM105.646 138.353C105.078 138.353 104.567 138.237 104.111 138.006C103.662 137.768 103.309 137.441 103.051 137.025C102.8 136.609 102.675 136.137 102.675 135.609C102.675 135.08 102.8 134.608 103.051 134.192C103.309 133.776 103.662 133.452 104.111 133.221C104.567 132.983 105.078 132.865 105.646 132.865C106.208 132.865 106.697 132.983 107.113 133.221C107.535 133.452 107.842 133.786 108.034 134.222L106.835 134.866C106.558 134.377 106.158 134.133 105.637 134.133C105.234 134.133 104.9 134.265 104.636 134.529C104.372 134.793 104.24 135.153 104.24 135.609C104.24 136.064 104.372 136.424 104.636 136.688C104.9 136.953 105.234 137.085 105.637 137.085C106.165 137.085 106.564 136.84 106.835 136.352L108.034 137.005C107.842 137.428 107.535 137.758 107.113 137.996C106.697 138.234 106.208 138.353 105.646 138.353ZM111.392 138.353C110.831 138.353 110.325 138.237 109.876 138.006C109.434 137.768 109.087 137.441 108.836 137.025C108.585 136.609 108.46 136.137 108.46 135.609C108.46 135.08 108.585 134.608 108.836 134.192C109.087 133.776 109.434 133.452 109.876 133.221C110.325 132.983 110.831 132.865 111.392 132.865C111.953 132.865 112.455 132.983 112.898 133.221C113.34 133.452 113.687 133.776 113.938 134.192C114.189 134.608 114.314 135.08 114.314 135.609C114.314 136.137 114.189 136.609 113.938 137.025C113.687 137.441 113.34 137.768 112.898 138.006C112.455 138.237 111.953 138.353 111.392 138.353ZM111.392 137.085C111.788 137.085 112.112 136.953 112.363 136.688C112.62 136.418 112.749 136.058 112.749 135.609C112.749 135.16 112.62 134.803 112.363 134.539C112.112 134.268 111.788 134.133 111.392 134.133C110.996 134.133 110.669 134.268 110.411 134.539C110.154 134.803 110.025 135.16 110.025 135.609C110.025 136.058 110.154 136.418 110.411 136.688C110.669 136.953 110.996 137.085 111.392 137.085ZM122.173 132.865C122.84 132.865 123.368 133.063 123.758 133.459C124.154 133.849 124.352 134.436 124.352 135.222V138.273H122.807V135.46C122.807 135.037 122.718 134.724 122.539 134.519C122.368 134.308 122.12 134.202 121.796 134.202C121.433 134.202 121.146 134.321 120.934 134.559C120.723 134.79 120.617 135.136 120.617 135.599V138.273H119.072V135.46C119.072 134.621 118.735 134.202 118.062 134.202C117.705 134.202 117.421 134.321 117.21 134.559C116.998 134.79 116.893 135.136 116.893 135.599V138.273H115.347V132.944H116.823V133.558C117.021 133.333 117.262 133.162 117.546 133.043C117.837 132.924 118.154 132.865 118.497 132.865C118.874 132.865 119.214 132.941 119.518 133.092C119.822 133.238 120.066 133.452 120.251 133.736C120.469 133.459 120.743 133.244 121.073 133.092C121.41 132.941 121.776 132.865 122.173 132.865Z" fill="black"/>
<path d="M80.0318 24.229C83.788 24.229 86.8331 21.2641 86.8331 17.6067C86.8331 13.9493 83.788 10.9844 80.0318 10.9844C76.2755 10.9844 73.2305 13.9493 73.2305 17.6067C73.2305 21.2641 76.2755 24.229 80.0318 24.229Z" fill="white" stroke="black" stroke-width="1.78982" stroke-miterlimit="10"/>
</svg>
