<svg width="56" height="55" viewBox="0 0 56 55" fill="none" xmlns="http://www.w3.org/2000/svg">
<circle cx="27.875" cy="27.5" r="27" fill="#00426A" stroke="#006FB2"/>
<g clip-path="url(#clip0_297_75194)">
<path d="M38.2664 21.2953C37.8901 21.3884 37.5113 21.4615 37.177 21.526C37.0701 21.5466 36.9682 21.5662 36.8743 21.585C36.6371 21.3163 36.4109 21.0559 36.1914 20.803C35.6849 20.2205 35.2065 19.6704 34.7072 19.1435C34.0829 18.4848 33.2295 18.0687 32.1712 17.9067C29.0061 17.4232 25.6135 19.4356 24.6077 22.394C24.5603 22.5343 24.5093 22.6735 24.4607 22.807C24.4452 22.8493 24.43 22.8909 24.4152 22.9319L24.4035 22.9331C24.3889 22.9346 24.3783 22.9363 24.375 22.9369C24.2859 22.9116 24.1984 22.881 24.113 22.8453C22.35 22.0617 20.9469 20.8177 19.8237 19.0425C19.7714 18.9596 19.7217 18.875 19.6719 18.7903C19.5785 18.6231 19.4746 18.4616 19.361 18.3067C19.1479 18.0287 18.903 17.8885 18.6574 17.9001C18.4928 17.9082 18.2517 17.9902 18.0383 18.3356C17.8088 18.7245 17.613 19.1314 17.4529 19.5521C16.6927 21.4392 17.1198 23.3127 17.5768 24.7341C17.6299 24.8991 17.6799 25.0682 17.7431 25.2825C17.7621 25.3485 17.7834 25.419 17.8062 25.4956L16.1439 24.7929C16.1316 24.7877 16.1184 24.7851 16.105 24.7851C16.0917 24.7851 16.0785 24.7878 16.0662 24.793C16.0539 24.7982 16.0429 24.8059 16.0338 24.8154C16.0247 24.825 16.0177 24.8362 16.0132 24.8485C15.7026 25.7107 15.7161 26.4026 16.0669 27.5907C16.5671 29.2841 17.6115 30.6267 19.2575 31.691C19.0963 31.7989 18.9381 31.9069 18.7824 32.0132C17.879 32.6305 17.0256 33.2137 15.9669 33.4001C15.6634 33.4535 15.4422 33.589 15.3262 33.7919C15.2021 34.0091 15.2038 34.2913 15.3311 34.608C15.498 35.0229 15.6865 35.3231 15.9076 35.5261C16.4226 35.9986 16.8941 36.4134 17.4504 36.7004C19.1779 37.5915 21.1668 38.0411 23.3736 38.0411C23.644 38.0411 23.9178 38.0345 24.1949 38.0211C27.0711 37.8805 29.6906 36.7207 31.9805 34.5745C34.3357 32.3671 35.9242 29.4955 36.7022 26.0389C36.847 25.3957 37.0094 24.873 37.6602 24.4866C38.4034 24.0451 38.9704 23.3423 39.2997 22.454C39.402 22.1776 39.5422 21.7992 39.2598 21.4613C38.9746 21.1201 38.6023 21.2121 38.2664 21.2953ZM17.2706 34.5408C17.485 34.4582 17.6879 34.3801 17.8844 34.2992C18.9565 33.8723 19.9047 33.1945 20.6457 32.3256C20.8923 32.0322 20.985 31.8247 20.9544 31.6315C20.9232 31.4351 20.7652 31.2597 20.4258 31.0449C19.1937 30.2646 18.3701 29.4419 17.834 28.4566C17.5316 27.9006 17.2446 27.2874 17.1801 26.5673C17.4382 26.545 17.6983 26.5658 17.9493 26.6287C18.3603 26.7059 18.7854 26.7863 19.2154 26.5465C19.2309 26.5379 19.2436 26.5253 19.2523 26.5102C19.4705 26.1286 19.3092 25.7895 19.1657 25.4905C19.1333 25.4226 19.1007 25.3544 19.0721 25.2855C18.3848 23.6278 18.1666 22.2296 18.3856 20.8851C18.4282 20.6558 18.4849 20.4291 18.5552 20.2063C18.5793 20.1236 18.6042 20.0384 18.629 19.9494C18.8141 20.0903 18.9682 20.2662 19.0822 20.4666C19.1258 20.5334 19.171 20.6024 19.2192 20.6675C20.3429 22.1806 21.5917 23.241 23.0367 23.9091C23.3611 24.064 23.6961 24.1969 24.0393 24.3067C24.4537 24.4346 24.6988 24.4447 24.8853 24.3415C25.0686 24.2396 25.1878 24.0283 25.2837 23.634C25.5189 22.6675 25.9219 21.8843 26.516 21.2398C27.9044 19.7335 29.591 19.0277 31.527 19.1424C32.4053 19.1944 33.1151 19.4994 33.6407 20.0535C34.1828 20.625 34.7432 21.216 35.1441 21.8789C35.6616 22.7349 36.281 23.0411 37.1539 22.8729C37.2337 22.8621 37.3145 22.86 37.3947 22.8667L37.4402 22.8683C37.1746 23.2444 36.8734 23.4779 36.5234 23.58C35.7702 23.7995 35.5369 24.3589 35.3466 24.962C35.2399 25.2999 35.1359 25.6451 35.035 25.9787C34.7477 26.9294 34.4507 27.9126 34.0653 28.8396C32.7437 32.0178 30.6181 34.3256 27.7472 35.6983C25.5371 36.7546 23.2996 37.0146 21.0961 36.4703C20.1243 36.2303 19.1881 35.9565 18.3133 35.6567C17.7042 35.4479 17.304 35.1302 17.0291 34.634C17.1128 34.6016 17.193 34.5707 17.2706 34.5408Z" fill="white"/>
</g>
<defs>
<clipPath id="clip0_297_75194">
<rect width="24" height="24" fill="white" transform="translate(15.375 16)"/>
</clipPath>
</defs>
</svg>
