<svg width="33" height="32" viewBox="0 0 33 32" fill="none" xmlns="http://www.w3.org/2000/svg">
<g clip-path="url(#clip0_1079_83361)">
<path d="M31.1313 7.06106C30.6295 7.18524 30.1245 7.28261 29.6788 7.3686C29.5362 7.39616 29.4003 7.42219 29.2751 7.44728C28.9589 7.089 28.6573 6.74183 28.3646 6.40467C27.6892 5.62793 27.0514 4.89449 26.3857 4.192C25.5533 3.31372 24.4154 2.75885 23.0043 2.54289C18.7841 1.89823 14.2607 4.58144 12.9196 8.526C12.8564 8.71305 12.7885 8.89861 12.7236 9.07665C12.703 9.13299 12.6828 9.18846 12.663 9.24316L12.6473 9.24478C12.6279 9.24676 12.6138 9.24911 12.6094 9.24984C12.4905 9.21615 12.3739 9.17536 12.2601 9.12775C9.9094 8.08292 8.03853 6.42419 6.541 4.0573C6.47119 3.94685 6.40504 3.83396 6.33863 3.72104C6.21398 3.49809 6.07554 3.28273 5.92406 3.07623C5.63988 2.70559 5.31335 2.5187 4.98591 2.53415C4.76649 2.5449 4.44501 2.6542 4.16046 3.11478C3.85451 3.6333 3.59341 4.17585 3.37987 4.73681C2.36636 7.25293 2.93584 9.75094 3.54505 11.6462C3.61586 11.8662 3.68251 12.0916 3.76687 12.3773C3.79215 12.4654 3.82061 12.5594 3.85096 12.6614L1.63458 11.7246C1.61823 11.7176 1.60059 11.7141 1.58277 11.7141C1.56495 11.7142 1.54732 11.7177 1.53098 11.7247C1.51464 11.7316 1.49994 11.7418 1.48778 11.7545C1.47562 11.7673 1.46627 11.7823 1.4603 11.7987C1.04611 12.9483 1.0642 13.8708 1.53189 15.455C2.19889 17.7128 3.59133 19.503 5.78609 20.922C5.57111 21.0658 5.36013 21.2098 5.15261 21.3515C3.94798 22.1747 2.81012 22.9523 1.39859 23.2008C0.99389 23.2719 0.698962 23.4526 0.544288 23.7231C0.378865 24.0128 0.381142 24.3891 0.550865 24.8113C0.773325 25.3645 1.02475 25.7647 1.31955 26.0354C2.00616 26.6654 2.63485 27.2185 3.3766 27.6011C5.67986 28.7893 8.33181 29.3888 11.2741 29.3888C11.6347 29.3888 11.9998 29.38 12.3693 29.3621C16.2041 29.1746 19.6968 27.6283 22.75 24.7667C25.8903 21.8235 28.0083 17.9946 29.0456 13.3859C29.2387 12.5283 29.4552 11.8314 30.3229 11.3162C31.3139 10.7275 32.0699 9.79038 32.509 8.60595C32.6454 8.2374 32.8323 7.73291 32.4558 7.28235C32.0754 6.82744 31.5791 6.95013 31.1313 7.06106ZM3.13681 24.7217C3.42275 24.6116 3.69326 24.5075 3.9553 24.3996C5.3847 23.8304 6.649 22.9267 7.63698 21.7681C7.96581 21.377 8.08936 21.1002 8.04851 20.8427C8.00703 20.5808 7.79634 20.3469 7.34382 20.0605C5.70098 19.0201 4.60284 17.9232 3.88804 16.6094C3.48483 15.8681 3.10215 15.0505 3.01615 14.0904C3.36029 14.0606 3.70716 14.0883 4.04182 14.1723C4.58981 14.2752 5.15652 14.3823 5.72994 14.0626C5.75052 14.0512 5.76754 14.0344 5.77914 14.0143C6.07 13.5054 5.85502 13.0533 5.66368 12.6547C5.62042 12.5641 5.57691 12.4732 5.53883 12.3813C4.62244 10.1711 4.33157 8.3068 4.62346 6.51416C4.68034 6.20832 4.75587 5.90607 4.8497 5.60905C4.88184 5.49884 4.91496 5.38518 4.9481 5.26658C5.19482 5.45444 5.40031 5.68896 5.55226 5.95608C5.61044 6.04517 5.67075 6.1372 5.73499 6.22394C7.23328 8.24145 8.89826 9.65528 10.8249 10.5462C11.2575 10.7527 11.7042 10.9298 12.1618 11.0762C12.7142 11.2468 13.041 11.2603 13.2898 11.1227C13.5342 10.9867 13.6931 10.7051 13.8209 10.1793C14.1346 8.89069 14.6719 7.84638 15.464 6.98699C17.3152 4.97863 19.5641 4.03754 22.1453 4.19049C23.3165 4.2598 24.2628 4.66652 24.9636 5.40532C25.6864 6.16736 26.4337 6.95535 26.9682 7.83921C27.6582 8.98052 28.4841 9.38872 29.6479 9.1645C29.7543 9.15012 29.862 9.14733 29.969 9.15629L30.0297 9.1584C29.6755 9.65988 29.2739 9.97122 28.8072 10.1074C27.8029 10.3999 27.4919 11.1459 27.2381 11.9499C27.0959 12.4005 26.9572 12.8607 26.8227 13.3056C26.4396 14.5732 26.0437 15.8841 25.5297 17.1201C23.7676 21.3578 20.9335 24.4348 17.1056 26.2651C14.1588 27.6734 11.1755 28.0202 8.23747 27.2943C6.94178 26.9743 5.69351 26.6093 4.52707 26.2095C3.71502 25.9311 3.18132 25.5076 2.81481 24.8459C2.92649 24.8028 3.03336 24.7616 3.13681 24.7217Z" fill="#006FB3"/>
</g>
<defs>
<clipPath id="clip0_1079_83361">
<rect width="32" height="32" fill="white" transform="translate(0.610352)"/>
</clipPath>
</defs>
</svg>
