<svg width="33" height="32" viewBox="0 0 33 32" fill="none" xmlns="http://www.w3.org/2000/svg">
<g clip-path="url(#clip0_297_75163)">
<path d="M15.9512 16.4425C13.7234 16.3238 11.7386 15.945 10.083 14.5678C8.8794 13.5663 8.16603 12.2698 7.87284 10.7517C7.23142 7.43471 9.05716 4.55704 11.8001 3.14237C13.7106 2.15692 15.7228 1.77581 17.8615 2.10617C19.6866 2.38795 21.0215 3.41709 22.1026 4.8387C22.4685 5.32016 22.8983 5.77752 23.1529 6.31475C23.6789 7.42578 24.1261 8.56549 23.8227 9.86048C23.5385 11.0715 23.1869 12.24 22.3958 13.2298C21.0069 14.9676 19.2519 16.0712 17.0024 16.3166C16.6009 16.3602 16.2014 16.4124 15.9512 16.4425ZM9.8215 10.0497C10.0627 11.8462 10.9528 13.1329 12.6172 13.7975C13.2906 14.044 13.991 14.2099 14.7035 14.2915C17.005 14.6167 18.9804 14.0199 20.4439 12.1234C21.1025 11.3085 21.4233 10.273 21.3404 9.22963C19.478 8.8846 17.793 8.26068 16.4277 6.90232C14.6682 8.90046 12.3378 9.63111 9.82107 10.0497H9.8215Z" fill="#006FB3"/>
<path d="M19.8096 29.8859C17.0025 29.8859 14.1953 29.8715 11.3885 29.8901C8.96554 29.9061 6.54341 29.9756 4.12012 29.9863C3.44771 29.9908 2.77666 29.9246 2.11813 29.7891C0.887041 29.5306 0.489981 28.8364 0.799721 27.6155C1.04565 26.6466 1.54814 25.7953 2.07755 24.9631C4.22776 21.5781 7.30562 19.3624 11.0112 17.9427C13.0226 17.1555 15.1601 16.7378 17.3205 16.7096C20.4501 16.6863 23.3564 17.4429 25.8524 19.4622C27.6278 20.8788 29.0836 22.6527 30.1252 24.6682C30.4328 25.2657 30.762 25.8565 31.0107 26.4783C31.231 27.0144 31.3886 27.574 31.4805 28.1461C31.613 29.0365 31.1298 29.6309 30.2425 29.7378C29.6201 29.8186 28.9935 29.8636 28.3656 29.8723C25.5138 29.8865 22.6617 29.8786 19.8096 29.8786V29.8859ZM29.2604 27.7646C29.2707 27.6467 29.29 27.5977 29.2762 27.5606C28.3603 25.1365 27.0619 22.9625 25.0627 21.2634C23.8903 20.2671 22.5965 19.4715 21.0858 19.0795C19.0754 18.5755 16.9809 18.5009 14.9395 18.8606C9.87835 19.694 5.83517 22.1496 3.07519 26.5405C2.7816 27.0075 2.54776 27.5124 2.27059 28.0282C3.19155 28.2948 4.03005 28.1885 4.88168 28.137C6.53725 28.0372 8.19848 28.0009 9.85802 27.9918C15.0677 27.9636 20.2776 27.9669 25.4872 27.9422C26.6528 27.9367 27.818 27.8672 28.9831 27.8237C29.0771 27.8113 29.1699 27.7915 29.2604 27.7641V27.7646Z" fill="#006FB3"/>
</g>
<defs>
<clipPath id="clip0_297_75163">
<rect width="32" height="32" fill="white" transform="translate(0.0996094)"/>
</clipPath>
</defs>
</svg>
