<svg width="93" height="92" viewBox="0 0 93 92" fill="none" xmlns="http://www.w3.org/2000/svg">
<path d="M46.372 91.1399C33.8021 91.2088 21.5077 85.802 13.0015 76.5726C-3.49428 59.4569 -3.01218 29.9435 14.1724 13.4477C50.6078 -22.5056 109.635 20.0598 87.0433 65.9657C79.6047 81.1873 63.3155 91.3465 46.372 91.1399Z" fill="#FEC301" fill-opacity="0.19"/>
<path d="M86.2153 45.6613C86.2497 53.2377 84.1145 60.2975 80.4296 66.3586C78.57 69.4235 76.297 72.213 73.6797 74.6581C72.9221 75.3813 72.0956 76.0701 71.2691 76.7589C69.3405 78.3086 67.2743 79.6861 65.1047 80.857C64.0371 81.4424 62.9696 81.959 61.8675 82.4067C60.2145 83.0955 58.4927 83.7153 56.7708 84.1975C56.3231 84.3352 55.841 84.4385 55.3933 84.5418C55.2899 84.5763 55.221 84.5763 55.1177 84.6107C55.0832 84.6107 55.0488 84.6107 55.0144 84.6452C52.2249 85.265 49.3321 85.575 46.4049 85.5406C44.1664 85.575 41.9624 85.4028 39.8272 85.024C38.6219 84.8174 37.4165 84.5419 36.2112 84.2319C32.2508 83.1643 28.4971 81.4769 25.0533 79.2728C25.0189 79.2384 24.9843 79.2384 24.9499 79.204C24.9499 79.204 24.95 79.204 24.9156 79.204C24.7779 79.1351 24.64 79.0318 24.5023 78.9284C24.1923 78.7218 23.9168 78.5152 23.6069 78.343C22.7459 77.7231 21.9195 77.1032 21.1274 76.4489C14.9286 71.3865 10.2449 64.4989 8.07528 56.6126C-6.18207 -1.48436 83.9424 -14.1231 86.2153 45.6613Z" fill="#FEC301" fill-opacity="0.19"/>
<g clip-path="url(#clip0_1647_65657)">
<path d="M48.4362 28.3669C49.3209 27.865 50.0147 27.0844 50.4091 26.1468C50.8034 25.2091 50.8763 24.1673 50.6163 23.1839C50.3563 22.2005 49.778 21.3309 48.9717 20.7107C48.1654 20.0906 47.1765 19.7548 46.1593 19.7559C45.1421 19.7569 44.1539 20.0947 43.3489 20.7164C42.5439 21.3382 41.9673 22.209 41.7093 23.193C41.4513 24.1769 41.5263 25.2186 41.9226 26.1554C42.3189 27.0922 43.0142 27.8715 43.9 28.3715L43.8769 28.413C42.3687 31.5607 40.2733 36.0693 37.0381 37.7617C34.3808 39.1502 30.5676 38.4525 27.7353 37.9321C27.6899 37.2881 27.4649 36.6697 27.0858 36.1471C26.7067 35.6245 26.1887 35.2186 25.5906 34.9755C24.9925 34.7324 24.3382 34.6617 23.702 34.7716C23.0658 34.8815 22.4731 35.1675 21.9912 35.5972C21.5094 36.0269 21.1575 36.583 20.9757 37.2025C20.7939 37.822 20.7894 38.4801 20.9626 39.102C21.1358 39.724 21.4799 40.2849 21.9558 40.7212C22.4317 41.1575 23.0204 41.4517 23.655 41.5703L30.4433 59.0935C30.9467 60.3926 31.8311 61.5091 32.9805 62.2965C34.1299 63.0839 35.4906 63.5053 36.8838 63.5054H55.4432C56.8364 63.5053 58.197 63.0839 59.3464 62.2965C60.4958 61.5091 61.3803 60.3926 61.8837 59.0935L68.6696 41.5703C69.3002 41.453 69.8857 41.1623 70.3605 40.7309C70.8352 40.2995 71.1804 39.7445 71.3575 39.1279C71.5345 38.5114 71.5363 37.8577 71.3628 37.2402C71.1893 36.6227 70.8472 36.0657 70.3749 35.6316C69.9026 35.1975 69.3188 34.9036 68.6888 34.7826C68.0589 34.6617 67.4077 34.7186 66.8082 34.9469C66.2088 35.1752 65.6848 35.5659 65.2949 36.0753C64.905 36.5847 64.6647 37.1926 64.6008 37.8308C61.7018 38.2062 57.9646 38.6851 55.2889 37.2874C52.1181 35.6295 49.9928 31.4317 48.4362 28.3669Z" fill="#FEC301"/>
</g>
<defs>
<clipPath id="clip0_1647_65657">
<rect width="55.2637" height="55.2637" fill="white" transform="translate(18.5312 15.0859)"/>
</clipPath>
</defs>
</svg>
