<svg width="49" height="49" viewBox="0 0 49 49" fill="none" xmlns="http://www.w3.org/2000/svg">
<path d="M24.0291 48.617C17.3795 48.6535 10.8757 45.7932 6.37579 40.9108C-2.35065 31.8564 -2.09562 16.2436 6.99519 7.51712C26.2699 -11.5025 57.4956 11.015 45.5446 35.2996C41.6095 43.352 32.9923 48.7263 24.0291 48.617Z" fill="black" fill-opacity="0.09"/>
<path d="M45.1063 24.5568C45.1245 28.5648 43.9949 32.2994 42.0456 35.5058C41.0618 37.1272 39.8594 38.6029 38.4749 39.8964C38.0741 40.2789 37.6368 40.6433 37.1996 41.0077C36.1794 41.8275 35.0863 42.5562 33.9386 43.1756C33.3738 43.4853 32.8091 43.7586 32.2261 43.9954C31.3516 44.3598 30.4408 44.6877 29.5299 44.9428C29.293 45.0156 29.038 45.0703 28.8011 45.125C28.7465 45.1432 28.71 45.1432 28.6553 45.1614C28.6371 45.1614 28.6189 45.1614 28.6007 45.1796C27.1251 45.5075 25.5947 45.6715 24.0462 45.6533C22.862 45.6715 21.6961 45.5804 20.5665 45.38C19.9289 45.2707 19.2913 45.125 18.6537 44.961C16.5586 44.3962 14.5728 43.5035 12.751 42.3376C12.7328 42.3194 12.7145 42.3194 12.6963 42.3012C12.6963 42.3012 12.6964 42.3012 12.6782 42.3012C12.6053 42.2647 12.5324 42.2101 12.4595 42.1554C12.2956 42.0461 12.1498 41.9368 11.9858 41.8457C11.5304 41.5178 11.0932 41.1899 10.6742 40.8437C7.39494 38.1657 4.91721 34.522 3.76948 30.3501C-3.77279 -0.38373 43.9039 -7.06975 45.1063 24.5568Z" fill="black" fill-opacity="0.09"/>
<g clip-path="url(#clip0_3091_88932)">
<path d="M14.0599 33.0232C14.0288 34.1698 14.2963 35.4761 15.327 36.1922C17.8058 37.9174 20.6 35.9413 23.3439 36.0131C25.6914 36.072 28.7402 38.2353 30.928 37.0037C32.2194 36.2693 32.739 34.8355 32.7715 33.5153C32.8189 31.7086 31.5831 30.1473 29.7432 28.9001C29.0011 28.3929 28.2 26.6313 27.1871 25.2934C26.1741 23.9555 24.8702 23.051 23.6785 23.0189C22.0295 22.9749 20.8292 23.7721 19.9534 24.8895C18.9314 26.2045 18.3203 27.9159 17.4651 28.4882C15.6541 29.703 14.1135 30.9236 14.0599 33.0232Z" fill="#F0F0F0"/>
<path d="M30.9365 22.046C32.0331 19.8176 34.1932 18.6368 35.7611 19.4084C37.3291 20.18 37.7111 22.612 36.6145 24.8403C35.5179 27.0686 33.3578 28.2495 31.7899 27.4778C30.222 26.7062 29.8399 24.2743 30.9365 22.046Z" fill="#F0F0F0"/>
<path d="M28.5192 12.1338C30.2918 12.3594 31.4495 14.7357 31.1051 17.4414C30.7607 20.1471 29.0446 22.1576 27.272 21.932C25.4994 21.7063 24.3417 19.33 24.6861 16.6243C25.0305 13.9186 26.7466 11.9081 28.5192 12.1338Z" fill="#F0F0F0"/>
<path d="M11.8534 18.8004C13.4592 18.1114 15.5549 19.4028 16.5342 21.6849C17.5135 23.9671 17.0056 26.3757 15.3998 27.0648C13.794 27.7539 11.6983 26.4625 10.719 24.1803C9.73972 21.8982 10.2476 19.4895 11.8534 18.8004Z" fill="#F0F0F0"/>
<path d="M19.4542 11.9174C21.236 11.7841 22.8454 13.8808 23.0488 16.6006C23.2523 19.3203 21.9728 21.6332 20.191 21.7665C18.4092 21.8998 16.7999 19.803 16.5965 17.0833C16.393 14.3635 17.6725 12.0507 19.4542 11.9174Z" fill="#F0F0F0"/>
</g>
<defs>
<clipPath id="clip0_3091_88932">
<rect width="29.235" height="29.235" fill="white" transform="translate(9.28516 9.92188)"/>
</clipPath>
</defs>
</svg>
