<svg width="101" height="101" viewBox="0 0 101 101" fill="none" xmlns="http://www.w3.org/2000/svg">
<path d="M50.2803 100.343C36.5191 100.418 23.0596 94.499 13.7473 84.395C-4.31188 65.6572 -3.78409 33.3467 15.0291 15.2875C54.9176 -24.0731 119.539 22.5263 94.8062 72.7828C86.6626 89.447 68.8296 100.569 50.2803 100.343Z" fill="#FEC301" fill-opacity="0.19"/>
<path d="M93.9024 50.5507C93.9401 58.8451 91.6025 66.574 87.5684 73.2095C85.5325 76.5649 83.0441 79.6188 80.1788 82.2956C79.3493 83.0874 78.4445 83.8414 77.5397 84.5954C75.4284 86.292 73.1663 87.8001 70.7911 89.0819C69.6223 89.7229 68.4536 90.2884 67.2471 90.7785C65.4375 91.5326 63.5524 92.2112 61.6673 92.739C61.1772 92.8898 60.6494 93.0029 60.1593 93.1161C60.0462 93.1537 59.9707 93.1537 59.8576 93.1914C59.8199 93.1914 59.7822 93.1914 59.7445 93.2291C56.6907 93.9078 53.5237 94.2471 50.3191 94.2094C47.8685 94.2471 45.4555 94.0586 43.118 93.6439C41.7984 93.4177 40.4789 93.1161 39.1593 92.7767C34.8236 91.608 30.7141 89.7606 26.9439 87.3477C26.9062 87.31 26.8684 87.31 26.8307 87.2723C26.8307 87.2723 26.8309 87.2723 26.7932 87.2723C26.6424 87.1969 26.4915 87.0838 26.3407 86.9706C26.0014 86.7444 25.6997 86.5182 25.3604 86.3297C24.4179 85.6511 23.5131 84.9725 22.646 84.2561C15.8597 78.714 10.7321 71.1736 8.35685 62.5399C-7.2517 -1.06307 91.4141 -14.8996 93.9024 50.5507Z" fill="#FEC301" fill-opacity="0.19"/>
<g clip-path="url(#clip0_297_74231)">
<path d="M52.5422 31.6063C53.5108 31.0569 54.2702 30.2023 54.702 29.1758C55.1338 28.1493 55.2136 27.0087 54.9289 25.9322C54.6442 24.8556 54.0111 23.9035 53.1284 23.2246C52.2458 22.5457 51.1631 22.1781 50.0495 22.1792C48.9359 22.1803 47.854 22.5501 46.9727 23.2308C46.0914 23.9115 45.4603 24.8649 45.1778 25.9421C44.8953 27.0192 44.9774 28.1596 45.4112 29.1852C45.8451 30.2108 46.6063 31.0639 47.576 31.6114L47.5508 31.6568C45.8996 35.1028 43.6056 40.0387 40.0638 41.8915C37.1547 43.4116 32.9801 42.6478 29.8794 42.0781C29.8297 41.373 29.5833 40.696 29.1683 40.1239C28.7533 39.5517 28.1862 39.1074 27.5314 38.8412C26.8766 38.5751 26.1604 38.4977 25.4639 38.618C24.7674 38.7384 24.1185 39.0515 23.591 39.5219C23.0634 39.9923 22.6783 40.6011 22.4792 41.2793C22.2802 41.9575 22.2752 42.6779 22.4648 43.3588C22.6545 44.0397 23.0312 44.6538 23.5522 45.1315C24.0732 45.6091 24.7177 45.9312 25.4124 46.0611L32.844 65.245C33.3951 66.6672 34.3634 67.8895 35.6217 68.7515C36.8801 69.6135 38.3696 70.0748 39.8949 70.075H60.2132C61.7385 70.0748 63.228 69.6135 64.4864 68.7515C65.7447 67.8895 66.713 66.6672 67.2641 65.245L74.6931 46.0611C75.3835 45.9326 76.0245 45.6144 76.5442 45.1421C77.064 44.6699 77.4419 44.0622 77.6357 43.3872C77.8296 42.7122 77.8316 41.9966 77.6416 41.3206C77.4516 40.6445 77.0771 40.0347 76.5601 39.5595C76.043 39.0843 75.4038 38.7625 74.7142 38.6301C74.0245 38.4977 73.3116 38.56 72.6554 38.8099C71.9991 39.0599 71.4254 39.4876 70.9986 40.0453C70.5718 40.6029 70.3087 41.2684 70.2387 41.9672C67.065 42.3781 62.9736 42.9024 60.0443 41.3722C56.5731 39.5572 54.2463 34.9616 52.5422 31.6063Z" fill="#FEC301"/>
</g>
<defs>
<clipPath id="clip0_297_74231">
<rect width="60.5011" height="60.5011" fill="white" transform="translate(19.8027 17.0674)"/>
</clipPath>
</defs>
</svg>
