<svg width="49" height="49" viewBox="0 0 49 49" fill="none" xmlns="http://www.w3.org/2000/svg">
<path d="M24.5291 48.3592C17.8795 48.3957 11.3757 45.5354 6.87579 40.653C-1.85065 31.5986 -1.59562 15.9858 7.49519 7.25931C26.7699 -11.7603 57.9956 10.7572 46.0446 35.0418C42.1095 43.0942 33.4923 48.4685 24.5291 48.3592Z" fill="#FEC301"/>
<path d="M45.6063 24.299C45.6245 28.3069 44.4949 32.0416 42.5456 35.248C41.5618 36.8694 40.3594 38.3451 38.9749 39.6386C38.5741 40.0211 38.1368 40.3855 37.6996 40.7499C36.6794 41.5697 35.5863 42.2984 34.4386 42.9178C33.8738 43.2275 33.3091 43.5008 32.7261 43.7376C31.8516 44.102 30.9408 44.4299 30.0299 44.685C29.793 44.7578 29.538 44.8125 29.3011 44.8671C29.2465 44.8854 29.21 44.8854 29.1553 44.9036C29.1371 44.9036 29.1189 44.9036 29.1007 44.9218C27.6251 45.2497 26.0947 45.4137 24.5462 45.3955C23.362 45.4137 22.1961 45.3226 21.0665 45.1222C20.4289 45.0129 19.7913 44.8671 19.1537 44.7032C17.0586 44.1384 15.0728 43.2457 13.251 42.0798C13.2328 42.0616 13.2145 42.0616 13.1963 42.0433C13.1963 42.0433 13.1964 42.0433 13.1782 42.0433C13.1053 42.0069 13.0324 41.9523 12.9595 41.8976C12.7956 41.7883 12.6498 41.679 12.4858 41.5879C12.0304 41.26 11.5932 40.932 11.1742 40.5859C7.89494 37.9078 5.41721 34.2642 4.26948 30.0923C-3.27279 -0.641542 44.4039 -7.32757 45.6063 24.299Z" fill="#FFEDB3"/>
<g clip-path="url(#clip0_3091_88987)">
<path d="M25.6203 15.1491C26.0884 14.8836 26.4554 14.4706 26.664 13.9746C26.8726 13.4786 26.9112 12.9275 26.7736 12.4072C26.6361 11.887 26.3302 11.427 25.9036 11.0989C25.4771 10.7708 24.9539 10.5932 24.4158 10.5938C23.8777 10.5943 23.355 10.773 22.9291 11.1019C22.5032 11.4308 22.1982 11.8915 22.0618 12.412C21.9253 12.9325 21.9649 13.4836 22.1746 13.9792C22.3842 14.4747 22.752 14.887 23.2206 15.1515L23.2084 15.1734C22.4106 16.8386 21.3021 19.2237 19.5906 20.119C18.1849 20.8536 16.1677 20.4845 14.6694 20.2092C14.6453 19.8685 14.5263 19.5413 14.3258 19.2649C14.1252 18.9884 13.8512 18.7737 13.5348 18.6451C13.2184 18.5165 12.8723 18.4791 12.5357 18.5372C12.1992 18.5954 11.8856 18.7467 11.6307 18.974C11.3758 19.2013 11.1897 19.4955 11.0935 19.8232C10.9973 20.1509 10.9949 20.499 11.0865 20.828C11.1782 21.1571 11.3602 21.4538 11.612 21.6846C11.8637 21.9154 12.1751 22.071 12.5109 22.1338L16.1019 31.4037C16.3682 32.091 16.8361 32.6816 17.4441 33.0981C18.0522 33.5147 18.772 33.7376 19.509 33.7377H29.3271C30.0641 33.7376 30.7839 33.5147 31.3919 33.0981C32 32.6816 32.4679 32.091 32.7342 31.4037L36.324 22.1338C36.6576 22.0717 36.9673 21.918 37.2185 21.6898C37.4696 21.4616 37.6522 21.1679 37.7459 20.8418C37.8396 20.5156 37.8405 20.1698 37.7487 19.8431C37.6569 19.5164 37.476 19.2218 37.2261 18.9922C36.9763 18.7625 36.6674 18.607 36.3342 18.543C36.0009 18.4791 35.6564 18.5092 35.3393 18.6299C35.0222 18.7507 34.745 18.9574 34.5387 19.2269C34.3325 19.4964 34.2053 19.8179 34.1716 20.1556C32.6379 20.3541 30.6609 20.6075 29.2455 19.8681C27.5681 18.991 26.4438 16.7704 25.6203 15.1491Z" fill="#F9BF01"/>
</g>
<defs>
<clipPath id="clip0_3091_88987">
<rect width="29.235" height="29.235" fill="white" transform="translate(9.80078 8.125)"/>
</clipPath>
</defs>
</svg>
