<svg width="16" height="17" viewBox="0 0 16 17" fill="none" xmlns="http://www.w3.org/2000/svg">
<g clip-path="url(#clip0_297_73439)">
<path d="M8.65882 4.55558C8.91498 4.41028 9.11583 4.18426 9.23001 3.9128C9.3442 3.64134 9.36529 3.33971 9.29001 3.055C9.21473 2.77028 9.04731 2.51851 8.81387 2.33896C8.58043 2.15941 8.29412 2.0622 7.99962 2.0625C7.70513 2.0628 7.41901 2.16059 7.18594 2.34061C6.95287 2.52063 6.78596 2.77275 6.71125 3.05762C6.63655 3.34248 6.65826 3.64407 6.773 3.91529C6.88773 4.18652 7.08904 4.41214 7.34549 4.55692L7.33882 4.56892C6.90216 5.48025 6.29549 6.78558 5.35882 7.27558C4.58949 7.67758 3.48549 7.47558 2.66549 7.32492C2.65234 7.13846 2.58718 6.95942 2.47743 6.80811C2.36767 6.65681 2.2177 6.53929 2.04454 6.4689C1.87138 6.39851 1.68195 6.37806 1.49776 6.40988C1.31356 6.4417 1.14197 6.5245 1.00246 6.6489C0.862939 6.7733 0.761082 6.93431 0.708442 7.11367C0.655801 7.29303 0.654485 7.48355 0.704642 7.66362C0.754799 7.84369 0.854421 8.00609 0.992205 8.13241C1.12999 8.25872 1.30042 8.34389 1.48416 8.37825L3.44949 13.4516C3.59524 13.8277 3.85131 14.151 4.18409 14.3789C4.51686 14.6069 4.91079 14.7289 5.31416 14.7289H10.6875C11.0909 14.7289 11.4848 14.6069 11.8176 14.3789C12.1503 14.151 12.4064 13.8277 12.5522 13.4516L14.5168 8.37825C14.6994 8.34427 14.8689 8.26012 15.0064 8.13522C15.1438 8.01033 15.2438 7.84963 15.295 7.67112C15.3463 7.49262 15.3468 7.30337 15.2966 7.12458C15.2463 6.9458 15.1473 6.78453 15.0105 6.65886C14.8738 6.53319 14.7048 6.44808 14.5224 6.41306C14.34 6.37805 14.1515 6.39452 13.9779 6.46062C13.8044 6.52672 13.6526 6.63985 13.5398 6.78732C13.4269 6.9348 13.3573 7.11079 13.3388 7.29558C12.4995 7.40425 11.4175 7.54292 10.6428 7.13825C9.72482 6.65825 9.10949 5.44292 8.65882 4.55558Z" fill="#FEC301"/>
</g>
<defs>
<clipPath id="clip0_297_73439">
<rect width="16" height="16" fill="white" transform="translate(0 0.726562)"/>
</clipPath>
</defs>
</svg>
