<svg width="255" height="176" viewBox="0 0 255 176" fill="none" xmlns="http://www.w3.org/2000/svg">
<g clip-path="url(#clip0_560_24710)">
<path d="M63.3575 31.6904C63.3575 31.6904 63.6069 21.3208 75.3305 18.0068C75.3305 18.0068 86.6622 4.03828 98.0651 8.67071C98.0651 8.67071 121.512 -7.64972 141.467 6.10505C141.467 6.10505 172.932 2.32784 180.701 22.176C180.701 22.176 195.845 24.029 196.914 38.4965C196.914 38.4965 215.301 40.8483 212.522 63.6898C212.522 63.6898 225.065 121.203 196.558 126.014C196.558 126.014 201.44 157.443 176.496 162.717C176.496 162.717 163.169 181.781 136.728 172.338C136.728 172.338 92.6843 184.454 83.6689 162.574C83.6689 162.574 52.9523 154.129 60.5067 130.575C60.5067 130.575 40.6585 96.0456 65.2104 70.7097C65.2461 70.6384 45.291 48.2602 63.3575 31.6904Z" fill="#E79C61"/>
<path d="M101.2 88.9185C101.2 88.9185 100.309 81.4354 91.9348 81.6848C83.5608 81.9342 82.8125 89.7025 83.5608 91.1279C84.3091 92.5532 86.0908 98.3972 92.1842 97.542C98.2777 96.6868 102.376 92.09 101.2 88.9185Z" fill="#331723"/>
<path d="M94.0018 85.6401C93.8237 86.5309 94.4295 87.3861 95.3203 87.5643C96.2112 87.7425 97.0664 87.1367 97.2446 86.2458C97.4227 85.355 96.8169 84.4998 95.9261 84.3216C95.0352 84.1791 94.1444 84.7492 94.0018 85.6401Z" fill="white"/>
<path d="M148.95 90.5939C148.95 90.5939 150.981 83.3245 159.213 84.8212C167.444 86.3178 167.016 94.1217 166.054 95.4401C165.092 96.7586 162.455 102.246 156.576 100.5C150.696 98.7185 147.311 93.5515 148.95 90.5939Z" fill="#331723"/>
<path d="M156.112 88.3135C156.148 89.24 155.435 89.9883 154.509 90.0239C153.582 90.0596 152.834 89.3469 152.798 88.4204C152.763 87.4939 153.475 86.7456 154.402 86.71C155.328 86.71 156.112 87.4226 156.112 88.3135Z" fill="white"/>
<path d="M161.706 111.155C162.205 100.251 147.666 97.5427 147.666 97.5427C144.816 94.0506 136.121 93.8368 136.121 93.8368C130.598 88.5986 123.72 89.7032 123.257 89.7745C122.794 89.6676 116.023 88.0997 110.144 92.9816C110.144 92.9816 101.449 92.6252 98.3844 95.9392C98.3844 95.9392 83.7031 97.6853 83.4893 108.625C83.4893 108.625 68.2736 117.712 71.3737 131.573C74.4739 145.435 83.525 154.735 97.743 150.317C97.743 150.317 105.012 165.461 121.226 151.92C135.159 166.138 144.744 151.849 144.744 151.849C158.642 157.194 168.299 148.464 172.29 134.852C176.281 121.239 161.706 111.155 161.706 111.155Z" fill="#FBBA7C"/>
<path d="M121.083 131.572C121.083 131.572 113.921 129.612 112.389 127.724C110.856 125.871 108.22 118.388 108.612 116.606C109.003 114.824 109.11 114.361 109.11 114.361C109.11 114.361 111.462 108.553 116.344 109.978C125.039 112.544 130.277 108.018 132.914 111.51C135.551 115.002 135.551 119.599 132.95 124.303C130.883 128.045 126.678 131.359 121.083 131.572Z" fill="#331723"/>
<path d="M137.439 142.334H137.368C137.332 142.334 137.261 142.334 137.154 142.299C136.94 142.263 136.655 142.192 136.263 142.085C135.515 141.871 134.375 141.55 132.985 141.051C130.206 140.018 126.286 138.236 121.867 135.172C121.796 135.136 121.725 135.101 121.653 135.065V135.029C121.618 135.029 121.582 135.029 121.547 135.065C121.511 135.065 121.475 135.029 121.44 135.029V135.065C121.368 135.101 121.297 135.136 121.226 135.172C116.914 138.379 113.066 140.303 110.322 141.443C108.932 142.014 107.827 142.37 107.079 142.584C106.687 142.691 106.402 142.762 106.224 142.798C106.117 142.833 106.046 142.833 106.01 142.833H105.974C105.547 142.904 105.262 143.296 105.262 143.688C105.262 143.724 105.262 143.795 105.297 143.831C105.404 144.294 105.832 144.615 106.331 144.508C106.402 144.472 110.999 143.581 117.413 139.769H121.582H121.689H121.796L125.965 139.626C132.522 143.19 137.154 143.938 137.226 143.938C137.689 144.009 138.152 143.688 138.223 143.225C138.223 143.19 138.223 143.118 138.223 143.083C138.152 142.762 137.867 142.406 137.439 142.334Z" fill="#341523"/>
<path d="M68.6664 85.2132C73.3345 67.7881 77.1117 52.7861 76.8979 50.4342C76.3277 44.3764 65.5662 36.9289 65.5662 36.9289C65.5662 36.9289 46.2169 36.1806 33.6024 50.1135C33.6024 50.1135 15.4647 59.2715 11.4737 73.6321C11.4737 73.6321 -9.76428 112.83 6.34234 128.722C6.34234 128.722 6.66305 135.635 12.3645 134.709C12.3645 134.709 9.76322 148.25 21.4512 147.395C21.4512 147.395 23.6605 159.938 35.4198 149.533C35.4198 149.533 44.8628 154.557 51.6689 146.076C69.2366 143.047 57.8336 124.446 57.8336 124.446C57.9049 124.233 57.9405 124.054 58.0118 123.841C69.8067 120.776 65.8157 109.409 63.5351 104.669C64.1052 104.99 64.4616 105.168 64.4616 105.168C77.2542 100.607 71.9091 89.9881 68.6664 85.2132Z" fill="#CB8251"/>
<path d="M184.263 81.3289C178.419 64.2602 173.68 49.5433 173.751 47.1915C173.929 41.098 184.156 32.9378 184.156 32.9378C184.156 32.9378 203.434 30.9067 216.904 43.9488C216.904 43.9488 235.612 51.8952 240.529 65.935C240.529 65.935 264.333 103.636 249.331 120.562C249.331 120.562 249.473 127.475 243.701 126.941C243.701 126.941 247.228 140.268 235.469 140.196C235.469 140.196 234.115 152.847 221.679 143.261C221.679 143.261 212.592 148.927 205.251 140.874C187.506 139.021 197.661 119.707 197.661 119.707C197.59 119.493 197.519 119.315 197.447 119.101C185.474 116.821 188.681 105.239 190.641 100.358C190.107 100.714 189.75 100.928 189.75 100.928C176.708 97.2574 181.341 86.3534 184.263 81.3289Z" fill="#CB8251"/>
<path d="M115.883 57.5251C115.776 57.4182 113.994 55.2445 112.177 52.3225C111.25 50.8615 110.324 49.1867 109.575 47.5119C108.827 45.8371 108.293 44.1267 108.114 42.5588C108.007 41.7392 108.043 40.9909 108.15 40.3138C108.257 39.6724 107.829 39.0666 107.188 38.9597C106.546 38.8528 105.941 39.2804 105.834 39.9219C105.656 40.884 105.656 41.8461 105.798 42.8439C106.012 44.7681 106.653 46.6923 107.473 48.5453C108.72 51.3248 110.359 53.9261 111.678 55.8503C113.032 57.7745 114.065 59.0217 114.065 59.0217C114.493 59.5206 115.241 59.5919 115.74 59.1643C116.239 58.7367 116.275 58.024 115.883 57.5251Z" fill="#CB8251"/>
<path d="M129.923 57.1694C127.393 54.1049 125.183 50.684 123.615 47.1206C123.366 46.5148 122.653 46.2654 122.047 46.5148C121.442 46.7643 121.192 47.477 121.442 48.0827C123.116 51.9312 125.468 55.4946 128.105 58.7017C128.533 59.2006 129.281 59.2719 129.78 58.8442C130.279 58.4166 130.35 57.6683 129.923 57.1694Z" fill="#CB8251"/>
<path d="M156.896 82.5765C156.896 82.5765 159.747 94.1576 168.727 94.6208C177.671 95.1197 165.912 79.2269 156.896 82.5765Z" fill="#E79C61"/>
<path d="M96.0335 80.1888C96.0335 80.1888 91.2585 91.1285 82.35 90.0594C73.4415 89.026 87.7307 75.3782 96.0335 80.1888Z" fill="#E79C61"/>
</g>
<defs>
<clipPath id="clip0_560_24710">
<rect width="254" height="175.035" fill="white" transform="translate(0.320312 0.582031)"/>
</clipPath>
</defs>
</svg>
