<svg width="24" height="24" viewBox="0 0 24 24" fill="none" xmlns="http://www.w3.org/2000/svg">
<circle cx="12" cy="12" r="12" fill="#7ECDD5"/>
<path d="M15.9469 8.64226C16.0038 8.58423 16.0716 8.53814 16.1466 8.50666C16.2215 8.47519 16.3019 8.45898 16.3831 8.45898C16.4644 8.45898 16.5448 8.47519 16.6197 8.50666C16.6946 8.53814 16.7625 8.58423 16.8194 8.64226C17.0577 8.8831 17.0611 9.27226 16.8277 9.51726L11.9002 15.3423C11.8443 15.4037 11.7764 15.4531 11.7007 15.4874C11.625 15.5217 11.5431 15.5402 11.4601 15.5417C11.377 15.5433 11.2945 15.5279 11.2176 15.4964C11.1406 15.465 11.0709 15.4182 11.0127 15.3589L8.01439 12.3206C7.89876 12.2027 7.83398 12.0441 7.83398 11.8789C7.83398 11.7138 7.89876 11.5552 8.01439 11.4373C8.07127 11.3792 8.13914 11.3331 8.21405 11.3017C8.28896 11.2702 8.36939 11.254 8.45064 11.254C8.53189 11.254 8.61233 11.2702 8.68724 11.3017C8.76215 11.3331 8.83002 11.3792 8.88689 11.4373L11.4302 14.0148L15.9302 8.6606C15.9354 8.65416 15.941 8.64803 15.9469 8.64226Z" fill="white"/>
</svg>
